<?xml version="1.0" encoding="utf-8" standalone="no"?>
<!DOCTYPE svg PUBLIC "-//W3C//DTD SVG 1.1//EN"
  "http://www.w3.org/Graphics/SVG/1.1/DTD/svg11.dtd">
<svg xmlns:xlink="http://www.w3.org/1999/xlink" width="620.412232pt" height="800.39952pt" viewBox="0 0 620.412232 800.39952" xmlns="http://www.w3.org/2000/svg" version="1.1">
 <metadata>
  <rdf:RDF xmlns:dc="http://purl.org/dc/elements/1.1/" xmlns:cc="http://creativecommons.org/ns#" xmlns:rdf="http://www.w3.org/1999/02/22-rdf-syntax-ns#">
   <cc:Work>
    <dc:type rdf:resource="http://purl.org/dc/dcmitype/StillImage"/>
    <dc:date>2025-05-15T15:56:14.553305</dc:date>
    <dc:format>image/svg+xml</dc:format>
    <dc:creator>
     <cc:Agent>
      <dc:title>Matplotlib v3.8.4, https://matplotlib.org/</dc:title>
     </cc:Agent>
    </dc:creator>
   </cc:Work>
  </rdf:RDF>
 </metadata>
 <defs>
  <style type="text/css">*{stroke-linejoin: round; stroke-linecap: butt}</style>
 </defs>
 <g id="figure_1">
  <g id="patch_1">
   <path d="M 0 800.39952 
L 620.412232 800.39952 
L 620.412232 0 
L 0 0 
z
" style="fill: #ffffff"/>
  </g>
  <g id="axes_1">
   <g id="patch_2">
    <path d="M 38.974688 386.134447 
L 606.330537 386.134447 
L 606.330537 24.8655 
L 38.974688 24.8655 
z
" style="fill: #ffffff"/>
   </g>
   <g id="matplotlib.axis_1">
    <g id="xtick_1">
     <g id="line2d_1">
      <path d="M 64.746378 386.134447 
L 64.746378 24.8655 
" clip-path="url(#p33bbb53686)" style="fill: none; stroke: #b0b0b0; stroke-width: 0.8; stroke-linecap: square"/>
     </g>
     <g id="line2d_2">
      <defs>
       <path id="m35c976159d" d="M 0 0 
L 0 3.5 
" style="stroke: #000000; stroke-width: 0.8"/>
      </defs>
      <g>
       <use xlink:href="#m35c976159d" x="64.746378" y="386.134447" style="stroke: #000000; stroke-width: 0.8"/>
      </g>
     </g>
    </g>
    <g id="xtick_2">
     <g id="line2d_3">
      <path d="M 150.71376 386.134447 
L 150.71376 24.8655 
" clip-path="url(#p33bbb53686)" style="fill: none; stroke: #b0b0b0; stroke-width: 0.8; stroke-linecap: square"/>
     </g>
     <g id="line2d_4">
      <g>
       <use xlink:href="#m35c976159d" x="150.71376" y="386.134447" style="stroke: #000000; stroke-width: 0.8"/>
      </g>
     </g>
    </g>
    <g id="xtick_3">
     <g id="line2d_5">
      <path d="M 236.681142 386.134447 
L 236.681142 24.8655 
" clip-path="url(#p33bbb53686)" style="fill: none; stroke: #b0b0b0; stroke-width: 0.8; stroke-linecap: square"/>
     </g>
     <g id="line2d_6">
      <g>
       <use xlink:href="#m35c976159d" x="236.681142" y="386.134447" style="stroke: #000000; stroke-width: 0.8"/>
      </g>
     </g>
    </g>
    <g id="xtick_4">
     <g id="line2d_7">
      <path d="M 322.648524 386.134447 
L 322.648524 24.8655 
" clip-path="url(#p33bbb53686)" style="fill: none; stroke: #b0b0b0; stroke-width: 0.8; stroke-linecap: square"/>
     </g>
     <g id="line2d_8">
      <g>
       <use xlink:href="#m35c976159d" x="322.648524" y="386.134447" style="stroke: #000000; stroke-width: 0.8"/>
      </g>
     </g>
    </g>
    <g id="xtick_5">
     <g id="line2d_9">
      <path d="M 408.615906 386.134447 
L 408.615906 24.8655 
" clip-path="url(#p33bbb53686)" style="fill: none; stroke: #b0b0b0; stroke-width: 0.8; stroke-linecap: square"/>
     </g>
     <g id="line2d_10">
      <g>
       <use xlink:href="#m35c976159d" x="408.615906" y="386.134447" style="stroke: #000000; stroke-width: 0.8"/>
      </g>
     </g>
    </g>
    <g id="xtick_6">
     <g id="line2d_11">
      <path d="M 494.583288 386.134447 
L 494.583288 24.8655 
" clip-path="url(#p33bbb53686)" style="fill: none; stroke: #b0b0b0; stroke-width: 0.8; stroke-linecap: square"/>
     </g>
     <g id="line2d_12">
      <g>
       <use xlink:href="#m35c976159d" x="494.583288" y="386.134447" style="stroke: #000000; stroke-width: 0.8"/>
      </g>
     </g>
    </g>
    <g id="xtick_7">
     <g id="line2d_13">
      <path d="M 580.55067 386.134447 
L 580.55067 24.8655 
" clip-path="url(#p33bbb53686)" style="fill: none; stroke: #b0b0b0; stroke-width: 0.8; stroke-linecap: square"/>
     </g>
     <g id="line2d_14">
      <g>
       <use xlink:href="#m35c976159d" x="580.55067" y="386.134447" style="stroke: #000000; stroke-width: 0.8"/>
      </g>
     </g>
    </g>
    <g id="xtick_8">
     <g id="line2d_15">
      <path d="M 107.730069 386.134447 
L 107.730069 24.8655 
" clip-path="url(#p33bbb53686)" style="fill: none; stroke-dasharray: 0.5,0.825; stroke-dashoffset: 0; stroke: #bfbfbf; stroke-width: 0.5"/>
     </g>
     <g id="line2d_16">
      <defs>
       <path id="m5365831993" d="M 0 0 
L 0 2 
" style="stroke: #000000; stroke-width: 0.6"/>
      </defs>
      <g>
       <use xlink:href="#m5365831993" x="107.730069" y="386.134447" style="stroke: #000000; stroke-width: 0.6"/>
      </g>
     </g>
    </g>
    <g id="xtick_9">
     <g id="line2d_17">
      <path d="M 193.697451 386.134447 
L 193.697451 24.8655 
" clip-path="url(#p33bbb53686)" style="fill: none; stroke-dasharray: 0.5,0.825; stroke-dashoffset: 0; stroke: #bfbfbf; stroke-width: 0.5"/>
     </g>
     <g id="line2d_18">
      <g>
       <use xlink:href="#m5365831993" x="193.697451" y="386.134447" style="stroke: #000000; stroke-width: 0.6"/>
      </g>
     </g>
    </g>
    <g id="xtick_10">
     <g id="line2d_19">
      <path d="M 279.664833 386.134447 
L 279.664833 24.8655 
" clip-path="url(#p33bbb53686)" style="fill: none; stroke-dasharray: 0.5,0.825; stroke-dashoffset: 0; stroke: #bfbfbf; stroke-width: 0.5"/>
     </g>
     <g id="line2d_20">
      <g>
       <use xlink:href="#m5365831993" x="279.664833" y="386.134447" style="stroke: #000000; stroke-width: 0.6"/>
      </g>
     </g>
    </g>
    <g id="xtick_11">
     <g id="line2d_21">
      <path d="M 365.632215 386.134447 
L 365.632215 24.8655 
" clip-path="url(#p33bbb53686)" style="fill: none; stroke-dasharray: 0.5,0.825; stroke-dashoffset: 0; stroke: #bfbfbf; stroke-width: 0.5"/>
     </g>
     <g id="line2d_22">
      <g>
       <use xlink:href="#m5365831993" x="365.632215" y="386.134447" style="stroke: #000000; stroke-width: 0.6"/>
      </g>
     </g>
    </g>
    <g id="xtick_12">
     <g id="line2d_23">
      <path d="M 451.599597 386.134447 
L 451.599597 24.8655 
" clip-path="url(#p33bbb53686)" style="fill: none; stroke-dasharray: 0.5,0.825; stroke-dashoffset: 0; stroke: #bfbfbf; stroke-width: 0.5"/>
     </g>
     <g id="line2d_24">
      <g>
       <use xlink:href="#m5365831993" x="451.599597" y="386.134447" style="stroke: #000000; stroke-width: 0.6"/>
      </g>
     </g>
    </g>
    <g id="xtick_13">
     <g id="line2d_25">
      <path d="M 537.566979 386.134447 
L 537.566979 24.8655 
" clip-path="url(#p33bbb53686)" style="fill: none; stroke-dasharray: 0.5,0.825; stroke-dashoffset: 0; stroke: #bfbfbf; stroke-width: 0.5"/>
     </g>
     <g id="line2d_26">
      <g>
       <use xlink:href="#m5365831993" x="537.566979" y="386.134447" style="stroke: #000000; stroke-width: 0.6"/>
      </g>
     </g>
    </g>
   </g>
   <g id="matplotlib.axis_2">
    <g id="ytick_1">
     <g id="line2d_27">
      <path d="M 38.974688 350.441193 
L 606.330537 350.441193 
" clip-path="url(#p33bbb53686)" style="fill: none; stroke: #b0b0b0; stroke-width: 0.8; stroke-linecap: square"/>
     </g>
     <g id="line2d_28"/>
     <g id="text_1">
      <!-- −5 -->
      <g transform="translate(20.58 355.301818) scale(0.14 -0.14)">
       <defs>
        <path id="TimesNewRomanPSMT-2212" d="M 3484 2000 
L 116 2000 
L 116 2256 
L 3484 2256 
L 3484 2000 
z
" transform="scale(0.015625)"/>
        <path id="TimesNewRomanPSMT-35" d="M 2778 4238 
L 2534 3706 
L 1259 3706 
L 981 3138 
Q 1809 3016 2294 2522 
Q 2709 2097 2709 1522 
Q 2709 1188 2573 903 
Q 2438 619 2231 419 
Q 2025 219 1772 97 
Q 1413 -75 1034 -75 
Q 653 -75 479 54 
Q 306 184 306 341 
Q 306 428 378 495 
Q 450 563 559 563 
Q 641 563 702 538 
Q 763 513 909 409 
Q 1144 247 1384 247 
Q 1750 247 2026 523 
Q 2303 800 2303 1197 
Q 2303 1581 2056 1914 
Q 1809 2247 1375 2428 
Q 1034 2569 447 2591 
L 1259 4238 
L 2778 4238 
z
" transform="scale(0.015625)"/>
       </defs>
       <use xlink:href="#TimesNewRomanPSMT-2212"/>
       <use xlink:href="#TimesNewRomanPSMT-35" x="56.396484"/>
      </g>
     </g>
    </g>
    <g id="ytick_2">
     <g id="line2d_29">
      <path d="M 38.974688 270.565195 
L 606.330537 270.565195 
" clip-path="url(#p33bbb53686)" style="fill: none; stroke: #b0b0b0; stroke-width: 0.8; stroke-linecap: square"/>
     </g>
     <g id="line2d_30"/>
     <g id="text_2">
      <!-- 0 -->
      <g transform="translate(28.474688 275.42582) scale(0.14 -0.14)">
       <defs>
        <path id="TimesNewRomanPSMT-30" d="M 231 2094 
Q 231 2819 450 3342 
Q 669 3866 1031 4122 
Q 1313 4325 1613 4325 
Q 2100 4325 2488 3828 
Q 2972 3213 2972 2159 
Q 2972 1422 2759 906 
Q 2547 391 2217 158 
Q 1888 -75 1581 -75 
Q 975 -75 572 641 
Q 231 1244 231 2094 
z
M 844 2016 
Q 844 1141 1059 588 
Q 1238 122 1591 122 
Q 1759 122 1940 273 
Q 2122 425 2216 781 
Q 2359 1319 2359 2297 
Q 2359 3022 2209 3506 
Q 2097 3866 1919 4016 
Q 1791 4119 1609 4119 
Q 1397 4119 1231 3928 
Q 1006 3669 925 3112 
Q 844 2556 844 2016 
z
" transform="scale(0.015625)"/>
       </defs>
       <use xlink:href="#TimesNewRomanPSMT-30"/>
      </g>
     </g>
    </g>
    <g id="ytick_3">
     <g id="line2d_31">
      <path d="M 38.974688 190.689197 
L 606.330537 190.689197 
" clip-path="url(#p33bbb53686)" style="fill: none; stroke: #b0b0b0; stroke-width: 0.8; stroke-linecap: square"/>
     </g>
     <g id="line2d_32"/>
     <g id="text_3">
      <!-- 5 -->
      <g transform="translate(28.474688 195.549822) scale(0.14 -0.14)">
       <use xlink:href="#TimesNewRomanPSMT-35"/>
      </g>
     </g>
    </g>
    <g id="ytick_4">
     <g id="line2d_33">
      <path d="M 38.974688 110.813198 
L 606.330537 110.813198 
" clip-path="url(#p33bbb53686)" style="fill: none; stroke: #b0b0b0; stroke-width: 0.8; stroke-linecap: square"/>
     </g>
     <g id="line2d_34"/>
     <g id="text_4">
      <!-- 10 -->
      <g transform="translate(21.474688 115.673823) scale(0.14 -0.14)">
       <defs>
        <path id="TimesNewRomanPSMT-31" d="M 750 3822 
L 1781 4325 
L 1884 4325 
L 1884 747 
Q 1884 391 1914 303 
Q 1944 216 2037 169 
Q 2131 122 2419 116 
L 2419 0 
L 825 0 
L 825 116 
Q 1125 122 1212 167 
Q 1300 213 1334 289 
Q 1369 366 1369 747 
L 1369 3034 
Q 1369 3497 1338 3628 
Q 1316 3728 1258 3775 
Q 1200 3822 1119 3822 
Q 1003 3822 797 3725 
L 750 3822 
z
" transform="scale(0.015625)"/>
       </defs>
       <use xlink:href="#TimesNewRomanPSMT-31"/>
       <use xlink:href="#TimesNewRomanPSMT-30" x="50"/>
      </g>
     </g>
    </g>
    <g id="ytick_5">
     <g id="line2d_35">
      <path d="M 38.974688 30.9372 
L 606.330537 30.9372 
" clip-path="url(#p33bbb53686)" style="fill: none; stroke: #b0b0b0; stroke-width: 0.8; stroke-linecap: square"/>
     </g>
     <g id="line2d_36"/>
     <g id="text_5">
      <!-- 15 -->
      <g transform="translate(21.474688 35.797825) scale(0.14 -0.14)">
       <use xlink:href="#TimesNewRomanPSMT-31"/>
       <use xlink:href="#TimesNewRomanPSMT-35" x="50"/>
      </g>
     </g>
    </g>
    <g id="ytick_6">
     <g id="line2d_37">
      <path d="M 38.974688 382.391592 
L 606.330537 382.391592 
" clip-path="url(#p33bbb53686)" style="fill: none; stroke-dasharray: 0.5,0.825; stroke-dashoffset: 0; stroke: #bfbfbf; stroke-width: 0.5"/>
     </g>
     <g id="line2d_38"/>
    </g>
    <g id="ytick_7">
     <g id="line2d_39">
      <path d="M 38.974688 366.416393 
L 606.330537 366.416393 
" clip-path="url(#p33bbb53686)" style="fill: none; stroke-dasharray: 0.5,0.825; stroke-dashoffset: 0; stroke: #bfbfbf; stroke-width: 0.5"/>
     </g>
     <g id="line2d_40"/>
    </g>
    <g id="ytick_8">
     <g id="line2d_41">
      <path d="M 38.974688 334.465993 
L 606.330537 334.465993 
" clip-path="url(#p33bbb53686)" style="fill: none; stroke-dasharray: 0.5,0.825; stroke-dashoffset: 0; stroke: #bfbfbf; stroke-width: 0.5"/>
     </g>
     <g id="line2d_42"/>
    </g>
    <g id="ytick_9">
     <g id="line2d_43">
      <path d="M 38.974688 318.490794 
L 606.330537 318.490794 
" clip-path="url(#p33bbb53686)" style="fill: none; stroke-dasharray: 0.5,0.825; stroke-dashoffset: 0; stroke: #bfbfbf; stroke-width: 0.5"/>
     </g>
     <g id="line2d_44"/>
    </g>
    <g id="ytick_10">
     <g id="line2d_45">
      <path d="M 38.974688 302.515594 
L 606.330537 302.515594 
" clip-path="url(#p33bbb53686)" style="fill: none; stroke-dasharray: 0.5,0.825; stroke-dashoffset: 0; stroke: #bfbfbf; stroke-width: 0.5"/>
     </g>
     <g id="line2d_46"/>
    </g>
    <g id="ytick_11">
     <g id="line2d_47">
      <path d="M 38.974688 286.540394 
L 606.330537 286.540394 
" clip-path="url(#p33bbb53686)" style="fill: none; stroke-dasharray: 0.5,0.825; stroke-dashoffset: 0; stroke: #bfbfbf; stroke-width: 0.5"/>
     </g>
     <g id="line2d_48"/>
    </g>
    <g id="ytick_12">
     <g id="line2d_49">
      <path d="M 38.974688 254.589995 
L 606.330537 254.589995 
" clip-path="url(#p33bbb53686)" style="fill: none; stroke-dasharray: 0.5,0.825; stroke-dashoffset: 0; stroke: #bfbfbf; stroke-width: 0.5"/>
     </g>
     <g id="line2d_50"/>
    </g>
    <g id="ytick_13">
     <g id="line2d_51">
      <path d="M 38.974688 238.614796 
L 606.330537 238.614796 
" clip-path="url(#p33bbb53686)" style="fill: none; stroke-dasharray: 0.5,0.825; stroke-dashoffset: 0; stroke: #bfbfbf; stroke-width: 0.5"/>
     </g>
     <g id="line2d_52"/>
    </g>
    <g id="ytick_14">
     <g id="line2d_53">
      <path d="M 38.974688 222.639596 
L 606.330537 222.639596 
" clip-path="url(#p33bbb53686)" style="fill: none; stroke-dasharray: 0.5,0.825; stroke-dashoffset: 0; stroke: #bfbfbf; stroke-width: 0.5"/>
     </g>
     <g id="line2d_54"/>
    </g>
    <g id="ytick_15">
     <g id="line2d_55">
      <path d="M 38.974688 206.664396 
L 606.330537 206.664396 
" clip-path="url(#p33bbb53686)" style="fill: none; stroke-dasharray: 0.5,0.825; stroke-dashoffset: 0; stroke: #bfbfbf; stroke-width: 0.5"/>
     </g>
     <g id="line2d_56"/>
    </g>
    <g id="ytick_16">
     <g id="line2d_57">
      <path d="M 38.974688 174.713997 
L 606.330537 174.713997 
" clip-path="url(#p33bbb53686)" style="fill: none; stroke-dasharray: 0.5,0.825; stroke-dashoffset: 0; stroke: #bfbfbf; stroke-width: 0.5"/>
     </g>
     <g id="line2d_58"/>
    </g>
    <g id="ytick_17">
     <g id="line2d_59">
      <path d="M 38.974688 158.738797 
L 606.330537 158.738797 
" clip-path="url(#p33bbb53686)" style="fill: none; stroke-dasharray: 0.5,0.825; stroke-dashoffset: 0; stroke: #bfbfbf; stroke-width: 0.5"/>
     </g>
     <g id="line2d_60"/>
    </g>
    <g id="ytick_18">
     <g id="line2d_61">
      <path d="M 38.974688 142.763598 
L 606.330537 142.763598 
" clip-path="url(#p33bbb53686)" style="fill: none; stroke-dasharray: 0.5,0.825; stroke-dashoffset: 0; stroke: #bfbfbf; stroke-width: 0.5"/>
     </g>
     <g id="line2d_62"/>
    </g>
    <g id="ytick_19">
     <g id="line2d_63">
      <path d="M 38.974688 126.788398 
L 606.330537 126.788398 
" clip-path="url(#p33bbb53686)" style="fill: none; stroke-dasharray: 0.5,0.825; stroke-dashoffset: 0; stroke: #bfbfbf; stroke-width: 0.5"/>
     </g>
     <g id="line2d_64"/>
    </g>
    <g id="ytick_20">
     <g id="line2d_65">
      <path d="M 38.974688 94.837999 
L 606.330537 94.837999 
" clip-path="url(#p33bbb53686)" style="fill: none; stroke-dasharray: 0.5,0.825; stroke-dashoffset: 0; stroke: #bfbfbf; stroke-width: 0.5"/>
     </g>
     <g id="line2d_66"/>
    </g>
    <g id="ytick_21">
     <g id="line2d_67">
      <path d="M 38.974688 78.862799 
L 606.330537 78.862799 
" clip-path="url(#p33bbb53686)" style="fill: none; stroke-dasharray: 0.5,0.825; stroke-dashoffset: 0; stroke: #bfbfbf; stroke-width: 0.5"/>
     </g>
     <g id="line2d_68"/>
    </g>
    <g id="ytick_22">
     <g id="line2d_69">
      <path d="M 38.974688 62.8876 
L 606.330537 62.8876 
" clip-path="url(#p33bbb53686)" style="fill: none; stroke-dasharray: 0.5,0.825; stroke-dashoffset: 0; stroke: #bfbfbf; stroke-width: 0.5"/>
     </g>
     <g id="line2d_70"/>
    </g>
    <g id="ytick_23">
     <g id="line2d_71">
      <path d="M 38.974688 46.9124 
L 606.330537 46.9124 
" clip-path="url(#p33bbb53686)" style="fill: none; stroke-dasharray: 0.5,0.825; stroke-dashoffset: 0; stroke: #bfbfbf; stroke-width: 0.5"/>
     </g>
     <g id="line2d_72"/>
    </g>
    <g id="text_6">
     <!-- $R_E$ -->
     <g transform="translate(7.2 202.505286) scale(0.14 -0.14)">
      <defs>
       <path id="Cmmi10-52" d="M 313 0 
Q 250 0 250 84 
Q 253 100 262 139 
Q 272 178 289 201 
Q 306 225 331 225 
Q 722 225 878 269 
Q 959 297 997 441 
L 1875 3956 
Q 1888 4019 1888 4044 
Q 1888 4113 1813 4122 
Q 1691 4147 1350 4147 
Q 1288 4147 1288 4231 
Q 1291 4247 1300 4286 
Q 1309 4325 1326 4348 
Q 1344 4372 1369 4372 
L 3309 4372 
Q 3541 4372 3791 4319 
Q 4041 4266 4250 4152 
Q 4459 4038 4593 3848 
Q 4728 3659 4728 3406 
Q 4728 3084 4515 2831 
Q 4303 2578 3978 2408 
Q 3653 2238 3347 2169 
Q 3597 2078 3756 1879 
Q 3916 1681 3916 1422 
Q 3916 1388 3914 1370 
Q 3913 1353 3909 1331 
L 3859 763 
Q 3853 638 3847 550 
Q 3841 463 3841 409 
Q 3841 234 3892 129 
Q 3944 25 4097 25 
Q 4297 25 4448 211 
Q 4600 397 4647 616 
Q 4675 672 4709 672 
L 4769 672 
Q 4831 672 4831 588 
Q 4784 403 4682 237 
Q 4581 72 4426 -34 
Q 4272 -141 4091 -141 
Q 3716 -141 3452 26 
Q 3188 194 3188 550 
Q 3188 684 3213 788 
L 3353 1356 
Q 3378 1434 3378 1538 
Q 3378 1803 3198 1954 
Q 3019 2106 2747 2106 
L 1959 2106 
L 1538 416 
Q 1522 363 1522 325 
Q 1522 259 1600 250 
Q 1722 225 2059 225 
Q 2125 225 2125 141 
Q 2103 50 2090 25 
Q 2078 0 2016 0 
L 313 0 
z
M 1997 2272 
L 2706 2272 
Q 3403 2272 3756 2625 
Q 3919 2788 4014 3039 
Q 4109 3291 4109 3541 
Q 4109 3778 3970 3912 
Q 3831 4047 3626 4097 
Q 3422 4147 3175 4147 
L 2747 4147 
Q 2572 4147 2515 4117 
Q 2459 4088 2413 3928 
L 1997 2272 
z
" transform="scale(0.015625)"/>
       <path id="Cmmi10-45" d="M 300 0 
Q 238 0 238 84 
Q 241 100 250 139 
Q 259 178 276 201 
Q 294 225 319 225 
Q 709 225 863 269 
Q 947 297 984 441 
L 1863 3956 
Q 1875 4019 1875 4044 
Q 1875 4113 1797 4122 
Q 1678 4147 1338 4147 
Q 1275 4147 1275 4231 
Q 1278 4247 1287 4286 
Q 1297 4325 1314 4348 
Q 1331 4372 1356 4372 
L 4825 4372 
Q 4891 4372 4891 4288 
L 4738 2963 
Q 4738 2947 4714 2926 
Q 4691 2906 4672 2906 
L 4616 2906 
Q 4550 2906 4550 2988 
Q 4588 3300 4588 3450 
Q 4588 3706 4500 3848 
Q 4413 3991 4267 4053 
Q 4122 4116 3945 4131 
Q 3769 4147 3481 4147 
L 2753 4147 
Q 2578 4147 2522 4117 
Q 2466 4088 2419 3928 
L 2034 2381 
L 2534 2381 
Q 2859 2381 3025 2426 
Q 3191 2472 3287 2615 
Q 3384 2759 3463 3072 
Q 3469 3094 3486 3111 
Q 3503 3128 3525 3128 
L 3584 3128 
Q 3647 3128 3647 3047 
L 3250 1466 
Q 3238 1409 3188 1409 
L 3128 1409 
Q 3066 1409 3066 1491 
Q 3128 1747 3128 1869 
Q 3128 2056 2959 2106 
Q 2791 2156 2509 2156 
L 1978 2156 
L 1544 416 
Q 1516 338 1516 275 
Q 1516 225 1734 225 
L 2509 225 
Q 2972 225 3259 297 
Q 3547 369 3736 526 
Q 3925 684 4062 928 
Q 4200 1172 4397 1638 
Q 4409 1678 4453 1678 
L 4513 1678 
Q 4538 1678 4556 1656 
Q 4575 1634 4575 1606 
Q 4575 1594 4569 1581 
L 3909 38 
Q 3897 0 3859 0 
L 300 0 
z
" transform="scale(0.015625)"/>
      </defs>
      <use xlink:href="#Cmmi10-52" transform="translate(0 0.6875)"/>
      <use xlink:href="#Cmmi10-45" transform="translate(75.878906 -16.31875) scale(0.7)"/>
     </g>
    </g>
   </g>
   <g id="line2d_73">
    <path d="M 64.76359 351.291436 
L 75.363654 354.633466 
L 85.63112 357.639441 
L 95.580441 360.322291 
L 105.211615 362.69057 
L 114.524646 364.75318 
L 123.519524 366.51939 
L 132.210727 368.001149 
L 140.598247 369.207393 
L 148.696548 370.148954 
L 156.505628 370.834407 
L 164.025476 371.27277 
L 171.270561 371.473745 
L 178.240885 371.44604 
L 184.936457 371.198912 
L 191.386171 370.739678 
L 197.575583 370.0776 
L 203.519164 369.21996 
L 209.23136 368.17252 
L 214.712191 366.942903 
L 220.001186 365.528921 
L 225.044604 363.953084 
L 229.876169 362.212276 
L 234.516837 360.305183 
L 238.966557 358.23709 
L 243.225405 356.013853 
L 247.307996 353.63311 
L 251.228983 351.08943 
L 254.973833 348.395851 
L 258.557151 345.546016 
L 261.99357 342.529592 
L 265.283148 339.346243 
L 268.42592 335.995796 
L 271.436471 332.460459 
L 274.302205 328.752585 
L 277.047204 324.836344 
L 279.66009 320.720736 
L 282.155541 316.37437 
L 284.533563 311.785461 
L 286.808823 306.910129 
L 288.996017 301.693134 
L 291.108939 296.071369 
L 293.191897 289.883841 
L 295.3196 282.844211 
L 297.800207 273.812209 
L 301.984664 258.464818 
L 303.629375 253.3756 
L 305.083264 249.572421 
L 306.47848 246.526184 
L 307.859028 244.033166 
L 309.254281 241.965042 
L 310.678932 240.245985 
L 312.14762 238.81828 
L 313.678208 237.6376 
L 315.294061 236.671411 
L 317.012731 235.903577 
L 318.863614 235.322608 
L 320.871225 234.928656 
L 323.074096 234.727263 
L 325.49725 234.732507 
L 328.200584 234.964899 
L 331.224678 235.452022 
L 334.648138 236.233599 
L 338.538108 237.354869 
L 343.002521 238.878744 
L 348.171835 240.884312 
L 354.236964 243.482868 
L 361.491604 246.841504 
L 370.405712 251.223608 
L 382.007268 257.188816 
L 399.718013 266.573713 
L 438.091343 286.94667 
L 455.934299 296.133277 
L 471.838773 304.074946 
L 486.641842 311.220753 
L 500.681274 317.753195 
L 514.118605 323.762065 
L 527.04194 329.299214 
L 539.510021 334.401004 
L 551.552222 339.089999 
L 563.197921 343.387783 
L 574.461789 347.30956 
L 580.541635 349.325359 
L 580.541635 349.325359 
" clip-path="url(#p33bbb53686)" style="fill: none; stroke: #ff0000; stroke-width: 2; stroke-linecap: square"/>
   </g>
   <g id="line2d_74">
    <path d="M 64.76359 351.315115 
L 75.696259 354.761029 
L 86.093883 357.798516 
L 96.158882 360.502489 
L 105.862367 362.875588 
L 115.218785 364.932712 
L 124.213669 366.682568 
L 132.861483 368.140395 
L 141.162236 369.318651 
L 149.115922 370.230398 
L 157.055147 370.913172 
L 164.64731 371.337916 
L 171.892398 371.519218 
L 178.79041 371.472584 
L 185.326904 371.21524 
L 191.877852 370.732083 
L 198.067268 370.050927 
L 203.924076 369.187765 
L 209.766436 368.095604 
L 215.261711 366.83828 
L 220.419689 365.435804 
L 225.573393 363.79807 
L 230.390242 362.032462 
L 234.854626 360.171885 
L 239.319024 358.073201 
L 243.430961 355.906267 
L 247.557601 353.480715 
L 251.33183 351.016187 
L 255.106067 348.288333 
L 258.527796 345.558496 
L 261.964192 342.540095 
L 265.385973 339.219632 
L 268.469967 335.919504 
L 271.553915 332.283031 
L 274.287526 328.734275 
L 278.29493 323.098421 
L 280.790381 318.995885 
L 283.183076 314.653822 
L 285.590461 309.808337 
L 287.983155 304.423675 
L 289.993606 299.381292 
L 292.135653 293.39822 
L 294.277679 286.703167 
L 296.567179 278.739598 
L 300.105183 265.463219 
L 302.278341 257.798648 
L 303.849654 253.007922 
L 305.45042 248.925583 
L 306.830961 246.017492 
L 308.25558 243.545633 
L 309.709579 241.493222 
L 311.17828 239.820485 
L 312.661653 238.467745 
L 314.162966 237.382768 
L 315.675987 236.52937 
L 317.585623 235.737235 
L 319.520127 235.197037 
L 321.473332 234.871129 
L 323.823071 234.716984 
L 326.202167 234.776669 
L 329.007138 235.071476 
L 332.223296 235.649229 
L 335.880014 236.551401 
L 339.962609 237.798656 
L 344.485762 239.408933 
L 349.904732 241.577663 
L 356.23419 244.355612 
L 363.988143 248.014113 
L 373.342811 252.67892 
L 386.251385 259.3841 
L 408.95522 271.481277 
L 436.784333 286.23862 
L 454.965051 295.621201 
L 470.825472 303.561976 
L 485.807451 310.815424 
L 500.049793 317.460899 
L 513.413692 323.454518 
L 526.49857 329.078229 
L 538.937287 334.184112 
L 551.052914 338.917689 
L 562.830778 343.278349 
L 574.270873 347.272427 
L 580.541635 349.355527 
L 580.541635 349.355527 
" clip-path="url(#p33bbb53686)" style="fill: none; stroke-dasharray: 11.1,4.8; stroke-dashoffset: 0; stroke: #ff0000; stroke-width: 3"/>
   </g>
   <g id="line2d_75">
    <path d="M 64.76359 98.174655 
L 71.994193 100.030199 
L 79.253723 102.123057 
L 86.527716 104.451639 
L 93.816168 107.018294 
L 101.119085 109.825855 
L 108.436465 112.877653 
L 115.75385 116.170812 
L 123.07123 119.708314 
L 130.374154 123.486002 
L 137.662618 127.506547 
L 144.936627 131.773254 
L 152.181709 136.280812 
L 159.397875 141.032323 
L 166.58512 146.031589 
L 173.728976 151.272305 
L 180.814991 156.746761 
L 187.843161 162.457778 
L 194.813484 168.40901 
L 201.711506 174.591745 
L 208.522765 180.995665 
L 215.24725 187.623299 
L 221.888152 194.481388 
L 228.422337 201.549023 
L 234.854626 208.833654 
L 241.198761 216.354982 
L 247.440151 224.099837 
L 253.608124 232.109221 
L 259.717296 240.407976 
L 265.855933 249.124428 
L 272.229479 258.566659 
L 280.012384 270.524996 
L 287.35195 281.711838 
L 290.243766 285.719935 
L 292.252978 288.146702 
L 293.77876 289.661759 
L 294.99674 290.57752 
L 296.009404 291.077175 
L 296.875428 291.272161 
L 297.6681 291.230633 
L 298.43148 290.966833 
L 299.209572 290.452252 
L 300.03176 289.625981 
L 300.927438 288.395047 
L 301.955292 286.583368 
L 303.188817 283.92931 
L 304.804215 279.87972 
L 307.389045 272.711594 
L 313.428488 255.877154 
L 316.909907 246.912442 
L 320.342527 238.681696 
L 323.852445 230.840262 
L 327.465133 223.309883 
L 331.209986 216.015143 
L 335.101686 208.920807 
L 339.125536 202.046968 
L 343.281547 195.385258 
L 347.584422 188.907275 
L 352.019452 182.631505 
L 356.586638 176.553432 
L 361.271328 170.687535 
L 366.088176 165.011643 
L 371.022503 159.540361 
L 376.074325 154.270451 
L 381.228937 149.213645 
L 386.501035 144.352845 
L 391.875935 139.699785 
L 397.338946 135.263739 
L 402.904775 131.03014 
L 408.558712 127.008318 
L 414.300765 123.195999 
L 420.130927 119.591586 
L 426.0492 116.19406 
L 432.040906 113.010432 
L 438.106028 110.038913 
L 444.25655 107.273095 
L 450.456583 104.727657 
L 456.742004 102.386876 
L 463.100856 100.256027 
L 469.518453 98.33976 
L 476.00948 96.633831 
L 482.55925 95.142629 
L 489.167764 93.8663 
L 495.836979 92.805091 
L 502.546349 91.962332 
L 509.316408 91.335876 
L 516.14522 90.927623 
L 523.018083 90.739708 
L 529.935001 90.773033 
L 536.895981 91.028872 
L 543.901018 91.508865 
L 550.950116 92.215012 
L 558.028583 93.147539 
L 565.151106 94.310444 
L 572.303001 95.703795 
L 579.484267 97.329771 
L 580.541635 97.588365 
L 580.541635 97.588365 
" clip-path="url(#p33bbb53686)" style="fill: none; stroke: #008000; stroke-width: 2; stroke-linecap: square"/>
   </g>
   <g id="line2d_76">
    <path d="M 64.76359 98.180104 
L 72.326802 100.12793 
L 79.514022 102.210431 
L 86.701249 104.519279 
L 93.888475 107.055415 
L 101.061241 109.814432 
L 108.234008 112.803018 
L 115.392314 116.016741 
L 122.565086 119.471354 
L 129.723397 123.156245 
L 136.867248 127.073827 
L 144.011105 131.235745 
L 151.154955 135.647093 
L 158.298818 140.313723 
L 165.413759 145.22179 
L 172.543155 150.407906 
L 179.658091 155.859503 
L 186.758564 161.584445 
L 193.85905 167.604384 
L 200.597989 173.601833 
L 207.322474 179.874071 
L 214.046968 186.446974 
L 220.766717 193.330611 
L 227.467807 200.526139 
L 233.811914 207.659978 
L 240.170745 215.14249 
L 246.514952 222.958708 
L 252.521404 230.700528 
L 258.557151 238.831725 
L 264.651692 247.412191 
L 270.907768 256.604289 
L 281.671129 272.952959 
L 287.630855 281.974733 
L 290.390372 285.779403 
L 292.399691 288.194616 
L 294.028215 289.780806 
L 295.187505 290.621409 
L 296.082808 291.051106 
L 297.022184 291.258846 
L 297.653424 291.226791 
L 298.328724 291.03052 
L 299.048089 290.620055 
L 299.796859 289.959733 
L 300.589724 288.998557 
L 301.382627 287.767599 
L 302.630768 285.344333 
L 303.967141 282.226298 
L 305.979119 276.885683 
L 310.546758 263.953569 
L 314.324551 253.684167 
L 317.850038 244.756154 
L 321.443958 236.301789 
L 325.100733 228.306229 
L 328.816222 220.735628 
L 332.517011 213.68355 
L 336.599608 206.403691 
L 340.682202 199.586925 
L 344.764793 193.183258 
L 349.199824 186.64585 
L 353.634855 180.501444 
L 358.422333 174.268418 
L 363.195127 168.429354 
L 367.982605 162.916217 
L 373.107849 157.365315 
L 378.247779 152.134737 
L 383.373023 147.230008 
L 388.85072 142.307876 
L 394.328417 137.694209 
L 399.79144 133.381047 
L 405.254467 129.339124 
L 411.084623 125.30829 
L 416.900103 121.563015 
L 422.715579 118.079097 
L 428.53106 114.844469 
L 434.698985 111.67417 
L 440.852228 108.767143 
L 447.02016 106.099273 
L 453.1881 103.668615 
L 459.341353 101.472015 
L 465.861746 99.384941 
L 472.367457 97.541574 
L 478.873168 95.929974 
L 485.378885 94.543867 
L 491.899287 93.375256 
L 498.757458 92.379009 
L 505.615637 91.616266 
L 512.473817 91.082377 
L 519.331995 90.773231 
L 526.190172 90.685224 
L 533.033664 90.814713 
L 539.895262 91.159759 
L 547.102484 91.751847 
L 554.298431 92.575523 
L 561.494387 93.629827 
L 568.690339 94.913484 
L 575.886291 96.425649 
L 580.541635 97.525183 
L 580.541635 97.525183 
" clip-path="url(#p33bbb53686)" style="fill: none; stroke-dasharray: 11.1,4.8; stroke-dashoffset: 0; stroke: #008000; stroke-width: 3"/>
   </g>
   <g id="line2d_77">
    <path d="M 64.76359 274.06081 
L 176.447691 262.916366 
L 199.10848 260.967436 
L 216.809075 259.660425 
L 231.741252 258.778088 
L 243.357579 258.311382 
L 252.991306 258.140014 
L 261.024359 258.212963 
L 267.750365 258.490242 
L 273.396378 258.939602 
L 278.148138 259.534833 
L 282.17022 260.257081 
L 285.590461 261.091612 
L 288.526283 262.031451 
L 291.079613 263.077196 
L 293.353259 264.245011 
L 295.451694 265.572531 
L 297.506615 267.140547 
L 299.811543 269.194304 
L 305.832266 274.714101 
L 308.167445 276.446509 
L 310.590814 277.964922 
L 313.222835 279.347916 
L 316.146051 280.629038 
L 319.446702 281.828148 
L 323.191589 282.947091 
L 327.450442 283.983108 
L 332.311415 284.932345 
L 337.862577 285.78511 
L 344.192057 286.527799 
L 351.402652 287.145294 
L 359.597173 287.619345 
L 368.893103 287.930029 
L 379.422816 288.055102 
L 391.332573 287.969629 
L 404.769839 287.646339 
L 419.925326 287.054713 
L 437.004616 286.160924 
L 456.286753 284.924546 
L 478.138891 283.295694 
L 503.133769 281.204202 
L 532.314069 278.532686 
L 568.264454 275.007769 
L 580.541635 273.764928 
L 580.541635 273.764928 
" clip-path="url(#p33bbb53686)" style="fill: none; stroke: #0000ff; stroke-width: 2; stroke-linecap: square"/>
   </g>
   <g id="line2d_78">
    <path d="M 64.76359 274.05079 
L 176.100622 262.918465 
L 198.804793 260.960332 
L 216.442987 259.653056 
L 230.904141 258.799637 
L 242.682003 258.322228 
L 252.492015 258.143239 
L 260.554386 258.210877 
L 267.441946 258.488799 
L 273.157233 258.938829 
L 277.193991 259.459665 
L 281.348189 260.145827 
L 285.003291 260.976941 
L 288.071227 261.902735 
L 290.566365 262.866104 
L 292.766435 263.922148 
L 295.055446 265.283782 
L 297.110268 266.775795 
L 299.444494 268.781664 
L 306.742829 275.305175 
L 309.239595 277.025158 
L 311.897939 278.549655 
L 314.662407 279.869043 
L 317.879416 281.141301 
L 321.532079 282.326005 
L 325.614731 283.404384 
L 330.108568 284.364398 
L 335.424766 285.267273 
L 341.563342 286.070958 
L 348.509601 286.745393 
L 356.248875 287.271462 
L 365.207039 287.651554 
L 375.354734 287.852048 
L 386.706635 287.850706 
L 399.659265 287.621421 
L 414.197963 287.136923 
L 430.763257 286.354676 
L 449.340479 285.248188 
L 470.414275 283.763433 
L 494.49864 281.835296 
L 522.269117 279.380901 
L 555.399861 276.222076 
L 580.541635 273.714206 
L 580.541635 273.714206 
" clip-path="url(#p33bbb53686)" style="fill: none; stroke-dasharray: 11.1,4.8; stroke-dashoffset: 0; stroke: #0000ff; stroke-width: 3"/>
   </g>
   <g id="line2d_79">
    <path d="M 64.76359 80.177581 
L 72.283419 80.902538 
L 79.774326 81.847741 
L 87.250775 83.015048 
L 94.698306 84.402705 
L 102.116905 86.011034 
L 109.506599 87.840856 
L 116.852901 89.88923 
L 124.155826 92.156642 
L 131.400901 94.638899 
L 138.588134 97.336127 
L 145.71753 100.248995 
L 152.789077 103.378725 
L 159.788327 106.720014 
L 166.700805 110.26612 
L 173.540981 114.025244 
L 180.294386 117.990868 
L 186.946566 122.154966 
L 193.497509 126.517821 
L 199.947232 131.080431 
L 206.281266 135.833377 
L 212.502816 140.779943 
L 218.600285 145.911776 
L 224.589409 151.2419 
L 230.419609 156.728434 
L 236.117531 162.396103 
L 241.668691 168.231849 
L 247.058335 174.219805 
L 252.301057 180.376504 
L 257.382323 186.685731 
L 262.316651 193.166718 
L 267.104164 199.82219 
L 271.759563 206.675556 
L 276.313245 213.776005 
L 280.849096 221.262351 
L 285.70789 229.723367 
L 294.43907 245.050721 
L 296.200227 247.607796 
L 297.521297 249.16008 
L 298.592952 250.09591 
L 299.503229 250.611739 
L 300.325419 250.830556 
L 301.103618 250.810772 
L 301.89655 250.564522 
L 302.748265 250.059202 
L 303.717469 249.212587 
L 304.862959 247.901544 
L 306.302222 245.894961 
L 308.25558 242.758476 
L 311.457329 237.136268 
L 320.063497 221.906527 
L 324.733588 214.169339 
L 329.330219 206.981847 
L 334.000255 200.090489 
L 338.80245 193.400357 
L 343.7368 186.906617 
L 348.832685 180.567812 
L 354.075419 174.400888 
L 359.479696 168.387513 
L 365.030819 162.543615 
L 370.728795 156.868163 
L 376.558944 151.374383 
L 382.521259 146.060615 
L 388.615752 140.926065 
L 394.842412 135.970759 
L 401.186563 131.206125 
L 407.633523 126.641767 
L 414.197963 122.266633 
L 420.850515 118.099479 
L 427.605871 114.130095 
L 434.449329 110.366809 
L 441.366221 106.816376 
L 448.371239 103.470586 
L 455.434988 100.342655 
L 462.57218 97.425073 
L 469.768109 94.723439 
L 477.022784 92.237157 
L 484.32152 89.970493 
L 491.664319 87.922514 
L 499.051171 86.092807 
L 506.467401 84.48441 
L 513.913005 83.096549 
L 521.387979 81.928934 
L 528.892327 80.981749 
L 536.411356 80.25684 
L 543.945074 79.754007 
L 551.478795 79.473834 
L 559.012516 79.415751 
L 566.546242 79.579631 
L 574.079964 79.96581 
L 580.541635 80.474728 
L 580.541635 80.474728 
" clip-path="url(#p33bbb53686)" style="fill: none; stroke: #000000; stroke-width: 2; stroke-linecap: square"/>
   </g>
   <g id="patch_3">
    <path d="M 38.974687 386.134447 
L 606.330537 386.134447 
" style="fill: none; stroke: #000000; stroke-width: 0.8; stroke-linejoin: miter; stroke-linecap: square"/>
   </g>
   <g id="text_7">
    <!-- MMS-2 GSE -->
    <g transform="translate(278.077487 18.8655) scale(0.168 -0.168)">
     <defs>
      <path id="TimesNewRomanPSMT-4d" d="M 2619 0 
L 981 3566 
L 981 734 
Q 981 344 1066 247 
Q 1181 116 1431 116 
L 1581 116 
L 1581 0 
L 106 0 
L 106 116 
L 256 116 
Q 525 116 638 278 
Q 706 378 706 734 
L 706 3503 
Q 706 3784 644 3909 
Q 600 4000 483 4061 
Q 366 4122 106 4122 
L 106 4238 
L 1306 4238 
L 2844 922 
L 4356 4238 
L 5556 4238 
L 5556 4122 
L 5409 4122 
Q 5138 4122 5025 3959 
Q 4956 3859 4956 3503 
L 4956 734 
Q 4956 344 5044 247 
Q 5159 116 5409 116 
L 5556 116 
L 5556 0 
L 3756 0 
L 3756 116 
L 3906 116 
Q 4178 116 4288 278 
Q 4356 378 4356 734 
L 4356 3566 
L 2722 0 
L 2619 0 
z
" transform="scale(0.015625)"/>
      <path id="TimesNewRomanPSMT-53" d="M 2934 4334 
L 2934 2869 
L 2819 2869 
Q 2763 3291 2617 3541 
Q 2472 3791 2203 3937 
Q 1934 4084 1647 4084 
Q 1322 4084 1109 3886 
Q 897 3688 897 3434 
Q 897 3241 1031 3081 
Q 1225 2847 1953 2456 
Q 2547 2138 2764 1967 
Q 2981 1797 3098 1565 
Q 3216 1334 3216 1081 
Q 3216 600 2842 251 
Q 2469 -97 1881 -97 
Q 1697 -97 1534 -69 
Q 1438 -53 1133 45 
Q 828 144 747 144 
Q 669 144 623 97 
Q 578 50 556 -97 
L 441 -97 
L 441 1356 
L 556 1356 
Q 638 900 775 673 
Q 913 447 1195 297 
Q 1478 147 1816 147 
Q 2206 147 2432 353 
Q 2659 559 2659 841 
Q 2659 997 2573 1156 
Q 2488 1316 2306 1453 
Q 2184 1547 1640 1851 
Q 1097 2156 867 2337 
Q 638 2519 519 2737 
Q 400 2956 400 3219 
Q 400 3675 750 4004 
Q 1100 4334 1641 4334 
Q 1978 4334 2356 4169 
Q 2531 4091 2603 4091 
Q 2684 4091 2736 4139 
Q 2788 4188 2819 4334 
L 2934 4334 
z
" transform="scale(0.015625)"/>
      <path id="TimesNewRomanPSMT-2d" d="M 259 1672 
L 1875 1672 
L 1875 1200 
L 259 1200 
L 259 1672 
z
" transform="scale(0.015625)"/>
      <path id="TimesNewRomanPSMT-32" d="M 2934 816 
L 2638 0 
L 138 0 
L 138 116 
Q 1241 1122 1691 1759 
Q 2141 2397 2141 2925 
Q 2141 3328 1894 3587 
Q 1647 3847 1303 3847 
Q 991 3847 742 3664 
Q 494 3481 375 3128 
L 259 3128 
Q 338 3706 661 4015 
Q 984 4325 1469 4325 
Q 1984 4325 2329 3994 
Q 2675 3663 2675 3213 
Q 2675 2891 2525 2569 
Q 2294 2063 1775 1497 
Q 997 647 803 472 
L 1909 472 
Q 2247 472 2383 497 
Q 2519 522 2628 598 
Q 2738 675 2819 816 
L 2934 816 
z
" transform="scale(0.015625)"/>
      <path id="TimesNewRomanPSMT-20" transform="scale(0.015625)"/>
      <path id="TimesNewRomanPSMT-47" d="M 3928 4334 
L 4038 2997 
L 3928 2997 
Q 3763 3497 3500 3750 
Q 3122 4116 2528 4116 
Q 1719 4116 1297 3475 
Q 944 2934 944 2188 
Q 944 1581 1178 1081 
Q 1413 581 1792 348 
Q 2172 116 2572 116 
Q 2806 116 3025 175 
Q 3244 234 3447 350 
L 3447 1575 
Q 3447 1894 3398 1992 
Q 3350 2091 3248 2142 
Q 3147 2194 2891 2194 
L 2891 2313 
L 4531 2313 
L 4531 2194 
L 4453 2194 
Q 4209 2194 4119 2031 
Q 4056 1916 4056 1575 
L 4056 278 
Q 3697 84 3347 -6 
Q 2997 -97 2569 -97 
Q 1341 -97 703 691 
Q 225 1281 225 2053 
Q 225 2613 494 3125 
Q 813 3734 1369 4063 
Q 1834 4334 2469 4334 
Q 2700 4334 2889 4296 
Q 3078 4259 3425 4131 
Q 3600 4066 3659 4066 
Q 3719 4066 3761 4120 
Q 3803 4175 3813 4334 
L 3928 4334 
z
" transform="scale(0.015625)"/>
      <path id="TimesNewRomanPSMT-45" d="M 1338 4006 
L 1338 2331 
L 2269 2331 
Q 2631 2331 2753 2441 
Q 2916 2584 2934 2947 
L 3050 2947 
L 3050 1472 
L 2934 1472 
Q 2891 1781 2847 1869 
Q 2791 1978 2662 2040 
Q 2534 2103 2269 2103 
L 1338 2103 
L 1338 706 
Q 1338 425 1363 364 
Q 1388 303 1450 267 
Q 1513 231 1688 231 
L 2406 231 
Q 2766 231 2928 281 
Q 3091 331 3241 478 
Q 3434 672 3638 1063 
L 3763 1063 
L 3397 0 
L 131 0 
L 131 116 
L 281 116 
Q 431 116 566 188 
Q 666 238 702 338 
Q 738 438 738 747 
L 738 3500 
Q 738 3903 656 3997 
Q 544 4122 281 4122 
L 131 4122 
L 131 4238 
L 3397 4238 
L 3444 3309 
L 3322 3309 
Q 3256 3644 3176 3769 
Q 3097 3894 2941 3959 
Q 2816 4006 2500 4006 
L 1338 4006 
z
" transform="scale(0.015625)"/>
     </defs>
     <use xlink:href="#TimesNewRomanPSMT-4d"/>
     <use xlink:href="#TimesNewRomanPSMT-4d" x="88.916016"/>
     <use xlink:href="#TimesNewRomanPSMT-53" x="177.832031"/>
     <use xlink:href="#TimesNewRomanPSMT-2d" x="233.447266"/>
     <use xlink:href="#TimesNewRomanPSMT-32" x="266.748047"/>
     <use xlink:href="#TimesNewRomanPSMT-20" x="316.748047"/>
     <use xlink:href="#TimesNewRomanPSMT-47" x="341.748047"/>
     <use xlink:href="#TimesNewRomanPSMT-53" x="413.964844"/>
     <use xlink:href="#TimesNewRomanPSMT-45" x="469.580078"/>
    </g>
   </g>
   <g id="legend_1">
    <g id="patch_4">
     <path d="M 95.388862 68.654875 
L 549.916362 68.654875 
Q 552.716362 68.654875 552.716362 65.854875 
L 552.716362 27.6655 
Q 552.716362 24.8655 549.916362 24.8655 
L 95.388862 24.8655 
Q 92.588862 24.8655 92.588862 27.6655 
L 92.588862 65.854875 
Q 92.588862 68.654875 95.388862 68.654875 
z
" style="fill: #ffffff; stroke: #cccccc; stroke-linejoin: miter"/>
    </g>
    <g id="line2d_80">
     <path d="M 98.188862 35.3655 
L 112.188862 35.3655 
L 126.188862 35.3655 
" style="fill: none; stroke: #ff0000; stroke-width: 2; stroke-linecap: square"/>
    </g>
    <g id="text_8">
     <!-- CDAWeb/X -->
     <g transform="translate(137.388862 40.2655) scale(0.14 -0.14)">
      <defs>
       <path id="TimesNewRomanPSMT-43" d="M 3853 4334 
L 3950 2894 
L 3853 2894 
Q 3659 3541 3300 3825 
Q 2941 4109 2438 4109 
Q 2016 4109 1675 3895 
Q 1334 3681 1139 3212 
Q 944 2744 944 2047 
Q 944 1472 1128 1050 
Q 1313 628 1683 403 
Q 2053 178 2528 178 
Q 2941 178 3256 354 
Q 3572 531 3950 1056 
L 4047 994 
Q 3728 428 3303 165 
Q 2878 -97 2294 -97 
Q 1241 -97 663 684 
Q 231 1266 231 2053 
Q 231 2688 515 3219 
Q 800 3750 1298 4042 
Q 1797 4334 2388 4334 
Q 2847 4334 3294 4109 
Q 3425 4041 3481 4041 
Q 3566 4041 3628 4100 
Q 3709 4184 3744 4334 
L 3853 4334 
z
" transform="scale(0.015625)"/>
       <path id="TimesNewRomanPSMT-44" d="M 109 0 
L 109 116 
L 269 116 
Q 538 116 650 288 
Q 719 391 719 750 
L 719 3488 
Q 719 3884 631 3984 
Q 509 4122 269 4122 
L 109 4122 
L 109 4238 
L 1834 4238 
Q 2784 4238 3279 4022 
Q 3775 3806 4076 3303 
Q 4378 2800 4378 2141 
Q 4378 1256 3841 663 
Q 3238 0 2003 0 
L 109 0 
z
M 1319 306 
Q 1716 219 1984 219 
Q 2709 219 3187 728 
Q 3666 1238 3666 2109 
Q 3666 2988 3187 3494 
Q 2709 4000 1959 4000 
Q 1678 4000 1319 3909 
L 1319 306 
z
" transform="scale(0.015625)"/>
       <path id="TimesNewRomanPSMT-41" d="M 2928 1419 
L 1288 1419 
L 1000 750 
Q 894 503 894 381 
Q 894 284 986 211 
Q 1078 138 1384 116 
L 1384 0 
L 50 0 
L 50 116 
Q 316 163 394 238 
Q 553 388 747 847 
L 2238 4334 
L 2347 4334 
L 3822 809 
Q 4000 384 4145 257 
Q 4291 131 4550 116 
L 4550 0 
L 2878 0 
L 2878 116 
Q 3131 128 3220 200 
Q 3309 272 3309 375 
Q 3309 513 3184 809 
L 2928 1419 
z
M 2841 1650 
L 2122 3363 
L 1384 1650 
L 2841 1650 
z
" transform="scale(0.015625)"/>
       <path id="TimesNewRomanPSMT-57" d="M 5991 4238 
L 5991 4122 
Q 5825 4122 5722 4062 
Q 5619 4003 5525 3841 
Q 5463 3731 5328 3319 
L 4147 -97 
L 4022 -97 
L 3056 2613 
L 2097 -97 
L 1984 -97 
L 725 3422 
Q 584 3816 547 3888 
Q 484 4006 376 4064 
Q 269 4122 84 4122 
L 84 4238 
L 1653 4238 
L 1653 4122 
L 1578 4122 
Q 1413 4122 1325 4047 
Q 1238 3972 1238 3866 
Q 1238 3756 1375 3363 
L 2209 984 
L 2913 3006 
L 2788 3363 
L 2688 3647 
Q 2622 3803 2541 3922 
Q 2500 3981 2441 4022 
Q 2363 4078 2284 4103 
Q 2225 4122 2097 4122 
L 2097 4238 
L 3747 4238 
L 3747 4122 
L 3634 4122 
Q 3459 4122 3378 4047 
Q 3297 3972 3297 3844 
Q 3297 3684 3438 3288 
L 4250 984 
L 5056 3319 
Q 5194 3706 5194 3856 
Q 5194 3928 5148 3990 
Q 5103 4053 5034 4078 
Q 4916 4122 4725 4122 
L 4725 4238 
L 5991 4238 
z
" transform="scale(0.015625)"/>
       <path id="TimesNewRomanPSMT-65" d="M 681 1784 
Q 678 1147 991 784 
Q 1303 422 1725 422 
Q 2006 422 2214 576 
Q 2422 731 2563 1106 
L 2659 1044 
Q 2594 616 2278 264 
Q 1963 -88 1488 -88 
Q 972 -88 605 314 
Q 238 716 238 1394 
Q 238 2128 614 2539 
Q 991 2950 1559 2950 
Q 2041 2950 2350 2633 
Q 2659 2316 2659 1784 
L 681 1784 
z
M 681 1966 
L 2006 1966 
Q 1991 2241 1941 2353 
Q 1863 2528 1708 2628 
Q 1553 2728 1384 2728 
Q 1125 2728 920 2526 
Q 716 2325 681 1966 
z
" transform="scale(0.015625)"/>
       <path id="TimesNewRomanPSMT-62" d="M 984 2369 
Q 1400 2947 1881 2947 
Q 2322 2947 2650 2570 
Q 2978 2194 2978 1541 
Q 2978 778 2472 313 
Q 2038 -88 1503 -88 
Q 1253 -88 995 3 
Q 738 94 469 275 
L 469 3241 
Q 469 3728 445 3840 
Q 422 3953 372 3993 
Q 322 4034 247 4034 
Q 159 4034 28 3984 
L -16 4094 
L 844 4444 
L 984 4444 
L 984 2369 
z
M 984 2169 
L 984 456 
Q 1144 300 1314 220 
Q 1484 141 1663 141 
Q 1947 141 2192 453 
Q 2438 766 2438 1363 
Q 2438 1913 2192 2208 
Q 1947 2503 1634 2503 
Q 1469 2503 1303 2419 
Q 1178 2356 984 2169 
z
" transform="scale(0.015625)"/>
       <path id="TimesNewRomanPSMT-2f" d="M 1794 4444 
L 259 -88 
L 9 -88 
L 1544 4444 
L 1794 4444 
z
" transform="scale(0.015625)"/>
       <path id="TimesNewRomanPSMT-58" d="M 2613 2347 
L 3522 991 
Q 3900 428 4083 279 
Q 4266 131 4547 116 
L 4547 0 
L 2728 0 
L 2728 116 
Q 2909 119 2997 153 
Q 3063 181 3105 239 
Q 3147 297 3147 356 
Q 3147 428 3119 500 
Q 3097 553 2947 775 
L 2228 1863 
L 1341 725 
Q 1200 544 1172 483 
Q 1144 422 1144 356 
Q 1144 256 1228 190 
Q 1313 125 1550 116 
L 1550 0 
L 47 0 
L 47 116 
Q 206 131 322 181 
Q 516 263 691 400 
Q 866 538 1091 822 
L 2091 2084 
L 1256 3306 
Q 916 3803 678 3958 
Q 441 4113 131 4122 
L 131 4238 
L 2091 4238 
L 2091 4122 
Q 1841 4113 1748 4041 
Q 1656 3969 1656 3881 
Q 1656 3766 1806 3544 
L 2456 2572 
L 3209 3525 
Q 3341 3694 3370 3756 
Q 3400 3819 3400 3884 
Q 3400 3950 3363 4000 
Q 3316 4066 3244 4092 
Q 3172 4119 2947 4122 
L 2947 4238 
L 4450 4238 
L 4450 4122 
Q 4272 4113 4159 4066 
Q 3991 3994 3850 3872 
Q 3709 3750 3453 3422 
L 2613 2347 
z
" transform="scale(0.015625)"/>
      </defs>
      <use xlink:href="#TimesNewRomanPSMT-43"/>
      <use xlink:href="#TimesNewRomanPSMT-44" x="66.699219"/>
      <use xlink:href="#TimesNewRomanPSMT-41" x="138.916016"/>
      <use xlink:href="#TimesNewRomanPSMT-57" x="203.132812"/>
      <use xlink:href="#TimesNewRomanPSMT-65" x="289.517578"/>
      <use xlink:href="#TimesNewRomanPSMT-62" x="333.902344"/>
      <use xlink:href="#TimesNewRomanPSMT-2f" x="383.902344"/>
      <use xlink:href="#TimesNewRomanPSMT-58" x="411.685547"/>
     </g>
    </g>
    <g id="line2d_81">
     <path d="M 98.188862 55.160187 
L 112.188862 55.160187 
L 126.188862 55.160187 
" style="fill: none; stroke-dasharray: 11.1,4.8; stroke-dashoffset: 0; stroke: #ff0000; stroke-width: 3"/>
    </g>
    <g id="text_9">
     <!-- JPL/X -->
     <g transform="translate(137.388862 60.060187) scale(0.14 -0.14)">
      <defs>
       <path id="TimesNewRomanPSMT-4a" d="M 638 4122 
L 638 4238 
L 2453 4238 
L 2453 4122 
L 2300 4122 
Q 2041 4122 1922 3969 
Q 1847 3869 1847 3488 
L 1847 1416 
Q 1847 938 1742 641 
Q 1638 344 1381 123 
Q 1125 -97 763 -97 
Q 469 -97 300 48 
Q 131 194 131 381 
Q 131 534 209 613 
Q 313 709 450 709 
Q 550 709 629 643 
Q 709 578 831 294 
Q 903 125 1016 125 
Q 1100 125 1173 228 
Q 1247 331 1247 594 
L 1247 3488 
Q 1247 3809 1206 3913 
Q 1175 3991 1075 4047 
Q 941 4122 791 4122 
L 638 4122 
z
" transform="scale(0.015625)"/>
       <path id="TimesNewRomanPSMT-50" d="M 1313 1984 
L 1313 750 
Q 1313 350 1400 253 
Q 1519 116 1759 116 
L 1922 116 
L 1922 0 
L 106 0 
L 106 116 
L 266 116 
Q 534 116 650 291 
Q 713 388 713 750 
L 713 3488 
Q 713 3888 628 3984 
Q 506 4122 266 4122 
L 106 4122 
L 106 4238 
L 1659 4238 
Q 2228 4238 2556 4120 
Q 2884 4003 3109 3725 
Q 3334 3447 3334 3066 
Q 3334 2547 2992 2222 
Q 2650 1897 2025 1897 
Q 1872 1897 1694 1919 
Q 1516 1941 1313 1984 
z
M 1313 2163 
Q 1478 2131 1606 2115 
Q 1734 2100 1825 2100 
Q 2150 2100 2386 2351 
Q 2622 2603 2622 3003 
Q 2622 3278 2509 3514 
Q 2397 3750 2190 3867 
Q 1984 3984 1722 3984 
Q 1563 3984 1313 3925 
L 1313 2163 
z
" transform="scale(0.015625)"/>
       <path id="TimesNewRomanPSMT-4c" d="M 3669 1172 
L 3772 1150 
L 3409 0 
L 128 0 
L 128 116 
L 288 116 
Q 556 116 672 291 
Q 738 391 738 753 
L 738 3488 
Q 738 3884 650 3984 
Q 528 4122 288 4122 
L 128 4122 
L 128 4238 
L 2047 4238 
L 2047 4122 
Q 1709 4125 1573 4059 
Q 1438 3994 1388 3894 
Q 1338 3794 1338 3416 
L 1338 753 
Q 1338 494 1388 397 
Q 1425 331 1503 300 
Q 1581 269 1991 269 
L 2300 269 
Q 2788 269 2984 341 
Q 3181 413 3343 595 
Q 3506 778 3669 1172 
z
" transform="scale(0.015625)"/>
      </defs>
      <use xlink:href="#TimesNewRomanPSMT-4a"/>
      <use xlink:href="#TimesNewRomanPSMT-50" x="38.916016"/>
      <use xlink:href="#TimesNewRomanPSMT-4c" x="94.53125"/>
      <use xlink:href="#TimesNewRomanPSMT-2f" x="155.615234"/>
      <use xlink:href="#TimesNewRomanPSMT-58" x="183.398438"/>
     </g>
    </g>
    <g id="line2d_82">
     <path d="M 233.137925 35.3655 
L 247.137925 35.3655 
L 261.137925 35.3655 
" style="fill: none; stroke: #008000; stroke-width: 2; stroke-linecap: square"/>
    </g>
    <g id="text_10">
     <!-- CDAWeb/Y -->
     <g transform="translate(272.337925 40.2655) scale(0.14 -0.14)">
      <defs>
       <path id="TimesNewRomanPSMT-59" d="M 3050 4238 
L 4528 4238 
L 4528 4122 
L 4447 4122 
Q 4366 4122 4209 4050 
Q 4053 3978 3925 3843 
Q 3797 3709 3609 3406 
L 2588 1797 
L 2588 734 
Q 2588 344 2675 247 
Q 2794 116 3050 116 
L 3188 116 
L 3188 0 
L 1388 0 
L 1388 116 
L 1538 116 
Q 1806 116 1919 278 
Q 1988 378 1988 734 
L 1988 1738 
L 825 3513 
Q 619 3825 545 3903 
Q 472 3981 241 4091 
Q 178 4122 59 4122 
L 59 4238 
L 1872 4238 
L 1872 4122 
L 1778 4122 
Q 1631 4122 1507 4053 
Q 1384 3984 1384 3847 
Q 1384 3734 1575 3441 
L 2459 2075 
L 3291 3381 
Q 3478 3675 3478 3819 
Q 3478 3906 3433 3975 
Q 3388 4044 3303 4083 
Q 3219 4122 3050 4122 
L 3050 4238 
z
" transform="scale(0.015625)"/>
      </defs>
      <use xlink:href="#TimesNewRomanPSMT-43"/>
      <use xlink:href="#TimesNewRomanPSMT-44" x="66.699219"/>
      <use xlink:href="#TimesNewRomanPSMT-41" x="138.916016"/>
      <use xlink:href="#TimesNewRomanPSMT-57" x="203.132812"/>
      <use xlink:href="#TimesNewRomanPSMT-65" x="289.517578"/>
      <use xlink:href="#TimesNewRomanPSMT-62" x="333.902344"/>
      <use xlink:href="#TimesNewRomanPSMT-2f" x="383.902344"/>
      <use xlink:href="#TimesNewRomanPSMT-59" x="411.685547"/>
     </g>
    </g>
    <g id="line2d_83">
     <path d="M 233.137925 55.160187 
L 247.137925 55.160187 
L 261.137925 55.160187 
" style="fill: none; stroke-dasharray: 11.1,4.8; stroke-dashoffset: 0; stroke: #008000; stroke-width: 3"/>
    </g>
    <g id="text_11">
     <!-- JPL/Y -->
     <g transform="translate(272.337925 60.060187) scale(0.14 -0.14)">
      <use xlink:href="#TimesNewRomanPSMT-4a"/>
      <use xlink:href="#TimesNewRomanPSMT-50" x="38.916016"/>
      <use xlink:href="#TimesNewRomanPSMT-4c" x="94.53125"/>
      <use xlink:href="#TimesNewRomanPSMT-2f" x="155.615234"/>
      <use xlink:href="#TimesNewRomanPSMT-59" x="183.398438"/>
     </g>
    </g>
    <g id="line2d_84">
     <path d="M 368.086987 35.3655 
L 382.086987 35.3655 
L 396.086987 35.3655 
" style="fill: none; stroke: #0000ff; stroke-width: 2; stroke-linecap: square"/>
    </g>
    <g id="text_12">
     <!-- CDAWeb/Z -->
     <g transform="translate(407.286987 40.2655) scale(0.14 -0.14)">
      <defs>
       <path id="TimesNewRomanPSMT-5a" d="M 3681 4238 
L 897 256 
L 2634 256 
Q 3034 256 3248 431 
Q 3463 606 3628 1141 
L 3731 1122 
L 3531 0 
L 81 0 
L 81 116 
L 2800 3984 
L 1444 3984 
Q 1106 3984 954 3911 
Q 803 3838 723 3698 
Q 644 3559 578 3178 
L 459 3178 
L 547 4238 
L 3681 4238 
z
" transform="scale(0.015625)"/>
      </defs>
      <use xlink:href="#TimesNewRomanPSMT-43"/>
      <use xlink:href="#TimesNewRomanPSMT-44" x="66.699219"/>
      <use xlink:href="#TimesNewRomanPSMT-41" x="138.916016"/>
      <use xlink:href="#TimesNewRomanPSMT-57" x="203.132812"/>
      <use xlink:href="#TimesNewRomanPSMT-65" x="289.517578"/>
      <use xlink:href="#TimesNewRomanPSMT-62" x="333.902344"/>
      <use xlink:href="#TimesNewRomanPSMT-2f" x="383.902344"/>
      <use xlink:href="#TimesNewRomanPSMT-5a" x="411.685547"/>
     </g>
    </g>
    <g id="line2d_85">
     <path d="M 368.086987 55.160187 
L 382.086987 55.160187 
L 396.086987 55.160187 
" style="fill: none; stroke-dasharray: 11.1,4.8; stroke-dashoffset: 0; stroke: #0000ff; stroke-width: 3"/>
    </g>
    <g id="text_13">
     <!-- JPL/Z -->
     <g transform="translate(407.286987 60.060187) scale(0.14 -0.14)">
      <use xlink:href="#TimesNewRomanPSMT-4a"/>
      <use xlink:href="#TimesNewRomanPSMT-50" x="38.916016"/>
      <use xlink:href="#TimesNewRomanPSMT-4c" x="94.53125"/>
      <use xlink:href="#TimesNewRomanPSMT-2f" x="155.615234"/>
      <use xlink:href="#TimesNewRomanPSMT-5a" x="183.398438"/>
     </g>
    </g>
    <g id="line2d_86">
     <path d="M 501.476362 35.3655 
L 515.476362 35.3655 
L 529.476362 35.3655 
" style="fill: none; stroke: #000000; stroke-width: 2; stroke-linecap: square"/>
    </g>
    <g id="text_14">
     <!-- $\overline{r}$ -->
     <g transform="translate(540.676362 40.2655) scale(0.14 -0.14)">
      <defs>
       <path id="Cmmi10-72" d="M 494 109 
Q 494 147 500 166 
L 978 2075 
Q 1025 2253 1025 2388 
Q 1025 2663 838 2663 
Q 638 2663 541 2423 
Q 444 2184 353 1819 
Q 353 1800 334 1789 
Q 316 1778 300 1778 
L 225 1778 
Q 203 1778 187 1801 
Q 172 1825 172 1844 
Q 241 2122 305 2315 
Q 369 2509 505 2668 
Q 641 2828 844 2828 
Q 1066 2828 1233 2700 
Q 1400 2572 1441 2363 
Q 1603 2575 1811 2701 
Q 2019 2828 2266 2828 
Q 2469 2828 2623 2709 
Q 2778 2591 2778 2388 
Q 2778 2225 2676 2104 
Q 2575 1984 2406 1984 
Q 2303 1984 2233 2048 
Q 2163 2113 2163 2216 
Q 2163 2356 2266 2467 
Q 2369 2578 2503 2578 
Q 2400 2663 2253 2663 
Q 1978 2663 1775 2467 
Q 1572 2272 1409 1972 
L 953 141 
Q 931 53 854 -9 
Q 778 -72 684 -72 
Q 606 -72 550 -22 
Q 494 28 494 109 
z
" transform="scale(0.015625)"/>
      </defs>
      <use xlink:href="#Cmmi10-72" transform="translate(0 0.5625)"/>
      <path d="M 0 56.5 
L 0 62.75 
L 45.117188 62.75 
L 45.117188 56.5 
L 0 56.5 
z
"/>
     </g>
    </g>
   </g>
  </g>
  <g id="axes_2">
   <g id="patch_5">
    <path d="M 38.974688 758.823395 
L 606.330537 758.823395 
L 606.330537 397.554447 
L 38.974688 397.554447 
z
" style="fill: #ffffff"/>
   </g>
   <g id="matplotlib.axis_3">
    <g id="xtick_14">
     <g id="line2d_87">
      <path d="M 64.746378 758.823395 
L 64.746378 397.554447 
" clip-path="url(#pda37362347)" style="fill: none; stroke: #b0b0b0; stroke-width: 0.8; stroke-linecap: square"/>
     </g>
     <g id="line2d_88">
      <g>
       <use xlink:href="#m35c976159d" x="64.746378" y="758.823395" style="stroke: #000000; stroke-width: 0.8"/>
      </g>
     </g>
     <g id="text_15">
      <!-- 00 -->
      <g transform="translate(57.746378 775.544645) scale(0.14 -0.14)">
       <use xlink:href="#TimesNewRomanPSMT-30"/>
       <use xlink:href="#TimesNewRomanPSMT-30" x="50"/>
      </g>
      <!-- 2016-09-01 -->
      <g transform="translate(32.084815 790.204832) scale(0.14 -0.14)">
       <defs>
        <path id="TimesNewRomanPSMT-36" d="M 2869 4325 
L 2869 4209 
Q 2456 4169 2195 4045 
Q 1934 3922 1679 3669 
Q 1425 3416 1258 3105 
Q 1091 2794 978 2366 
Q 1428 2675 1881 2675 
Q 2316 2675 2634 2325 
Q 2953 1975 2953 1425 
Q 2953 894 2631 456 
Q 2244 -75 1606 -75 
Q 1172 -75 869 213 
Q 275 772 275 1663 
Q 275 2231 503 2743 
Q 731 3256 1154 3653 
Q 1578 4050 1965 4187 
Q 2353 4325 2688 4325 
L 2869 4325 
z
M 925 2138 
Q 869 1716 869 1456 
Q 869 1156 980 804 
Q 1091 453 1309 247 
Q 1469 100 1697 100 
Q 1969 100 2183 356 
Q 2397 613 2397 1088 
Q 2397 1622 2184 2012 
Q 1972 2403 1581 2403 
Q 1463 2403 1327 2353 
Q 1191 2303 925 2138 
z
" transform="scale(0.015625)"/>
        <path id="TimesNewRomanPSMT-39" d="M 338 -88 
L 338 28 
Q 744 34 1094 217 
Q 1444 400 1770 856 
Q 2097 1313 2225 1859 
Q 1734 1544 1338 1544 
Q 891 1544 572 1889 
Q 253 2234 253 2806 
Q 253 3363 572 3797 
Q 956 4325 1575 4325 
Q 2097 4325 2469 3894 
Q 2925 3359 2925 2575 
Q 2925 1869 2578 1258 
Q 2231 647 1613 244 
Q 1109 -88 516 -88 
L 338 -88 
z
M 2275 2091 
Q 2331 2497 2331 2741 
Q 2331 3044 2228 3395 
Q 2125 3747 1936 3934 
Q 1747 4122 1506 4122 
Q 1228 4122 1018 3872 
Q 809 3622 809 3128 
Q 809 2469 1088 2097 
Q 1291 1828 1588 1828 
Q 1731 1828 1928 1897 
Q 2125 1966 2275 2091 
z
" transform="scale(0.015625)"/>
       </defs>
       <use xlink:href="#TimesNewRomanPSMT-32"/>
       <use xlink:href="#TimesNewRomanPSMT-30" x="50"/>
       <use xlink:href="#TimesNewRomanPSMT-31" x="100"/>
       <use xlink:href="#TimesNewRomanPSMT-36" x="150"/>
       <use xlink:href="#TimesNewRomanPSMT-2d" x="200"/>
       <use xlink:href="#TimesNewRomanPSMT-30" x="233.300781"/>
       <use xlink:href="#TimesNewRomanPSMT-39" x="283.300781"/>
       <use xlink:href="#TimesNewRomanPSMT-2d" x="333.300781"/>
       <use xlink:href="#TimesNewRomanPSMT-30" x="366.601562"/>
       <use xlink:href="#TimesNewRomanPSMT-31" x="416.601562"/>
      </g>
     </g>
    </g>
    <g id="xtick_15">
     <g id="line2d_89">
      <path d="M 150.71376 758.823395 
L 150.71376 397.554447 
" clip-path="url(#pda37362347)" style="fill: none; stroke: #b0b0b0; stroke-width: 0.8; stroke-linecap: square"/>
     </g>
     <g id="line2d_90">
      <g>
       <use xlink:href="#m35c976159d" x="150.71376" y="758.823395" style="stroke: #000000; stroke-width: 0.8"/>
      </g>
     </g>
     <g id="text_16">
      <!-- 04 -->
      <g transform="translate(143.71376 775.544645) scale(0.14 -0.14)">
       <defs>
        <path id="TimesNewRomanPSMT-34" d="M 2978 1563 
L 2978 1119 
L 2409 1119 
L 2409 0 
L 1894 0 
L 1894 1119 
L 100 1119 
L 100 1519 
L 2066 4325 
L 2409 4325 
L 2409 1563 
L 2978 1563 
z
M 1894 1563 
L 1894 3666 
L 406 1563 
L 1894 1563 
z
" transform="scale(0.015625)"/>
       </defs>
       <use xlink:href="#TimesNewRomanPSMT-30"/>
       <use xlink:href="#TimesNewRomanPSMT-34" x="50"/>
      </g>
     </g>
    </g>
    <g id="xtick_16">
     <g id="line2d_91">
      <path d="M 236.681142 758.823395 
L 236.681142 397.554447 
" clip-path="url(#pda37362347)" style="fill: none; stroke: #b0b0b0; stroke-width: 0.8; stroke-linecap: square"/>
     </g>
     <g id="line2d_92">
      <g>
       <use xlink:href="#m35c976159d" x="236.681142" y="758.823395" style="stroke: #000000; stroke-width: 0.8"/>
      </g>
     </g>
     <g id="text_17">
      <!-- 08 -->
      <g transform="translate(229.681142 775.544645) scale(0.14 -0.14)">
       <defs>
        <path id="TimesNewRomanPSMT-38" d="M 1228 2134 
Q 725 2547 579 2797 
Q 434 3047 434 3316 
Q 434 3728 753 4026 
Q 1072 4325 1600 4325 
Q 2113 4325 2425 4047 
Q 2738 3769 2738 3413 
Q 2738 3175 2569 2928 
Q 2400 2681 1866 2347 
Q 2416 1922 2594 1678 
Q 2831 1359 2831 1006 
Q 2831 559 2490 242 
Q 2150 -75 1597 -75 
Q 994 -75 656 303 
Q 388 606 388 966 
Q 388 1247 577 1523 
Q 766 1800 1228 2134 
z
M 1719 2469 
Q 2094 2806 2194 3001 
Q 2294 3197 2294 3444 
Q 2294 3772 2109 3958 
Q 1925 4144 1606 4144 
Q 1288 4144 1088 3959 
Q 888 3775 888 3528 
Q 888 3366 970 3203 
Q 1053 3041 1206 2894 
L 1719 2469 
z
M 1375 2016 
Q 1116 1797 991 1539 
Q 866 1281 866 981 
Q 866 578 1086 336 
Q 1306 94 1647 94 
Q 1984 94 2187 284 
Q 2391 475 2391 747 
Q 2391 972 2272 1150 
Q 2050 1481 1375 2016 
z
" transform="scale(0.015625)"/>
       </defs>
       <use xlink:href="#TimesNewRomanPSMT-30"/>
       <use xlink:href="#TimesNewRomanPSMT-38" x="50"/>
      </g>
     </g>
    </g>
    <g id="xtick_17">
     <g id="line2d_93">
      <path d="M 322.648524 758.823395 
L 322.648524 397.554447 
" clip-path="url(#pda37362347)" style="fill: none; stroke: #b0b0b0; stroke-width: 0.8; stroke-linecap: square"/>
     </g>
     <g id="line2d_94">
      <g>
       <use xlink:href="#m35c976159d" x="322.648524" y="758.823395" style="stroke: #000000; stroke-width: 0.8"/>
      </g>
     </g>
     <g id="text_18">
      <!-- 12 -->
      <g transform="translate(315.648524 775.544645) scale(0.14 -0.14)">
       <use xlink:href="#TimesNewRomanPSMT-31"/>
       <use xlink:href="#TimesNewRomanPSMT-32" x="50"/>
      </g>
     </g>
    </g>
    <g id="xtick_18">
     <g id="line2d_95">
      <path d="M 408.615906 758.823395 
L 408.615906 397.554447 
" clip-path="url(#pda37362347)" style="fill: none; stroke: #b0b0b0; stroke-width: 0.8; stroke-linecap: square"/>
     </g>
     <g id="line2d_96">
      <g>
       <use xlink:href="#m35c976159d" x="408.615906" y="758.823395" style="stroke: #000000; stroke-width: 0.8"/>
      </g>
     </g>
     <g id="text_19">
      <!-- 16 -->
      <g transform="translate(401.615906 775.544645) scale(0.14 -0.14)">
       <use xlink:href="#TimesNewRomanPSMT-31"/>
       <use xlink:href="#TimesNewRomanPSMT-36" x="50"/>
      </g>
     </g>
    </g>
    <g id="xtick_19">
     <g id="line2d_97">
      <path d="M 494.583288 758.823395 
L 494.583288 397.554447 
" clip-path="url(#pda37362347)" style="fill: none; stroke: #b0b0b0; stroke-width: 0.8; stroke-linecap: square"/>
     </g>
     <g id="line2d_98">
      <g>
       <use xlink:href="#m35c976159d" x="494.583288" y="758.823395" style="stroke: #000000; stroke-width: 0.8"/>
      </g>
     </g>
     <g id="text_20">
      <!-- 20 -->
      <g transform="translate(487.583288 775.544645) scale(0.14 -0.14)">
       <use xlink:href="#TimesNewRomanPSMT-32"/>
       <use xlink:href="#TimesNewRomanPSMT-30" x="50"/>
      </g>
     </g>
    </g>
    <g id="xtick_20">
     <g id="line2d_99">
      <path d="M 580.55067 758.823395 
L 580.55067 397.554447 
" clip-path="url(#pda37362347)" style="fill: none; stroke: #b0b0b0; stroke-width: 0.8; stroke-linecap: square"/>
     </g>
     <g id="line2d_100">
      <g>
       <use xlink:href="#m35c976159d" x="580.55067" y="758.823395" style="stroke: #000000; stroke-width: 0.8"/>
      </g>
     </g>
     <g id="text_21">
      <!-- 00 -->
      <g transform="translate(573.55067 775.544645) scale(0.14 -0.14)">
       <use xlink:href="#TimesNewRomanPSMT-30"/>
       <use xlink:href="#TimesNewRomanPSMT-30" x="50"/>
      </g>
      <!-- 2016-09-02 -->
      <g transform="translate(547.889107 790.204832) scale(0.14 -0.14)">
       <use xlink:href="#TimesNewRomanPSMT-32"/>
       <use xlink:href="#TimesNewRomanPSMT-30" x="50"/>
       <use xlink:href="#TimesNewRomanPSMT-31" x="100"/>
       <use xlink:href="#TimesNewRomanPSMT-36" x="150"/>
       <use xlink:href="#TimesNewRomanPSMT-2d" x="200"/>
       <use xlink:href="#TimesNewRomanPSMT-30" x="233.300781"/>
       <use xlink:href="#TimesNewRomanPSMT-39" x="283.300781"/>
       <use xlink:href="#TimesNewRomanPSMT-2d" x="333.300781"/>
       <use xlink:href="#TimesNewRomanPSMT-30" x="366.601562"/>
       <use xlink:href="#TimesNewRomanPSMT-32" x="416.601562"/>
      </g>
     </g>
    </g>
    <g id="xtick_21">
     <g id="line2d_101">
      <path d="M 107.730069 758.823395 
L 107.730069 397.554447 
" clip-path="url(#pda37362347)" style="fill: none; stroke-dasharray: 0.5,0.825; stroke-dashoffset: 0; stroke: #bfbfbf; stroke-width: 0.5"/>
     </g>
     <g id="line2d_102">
      <g>
       <use xlink:href="#m5365831993" x="107.730069" y="758.823395" style="stroke: #000000; stroke-width: 0.6"/>
      </g>
     </g>
    </g>
    <g id="xtick_22">
     <g id="line2d_103">
      <path d="M 193.697451 758.823395 
L 193.697451 397.554447 
" clip-path="url(#pda37362347)" style="fill: none; stroke-dasharray: 0.5,0.825; stroke-dashoffset: 0; stroke: #bfbfbf; stroke-width: 0.5"/>
     </g>
     <g id="line2d_104">
      <g>
       <use xlink:href="#m5365831993" x="193.697451" y="758.823395" style="stroke: #000000; stroke-width: 0.6"/>
      </g>
     </g>
    </g>
    <g id="xtick_23">
     <g id="line2d_105">
      <path d="M 279.664833 758.823395 
L 279.664833 397.554447 
" clip-path="url(#pda37362347)" style="fill: none; stroke-dasharray: 0.5,0.825; stroke-dashoffset: 0; stroke: #bfbfbf; stroke-width: 0.5"/>
     </g>
     <g id="line2d_106">
      <g>
       <use xlink:href="#m5365831993" x="279.664833" y="758.823395" style="stroke: #000000; stroke-width: 0.6"/>
      </g>
     </g>
    </g>
    <g id="xtick_24">
     <g id="line2d_107">
      <path d="M 365.632215 758.823395 
L 365.632215 397.554447 
" clip-path="url(#pda37362347)" style="fill: none; stroke-dasharray: 0.5,0.825; stroke-dashoffset: 0; stroke: #bfbfbf; stroke-width: 0.5"/>
     </g>
     <g id="line2d_108">
      <g>
       <use xlink:href="#m5365831993" x="365.632215" y="758.823395" style="stroke: #000000; stroke-width: 0.6"/>
      </g>
     </g>
    </g>
    <g id="xtick_25">
     <g id="line2d_109">
      <path d="M 451.599597 758.823395 
L 451.599597 397.554447 
" clip-path="url(#pda37362347)" style="fill: none; stroke-dasharray: 0.5,0.825; stroke-dashoffset: 0; stroke: #bfbfbf; stroke-width: 0.5"/>
     </g>
     <g id="line2d_110">
      <g>
       <use xlink:href="#m5365831993" x="451.599597" y="758.823395" style="stroke: #000000; stroke-width: 0.6"/>
      </g>
     </g>
    </g>
    <g id="xtick_26">
     <g id="line2d_111">
      <path d="M 537.566979 758.823395 
L 537.566979 397.554447 
" clip-path="url(#pda37362347)" style="fill: none; stroke-dasharray: 0.5,0.825; stroke-dashoffset: 0; stroke: #bfbfbf; stroke-width: 0.5"/>
     </g>
     <g id="line2d_112">
      <g>
       <use xlink:href="#m5365831993" x="537.566979" y="758.823395" style="stroke: #000000; stroke-width: 0.6"/>
      </g>
     </g>
    </g>
   </g>
   <g id="matplotlib.axis_4">
    <g id="ytick_24">
     <g id="line2d_113">
      <path d="M 38.974688 758.823395 
L 606.330537 758.823395 
" clip-path="url(#pda37362347)" style="fill: none; stroke: #b0b0b0; stroke-width: 0.8; stroke-linecap: square"/>
     </g>
     <g id="line2d_114"/>
     <g id="text_22">
      <!-- 0.0 -->
      <g transform="translate(17.974688 763.68402) scale(0.14 -0.14)">
       <defs>
        <path id="TimesNewRomanPSMT-2e" d="M 800 606 
Q 947 606 1047 504 
Q 1147 403 1147 259 
Q 1147 116 1045 14 
Q 944 -88 800 -88 
Q 656 -88 554 14 
Q 453 116 453 259 
Q 453 406 554 506 
Q 656 606 800 606 
z
" transform="scale(0.015625)"/>
       </defs>
       <use xlink:href="#TimesNewRomanPSMT-30"/>
       <use xlink:href="#TimesNewRomanPSMT-2e" x="50"/>
       <use xlink:href="#TimesNewRomanPSMT-30" x="75"/>
      </g>
     </g>
    </g>
    <g id="ytick_25">
     <g id="line2d_115">
      <path d="M 38.974688 703.25384 
L 606.330537 703.25384 
" clip-path="url(#pda37362347)" style="fill: none; stroke: #b0b0b0; stroke-width: 0.8; stroke-linecap: square"/>
     </g>
     <g id="line2d_116"/>
     <g id="text_23">
      <!-- 0.2 -->
      <g transform="translate(17.974688 708.114465) scale(0.14 -0.14)">
       <use xlink:href="#TimesNewRomanPSMT-30"/>
       <use xlink:href="#TimesNewRomanPSMT-2e" x="50"/>
       <use xlink:href="#TimesNewRomanPSMT-32" x="75"/>
      </g>
     </g>
    </g>
    <g id="ytick_26">
     <g id="line2d_117">
      <path d="M 38.974688 647.684286 
L 606.330537 647.684286 
" clip-path="url(#pda37362347)" style="fill: none; stroke: #b0b0b0; stroke-width: 0.8; stroke-linecap: square"/>
     </g>
     <g id="line2d_118"/>
     <g id="text_24">
      <!-- 0.4 -->
      <g transform="translate(17.974688 652.544911) scale(0.14 -0.14)">
       <use xlink:href="#TimesNewRomanPSMT-30"/>
       <use xlink:href="#TimesNewRomanPSMT-2e" x="50"/>
       <use xlink:href="#TimesNewRomanPSMT-34" x="75"/>
      </g>
     </g>
    </g>
    <g id="ytick_27">
     <g id="line2d_119">
      <path d="M 38.974688 592.114731 
L 606.330537 592.114731 
" clip-path="url(#pda37362347)" style="fill: none; stroke: #b0b0b0; stroke-width: 0.8; stroke-linecap: square"/>
     </g>
     <g id="line2d_120"/>
     <g id="text_25">
      <!-- 0.6 -->
      <g transform="translate(17.974688 596.975356) scale(0.14 -0.14)">
       <use xlink:href="#TimesNewRomanPSMT-30"/>
       <use xlink:href="#TimesNewRomanPSMT-2e" x="50"/>
       <use xlink:href="#TimesNewRomanPSMT-36" x="75"/>
      </g>
     </g>
    </g>
    <g id="ytick_28">
     <g id="line2d_121">
      <path d="M 38.974688 536.545176 
L 606.330537 536.545176 
" clip-path="url(#pda37362347)" style="fill: none; stroke: #b0b0b0; stroke-width: 0.8; stroke-linecap: square"/>
     </g>
     <g id="line2d_122"/>
     <g id="text_26">
      <!-- 0.8 -->
      <g transform="translate(17.974688 541.405801) scale(0.14 -0.14)">
       <use xlink:href="#TimesNewRomanPSMT-30"/>
       <use xlink:href="#TimesNewRomanPSMT-2e" x="50"/>
       <use xlink:href="#TimesNewRomanPSMT-38" x="75"/>
      </g>
     </g>
    </g>
    <g id="ytick_29">
     <g id="line2d_123">
      <path d="M 38.974688 480.975622 
L 606.330537 480.975622 
" clip-path="url(#pda37362347)" style="fill: none; stroke: #b0b0b0; stroke-width: 0.8; stroke-linecap: square"/>
     </g>
     <g id="line2d_124"/>
     <g id="text_27">
      <!-- 1.0 -->
      <g transform="translate(17.974688 485.836247) scale(0.14 -0.14)">
       <use xlink:href="#TimesNewRomanPSMT-31"/>
       <use xlink:href="#TimesNewRomanPSMT-2e" x="50"/>
       <use xlink:href="#TimesNewRomanPSMT-30" x="75"/>
      </g>
     </g>
    </g>
    <g id="ytick_30">
     <g id="line2d_125">
      <path d="M 38.974688 425.406067 
L 606.330537 425.406067 
" clip-path="url(#pda37362347)" style="fill: none; stroke: #b0b0b0; stroke-width: 0.8; stroke-linecap: square"/>
     </g>
     <g id="line2d_126"/>
     <g id="text_28">
      <!-- 1.2 -->
      <g transform="translate(17.974688 430.266692) scale(0.14 -0.14)">
       <use xlink:href="#TimesNewRomanPSMT-31"/>
       <use xlink:href="#TimesNewRomanPSMT-2e" x="50"/>
       <use xlink:href="#TimesNewRomanPSMT-32" x="75"/>
      </g>
     </g>
    </g>
    <g id="ytick_31">
     <g id="line2d_127">
      <path d="M 38.974688 744.931006 
L 606.330537 744.931006 
" clip-path="url(#pda37362347)" style="fill: none; stroke-dasharray: 0.5,0.825; stroke-dashoffset: 0; stroke: #bfbfbf; stroke-width: 0.5"/>
     </g>
     <g id="line2d_128"/>
    </g>
    <g id="ytick_32">
     <g id="line2d_129">
      <path d="M 38.974688 731.038618 
L 606.330537 731.038618 
" clip-path="url(#pda37362347)" style="fill: none; stroke-dasharray: 0.5,0.825; stroke-dashoffset: 0; stroke: #bfbfbf; stroke-width: 0.5"/>
     </g>
     <g id="line2d_130"/>
    </g>
    <g id="ytick_33">
     <g id="line2d_131">
      <path d="M 38.974688 717.146229 
L 606.330537 717.146229 
" clip-path="url(#pda37362347)" style="fill: none; stroke-dasharray: 0.5,0.825; stroke-dashoffset: 0; stroke: #bfbfbf; stroke-width: 0.5"/>
     </g>
     <g id="line2d_132"/>
    </g>
    <g id="ytick_34">
     <g id="line2d_133">
      <path d="M 38.974688 689.361452 
L 606.330537 689.361452 
" clip-path="url(#pda37362347)" style="fill: none; stroke-dasharray: 0.5,0.825; stroke-dashoffset: 0; stroke: #bfbfbf; stroke-width: 0.5"/>
     </g>
     <g id="line2d_134"/>
    </g>
    <g id="ytick_35">
     <g id="line2d_135">
      <path d="M 38.974688 675.469063 
L 606.330537 675.469063 
" clip-path="url(#pda37362347)" style="fill: none; stroke-dasharray: 0.5,0.825; stroke-dashoffset: 0; stroke: #bfbfbf; stroke-width: 0.5"/>
     </g>
     <g id="line2d_136"/>
    </g>
    <g id="ytick_36">
     <g id="line2d_137">
      <path d="M 38.974688 661.576674 
L 606.330537 661.576674 
" clip-path="url(#pda37362347)" style="fill: none; stroke-dasharray: 0.5,0.825; stroke-dashoffset: 0; stroke: #bfbfbf; stroke-width: 0.5"/>
     </g>
     <g id="line2d_138"/>
    </g>
    <g id="ytick_37">
     <g id="line2d_139">
      <path d="M 38.974688 633.791897 
L 606.330537 633.791897 
" clip-path="url(#pda37362347)" style="fill: none; stroke-dasharray: 0.5,0.825; stroke-dashoffset: 0; stroke: #bfbfbf; stroke-width: 0.5"/>
     </g>
     <g id="line2d_140"/>
    </g>
    <g id="ytick_38">
     <g id="line2d_141">
      <path d="M 38.974688 619.899508 
L 606.330537 619.899508 
" clip-path="url(#pda37362347)" style="fill: none; stroke-dasharray: 0.5,0.825; stroke-dashoffset: 0; stroke: #bfbfbf; stroke-width: 0.5"/>
     </g>
     <g id="line2d_142"/>
    </g>
    <g id="ytick_39">
     <g id="line2d_143">
      <path d="M 38.974688 606.00712 
L 606.330537 606.00712 
" clip-path="url(#pda37362347)" style="fill: none; stroke-dasharray: 0.5,0.825; stroke-dashoffset: 0; stroke: #bfbfbf; stroke-width: 0.5"/>
     </g>
     <g id="line2d_144"/>
    </g>
    <g id="ytick_40">
     <g id="line2d_145">
      <path d="M 38.974688 578.222342 
L 606.330537 578.222342 
" clip-path="url(#pda37362347)" style="fill: none; stroke-dasharray: 0.5,0.825; stroke-dashoffset: 0; stroke: #bfbfbf; stroke-width: 0.5"/>
     </g>
     <g id="line2d_146"/>
    </g>
    <g id="ytick_41">
     <g id="line2d_147">
      <path d="M 38.974688 564.329954 
L 606.330537 564.329954 
" clip-path="url(#pda37362347)" style="fill: none; stroke-dasharray: 0.5,0.825; stroke-dashoffset: 0; stroke: #bfbfbf; stroke-width: 0.5"/>
     </g>
     <g id="line2d_148"/>
    </g>
    <g id="ytick_42">
     <g id="line2d_149">
      <path d="M 38.974688 550.437565 
L 606.330537 550.437565 
" clip-path="url(#pda37362347)" style="fill: none; stroke-dasharray: 0.5,0.825; stroke-dashoffset: 0; stroke: #bfbfbf; stroke-width: 0.5"/>
     </g>
     <g id="line2d_150"/>
    </g>
    <g id="ytick_43">
     <g id="line2d_151">
      <path d="M 38.974688 522.652788 
L 606.330537 522.652788 
" clip-path="url(#pda37362347)" style="fill: none; stroke-dasharray: 0.5,0.825; stroke-dashoffset: 0; stroke: #bfbfbf; stroke-width: 0.5"/>
     </g>
     <g id="line2d_152"/>
    </g>
    <g id="ytick_44">
     <g id="line2d_153">
      <path d="M 38.974688 508.760399 
L 606.330537 508.760399 
" clip-path="url(#pda37362347)" style="fill: none; stroke-dasharray: 0.5,0.825; stroke-dashoffset: 0; stroke: #bfbfbf; stroke-width: 0.5"/>
     </g>
     <g id="line2d_154"/>
    </g>
    <g id="ytick_45">
     <g id="line2d_155">
      <path d="M 38.974688 494.86801 
L 606.330537 494.86801 
" clip-path="url(#pda37362347)" style="fill: none; stroke-dasharray: 0.5,0.825; stroke-dashoffset: 0; stroke: #bfbfbf; stroke-width: 0.5"/>
     </g>
     <g id="line2d_156"/>
    </g>
    <g id="ytick_46">
     <g id="line2d_157">
      <path d="M 38.974688 467.083233 
L 606.330537 467.083233 
" clip-path="url(#pda37362347)" style="fill: none; stroke-dasharray: 0.5,0.825; stroke-dashoffset: 0; stroke: #bfbfbf; stroke-width: 0.5"/>
     </g>
     <g id="line2d_158"/>
    </g>
    <g id="ytick_47">
     <g id="line2d_159">
      <path d="M 38.974688 453.190844 
L 606.330537 453.190844 
" clip-path="url(#pda37362347)" style="fill: none; stroke-dasharray: 0.5,0.825; stroke-dashoffset: 0; stroke: #bfbfbf; stroke-width: 0.5"/>
     </g>
     <g id="line2d_160"/>
    </g>
    <g id="ytick_48">
     <g id="line2d_161">
      <path d="M 38.974688 439.298456 
L 606.330537 439.298456 
" clip-path="url(#pda37362347)" style="fill: none; stroke-dasharray: 0.5,0.825; stroke-dashoffset: 0; stroke: #bfbfbf; stroke-width: 0.5"/>
     </g>
     <g id="line2d_162"/>
    </g>
    <g id="ytick_49">
     <g id="line2d_163">
      <path d="M 38.974688 411.513678 
L 606.330537 411.513678 
" clip-path="url(#pda37362347)" style="fill: none; stroke-dasharray: 0.5,0.825; stroke-dashoffset: 0; stroke: #bfbfbf; stroke-width: 0.5"/>
     </g>
     <g id="line2d_164"/>
    </g>
    <g id="ytick_50">
     <g id="line2d_165">
      <path d="M 38.974688 397.62129 
L 606.330537 397.62129 
" clip-path="url(#pda37362347)" style="fill: none; stroke-dasharray: 0.5,0.825; stroke-dashoffset: 0; stroke: #bfbfbf; stroke-width: 0.5"/>
     </g>
     <g id="line2d_166"/>
    </g>
   </g>
   <g id="line2d_167">
    <path d="M 64.76359 758.366266 
L 86.686789 758.235937 
L 138.313369 757.977233 
L 173.584363 757.875534 
L 221.17302 757.946896 
L 244.033127 758.282106 
L 270.981224 758.019393 
L 273.304033 757.946327 
L 274.93341 757.888939 
L 275.54993 757.920672 
L 275.608647 758.241261 
L 275.652685 757.967548 
L 276.063702 754.885532 
L 281.964711 754.462022 
L 282.742705 754.398003 
L 283.623452 754.332064 
L 295.23153 752.884433 
L 295.604618 752.827431 
L 295.950684 752.78475 
L 296.321013 752.733175 
L 296.757981 752.697961 
L 297.594709 752.617784 
L 299.385755 752.522578 
L 301.323893 752.641213 
L 302.102145 752.744233 
L 302.557349 752.807392 
L 304.158047 753.15153 
L 304.559554 753.257459 
L 304.848273 753.296702 
L 305.303556 753.412255 
L 305.59727 753.4743 
L 305.86164 753.509025 
L 306.772204 753.717932 
L 307.227505 753.794602 
L 312.839609 754.663984 
L 313.413799 754.711961 
L 314.280483 754.800307 
L 314.912133 754.855764 
L 315.396884 754.884657 
L 316.351704 754.961554 
L 316.86584 754.982637 
L 319.197034 755.114939 
L 320.01944 755.149399 
L 321.164932 755.187619 
L 324.60142 755.293584 
L 325.541302 755.305534 
L 330.035128 755.378866 
L 332.04708 755.396792 
L 335.013575 755.423213 
L 337.084233 755.432089 
L 340.182905 755.444703 
L 379.760385 755.606543 
L 391.758451 755.688034 
L 436.255655 756.104696 
L 539.84779 757.169161 
L 580.541635 757.319713 
L 580.541635 757.319713 
" clip-path="url(#pda37362347)" style="fill: none; stroke: #ff0000; stroke-width: 2; stroke-linecap: square"/>
   </g>
   <g id="line2d_168">
    <path d="M 64.76359 758.785039 
L 268.146866 758.655558 
L 275.579289 758.641632 
L 275.608647 758.662791 
L 275.652685 758.587096 
L 276.078381 757.725875 
L 282.830776 757.289408 
L 286.133588 756.946102 
L 290.522361 756.230617 
L 292.106326 755.868296 
L 293.294583 755.554141 
L 299.312336 753.802821 
L 300.78058 753.75045 
L 302.028722 753.961743 
L 302.645452 754.112546 
L 304.701432 754.834623 
L 310.120824 756.484299 
L 312.485423 756.913231 
L 313.810415 757.090589 
L 315.029645 757.227155 
L 318.878303 757.545633 
L 320.489394 757.635232 
L 328.008514 757.919685 
L 341.504594 758.155673 
L 424.624703 758.530104 
L 563.814714 758.695667 
L 580.541635 758.697072 
L 580.541635 758.697072 
" clip-path="url(#pda37362347)" style="fill: none; stroke: #0000ff; stroke-width: 2; stroke-linecap: square"/>
   </g>
   <g id="line2d_169">
    <path d="M 64.76359 756.664638 
L 218.296991 752.128785 
L 221.158471 752.309271 
L 252.726937 754.575094 
L 258.10192 754.641161 
L 262.331337 754.449846 
L 265.635605 754.095821 
L 268.881158 753.529974 
L 271.93575 752.757298 
L 274.404956 751.91443 
L 275.545562 751.443289 
L 275.564609 751.867149 
L 275.608647 750.065663 
L 275.887551 717.919778 
L 276.00498 715.659116 
L 277.560974 711.871034 
L 279.175676 707.298734 
L 280.731666 702.126866 
L 282.126184 696.696627 
L 283.461987 690.625976 
L 284.797783 683.503812 
L 286.089546 675.378597 
L 287.322593 666.228726 
L 288.570318 655.246736 
L 289.74465 642.996793 
L 291.079613 626.300746 
L 292.252978 608.778464 
L 293.734735 582.296971 
L 295.158155 552.401438 
L 298.43148 482.389672 
L 299.077452 473.653501 
L 299.650021 468.917461 
L 300.03176 467.685445 
L 300.281374 467.756735 
L 300.398823 467.985329 
L 300.795269 470.017519 
L 301.338577 475.490322 
L 301.793763 482.260521 
L 302.6014 498.644104 
L 304.069918 536.225909 
L 307.227505 613.094325 
L 308.329026 633.07029 
L 309.401165 648.999194 
L 310.458621 661.778402 
L 311.516076 672.138485 
L 312.573535 680.528479 
L 313.64883 687.444046 
L 314.750546 693.185042 
L 315.866953 697.909395 
L 317.012731 701.862443 
L 318.217277 705.258033 
L 319.603846 708.42805 
L 320.974028 710.973212 
L 322.398555 713.154292 
L 323.925879 715.096881 
L 325.673481 716.946038 
L 327.538568 718.596074 
L 329.69736 720.204381 
L 332.193924 721.775688 
L 335.189789 723.374154 
L 338.56748 724.915751 
L 342.488531 726.463561 
L 347.114478 728.054107 
L 352.562806 729.693622 
L 359.156611 731.431695 
L 366.646221 733.164513 
L 375.149127 734.897454 
L 385.105914 736.685185 
L 396.002569 738.412208 
L 408.49997 740.165013 
L 422.789011 741.938777 
L 439.148706 743.737672 
L 457.490967 745.52985 
L 478.476661 747.359726 
L 503.309998 749.300277 
L 533.65046 751.441069 
L 576.018464 754.191247 
L 580.541635 754.477792 
L 580.541635 754.477792 
" clip-path="url(#pda37362347)" style="fill: none; stroke: #008000; stroke-width: 2; stroke-linecap: square"/>
   </g>
   <g id="patch_6">
    <path d="M 38.974687 758.823395 
L 606.330537 758.823395 
" style="fill: none; stroke: #000000; stroke-width: 0.8; stroke-linejoin: miter; stroke-linecap: square"/>
   </g>
   <g id="legend_2">
    <g id="patch_7">
     <path d="M 62.602612 422.754447 
L 582.702612 422.754447 
Q 585.502612 422.754447 585.502612 419.954447 
L 585.502612 400.354447 
Q 585.502612 397.554447 582.702612 397.554447 
L 62.602612 397.554447 
Q 59.802612 397.554447 59.802612 400.354447 
L 59.802612 419.954447 
Q 59.802612 422.754447 62.602612 422.754447 
z
" style="fill: #ffffff; stroke: #cccccc; stroke-linejoin: miter"/>
    </g>
    <g id="line2d_170">
     <path d="M 65.402612 408.754447 
L 79.402612 408.754447 
L 93.402612 408.754447 
" style="fill: none; stroke: #ff0000; stroke-width: 2; stroke-linecap: square"/>
    </g>
    <g id="text_29">
     <!-- $|Δr|/R_E$ ($Δr_{\rm{max}} = 144.8$ [km]) -->
     <g transform="translate(104.602612 413.654447) scale(0.14 -0.14)">
      <defs>
       <path id="Cmsy10-6a" d="M 763 -1484 
L 763 4684 
Q 763 4734 800 4767 
Q 838 4800 891 4800 
Q 938 4800 978 4767 
Q 1019 4734 1019 4684 
L 1019 -1484 
Q 1019 -1534 978 -1567 
Q 938 -1600 891 -1600 
Q 838 -1600 800 -1567 
Q 763 -1534 763 -1484 
z
" transform="scale(0.015625)"/>
       <path id="STIXGeneral-Regular-394" d="M 4320 0 
L 307 0 
L 2221 4314 
L 2349 4314 
L 4320 0 
z
M 3354 589 
L 2118 3405 
L 870 589 
L 3354 589 
z
" transform="scale(0.015625)"/>
       <path id="Cmmi10-3d" d="M 359 -1472 
Q 359 -1453 366 -1447 
L 2591 4722 
Q 2603 4759 2634 4779 
Q 2666 4800 2706 4800 
Q 2763 4800 2798 4765 
Q 2834 4731 2834 4672 
L 2834 4647 
L 609 -1522 
Q 572 -1600 488 -1600 
Q 434 -1600 396 -1562 
Q 359 -1525 359 -1472 
z
" transform="scale(0.015625)"/>
       <path id="TimesNewRomanPSMT-28" d="M 1988 -1253 
L 1988 -1369 
Q 1516 -1131 1200 -813 
Q 750 -359 506 256 
Q 263 872 263 1534 
Q 263 2503 741 3301 
Q 1219 4100 1988 4444 
L 1988 4313 
Q 1603 4100 1356 3731 
Q 1109 3363 987 2797 
Q 866 2231 866 1616 
Q 866 947 969 400 
Q 1050 -31 1165 -292 
Q 1281 -553 1476 -793 
Q 1672 -1034 1988 -1253 
z
" transform="scale(0.015625)"/>
       <path id="Cmr10-6d" d="M 191 0 
L 191 225 
Q 409 225 550 259 
Q 691 294 691 428 
L 691 2175 
Q 691 2347 639 2423 
Q 588 2500 491 2517 
Q 394 2534 191 2534 
L 191 2759 
L 1119 2828 
L 1119 2203 
Q 1247 2478 1498 2653 
Q 1750 2828 2047 2828 
Q 2784 2828 2913 2228 
Q 3041 2497 3287 2662 
Q 3534 2828 3828 2828 
Q 4119 2828 4317 2734 
Q 4516 2641 4616 2448 
Q 4716 2256 4716 1966 
L 4716 428 
Q 4716 294 4858 259 
Q 5000 225 5216 225 
L 5216 0 
L 3750 0 
L 3750 225 
Q 3969 225 4109 259 
Q 4250 294 4250 428 
L 4250 1947 
Q 4250 2269 4159 2466 
Q 4069 2663 3788 2663 
Q 3419 2663 3178 2366 
Q 2938 2069 2938 1691 
L 2938 428 
Q 2938 294 3078 259 
Q 3219 225 3438 225 
L 3438 0 
L 1972 0 
L 1972 225 
Q 2191 225 2331 259 
Q 2472 294 2472 428 
L 2472 1947 
Q 2472 2259 2381 2461 
Q 2291 2663 2009 2663 
Q 1638 2663 1398 2366 
Q 1159 2069 1159 1691 
L 1159 428 
Q 1159 294 1300 259 
Q 1441 225 1656 225 
L 1656 0 
L 191 0 
z
" transform="scale(0.015625)"/>
       <path id="Cmr10-61" d="M 256 628 
Q 256 1009 556 1248 
Q 856 1488 1276 1586 
Q 1697 1684 2075 1684 
L 2075 1947 
Q 2075 2131 1994 2304 
Q 1913 2478 1759 2589 
Q 1606 2700 1422 2700 
Q 997 2700 775 2509 
Q 897 2509 976 2417 
Q 1056 2325 1056 2203 
Q 1056 2075 965 1984 
Q 875 1894 750 1894 
Q 622 1894 531 1984 
Q 441 2075 441 2203 
Q 441 2541 747 2705 
Q 1053 2869 1422 2869 
Q 1681 2869 1943 2758 
Q 2206 2647 2373 2440 
Q 2541 2234 2541 1959 
L 2541 519 
Q 2541 394 2594 289 
Q 2647 184 2759 184 
Q 2866 184 2917 290 
Q 2969 397 2969 519 
L 2969 928 
L 3156 928 
L 3156 519 
Q 3156 375 3081 245 
Q 3006 116 2879 39 
Q 2753 -38 2606 -38 
Q 2419 -38 2283 107 
Q 2147 253 2131 453 
Q 2013 213 1781 70 
Q 1550 -72 1288 -72 
Q 1044 -72 808 0 
Q 572 72 414 226 
Q 256 381 256 628 
z
M 775 628 
Q 775 403 940 250 
Q 1106 97 1331 97 
Q 1538 97 1706 200 
Q 1875 303 1975 481 
Q 2075 659 2075 856 
L 2075 1522 
Q 1784 1522 1479 1426 
Q 1175 1331 975 1128 
Q 775 925 775 628 
z
" transform="scale(0.015625)"/>
       <path id="Cmr10-78" d="M 78 0 
L 78 225 
Q 322 225 537 320 
Q 753 416 903 603 
L 1484 1344 
L 728 2328 
Q 616 2469 483 2501 
Q 350 2534 109 2534 
L 109 2759 
L 1441 2759 
L 1441 2534 
Q 1356 2534 1282 2496 
Q 1209 2459 1209 2388 
Q 1209 2363 1228 2328 
L 1741 1663 
L 2125 2156 
Q 2203 2250 2203 2344 
Q 2203 2422 2151 2478 
Q 2100 2534 2016 2534 
L 2016 2759 
L 3194 2759 
L 3194 2534 
Q 2947 2534 2730 2439 
Q 2513 2344 2363 2156 
L 1856 1509 
L 2675 428 
Q 2797 288 2928 256 
Q 3059 225 3303 225 
L 3303 0 
L 1972 0 
L 1972 225 
Q 2050 225 2122 262 
Q 2194 300 2194 372 
Q 2194 400 2175 428 
L 1600 1191 
L 1141 603 
Q 1069 522 1069 416 
Q 1069 338 1122 281 
Q 1175 225 1247 225 
L 1247 0 
L 78 0 
z
" transform="scale(0.015625)"/>
       <path id="Cmr10-3d" d="M 481 850 
Q 428 850 393 890 
Q 359 931 359 978 
Q 359 1031 393 1068 
Q 428 1106 481 1106 
L 4500 1106 
Q 4547 1106 4581 1068 
Q 4616 1031 4616 978 
Q 4616 931 4581 890 
Q 4547 850 4500 850 
L 481 850 
z
M 481 2094 
Q 428 2094 393 2131 
Q 359 2169 359 2222 
Q 359 2269 393 2309 
Q 428 2350 481 2350 
L 4500 2350 
Q 4547 2350 4581 2309 
Q 4616 2269 4616 2222 
Q 4616 2169 4581 2131 
Q 4547 2094 4500 2094 
L 481 2094 
z
" transform="scale(0.015625)"/>
       <path id="Cmr10-31" d="M 594 0 
L 594 225 
Q 1394 225 1394 428 
L 1394 3788 
Q 1063 3628 556 3628 
L 556 3853 
Q 1341 3853 1741 4263 
L 1831 4263 
Q 1853 4263 1873 4245 
Q 1894 4228 1894 4206 
L 1894 428 
Q 1894 225 2694 225 
L 2694 0 
L 594 0 
z
" transform="scale(0.015625)"/>
       <path id="Cmr10-34" d="M 178 1056 
L 178 1281 
L 2156 4231 
Q 2178 4263 2222 4263 
L 2316 4263 
Q 2388 4263 2388 4191 
L 2388 1281 
L 3016 1281 
L 3016 1056 
L 2388 1056 
L 2388 428 
Q 2388 297 2575 261 
Q 2763 225 3009 225 
L 3009 0 
L 1247 0 
L 1247 225 
Q 1494 225 1681 261 
Q 1869 297 1869 428 
L 1869 1056 
L 178 1056 
z
M 391 1281 
L 1906 1281 
L 1906 3547 
L 391 1281 
z
" transform="scale(0.015625)"/>
       <path id="Cmmi10-3a" d="M 538 353 
Q 538 497 644 600 
Q 750 703 891 703 
Q 978 703 1062 656 
Q 1147 609 1194 525 
Q 1241 441 1241 353 
Q 1241 213 1137 106 
Q 1034 0 891 0 
Q 750 0 644 106 
Q 538 213 538 353 
z
" transform="scale(0.015625)"/>
       <path id="Cmr10-38" d="M 269 972 
Q 269 1356 522 1651 
Q 775 1947 1172 2144 
L 934 2297 
Q 716 2441 578 2680 
Q 441 2919 441 3181 
Q 441 3488 602 3734 
Q 763 3981 1030 4122 
Q 1297 4263 1600 4263 
Q 1884 4263 2148 4147 
Q 2413 4031 2583 3815 
Q 2753 3600 2753 3303 
Q 2753 3088 2651 2903 
Q 2550 2719 2373 2572 
Q 2197 2425 1997 2322 
L 2363 2088 
Q 2616 1922 2770 1653 
Q 2925 1384 2925 1088 
Q 2925 741 2739 456 
Q 2553 172 2247 15 
Q 1941 -141 1600 -141 
Q 1269 -141 961 -6 
Q 653 128 461 383 
Q 269 638 269 972 
z
M 616 972 
Q 616 719 755 509 
Q 894 300 1122 181 
Q 1350 63 1600 63 
Q 1972 63 2275 280 
Q 2578 497 2578 856 
Q 2578 978 2529 1098 
Q 2481 1219 2395 1317 
Q 2309 1416 2203 1478 
L 1344 2034 
Q 1144 1928 976 1765 
Q 809 1603 712 1400 
Q 616 1197 616 972 
z
M 1056 2925 
L 1831 2425 
Q 2100 2581 2272 2803 
Q 2444 3025 2444 3303 
Q 2444 3519 2323 3698 
Q 2203 3878 2009 3978 
Q 1816 4078 1594 4078 
Q 1400 4078 1203 4003 
Q 1006 3928 878 3779 
Q 750 3631 750 3431 
Q 750 3131 1056 2925 
z
" transform="scale(0.015625)"/>
       <path id="TimesNewRomanPSMT-5b" d="M 1900 -1269 
L 525 -1269 
L 525 4334 
L 1900 4334 
L 1900 4088 
L 994 4088 
L 994 -1025 
L 1900 -1025 
L 1900 -1269 
z
" transform="scale(0.015625)"/>
       <path id="TimesNewRomanPSMT-6b" d="M 1047 4444 
L 1047 1594 
L 1775 2259 
Q 2006 2472 2044 2528 
Q 2069 2566 2069 2603 
Q 2069 2666 2017 2711 
Q 1966 2756 1847 2763 
L 1847 2863 
L 3091 2863 
L 3091 2763 
Q 2834 2756 2664 2684 
Q 2494 2613 2291 2428 
L 1556 1750 
L 2291 822 
Q 2597 438 2703 334 
Q 2853 188 2966 144 
Q 3044 113 3238 113 
L 3238 0 
L 1847 0 
L 1847 113 
Q 1966 116 2008 148 
Q 2050 181 2050 241 
Q 2050 313 1925 472 
L 1047 1594 
L 1047 644 
Q 1047 366 1086 278 
Q 1125 191 1197 153 
Q 1269 116 1509 113 
L 1509 0 
L 53 0 
L 53 113 
Q 272 113 381 166 
Q 447 200 481 272 
Q 528 375 528 628 
L 528 3234 
Q 528 3731 506 3842 
Q 484 3953 434 3995 
Q 384 4038 303 4038 
Q 238 4038 106 3984 
L 53 4094 
L 903 4444 
L 1047 4444 
z
" transform="scale(0.015625)"/>
       <path id="TimesNewRomanPSMT-6d" d="M 1050 2338 
Q 1363 2650 1419 2697 
Q 1559 2816 1721 2881 
Q 1884 2947 2044 2947 
Q 2313 2947 2506 2790 
Q 2700 2634 2766 2338 
Q 3088 2713 3309 2830 
Q 3531 2947 3766 2947 
Q 3994 2947 4170 2830 
Q 4347 2713 4450 2447 
Q 4519 2266 4519 1878 
L 4519 647 
Q 4519 378 4559 278 
Q 4591 209 4675 161 
Q 4759 113 4950 113 
L 4950 0 
L 3538 0 
L 3538 113 
L 3597 113 
Q 3781 113 3884 184 
Q 3956 234 3988 344 
Q 4000 397 4000 647 
L 4000 1878 
Q 4000 2228 3916 2372 
Q 3794 2572 3525 2572 
Q 3359 2572 3192 2489 
Q 3025 2406 2788 2181 
L 2781 2147 
L 2788 2013 
L 2788 647 
Q 2788 353 2820 281 
Q 2853 209 2943 161 
Q 3034 113 3253 113 
L 3253 0 
L 1806 0 
L 1806 113 
Q 2044 113 2133 169 
Q 2222 225 2256 338 
Q 2272 391 2272 647 
L 2272 1878 
Q 2272 2228 2169 2381 
Q 2031 2581 1784 2581 
Q 1616 2581 1450 2491 
Q 1191 2353 1050 2181 
L 1050 647 
Q 1050 366 1089 281 
Q 1128 197 1204 155 
Q 1281 113 1516 113 
L 1516 0 
L 100 0 
L 100 113 
Q 297 113 375 155 
Q 453 197 493 289 
Q 534 381 534 647 
L 534 1741 
Q 534 2213 506 2350 
Q 484 2453 437 2492 
Q 391 2531 309 2531 
Q 222 2531 100 2484 
L 53 2597 
L 916 2947 
L 1050 2947 
L 1050 2338 
z
" transform="scale(0.015625)"/>
       <path id="TimesNewRomanPSMT-5d" d="M 234 4334 
L 1609 4334 
L 1609 -1272 
L 234 -1272 
L 234 -1025 
L 1141 -1025 
L 1141 4088 
L 234 4088 
L 234 4334 
z
" transform="scale(0.015625)"/>
       <path id="TimesNewRomanPSMT-29" d="M 144 4313 
L 144 4444 
Q 619 4209 934 3891 
Q 1381 3434 1625 2820 
Q 1869 2206 1869 1541 
Q 1869 572 1392 -226 
Q 916 -1025 144 -1369 
L 144 -1253 
Q 528 -1038 776 -670 
Q 1025 -303 1145 264 
Q 1266 831 1266 1447 
Q 1266 2113 1163 2663 
Q 1084 3094 967 3353 
Q 850 3613 656 3853 
Q 463 4094 144 4313 
z
" transform="scale(0.015625)"/>
      </defs>
      <use xlink:href="#Cmsy10-6a"/>
      <use xlink:href="#STIXGeneral-Regular-394" transform="translate(27.685547 0)"/>
      <use xlink:href="#Cmmi10-72" transform="translate(99.885529 0)"/>
      <use xlink:href="#Cmsy10-6a" transform="translate(145.002716 0)"/>
      <use xlink:href="#Cmmi10-3d" transform="translate(172.688263 0)"/>
      <use xlink:href="#Cmmi10-52" transform="translate(222.688263 0)"/>
      <use xlink:href="#Cmmi10-45" transform="translate(298.567169 -17.00625) scale(0.7)"/>
      <use xlink:href="#TimesNewRomanPSMT-20" transform="translate(356.590021 0)"/>
      <use xlink:href="#TimesNewRomanPSMT-28" transform="translate(381.590021 0)"/>
      <use xlink:href="#STIXGeneral-Regular-394" transform="translate(414.890802 0)"/>
      <use xlink:href="#Cmmi10-72" transform="translate(487.090784 0)"/>
      <use xlink:href="#Cmr10-6d" transform="translate(532.207971 -17.00625) scale(0.7)"/>
      <use xlink:href="#Cmr10-61" transform="translate(590.518518 -17.00625) scale(0.7)"/>
      <use xlink:href="#Cmr10-78" transform="translate(625.518518 -17.00625) scale(0.7)"/>
      <use xlink:href="#Cmr10-3d" transform="translate(686.334338 0)"/>
      <use xlink:href="#Cmr10-31" transform="translate(781.578479 0)"/>
      <use xlink:href="#Cmr10-34" transform="translate(831.578479 0)"/>
      <use xlink:href="#Cmr10-34" transform="translate(881.578479 0)"/>
      <use xlink:href="#Cmmi10-3a" transform="translate(931.578479 0)"/>
      <use xlink:href="#Cmr10-38" transform="translate(959.264026 0)"/>
      <use xlink:href="#TimesNewRomanPSMT-20" transform="translate(1009.264026 0)"/>
      <use xlink:href="#TimesNewRomanPSMT-5b" transform="translate(1034.264026 0)"/>
      <use xlink:href="#TimesNewRomanPSMT-6b" transform="translate(1067.564807 0)"/>
      <use xlink:href="#TimesNewRomanPSMT-6d" transform="translate(1117.564807 0)"/>
      <use xlink:href="#TimesNewRomanPSMT-5d" transform="translate(1195.34801 0)"/>
      <use xlink:href="#TimesNewRomanPSMT-29" transform="translate(1228.648792 0)"/>
     </g>
    </g>
    <g id="line2d_171">
     <path d="M 309.282612 408.754447 
L 323.282612 408.754447 
L 337.282612 408.754447 
" style="fill: none; stroke: #0000ff; stroke-width: 2; stroke-linecap: square"/>
    </g>
    <g id="text_30">
     <!-- $|Δr|/\overline{r}$  (max= 1/55) -->
     <g transform="translate(348.482612 413.654447) scale(0.14 -0.14)">
      <defs>
       <path id="TimesNewRomanPSMT-61" d="M 1822 413 
Q 1381 72 1269 19 
Q 1100 -59 909 -59 
Q 613 -59 420 144 
Q 228 347 228 678 
Q 228 888 322 1041 
Q 450 1253 767 1440 
Q 1084 1628 1822 1897 
L 1822 2009 
Q 1822 2438 1686 2597 
Q 1550 2756 1291 2756 
Q 1094 2756 978 2650 
Q 859 2544 859 2406 
L 866 2225 
Q 866 2081 792 2003 
Q 719 1925 600 1925 
Q 484 1925 411 2006 
Q 338 2088 338 2228 
Q 338 2497 613 2722 
Q 888 2947 1384 2947 
Q 1766 2947 2009 2819 
Q 2194 2722 2281 2516 
Q 2338 2381 2338 1966 
L 2338 994 
Q 2338 584 2353 492 
Q 2369 400 2405 369 
Q 2441 338 2488 338 
Q 2538 338 2575 359 
Q 2641 400 2828 588 
L 2828 413 
Q 2478 -56 2159 -56 
Q 2006 -56 1915 50 
Q 1825 156 1822 413 
z
M 1822 616 
L 1822 1706 
Q 1350 1519 1213 1441 
Q 966 1303 859 1153 
Q 753 1003 753 825 
Q 753 600 887 451 
Q 1022 303 1197 303 
Q 1434 303 1822 616 
z
" transform="scale(0.015625)"/>
       <path id="TimesNewRomanPSMT-78" d="M 84 2863 
L 1431 2863 
L 1431 2747 
Q 1303 2747 1251 2703 
Q 1200 2659 1200 2588 
Q 1200 2513 1309 2356 
Q 1344 2306 1413 2200 
L 1616 1875 
L 1850 2200 
Q 2075 2509 2075 2591 
Q 2075 2656 2022 2701 
Q 1969 2747 1850 2747 
L 1850 2863 
L 2819 2863 
L 2819 2747 
Q 2666 2738 2553 2663 
Q 2400 2556 2134 2200 
L 1744 1678 
L 2456 653 
Q 2719 275 2831 198 
Q 2944 122 3122 113 
L 3122 0 
L 1772 0 
L 1772 113 
Q 1913 113 1991 175 
Q 2050 219 2050 291 
Q 2050 363 1850 653 
L 1431 1266 
L 972 653 
Q 759 369 759 316 
Q 759 241 829 180 
Q 900 119 1041 113 
L 1041 0 
L 106 0 
L 106 113 
Q 219 128 303 191 
Q 422 281 703 653 
L 1303 1450 
L 759 2238 
Q 528 2575 401 2661 
Q 275 2747 84 2747 
L 84 2863 
z
" transform="scale(0.015625)"/>
       <path id="TimesNewRomanPSMT-3d" d="M 116 2759 
L 3488 2759 
L 3488 2503 
L 116 2503 
L 116 2759 
z
M 116 1741 
L 3488 1741 
L 3488 1484 
L 116 1484 
L 116 1741 
z
" transform="scale(0.015625)"/>
      </defs>
      <use xlink:href="#Cmsy10-6a"/>
      <use xlink:href="#STIXGeneral-Regular-394" transform="translate(27.685547 0)"/>
      <use xlink:href="#Cmmi10-72" transform="translate(99.885529 0)"/>
      <use xlink:href="#Cmsy10-6a" transform="translate(145.002716 0)"/>
      <use xlink:href="#Cmmi10-3d" transform="translate(172.688263 0)"/>
      <use xlink:href="#Cmmi10-72" transform="translate(222.688263 0.5)"/>
      <use xlink:href="#TimesNewRomanPSMT-20" transform="translate(267.80545 0)"/>
      <use xlink:href="#TimesNewRomanPSMT-20" transform="translate(292.80545 0)"/>
      <use xlink:href="#TimesNewRomanPSMT-28" transform="translate(317.80545 0)"/>
      <use xlink:href="#TimesNewRomanPSMT-6d" transform="translate(351.106232 0)"/>
      <use xlink:href="#TimesNewRomanPSMT-61" transform="translate(428.889435 0)"/>
      <use xlink:href="#TimesNewRomanPSMT-78" transform="translate(473.2742 0)"/>
      <use xlink:href="#TimesNewRomanPSMT-3d" transform="translate(523.2742 0)"/>
      <use xlink:href="#TimesNewRomanPSMT-20" transform="translate(579.670685 0)"/>
      <use xlink:href="#TimesNewRomanPSMT-31" transform="translate(604.670685 0)"/>
      <use xlink:href="#TimesNewRomanPSMT-2f" transform="translate(654.670685 0)"/>
      <use xlink:href="#TimesNewRomanPSMT-35" transform="translate(682.453888 0)"/>
      <use xlink:href="#TimesNewRomanPSMT-35" transform="translate(732.453888 0)"/>
      <use xlink:href="#TimesNewRomanPSMT-29" transform="translate(782.453888 0)"/>
      <path d="M 222.688263 56.4375 
L 222.688263 62.6875 
L 267.80545 62.6875 
L 267.80545 56.4375 
L 222.688263 56.4375 
z
"/>
     </g>
    </g>
    <g id="line2d_172">
     <path d="M 490.722612 408.754447 
L 504.722612 408.754447 
L 518.722612 408.754447 
" style="fill: none; stroke: #008000; stroke-width: 2; stroke-linecap: square"/>
    </g>
    <g id="text_31">
     <!-- $Δθ$ [deg] -->
     <g transform="translate(529.922612 413.654447) scale(0.14 -0.14)">
      <defs>
       <path id="STIXGeneral-Italic-3b8" d="M 3162 3270 
Q 3162 2534 2925 1862 
Q 2688 1190 2304 678 
Q 1741 -70 992 -70 
Q 608 -70 390 224 
Q 173 518 173 1030 
Q 173 1997 592 2813 
Q 1011 3629 1594 4070 
Q 1952 4339 2374 4339 
Q 2733 4339 2947 4076 
Q 3162 3814 3162 3270 
z
M 941 2221 
L 2432 2221 
Q 2624 2874 2624 3533 
Q 2624 4205 2285 4205 
Q 2029 4205 1728 3814 
Q 1427 3424 1232 2992 
Q 1037 2560 941 2221 
z
M 2387 2016 
L 896 2016 
Q 710 1530 710 960 
Q 710 64 1069 64 
Q 1286 64 1510 275 
Q 1734 486 1904 806 
Q 2074 1126 2198 1440 
Q 2323 1754 2387 2016 
z
" transform="scale(0.015625)"/>
       <path id="TimesNewRomanPSMT-64" d="M 2222 322 
Q 2013 103 1813 7 
Q 1613 -88 1381 -88 
Q 913 -88 563 304 
Q 213 697 213 1313 
Q 213 1928 600 2439 
Q 988 2950 1597 2950 
Q 1975 2950 2222 2709 
L 2222 3238 
Q 2222 3728 2198 3840 
Q 2175 3953 2125 3993 
Q 2075 4034 2000 4034 
Q 1919 4034 1784 3984 
L 1744 4094 
L 2597 4444 
L 2738 4444 
L 2738 1134 
Q 2738 631 2761 520 
Q 2784 409 2836 365 
Q 2888 322 2956 322 
Q 3041 322 3181 375 
L 3216 266 
L 2366 -88 
L 2222 -88 
L 2222 322 
z
M 2222 541 
L 2222 2016 
Q 2203 2228 2109 2403 
Q 2016 2578 1861 2667 
Q 1706 2756 1559 2756 
Q 1284 2756 1069 2509 
Q 784 2184 784 1559 
Q 784 928 1059 592 
Q 1334 256 1672 256 
Q 1956 256 2222 541 
z
" transform="scale(0.015625)"/>
       <path id="TimesNewRomanPSMT-67" d="M 966 1044 
Q 703 1172 562 1401 
Q 422 1631 422 1909 
Q 422 2334 742 2640 
Q 1063 2947 1563 2947 
Q 1972 2947 2272 2747 
L 2878 2747 
Q 3013 2747 3034 2739 
Q 3056 2731 3066 2713 
Q 3084 2684 3084 2613 
Q 3084 2531 3069 2500 
Q 3059 2484 3036 2475 
Q 3013 2466 2878 2466 
L 2506 2466 
Q 2681 2241 2681 1891 
Q 2681 1491 2375 1206 
Q 2069 922 1553 922 
Q 1341 922 1119 984 
Q 981 866 932 777 
Q 884 688 884 625 
Q 884 572 936 522 
Q 988 472 1138 450 
Q 1225 438 1575 428 
Q 2219 413 2409 384 
Q 2700 344 2873 169 
Q 3047 -6 3047 -263 
Q 3047 -616 2716 -925 
Q 2228 -1381 1444 -1381 
Q 841 -1381 425 -1109 
Q 191 -953 191 -784 
Q 191 -709 225 -634 
Q 278 -519 444 -313 
Q 466 -284 763 25 
Q 600 122 533 198 
Q 466 275 466 372 
Q 466 481 555 628 
Q 644 775 966 1044 
z
M 1509 2797 
Q 1278 2797 1122 2612 
Q 966 2428 966 2047 
Q 966 1553 1178 1281 
Q 1341 1075 1591 1075 
Q 1828 1075 1981 1253 
Q 2134 1431 2134 1813 
Q 2134 2309 1919 2591 
Q 1759 2797 1509 2797 
z
M 934 0 
Q 788 -159 713 -296 
Q 638 -434 638 -550 
Q 638 -700 819 -813 
Q 1131 -1006 1722 -1006 
Q 2284 -1006 2551 -807 
Q 2819 -609 2819 -384 
Q 2819 -222 2659 -153 
Q 2497 -84 2016 -72 
Q 1313 -53 934 0 
z
" transform="scale(0.015625)"/>
      </defs>
      <use xlink:href="#STIXGeneral-Regular-394" transform="translate(0 0.5625)"/>
      <use xlink:href="#STIXGeneral-Italic-3b8" transform="translate(72.199982 0.5625)"/>
      <use xlink:href="#TimesNewRomanPSMT-20" transform="translate(120.199966 0.5625)"/>
      <use xlink:href="#TimesNewRomanPSMT-5b" transform="translate(145.199966 0.5625)"/>
      <use xlink:href="#TimesNewRomanPSMT-64" transform="translate(178.500748 0.5625)"/>
      <use xlink:href="#TimesNewRomanPSMT-65" transform="translate(228.500748 0.5625)"/>
      <use xlink:href="#TimesNewRomanPSMT-67" transform="translate(272.885513 0.5625)"/>
      <use xlink:href="#TimesNewRomanPSMT-5d" transform="translate(322.885513 0.5625)"/>
     </g>
    </g>
   </g>
  </g>
 </g>
 <defs>
  <clipPath id="p33bbb53686">
   <rect x="38.974688" y="24.8655" width="567.35585" height="361.268947"/>
  </clipPath>
  <clipPath id="pda37362347">
   <rect x="38.974688" y="397.554447" width="567.35585" height="361.268947"/>
  </clipPath>
 </defs>
</svg>
