<?xml version="1.0" encoding="utf-8" standalone="no"?>
<!DOCTYPE svg PUBLIC "-//W3C//DTD SVG 1.1//EN"
  "http://www.w3.org/Graphics/SVG/1.1/DTD/svg11.dtd">
<svg xmlns:xlink="http://www.w3.org/1999/xlink" width="620.412232pt" height="800.39952pt" viewBox="0 0 620.412232 800.39952" xmlns="http://www.w3.org/2000/svg" version="1.1">
 <metadata>
  <rdf:RDF xmlns:dc="http://purl.org/dc/elements/1.1/" xmlns:cc="http://creativecommons.org/ns#" xmlns:rdf="http://www.w3.org/1999/02/22-rdf-syntax-ns#">
   <cc:Work>
    <dc:type rdf:resource="http://purl.org/dc/dcmitype/StillImage"/>
    <dc:date>2025-05-15T15:56:12.669794</dc:date>
    <dc:format>image/svg+xml</dc:format>
    <dc:creator>
     <cc:Agent>
      <dc:title>Matplotlib v3.8.4, https://matplotlib.org/</dc:title>
     </cc:Agent>
    </dc:creator>
   </cc:Work>
  </rdf:RDF>
 </metadata>
 <defs>
  <style type="text/css">*{stroke-linejoin: round; stroke-linecap: butt}</style>
 </defs>
 <g id="figure_1">
  <g id="patch_1">
   <path d="M 0 800.39952 
L 620.412232 800.39952 
L 620.412232 0 
L 0 0 
z
" style="fill: #ffffff"/>
  </g>
  <g id="axes_1">
   <g id="patch_2">
    <path d="M 38.974688 386.134447 
L 606.330537 386.134447 
L 606.330537 24.8655 
L 38.974688 24.8655 
z
" style="fill: #ffffff"/>
   </g>
   <g id="matplotlib.axis_1">
    <g id="xtick_1">
     <g id="line2d_1">
      <path d="M 64.746378 386.134447 
L 64.746378 24.8655 
" clip-path="url(#p1de24f188d)" style="fill: none; stroke: #b0b0b0; stroke-width: 0.8; stroke-linecap: square"/>
     </g>
     <g id="line2d_2">
      <defs>
       <path id="md95a76cdcf" d="M 0 0 
L 0 3.5 
" style="stroke: #000000; stroke-width: 0.8"/>
      </defs>
      <g>
       <use xlink:href="#md95a76cdcf" x="64.746378" y="386.134447" style="stroke: #000000; stroke-width: 0.8"/>
      </g>
     </g>
    </g>
    <g id="xtick_2">
     <g id="line2d_3">
      <path d="M 150.71376 386.134447 
L 150.71376 24.8655 
" clip-path="url(#p1de24f188d)" style="fill: none; stroke: #b0b0b0; stroke-width: 0.8; stroke-linecap: square"/>
     </g>
     <g id="line2d_4">
      <g>
       <use xlink:href="#md95a76cdcf" x="150.71376" y="386.134447" style="stroke: #000000; stroke-width: 0.8"/>
      </g>
     </g>
    </g>
    <g id="xtick_3">
     <g id="line2d_5">
      <path d="M 236.681142 386.134447 
L 236.681142 24.8655 
" clip-path="url(#p1de24f188d)" style="fill: none; stroke: #b0b0b0; stroke-width: 0.8; stroke-linecap: square"/>
     </g>
     <g id="line2d_6">
      <g>
       <use xlink:href="#md95a76cdcf" x="236.681142" y="386.134447" style="stroke: #000000; stroke-width: 0.8"/>
      </g>
     </g>
    </g>
    <g id="xtick_4">
     <g id="line2d_7">
      <path d="M 322.648524 386.134447 
L 322.648524 24.8655 
" clip-path="url(#p1de24f188d)" style="fill: none; stroke: #b0b0b0; stroke-width: 0.8; stroke-linecap: square"/>
     </g>
     <g id="line2d_8">
      <g>
       <use xlink:href="#md95a76cdcf" x="322.648524" y="386.134447" style="stroke: #000000; stroke-width: 0.8"/>
      </g>
     </g>
    </g>
    <g id="xtick_5">
     <g id="line2d_9">
      <path d="M 408.615906 386.134447 
L 408.615906 24.8655 
" clip-path="url(#p1de24f188d)" style="fill: none; stroke: #b0b0b0; stroke-width: 0.8; stroke-linecap: square"/>
     </g>
     <g id="line2d_10">
      <g>
       <use xlink:href="#md95a76cdcf" x="408.615906" y="386.134447" style="stroke: #000000; stroke-width: 0.8"/>
      </g>
     </g>
    </g>
    <g id="xtick_6">
     <g id="line2d_11">
      <path d="M 494.583288 386.134447 
L 494.583288 24.8655 
" clip-path="url(#p1de24f188d)" style="fill: none; stroke: #b0b0b0; stroke-width: 0.8; stroke-linecap: square"/>
     </g>
     <g id="line2d_12">
      <g>
       <use xlink:href="#md95a76cdcf" x="494.583288" y="386.134447" style="stroke: #000000; stroke-width: 0.8"/>
      </g>
     </g>
    </g>
    <g id="xtick_7">
     <g id="line2d_13">
      <path d="M 580.55067 386.134447 
L 580.55067 24.8655 
" clip-path="url(#p1de24f188d)" style="fill: none; stroke: #b0b0b0; stroke-width: 0.8; stroke-linecap: square"/>
     </g>
     <g id="line2d_14">
      <g>
       <use xlink:href="#md95a76cdcf" x="580.55067" y="386.134447" style="stroke: #000000; stroke-width: 0.8"/>
      </g>
     </g>
    </g>
    <g id="xtick_8">
     <g id="line2d_15">
      <path d="M 107.730069 386.134447 
L 107.730069 24.8655 
" clip-path="url(#p1de24f188d)" style="fill: none; stroke-dasharray: 0.5,0.825; stroke-dashoffset: 0; stroke: #bfbfbf; stroke-width: 0.5"/>
     </g>
     <g id="line2d_16">
      <defs>
       <path id="mf4104e42bd" d="M 0 0 
L 0 2 
" style="stroke: #000000; stroke-width: 0.6"/>
      </defs>
      <g>
       <use xlink:href="#mf4104e42bd" x="107.730069" y="386.134447" style="stroke: #000000; stroke-width: 0.6"/>
      </g>
     </g>
    </g>
    <g id="xtick_9">
     <g id="line2d_17">
      <path d="M 193.697451 386.134447 
L 193.697451 24.8655 
" clip-path="url(#p1de24f188d)" style="fill: none; stroke-dasharray: 0.5,0.825; stroke-dashoffset: 0; stroke: #bfbfbf; stroke-width: 0.5"/>
     </g>
     <g id="line2d_18">
      <g>
       <use xlink:href="#mf4104e42bd" x="193.697451" y="386.134447" style="stroke: #000000; stroke-width: 0.6"/>
      </g>
     </g>
    </g>
    <g id="xtick_10">
     <g id="line2d_19">
      <path d="M 279.664833 386.134447 
L 279.664833 24.8655 
" clip-path="url(#p1de24f188d)" style="fill: none; stroke-dasharray: 0.5,0.825; stroke-dashoffset: 0; stroke: #bfbfbf; stroke-width: 0.5"/>
     </g>
     <g id="line2d_20">
      <g>
       <use xlink:href="#mf4104e42bd" x="279.664833" y="386.134447" style="stroke: #000000; stroke-width: 0.6"/>
      </g>
     </g>
    </g>
    <g id="xtick_11">
     <g id="line2d_21">
      <path d="M 365.632215 386.134447 
L 365.632215 24.8655 
" clip-path="url(#p1de24f188d)" style="fill: none; stroke-dasharray: 0.5,0.825; stroke-dashoffset: 0; stroke: #bfbfbf; stroke-width: 0.5"/>
     </g>
     <g id="line2d_22">
      <g>
       <use xlink:href="#mf4104e42bd" x="365.632215" y="386.134447" style="stroke: #000000; stroke-width: 0.6"/>
      </g>
     </g>
    </g>
    <g id="xtick_12">
     <g id="line2d_23">
      <path d="M 451.599597 386.134447 
L 451.599597 24.8655 
" clip-path="url(#p1de24f188d)" style="fill: none; stroke-dasharray: 0.5,0.825; stroke-dashoffset: 0; stroke: #bfbfbf; stroke-width: 0.5"/>
     </g>
     <g id="line2d_24">
      <g>
       <use xlink:href="#mf4104e42bd" x="451.599597" y="386.134447" style="stroke: #000000; stroke-width: 0.6"/>
      </g>
     </g>
    </g>
    <g id="xtick_13">
     <g id="line2d_25">
      <path d="M 537.566979 386.134447 
L 537.566979 24.8655 
" clip-path="url(#p1de24f188d)" style="fill: none; stroke-dasharray: 0.5,0.825; stroke-dashoffset: 0; stroke: #bfbfbf; stroke-width: 0.5"/>
     </g>
     <g id="line2d_26">
      <g>
       <use xlink:href="#mf4104e42bd" x="537.566979" y="386.134447" style="stroke: #000000; stroke-width: 0.6"/>
      </g>
     </g>
    </g>
   </g>
   <g id="matplotlib.axis_2">
    <g id="ytick_1">
     <g id="line2d_27">
      <path d="M 38.974688 350.441192 
L 606.330537 350.441192 
" clip-path="url(#p1de24f188d)" style="fill: none; stroke: #b0b0b0; stroke-width: 0.8; stroke-linecap: square"/>
     </g>
     <g id="line2d_28"/>
     <g id="text_1">
      <!-- −5 -->
      <g transform="translate(20.58 355.301817) scale(0.14 -0.14)">
       <defs>
        <path id="TimesNewRomanPSMT-2212" d="M 3484 2000 
L 116 2000 
L 116 2256 
L 3484 2256 
L 3484 2000 
z
" transform="scale(0.015625)"/>
        <path id="TimesNewRomanPSMT-35" d="M 2778 4238 
L 2534 3706 
L 1259 3706 
L 981 3138 
Q 1809 3016 2294 2522 
Q 2709 2097 2709 1522 
Q 2709 1188 2573 903 
Q 2438 619 2231 419 
Q 2025 219 1772 97 
Q 1413 -75 1034 -75 
Q 653 -75 479 54 
Q 306 184 306 341 
Q 306 428 378 495 
Q 450 563 559 563 
Q 641 563 702 538 
Q 763 513 909 409 
Q 1144 247 1384 247 
Q 1750 247 2026 523 
Q 2303 800 2303 1197 
Q 2303 1581 2056 1914 
Q 1809 2247 1375 2428 
Q 1034 2569 447 2591 
L 1259 4238 
L 2778 4238 
z
" transform="scale(0.015625)"/>
       </defs>
       <use xlink:href="#TimesNewRomanPSMT-2212"/>
       <use xlink:href="#TimesNewRomanPSMT-35" x="56.396484"/>
      </g>
     </g>
    </g>
    <g id="ytick_2">
     <g id="line2d_29">
      <path d="M 38.974688 270.56519 
L 606.330537 270.56519 
" clip-path="url(#p1de24f188d)" style="fill: none; stroke: #b0b0b0; stroke-width: 0.8; stroke-linecap: square"/>
     </g>
     <g id="line2d_30"/>
     <g id="text_2">
      <!-- 0 -->
      <g transform="translate(28.474688 275.425815) scale(0.14 -0.14)">
       <defs>
        <path id="TimesNewRomanPSMT-30" d="M 231 2094 
Q 231 2819 450 3342 
Q 669 3866 1031 4122 
Q 1313 4325 1613 4325 
Q 2100 4325 2488 3828 
Q 2972 3213 2972 2159 
Q 2972 1422 2759 906 
Q 2547 391 2217 158 
Q 1888 -75 1581 -75 
Q 975 -75 572 641 
Q 231 1244 231 2094 
z
M 844 2016 
Q 844 1141 1059 588 
Q 1238 122 1591 122 
Q 1759 122 1940 273 
Q 2122 425 2216 781 
Q 2359 1319 2359 2297 
Q 2359 3022 2209 3506 
Q 2097 3866 1919 4016 
Q 1791 4119 1609 4119 
Q 1397 4119 1231 3928 
Q 1006 3669 925 3112 
Q 844 2556 844 2016 
z
" transform="scale(0.015625)"/>
       </defs>
       <use xlink:href="#TimesNewRomanPSMT-30"/>
      </g>
     </g>
    </g>
    <g id="ytick_3">
     <g id="line2d_31">
      <path d="M 38.974688 190.689188 
L 606.330537 190.689188 
" clip-path="url(#p1de24f188d)" style="fill: none; stroke: #b0b0b0; stroke-width: 0.8; stroke-linecap: square"/>
     </g>
     <g id="line2d_32"/>
     <g id="text_3">
      <!-- 5 -->
      <g transform="translate(28.474688 195.549813) scale(0.14 -0.14)">
       <use xlink:href="#TimesNewRomanPSMT-35"/>
      </g>
     </g>
    </g>
    <g id="ytick_4">
     <g id="line2d_33">
      <path d="M 38.974688 110.813186 
L 606.330537 110.813186 
" clip-path="url(#p1de24f188d)" style="fill: none; stroke: #b0b0b0; stroke-width: 0.8; stroke-linecap: square"/>
     </g>
     <g id="line2d_34"/>
     <g id="text_4">
      <!-- 10 -->
      <g transform="translate(21.474688 115.673811) scale(0.14 -0.14)">
       <defs>
        <path id="TimesNewRomanPSMT-31" d="M 750 3822 
L 1781 4325 
L 1884 4325 
L 1884 747 
Q 1884 391 1914 303 
Q 1944 216 2037 169 
Q 2131 122 2419 116 
L 2419 0 
L 825 0 
L 825 116 
Q 1125 122 1212 167 
Q 1300 213 1334 289 
Q 1369 366 1369 747 
L 1369 3034 
Q 1369 3497 1338 3628 
Q 1316 3728 1258 3775 
Q 1200 3822 1119 3822 
Q 1003 3822 797 3725 
L 750 3822 
z
" transform="scale(0.015625)"/>
       </defs>
       <use xlink:href="#TimesNewRomanPSMT-31"/>
       <use xlink:href="#TimesNewRomanPSMT-30" x="50"/>
      </g>
     </g>
    </g>
    <g id="ytick_5">
     <g id="line2d_35">
      <path d="M 38.974688 30.937184 
L 606.330537 30.937184 
" clip-path="url(#p1de24f188d)" style="fill: none; stroke: #b0b0b0; stroke-width: 0.8; stroke-linecap: square"/>
     </g>
     <g id="line2d_36"/>
     <g id="text_5">
      <!-- 15 -->
      <g transform="translate(21.474688 35.797809) scale(0.14 -0.14)">
       <use xlink:href="#TimesNewRomanPSMT-31"/>
       <use xlink:href="#TimesNewRomanPSMT-35" x="50"/>
      </g>
     </g>
    </g>
    <g id="ytick_6">
     <g id="line2d_37">
      <path d="M 38.974688 382.391593 
L 606.330537 382.391593 
" clip-path="url(#p1de24f188d)" style="fill: none; stroke-dasharray: 0.5,0.825; stroke-dashoffset: 0; stroke: #bfbfbf; stroke-width: 0.5"/>
     </g>
     <g id="line2d_38"/>
    </g>
    <g id="ytick_7">
     <g id="line2d_39">
      <path d="M 38.974688 366.416392 
L 606.330537 366.416392 
" clip-path="url(#p1de24f188d)" style="fill: none; stroke-dasharray: 0.5,0.825; stroke-dashoffset: 0; stroke: #bfbfbf; stroke-width: 0.5"/>
     </g>
     <g id="line2d_40"/>
    </g>
    <g id="ytick_8">
     <g id="line2d_41">
      <path d="M 38.974688 334.465992 
L 606.330537 334.465992 
" clip-path="url(#p1de24f188d)" style="fill: none; stroke-dasharray: 0.5,0.825; stroke-dashoffset: 0; stroke: #bfbfbf; stroke-width: 0.5"/>
     </g>
     <g id="line2d_42"/>
    </g>
    <g id="ytick_9">
     <g id="line2d_43">
      <path d="M 38.974688 318.490791 
L 606.330537 318.490791 
" clip-path="url(#p1de24f188d)" style="fill: none; stroke-dasharray: 0.5,0.825; stroke-dashoffset: 0; stroke: #bfbfbf; stroke-width: 0.5"/>
     </g>
     <g id="line2d_44"/>
    </g>
    <g id="ytick_10">
     <g id="line2d_45">
      <path d="M 38.974688 302.515591 
L 606.330537 302.515591 
" clip-path="url(#p1de24f188d)" style="fill: none; stroke-dasharray: 0.5,0.825; stroke-dashoffset: 0; stroke: #bfbfbf; stroke-width: 0.5"/>
     </g>
     <g id="line2d_46"/>
    </g>
    <g id="ytick_11">
     <g id="line2d_47">
      <path d="M 38.974688 286.54039 
L 606.330537 286.54039 
" clip-path="url(#p1de24f188d)" style="fill: none; stroke-dasharray: 0.5,0.825; stroke-dashoffset: 0; stroke: #bfbfbf; stroke-width: 0.5"/>
     </g>
     <g id="line2d_48"/>
    </g>
    <g id="ytick_12">
     <g id="line2d_49">
      <path d="M 38.974688 254.58999 
L 606.330537 254.58999 
" clip-path="url(#p1de24f188d)" style="fill: none; stroke-dasharray: 0.5,0.825; stroke-dashoffset: 0; stroke: #bfbfbf; stroke-width: 0.5"/>
     </g>
     <g id="line2d_50"/>
    </g>
    <g id="ytick_13">
     <g id="line2d_51">
      <path d="M 38.974688 238.614789 
L 606.330537 238.614789 
" clip-path="url(#p1de24f188d)" style="fill: none; stroke-dasharray: 0.5,0.825; stroke-dashoffset: 0; stroke: #bfbfbf; stroke-width: 0.5"/>
     </g>
     <g id="line2d_52"/>
    </g>
    <g id="ytick_14">
     <g id="line2d_53">
      <path d="M 38.974688 222.639589 
L 606.330537 222.639589 
" clip-path="url(#p1de24f188d)" style="fill: none; stroke-dasharray: 0.5,0.825; stroke-dashoffset: 0; stroke: #bfbfbf; stroke-width: 0.5"/>
     </g>
     <g id="line2d_54"/>
    </g>
    <g id="ytick_15">
     <g id="line2d_55">
      <path d="M 38.974688 206.664388 
L 606.330537 206.664388 
" clip-path="url(#p1de24f188d)" style="fill: none; stroke-dasharray: 0.5,0.825; stroke-dashoffset: 0; stroke: #bfbfbf; stroke-width: 0.5"/>
     </g>
     <g id="line2d_56"/>
    </g>
    <g id="ytick_16">
     <g id="line2d_57">
      <path d="M 38.974688 174.713988 
L 606.330537 174.713988 
" clip-path="url(#p1de24f188d)" style="fill: none; stroke-dasharray: 0.5,0.825; stroke-dashoffset: 0; stroke: #bfbfbf; stroke-width: 0.5"/>
     </g>
     <g id="line2d_58"/>
    </g>
    <g id="ytick_17">
     <g id="line2d_59">
      <path d="M 38.974688 158.738787 
L 606.330537 158.738787 
" clip-path="url(#p1de24f188d)" style="fill: none; stroke-dasharray: 0.5,0.825; stroke-dashoffset: 0; stroke: #bfbfbf; stroke-width: 0.5"/>
     </g>
     <g id="line2d_60"/>
    </g>
    <g id="ytick_18">
     <g id="line2d_61">
      <path d="M 38.974688 142.763587 
L 606.330537 142.763587 
" clip-path="url(#p1de24f188d)" style="fill: none; stroke-dasharray: 0.5,0.825; stroke-dashoffset: 0; stroke: #bfbfbf; stroke-width: 0.5"/>
     </g>
     <g id="line2d_62"/>
    </g>
    <g id="ytick_19">
     <g id="line2d_63">
      <path d="M 38.974688 126.788386 
L 606.330537 126.788386 
" clip-path="url(#p1de24f188d)" style="fill: none; stroke-dasharray: 0.5,0.825; stroke-dashoffset: 0; stroke: #bfbfbf; stroke-width: 0.5"/>
     </g>
     <g id="line2d_64"/>
    </g>
    <g id="ytick_20">
     <g id="line2d_65">
      <path d="M 38.974688 94.837986 
L 606.330537 94.837986 
" clip-path="url(#p1de24f188d)" style="fill: none; stroke-dasharray: 0.5,0.825; stroke-dashoffset: 0; stroke: #bfbfbf; stroke-width: 0.5"/>
     </g>
     <g id="line2d_66"/>
    </g>
    <g id="ytick_21">
     <g id="line2d_67">
      <path d="M 38.974688 78.862785 
L 606.330537 78.862785 
" clip-path="url(#p1de24f188d)" style="fill: none; stroke-dasharray: 0.5,0.825; stroke-dashoffset: 0; stroke: #bfbfbf; stroke-width: 0.5"/>
     </g>
     <g id="line2d_68"/>
    </g>
    <g id="ytick_22">
     <g id="line2d_69">
      <path d="M 38.974688 62.887585 
L 606.330537 62.887585 
" clip-path="url(#p1de24f188d)" style="fill: none; stroke-dasharray: 0.5,0.825; stroke-dashoffset: 0; stroke: #bfbfbf; stroke-width: 0.5"/>
     </g>
     <g id="line2d_70"/>
    </g>
    <g id="ytick_23">
     <g id="line2d_71">
      <path d="M 38.974688 46.912384 
L 606.330537 46.912384 
" clip-path="url(#p1de24f188d)" style="fill: none; stroke-dasharray: 0.5,0.825; stroke-dashoffset: 0; stroke: #bfbfbf; stroke-width: 0.5"/>
     </g>
     <g id="line2d_72"/>
    </g>
    <g id="text_6">
     <!-- $R_E$ -->
     <g transform="translate(7.2 202.505286) scale(0.14 -0.14)">
      <defs>
       <path id="Cmmi10-52" d="M 313 0 
Q 250 0 250 84 
Q 253 100 262 139 
Q 272 178 289 201 
Q 306 225 331 225 
Q 722 225 878 269 
Q 959 297 997 441 
L 1875 3956 
Q 1888 4019 1888 4044 
Q 1888 4113 1813 4122 
Q 1691 4147 1350 4147 
Q 1288 4147 1288 4231 
Q 1291 4247 1300 4286 
Q 1309 4325 1326 4348 
Q 1344 4372 1369 4372 
L 3309 4372 
Q 3541 4372 3791 4319 
Q 4041 4266 4250 4152 
Q 4459 4038 4593 3848 
Q 4728 3659 4728 3406 
Q 4728 3084 4515 2831 
Q 4303 2578 3978 2408 
Q 3653 2238 3347 2169 
Q 3597 2078 3756 1879 
Q 3916 1681 3916 1422 
Q 3916 1388 3914 1370 
Q 3913 1353 3909 1331 
L 3859 763 
Q 3853 638 3847 550 
Q 3841 463 3841 409 
Q 3841 234 3892 129 
Q 3944 25 4097 25 
Q 4297 25 4448 211 
Q 4600 397 4647 616 
Q 4675 672 4709 672 
L 4769 672 
Q 4831 672 4831 588 
Q 4784 403 4682 237 
Q 4581 72 4426 -34 
Q 4272 -141 4091 -141 
Q 3716 -141 3452 26 
Q 3188 194 3188 550 
Q 3188 684 3213 788 
L 3353 1356 
Q 3378 1434 3378 1538 
Q 3378 1803 3198 1954 
Q 3019 2106 2747 2106 
L 1959 2106 
L 1538 416 
Q 1522 363 1522 325 
Q 1522 259 1600 250 
Q 1722 225 2059 225 
Q 2125 225 2125 141 
Q 2103 50 2090 25 
Q 2078 0 2016 0 
L 313 0 
z
M 1997 2272 
L 2706 2272 
Q 3403 2272 3756 2625 
Q 3919 2788 4014 3039 
Q 4109 3291 4109 3541 
Q 4109 3778 3970 3912 
Q 3831 4047 3626 4097 
Q 3422 4147 3175 4147 
L 2747 4147 
Q 2572 4147 2515 4117 
Q 2459 4088 2413 3928 
L 1997 2272 
z
" transform="scale(0.015625)"/>
       <path id="Cmmi10-45" d="M 300 0 
Q 238 0 238 84 
Q 241 100 250 139 
Q 259 178 276 201 
Q 294 225 319 225 
Q 709 225 863 269 
Q 947 297 984 441 
L 1863 3956 
Q 1875 4019 1875 4044 
Q 1875 4113 1797 4122 
Q 1678 4147 1338 4147 
Q 1275 4147 1275 4231 
Q 1278 4247 1287 4286 
Q 1297 4325 1314 4348 
Q 1331 4372 1356 4372 
L 4825 4372 
Q 4891 4372 4891 4288 
L 4738 2963 
Q 4738 2947 4714 2926 
Q 4691 2906 4672 2906 
L 4616 2906 
Q 4550 2906 4550 2988 
Q 4588 3300 4588 3450 
Q 4588 3706 4500 3848 
Q 4413 3991 4267 4053 
Q 4122 4116 3945 4131 
Q 3769 4147 3481 4147 
L 2753 4147 
Q 2578 4147 2522 4117 
Q 2466 4088 2419 3928 
L 2034 2381 
L 2534 2381 
Q 2859 2381 3025 2426 
Q 3191 2472 3287 2615 
Q 3384 2759 3463 3072 
Q 3469 3094 3486 3111 
Q 3503 3128 3525 3128 
L 3584 3128 
Q 3647 3128 3647 3047 
L 3250 1466 
Q 3238 1409 3188 1409 
L 3128 1409 
Q 3066 1409 3066 1491 
Q 3128 1747 3128 1869 
Q 3128 2056 2959 2106 
Q 2791 2156 2509 2156 
L 1978 2156 
L 1544 416 
Q 1516 338 1516 275 
Q 1516 225 1734 225 
L 2509 225 
Q 2972 225 3259 297 
Q 3547 369 3736 526 
Q 3925 684 4062 928 
Q 4200 1172 4397 1638 
Q 4409 1678 4453 1678 
L 4513 1678 
Q 4538 1678 4556 1656 
Q 4575 1634 4575 1606 
Q 4575 1594 4569 1581 
L 3909 38 
Q 3897 0 3859 0 
L 300 0 
z
" transform="scale(0.015625)"/>
      </defs>
      <use xlink:href="#Cmmi10-52" transform="translate(0 0.6875)"/>
      <use xlink:href="#Cmmi10-45" transform="translate(75.878906 -16.31875) scale(0.7)"/>
     </g>
    </g>
   </g>
   <g id="line2d_73">
    <path d="M 64.76359 351.291824 
L 75.754108 354.752292 
L 86.108345 357.773663 
L 96.088652 360.453329 
L 105.804522 362.82891 
L 114.886176 364.828906 
L 123.736447 366.55946 
L 132.615644 368.064942 
L 140.974238 369.256227 
L 148.985774 370.178594 
L 156.794852 370.855727 
L 164.285776 371.284252 
L 171.632098 371.478075 
L 178.472268 371.441649 
L 184.878608 371.202385 
L 191.241553 370.752846 
L 197.402058 370.099407 
L 203.360096 369.24616 
L 209.057832 368.207918 
L 214.668803 366.953872 
L 220.145429 365.48736 
L 225.206255 363.898825 
L 229.993742 362.167137 
L 234.531511 360.29871 
L 238.937211 358.251684 
L 243.078505 356.094946 
L 247.234521 353.678493 
L 250.99408 351.24949 
L 254.770112 348.549691 
L 258.557151 345.545775 
L 261.964192 342.556542 
L 265.37128 339.256266 
L 268.440602 335.979071 
L 271.539235 332.333139 
L 274.287526 328.771842 
L 277.032526 324.857892 
L 279.762841 320.549679 
L 282.140863 316.400032 
L 284.548242 311.754964 
L 286.940936 306.609468 
L 289.010695 301.654167 
L 291.079613 296.15135 
L 293.191897 289.881641 
L 295.393001 282.585825 
L 297.932342 273.312733 
L 301.940606 258.615777 
L 303.52658 253.672064 
L 305.112632 249.507371 
L 306.493167 246.501254 
L 307.903095 243.964607 
L 309.3571 241.831379 
L 310.811109 240.106521 
L 312.294486 238.694472 
L 313.795725 237.559499 
L 315.30875 236.663983 
L 317.218388 235.828529 
L 319.123615 235.259781 
L 321.076819 234.9009 
L 323.45593 234.71407 
L 325.820343 234.749243 
L 328.610623 235.018563 
L 331.826782 235.573759 
L 335.454135 236.447859 
L 339.566098 237.686172 
L 344.089255 239.281734 
L 349.478855 241.425033 
L 355.984532 244.270964 
L 363.665065 247.888628 
L 373.474985 252.779545 
L 385.722703 259.139513 
L 406.664273 270.288212 
L 436.431879 286.08065 
L 454.025177 295.164422 
L 470.404962 303.370826 
L 485.481682 310.671242 
L 499.59454 317.257909 
L 513.046552 323.293275 
L 526.102064 328.906275 
L 538.716999 334.085298 
L 550.685774 338.762246 
L 562.478324 343.130729 
L 573.815616 347.092571 
L 580.541635 349.326995 
L 580.541635 349.326995 
" clip-path="url(#p1de24f188d)" style="fill: none; stroke: #ff0000; stroke-width: 2; stroke-linecap: square"/>
   </g>
   <g id="line2d_74">
    <path d="M 64.925476 351.36787 
L 75.671399 354.753489 
L 86.059124 357.788779 
L 96.088652 360.484484 
L 105.759983 362.85183 
L 115.073116 364.90254 
L 124.028051 366.648859 
L 132.62479 368.103598 
L 140.86333 369.28018 
L 149.101871 370.228993 
L 156.982215 370.908023 
L 164.504361 371.332147 
L 171.668309 371.517124 
L 178.47406 371.479677 
L 185.279811 371.217913 
L 191.727365 370.745939 
L 197.816721 370.083065 
L 203.906077 369.190783 
L 209.637236 368.122508 
L 215.010197 366.901108 
L 220.383159 365.446594 
L 225.397923 363.85812 
L 230.054489 362.163434 
L 234.711056 360.235477 
L 239.009425 358.227064 
L 243.307794 355.974876 
L 247.247966 353.672209 
L 251.188137 351.114929 
L 254.770112 348.542763 
L 258.352086 345.705459 
L 261.93406 342.568008 
L 265.157837 339.452096 
L 268.381614 336.018921 
L 271.247193 332.661547 
L 274.112773 328.971922 
L 278.052944 323.476405 
L 280.560326 319.392245 
L 283.067708 314.87454 
L 285.57509 309.841243 
L 287.724275 305.038154 
L 289.873459 299.699348 
L 292.022644 293.733208 
L 294.171828 287.053714 
L 296.321013 279.634211 
L 299.902987 266.21575 
L 302.052172 258.542859 
L 303.843159 253.025777 
L 305.275949 249.327638 
L 306.708738 246.249591 
L 308.141528 243.722476 
L 309.574318 241.66351 
L 311.007107 239.994609 
L 312.439897 238.648892 
L 313.872687 237.571453 
L 315.663674 236.535257 
L 317.454661 235.781687 
L 319.245648 235.258792 
L 321.394833 234.879967 
L 323.544017 234.722895 
L 326.051399 234.76678 
L 328.916979 235.058402 
L 332.140756 235.631423 
L 335.72273 236.507774 
L 339.662901 237.699664 
L 344.319468 239.346014 
L 349.692429 241.488514 
L 356.139983 244.312638 
L 363.662129 247.855833 
L 373.333459 252.674147 
L 386.228567 259.372062 
L 408.795005 271.395588 
L 436.734404 286.212504 
L 454.644275 295.458078 
L 470.763159 303.53129 
L 485.807451 310.815421 
L 499.777151 317.336129 
L 513.388653 323.443522 
L 526.28376 328.987974 
L 538.82067 334.137398 
L 550.999382 338.897328 
L 562.819897 343.274437 
L 573.924018 347.154972 
L 580.371571 349.299969 
L 580.371571 349.299969 
" clip-path="url(#p1de24f188d)" style="fill: none; stroke-dasharray: 11.1,4.8; stroke-dashoffset: 0; stroke: #ff0000; stroke-width: 3"/>
   </g>
   <g id="line2d_75">
    <path d="M 64.76359 98.174447 
L 72.355723 100.128967 
L 79.528483 102.206806 
L 86.614485 104.480918 
L 93.859552 107.034442 
L 101.090164 109.814528 
L 108.335238 112.833944 
L 115.869536 116.225293 
L 123.317074 119.831819 
L 130.663375 123.641261 
L 137.879535 127.630519 
L 145.182462 131.922285 
L 152.630009 136.568976 
L 159.889558 141.366343 
L 167.163568 146.446392 
L 174.23512 151.654651 
L 181.480207 157.275892 
L 188.479453 162.989765 
L 195.334091 168.866018 
L 202.449029 175.271286 
L 209.130135 181.582495 
L 215.84017 188.223536 
L 222.56306 195.197214 
L 229.185988 202.397456 
L 235.50082 209.585073 
L 241.933028 217.2489 
L 248.277188 225.166586 
L 254.342395 233.088096 
L 260.378168 241.329047 
L 266.428629 249.957768 
L 272.819613 259.460425 
L 280.893134 271.892412 
L 287.395986 281.776197 
L 290.361049 285.87107 
L 292.370344 288.275279 
L 293.734735 289.621743 
L 294.893995 290.512629 
L 296.068128 291.093987 
L 297.00751 291.279058 
L 297.653424 291.228549 
L 298.328724 291.009413 
L 299.048089 290.573239 
L 299.811543 289.870197 
L 300.589724 288.896278 
L 301.397307 287.613079 
L 302.645452 285.150819 
L 303.981824 282.003055 
L 306.023186 276.559931 
L 315.367506 250.805903 
L 318.922147 242.016449 
L 322.530724 233.728621 
L 326.231536 225.823578 
L 329.947016 218.420552 
L 333.618434 211.569393 
L 337.730403 204.380153 
L 341.827674 197.6675 
L 346.233339 190.89765 
L 350.639008 184.543294 
L 355.103408 178.486259 
L 359.832147 172.451496 
L 364.678367 166.636798 
L 369.421792 161.278247 
L 374.547028 155.829174 
L 379.67227 150.707383 
L 384.724088 145.956859 
L 389.937446 141.343406 
L 395.429834 136.780876 
L 400.878173 132.538726 
L 406.385249 128.521536 
L 412.083241 124.636084 
L 417.986837 120.88617 
L 423.728885 117.49503 
L 429.632473 114.259361 
L 435.800403 111.138959 
L 441.997703 108.260129 
L 448.077521 105.675846 
L 454.274834 103.27703 
L 460.413397 101.127606 
L 467.051278 99.048818 
L 473.454191 97.277884 
L 479.930531 95.713649 
L 486.480301 94.357848 
L 493.015396 93.226509 
L 499.844197 92.274882 
L 506.731739 91.548941 
L 513.560545 91.055981 
L 520.433414 90.784634 
L 527.232852 90.733832 
L 534.135094 90.901031 
L 540.978583 91.281915 
L 548.11579 91.904613 
L 555.01803 92.724048 
L 562.272723 93.814021 
L 569.395248 95.110554 
L 576.723368 96.678219 
L 580.541635 97.588716 
L 580.541635 97.588716 
" clip-path="url(#p1de24f188d)" style="fill: none; stroke: #008000; stroke-width: 2; stroke-linecap: square"/>
   </g>
   <g id="line2d_76">
    <path d="M 64.925476 98.219343 
L 72.089425 100.06293 
L 79.253373 102.130885 
L 86.417322 104.423702 
L 93.58127 106.942295 
L 100.745219 109.688009 
L 107.909167 112.662643 
L 115.073116 115.868444 
L 122.237064 119.308172 
L 129.401013 122.985107 
L 136.564961 126.903091 
L 143.72891 131.06658 
L 150.892858 135.480698 
L 158.056807 140.151301 
L 165.220755 145.085064 
L 172.384704 150.289575 
L 179.548652 155.773429 
L 186.712601 161.546398 
L 193.518352 167.308587 
L 200.324103 173.352463 
L 207.129854 179.690173 
L 213.935605 186.335492 
L 220.741356 193.303979 
L 227.18891 200.219739 
L 233.636464 207.458182 
L 240.084017 215.038003 
L 246.173373 222.528576 
L 252.26273 230.359907 
L 258.352086 238.549365 
L 264.441442 247.109779 
L 270.888996 256.576118 
L 281.634919 272.896903 
L 287.366077 281.590937 
L 290.231657 285.574336 
L 292.380841 288.1744 
L 293.813631 289.598784 
L 294.888223 290.434453 
L 295.962816 291.009886 
L 296.67921 291.217375 
L 297.395605 291.260294 
L 298.112 291.118675 
L 298.828395 290.774748 
L 299.54479 290.215199 
L 300.261185 289.433375 
L 301.335777 287.850168 
L 302.410369 285.815527 
L 303.843159 282.536973 
L 305.634146 277.83776 
L 310.290713 264.671912 
L 314.230884 253.929587 
L 317.812859 244.846633 
L 321.394833 236.412857 
L 324.976807 228.567364 
L 328.558781 221.243144 
L 332.498953 213.716766 
L 336.439125 206.6803 
L 340.379296 200.07771 
L 344.677665 193.315644 
L 348.976035 186.965653 
L 353.632601 180.504457 
L 358.289168 174.436284 
L 362.945734 168.725516 
L 367.960498 162.940864 
L 372.975262 157.504383 
L 377.990026 152.389239 
L 383.362987 147.239293 
L 388.735949 142.407617 
L 394.10891 137.873247 
L 399.481871 133.617975 
L 405.21303 129.368731 
L 410.944189 125.401938 
L 416.675348 121.702692 
L 422.406507 118.257813 
L 428.495863 114.863267 
L 434.585219 111.730185 
L 440.674575 108.84747 
L 446.763932 106.205227 
L 452.853288 103.794566 
L 459.300842 101.485697 
L 465.748395 99.419061 
L 472.195949 97.587065 
L 478.643502 95.982902 
L 485.091056 94.600433 
L 491.896807 93.375644 
L 498.702558 92.385996 
L 505.508309 91.626349 
L 512.31406 91.092151 
L 519.119812 90.779379 
L 525.925563 90.68449 
L 532.731314 90.804391 
L 539.895262 91.159745 
L 547.059211 91.747552 
L 554.223159 92.565651 
L 561.387108 93.612351 
L 568.551056 94.886389 
L 575.715005 96.386923 
L 580.371571 97.48351 
L 580.371571 97.48351 
" clip-path="url(#p1de24f188d)" style="fill: none; stroke-dasharray: 11.1,4.8; stroke-dashoffset: 0; stroke: #008000; stroke-width: 3"/>
   </g>
   <g id="line2d_77">
    <path d="M 64.76359 274.054424 
L 174.885876 263.054534 
L 198.399875 261.020792 
L 216.418617 259.683463 
L 230.639853 258.831466 
L 242.740727 258.328034 
L 252.492015 258.141382 
L 260.510311 258.199845 
L 267.486001 258.474073 
L 273.157233 258.915276 
L 278.016024 259.514937 
L 281.935352 260.20836 
L 285.282192 261.006713 
L 288.350133 261.968818 
L 290.844961 262.971598 
L 293.07451 264.088747 
L 295.040773 265.293317 
L 297.110268 266.81856 
L 299.444494 268.852218 
L 306.52254 275.25503 
L 308.872421 276.91538 
L 311.516076 278.478593 
L 314.265793 279.831533 
L 317.482799 281.141423 
L 321.120872 282.354649 
L 325.203524 283.462062 
L 329.682674 284.444071 
L 334.998889 285.369715 
L 340.71157 286.143362 
L 347.187913 286.807393 
L 354.985927 287.375508 
L 363.488839 287.771567 
L 373.269385 288.003813 
L 384.004497 288.043022 
L 396.090684 287.874835 
L 409.777612 287.469369 
L 425.858287 286.76289 
L 443.510317 285.761709 
L 464.158222 284.35631 
L 486.906185 282.58001 
L 511.739532 280.431917 
L 542.579313 277.541073 
L 580.541635 273.758662 
L 580.541635 273.758662 
" clip-path="url(#p1de24f188d)" style="fill: none; stroke: #0000ff; stroke-width: 2; stroke-linecap: square"/>
   </g>
   <g id="line2d_78">
    <path d="M 64.925476 274.034436 
L 175.966678 262.930669 
L 198.533116 260.982179 
L 216.442987 259.653051 
L 230.770884 258.80629 
L 242.591399 258.324902 
L 252.26273 258.144467 
L 260.50127 258.209582 
L 267.307022 258.480787 
L 273.03818 258.926756 
L 276.978352 259.429836 
L 281.276721 260.131779 
L 284.858695 260.93868 
L 287.724275 261.785085 
L 290.231657 262.723589 
L 292.739039 263.907357 
L 294.888223 265.173067 
L 297.037408 266.717613 
L 299.186592 268.545823 
L 306.708738 275.279806 
L 309.21612 277.010548 
L 311.723502 278.458566 
L 314.589082 279.837301 
L 317.812859 281.117571 
L 321.394833 282.285869 
L 325.335004 283.337539 
L 329.991571 284.342045 
L 335.364532 285.258283 
L 341.453889 286.058567 
L 348.25964 286.724809 
L 356.139983 287.265487 
L 365.094919 287.64811 
L 375.124447 287.849821 
L 386.586764 287.851796 
L 399.481871 287.625975 
L 414.167966 287.138134 
L 430.645047 286.361005 
L 449.271314 285.252692 
L 470.404962 283.764132 
L 494.404189 281.843261 
L 521.985391 279.406994 
L 555.297751 276.232099 
L 580.371571 273.73138 
L 580.371571 273.73138 
" clip-path="url(#p1de24f188d)" style="fill: none; stroke-dasharray: 11.1,4.8; stroke-dashoffset: 0; stroke: #0000ff; stroke-width: 3"/>
   </g>
   <g id="line2d_79">
    <path d="M 64.76359 80.177343 
L 72.717253 80.951381 
L 80.309392 81.923974 
L 87.829225 83.11473 
L 95.103219 84.484802 
L 102.594128 86.122177 
L 110.14289 88.009108 
L 117.518119 90.08621 
L 124.734272 92.346337 
L 131.863657 94.805412 
L 138.833979 97.432792 
L 146.093527 100.40931 
L 153.136147 103.538665 
L 160.207706 106.928099 
L 167.221414 110.543368 
L 173.88805 114.222731 
L 180.80053 118.298659 
L 187.597316 122.576668 
L 194.235036 127.025709 
L 200.930604 131.800302 
L 207.163404 136.51749 
L 213.555285 141.645206 
L 219.452556 146.65232 
L 225.411754 151.997492 
L 231.462286 157.742251 
L 236.925267 163.225512 
L 242.608606 169.252561 
L 248.17444 175.502489 
L 253.373129 181.678796 
L 258.601185 188.253201 
L 263.359344 194.584206 
L 267.779722 200.792929 
L 272.496673 207.798165 
L 277.032526 214.935781 
L 281.935352 223.117299 
L 286.441845 231.035817 
L 293.998877 244.354574 
L 295.921334 247.236759 
L 297.53598 249.1812 
L 298.563584 250.080386 
L 299.40044 250.574796 
L 300.261185 250.822872 
L 300.8687 250.846893 
L 301.74972 250.631202 
L 302.439894 250.272139 
L 303.174134 249.72369 
L 304.040553 248.879905 
L 305.303556 247.325389 
L 306.58128 245.47485 
L 308.857923 241.730824 
L 311.545452 236.98029 
L 319.916639 222.157447 
L 324.072723 215.238263 
L 328.698744 207.945583 
L 333.42752 200.914999 
L 338.112223 194.339149 
L 342.899727 187.982627 
L 348.289326 181.227126 
L 353.70828 174.821881 
L 359.244722 168.642355 
L 364.737106 162.844874 
L 370.655366 156.939564 
L 376.573629 151.360936 
L 382.756227 145.857262 
L 388.938832 140.661857 
L 395.121433 135.755323 
L 401.36279 131.077766 
L 407.985975 126.400114 
L 414.418243 122.124479 
L 420.923945 118.055044 
L 427.5765 114.147027 
L 434.508075 110.335585 
L 441.322165 106.838103 
L 448.062836 103.612818 
L 455.067849 100.499244 
L 462.351894 97.511684 
L 469.650626 94.765651 
L 476.743757 92.32856 
L 483.983753 90.0703 
L 491.238434 88.034917 
L 498.772144 86.157801 
L 506.423343 84.493458 
L 513.88363 83.101608 
L 521.534833 81.908202 
L 528.791142 80.993018 
L 536.45541 80.253291 
L 543.959759 79.753207 
L 551.610963 79.471045 
L 559.129999 79.416682 
L 566.766517 79.587857 
L 574.432418 79.989365 
L 580.541635 80.474473 
L 580.541635 80.474473 
" clip-path="url(#p1de24f188d)" style="fill: none; stroke: #000000; stroke-width: 2; stroke-linecap: square"/>
   </g>
   <g id="patch_3">
    <path d="M 38.974687 386.134447 
L 606.330537 386.134447 
" style="fill: none; stroke: #000000; stroke-width: 0.8; stroke-linejoin: miter; stroke-linecap: square"/>
   </g>
   <g id="text_7">
    <!-- MMS-2 GSE -->
    <g transform="translate(278.077487 18.8655) scale(0.168 -0.168)">
     <defs>
      <path id="TimesNewRomanPSMT-4d" d="M 2619 0 
L 981 3566 
L 981 734 
Q 981 344 1066 247 
Q 1181 116 1431 116 
L 1581 116 
L 1581 0 
L 106 0 
L 106 116 
L 256 116 
Q 525 116 638 278 
Q 706 378 706 734 
L 706 3503 
Q 706 3784 644 3909 
Q 600 4000 483 4061 
Q 366 4122 106 4122 
L 106 4238 
L 1306 4238 
L 2844 922 
L 4356 4238 
L 5556 4238 
L 5556 4122 
L 5409 4122 
Q 5138 4122 5025 3959 
Q 4956 3859 4956 3503 
L 4956 734 
Q 4956 344 5044 247 
Q 5159 116 5409 116 
L 5556 116 
L 5556 0 
L 3756 0 
L 3756 116 
L 3906 116 
Q 4178 116 4288 278 
Q 4356 378 4356 734 
L 4356 3566 
L 2722 0 
L 2619 0 
z
" transform="scale(0.015625)"/>
      <path id="TimesNewRomanPSMT-53" d="M 2934 4334 
L 2934 2869 
L 2819 2869 
Q 2763 3291 2617 3541 
Q 2472 3791 2203 3937 
Q 1934 4084 1647 4084 
Q 1322 4084 1109 3886 
Q 897 3688 897 3434 
Q 897 3241 1031 3081 
Q 1225 2847 1953 2456 
Q 2547 2138 2764 1967 
Q 2981 1797 3098 1565 
Q 3216 1334 3216 1081 
Q 3216 600 2842 251 
Q 2469 -97 1881 -97 
Q 1697 -97 1534 -69 
Q 1438 -53 1133 45 
Q 828 144 747 144 
Q 669 144 623 97 
Q 578 50 556 -97 
L 441 -97 
L 441 1356 
L 556 1356 
Q 638 900 775 673 
Q 913 447 1195 297 
Q 1478 147 1816 147 
Q 2206 147 2432 353 
Q 2659 559 2659 841 
Q 2659 997 2573 1156 
Q 2488 1316 2306 1453 
Q 2184 1547 1640 1851 
Q 1097 2156 867 2337 
Q 638 2519 519 2737 
Q 400 2956 400 3219 
Q 400 3675 750 4004 
Q 1100 4334 1641 4334 
Q 1978 4334 2356 4169 
Q 2531 4091 2603 4091 
Q 2684 4091 2736 4139 
Q 2788 4188 2819 4334 
L 2934 4334 
z
" transform="scale(0.015625)"/>
      <path id="TimesNewRomanPSMT-2d" d="M 259 1672 
L 1875 1672 
L 1875 1200 
L 259 1200 
L 259 1672 
z
" transform="scale(0.015625)"/>
      <path id="TimesNewRomanPSMT-32" d="M 2934 816 
L 2638 0 
L 138 0 
L 138 116 
Q 1241 1122 1691 1759 
Q 2141 2397 2141 2925 
Q 2141 3328 1894 3587 
Q 1647 3847 1303 3847 
Q 991 3847 742 3664 
Q 494 3481 375 3128 
L 259 3128 
Q 338 3706 661 4015 
Q 984 4325 1469 4325 
Q 1984 4325 2329 3994 
Q 2675 3663 2675 3213 
Q 2675 2891 2525 2569 
Q 2294 2063 1775 1497 
Q 997 647 803 472 
L 1909 472 
Q 2247 472 2383 497 
Q 2519 522 2628 598 
Q 2738 675 2819 816 
L 2934 816 
z
" transform="scale(0.015625)"/>
      <path id="TimesNewRomanPSMT-20" transform="scale(0.015625)"/>
      <path id="TimesNewRomanPSMT-47" d="M 3928 4334 
L 4038 2997 
L 3928 2997 
Q 3763 3497 3500 3750 
Q 3122 4116 2528 4116 
Q 1719 4116 1297 3475 
Q 944 2934 944 2188 
Q 944 1581 1178 1081 
Q 1413 581 1792 348 
Q 2172 116 2572 116 
Q 2806 116 3025 175 
Q 3244 234 3447 350 
L 3447 1575 
Q 3447 1894 3398 1992 
Q 3350 2091 3248 2142 
Q 3147 2194 2891 2194 
L 2891 2313 
L 4531 2313 
L 4531 2194 
L 4453 2194 
Q 4209 2194 4119 2031 
Q 4056 1916 4056 1575 
L 4056 278 
Q 3697 84 3347 -6 
Q 2997 -97 2569 -97 
Q 1341 -97 703 691 
Q 225 1281 225 2053 
Q 225 2613 494 3125 
Q 813 3734 1369 4063 
Q 1834 4334 2469 4334 
Q 2700 4334 2889 4296 
Q 3078 4259 3425 4131 
Q 3600 4066 3659 4066 
Q 3719 4066 3761 4120 
Q 3803 4175 3813 4334 
L 3928 4334 
z
" transform="scale(0.015625)"/>
      <path id="TimesNewRomanPSMT-45" d="M 1338 4006 
L 1338 2331 
L 2269 2331 
Q 2631 2331 2753 2441 
Q 2916 2584 2934 2947 
L 3050 2947 
L 3050 1472 
L 2934 1472 
Q 2891 1781 2847 1869 
Q 2791 1978 2662 2040 
Q 2534 2103 2269 2103 
L 1338 2103 
L 1338 706 
Q 1338 425 1363 364 
Q 1388 303 1450 267 
Q 1513 231 1688 231 
L 2406 231 
Q 2766 231 2928 281 
Q 3091 331 3241 478 
Q 3434 672 3638 1063 
L 3763 1063 
L 3397 0 
L 131 0 
L 131 116 
L 281 116 
Q 431 116 566 188 
Q 666 238 702 338 
Q 738 438 738 747 
L 738 3500 
Q 738 3903 656 3997 
Q 544 4122 281 4122 
L 131 4122 
L 131 4238 
L 3397 4238 
L 3444 3309 
L 3322 3309 
Q 3256 3644 3176 3769 
Q 3097 3894 2941 3959 
Q 2816 4006 2500 4006 
L 1338 4006 
z
" transform="scale(0.015625)"/>
     </defs>
     <use xlink:href="#TimesNewRomanPSMT-4d"/>
     <use xlink:href="#TimesNewRomanPSMT-4d" x="88.916016"/>
     <use xlink:href="#TimesNewRomanPSMT-53" x="177.832031"/>
     <use xlink:href="#TimesNewRomanPSMT-2d" x="233.447266"/>
     <use xlink:href="#TimesNewRomanPSMT-32" x="266.748047"/>
     <use xlink:href="#TimesNewRomanPSMT-20" x="316.748047"/>
     <use xlink:href="#TimesNewRomanPSMT-47" x="341.748047"/>
     <use xlink:href="#TimesNewRomanPSMT-53" x="413.964844"/>
     <use xlink:href="#TimesNewRomanPSMT-45" x="469.580078"/>
    </g>
   </g>
   <g id="legend_1">
    <g id="patch_4">
     <path d="M 100.6848 68.654875 
L 544.620425 68.654875 
Q 547.420425 68.654875 547.420425 65.854875 
L 547.420425 27.6655 
Q 547.420425 24.8655 544.620425 24.8655 
L 100.6848 24.8655 
Q 97.8848 24.8655 97.8848 27.6655 
L 97.8848 65.854875 
Q 97.8848 68.654875 100.6848 68.654875 
z
" style="fill: #ffffff; stroke: #cccccc; stroke-linejoin: miter"/>
    </g>
    <g id="line2d_80">
     <path d="M 103.4848 35.3655 
L 117.4848 35.3655 
L 131.4848 35.3655 
" style="fill: none; stroke: #ff0000; stroke-width: 2; stroke-linecap: square"/>
    </g>
    <g id="text_8">
     <!-- SSCWeb/X -->
     <g transform="translate(142.6848 40.2655) scale(0.14 -0.14)">
      <defs>
       <path id="TimesNewRomanPSMT-43" d="M 3853 4334 
L 3950 2894 
L 3853 2894 
Q 3659 3541 3300 3825 
Q 2941 4109 2438 4109 
Q 2016 4109 1675 3895 
Q 1334 3681 1139 3212 
Q 944 2744 944 2047 
Q 944 1472 1128 1050 
Q 1313 628 1683 403 
Q 2053 178 2528 178 
Q 2941 178 3256 354 
Q 3572 531 3950 1056 
L 4047 994 
Q 3728 428 3303 165 
Q 2878 -97 2294 -97 
Q 1241 -97 663 684 
Q 231 1266 231 2053 
Q 231 2688 515 3219 
Q 800 3750 1298 4042 
Q 1797 4334 2388 4334 
Q 2847 4334 3294 4109 
Q 3425 4041 3481 4041 
Q 3566 4041 3628 4100 
Q 3709 4184 3744 4334 
L 3853 4334 
z
" transform="scale(0.015625)"/>
       <path id="TimesNewRomanPSMT-57" d="M 5991 4238 
L 5991 4122 
Q 5825 4122 5722 4062 
Q 5619 4003 5525 3841 
Q 5463 3731 5328 3319 
L 4147 -97 
L 4022 -97 
L 3056 2613 
L 2097 -97 
L 1984 -97 
L 725 3422 
Q 584 3816 547 3888 
Q 484 4006 376 4064 
Q 269 4122 84 4122 
L 84 4238 
L 1653 4238 
L 1653 4122 
L 1578 4122 
Q 1413 4122 1325 4047 
Q 1238 3972 1238 3866 
Q 1238 3756 1375 3363 
L 2209 984 
L 2913 3006 
L 2788 3363 
L 2688 3647 
Q 2622 3803 2541 3922 
Q 2500 3981 2441 4022 
Q 2363 4078 2284 4103 
Q 2225 4122 2097 4122 
L 2097 4238 
L 3747 4238 
L 3747 4122 
L 3634 4122 
Q 3459 4122 3378 4047 
Q 3297 3972 3297 3844 
Q 3297 3684 3438 3288 
L 4250 984 
L 5056 3319 
Q 5194 3706 5194 3856 
Q 5194 3928 5148 3990 
Q 5103 4053 5034 4078 
Q 4916 4122 4725 4122 
L 4725 4238 
L 5991 4238 
z
" transform="scale(0.015625)"/>
       <path id="TimesNewRomanPSMT-65" d="M 681 1784 
Q 678 1147 991 784 
Q 1303 422 1725 422 
Q 2006 422 2214 576 
Q 2422 731 2563 1106 
L 2659 1044 
Q 2594 616 2278 264 
Q 1963 -88 1488 -88 
Q 972 -88 605 314 
Q 238 716 238 1394 
Q 238 2128 614 2539 
Q 991 2950 1559 2950 
Q 2041 2950 2350 2633 
Q 2659 2316 2659 1784 
L 681 1784 
z
M 681 1966 
L 2006 1966 
Q 1991 2241 1941 2353 
Q 1863 2528 1708 2628 
Q 1553 2728 1384 2728 
Q 1125 2728 920 2526 
Q 716 2325 681 1966 
z
" transform="scale(0.015625)"/>
       <path id="TimesNewRomanPSMT-62" d="M 984 2369 
Q 1400 2947 1881 2947 
Q 2322 2947 2650 2570 
Q 2978 2194 2978 1541 
Q 2978 778 2472 313 
Q 2038 -88 1503 -88 
Q 1253 -88 995 3 
Q 738 94 469 275 
L 469 3241 
Q 469 3728 445 3840 
Q 422 3953 372 3993 
Q 322 4034 247 4034 
Q 159 4034 28 3984 
L -16 4094 
L 844 4444 
L 984 4444 
L 984 2369 
z
M 984 2169 
L 984 456 
Q 1144 300 1314 220 
Q 1484 141 1663 141 
Q 1947 141 2192 453 
Q 2438 766 2438 1363 
Q 2438 1913 2192 2208 
Q 1947 2503 1634 2503 
Q 1469 2503 1303 2419 
Q 1178 2356 984 2169 
z
" transform="scale(0.015625)"/>
       <path id="TimesNewRomanPSMT-2f" d="M 1794 4444 
L 259 -88 
L 9 -88 
L 1544 4444 
L 1794 4444 
z
" transform="scale(0.015625)"/>
       <path id="TimesNewRomanPSMT-58" d="M 2613 2347 
L 3522 991 
Q 3900 428 4083 279 
Q 4266 131 4547 116 
L 4547 0 
L 2728 0 
L 2728 116 
Q 2909 119 2997 153 
Q 3063 181 3105 239 
Q 3147 297 3147 356 
Q 3147 428 3119 500 
Q 3097 553 2947 775 
L 2228 1863 
L 1341 725 
Q 1200 544 1172 483 
Q 1144 422 1144 356 
Q 1144 256 1228 190 
Q 1313 125 1550 116 
L 1550 0 
L 47 0 
L 47 116 
Q 206 131 322 181 
Q 516 263 691 400 
Q 866 538 1091 822 
L 2091 2084 
L 1256 3306 
Q 916 3803 678 3958 
Q 441 4113 131 4122 
L 131 4238 
L 2091 4238 
L 2091 4122 
Q 1841 4113 1748 4041 
Q 1656 3969 1656 3881 
Q 1656 3766 1806 3544 
L 2456 2572 
L 3209 3525 
Q 3341 3694 3370 3756 
Q 3400 3819 3400 3884 
Q 3400 3950 3363 4000 
Q 3316 4066 3244 4092 
Q 3172 4119 2947 4122 
L 2947 4238 
L 4450 4238 
L 4450 4122 
Q 4272 4113 4159 4066 
Q 3991 3994 3850 3872 
Q 3709 3750 3453 3422 
L 2613 2347 
z
" transform="scale(0.015625)"/>
      </defs>
      <use xlink:href="#TimesNewRomanPSMT-53"/>
      <use xlink:href="#TimesNewRomanPSMT-53" x="55.615234"/>
      <use xlink:href="#TimesNewRomanPSMT-43" x="111.230469"/>
      <use xlink:href="#TimesNewRomanPSMT-57" x="177.929688"/>
      <use xlink:href="#TimesNewRomanPSMT-65" x="264.314453"/>
      <use xlink:href="#TimesNewRomanPSMT-62" x="308.699219"/>
      <use xlink:href="#TimesNewRomanPSMT-2f" x="358.699219"/>
      <use xlink:href="#TimesNewRomanPSMT-58" x="386.482422"/>
     </g>
    </g>
    <g id="line2d_81">
     <path d="M 103.4848 55.160187 
L 117.4848 55.160187 
L 131.4848 55.160187 
" style="fill: none; stroke-dasharray: 11.1,4.8; stroke-dashoffset: 0; stroke: #ff0000; stroke-width: 3"/>
    </g>
    <g id="text_9">
     <!-- JPL/X -->
     <g transform="translate(142.6848 60.060187) scale(0.14 -0.14)">
      <defs>
       <path id="TimesNewRomanPSMT-4a" d="M 638 4122 
L 638 4238 
L 2453 4238 
L 2453 4122 
L 2300 4122 
Q 2041 4122 1922 3969 
Q 1847 3869 1847 3488 
L 1847 1416 
Q 1847 938 1742 641 
Q 1638 344 1381 123 
Q 1125 -97 763 -97 
Q 469 -97 300 48 
Q 131 194 131 381 
Q 131 534 209 613 
Q 313 709 450 709 
Q 550 709 629 643 
Q 709 578 831 294 
Q 903 125 1016 125 
Q 1100 125 1173 228 
Q 1247 331 1247 594 
L 1247 3488 
Q 1247 3809 1206 3913 
Q 1175 3991 1075 4047 
Q 941 4122 791 4122 
L 638 4122 
z
" transform="scale(0.015625)"/>
       <path id="TimesNewRomanPSMT-50" d="M 1313 1984 
L 1313 750 
Q 1313 350 1400 253 
Q 1519 116 1759 116 
L 1922 116 
L 1922 0 
L 106 0 
L 106 116 
L 266 116 
Q 534 116 650 291 
Q 713 388 713 750 
L 713 3488 
Q 713 3888 628 3984 
Q 506 4122 266 4122 
L 106 4122 
L 106 4238 
L 1659 4238 
Q 2228 4238 2556 4120 
Q 2884 4003 3109 3725 
Q 3334 3447 3334 3066 
Q 3334 2547 2992 2222 
Q 2650 1897 2025 1897 
Q 1872 1897 1694 1919 
Q 1516 1941 1313 1984 
z
M 1313 2163 
Q 1478 2131 1606 2115 
Q 1734 2100 1825 2100 
Q 2150 2100 2386 2351 
Q 2622 2603 2622 3003 
Q 2622 3278 2509 3514 
Q 2397 3750 2190 3867 
Q 1984 3984 1722 3984 
Q 1563 3984 1313 3925 
L 1313 2163 
z
" transform="scale(0.015625)"/>
       <path id="TimesNewRomanPSMT-4c" d="M 3669 1172 
L 3772 1150 
L 3409 0 
L 128 0 
L 128 116 
L 288 116 
Q 556 116 672 291 
Q 738 391 738 753 
L 738 3488 
Q 738 3884 650 3984 
Q 528 4122 288 4122 
L 128 4122 
L 128 4238 
L 2047 4238 
L 2047 4122 
Q 1709 4125 1573 4059 
Q 1438 3994 1388 3894 
Q 1338 3794 1338 3416 
L 1338 753 
Q 1338 494 1388 397 
Q 1425 331 1503 300 
Q 1581 269 1991 269 
L 2300 269 
Q 2788 269 2984 341 
Q 3181 413 3343 595 
Q 3506 778 3669 1172 
z
" transform="scale(0.015625)"/>
      </defs>
      <use xlink:href="#TimesNewRomanPSMT-4a"/>
      <use xlink:href="#TimesNewRomanPSMT-50" x="38.916016"/>
      <use xlink:href="#TimesNewRomanPSMT-4c" x="94.53125"/>
      <use xlink:href="#TimesNewRomanPSMT-2f" x="155.615234"/>
      <use xlink:href="#TimesNewRomanPSMT-58" x="183.398438"/>
     </g>
    </g>
    <g id="line2d_82">
     <path d="M 234.903237 35.3655 
L 248.903237 35.3655 
L 262.903237 35.3655 
" style="fill: none; stroke: #008000; stroke-width: 2; stroke-linecap: square"/>
    </g>
    <g id="text_10">
     <!-- SSCWeb/Y -->
     <g transform="translate(274.103237 40.2655) scale(0.14 -0.14)">
      <defs>
       <path id="TimesNewRomanPSMT-59" d="M 3050 4238 
L 4528 4238 
L 4528 4122 
L 4447 4122 
Q 4366 4122 4209 4050 
Q 4053 3978 3925 3843 
Q 3797 3709 3609 3406 
L 2588 1797 
L 2588 734 
Q 2588 344 2675 247 
Q 2794 116 3050 116 
L 3188 116 
L 3188 0 
L 1388 0 
L 1388 116 
L 1538 116 
Q 1806 116 1919 278 
Q 1988 378 1988 734 
L 1988 1738 
L 825 3513 
Q 619 3825 545 3903 
Q 472 3981 241 4091 
Q 178 4122 59 4122 
L 59 4238 
L 1872 4238 
L 1872 4122 
L 1778 4122 
Q 1631 4122 1507 4053 
Q 1384 3984 1384 3847 
Q 1384 3734 1575 3441 
L 2459 2075 
L 3291 3381 
Q 3478 3675 3478 3819 
Q 3478 3906 3433 3975 
Q 3388 4044 3303 4083 
Q 3219 4122 3050 4122 
L 3050 4238 
z
" transform="scale(0.015625)"/>
      </defs>
      <use xlink:href="#TimesNewRomanPSMT-53"/>
      <use xlink:href="#TimesNewRomanPSMT-53" x="55.615234"/>
      <use xlink:href="#TimesNewRomanPSMT-43" x="111.230469"/>
      <use xlink:href="#TimesNewRomanPSMT-57" x="177.929688"/>
      <use xlink:href="#TimesNewRomanPSMT-65" x="264.314453"/>
      <use xlink:href="#TimesNewRomanPSMT-62" x="308.699219"/>
      <use xlink:href="#TimesNewRomanPSMT-2f" x="358.699219"/>
      <use xlink:href="#TimesNewRomanPSMT-59" x="386.482422"/>
     </g>
    </g>
    <g id="line2d_83">
     <path d="M 234.903237 55.160187 
L 248.903237 55.160187 
L 262.903237 55.160187 
" style="fill: none; stroke-dasharray: 11.1,4.8; stroke-dashoffset: 0; stroke: #008000; stroke-width: 3"/>
    </g>
    <g id="text_11">
     <!-- JPL/Y -->
     <g transform="translate(274.103237 60.060187) scale(0.14 -0.14)">
      <use xlink:href="#TimesNewRomanPSMT-4a"/>
      <use xlink:href="#TimesNewRomanPSMT-50" x="38.916016"/>
      <use xlink:href="#TimesNewRomanPSMT-4c" x="94.53125"/>
      <use xlink:href="#TimesNewRomanPSMT-2f" x="155.615234"/>
      <use xlink:href="#TimesNewRomanPSMT-59" x="183.398438"/>
     </g>
    </g>
    <g id="line2d_84">
     <path d="M 366.321675 35.3655 
L 380.321675 35.3655 
L 394.321675 35.3655 
" style="fill: none; stroke: #0000ff; stroke-width: 2; stroke-linecap: square"/>
    </g>
    <g id="text_12">
     <!-- SSCWeb/Z -->
     <g transform="translate(405.521675 40.2655) scale(0.14 -0.14)">
      <defs>
       <path id="TimesNewRomanPSMT-5a" d="M 3681 4238 
L 897 256 
L 2634 256 
Q 3034 256 3248 431 
Q 3463 606 3628 1141 
L 3731 1122 
L 3531 0 
L 81 0 
L 81 116 
L 2800 3984 
L 1444 3984 
Q 1106 3984 954 3911 
Q 803 3838 723 3698 
Q 644 3559 578 3178 
L 459 3178 
L 547 4238 
L 3681 4238 
z
" transform="scale(0.015625)"/>
      </defs>
      <use xlink:href="#TimesNewRomanPSMT-53"/>
      <use xlink:href="#TimesNewRomanPSMT-53" x="55.615234"/>
      <use xlink:href="#TimesNewRomanPSMT-43" x="111.230469"/>
      <use xlink:href="#TimesNewRomanPSMT-57" x="177.929688"/>
      <use xlink:href="#TimesNewRomanPSMT-65" x="264.314453"/>
      <use xlink:href="#TimesNewRomanPSMT-62" x="308.699219"/>
      <use xlink:href="#TimesNewRomanPSMT-2f" x="358.699219"/>
      <use xlink:href="#TimesNewRomanPSMT-5a" x="386.482422"/>
     </g>
    </g>
    <g id="line2d_85">
     <path d="M 366.321675 55.160187 
L 380.321675 55.160187 
L 394.321675 55.160187 
" style="fill: none; stroke-dasharray: 11.1,4.8; stroke-dashoffset: 0; stroke: #0000ff; stroke-width: 3"/>
    </g>
    <g id="text_13">
     <!-- JPL/Z -->
     <g transform="translate(405.521675 60.060187) scale(0.14 -0.14)">
      <use xlink:href="#TimesNewRomanPSMT-4a"/>
      <use xlink:href="#TimesNewRomanPSMT-50" x="38.916016"/>
      <use xlink:href="#TimesNewRomanPSMT-4c" x="94.53125"/>
      <use xlink:href="#TimesNewRomanPSMT-2f" x="155.615234"/>
      <use xlink:href="#TimesNewRomanPSMT-5a" x="183.398438"/>
     </g>
    </g>
    <g id="line2d_86">
     <path d="M 496.180425 35.3655 
L 510.180425 35.3655 
L 524.180425 35.3655 
" style="fill: none; stroke: #000000; stroke-width: 2; stroke-linecap: square"/>
    </g>
    <g id="text_14">
     <!-- $\overline{r}$ -->
     <g transform="translate(535.380425 40.2655) scale(0.14 -0.14)">
      <defs>
       <path id="Cmmi10-72" d="M 494 109 
Q 494 147 500 166 
L 978 2075 
Q 1025 2253 1025 2388 
Q 1025 2663 838 2663 
Q 638 2663 541 2423 
Q 444 2184 353 1819 
Q 353 1800 334 1789 
Q 316 1778 300 1778 
L 225 1778 
Q 203 1778 187 1801 
Q 172 1825 172 1844 
Q 241 2122 305 2315 
Q 369 2509 505 2668 
Q 641 2828 844 2828 
Q 1066 2828 1233 2700 
Q 1400 2572 1441 2363 
Q 1603 2575 1811 2701 
Q 2019 2828 2266 2828 
Q 2469 2828 2623 2709 
Q 2778 2591 2778 2388 
Q 2778 2225 2676 2104 
Q 2575 1984 2406 1984 
Q 2303 1984 2233 2048 
Q 2163 2113 2163 2216 
Q 2163 2356 2266 2467 
Q 2369 2578 2503 2578 
Q 2400 2663 2253 2663 
Q 1978 2663 1775 2467 
Q 1572 2272 1409 1972 
L 953 141 
Q 931 53 854 -9 
Q 778 -72 684 -72 
Q 606 -72 550 -22 
Q 494 28 494 109 
z
" transform="scale(0.015625)"/>
      </defs>
      <use xlink:href="#Cmmi10-72" transform="translate(0 0.5625)"/>
      <path d="M 0 56.5 
L 0 62.75 
L 45.117188 62.75 
L 45.117188 56.5 
L 0 56.5 
z
"/>
     </g>
    </g>
   </g>
  </g>
  <g id="axes_2">
   <g id="patch_5">
    <path d="M 38.974688 758.823395 
L 606.330537 758.823395 
L 606.330537 397.554447 
L 38.974688 397.554447 
z
" style="fill: #ffffff"/>
   </g>
   <g id="matplotlib.axis_3">
    <g id="xtick_14">
     <g id="line2d_87">
      <path d="M 64.746378 758.823395 
L 64.746378 397.554447 
" clip-path="url(#p7a3506f4c7)" style="fill: none; stroke: #b0b0b0; stroke-width: 0.8; stroke-linecap: square"/>
     </g>
     <g id="line2d_88">
      <g>
       <use xlink:href="#md95a76cdcf" x="64.746378" y="758.823395" style="stroke: #000000; stroke-width: 0.8"/>
      </g>
     </g>
     <g id="text_15">
      <!-- 00 -->
      <g transform="translate(57.746378 775.544645) scale(0.14 -0.14)">
       <use xlink:href="#TimesNewRomanPSMT-30"/>
       <use xlink:href="#TimesNewRomanPSMT-30" x="50"/>
      </g>
      <!-- 2016-09-01 -->
      <g transform="translate(32.084815 790.204832) scale(0.14 -0.14)">
       <defs>
        <path id="TimesNewRomanPSMT-36" d="M 2869 4325 
L 2869 4209 
Q 2456 4169 2195 4045 
Q 1934 3922 1679 3669 
Q 1425 3416 1258 3105 
Q 1091 2794 978 2366 
Q 1428 2675 1881 2675 
Q 2316 2675 2634 2325 
Q 2953 1975 2953 1425 
Q 2953 894 2631 456 
Q 2244 -75 1606 -75 
Q 1172 -75 869 213 
Q 275 772 275 1663 
Q 275 2231 503 2743 
Q 731 3256 1154 3653 
Q 1578 4050 1965 4187 
Q 2353 4325 2688 4325 
L 2869 4325 
z
M 925 2138 
Q 869 1716 869 1456 
Q 869 1156 980 804 
Q 1091 453 1309 247 
Q 1469 100 1697 100 
Q 1969 100 2183 356 
Q 2397 613 2397 1088 
Q 2397 1622 2184 2012 
Q 1972 2403 1581 2403 
Q 1463 2403 1327 2353 
Q 1191 2303 925 2138 
z
" transform="scale(0.015625)"/>
        <path id="TimesNewRomanPSMT-39" d="M 338 -88 
L 338 28 
Q 744 34 1094 217 
Q 1444 400 1770 856 
Q 2097 1313 2225 1859 
Q 1734 1544 1338 1544 
Q 891 1544 572 1889 
Q 253 2234 253 2806 
Q 253 3363 572 3797 
Q 956 4325 1575 4325 
Q 2097 4325 2469 3894 
Q 2925 3359 2925 2575 
Q 2925 1869 2578 1258 
Q 2231 647 1613 244 
Q 1109 -88 516 -88 
L 338 -88 
z
M 2275 2091 
Q 2331 2497 2331 2741 
Q 2331 3044 2228 3395 
Q 2125 3747 1936 3934 
Q 1747 4122 1506 4122 
Q 1228 4122 1018 3872 
Q 809 3622 809 3128 
Q 809 2469 1088 2097 
Q 1291 1828 1588 1828 
Q 1731 1828 1928 1897 
Q 2125 1966 2275 2091 
z
" transform="scale(0.015625)"/>
       </defs>
       <use xlink:href="#TimesNewRomanPSMT-32"/>
       <use xlink:href="#TimesNewRomanPSMT-30" x="50"/>
       <use xlink:href="#TimesNewRomanPSMT-31" x="100"/>
       <use xlink:href="#TimesNewRomanPSMT-36" x="150"/>
       <use xlink:href="#TimesNewRomanPSMT-2d" x="200"/>
       <use xlink:href="#TimesNewRomanPSMT-30" x="233.300781"/>
       <use xlink:href="#TimesNewRomanPSMT-39" x="283.300781"/>
       <use xlink:href="#TimesNewRomanPSMT-2d" x="333.300781"/>
       <use xlink:href="#TimesNewRomanPSMT-30" x="366.601562"/>
       <use xlink:href="#TimesNewRomanPSMT-31" x="416.601562"/>
      </g>
     </g>
    </g>
    <g id="xtick_15">
     <g id="line2d_89">
      <path d="M 150.71376 758.823395 
L 150.71376 397.554447 
" clip-path="url(#p7a3506f4c7)" style="fill: none; stroke: #b0b0b0; stroke-width: 0.8; stroke-linecap: square"/>
     </g>
     <g id="line2d_90">
      <g>
       <use xlink:href="#md95a76cdcf" x="150.71376" y="758.823395" style="stroke: #000000; stroke-width: 0.8"/>
      </g>
     </g>
     <g id="text_16">
      <!-- 04 -->
      <g transform="translate(143.71376 775.544645) scale(0.14 -0.14)">
       <defs>
        <path id="TimesNewRomanPSMT-34" d="M 2978 1563 
L 2978 1119 
L 2409 1119 
L 2409 0 
L 1894 0 
L 1894 1119 
L 100 1119 
L 100 1519 
L 2066 4325 
L 2409 4325 
L 2409 1563 
L 2978 1563 
z
M 1894 1563 
L 1894 3666 
L 406 1563 
L 1894 1563 
z
" transform="scale(0.015625)"/>
       </defs>
       <use xlink:href="#TimesNewRomanPSMT-30"/>
       <use xlink:href="#TimesNewRomanPSMT-34" x="50"/>
      </g>
     </g>
    </g>
    <g id="xtick_16">
     <g id="line2d_91">
      <path d="M 236.681142 758.823395 
L 236.681142 397.554447 
" clip-path="url(#p7a3506f4c7)" style="fill: none; stroke: #b0b0b0; stroke-width: 0.8; stroke-linecap: square"/>
     </g>
     <g id="line2d_92">
      <g>
       <use xlink:href="#md95a76cdcf" x="236.681142" y="758.823395" style="stroke: #000000; stroke-width: 0.8"/>
      </g>
     </g>
     <g id="text_17">
      <!-- 08 -->
      <g transform="translate(229.681142 775.544645) scale(0.14 -0.14)">
       <defs>
        <path id="TimesNewRomanPSMT-38" d="M 1228 2134 
Q 725 2547 579 2797 
Q 434 3047 434 3316 
Q 434 3728 753 4026 
Q 1072 4325 1600 4325 
Q 2113 4325 2425 4047 
Q 2738 3769 2738 3413 
Q 2738 3175 2569 2928 
Q 2400 2681 1866 2347 
Q 2416 1922 2594 1678 
Q 2831 1359 2831 1006 
Q 2831 559 2490 242 
Q 2150 -75 1597 -75 
Q 994 -75 656 303 
Q 388 606 388 966 
Q 388 1247 577 1523 
Q 766 1800 1228 2134 
z
M 1719 2469 
Q 2094 2806 2194 3001 
Q 2294 3197 2294 3444 
Q 2294 3772 2109 3958 
Q 1925 4144 1606 4144 
Q 1288 4144 1088 3959 
Q 888 3775 888 3528 
Q 888 3366 970 3203 
Q 1053 3041 1206 2894 
L 1719 2469 
z
M 1375 2016 
Q 1116 1797 991 1539 
Q 866 1281 866 981 
Q 866 578 1086 336 
Q 1306 94 1647 94 
Q 1984 94 2187 284 
Q 2391 475 2391 747 
Q 2391 972 2272 1150 
Q 2050 1481 1375 2016 
z
" transform="scale(0.015625)"/>
       </defs>
       <use xlink:href="#TimesNewRomanPSMT-30"/>
       <use xlink:href="#TimesNewRomanPSMT-38" x="50"/>
      </g>
     </g>
    </g>
    <g id="xtick_17">
     <g id="line2d_93">
      <path d="M 322.648524 758.823395 
L 322.648524 397.554447 
" clip-path="url(#p7a3506f4c7)" style="fill: none; stroke: #b0b0b0; stroke-width: 0.8; stroke-linecap: square"/>
     </g>
     <g id="line2d_94">
      <g>
       <use xlink:href="#md95a76cdcf" x="322.648524" y="758.823395" style="stroke: #000000; stroke-width: 0.8"/>
      </g>
     </g>
     <g id="text_18">
      <!-- 12 -->
      <g transform="translate(315.648524 775.544645) scale(0.14 -0.14)">
       <use xlink:href="#TimesNewRomanPSMT-31"/>
       <use xlink:href="#TimesNewRomanPSMT-32" x="50"/>
      </g>
     </g>
    </g>
    <g id="xtick_18">
     <g id="line2d_95">
      <path d="M 408.615906 758.823395 
L 408.615906 397.554447 
" clip-path="url(#p7a3506f4c7)" style="fill: none; stroke: #b0b0b0; stroke-width: 0.8; stroke-linecap: square"/>
     </g>
     <g id="line2d_96">
      <g>
       <use xlink:href="#md95a76cdcf" x="408.615906" y="758.823395" style="stroke: #000000; stroke-width: 0.8"/>
      </g>
     </g>
     <g id="text_19">
      <!-- 16 -->
      <g transform="translate(401.615906 775.544645) scale(0.14 -0.14)">
       <use xlink:href="#TimesNewRomanPSMT-31"/>
       <use xlink:href="#TimesNewRomanPSMT-36" x="50"/>
      </g>
     </g>
    </g>
    <g id="xtick_19">
     <g id="line2d_97">
      <path d="M 494.583288 758.823395 
L 494.583288 397.554447 
" clip-path="url(#p7a3506f4c7)" style="fill: none; stroke: #b0b0b0; stroke-width: 0.8; stroke-linecap: square"/>
     </g>
     <g id="line2d_98">
      <g>
       <use xlink:href="#md95a76cdcf" x="494.583288" y="758.823395" style="stroke: #000000; stroke-width: 0.8"/>
      </g>
     </g>
     <g id="text_20">
      <!-- 20 -->
      <g transform="translate(487.583288 775.544645) scale(0.14 -0.14)">
       <use xlink:href="#TimesNewRomanPSMT-32"/>
       <use xlink:href="#TimesNewRomanPSMT-30" x="50"/>
      </g>
     </g>
    </g>
    <g id="xtick_20">
     <g id="line2d_99">
      <path d="M 580.55067 758.823395 
L 580.55067 397.554447 
" clip-path="url(#p7a3506f4c7)" style="fill: none; stroke: #b0b0b0; stroke-width: 0.8; stroke-linecap: square"/>
     </g>
     <g id="line2d_100">
      <g>
       <use xlink:href="#md95a76cdcf" x="580.55067" y="758.823395" style="stroke: #000000; stroke-width: 0.8"/>
      </g>
     </g>
     <g id="text_21">
      <!-- 00 -->
      <g transform="translate(573.55067 775.544645) scale(0.14 -0.14)">
       <use xlink:href="#TimesNewRomanPSMT-30"/>
       <use xlink:href="#TimesNewRomanPSMT-30" x="50"/>
      </g>
      <!-- 2016-09-02 -->
      <g transform="translate(547.889107 790.204832) scale(0.14 -0.14)">
       <use xlink:href="#TimesNewRomanPSMT-32"/>
       <use xlink:href="#TimesNewRomanPSMT-30" x="50"/>
       <use xlink:href="#TimesNewRomanPSMT-31" x="100"/>
       <use xlink:href="#TimesNewRomanPSMT-36" x="150"/>
       <use xlink:href="#TimesNewRomanPSMT-2d" x="200"/>
       <use xlink:href="#TimesNewRomanPSMT-30" x="233.300781"/>
       <use xlink:href="#TimesNewRomanPSMT-39" x="283.300781"/>
       <use xlink:href="#TimesNewRomanPSMT-2d" x="333.300781"/>
       <use xlink:href="#TimesNewRomanPSMT-30" x="366.601562"/>
       <use xlink:href="#TimesNewRomanPSMT-32" x="416.601562"/>
      </g>
     </g>
    </g>
    <g id="xtick_21">
     <g id="line2d_101">
      <path d="M 107.730069 758.823395 
L 107.730069 397.554447 
" clip-path="url(#p7a3506f4c7)" style="fill: none; stroke-dasharray: 0.5,0.825; stroke-dashoffset: 0; stroke: #bfbfbf; stroke-width: 0.5"/>
     </g>
     <g id="line2d_102">
      <g>
       <use xlink:href="#mf4104e42bd" x="107.730069" y="758.823395" style="stroke: #000000; stroke-width: 0.6"/>
      </g>
     </g>
    </g>
    <g id="xtick_22">
     <g id="line2d_103">
      <path d="M 193.697451 758.823395 
L 193.697451 397.554447 
" clip-path="url(#p7a3506f4c7)" style="fill: none; stroke-dasharray: 0.5,0.825; stroke-dashoffset: 0; stroke: #bfbfbf; stroke-width: 0.5"/>
     </g>
     <g id="line2d_104">
      <g>
       <use xlink:href="#mf4104e42bd" x="193.697451" y="758.823395" style="stroke: #000000; stroke-width: 0.6"/>
      </g>
     </g>
    </g>
    <g id="xtick_23">
     <g id="line2d_105">
      <path d="M 279.664833 758.823395 
L 279.664833 397.554447 
" clip-path="url(#p7a3506f4c7)" style="fill: none; stroke-dasharray: 0.5,0.825; stroke-dashoffset: 0; stroke: #bfbfbf; stroke-width: 0.5"/>
     </g>
     <g id="line2d_106">
      <g>
       <use xlink:href="#mf4104e42bd" x="279.664833" y="758.823395" style="stroke: #000000; stroke-width: 0.6"/>
      </g>
     </g>
    </g>
    <g id="xtick_24">
     <g id="line2d_107">
      <path d="M 365.632215 758.823395 
L 365.632215 397.554447 
" clip-path="url(#p7a3506f4c7)" style="fill: none; stroke-dasharray: 0.5,0.825; stroke-dashoffset: 0; stroke: #bfbfbf; stroke-width: 0.5"/>
     </g>
     <g id="line2d_108">
      <g>
       <use xlink:href="#mf4104e42bd" x="365.632215" y="758.823395" style="stroke: #000000; stroke-width: 0.6"/>
      </g>
     </g>
    </g>
    <g id="xtick_25">
     <g id="line2d_109">
      <path d="M 451.599597 758.823395 
L 451.599597 397.554447 
" clip-path="url(#p7a3506f4c7)" style="fill: none; stroke-dasharray: 0.5,0.825; stroke-dashoffset: 0; stroke: #bfbfbf; stroke-width: 0.5"/>
     </g>
     <g id="line2d_110">
      <g>
       <use xlink:href="#mf4104e42bd" x="451.599597" y="758.823395" style="stroke: #000000; stroke-width: 0.6"/>
      </g>
     </g>
    </g>
    <g id="xtick_26">
     <g id="line2d_111">
      <path d="M 537.566979 758.823395 
L 537.566979 397.554447 
" clip-path="url(#p7a3506f4c7)" style="fill: none; stroke-dasharray: 0.5,0.825; stroke-dashoffset: 0; stroke: #bfbfbf; stroke-width: 0.5"/>
     </g>
     <g id="line2d_112">
      <g>
       <use xlink:href="#mf4104e42bd" x="537.566979" y="758.823395" style="stroke: #000000; stroke-width: 0.6"/>
      </g>
     </g>
    </g>
   </g>
   <g id="matplotlib.axis_4">
    <g id="ytick_24">
     <g id="line2d_113">
      <path d="M 38.974688 758.823395 
L 606.330537 758.823395 
" clip-path="url(#p7a3506f4c7)" style="fill: none; stroke: #b0b0b0; stroke-width: 0.8; stroke-linecap: square"/>
     </g>
     <g id="line2d_114"/>
     <g id="text_22">
      <!-- 0.0 -->
      <g transform="translate(17.974688 763.68402) scale(0.14 -0.14)">
       <defs>
        <path id="TimesNewRomanPSMT-2e" d="M 800 606 
Q 947 606 1047 504 
Q 1147 403 1147 259 
Q 1147 116 1045 14 
Q 944 -88 800 -88 
Q 656 -88 554 14 
Q 453 116 453 259 
Q 453 406 554 506 
Q 656 606 800 606 
z
" transform="scale(0.015625)"/>
       </defs>
       <use xlink:href="#TimesNewRomanPSMT-30"/>
       <use xlink:href="#TimesNewRomanPSMT-2e" x="50"/>
       <use xlink:href="#TimesNewRomanPSMT-30" x="75"/>
      </g>
     </g>
    </g>
    <g id="ytick_25">
     <g id="line2d_115">
      <path d="M 38.974688 703.298094 
L 606.330537 703.298094 
" clip-path="url(#p7a3506f4c7)" style="fill: none; stroke: #b0b0b0; stroke-width: 0.8; stroke-linecap: square"/>
     </g>
     <g id="line2d_116"/>
     <g id="text_23">
      <!-- 0.2 -->
      <g transform="translate(17.974688 708.158719) scale(0.14 -0.14)">
       <use xlink:href="#TimesNewRomanPSMT-30"/>
       <use xlink:href="#TimesNewRomanPSMT-2e" x="50"/>
       <use xlink:href="#TimesNewRomanPSMT-32" x="75"/>
      </g>
     </g>
    </g>
    <g id="ytick_26">
     <g id="line2d_117">
      <path d="M 38.974688 647.772794 
L 606.330537 647.772794 
" clip-path="url(#p7a3506f4c7)" style="fill: none; stroke: #b0b0b0; stroke-width: 0.8; stroke-linecap: square"/>
     </g>
     <g id="line2d_118"/>
     <g id="text_24">
      <!-- 0.4 -->
      <g transform="translate(17.974688 652.633419) scale(0.14 -0.14)">
       <use xlink:href="#TimesNewRomanPSMT-30"/>
       <use xlink:href="#TimesNewRomanPSMT-2e" x="50"/>
       <use xlink:href="#TimesNewRomanPSMT-34" x="75"/>
      </g>
     </g>
    </g>
    <g id="ytick_27">
     <g id="line2d_119">
      <path d="M 38.974688 592.247493 
L 606.330537 592.247493 
" clip-path="url(#p7a3506f4c7)" style="fill: none; stroke: #b0b0b0; stroke-width: 0.8; stroke-linecap: square"/>
     </g>
     <g id="line2d_120"/>
     <g id="text_25">
      <!-- 0.6 -->
      <g transform="translate(17.974688 597.108118) scale(0.14 -0.14)">
       <use xlink:href="#TimesNewRomanPSMT-30"/>
       <use xlink:href="#TimesNewRomanPSMT-2e" x="50"/>
       <use xlink:href="#TimesNewRomanPSMT-36" x="75"/>
      </g>
     </g>
    </g>
    <g id="ytick_28">
     <g id="line2d_121">
      <path d="M 38.974688 536.722193 
L 606.330537 536.722193 
" clip-path="url(#p7a3506f4c7)" style="fill: none; stroke: #b0b0b0; stroke-width: 0.8; stroke-linecap: square"/>
     </g>
     <g id="line2d_122"/>
     <g id="text_26">
      <!-- 0.8 -->
      <g transform="translate(17.974688 541.582818) scale(0.14 -0.14)">
       <use xlink:href="#TimesNewRomanPSMT-30"/>
       <use xlink:href="#TimesNewRomanPSMT-2e" x="50"/>
       <use xlink:href="#TimesNewRomanPSMT-38" x="75"/>
      </g>
     </g>
    </g>
    <g id="ytick_29">
     <g id="line2d_123">
      <path d="M 38.974688 481.196892 
L 606.330537 481.196892 
" clip-path="url(#p7a3506f4c7)" style="fill: none; stroke: #b0b0b0; stroke-width: 0.8; stroke-linecap: square"/>
     </g>
     <g id="line2d_124"/>
     <g id="text_27">
      <!-- 1.0 -->
      <g transform="translate(17.974688 486.057517) scale(0.14 -0.14)">
       <use xlink:href="#TimesNewRomanPSMT-31"/>
       <use xlink:href="#TimesNewRomanPSMT-2e" x="50"/>
       <use xlink:href="#TimesNewRomanPSMT-30" x="75"/>
      </g>
     </g>
    </g>
    <g id="ytick_30">
     <g id="line2d_125">
      <path d="M 38.974688 425.671591 
L 606.330537 425.671591 
" clip-path="url(#p7a3506f4c7)" style="fill: none; stroke: #b0b0b0; stroke-width: 0.8; stroke-linecap: square"/>
     </g>
     <g id="line2d_126"/>
     <g id="text_28">
      <!-- 1.2 -->
      <g transform="translate(17.974688 430.532216) scale(0.14 -0.14)">
       <use xlink:href="#TimesNewRomanPSMT-31"/>
       <use xlink:href="#TimesNewRomanPSMT-2e" x="50"/>
       <use xlink:href="#TimesNewRomanPSMT-32" x="75"/>
      </g>
     </g>
    </g>
    <g id="ytick_31">
     <g id="line2d_127">
      <path d="M 38.974688 744.94207 
L 606.330537 744.94207 
" clip-path="url(#p7a3506f4c7)" style="fill: none; stroke-dasharray: 0.5,0.825; stroke-dashoffset: 0; stroke: #bfbfbf; stroke-width: 0.5"/>
     </g>
     <g id="line2d_128"/>
    </g>
    <g id="ytick_32">
     <g id="line2d_129">
      <path d="M 38.974688 731.060745 
L 606.330537 731.060745 
" clip-path="url(#p7a3506f4c7)" style="fill: none; stroke-dasharray: 0.5,0.825; stroke-dashoffset: 0; stroke: #bfbfbf; stroke-width: 0.5"/>
     </g>
     <g id="line2d_130"/>
    </g>
    <g id="ytick_33">
     <g id="line2d_131">
      <path d="M 38.974688 717.17942 
L 606.330537 717.17942 
" clip-path="url(#p7a3506f4c7)" style="fill: none; stroke-dasharray: 0.5,0.825; stroke-dashoffset: 0; stroke: #bfbfbf; stroke-width: 0.5"/>
     </g>
     <g id="line2d_132"/>
    </g>
    <g id="ytick_34">
     <g id="line2d_133">
      <path d="M 38.974688 689.416769 
L 606.330537 689.416769 
" clip-path="url(#p7a3506f4c7)" style="fill: none; stroke-dasharray: 0.5,0.825; stroke-dashoffset: 0; stroke: #bfbfbf; stroke-width: 0.5"/>
     </g>
     <g id="line2d_134"/>
    </g>
    <g id="ytick_35">
     <g id="line2d_135">
      <path d="M 38.974688 675.535444 
L 606.330537 675.535444 
" clip-path="url(#p7a3506f4c7)" style="fill: none; stroke-dasharray: 0.5,0.825; stroke-dashoffset: 0; stroke: #bfbfbf; stroke-width: 0.5"/>
     </g>
     <g id="line2d_136"/>
    </g>
    <g id="ytick_36">
     <g id="line2d_137">
      <path d="M 38.974688 661.654119 
L 606.330537 661.654119 
" clip-path="url(#p7a3506f4c7)" style="fill: none; stroke-dasharray: 0.5,0.825; stroke-dashoffset: 0; stroke: #bfbfbf; stroke-width: 0.5"/>
     </g>
     <g id="line2d_138"/>
    </g>
    <g id="ytick_37">
     <g id="line2d_139">
      <path d="M 38.974688 633.891469 
L 606.330537 633.891469 
" clip-path="url(#p7a3506f4c7)" style="fill: none; stroke-dasharray: 0.5,0.825; stroke-dashoffset: 0; stroke: #bfbfbf; stroke-width: 0.5"/>
     </g>
     <g id="line2d_140"/>
    </g>
    <g id="ytick_38">
     <g id="line2d_141">
      <path d="M 38.974688 620.010143 
L 606.330537 620.010143 
" clip-path="url(#p7a3506f4c7)" style="fill: none; stroke-dasharray: 0.5,0.825; stroke-dashoffset: 0; stroke: #bfbfbf; stroke-width: 0.5"/>
     </g>
     <g id="line2d_142"/>
    </g>
    <g id="ytick_39">
     <g id="line2d_143">
      <path d="M 38.974688 606.128818 
L 606.330537 606.128818 
" clip-path="url(#p7a3506f4c7)" style="fill: none; stroke-dasharray: 0.5,0.825; stroke-dashoffset: 0; stroke: #bfbfbf; stroke-width: 0.5"/>
     </g>
     <g id="line2d_144"/>
    </g>
    <g id="ytick_40">
     <g id="line2d_145">
      <path d="M 38.974688 578.366168 
L 606.330537 578.366168 
" clip-path="url(#p7a3506f4c7)" style="fill: none; stroke-dasharray: 0.5,0.825; stroke-dashoffset: 0; stroke: #bfbfbf; stroke-width: 0.5"/>
     </g>
     <g id="line2d_146"/>
    </g>
    <g id="ytick_41">
     <g id="line2d_147">
      <path d="M 38.974688 564.484843 
L 606.330537 564.484843 
" clip-path="url(#p7a3506f4c7)" style="fill: none; stroke-dasharray: 0.5,0.825; stroke-dashoffset: 0; stroke: #bfbfbf; stroke-width: 0.5"/>
     </g>
     <g id="line2d_148"/>
    </g>
    <g id="ytick_42">
     <g id="line2d_149">
      <path d="M 38.974688 550.603518 
L 606.330537 550.603518 
" clip-path="url(#p7a3506f4c7)" style="fill: none; stroke-dasharray: 0.5,0.825; stroke-dashoffset: 0; stroke: #bfbfbf; stroke-width: 0.5"/>
     </g>
     <g id="line2d_150"/>
    </g>
    <g id="ytick_43">
     <g id="line2d_151">
      <path d="M 38.974688 522.840867 
L 606.330537 522.840867 
" clip-path="url(#p7a3506f4c7)" style="fill: none; stroke-dasharray: 0.5,0.825; stroke-dashoffset: 0; stroke: #bfbfbf; stroke-width: 0.5"/>
     </g>
     <g id="line2d_152"/>
    </g>
    <g id="ytick_44">
     <g id="line2d_153">
      <path d="M 38.974688 508.959542 
L 606.330537 508.959542 
" clip-path="url(#p7a3506f4c7)" style="fill: none; stroke-dasharray: 0.5,0.825; stroke-dashoffset: 0; stroke: #bfbfbf; stroke-width: 0.5"/>
     </g>
     <g id="line2d_154"/>
    </g>
    <g id="ytick_45">
     <g id="line2d_155">
      <path d="M 38.974688 495.078217 
L 606.330537 495.078217 
" clip-path="url(#p7a3506f4c7)" style="fill: none; stroke-dasharray: 0.5,0.825; stroke-dashoffset: 0; stroke: #bfbfbf; stroke-width: 0.5"/>
     </g>
     <g id="line2d_156"/>
    </g>
    <g id="ytick_46">
     <g id="line2d_157">
      <path d="M 38.974688 467.315567 
L 606.330537 467.315567 
" clip-path="url(#p7a3506f4c7)" style="fill: none; stroke-dasharray: 0.5,0.825; stroke-dashoffset: 0; stroke: #bfbfbf; stroke-width: 0.5"/>
     </g>
     <g id="line2d_158"/>
    </g>
    <g id="ytick_47">
     <g id="line2d_159">
      <path d="M 38.974688 453.434242 
L 606.330537 453.434242 
" clip-path="url(#p7a3506f4c7)" style="fill: none; stroke-dasharray: 0.5,0.825; stroke-dashoffset: 0; stroke: #bfbfbf; stroke-width: 0.5"/>
     </g>
     <g id="line2d_160"/>
    </g>
    <g id="ytick_48">
     <g id="line2d_161">
      <path d="M 38.974688 439.552917 
L 606.330537 439.552917 
" clip-path="url(#p7a3506f4c7)" style="fill: none; stroke-dasharray: 0.5,0.825; stroke-dashoffset: 0; stroke: #bfbfbf; stroke-width: 0.5"/>
     </g>
     <g id="line2d_162"/>
    </g>
    <g id="ytick_49">
     <g id="line2d_163">
      <path d="M 38.974688 411.790266 
L 606.330537 411.790266 
" clip-path="url(#p7a3506f4c7)" style="fill: none; stroke-dasharray: 0.5,0.825; stroke-dashoffset: 0; stroke: #bfbfbf; stroke-width: 0.5"/>
     </g>
     <g id="line2d_164"/>
    </g>
    <g id="ytick_50">
     <g id="line2d_165">
      <path d="M 38.974688 397.908941 
L 606.330537 397.908941 
" clip-path="url(#p7a3506f4c7)" style="fill: none; stroke-dasharray: 0.5,0.825; stroke-dashoffset: 0; stroke: #bfbfbf; stroke-width: 0.5"/>
     </g>
     <g id="line2d_166"/>
    </g>
   </g>
   <g id="line2d_167">
    <path d="M 64.76359 758.402163 
L 126.079168 758.079437 
L 151.675565 757.977819 
L 184.878608 757.909897 
L 232.093684 758.160703 
L 242.608606 758.29216 
L 253.285039 758.327381 
L 265.444744 758.170191 
L 275.54993 757.92306 
L 275.608647 758.239018 
L 275.652685 757.957087 
L 276.063702 754.870297 
L 286.339089 754.051828 
L 292.296987 753.308573 
L 298.519548 752.530433 
L 300.692494 752.578772 
L 303.027264 752.934883 
L 312.485423 754.640681 
L 317.115554 755.023043 
L 324.395812 755.30814 
L 336.408698 755.464663 
L 351.72574 755.536125 
L 362.548963 755.581956 
L 566.619665 757.382041 
L 577.839478 757.390184 
L 580.541635 757.387286 
L 580.541635 757.387286 
" clip-path="url(#p7a3506f4c7)" style="fill: none; stroke: #ff0000; stroke-width: 2; stroke-linecap: square"/>
   </g>
   <g id="line2d_168">
    <path d="M 64.76359 758.788051 
L 275.652685 758.584208 
L 276.063702 757.722297 
L 283.095004 757.260435 
L 287.557458 756.745552 
L 290.948052 756.13059 
L 293.808113 755.386133 
L 299.635338 753.763773 
L 300.883386 753.77169 
L 302.19023 754.011555 
L 303.923081 754.576487 
L 308.417143 756.098515 
L 311.016736 756.677372 
L 314.33924 757.160145 
L 318.628582 757.533102 
L 324.645485 757.824302 
L 334.734542 758.069778 
L 355.852368 758.290881 
L 408.999284 758.503717 
L 492.574825 758.650275 
L 580.541635 758.702748 
L 580.541635 758.702748 
" clip-path="url(#p7a3506f4c7)" style="fill: none; stroke: #0000ff; stroke-width: 2; stroke-linecap: square"/>
   </g>
   <g id="line2d_169">
    <path d="M 64.76359 756.836732 
L 91.603603 756.059447 
L 105.529763 755.639134 
L 111.401017 755.479098 
L 218.715837 752.442879 
L 219.582569 752.49007 
L 221.333251 752.619188 
L 223.532061 752.779401 
L 226.513188 753.001715 
L 232.666474 753.459975 
L 235.427451 753.661963 
L 237.497996 753.839358 
L 238.643444 753.896835 
L 241.272163 754.093846 
L 243.254797 754.222158 
L 244.414961 754.293816 
L 246.044975 754.405037 
L 248.130395 754.529406 
L 251.155605 754.700911 
L 260.950913 754.651325 
L 266.619592 754.008195 
L 270.878384 753.163732 
L 274.140734 752.0942 
L 275.545562 751.526653 
L 275.564609 751.899643 
L 275.608647 749.991724 
L 275.887551 717.781932 
L 276.00498 715.514197 
L 278.030703 710.490907 
L 279.469256 706.272771 
L 280.849096 701.592496 
L 282.17022 696.414598 
L 283.564738 690.032772 
L 284.900539 682.825947 
L 286.162945 674.812155 
L 287.410665 665.457595 
L 288.65839 654.343889 
L 289.847401 641.764125 
L 291.050288 626.639333 
L 292.238308 608.94417 
L 293.485323 587.017876 
L 294.893995 558.101512 
L 298.548904 480.379948 
L 299.194895 472.318269 
L 299.664704 468.825767 
L 299.987713 467.754355 
L 300.178609 467.648676 
L 300.325419 467.841643 
L 300.545677 468.582836 
L 300.854013 470.515611 
L 301.265157 474.677094 
L 301.808443 482.737581 
L 302.527984 497.150001 
L 303.600003 523.781735 
L 306.493167 597.665268 
L 307.726848 622.643012 
L 308.872421 641.528385 
L 309.988633 656.431424 
L 311.104839 668.380471 
L 312.191673 677.724544 
L 313.310972 685.485951 
L 314.456759 691.863283 
L 315.587848 696.918435 
L 316.851151 701.510391 
L 318.187899 705.369865 
L 319.255773 707.92031 
L 320.797787 710.942313 
L 322.44261 713.51646 
L 324.028669 715.550987 
L 326.12874 717.767689 
L 330.886909 721.435913 
L 337.201727 724.831648 
L 339.845133 725.971691 
L 340.71157 726.278932 
L 344.001136 727.550994 
L 345.117246 727.935727 
L 346.512379 728.404268 
L 348.700521 729.076906 
L 356.939098 731.430994 
L 368.628769 734.14815 
L 371.154671 734.703436 
L 373.063791 735.071517 
L 374.370797 735.337033 
L 384.151353 737.097146 
L 387.631821 737.719203 
L 388.557011 737.852591 
L 390.803899 738.198685 
L 393.917224 738.689332 
L 408.793683 740.790292 
L 410.320977 740.985609 
L 413.111235 741.358632 
L 414.932242 741.583042 
L 417.164445 741.864119 
L 452.116052 745.598798 
L 472.763963 747.451775 
L 475.378001 747.673831 
L 488.536288 748.738871 
L 492.98602 749.081343 
L 515.146593 750.710252 
L 519.302624 751.025949 
L 525.36778 751.434044 
L 530.830825 751.806176 
L 554.636205 753.368715 
L 557.720181 753.575466 
L 580.541635 755.006766 
L 580.541635 755.006766 
" clip-path="url(#p7a3506f4c7)" style="fill: none; stroke: #008000; stroke-width: 2; stroke-linecap: square"/>
   </g>
   <g id="patch_6">
    <path d="M 38.974687 758.823395 
L 606.330537 758.823395 
" style="fill: none; stroke: #000000; stroke-width: 0.8; stroke-linejoin: miter; stroke-linecap: square"/>
   </g>
   <g id="legend_2">
    <g id="patch_7">
     <path d="M 62.602612 422.754447 
L 582.702612 422.754447 
Q 585.502612 422.754447 585.502612 419.954447 
L 585.502612 400.354447 
Q 585.502612 397.554447 582.702612 397.554447 
L 62.602612 397.554447 
Q 59.802612 397.554447 59.802612 400.354447 
L 59.802612 419.954447 
Q 59.802612 422.754447 62.602612 422.754447 
z
" style="fill: #ffffff; stroke: #cccccc; stroke-linejoin: miter"/>
    </g>
    <g id="line2d_170">
     <path d="M 65.402612 408.754447 
L 79.402612 408.754447 
L 93.402612 408.754447 
" style="fill: none; stroke: #ff0000; stroke-width: 2; stroke-linecap: square"/>
    </g>
    <g id="text_29">
     <!-- $|Δr|/R_E$ ($Δr_{\rm{max}} = 145.0$ [km]) -->
     <g transform="translate(104.602612 413.654447) scale(0.14 -0.14)">
      <defs>
       <path id="Cmsy10-6a" d="M 763 -1484 
L 763 4684 
Q 763 4734 800 4767 
Q 838 4800 891 4800 
Q 938 4800 978 4767 
Q 1019 4734 1019 4684 
L 1019 -1484 
Q 1019 -1534 978 -1567 
Q 938 -1600 891 -1600 
Q 838 -1600 800 -1567 
Q 763 -1534 763 -1484 
z
" transform="scale(0.015625)"/>
       <path id="STIXGeneral-Regular-394" d="M 4320 0 
L 307 0 
L 2221 4314 
L 2349 4314 
L 4320 0 
z
M 3354 589 
L 2118 3405 
L 870 589 
L 3354 589 
z
" transform="scale(0.015625)"/>
       <path id="Cmmi10-3d" d="M 359 -1472 
Q 359 -1453 366 -1447 
L 2591 4722 
Q 2603 4759 2634 4779 
Q 2666 4800 2706 4800 
Q 2763 4800 2798 4765 
Q 2834 4731 2834 4672 
L 2834 4647 
L 609 -1522 
Q 572 -1600 488 -1600 
Q 434 -1600 396 -1562 
Q 359 -1525 359 -1472 
z
" transform="scale(0.015625)"/>
       <path id="TimesNewRomanPSMT-28" d="M 1988 -1253 
L 1988 -1369 
Q 1516 -1131 1200 -813 
Q 750 -359 506 256 
Q 263 872 263 1534 
Q 263 2503 741 3301 
Q 1219 4100 1988 4444 
L 1988 4313 
Q 1603 4100 1356 3731 
Q 1109 3363 987 2797 
Q 866 2231 866 1616 
Q 866 947 969 400 
Q 1050 -31 1165 -292 
Q 1281 -553 1476 -793 
Q 1672 -1034 1988 -1253 
z
" transform="scale(0.015625)"/>
       <path id="Cmr10-6d" d="M 191 0 
L 191 225 
Q 409 225 550 259 
Q 691 294 691 428 
L 691 2175 
Q 691 2347 639 2423 
Q 588 2500 491 2517 
Q 394 2534 191 2534 
L 191 2759 
L 1119 2828 
L 1119 2203 
Q 1247 2478 1498 2653 
Q 1750 2828 2047 2828 
Q 2784 2828 2913 2228 
Q 3041 2497 3287 2662 
Q 3534 2828 3828 2828 
Q 4119 2828 4317 2734 
Q 4516 2641 4616 2448 
Q 4716 2256 4716 1966 
L 4716 428 
Q 4716 294 4858 259 
Q 5000 225 5216 225 
L 5216 0 
L 3750 0 
L 3750 225 
Q 3969 225 4109 259 
Q 4250 294 4250 428 
L 4250 1947 
Q 4250 2269 4159 2466 
Q 4069 2663 3788 2663 
Q 3419 2663 3178 2366 
Q 2938 2069 2938 1691 
L 2938 428 
Q 2938 294 3078 259 
Q 3219 225 3438 225 
L 3438 0 
L 1972 0 
L 1972 225 
Q 2191 225 2331 259 
Q 2472 294 2472 428 
L 2472 1947 
Q 2472 2259 2381 2461 
Q 2291 2663 2009 2663 
Q 1638 2663 1398 2366 
Q 1159 2069 1159 1691 
L 1159 428 
Q 1159 294 1300 259 
Q 1441 225 1656 225 
L 1656 0 
L 191 0 
z
" transform="scale(0.015625)"/>
       <path id="Cmr10-61" d="M 256 628 
Q 256 1009 556 1248 
Q 856 1488 1276 1586 
Q 1697 1684 2075 1684 
L 2075 1947 
Q 2075 2131 1994 2304 
Q 1913 2478 1759 2589 
Q 1606 2700 1422 2700 
Q 997 2700 775 2509 
Q 897 2509 976 2417 
Q 1056 2325 1056 2203 
Q 1056 2075 965 1984 
Q 875 1894 750 1894 
Q 622 1894 531 1984 
Q 441 2075 441 2203 
Q 441 2541 747 2705 
Q 1053 2869 1422 2869 
Q 1681 2869 1943 2758 
Q 2206 2647 2373 2440 
Q 2541 2234 2541 1959 
L 2541 519 
Q 2541 394 2594 289 
Q 2647 184 2759 184 
Q 2866 184 2917 290 
Q 2969 397 2969 519 
L 2969 928 
L 3156 928 
L 3156 519 
Q 3156 375 3081 245 
Q 3006 116 2879 39 
Q 2753 -38 2606 -38 
Q 2419 -38 2283 107 
Q 2147 253 2131 453 
Q 2013 213 1781 70 
Q 1550 -72 1288 -72 
Q 1044 -72 808 0 
Q 572 72 414 226 
Q 256 381 256 628 
z
M 775 628 
Q 775 403 940 250 
Q 1106 97 1331 97 
Q 1538 97 1706 200 
Q 1875 303 1975 481 
Q 2075 659 2075 856 
L 2075 1522 
Q 1784 1522 1479 1426 
Q 1175 1331 975 1128 
Q 775 925 775 628 
z
" transform="scale(0.015625)"/>
       <path id="Cmr10-78" d="M 78 0 
L 78 225 
Q 322 225 537 320 
Q 753 416 903 603 
L 1484 1344 
L 728 2328 
Q 616 2469 483 2501 
Q 350 2534 109 2534 
L 109 2759 
L 1441 2759 
L 1441 2534 
Q 1356 2534 1282 2496 
Q 1209 2459 1209 2388 
Q 1209 2363 1228 2328 
L 1741 1663 
L 2125 2156 
Q 2203 2250 2203 2344 
Q 2203 2422 2151 2478 
Q 2100 2534 2016 2534 
L 2016 2759 
L 3194 2759 
L 3194 2534 
Q 2947 2534 2730 2439 
Q 2513 2344 2363 2156 
L 1856 1509 
L 2675 428 
Q 2797 288 2928 256 
Q 3059 225 3303 225 
L 3303 0 
L 1972 0 
L 1972 225 
Q 2050 225 2122 262 
Q 2194 300 2194 372 
Q 2194 400 2175 428 
L 1600 1191 
L 1141 603 
Q 1069 522 1069 416 
Q 1069 338 1122 281 
Q 1175 225 1247 225 
L 1247 0 
L 78 0 
z
" transform="scale(0.015625)"/>
       <path id="Cmr10-3d" d="M 481 850 
Q 428 850 393 890 
Q 359 931 359 978 
Q 359 1031 393 1068 
Q 428 1106 481 1106 
L 4500 1106 
Q 4547 1106 4581 1068 
Q 4616 1031 4616 978 
Q 4616 931 4581 890 
Q 4547 850 4500 850 
L 481 850 
z
M 481 2094 
Q 428 2094 393 2131 
Q 359 2169 359 2222 
Q 359 2269 393 2309 
Q 428 2350 481 2350 
L 4500 2350 
Q 4547 2350 4581 2309 
Q 4616 2269 4616 2222 
Q 4616 2169 4581 2131 
Q 4547 2094 4500 2094 
L 481 2094 
z
" transform="scale(0.015625)"/>
       <path id="Cmr10-31" d="M 594 0 
L 594 225 
Q 1394 225 1394 428 
L 1394 3788 
Q 1063 3628 556 3628 
L 556 3853 
Q 1341 3853 1741 4263 
L 1831 4263 
Q 1853 4263 1873 4245 
Q 1894 4228 1894 4206 
L 1894 428 
Q 1894 225 2694 225 
L 2694 0 
L 594 0 
z
" transform="scale(0.015625)"/>
       <path id="Cmr10-34" d="M 178 1056 
L 178 1281 
L 2156 4231 
Q 2178 4263 2222 4263 
L 2316 4263 
Q 2388 4263 2388 4191 
L 2388 1281 
L 3016 1281 
L 3016 1056 
L 2388 1056 
L 2388 428 
Q 2388 297 2575 261 
Q 2763 225 3009 225 
L 3009 0 
L 1247 0 
L 1247 225 
Q 1494 225 1681 261 
Q 1869 297 1869 428 
L 1869 1056 
L 178 1056 
z
M 391 1281 
L 1906 1281 
L 1906 3547 
L 391 1281 
z
" transform="scale(0.015625)"/>
       <path id="Cmr10-35" d="M 556 728 
Q 622 541 758 387 
Q 894 234 1080 148 
Q 1266 63 1466 63 
Q 1928 63 2103 422 
Q 2278 781 2278 1294 
Q 2278 1516 2270 1667 
Q 2263 1819 2228 1959 
Q 2169 2184 2020 2353 
Q 1872 2522 1656 2522 
Q 1441 2522 1286 2456 
Q 1131 2391 1034 2303 
Q 938 2216 863 2119 
Q 788 2022 769 2016 
L 697 2016 
Q 681 2016 657 2036 
Q 634 2056 634 2075 
L 634 4213 
Q 634 4228 654 4245 
Q 675 4263 697 4263 
L 716 4263 
Q 1147 4056 1631 4056 
Q 2106 4056 2547 4263 
L 2566 4263 
Q 2588 4263 2606 4247 
Q 2625 4231 2625 4213 
L 2625 4153 
Q 2625 4122 2613 4122 
Q 2394 3831 2064 3668 
Q 1734 3506 1381 3506 
Q 1125 3506 856 3578 
L 856 2369 
Q 1069 2541 1236 2614 
Q 1403 2688 1663 2688 
Q 2016 2688 2295 2484 
Q 2575 2281 2725 1954 
Q 2875 1628 2875 1288 
Q 2875 903 2686 575 
Q 2497 247 2172 53 
Q 1847 -141 1466 -141 
Q 1150 -141 886 21 
Q 622 184 470 459 
Q 319 734 319 1044 
Q 319 1188 412 1278 
Q 506 1369 647 1369 
Q 788 1369 883 1276 
Q 978 1184 978 1044 
Q 978 906 883 811 
Q 788 716 647 716 
Q 625 716 597 720 
Q 569 725 556 728 
z
" transform="scale(0.015625)"/>
       <path id="Cmmi10-3a" d="M 538 353 
Q 538 497 644 600 
Q 750 703 891 703 
Q 978 703 1062 656 
Q 1147 609 1194 525 
Q 1241 441 1241 353 
Q 1241 213 1137 106 
Q 1034 0 891 0 
Q 750 0 644 106 
Q 538 213 538 353 
z
" transform="scale(0.015625)"/>
       <path id="Cmr10-30" d="M 1600 -141 
Q 816 -141 533 504 
Q 250 1150 250 2041 
Q 250 2597 351 3087 
Q 453 3578 754 3920 
Q 1056 4263 1600 4263 
Q 2022 4263 2290 4056 
Q 2559 3850 2700 3523 
Q 2841 3197 2892 2823 
Q 2944 2450 2944 2041 
Q 2944 1491 2842 1011 
Q 2741 531 2444 195 
Q 2147 -141 1600 -141 
z
M 1600 25 
Q 1956 25 2131 390 
Q 2306 756 2347 1200 
Q 2388 1644 2388 2144 
Q 2388 2625 2347 3031 
Q 2306 3438 2132 3767 
Q 1959 4097 1600 4097 
Q 1238 4097 1063 3765 
Q 888 3434 847 3029 
Q 806 2625 806 2144 
Q 806 1788 823 1472 
Q 841 1156 916 820 
Q 991 484 1158 254 
Q 1325 25 1600 25 
z
" transform="scale(0.015625)"/>
       <path id="TimesNewRomanPSMT-5b" d="M 1900 -1269 
L 525 -1269 
L 525 4334 
L 1900 4334 
L 1900 4088 
L 994 4088 
L 994 -1025 
L 1900 -1025 
L 1900 -1269 
z
" transform="scale(0.015625)"/>
       <path id="TimesNewRomanPSMT-6b" d="M 1047 4444 
L 1047 1594 
L 1775 2259 
Q 2006 2472 2044 2528 
Q 2069 2566 2069 2603 
Q 2069 2666 2017 2711 
Q 1966 2756 1847 2763 
L 1847 2863 
L 3091 2863 
L 3091 2763 
Q 2834 2756 2664 2684 
Q 2494 2613 2291 2428 
L 1556 1750 
L 2291 822 
Q 2597 438 2703 334 
Q 2853 188 2966 144 
Q 3044 113 3238 113 
L 3238 0 
L 1847 0 
L 1847 113 
Q 1966 116 2008 148 
Q 2050 181 2050 241 
Q 2050 313 1925 472 
L 1047 1594 
L 1047 644 
Q 1047 366 1086 278 
Q 1125 191 1197 153 
Q 1269 116 1509 113 
L 1509 0 
L 53 0 
L 53 113 
Q 272 113 381 166 
Q 447 200 481 272 
Q 528 375 528 628 
L 528 3234 
Q 528 3731 506 3842 
Q 484 3953 434 3995 
Q 384 4038 303 4038 
Q 238 4038 106 3984 
L 53 4094 
L 903 4444 
L 1047 4444 
z
" transform="scale(0.015625)"/>
       <path id="TimesNewRomanPSMT-6d" d="M 1050 2338 
Q 1363 2650 1419 2697 
Q 1559 2816 1721 2881 
Q 1884 2947 2044 2947 
Q 2313 2947 2506 2790 
Q 2700 2634 2766 2338 
Q 3088 2713 3309 2830 
Q 3531 2947 3766 2947 
Q 3994 2947 4170 2830 
Q 4347 2713 4450 2447 
Q 4519 2266 4519 1878 
L 4519 647 
Q 4519 378 4559 278 
Q 4591 209 4675 161 
Q 4759 113 4950 113 
L 4950 0 
L 3538 0 
L 3538 113 
L 3597 113 
Q 3781 113 3884 184 
Q 3956 234 3988 344 
Q 4000 397 4000 647 
L 4000 1878 
Q 4000 2228 3916 2372 
Q 3794 2572 3525 2572 
Q 3359 2572 3192 2489 
Q 3025 2406 2788 2181 
L 2781 2147 
L 2788 2013 
L 2788 647 
Q 2788 353 2820 281 
Q 2853 209 2943 161 
Q 3034 113 3253 113 
L 3253 0 
L 1806 0 
L 1806 113 
Q 2044 113 2133 169 
Q 2222 225 2256 338 
Q 2272 391 2272 647 
L 2272 1878 
Q 2272 2228 2169 2381 
Q 2031 2581 1784 2581 
Q 1616 2581 1450 2491 
Q 1191 2353 1050 2181 
L 1050 647 
Q 1050 366 1089 281 
Q 1128 197 1204 155 
Q 1281 113 1516 113 
L 1516 0 
L 100 0 
L 100 113 
Q 297 113 375 155 
Q 453 197 493 289 
Q 534 381 534 647 
L 534 1741 
Q 534 2213 506 2350 
Q 484 2453 437 2492 
Q 391 2531 309 2531 
Q 222 2531 100 2484 
L 53 2597 
L 916 2947 
L 1050 2947 
L 1050 2338 
z
" transform="scale(0.015625)"/>
       <path id="TimesNewRomanPSMT-5d" d="M 234 4334 
L 1609 4334 
L 1609 -1272 
L 234 -1272 
L 234 -1025 
L 1141 -1025 
L 1141 4088 
L 234 4088 
L 234 4334 
z
" transform="scale(0.015625)"/>
       <path id="TimesNewRomanPSMT-29" d="M 144 4313 
L 144 4444 
Q 619 4209 934 3891 
Q 1381 3434 1625 2820 
Q 1869 2206 1869 1541 
Q 1869 572 1392 -226 
Q 916 -1025 144 -1369 
L 144 -1253 
Q 528 -1038 776 -670 
Q 1025 -303 1145 264 
Q 1266 831 1266 1447 
Q 1266 2113 1163 2663 
Q 1084 3094 967 3353 
Q 850 3613 656 3853 
Q 463 4094 144 4313 
z
" transform="scale(0.015625)"/>
      </defs>
      <use xlink:href="#Cmsy10-6a"/>
      <use xlink:href="#STIXGeneral-Regular-394" transform="translate(27.685547 0)"/>
      <use xlink:href="#Cmmi10-72" transform="translate(99.885529 0)"/>
      <use xlink:href="#Cmsy10-6a" transform="translate(145.002716 0)"/>
      <use xlink:href="#Cmmi10-3d" transform="translate(172.688263 0)"/>
      <use xlink:href="#Cmmi10-52" transform="translate(222.688263 0)"/>
      <use xlink:href="#Cmmi10-45" transform="translate(298.567169 -17.00625) scale(0.7)"/>
      <use xlink:href="#TimesNewRomanPSMT-20" transform="translate(356.590021 0)"/>
      <use xlink:href="#TimesNewRomanPSMT-28" transform="translate(381.590021 0)"/>
      <use xlink:href="#STIXGeneral-Regular-394" transform="translate(414.890802 0)"/>
      <use xlink:href="#Cmmi10-72" transform="translate(487.090784 0)"/>
      <use xlink:href="#Cmr10-6d" transform="translate(532.207971 -17.00625) scale(0.7)"/>
      <use xlink:href="#Cmr10-61" transform="translate(590.518518 -17.00625) scale(0.7)"/>
      <use xlink:href="#Cmr10-78" transform="translate(625.518518 -17.00625) scale(0.7)"/>
      <use xlink:href="#Cmr10-3d" transform="translate(686.334338 0)"/>
      <use xlink:href="#Cmr10-31" transform="translate(781.578479 0)"/>
      <use xlink:href="#Cmr10-34" transform="translate(831.578479 0)"/>
      <use xlink:href="#Cmr10-35" transform="translate(881.578479 0)"/>
      <use xlink:href="#Cmmi10-3a" transform="translate(931.578479 0)"/>
      <use xlink:href="#Cmr10-30" transform="translate(959.264026 0)"/>
      <use xlink:href="#TimesNewRomanPSMT-20" transform="translate(1009.264026 0)"/>
      <use xlink:href="#TimesNewRomanPSMT-5b" transform="translate(1034.264026 0)"/>
      <use xlink:href="#TimesNewRomanPSMT-6b" transform="translate(1067.564807 0)"/>
      <use xlink:href="#TimesNewRomanPSMT-6d" transform="translate(1117.564807 0)"/>
      <use xlink:href="#TimesNewRomanPSMT-5d" transform="translate(1195.34801 0)"/>
      <use xlink:href="#TimesNewRomanPSMT-29" transform="translate(1228.648792 0)"/>
     </g>
    </g>
    <g id="line2d_171">
     <path d="M 309.282612 408.754447 
L 323.282612 408.754447 
L 337.282612 408.754447 
" style="fill: none; stroke: #0000ff; stroke-width: 2; stroke-linecap: square"/>
    </g>
    <g id="text_30">
     <!-- $|Δr|/\overline{r}$  (max= 1/55) -->
     <g transform="translate(348.482612 413.654447) scale(0.14 -0.14)">
      <defs>
       <path id="TimesNewRomanPSMT-61" d="M 1822 413 
Q 1381 72 1269 19 
Q 1100 -59 909 -59 
Q 613 -59 420 144 
Q 228 347 228 678 
Q 228 888 322 1041 
Q 450 1253 767 1440 
Q 1084 1628 1822 1897 
L 1822 2009 
Q 1822 2438 1686 2597 
Q 1550 2756 1291 2756 
Q 1094 2756 978 2650 
Q 859 2544 859 2406 
L 866 2225 
Q 866 2081 792 2003 
Q 719 1925 600 1925 
Q 484 1925 411 2006 
Q 338 2088 338 2228 
Q 338 2497 613 2722 
Q 888 2947 1384 2947 
Q 1766 2947 2009 2819 
Q 2194 2722 2281 2516 
Q 2338 2381 2338 1966 
L 2338 994 
Q 2338 584 2353 492 
Q 2369 400 2405 369 
Q 2441 338 2488 338 
Q 2538 338 2575 359 
Q 2641 400 2828 588 
L 2828 413 
Q 2478 -56 2159 -56 
Q 2006 -56 1915 50 
Q 1825 156 1822 413 
z
M 1822 616 
L 1822 1706 
Q 1350 1519 1213 1441 
Q 966 1303 859 1153 
Q 753 1003 753 825 
Q 753 600 887 451 
Q 1022 303 1197 303 
Q 1434 303 1822 616 
z
" transform="scale(0.015625)"/>
       <path id="TimesNewRomanPSMT-78" d="M 84 2863 
L 1431 2863 
L 1431 2747 
Q 1303 2747 1251 2703 
Q 1200 2659 1200 2588 
Q 1200 2513 1309 2356 
Q 1344 2306 1413 2200 
L 1616 1875 
L 1850 2200 
Q 2075 2509 2075 2591 
Q 2075 2656 2022 2701 
Q 1969 2747 1850 2747 
L 1850 2863 
L 2819 2863 
L 2819 2747 
Q 2666 2738 2553 2663 
Q 2400 2556 2134 2200 
L 1744 1678 
L 2456 653 
Q 2719 275 2831 198 
Q 2944 122 3122 113 
L 3122 0 
L 1772 0 
L 1772 113 
Q 1913 113 1991 175 
Q 2050 219 2050 291 
Q 2050 363 1850 653 
L 1431 1266 
L 972 653 
Q 759 369 759 316 
Q 759 241 829 180 
Q 900 119 1041 113 
L 1041 0 
L 106 0 
L 106 113 
Q 219 128 303 191 
Q 422 281 703 653 
L 1303 1450 
L 759 2238 
Q 528 2575 401 2661 
Q 275 2747 84 2747 
L 84 2863 
z
" transform="scale(0.015625)"/>
       <path id="TimesNewRomanPSMT-3d" d="M 116 2759 
L 3488 2759 
L 3488 2503 
L 116 2503 
L 116 2759 
z
M 116 1741 
L 3488 1741 
L 3488 1484 
L 116 1484 
L 116 1741 
z
" transform="scale(0.015625)"/>
      </defs>
      <use xlink:href="#Cmsy10-6a"/>
      <use xlink:href="#STIXGeneral-Regular-394" transform="translate(27.685547 0)"/>
      <use xlink:href="#Cmmi10-72" transform="translate(99.885529 0)"/>
      <use xlink:href="#Cmsy10-6a" transform="translate(145.002716 0)"/>
      <use xlink:href="#Cmmi10-3d" transform="translate(172.688263 0)"/>
      <use xlink:href="#Cmmi10-72" transform="translate(222.688263 0.5)"/>
      <use xlink:href="#TimesNewRomanPSMT-20" transform="translate(267.80545 0)"/>
      <use xlink:href="#TimesNewRomanPSMT-20" transform="translate(292.80545 0)"/>
      <use xlink:href="#TimesNewRomanPSMT-28" transform="translate(317.80545 0)"/>
      <use xlink:href="#TimesNewRomanPSMT-6d" transform="translate(351.106232 0)"/>
      <use xlink:href="#TimesNewRomanPSMT-61" transform="translate(428.889435 0)"/>
      <use xlink:href="#TimesNewRomanPSMT-78" transform="translate(473.2742 0)"/>
      <use xlink:href="#TimesNewRomanPSMT-3d" transform="translate(523.2742 0)"/>
      <use xlink:href="#TimesNewRomanPSMT-20" transform="translate(579.670685 0)"/>
      <use xlink:href="#TimesNewRomanPSMT-31" transform="translate(604.670685 0)"/>
      <use xlink:href="#TimesNewRomanPSMT-2f" transform="translate(654.670685 0)"/>
      <use xlink:href="#TimesNewRomanPSMT-35" transform="translate(682.453888 0)"/>
      <use xlink:href="#TimesNewRomanPSMT-35" transform="translate(732.453888 0)"/>
      <use xlink:href="#TimesNewRomanPSMT-29" transform="translate(782.453888 0)"/>
      <path d="M 222.688263 56.4375 
L 222.688263 62.6875 
L 267.80545 62.6875 
L 267.80545 56.4375 
L 222.688263 56.4375 
z
"/>
     </g>
    </g>
    <g id="line2d_172">
     <path d="M 490.722612 408.754447 
L 504.722612 408.754447 
L 518.722612 408.754447 
" style="fill: none; stroke: #008000; stroke-width: 2; stroke-linecap: square"/>
    </g>
    <g id="text_31">
     <!-- $Δθ$ [deg] -->
     <g transform="translate(529.922612 413.654447) scale(0.14 -0.14)">
      <defs>
       <path id="STIXGeneral-Italic-3b8" d="M 3162 3270 
Q 3162 2534 2925 1862 
Q 2688 1190 2304 678 
Q 1741 -70 992 -70 
Q 608 -70 390 224 
Q 173 518 173 1030 
Q 173 1997 592 2813 
Q 1011 3629 1594 4070 
Q 1952 4339 2374 4339 
Q 2733 4339 2947 4076 
Q 3162 3814 3162 3270 
z
M 941 2221 
L 2432 2221 
Q 2624 2874 2624 3533 
Q 2624 4205 2285 4205 
Q 2029 4205 1728 3814 
Q 1427 3424 1232 2992 
Q 1037 2560 941 2221 
z
M 2387 2016 
L 896 2016 
Q 710 1530 710 960 
Q 710 64 1069 64 
Q 1286 64 1510 275 
Q 1734 486 1904 806 
Q 2074 1126 2198 1440 
Q 2323 1754 2387 2016 
z
" transform="scale(0.015625)"/>
       <path id="TimesNewRomanPSMT-64" d="M 2222 322 
Q 2013 103 1813 7 
Q 1613 -88 1381 -88 
Q 913 -88 563 304 
Q 213 697 213 1313 
Q 213 1928 600 2439 
Q 988 2950 1597 2950 
Q 1975 2950 2222 2709 
L 2222 3238 
Q 2222 3728 2198 3840 
Q 2175 3953 2125 3993 
Q 2075 4034 2000 4034 
Q 1919 4034 1784 3984 
L 1744 4094 
L 2597 4444 
L 2738 4444 
L 2738 1134 
Q 2738 631 2761 520 
Q 2784 409 2836 365 
Q 2888 322 2956 322 
Q 3041 322 3181 375 
L 3216 266 
L 2366 -88 
L 2222 -88 
L 2222 322 
z
M 2222 541 
L 2222 2016 
Q 2203 2228 2109 2403 
Q 2016 2578 1861 2667 
Q 1706 2756 1559 2756 
Q 1284 2756 1069 2509 
Q 784 2184 784 1559 
Q 784 928 1059 592 
Q 1334 256 1672 256 
Q 1956 256 2222 541 
z
" transform="scale(0.015625)"/>
       <path id="TimesNewRomanPSMT-67" d="M 966 1044 
Q 703 1172 562 1401 
Q 422 1631 422 1909 
Q 422 2334 742 2640 
Q 1063 2947 1563 2947 
Q 1972 2947 2272 2747 
L 2878 2747 
Q 3013 2747 3034 2739 
Q 3056 2731 3066 2713 
Q 3084 2684 3084 2613 
Q 3084 2531 3069 2500 
Q 3059 2484 3036 2475 
Q 3013 2466 2878 2466 
L 2506 2466 
Q 2681 2241 2681 1891 
Q 2681 1491 2375 1206 
Q 2069 922 1553 922 
Q 1341 922 1119 984 
Q 981 866 932 777 
Q 884 688 884 625 
Q 884 572 936 522 
Q 988 472 1138 450 
Q 1225 438 1575 428 
Q 2219 413 2409 384 
Q 2700 344 2873 169 
Q 3047 -6 3047 -263 
Q 3047 -616 2716 -925 
Q 2228 -1381 1444 -1381 
Q 841 -1381 425 -1109 
Q 191 -953 191 -784 
Q 191 -709 225 -634 
Q 278 -519 444 -313 
Q 466 -284 763 25 
Q 600 122 533 198 
Q 466 275 466 372 
Q 466 481 555 628 
Q 644 775 966 1044 
z
M 1509 2797 
Q 1278 2797 1122 2612 
Q 966 2428 966 2047 
Q 966 1553 1178 1281 
Q 1341 1075 1591 1075 
Q 1828 1075 1981 1253 
Q 2134 1431 2134 1813 
Q 2134 2309 1919 2591 
Q 1759 2797 1509 2797 
z
M 934 0 
Q 788 -159 713 -296 
Q 638 -434 638 -550 
Q 638 -700 819 -813 
Q 1131 -1006 1722 -1006 
Q 2284 -1006 2551 -807 
Q 2819 -609 2819 -384 
Q 2819 -222 2659 -153 
Q 2497 -84 2016 -72 
Q 1313 -53 934 0 
z
" transform="scale(0.015625)"/>
      </defs>
      <use xlink:href="#STIXGeneral-Regular-394" transform="translate(0 0.5625)"/>
      <use xlink:href="#STIXGeneral-Italic-3b8" transform="translate(72.199982 0.5625)"/>
      <use xlink:href="#TimesNewRomanPSMT-20" transform="translate(120.199966 0.5625)"/>
      <use xlink:href="#TimesNewRomanPSMT-5b" transform="translate(145.199966 0.5625)"/>
      <use xlink:href="#TimesNewRomanPSMT-64" transform="translate(178.500748 0.5625)"/>
      <use xlink:href="#TimesNewRomanPSMT-65" transform="translate(228.500748 0.5625)"/>
      <use xlink:href="#TimesNewRomanPSMT-67" transform="translate(272.885513 0.5625)"/>
      <use xlink:href="#TimesNewRomanPSMT-5d" transform="translate(322.885513 0.5625)"/>
     </g>
    </g>
   </g>
  </g>
 </g>
 <defs>
  <clipPath id="p1de24f188d">
   <rect x="38.974688" y="24.8655" width="567.35585" height="361.268947"/>
  </clipPath>
  <clipPath id="p7a3506f4c7">
   <rect x="38.974688" y="397.554447" width="567.35585" height="361.268947"/>
  </clipPath>
 </defs>
</svg>
