<?xml version="1.0" encoding="utf-8" standalone="no"?>
<!DOCTYPE svg PUBLIC "-//W3C//DTD SVG 1.1//EN"
  "http://www.w3.org/Graphics/SVG/1.1/DTD/svg11.dtd">
<svg xmlns:xlink="http://www.w3.org/1999/xlink" width="620.412232pt" height="800.39952pt" viewBox="0 0 620.412232 800.39952" xmlns="http://www.w3.org/2000/svg" version="1.1">
 <metadata>
  <rdf:RDF xmlns:dc="http://purl.org/dc/elements/1.1/" xmlns:cc="http://creativecommons.org/ns#" xmlns:rdf="http://www.w3.org/1999/02/22-rdf-syntax-ns#">
   <cc:Work>
    <dc:type rdf:resource="http://purl.org/dc/dcmitype/StillImage"/>
    <dc:date>2025-05-15T15:56:20.567498</dc:date>
    <dc:format>image/svg+xml</dc:format>
    <dc:creator>
     <cc:Agent>
      <dc:title>Matplotlib v3.8.4, https://matplotlib.org/</dc:title>
     </cc:Agent>
    </dc:creator>
   </cc:Work>
  </rdf:RDF>
 </metadata>
 <defs>
  <style type="text/css">*{stroke-linejoin: round; stroke-linecap: butt}</style>
 </defs>
 <g id="figure_1">
  <g id="patch_1">
   <path d="M 0 800.39952 
L 620.412232 800.39952 
L 620.412232 0 
L 0 0 
z
" style="fill: #ffffff"/>
  </g>
  <g id="axes_1">
   <g id="patch_2">
    <path d="M 38.974688 386.134447 
L 606.330537 386.134447 
L 606.330537 24.8655 
L 38.974688 24.8655 
z
" style="fill: #ffffff"/>
   </g>
   <g id="matplotlib.axis_1">
    <g id="xtick_1">
     <g id="line2d_1">
      <path d="M 64.746378 386.134447 
L 64.746378 24.8655 
" clip-path="url(#p33fd455ecc)" style="fill: none; stroke: #b0b0b0; stroke-width: 0.8; stroke-linecap: square"/>
     </g>
     <g id="line2d_2">
      <defs>
       <path id="me6fd2af8ef" d="M 0 0 
L 0 3.5 
" style="stroke: #000000; stroke-width: 0.8"/>
      </defs>
      <g>
       <use xlink:href="#me6fd2af8ef" x="64.746378" y="386.134447" style="stroke: #000000; stroke-width: 0.8"/>
      </g>
     </g>
    </g>
    <g id="xtick_2">
     <g id="line2d_3">
      <path d="M 150.71376 386.134447 
L 150.71376 24.8655 
" clip-path="url(#p33fd455ecc)" style="fill: none; stroke: #b0b0b0; stroke-width: 0.8; stroke-linecap: square"/>
     </g>
     <g id="line2d_4">
      <g>
       <use xlink:href="#me6fd2af8ef" x="150.71376" y="386.134447" style="stroke: #000000; stroke-width: 0.8"/>
      </g>
     </g>
    </g>
    <g id="xtick_3">
     <g id="line2d_5">
      <path d="M 236.681142 386.134447 
L 236.681142 24.8655 
" clip-path="url(#p33fd455ecc)" style="fill: none; stroke: #b0b0b0; stroke-width: 0.8; stroke-linecap: square"/>
     </g>
     <g id="line2d_6">
      <g>
       <use xlink:href="#me6fd2af8ef" x="236.681142" y="386.134447" style="stroke: #000000; stroke-width: 0.8"/>
      </g>
     </g>
    </g>
    <g id="xtick_4">
     <g id="line2d_7">
      <path d="M 322.648524 386.134447 
L 322.648524 24.8655 
" clip-path="url(#p33fd455ecc)" style="fill: none; stroke: #b0b0b0; stroke-width: 0.8; stroke-linecap: square"/>
     </g>
     <g id="line2d_8">
      <g>
       <use xlink:href="#me6fd2af8ef" x="322.648524" y="386.134447" style="stroke: #000000; stroke-width: 0.8"/>
      </g>
     </g>
    </g>
    <g id="xtick_5">
     <g id="line2d_9">
      <path d="M 408.615906 386.134447 
L 408.615906 24.8655 
" clip-path="url(#p33fd455ecc)" style="fill: none; stroke: #b0b0b0; stroke-width: 0.8; stroke-linecap: square"/>
     </g>
     <g id="line2d_10">
      <g>
       <use xlink:href="#me6fd2af8ef" x="408.615906" y="386.134447" style="stroke: #000000; stroke-width: 0.8"/>
      </g>
     </g>
    </g>
    <g id="xtick_6">
     <g id="line2d_11">
      <path d="M 494.583288 386.134447 
L 494.583288 24.8655 
" clip-path="url(#p33fd455ecc)" style="fill: none; stroke: #b0b0b0; stroke-width: 0.8; stroke-linecap: square"/>
     </g>
     <g id="line2d_12">
      <g>
       <use xlink:href="#me6fd2af8ef" x="494.583288" y="386.134447" style="stroke: #000000; stroke-width: 0.8"/>
      </g>
     </g>
    </g>
    <g id="xtick_7">
     <g id="line2d_13">
      <path d="M 580.55067 386.134447 
L 580.55067 24.8655 
" clip-path="url(#p33fd455ecc)" style="fill: none; stroke: #b0b0b0; stroke-width: 0.8; stroke-linecap: square"/>
     </g>
     <g id="line2d_14">
      <g>
       <use xlink:href="#me6fd2af8ef" x="580.55067" y="386.134447" style="stroke: #000000; stroke-width: 0.8"/>
      </g>
     </g>
    </g>
    <g id="xtick_8">
     <g id="line2d_15">
      <path d="M 107.730069 386.134447 
L 107.730069 24.8655 
" clip-path="url(#p33fd455ecc)" style="fill: none; stroke-dasharray: 0.5,0.825; stroke-dashoffset: 0; stroke: #bfbfbf; stroke-width: 0.5"/>
     </g>
     <g id="line2d_16">
      <defs>
       <path id="m98d87deb43" d="M 0 0 
L 0 2 
" style="stroke: #000000; stroke-width: 0.6"/>
      </defs>
      <g>
       <use xlink:href="#m98d87deb43" x="107.730069" y="386.134447" style="stroke: #000000; stroke-width: 0.6"/>
      </g>
     </g>
    </g>
    <g id="xtick_9">
     <g id="line2d_17">
      <path d="M 193.697451 386.134447 
L 193.697451 24.8655 
" clip-path="url(#p33fd455ecc)" style="fill: none; stroke-dasharray: 0.5,0.825; stroke-dashoffset: 0; stroke: #bfbfbf; stroke-width: 0.5"/>
     </g>
     <g id="line2d_18">
      <g>
       <use xlink:href="#m98d87deb43" x="193.697451" y="386.134447" style="stroke: #000000; stroke-width: 0.6"/>
      </g>
     </g>
    </g>
    <g id="xtick_10">
     <g id="line2d_19">
      <path d="M 279.664833 386.134447 
L 279.664833 24.8655 
" clip-path="url(#p33fd455ecc)" style="fill: none; stroke-dasharray: 0.5,0.825; stroke-dashoffset: 0; stroke: #bfbfbf; stroke-width: 0.5"/>
     </g>
     <g id="line2d_20">
      <g>
       <use xlink:href="#m98d87deb43" x="279.664833" y="386.134447" style="stroke: #000000; stroke-width: 0.6"/>
      </g>
     </g>
    </g>
    <g id="xtick_11">
     <g id="line2d_21">
      <path d="M 365.632215 386.134447 
L 365.632215 24.8655 
" clip-path="url(#p33fd455ecc)" style="fill: none; stroke-dasharray: 0.5,0.825; stroke-dashoffset: 0; stroke: #bfbfbf; stroke-width: 0.5"/>
     </g>
     <g id="line2d_22">
      <g>
       <use xlink:href="#m98d87deb43" x="365.632215" y="386.134447" style="stroke: #000000; stroke-width: 0.6"/>
      </g>
     </g>
    </g>
    <g id="xtick_12">
     <g id="line2d_23">
      <path d="M 451.599597 386.134447 
L 451.599597 24.8655 
" clip-path="url(#p33fd455ecc)" style="fill: none; stroke-dasharray: 0.5,0.825; stroke-dashoffset: 0; stroke: #bfbfbf; stroke-width: 0.5"/>
     </g>
     <g id="line2d_24">
      <g>
       <use xlink:href="#m98d87deb43" x="451.599597" y="386.134447" style="stroke: #000000; stroke-width: 0.6"/>
      </g>
     </g>
    </g>
    <g id="xtick_13">
     <g id="line2d_25">
      <path d="M 537.566979 386.134447 
L 537.566979 24.8655 
" clip-path="url(#p33fd455ecc)" style="fill: none; stroke-dasharray: 0.5,0.825; stroke-dashoffset: 0; stroke: #bfbfbf; stroke-width: 0.5"/>
     </g>
     <g id="line2d_26">
      <g>
       <use xlink:href="#m98d87deb43" x="537.566979" y="386.134447" style="stroke: #000000; stroke-width: 0.6"/>
      </g>
     </g>
    </g>
   </g>
   <g id="matplotlib.axis_2">
    <g id="ytick_1">
     <g id="line2d_27">
      <path d="M 38.974688 350.423124 
L 606.330537 350.423124 
" clip-path="url(#p33fd455ecc)" style="fill: none; stroke: #b0b0b0; stroke-width: 0.8; stroke-linecap: square"/>
     </g>
     <g id="line2d_28"/>
     <g id="text_1">
      <!-- −5 -->
      <g transform="translate(20.58 355.283749) scale(0.14 -0.14)">
       <defs>
        <path id="TimesNewRomanPSMT-2212" d="M 3484 2000 
L 116 2000 
L 116 2256 
L 3484 2256 
L 3484 2000 
z
" transform="scale(0.015625)"/>
        <path id="TimesNewRomanPSMT-35" d="M 2778 4238 
L 2534 3706 
L 1259 3706 
L 981 3138 
Q 1809 3016 2294 2522 
Q 2709 2097 2709 1522 
Q 2709 1188 2573 903 
Q 2438 619 2231 419 
Q 2025 219 1772 97 
Q 1413 -75 1034 -75 
Q 653 -75 479 54 
Q 306 184 306 341 
Q 306 428 378 495 
Q 450 563 559 563 
Q 641 563 702 538 
Q 763 513 909 409 
Q 1144 247 1384 247 
Q 1750 247 2026 523 
Q 2303 800 2303 1197 
Q 2303 1581 2056 1914 
Q 1809 2247 1375 2428 
Q 1034 2569 447 2591 
L 1259 4238 
L 2778 4238 
z
" transform="scale(0.015625)"/>
       </defs>
       <use xlink:href="#TimesNewRomanPSMT-2212"/>
       <use xlink:href="#TimesNewRomanPSMT-35" x="56.396484"/>
      </g>
     </g>
    </g>
    <g id="ytick_2">
     <g id="line2d_29">
      <path d="M 38.974688 270.55179 
L 606.330537 270.55179 
" clip-path="url(#p33fd455ecc)" style="fill: none; stroke: #b0b0b0; stroke-width: 0.8; stroke-linecap: square"/>
     </g>
     <g id="line2d_30"/>
     <g id="text_2">
      <!-- 0 -->
      <g transform="translate(28.474688 275.412415) scale(0.14 -0.14)">
       <defs>
        <path id="TimesNewRomanPSMT-30" d="M 231 2094 
Q 231 2819 450 3342 
Q 669 3866 1031 4122 
Q 1313 4325 1613 4325 
Q 2100 4325 2488 3828 
Q 2972 3213 2972 2159 
Q 2972 1422 2759 906 
Q 2547 391 2217 158 
Q 1888 -75 1581 -75 
Q 975 -75 572 641 
Q 231 1244 231 2094 
z
M 844 2016 
Q 844 1141 1059 588 
Q 1238 122 1591 122 
Q 1759 122 1940 273 
Q 2122 425 2216 781 
Q 2359 1319 2359 2297 
Q 2359 3022 2209 3506 
Q 2097 3866 1919 4016 
Q 1791 4119 1609 4119 
Q 1397 4119 1231 3928 
Q 1006 3669 925 3112 
Q 844 2556 844 2016 
z
" transform="scale(0.015625)"/>
       </defs>
       <use xlink:href="#TimesNewRomanPSMT-30"/>
      </g>
     </g>
    </g>
    <g id="ytick_3">
     <g id="line2d_31">
      <path d="M 38.974688 190.680456 
L 606.330537 190.680456 
" clip-path="url(#p33fd455ecc)" style="fill: none; stroke: #b0b0b0; stroke-width: 0.8; stroke-linecap: square"/>
     </g>
     <g id="line2d_32"/>
     <g id="text_3">
      <!-- 5 -->
      <g transform="translate(28.474688 195.541081) scale(0.14 -0.14)">
       <use xlink:href="#TimesNewRomanPSMT-35"/>
      </g>
     </g>
    </g>
    <g id="ytick_4">
     <g id="line2d_33">
      <path d="M 38.974688 110.809123 
L 606.330537 110.809123 
" clip-path="url(#p33fd455ecc)" style="fill: none; stroke: #b0b0b0; stroke-width: 0.8; stroke-linecap: square"/>
     </g>
     <g id="line2d_34"/>
     <g id="text_4">
      <!-- 10 -->
      <g transform="translate(21.474688 115.669748) scale(0.14 -0.14)">
       <defs>
        <path id="TimesNewRomanPSMT-31" d="M 750 3822 
L 1781 4325 
L 1884 4325 
L 1884 747 
Q 1884 391 1914 303 
Q 1944 216 2037 169 
Q 2131 122 2419 116 
L 2419 0 
L 825 0 
L 825 116 
Q 1125 122 1212 167 
Q 1300 213 1334 289 
Q 1369 366 1369 747 
L 1369 3034 
Q 1369 3497 1338 3628 
Q 1316 3728 1258 3775 
Q 1200 3822 1119 3822 
Q 1003 3822 797 3725 
L 750 3822 
z
" transform="scale(0.015625)"/>
       </defs>
       <use xlink:href="#TimesNewRomanPSMT-31"/>
       <use xlink:href="#TimesNewRomanPSMT-30" x="50"/>
      </g>
     </g>
    </g>
    <g id="ytick_5">
     <g id="line2d_35">
      <path d="M 38.974688 30.937789 
L 606.330537 30.937789 
" clip-path="url(#p33fd455ecc)" style="fill: none; stroke: #b0b0b0; stroke-width: 0.8; stroke-linecap: square"/>
     </g>
     <g id="line2d_36"/>
     <g id="text_5">
      <!-- 15 -->
      <g transform="translate(21.474688 35.798414) scale(0.14 -0.14)">
       <use xlink:href="#TimesNewRomanPSMT-31"/>
       <use xlink:href="#TimesNewRomanPSMT-35" x="50"/>
      </g>
     </g>
    </g>
    <g id="ytick_6">
     <g id="line2d_37">
      <path d="M 38.974688 382.371658 
L 606.330537 382.371658 
" clip-path="url(#p33fd455ecc)" style="fill: none; stroke-dasharray: 0.5,0.825; stroke-dashoffset: 0; stroke: #bfbfbf; stroke-width: 0.5"/>
     </g>
     <g id="line2d_38"/>
    </g>
    <g id="ytick_7">
     <g id="line2d_39">
      <path d="M 38.974688 366.397391 
L 606.330537 366.397391 
" clip-path="url(#p33fd455ecc)" style="fill: none; stroke-dasharray: 0.5,0.825; stroke-dashoffset: 0; stroke: #bfbfbf; stroke-width: 0.5"/>
     </g>
     <g id="line2d_40"/>
    </g>
    <g id="ytick_8">
     <g id="line2d_41">
      <path d="M 38.974688 334.448857 
L 606.330537 334.448857 
" clip-path="url(#p33fd455ecc)" style="fill: none; stroke-dasharray: 0.5,0.825; stroke-dashoffset: 0; stroke: #bfbfbf; stroke-width: 0.5"/>
     </g>
     <g id="line2d_42"/>
    </g>
    <g id="ytick_9">
     <g id="line2d_43">
      <path d="M 38.974688 318.474591 
L 606.330537 318.474591 
" clip-path="url(#p33fd455ecc)" style="fill: none; stroke-dasharray: 0.5,0.825; stroke-dashoffset: 0; stroke: #bfbfbf; stroke-width: 0.5"/>
     </g>
     <g id="line2d_44"/>
    </g>
    <g id="ytick_10">
     <g id="line2d_45">
      <path d="M 38.974688 302.500324 
L 606.330537 302.500324 
" clip-path="url(#p33fd455ecc)" style="fill: none; stroke-dasharray: 0.5,0.825; stroke-dashoffset: 0; stroke: #bfbfbf; stroke-width: 0.5"/>
     </g>
     <g id="line2d_46"/>
    </g>
    <g id="ytick_11">
     <g id="line2d_47">
      <path d="M 38.974688 286.526057 
L 606.330537 286.526057 
" clip-path="url(#p33fd455ecc)" style="fill: none; stroke-dasharray: 0.5,0.825; stroke-dashoffset: 0; stroke: #bfbfbf; stroke-width: 0.5"/>
     </g>
     <g id="line2d_48"/>
    </g>
    <g id="ytick_12">
     <g id="line2d_49">
      <path d="M 38.974688 254.577523 
L 606.330537 254.577523 
" clip-path="url(#p33fd455ecc)" style="fill: none; stroke-dasharray: 0.5,0.825; stroke-dashoffset: 0; stroke: #bfbfbf; stroke-width: 0.5"/>
     </g>
     <g id="line2d_50"/>
    </g>
    <g id="ytick_13">
     <g id="line2d_51">
      <path d="M 38.974688 238.603257 
L 606.330537 238.603257 
" clip-path="url(#p33fd455ecc)" style="fill: none; stroke-dasharray: 0.5,0.825; stroke-dashoffset: 0; stroke: #bfbfbf; stroke-width: 0.5"/>
     </g>
     <g id="line2d_52"/>
    </g>
    <g id="ytick_14">
     <g id="line2d_53">
      <path d="M 38.974688 222.62899 
L 606.330537 222.62899 
" clip-path="url(#p33fd455ecc)" style="fill: none; stroke-dasharray: 0.5,0.825; stroke-dashoffset: 0; stroke: #bfbfbf; stroke-width: 0.5"/>
     </g>
     <g id="line2d_54"/>
    </g>
    <g id="ytick_15">
     <g id="line2d_55">
      <path d="M 38.974688 206.654723 
L 606.330537 206.654723 
" clip-path="url(#p33fd455ecc)" style="fill: none; stroke-dasharray: 0.5,0.825; stroke-dashoffset: 0; stroke: #bfbfbf; stroke-width: 0.5"/>
     </g>
     <g id="line2d_56"/>
    </g>
    <g id="ytick_16">
     <g id="line2d_57">
      <path d="M 38.974688 174.70619 
L 606.330537 174.70619 
" clip-path="url(#p33fd455ecc)" style="fill: none; stroke-dasharray: 0.5,0.825; stroke-dashoffset: 0; stroke: #bfbfbf; stroke-width: 0.5"/>
     </g>
     <g id="line2d_58"/>
    </g>
    <g id="ytick_17">
     <g id="line2d_59">
      <path d="M 38.974688 158.731923 
L 606.330537 158.731923 
" clip-path="url(#p33fd455ecc)" style="fill: none; stroke-dasharray: 0.5,0.825; stroke-dashoffset: 0; stroke: #bfbfbf; stroke-width: 0.5"/>
     </g>
     <g id="line2d_60"/>
    </g>
    <g id="ytick_18">
     <g id="line2d_61">
      <path d="M 38.974688 142.757656 
L 606.330537 142.757656 
" clip-path="url(#p33fd455ecc)" style="fill: none; stroke-dasharray: 0.5,0.825; stroke-dashoffset: 0; stroke: #bfbfbf; stroke-width: 0.5"/>
     </g>
     <g id="line2d_62"/>
    </g>
    <g id="ytick_19">
     <g id="line2d_63">
      <path d="M 38.974688 126.783389 
L 606.330537 126.783389 
" clip-path="url(#p33fd455ecc)" style="fill: none; stroke-dasharray: 0.5,0.825; stroke-dashoffset: 0; stroke: #bfbfbf; stroke-width: 0.5"/>
     </g>
     <g id="line2d_64"/>
    </g>
    <g id="ytick_20">
     <g id="line2d_65">
      <path d="M 38.974688 94.834856 
L 606.330537 94.834856 
" clip-path="url(#p33fd455ecc)" style="fill: none; stroke-dasharray: 0.5,0.825; stroke-dashoffset: 0; stroke: #bfbfbf; stroke-width: 0.5"/>
     </g>
     <g id="line2d_66"/>
    </g>
    <g id="ytick_21">
     <g id="line2d_67">
      <path d="M 38.974688 78.860589 
L 606.330537 78.860589 
" clip-path="url(#p33fd455ecc)" style="fill: none; stroke-dasharray: 0.5,0.825; stroke-dashoffset: 0; stroke: #bfbfbf; stroke-width: 0.5"/>
     </g>
     <g id="line2d_68"/>
    </g>
    <g id="ytick_22">
     <g id="line2d_69">
      <path d="M 38.974688 62.886322 
L 606.330537 62.886322 
" clip-path="url(#p33fd455ecc)" style="fill: none; stroke-dasharray: 0.5,0.825; stroke-dashoffset: 0; stroke: #bfbfbf; stroke-width: 0.5"/>
     </g>
     <g id="line2d_70"/>
    </g>
    <g id="ytick_23">
     <g id="line2d_71">
      <path d="M 38.974688 46.912056 
L 606.330537 46.912056 
" clip-path="url(#p33fd455ecc)" style="fill: none; stroke-dasharray: 0.5,0.825; stroke-dashoffset: 0; stroke: #bfbfbf; stroke-width: 0.5"/>
     </g>
     <g id="line2d_72"/>
    </g>
    <g id="text_6">
     <!-- $R_E$ -->
     <g transform="translate(7.2 202.505286) scale(0.14 -0.14)">
      <defs>
       <path id="Cmmi10-52" d="M 313 0 
Q 250 0 250 84 
Q 253 100 262 139 
Q 272 178 289 201 
Q 306 225 331 225 
Q 722 225 878 269 
Q 959 297 997 441 
L 1875 3956 
Q 1888 4019 1888 4044 
Q 1888 4113 1813 4122 
Q 1691 4147 1350 4147 
Q 1288 4147 1288 4231 
Q 1291 4247 1300 4286 
Q 1309 4325 1326 4348 
Q 1344 4372 1369 4372 
L 3309 4372 
Q 3541 4372 3791 4319 
Q 4041 4266 4250 4152 
Q 4459 4038 4593 3848 
Q 4728 3659 4728 3406 
Q 4728 3084 4515 2831 
Q 4303 2578 3978 2408 
Q 3653 2238 3347 2169 
Q 3597 2078 3756 1879 
Q 3916 1681 3916 1422 
Q 3916 1388 3914 1370 
Q 3913 1353 3909 1331 
L 3859 763 
Q 3853 638 3847 550 
Q 3841 463 3841 409 
Q 3841 234 3892 129 
Q 3944 25 4097 25 
Q 4297 25 4448 211 
Q 4600 397 4647 616 
Q 4675 672 4709 672 
L 4769 672 
Q 4831 672 4831 588 
Q 4784 403 4682 237 
Q 4581 72 4426 -34 
Q 4272 -141 4091 -141 
Q 3716 -141 3452 26 
Q 3188 194 3188 550 
Q 3188 684 3213 788 
L 3353 1356 
Q 3378 1434 3378 1538 
Q 3378 1803 3198 1954 
Q 3019 2106 2747 2106 
L 1959 2106 
L 1538 416 
Q 1522 363 1522 325 
Q 1522 259 1600 250 
Q 1722 225 2059 225 
Q 2125 225 2125 141 
Q 2103 50 2090 25 
Q 2078 0 2016 0 
L 313 0 
z
M 1997 2272 
L 2706 2272 
Q 3403 2272 3756 2625 
Q 3919 2788 4014 3039 
Q 4109 3291 4109 3541 
Q 4109 3778 3970 3912 
Q 3831 4047 3626 4097 
Q 3422 4147 3175 4147 
L 2747 4147 
Q 2572 4147 2515 4117 
Q 2459 4088 2413 3928 
L 1997 2272 
z
" transform="scale(0.015625)"/>
       <path id="Cmmi10-45" d="M 300 0 
Q 238 0 238 84 
Q 241 100 250 139 
Q 259 178 276 201 
Q 294 225 319 225 
Q 709 225 863 269 
Q 947 297 984 441 
L 1863 3956 
Q 1875 4019 1875 4044 
Q 1875 4113 1797 4122 
Q 1678 4147 1338 4147 
Q 1275 4147 1275 4231 
Q 1278 4247 1287 4286 
Q 1297 4325 1314 4348 
Q 1331 4372 1356 4372 
L 4825 4372 
Q 4891 4372 4891 4288 
L 4738 2963 
Q 4738 2947 4714 2926 
Q 4691 2906 4672 2906 
L 4616 2906 
Q 4550 2906 4550 2988 
Q 4588 3300 4588 3450 
Q 4588 3706 4500 3848 
Q 4413 3991 4267 4053 
Q 4122 4116 3945 4131 
Q 3769 4147 3481 4147 
L 2753 4147 
Q 2578 4147 2522 4117 
Q 2466 4088 2419 3928 
L 2034 2381 
L 2534 2381 
Q 2859 2381 3025 2426 
Q 3191 2472 3287 2615 
Q 3384 2759 3463 3072 
Q 3469 3094 3486 3111 
Q 3503 3128 3525 3128 
L 3584 3128 
Q 3647 3128 3647 3047 
L 3250 1466 
Q 3238 1409 3188 1409 
L 3128 1409 
Q 3066 1409 3066 1491 
Q 3128 1747 3128 1869 
Q 3128 2056 2959 2106 
Q 2791 2156 2509 2156 
L 1978 2156 
L 1544 416 
Q 1516 338 1516 275 
Q 1516 225 1734 225 
L 2509 225 
Q 2972 225 3259 297 
Q 3547 369 3736 526 
Q 3925 684 4062 928 
Q 4200 1172 4397 1638 
Q 4409 1678 4453 1678 
L 4513 1678 
Q 4538 1678 4556 1656 
Q 4575 1634 4575 1606 
Q 4575 1594 4569 1581 
L 3909 38 
Q 3897 0 3859 0 
L 300 0 
z
" transform="scale(0.015625)"/>
      </defs>
      <use xlink:href="#Cmmi10-52" transform="translate(0 0.6875)"/>
      <use xlink:href="#Cmmi10-45" transform="translate(75.878906 -16.31875) scale(0.7)"/>
     </g>
    </g>
   </g>
   <g id="line2d_73">
    <path d="M 64.76359 351.273707 
L 75.754108 354.733973 
L 86.108345 357.755167 
L 96.088652 360.434676 
L 105.818983 362.813484 
L 114.886176 364.809997 
L 123.736447 366.54045 
L 132.615644 368.045844 
L 140.974238 369.23706 
L 148.985774 370.159373 
L 156.794852 370.836466 
L 164.285776 371.264966 
L 171.632098 371.458778 
L 178.472268 371.422354 
L 184.878608 371.183103 
L 191.241553 370.733591 
L 197.402058 370.080191 
L 203.360096 369.226993 
L 209.057832 368.188812 
L 214.668803 366.934839 
L 220.145429 365.468413 
L 225.206255 363.879971 
L 229.993742 362.148384 
L 234.531511 360.280066 
L 238.937211 358.233159 
L 243.078505 356.076547 
L 247.234521 353.660236 
L 250.99408 351.231375 
L 254.770112 348.531733 
L 258.557151 345.527993 
L 261.964192 342.538935 
L 265.37128 339.238852 
L 268.455284 335.945361 
L 271.539235 332.316129 
L 274.302205 328.735106 
L 277.032526 324.841319 
L 279.762841 320.533358 
L 282.140863 316.383953 
L 284.548242 311.739157 
L 286.940936 306.593962 
L 289.010695 301.63895 
L 291.079613 296.136455 
L 293.191897 289.867112 
L 295.393001 282.571723 
L 297.932342 273.299173 
L 301.940606 258.603076 
L 303.52658 253.659652 
L 305.112632 249.495201 
L 306.493167 246.48926 
L 307.903095 243.952762 
L 309.3571 241.819658 
L 310.811109 240.094901 
L 312.294486 238.682935 
L 313.795725 237.548028 
L 315.30875 236.652564 
L 317.218388 235.817159 
L 319.123615 235.248445 
L 321.076819 234.889584 
L 323.45593 234.702765 
L 325.820343 234.737936 
L 328.610623 235.007241 
L 331.826782 235.562404 
L 335.454135 236.436453 
L 339.566098 237.674694 
L 344.089255 239.270163 
L 349.478855 241.413336 
L 355.984532 244.259101 
L 363.665065 247.876554 
L 373.474985 252.767185 
L 385.722703 259.126781 
L 406.678959 270.282681 
L 436.431879 286.066343 
L 454.025177 295.149585 
L 470.404962 303.355509 
L 485.481682 310.655498 
L 499.59454 317.24178 
L 513.046552 323.276794 
L 526.102064 328.889466 
L 538.716999 334.068186 
L 550.685774 338.744861 
L 562.478324 343.113088 
L 573.815616 347.074699 
L 580.541635 349.308992 
L 580.541635 349.308992 
" clip-path="url(#p33fd455ecc)" style="fill: none; stroke: #ff0000; stroke-width: 2; stroke-linecap: square"/>
   </g>
   <g id="line2d_74">
    <path d="M 64.925476 351.373711 
L 75.671399 354.75908 
L 86.059124 357.794061 
L 96.088652 360.489407 
L 105.759983 362.856349 
L 115.073116 364.906614 
L 124.028051 366.652452 
L 132.62479 368.10668 
L 140.86333 369.282724 
L 149.101871 370.230951 
L 156.982215 370.909374 
L 164.504361 371.332875 
L 171.668309 371.517216 
L 178.47406 371.479127 
L 185.279811 371.21668 
L 191.727365 370.74402 
L 197.816721 370.080462 
L 203.906077 369.18746 
L 209.637236 368.118471 
L 215.010197 366.896369 
L 220.383159 365.44112 
L 225.397923 363.851928 
L 230.054489 362.156547 
L 234.711056 360.227866 
L 239.009425 358.218757 
L 243.307794 355.965846 
L 247.247966 353.662492 
L 251.188137 351.104499 
L 254.770112 348.531664 
L 258.352086 345.693669 
L 261.93406 342.555507 
L 265.157837 339.438937 
L 268.381614 336.00509 
L 271.247193 332.647109 
L 274.112773 328.956871 
L 278.052944 323.460536 
L 280.560326 319.375858 
L 283.067708 314.857664 
L 285.57509 309.823932 
L 287.724275 305.020546 
L 289.873459 299.681557 
L 292.022644 293.71542 
L 294.171828 287.036219 
L 296.321013 279.617426 
L 299.902987 266.201095 
L 302.052172 258.529516 
L 303.843159 253.013181 
L 305.275949 249.31541 
L 306.708738 246.237596 
L 308.141528 243.710643 
L 309.574318 241.65181 
L 311.007107 239.983036 
L 312.439897 238.637453 
L 313.872687 237.560159 
L 315.663674 236.524162 
L 317.454661 235.77081 
L 319.245648 235.248146 
L 321.394833 234.869616 
L 323.544017 234.712851 
L 326.051399 234.757107 
L 328.916979 235.04916 
L 332.140756 235.622672 
L 335.72273 236.499569 
L 339.662901 237.692054 
L 344.319468 239.339094 
L 349.692429 241.48237 
L 356.139983 244.307389 
L 363.662129 247.851578 
L 373.333459 252.671087 
L 386.228567 259.370458 
L 408.795005 271.396175 
L 436.734404 286.215243 
L 454.644275 295.461902 
L 470.763159 303.535908 
L 485.807451 310.820633 
L 499.777151 317.341769 
L 513.388653 323.449467 
L 526.28376 328.994108 
L 538.82067 334.143625 
L 550.999382 338.903559 
L 562.819897 343.280589 
L 573.924018 347.160978 
L 580.371571 349.305857 
L 580.371571 349.305857 
" clip-path="url(#p33fd455ecc)" style="fill: none; stroke-dasharray: 11.1,4.8; stroke-dashoffset: 0; stroke: #ff0000; stroke-width: 3"/>
   </g>
   <g id="line2d_75">
    <path d="M 64.76359 103.270206 
L 71.835119 105.089903 
L 78.704198 107.097248 
L 85.529894 109.323386 
L 92.398967 111.7941 
L 99.282507 114.499085 
L 106.194975 117.44422 
L 113.541279 120.822051 
L 120.815281 124.414648 
L 128.36404 128.399972 
L 135.912804 132.642652 
L 143.678496 137.270926 
L 151.357417 142.104701 
L 159.325571 147.386156 
L 167.337101 152.963291 
L 175.204028 158.696741 
L 183.114329 164.715946 
L 191.37171 171.27086 
L 199.759237 178.217325 
L 207.944314 185.284786 
L 216.143855 192.665682 
L 224.207585 200.237267 
L 231.814735 207.692831 
L 238.834426 214.872289 
L 245.692523 222.19691 
L 252.16895 229.429853 
L 258.380934 236.691604 
L 264.490128 244.178666 
L 270.540628 251.964758 
L 276.621512 260.178234 
L 283.902358 270.447397 
L 290.317066 279.4135 
L 292.869124 282.59392 
L 294.629857 284.444484 
L 296.024085 285.583798 
L 297.198357 286.226812 
L 298.137851 286.484643 
L 299.121497 286.45745 
L 299.811543 286.243449 
L 300.545677 285.833876 
L 301.323893 285.197073 
L 302.116825 284.337652 
L 303.365015 282.619186 
L 304.701432 280.388672 
L 306.698766 276.577612 
L 310.076757 269.611612 
L 315.485025 258.59534 
L 319.520127 250.896658 
L 323.441242 243.875637 
L 327.509194 237.02871 
L 332.003021 229.919967 
L 336.526192 223.181902 
L 341.489909 216.203202 
L 346.732651 209.239016 
L 351.990081 202.619323 
L 357.658691 195.837415 
L 363.738492 188.924391 
L 369.965141 182.188543 
L 376.382717 175.574138 
L 383.020569 169.053571 
L 389.966822 162.556367 
L 396.780907 156.49015 
L 403.506885 150.791499 
L 410.394404 145.248224 
L 417.04696 140.172759 
L 423.861054 135.25908 
L 430.528291 130.732282 
L 436.916501 126.658271 
L 443.275342 122.861581 
L 449.648877 119.317944 
L 455.993043 116.052723 
L 462.160982 113.130254 
L 468.035211 110.579006 
L 474.159099 108.160112 
L 480.224244 106.005946 
L 486.201276 104.116688 
L 492.398594 102.401286 
L 498.390318 100.975526 
L 504.49953 99.754094 
L 510.740911 98.745604 
L 516.717955 98.002508 
L 522.959341 97.455395 
L 529.009812 97.143786 
L 535.133706 97.044246 
L 541.492579 97.166329 
L 547.822078 97.512151 
L 554.34249 98.098461 
L 560.81885 98.907523 
L 567.324578 99.944772 
L 573.800931 101.197644 
L 580.394777 102.695885 
L 580.541635 102.731627 
L 580.541635 102.731627 
" clip-path="url(#p33fd455ecc)" style="fill: none; stroke: #008000; stroke-width: 2; stroke-linecap: square"/>
   </g>
   <g id="line2d_76">
    <path d="M 64.925476 103.310468 
L 71.731227 105.064217 
L 78.536978 107.050063 
L 85.34273 109.265397 
L 92.148481 111.707748 
L 99.312429 114.521184 
L 106.476378 117.580499 
L 113.640326 120.882599 
L 120.804275 124.424156 
L 128.326421 128.396562 
L 135.848567 132.624495 
L 143.370712 137.103187 
L 151.251056 142.058776 
L 159.131399 147.27866 
L 167.011743 152.757804 
L 175.250283 158.758806 
L 183.488824 165.03597 
L 191.727365 171.589316 
L 199.965906 178.422727 
L 208.204446 185.545074 
L 216.08479 192.64208 
L 223.965133 200.037303 
L 231.487279 207.400083 
L 238.651228 214.717742 
L 245.456979 221.978097 
L 251.904532 229.167716 
L 258.352086 236.697929 
L 264.441442 244.159408 
L 270.172601 251.522616 
L 277.694747 261.585978 
L 285.57509 272.736327 
L 290.589854 279.674283 
L 293.097236 282.765638 
L 294.888223 284.608507 
L 296.321013 285.724097 
L 297.395605 286.26957 
L 298.470198 286.500419 
L 299.186592 286.452857 
L 299.902987 286.230271 
L 300.619382 285.826973 
L 301.693974 284.887905 
L 302.768567 283.580075 
L 304.201356 281.368004 
L 305.992343 278.084689 
L 308.857923 272.259346 
L 315.663674 258.317818 
L 319.603846 250.79744 
L 323.544017 243.737172 
L 327.842386 236.511897 
L 332.140756 229.722899 
L 336.797322 222.793797 
L 341.812086 215.758195 
L 346.82685 209.104132 
L 352.199811 202.341675 
L 357.93097 195.493524 
L 364.020326 188.58017 
L 370.109683 181.999081 
L 376.557236 175.357384 
L 383.00479 169.02386 
L 389.810541 162.650494 
L 396.616292 156.581722 
L 403.422043 150.807455 
L 410.227794 145.322264 
L 417.033545 140.124232 
L 423.839296 135.21389 
L 430.28685 130.82931 
L 436.734404 126.707403 
L 443.181957 122.850983 
L 449.629511 119.262685 
L 455.718867 116.121932 
L 461.808223 113.223627 
L 467.89758 110.568477 
L 473.986936 108.156469 
L 480.076292 105.986901 
L 486.165648 104.058395 
L 492.255005 102.368913 
L 498.344361 100.915891 
L 504.433717 99.696265 
L 510.523073 98.706636 
L 516.61243 97.943311 
L 522.701786 97.402459 
L 528.791142 97.080166 
L 534.880498 96.972556 
L 541.328052 97.088395 
L 547.775606 97.436358 
L 554.223159 98.012425 
L 560.670713 98.812826 
L 567.118267 99.834174 
L 573.56582 101.07335 
L 580.371571 102.614615 
L 580.371571 102.614615 
" clip-path="url(#p33fd455ecc)" style="fill: none; stroke-dasharray: 11.1,4.8; stroke-dashoffset: 0; stroke: #008000; stroke-width: 3"/>
   </g>
   <g id="line2d_77">
    <path d="M 64.76359 312.314679 
L 74.785203 311.9986 
L 85.862503 311.885787 
L 99.166821 311.978701 
L 133.266401 312.317411 
L 143.519416 312.125331 
L 152.282937 311.74066 
L 160.09202 311.182901 
L 167.36994 310.449506 
L 174.394194 309.521554 
L 181.118677 308.409964 
L 187.626244 307.109943 
L 193.902427 305.633674 
L 200.395533 303.86386 
L 206.584951 301.938014 
L 212.774376 299.771415 
L 218.845814 297.405916 
L 224.927203 294.791241 
L 230.96291 291.955301 
L 237.057476 288.848771 
L 243.284163 285.427194 
L 249.554902 281.736543 
L 256.339618 277.485004 
L 263.873344 272.492447 
L 275.887551 264.20785 
L 281.964711 260.167693 
L 285.487702 258.066138 
L 288.071227 256.756108 
L 289.993606 255.988036 
L 291.768958 255.50768 
L 293.279914 255.339995 
L 294.541796 255.422571 
L 295.818609 255.776109 
L 296.831388 256.28504 
L 297.888292 257.067949 
L 298.989353 258.185038 
L 300.149239 259.703865 
L 301.367944 261.6528 
L 303.159451 265.034782 
L 306.360975 271.778102 
L 310.311756 279.939249 
L 313.428488 285.814973 
L 316.263568 290.701446 
L 319.197034 295.339355 
L 322.163573 299.646126 
L 325.49725 304.082604 
L 328.845588 308.16187 
L 332.179238 311.891232 
L 335.880014 315.684938 
L 339.566098 319.138207 
L 343.252178 322.296791 
L 347.26134 325.425356 
L 351.27049 328.259394 
L 355.323697 330.847202 
L 359.347525 333.157933 
L 363.356667 335.219428 
L 367.688893 337.192122 
L 372.065176 338.930679 
L 376.470832 340.436493 
L 380.773686 341.682229 
L 385.179339 342.739021 
L 389.937446 343.644348 
L 394.768979 344.326029 
L 399.483041 344.77332 
L 404.755147 345.03354 
L 409.869597 345.060058 
L 415.431545 344.853833 
L 420.982689 344.42421 
L 427.091878 343.71616 
L 433.626937 342.715905 
L 440.514459 341.425769 
L 448.062836 339.779097 
L 456.756691 337.64452 
L 467.286249 334.821548 
L 487.757953 329.033664 
L 502.840056 324.900112 
L 513.604601 322.181205 
L 523.091509 320.009043 
L 531.9763 318.197653 
L 540.332413 316.709281 
L 548.996929 315.395575 
L 557.66144 314.318134 
L 566.223157 313.480793 
L 575.078579 312.840351 
L 580.541635 312.551224 
L 580.541635 312.551224 
" clip-path="url(#p33fd455ecc)" style="fill: none; stroke: #0000ff; stroke-width: 2; stroke-linecap: square"/>
   </g>
   <g id="line2d_78">
    <path d="M 64.925476 312.242563 
L 74.596807 311.93847 
L 85.34273 311.824466 
L 98.954232 311.917181 
L 133.341185 312.267791 
L 143.370712 312.083751 
L 151.967451 311.714503 
L 159.847794 311.161474 
L 167.36994 310.408867 
L 174.533888 309.461289 
L 181.33964 308.331162 
L 187.787193 307.037207 
L 194.234747 305.511947 
L 200.324103 303.848111 
L 206.413459 301.958417 
L 212.502816 299.835649 
L 218.592172 297.474238 
L 224.681528 294.870397 
L 230.770884 292.022375 
L 236.86024 288.930796 
L 242.949597 285.599301 
L 249.39715 281.818981 
L 256.202901 277.564794 
L 263.725047 272.590187 
L 283.067708 259.597441 
L 286.291485 257.73715 
L 288.798867 256.532059 
L 290.589854 255.875205 
L 292.380841 255.466333 
L 293.813631 255.383977 
L 294.888223 255.508227 
L 295.962816 255.829304 
L 297.037408 256.383995 
L 298.112 257.207477 
L 299.186592 258.325752 
L 300.261185 259.746083 
L 301.693974 262.073122 
L 303.484962 265.508753 
L 307.425133 273.826003 
L 310.64891 280.390196 
L 313.514489 285.763065 
L 316.380069 290.691518 
L 319.245648 295.214929 
L 322.469425 299.876455 
L 325.693202 304.141569 
L 328.916979 308.058517 
L 332.498953 312.049456 
L 336.080927 315.70115 
L 339.662901 319.047513 
L 343.603073 322.408311 
L 347.543245 325.462057 
L 351.483417 328.232732 
L 355.423588 330.740198 
L 359.36376 333.001198 
L 363.662129 335.203459 
L 367.960498 337.145613 
L 372.258867 338.841864 
L 376.557236 340.304924 
L 380.855605 341.546416 
L 385.512172 342.653849 
L 390.168738 343.52688 
L 394.825305 344.177918 
L 399.840069 344.644597 
L 404.854833 344.882602 
L 409.869597 344.906615 
L 415.242558 344.711559 
L 420.973717 344.271738 
L 427.063073 343.566582 
L 433.510627 342.582027 
L 440.316378 341.311918 
L 447.838524 339.676665 
L 456.435262 337.572521 
L 467.181185 334.695966 
L 486.882043 329.128191 
L 501.926335 324.992371 
L 512.672258 322.261686 
L 522.343588 320.031417 
L 531.298524 318.193079 
L 539.895262 316.65312 
L 548.492 315.343866 
L 557.088739 314.268097 
L 565.685477 313.421447 
L 574.640412 312.771055 
L 580.371571 312.469961 
L 580.371571 312.469961 
" clip-path="url(#p33fd455ecc)" style="fill: none; stroke-dasharray: 11.1,4.8; stroke-dashoffset: 0; stroke: #0000ff; stroke-width: 3"/>
   </g>
   <g id="line2d_79">
    <path d="M 64.76359 80.175072 
L 72.702792 80.947422 
L 80.309392 81.921599 
L 87.843686 83.114786 
L 95.103219 84.482277 
L 102.594128 86.119557 
L 110.157351 88.010226 
L 117.518119 90.083358 
L 124.734272 92.343352 
L 131.863657 94.802285 
L 138.833979 97.429511 
L 146.093527 100.405856 
L 153.136147 103.535027 
L 160.207706 106.924263 
L 167.221414 110.53932 
L 173.88805 114.218467 
L 180.80053 118.294156 
L 187.597316 122.571915 
L 194.235036 127.020698 
L 200.916137 131.784378 
L 207.177865 136.523204 
L 213.540825 141.627413 
L 219.467003 146.658758 
L 225.397923 151.978234 
L 231.462286 157.735444 
L 236.925267 163.218382 
L 242.608606 169.245081 
L 248.17444 175.494638 
L 253.373129 181.670589 
L 258.601185 188.244606 
L 263.359344 194.575246 
L 267.779722 200.783601 
L 272.496673 207.788428 
L 277.032526 214.925629 
L 281.935352 223.106669 
L 286.441845 231.024723 
L 293.998877 244.342703 
L 295.921334 247.224721 
L 297.53598 249.169049 
L 298.563584 250.068183 
L 299.40044 250.562564 
L 300.261185 250.810626 
L 300.8687 250.834646 
L 301.74972 250.618968 
L 302.439894 250.259926 
L 303.174134 249.711509 
L 304.040553 248.867775 
L 305.303556 247.313349 
L 306.58128 245.46292 
L 308.857923 241.719109 
L 311.545452 236.968857 
L 319.916639 222.146878 
L 324.072723 215.228102 
L 328.698744 207.935849 
L 333.42752 200.905676 
L 338.112223 194.33021 
L 342.899727 187.974055 
L 348.289326 181.21895 
L 353.70828 174.814083 
L 359.244722 168.634921 
L 364.737106 162.837769 
L 370.67005 156.918594 
L 376.558944 151.36793 
L 382.785597 145.825786 
L 388.924146 140.668057 
L 395.121433 135.749811 
L 401.348105 131.083204 
L 408.000659 126.385084 
L 414.403558 122.129253 
L 420.923945 118.050566 
L 427.547124 114.159478 
L 434.522762 110.323752 
L 441.292795 106.848878 
L 448.04815 103.615975 
L 455.067849 100.495793 
L 462.36658 97.502649 
L 469.635941 94.767823 
L 476.714386 92.335223 
L 483.983753 90.067453 
L 491.209058 88.039954 
L 498.801516 86.148358 
L 506.423343 84.49094 
L 513.88363 83.099169 
L 521.549518 81.903752 
L 528.774837 80.992539 
L 535.985472 80.2898 
L 543.607305 79.76951 
L 551.141026 79.479461 
L 558.748174 79.411718 
L 566.193788 79.564745 
L 573.771562 79.943456 
L 580.541635 80.472185 
L 580.541635 80.472185 
" clip-path="url(#p33fd455ecc)" style="fill: none; stroke: #000000; stroke-width: 2; stroke-linecap: square"/>
   </g>
   <g id="patch_3">
    <path d="M 38.974687 386.134447 
L 606.330537 386.134447 
" style="fill: none; stroke: #000000; stroke-width: 0.8; stroke-linejoin: miter; stroke-linecap: square"/>
   </g>
   <g id="text_7">
    <!-- MMS-2 GSM -->
    <g transform="translate(275.738612 18.8655) scale(0.168 -0.168)">
     <defs>
      <path id="TimesNewRomanPSMT-4d" d="M 2619 0 
L 981 3566 
L 981 734 
Q 981 344 1066 247 
Q 1181 116 1431 116 
L 1581 116 
L 1581 0 
L 106 0 
L 106 116 
L 256 116 
Q 525 116 638 278 
Q 706 378 706 734 
L 706 3503 
Q 706 3784 644 3909 
Q 600 4000 483 4061 
Q 366 4122 106 4122 
L 106 4238 
L 1306 4238 
L 2844 922 
L 4356 4238 
L 5556 4238 
L 5556 4122 
L 5409 4122 
Q 5138 4122 5025 3959 
Q 4956 3859 4956 3503 
L 4956 734 
Q 4956 344 5044 247 
Q 5159 116 5409 116 
L 5556 116 
L 5556 0 
L 3756 0 
L 3756 116 
L 3906 116 
Q 4178 116 4288 278 
Q 4356 378 4356 734 
L 4356 3566 
L 2722 0 
L 2619 0 
z
" transform="scale(0.015625)"/>
      <path id="TimesNewRomanPSMT-53" d="M 2934 4334 
L 2934 2869 
L 2819 2869 
Q 2763 3291 2617 3541 
Q 2472 3791 2203 3937 
Q 1934 4084 1647 4084 
Q 1322 4084 1109 3886 
Q 897 3688 897 3434 
Q 897 3241 1031 3081 
Q 1225 2847 1953 2456 
Q 2547 2138 2764 1967 
Q 2981 1797 3098 1565 
Q 3216 1334 3216 1081 
Q 3216 600 2842 251 
Q 2469 -97 1881 -97 
Q 1697 -97 1534 -69 
Q 1438 -53 1133 45 
Q 828 144 747 144 
Q 669 144 623 97 
Q 578 50 556 -97 
L 441 -97 
L 441 1356 
L 556 1356 
Q 638 900 775 673 
Q 913 447 1195 297 
Q 1478 147 1816 147 
Q 2206 147 2432 353 
Q 2659 559 2659 841 
Q 2659 997 2573 1156 
Q 2488 1316 2306 1453 
Q 2184 1547 1640 1851 
Q 1097 2156 867 2337 
Q 638 2519 519 2737 
Q 400 2956 400 3219 
Q 400 3675 750 4004 
Q 1100 4334 1641 4334 
Q 1978 4334 2356 4169 
Q 2531 4091 2603 4091 
Q 2684 4091 2736 4139 
Q 2788 4188 2819 4334 
L 2934 4334 
z
" transform="scale(0.015625)"/>
      <path id="TimesNewRomanPSMT-2d" d="M 259 1672 
L 1875 1672 
L 1875 1200 
L 259 1200 
L 259 1672 
z
" transform="scale(0.015625)"/>
      <path id="TimesNewRomanPSMT-32" d="M 2934 816 
L 2638 0 
L 138 0 
L 138 116 
Q 1241 1122 1691 1759 
Q 2141 2397 2141 2925 
Q 2141 3328 1894 3587 
Q 1647 3847 1303 3847 
Q 991 3847 742 3664 
Q 494 3481 375 3128 
L 259 3128 
Q 338 3706 661 4015 
Q 984 4325 1469 4325 
Q 1984 4325 2329 3994 
Q 2675 3663 2675 3213 
Q 2675 2891 2525 2569 
Q 2294 2063 1775 1497 
Q 997 647 803 472 
L 1909 472 
Q 2247 472 2383 497 
Q 2519 522 2628 598 
Q 2738 675 2819 816 
L 2934 816 
z
" transform="scale(0.015625)"/>
      <path id="TimesNewRomanPSMT-20" transform="scale(0.015625)"/>
      <path id="TimesNewRomanPSMT-47" d="M 3928 4334 
L 4038 2997 
L 3928 2997 
Q 3763 3497 3500 3750 
Q 3122 4116 2528 4116 
Q 1719 4116 1297 3475 
Q 944 2934 944 2188 
Q 944 1581 1178 1081 
Q 1413 581 1792 348 
Q 2172 116 2572 116 
Q 2806 116 3025 175 
Q 3244 234 3447 350 
L 3447 1575 
Q 3447 1894 3398 1992 
Q 3350 2091 3248 2142 
Q 3147 2194 2891 2194 
L 2891 2313 
L 4531 2313 
L 4531 2194 
L 4453 2194 
Q 4209 2194 4119 2031 
Q 4056 1916 4056 1575 
L 4056 278 
Q 3697 84 3347 -6 
Q 2997 -97 2569 -97 
Q 1341 -97 703 691 
Q 225 1281 225 2053 
Q 225 2613 494 3125 
Q 813 3734 1369 4063 
Q 1834 4334 2469 4334 
Q 2700 4334 2889 4296 
Q 3078 4259 3425 4131 
Q 3600 4066 3659 4066 
Q 3719 4066 3761 4120 
Q 3803 4175 3813 4334 
L 3928 4334 
z
" transform="scale(0.015625)"/>
     </defs>
     <use xlink:href="#TimesNewRomanPSMT-4d"/>
     <use xlink:href="#TimesNewRomanPSMT-4d" x="88.916016"/>
     <use xlink:href="#TimesNewRomanPSMT-53" x="177.832031"/>
     <use xlink:href="#TimesNewRomanPSMT-2d" x="233.447266"/>
     <use xlink:href="#TimesNewRomanPSMT-32" x="266.748047"/>
     <use xlink:href="#TimesNewRomanPSMT-20" x="316.748047"/>
     <use xlink:href="#TimesNewRomanPSMT-47" x="341.748047"/>
     <use xlink:href="#TimesNewRomanPSMT-53" x="413.964844"/>
     <use xlink:href="#TimesNewRomanPSMT-4d" x="469.580078"/>
    </g>
   </g>
   <g id="legend_1">
    <g id="patch_4">
     <path d="M 100.6848 68.654875 
L 544.620425 68.654875 
Q 547.420425 68.654875 547.420425 65.854875 
L 547.420425 27.6655 
Q 547.420425 24.8655 544.620425 24.8655 
L 100.6848 24.8655 
Q 97.8848 24.8655 97.8848 27.6655 
L 97.8848 65.854875 
Q 97.8848 68.654875 100.6848 68.654875 
z
" style="fill: #ffffff; stroke: #cccccc; stroke-linejoin: miter"/>
    </g>
    <g id="line2d_80">
     <path d="M 103.4848 35.3655 
L 117.4848 35.3655 
L 131.4848 35.3655 
" style="fill: none; stroke: #ff0000; stroke-width: 2; stroke-linecap: square"/>
    </g>
    <g id="text_8">
     <!-- SSCWeb/X -->
     <g transform="translate(142.6848 40.2655) scale(0.14 -0.14)">
      <defs>
       <path id="TimesNewRomanPSMT-43" d="M 3853 4334 
L 3950 2894 
L 3853 2894 
Q 3659 3541 3300 3825 
Q 2941 4109 2438 4109 
Q 2016 4109 1675 3895 
Q 1334 3681 1139 3212 
Q 944 2744 944 2047 
Q 944 1472 1128 1050 
Q 1313 628 1683 403 
Q 2053 178 2528 178 
Q 2941 178 3256 354 
Q 3572 531 3950 1056 
L 4047 994 
Q 3728 428 3303 165 
Q 2878 -97 2294 -97 
Q 1241 -97 663 684 
Q 231 1266 231 2053 
Q 231 2688 515 3219 
Q 800 3750 1298 4042 
Q 1797 4334 2388 4334 
Q 2847 4334 3294 4109 
Q 3425 4041 3481 4041 
Q 3566 4041 3628 4100 
Q 3709 4184 3744 4334 
L 3853 4334 
z
" transform="scale(0.015625)"/>
       <path id="TimesNewRomanPSMT-57" d="M 5991 4238 
L 5991 4122 
Q 5825 4122 5722 4062 
Q 5619 4003 5525 3841 
Q 5463 3731 5328 3319 
L 4147 -97 
L 4022 -97 
L 3056 2613 
L 2097 -97 
L 1984 -97 
L 725 3422 
Q 584 3816 547 3888 
Q 484 4006 376 4064 
Q 269 4122 84 4122 
L 84 4238 
L 1653 4238 
L 1653 4122 
L 1578 4122 
Q 1413 4122 1325 4047 
Q 1238 3972 1238 3866 
Q 1238 3756 1375 3363 
L 2209 984 
L 2913 3006 
L 2788 3363 
L 2688 3647 
Q 2622 3803 2541 3922 
Q 2500 3981 2441 4022 
Q 2363 4078 2284 4103 
Q 2225 4122 2097 4122 
L 2097 4238 
L 3747 4238 
L 3747 4122 
L 3634 4122 
Q 3459 4122 3378 4047 
Q 3297 3972 3297 3844 
Q 3297 3684 3438 3288 
L 4250 984 
L 5056 3319 
Q 5194 3706 5194 3856 
Q 5194 3928 5148 3990 
Q 5103 4053 5034 4078 
Q 4916 4122 4725 4122 
L 4725 4238 
L 5991 4238 
z
" transform="scale(0.015625)"/>
       <path id="TimesNewRomanPSMT-65" d="M 681 1784 
Q 678 1147 991 784 
Q 1303 422 1725 422 
Q 2006 422 2214 576 
Q 2422 731 2563 1106 
L 2659 1044 
Q 2594 616 2278 264 
Q 1963 -88 1488 -88 
Q 972 -88 605 314 
Q 238 716 238 1394 
Q 238 2128 614 2539 
Q 991 2950 1559 2950 
Q 2041 2950 2350 2633 
Q 2659 2316 2659 1784 
L 681 1784 
z
M 681 1966 
L 2006 1966 
Q 1991 2241 1941 2353 
Q 1863 2528 1708 2628 
Q 1553 2728 1384 2728 
Q 1125 2728 920 2526 
Q 716 2325 681 1966 
z
" transform="scale(0.015625)"/>
       <path id="TimesNewRomanPSMT-62" d="M 984 2369 
Q 1400 2947 1881 2947 
Q 2322 2947 2650 2570 
Q 2978 2194 2978 1541 
Q 2978 778 2472 313 
Q 2038 -88 1503 -88 
Q 1253 -88 995 3 
Q 738 94 469 275 
L 469 3241 
Q 469 3728 445 3840 
Q 422 3953 372 3993 
Q 322 4034 247 4034 
Q 159 4034 28 3984 
L -16 4094 
L 844 4444 
L 984 4444 
L 984 2369 
z
M 984 2169 
L 984 456 
Q 1144 300 1314 220 
Q 1484 141 1663 141 
Q 1947 141 2192 453 
Q 2438 766 2438 1363 
Q 2438 1913 2192 2208 
Q 1947 2503 1634 2503 
Q 1469 2503 1303 2419 
Q 1178 2356 984 2169 
z
" transform="scale(0.015625)"/>
       <path id="TimesNewRomanPSMT-2f" d="M 1794 4444 
L 259 -88 
L 9 -88 
L 1544 4444 
L 1794 4444 
z
" transform="scale(0.015625)"/>
       <path id="TimesNewRomanPSMT-58" d="M 2613 2347 
L 3522 991 
Q 3900 428 4083 279 
Q 4266 131 4547 116 
L 4547 0 
L 2728 0 
L 2728 116 
Q 2909 119 2997 153 
Q 3063 181 3105 239 
Q 3147 297 3147 356 
Q 3147 428 3119 500 
Q 3097 553 2947 775 
L 2228 1863 
L 1341 725 
Q 1200 544 1172 483 
Q 1144 422 1144 356 
Q 1144 256 1228 190 
Q 1313 125 1550 116 
L 1550 0 
L 47 0 
L 47 116 
Q 206 131 322 181 
Q 516 263 691 400 
Q 866 538 1091 822 
L 2091 2084 
L 1256 3306 
Q 916 3803 678 3958 
Q 441 4113 131 4122 
L 131 4238 
L 2091 4238 
L 2091 4122 
Q 1841 4113 1748 4041 
Q 1656 3969 1656 3881 
Q 1656 3766 1806 3544 
L 2456 2572 
L 3209 3525 
Q 3341 3694 3370 3756 
Q 3400 3819 3400 3884 
Q 3400 3950 3363 4000 
Q 3316 4066 3244 4092 
Q 3172 4119 2947 4122 
L 2947 4238 
L 4450 4238 
L 4450 4122 
Q 4272 4113 4159 4066 
Q 3991 3994 3850 3872 
Q 3709 3750 3453 3422 
L 2613 2347 
z
" transform="scale(0.015625)"/>
      </defs>
      <use xlink:href="#TimesNewRomanPSMT-53"/>
      <use xlink:href="#TimesNewRomanPSMT-53" x="55.615234"/>
      <use xlink:href="#TimesNewRomanPSMT-43" x="111.230469"/>
      <use xlink:href="#TimesNewRomanPSMT-57" x="177.929688"/>
      <use xlink:href="#TimesNewRomanPSMT-65" x="264.314453"/>
      <use xlink:href="#TimesNewRomanPSMT-62" x="308.699219"/>
      <use xlink:href="#TimesNewRomanPSMT-2f" x="358.699219"/>
      <use xlink:href="#TimesNewRomanPSMT-58" x="386.482422"/>
     </g>
    </g>
    <g id="line2d_81">
     <path d="M 103.4848 55.160187 
L 117.4848 55.160187 
L 131.4848 55.160187 
" style="fill: none; stroke-dasharray: 11.1,4.8; stroke-dashoffset: 0; stroke: #ff0000; stroke-width: 3"/>
    </g>
    <g id="text_9">
     <!-- JPL/X -->
     <g transform="translate(142.6848 60.060187) scale(0.14 -0.14)">
      <defs>
       <path id="TimesNewRomanPSMT-4a" d="M 638 4122 
L 638 4238 
L 2453 4238 
L 2453 4122 
L 2300 4122 
Q 2041 4122 1922 3969 
Q 1847 3869 1847 3488 
L 1847 1416 
Q 1847 938 1742 641 
Q 1638 344 1381 123 
Q 1125 -97 763 -97 
Q 469 -97 300 48 
Q 131 194 131 381 
Q 131 534 209 613 
Q 313 709 450 709 
Q 550 709 629 643 
Q 709 578 831 294 
Q 903 125 1016 125 
Q 1100 125 1173 228 
Q 1247 331 1247 594 
L 1247 3488 
Q 1247 3809 1206 3913 
Q 1175 3991 1075 4047 
Q 941 4122 791 4122 
L 638 4122 
z
" transform="scale(0.015625)"/>
       <path id="TimesNewRomanPSMT-50" d="M 1313 1984 
L 1313 750 
Q 1313 350 1400 253 
Q 1519 116 1759 116 
L 1922 116 
L 1922 0 
L 106 0 
L 106 116 
L 266 116 
Q 534 116 650 291 
Q 713 388 713 750 
L 713 3488 
Q 713 3888 628 3984 
Q 506 4122 266 4122 
L 106 4122 
L 106 4238 
L 1659 4238 
Q 2228 4238 2556 4120 
Q 2884 4003 3109 3725 
Q 3334 3447 3334 3066 
Q 3334 2547 2992 2222 
Q 2650 1897 2025 1897 
Q 1872 1897 1694 1919 
Q 1516 1941 1313 1984 
z
M 1313 2163 
Q 1478 2131 1606 2115 
Q 1734 2100 1825 2100 
Q 2150 2100 2386 2351 
Q 2622 2603 2622 3003 
Q 2622 3278 2509 3514 
Q 2397 3750 2190 3867 
Q 1984 3984 1722 3984 
Q 1563 3984 1313 3925 
L 1313 2163 
z
" transform="scale(0.015625)"/>
       <path id="TimesNewRomanPSMT-4c" d="M 3669 1172 
L 3772 1150 
L 3409 0 
L 128 0 
L 128 116 
L 288 116 
Q 556 116 672 291 
Q 738 391 738 753 
L 738 3488 
Q 738 3884 650 3984 
Q 528 4122 288 4122 
L 128 4122 
L 128 4238 
L 2047 4238 
L 2047 4122 
Q 1709 4125 1573 4059 
Q 1438 3994 1388 3894 
Q 1338 3794 1338 3416 
L 1338 753 
Q 1338 494 1388 397 
Q 1425 331 1503 300 
Q 1581 269 1991 269 
L 2300 269 
Q 2788 269 2984 341 
Q 3181 413 3343 595 
Q 3506 778 3669 1172 
z
" transform="scale(0.015625)"/>
      </defs>
      <use xlink:href="#TimesNewRomanPSMT-4a"/>
      <use xlink:href="#TimesNewRomanPSMT-50" x="38.916016"/>
      <use xlink:href="#TimesNewRomanPSMT-4c" x="94.53125"/>
      <use xlink:href="#TimesNewRomanPSMT-2f" x="155.615234"/>
      <use xlink:href="#TimesNewRomanPSMT-58" x="183.398438"/>
     </g>
    </g>
    <g id="line2d_82">
     <path d="M 234.903237 35.3655 
L 248.903237 35.3655 
L 262.903237 35.3655 
" style="fill: none; stroke: #008000; stroke-width: 2; stroke-linecap: square"/>
    </g>
    <g id="text_10">
     <!-- SSCWeb/Y -->
     <g transform="translate(274.103237 40.2655) scale(0.14 -0.14)">
      <defs>
       <path id="TimesNewRomanPSMT-59" d="M 3050 4238 
L 4528 4238 
L 4528 4122 
L 4447 4122 
Q 4366 4122 4209 4050 
Q 4053 3978 3925 3843 
Q 3797 3709 3609 3406 
L 2588 1797 
L 2588 734 
Q 2588 344 2675 247 
Q 2794 116 3050 116 
L 3188 116 
L 3188 0 
L 1388 0 
L 1388 116 
L 1538 116 
Q 1806 116 1919 278 
Q 1988 378 1988 734 
L 1988 1738 
L 825 3513 
Q 619 3825 545 3903 
Q 472 3981 241 4091 
Q 178 4122 59 4122 
L 59 4238 
L 1872 4238 
L 1872 4122 
L 1778 4122 
Q 1631 4122 1507 4053 
Q 1384 3984 1384 3847 
Q 1384 3734 1575 3441 
L 2459 2075 
L 3291 3381 
Q 3478 3675 3478 3819 
Q 3478 3906 3433 3975 
Q 3388 4044 3303 4083 
Q 3219 4122 3050 4122 
L 3050 4238 
z
" transform="scale(0.015625)"/>
      </defs>
      <use xlink:href="#TimesNewRomanPSMT-53"/>
      <use xlink:href="#TimesNewRomanPSMT-53" x="55.615234"/>
      <use xlink:href="#TimesNewRomanPSMT-43" x="111.230469"/>
      <use xlink:href="#TimesNewRomanPSMT-57" x="177.929688"/>
      <use xlink:href="#TimesNewRomanPSMT-65" x="264.314453"/>
      <use xlink:href="#TimesNewRomanPSMT-62" x="308.699219"/>
      <use xlink:href="#TimesNewRomanPSMT-2f" x="358.699219"/>
      <use xlink:href="#TimesNewRomanPSMT-59" x="386.482422"/>
     </g>
    </g>
    <g id="line2d_83">
     <path d="M 234.903237 55.160187 
L 248.903237 55.160187 
L 262.903237 55.160187 
" style="fill: none; stroke-dasharray: 11.1,4.8; stroke-dashoffset: 0; stroke: #008000; stroke-width: 3"/>
    </g>
    <g id="text_11">
     <!-- JPL/Y -->
     <g transform="translate(274.103237 60.060187) scale(0.14 -0.14)">
      <use xlink:href="#TimesNewRomanPSMT-4a"/>
      <use xlink:href="#TimesNewRomanPSMT-50" x="38.916016"/>
      <use xlink:href="#TimesNewRomanPSMT-4c" x="94.53125"/>
      <use xlink:href="#TimesNewRomanPSMT-2f" x="155.615234"/>
      <use xlink:href="#TimesNewRomanPSMT-59" x="183.398438"/>
     </g>
    </g>
    <g id="line2d_84">
     <path d="M 366.321675 35.3655 
L 380.321675 35.3655 
L 394.321675 35.3655 
" style="fill: none; stroke: #0000ff; stroke-width: 2; stroke-linecap: square"/>
    </g>
    <g id="text_12">
     <!-- SSCWeb/Z -->
     <g transform="translate(405.521675 40.2655) scale(0.14 -0.14)">
      <defs>
       <path id="TimesNewRomanPSMT-5a" d="M 3681 4238 
L 897 256 
L 2634 256 
Q 3034 256 3248 431 
Q 3463 606 3628 1141 
L 3731 1122 
L 3531 0 
L 81 0 
L 81 116 
L 2800 3984 
L 1444 3984 
Q 1106 3984 954 3911 
Q 803 3838 723 3698 
Q 644 3559 578 3178 
L 459 3178 
L 547 4238 
L 3681 4238 
z
" transform="scale(0.015625)"/>
      </defs>
      <use xlink:href="#TimesNewRomanPSMT-53"/>
      <use xlink:href="#TimesNewRomanPSMT-53" x="55.615234"/>
      <use xlink:href="#TimesNewRomanPSMT-43" x="111.230469"/>
      <use xlink:href="#TimesNewRomanPSMT-57" x="177.929688"/>
      <use xlink:href="#TimesNewRomanPSMT-65" x="264.314453"/>
      <use xlink:href="#TimesNewRomanPSMT-62" x="308.699219"/>
      <use xlink:href="#TimesNewRomanPSMT-2f" x="358.699219"/>
      <use xlink:href="#TimesNewRomanPSMT-5a" x="386.482422"/>
     </g>
    </g>
    <g id="line2d_85">
     <path d="M 366.321675 55.160187 
L 380.321675 55.160187 
L 394.321675 55.160187 
" style="fill: none; stroke-dasharray: 11.1,4.8; stroke-dashoffset: 0; stroke: #0000ff; stroke-width: 3"/>
    </g>
    <g id="text_13">
     <!-- JPL/Z -->
     <g transform="translate(405.521675 60.060187) scale(0.14 -0.14)">
      <use xlink:href="#TimesNewRomanPSMT-4a"/>
      <use xlink:href="#TimesNewRomanPSMT-50" x="38.916016"/>
      <use xlink:href="#TimesNewRomanPSMT-4c" x="94.53125"/>
      <use xlink:href="#TimesNewRomanPSMT-2f" x="155.615234"/>
      <use xlink:href="#TimesNewRomanPSMT-5a" x="183.398438"/>
     </g>
    </g>
    <g id="line2d_86">
     <path d="M 496.180425 35.3655 
L 510.180425 35.3655 
L 524.180425 35.3655 
" style="fill: none; stroke: #000000; stroke-width: 2; stroke-linecap: square"/>
    </g>
    <g id="text_14">
     <!-- $\overline{r}$ -->
     <g transform="translate(535.380425 40.2655) scale(0.14 -0.14)">
      <defs>
       <path id="Cmmi10-72" d="M 494 109 
Q 494 147 500 166 
L 978 2075 
Q 1025 2253 1025 2388 
Q 1025 2663 838 2663 
Q 638 2663 541 2423 
Q 444 2184 353 1819 
Q 353 1800 334 1789 
Q 316 1778 300 1778 
L 225 1778 
Q 203 1778 187 1801 
Q 172 1825 172 1844 
Q 241 2122 305 2315 
Q 369 2509 505 2668 
Q 641 2828 844 2828 
Q 1066 2828 1233 2700 
Q 1400 2572 1441 2363 
Q 1603 2575 1811 2701 
Q 2019 2828 2266 2828 
Q 2469 2828 2623 2709 
Q 2778 2591 2778 2388 
Q 2778 2225 2676 2104 
Q 2575 1984 2406 1984 
Q 2303 1984 2233 2048 
Q 2163 2113 2163 2216 
Q 2163 2356 2266 2467 
Q 2369 2578 2503 2578 
Q 2400 2663 2253 2663 
Q 1978 2663 1775 2467 
Q 1572 2272 1409 1972 
L 953 141 
Q 931 53 854 -9 
Q 778 -72 684 -72 
Q 606 -72 550 -22 
Q 494 28 494 109 
z
" transform="scale(0.015625)"/>
      </defs>
      <use xlink:href="#Cmmi10-72" transform="translate(0 0.5625)"/>
      <path d="M 0 56.5 
L 0 62.75 
L 45.117188 62.75 
L 45.117188 56.5 
L 0 56.5 
z
"/>
     </g>
    </g>
   </g>
  </g>
  <g id="axes_2">
   <g id="patch_5">
    <path d="M 38.974688 758.823395 
L 606.330537 758.823395 
L 606.330537 397.554447 
L 38.974688 397.554447 
z
" style="fill: #ffffff"/>
   </g>
   <g id="matplotlib.axis_3">
    <g id="xtick_14">
     <g id="line2d_87">
      <path d="M 64.746378 758.823395 
L 64.746378 397.554447 
" clip-path="url(#p3e0bd27389)" style="fill: none; stroke: #b0b0b0; stroke-width: 0.8; stroke-linecap: square"/>
     </g>
     <g id="line2d_88">
      <g>
       <use xlink:href="#me6fd2af8ef" x="64.746378" y="758.823395" style="stroke: #000000; stroke-width: 0.8"/>
      </g>
     </g>
     <g id="text_15">
      <!-- 00 -->
      <g transform="translate(57.746378 775.544645) scale(0.14 -0.14)">
       <use xlink:href="#TimesNewRomanPSMT-30"/>
       <use xlink:href="#TimesNewRomanPSMT-30" x="50"/>
      </g>
      <!-- 2016-09-01 -->
      <g transform="translate(32.084815 790.204832) scale(0.14 -0.14)">
       <defs>
        <path id="TimesNewRomanPSMT-36" d="M 2869 4325 
L 2869 4209 
Q 2456 4169 2195 4045 
Q 1934 3922 1679 3669 
Q 1425 3416 1258 3105 
Q 1091 2794 978 2366 
Q 1428 2675 1881 2675 
Q 2316 2675 2634 2325 
Q 2953 1975 2953 1425 
Q 2953 894 2631 456 
Q 2244 -75 1606 -75 
Q 1172 -75 869 213 
Q 275 772 275 1663 
Q 275 2231 503 2743 
Q 731 3256 1154 3653 
Q 1578 4050 1965 4187 
Q 2353 4325 2688 4325 
L 2869 4325 
z
M 925 2138 
Q 869 1716 869 1456 
Q 869 1156 980 804 
Q 1091 453 1309 247 
Q 1469 100 1697 100 
Q 1969 100 2183 356 
Q 2397 613 2397 1088 
Q 2397 1622 2184 2012 
Q 1972 2403 1581 2403 
Q 1463 2403 1327 2353 
Q 1191 2303 925 2138 
z
" transform="scale(0.015625)"/>
        <path id="TimesNewRomanPSMT-39" d="M 338 -88 
L 338 28 
Q 744 34 1094 217 
Q 1444 400 1770 856 
Q 2097 1313 2225 1859 
Q 1734 1544 1338 1544 
Q 891 1544 572 1889 
Q 253 2234 253 2806 
Q 253 3363 572 3797 
Q 956 4325 1575 4325 
Q 2097 4325 2469 3894 
Q 2925 3359 2925 2575 
Q 2925 1869 2578 1258 
Q 2231 647 1613 244 
Q 1109 -88 516 -88 
L 338 -88 
z
M 2275 2091 
Q 2331 2497 2331 2741 
Q 2331 3044 2228 3395 
Q 2125 3747 1936 3934 
Q 1747 4122 1506 4122 
Q 1228 4122 1018 3872 
Q 809 3622 809 3128 
Q 809 2469 1088 2097 
Q 1291 1828 1588 1828 
Q 1731 1828 1928 1897 
Q 2125 1966 2275 2091 
z
" transform="scale(0.015625)"/>
       </defs>
       <use xlink:href="#TimesNewRomanPSMT-32"/>
       <use xlink:href="#TimesNewRomanPSMT-30" x="50"/>
       <use xlink:href="#TimesNewRomanPSMT-31" x="100"/>
       <use xlink:href="#TimesNewRomanPSMT-36" x="150"/>
       <use xlink:href="#TimesNewRomanPSMT-2d" x="200"/>
       <use xlink:href="#TimesNewRomanPSMT-30" x="233.300781"/>
       <use xlink:href="#TimesNewRomanPSMT-39" x="283.300781"/>
       <use xlink:href="#TimesNewRomanPSMT-2d" x="333.300781"/>
       <use xlink:href="#TimesNewRomanPSMT-30" x="366.601562"/>
       <use xlink:href="#TimesNewRomanPSMT-31" x="416.601562"/>
      </g>
     </g>
    </g>
    <g id="xtick_15">
     <g id="line2d_89">
      <path d="M 150.71376 758.823395 
L 150.71376 397.554447 
" clip-path="url(#p3e0bd27389)" style="fill: none; stroke: #b0b0b0; stroke-width: 0.8; stroke-linecap: square"/>
     </g>
     <g id="line2d_90">
      <g>
       <use xlink:href="#me6fd2af8ef" x="150.71376" y="758.823395" style="stroke: #000000; stroke-width: 0.8"/>
      </g>
     </g>
     <g id="text_16">
      <!-- 04 -->
      <g transform="translate(143.71376 775.544645) scale(0.14 -0.14)">
       <defs>
        <path id="TimesNewRomanPSMT-34" d="M 2978 1563 
L 2978 1119 
L 2409 1119 
L 2409 0 
L 1894 0 
L 1894 1119 
L 100 1119 
L 100 1519 
L 2066 4325 
L 2409 4325 
L 2409 1563 
L 2978 1563 
z
M 1894 1563 
L 1894 3666 
L 406 1563 
L 1894 1563 
z
" transform="scale(0.015625)"/>
       </defs>
       <use xlink:href="#TimesNewRomanPSMT-30"/>
       <use xlink:href="#TimesNewRomanPSMT-34" x="50"/>
      </g>
     </g>
    </g>
    <g id="xtick_16">
     <g id="line2d_91">
      <path d="M 236.681142 758.823395 
L 236.681142 397.554447 
" clip-path="url(#p3e0bd27389)" style="fill: none; stroke: #b0b0b0; stroke-width: 0.8; stroke-linecap: square"/>
     </g>
     <g id="line2d_92">
      <g>
       <use xlink:href="#me6fd2af8ef" x="236.681142" y="758.823395" style="stroke: #000000; stroke-width: 0.8"/>
      </g>
     </g>
     <g id="text_17">
      <!-- 08 -->
      <g transform="translate(229.681142 775.544645) scale(0.14 -0.14)">
       <defs>
        <path id="TimesNewRomanPSMT-38" d="M 1228 2134 
Q 725 2547 579 2797 
Q 434 3047 434 3316 
Q 434 3728 753 4026 
Q 1072 4325 1600 4325 
Q 2113 4325 2425 4047 
Q 2738 3769 2738 3413 
Q 2738 3175 2569 2928 
Q 2400 2681 1866 2347 
Q 2416 1922 2594 1678 
Q 2831 1359 2831 1006 
Q 2831 559 2490 242 
Q 2150 -75 1597 -75 
Q 994 -75 656 303 
Q 388 606 388 966 
Q 388 1247 577 1523 
Q 766 1800 1228 2134 
z
M 1719 2469 
Q 2094 2806 2194 3001 
Q 2294 3197 2294 3444 
Q 2294 3772 2109 3958 
Q 1925 4144 1606 4144 
Q 1288 4144 1088 3959 
Q 888 3775 888 3528 
Q 888 3366 970 3203 
Q 1053 3041 1206 2894 
L 1719 2469 
z
M 1375 2016 
Q 1116 1797 991 1539 
Q 866 1281 866 981 
Q 866 578 1086 336 
Q 1306 94 1647 94 
Q 1984 94 2187 284 
Q 2391 475 2391 747 
Q 2391 972 2272 1150 
Q 2050 1481 1375 2016 
z
" transform="scale(0.015625)"/>
       </defs>
       <use xlink:href="#TimesNewRomanPSMT-30"/>
       <use xlink:href="#TimesNewRomanPSMT-38" x="50"/>
      </g>
     </g>
    </g>
    <g id="xtick_17">
     <g id="line2d_93">
      <path d="M 322.648524 758.823395 
L 322.648524 397.554447 
" clip-path="url(#p3e0bd27389)" style="fill: none; stroke: #b0b0b0; stroke-width: 0.8; stroke-linecap: square"/>
     </g>
     <g id="line2d_94">
      <g>
       <use xlink:href="#me6fd2af8ef" x="322.648524" y="758.823395" style="stroke: #000000; stroke-width: 0.8"/>
      </g>
     </g>
     <g id="text_18">
      <!-- 12 -->
      <g transform="translate(315.648524 775.544645) scale(0.14 -0.14)">
       <use xlink:href="#TimesNewRomanPSMT-31"/>
       <use xlink:href="#TimesNewRomanPSMT-32" x="50"/>
      </g>
     </g>
    </g>
    <g id="xtick_18">
     <g id="line2d_95">
      <path d="M 408.615906 758.823395 
L 408.615906 397.554447 
" clip-path="url(#p3e0bd27389)" style="fill: none; stroke: #b0b0b0; stroke-width: 0.8; stroke-linecap: square"/>
     </g>
     <g id="line2d_96">
      <g>
       <use xlink:href="#me6fd2af8ef" x="408.615906" y="758.823395" style="stroke: #000000; stroke-width: 0.8"/>
      </g>
     </g>
     <g id="text_19">
      <!-- 16 -->
      <g transform="translate(401.615906 775.544645) scale(0.14 -0.14)">
       <use xlink:href="#TimesNewRomanPSMT-31"/>
       <use xlink:href="#TimesNewRomanPSMT-36" x="50"/>
      </g>
     </g>
    </g>
    <g id="xtick_19">
     <g id="line2d_97">
      <path d="M 494.583288 758.823395 
L 494.583288 397.554447 
" clip-path="url(#p3e0bd27389)" style="fill: none; stroke: #b0b0b0; stroke-width: 0.8; stroke-linecap: square"/>
     </g>
     <g id="line2d_98">
      <g>
       <use xlink:href="#me6fd2af8ef" x="494.583288" y="758.823395" style="stroke: #000000; stroke-width: 0.8"/>
      </g>
     </g>
     <g id="text_20">
      <!-- 20 -->
      <g transform="translate(487.583288 775.544645) scale(0.14 -0.14)">
       <use xlink:href="#TimesNewRomanPSMT-32"/>
       <use xlink:href="#TimesNewRomanPSMT-30" x="50"/>
      </g>
     </g>
    </g>
    <g id="xtick_20">
     <g id="line2d_99">
      <path d="M 580.55067 758.823395 
L 580.55067 397.554447 
" clip-path="url(#p3e0bd27389)" style="fill: none; stroke: #b0b0b0; stroke-width: 0.8; stroke-linecap: square"/>
     </g>
     <g id="line2d_100">
      <g>
       <use xlink:href="#me6fd2af8ef" x="580.55067" y="758.823395" style="stroke: #000000; stroke-width: 0.8"/>
      </g>
     </g>
     <g id="text_21">
      <!-- 00 -->
      <g transform="translate(573.55067 775.544645) scale(0.14 -0.14)">
       <use xlink:href="#TimesNewRomanPSMT-30"/>
       <use xlink:href="#TimesNewRomanPSMT-30" x="50"/>
      </g>
      <!-- 2016-09-02 -->
      <g transform="translate(547.889107 790.204832) scale(0.14 -0.14)">
       <use xlink:href="#TimesNewRomanPSMT-32"/>
       <use xlink:href="#TimesNewRomanPSMT-30" x="50"/>
       <use xlink:href="#TimesNewRomanPSMT-31" x="100"/>
       <use xlink:href="#TimesNewRomanPSMT-36" x="150"/>
       <use xlink:href="#TimesNewRomanPSMT-2d" x="200"/>
       <use xlink:href="#TimesNewRomanPSMT-30" x="233.300781"/>
       <use xlink:href="#TimesNewRomanPSMT-39" x="283.300781"/>
       <use xlink:href="#TimesNewRomanPSMT-2d" x="333.300781"/>
       <use xlink:href="#TimesNewRomanPSMT-30" x="366.601562"/>
       <use xlink:href="#TimesNewRomanPSMT-32" x="416.601562"/>
      </g>
     </g>
    </g>
    <g id="xtick_21">
     <g id="line2d_101">
      <path d="M 107.730069 758.823395 
L 107.730069 397.554447 
" clip-path="url(#p3e0bd27389)" style="fill: none; stroke-dasharray: 0.5,0.825; stroke-dashoffset: 0; stroke: #bfbfbf; stroke-width: 0.5"/>
     </g>
     <g id="line2d_102">
      <g>
       <use xlink:href="#m98d87deb43" x="107.730069" y="758.823395" style="stroke: #000000; stroke-width: 0.6"/>
      </g>
     </g>
    </g>
    <g id="xtick_22">
     <g id="line2d_103">
      <path d="M 193.697451 758.823395 
L 193.697451 397.554447 
" clip-path="url(#p3e0bd27389)" style="fill: none; stroke-dasharray: 0.5,0.825; stroke-dashoffset: 0; stroke: #bfbfbf; stroke-width: 0.5"/>
     </g>
     <g id="line2d_104">
      <g>
       <use xlink:href="#m98d87deb43" x="193.697451" y="758.823395" style="stroke: #000000; stroke-width: 0.6"/>
      </g>
     </g>
    </g>
    <g id="xtick_23">
     <g id="line2d_105">
      <path d="M 279.664833 758.823395 
L 279.664833 397.554447 
" clip-path="url(#p3e0bd27389)" style="fill: none; stroke-dasharray: 0.5,0.825; stroke-dashoffset: 0; stroke: #bfbfbf; stroke-width: 0.5"/>
     </g>
     <g id="line2d_106">
      <g>
       <use xlink:href="#m98d87deb43" x="279.664833" y="758.823395" style="stroke: #000000; stroke-width: 0.6"/>
      </g>
     </g>
    </g>
    <g id="xtick_24">
     <g id="line2d_107">
      <path d="M 365.632215 758.823395 
L 365.632215 397.554447 
" clip-path="url(#p3e0bd27389)" style="fill: none; stroke-dasharray: 0.5,0.825; stroke-dashoffset: 0; stroke: #bfbfbf; stroke-width: 0.5"/>
     </g>
     <g id="line2d_108">
      <g>
       <use xlink:href="#m98d87deb43" x="365.632215" y="758.823395" style="stroke: #000000; stroke-width: 0.6"/>
      </g>
     </g>
    </g>
    <g id="xtick_25">
     <g id="line2d_109">
      <path d="M 451.599597 758.823395 
L 451.599597 397.554447 
" clip-path="url(#p3e0bd27389)" style="fill: none; stroke-dasharray: 0.5,0.825; stroke-dashoffset: 0; stroke: #bfbfbf; stroke-width: 0.5"/>
     </g>
     <g id="line2d_110">
      <g>
       <use xlink:href="#m98d87deb43" x="451.599597" y="758.823395" style="stroke: #000000; stroke-width: 0.6"/>
      </g>
     </g>
    </g>
    <g id="xtick_26">
     <g id="line2d_111">
      <path d="M 537.566979 758.823395 
L 537.566979 397.554447 
" clip-path="url(#p3e0bd27389)" style="fill: none; stroke-dasharray: 0.5,0.825; stroke-dashoffset: 0; stroke: #bfbfbf; stroke-width: 0.5"/>
     </g>
     <g id="line2d_112">
      <g>
       <use xlink:href="#m98d87deb43" x="537.566979" y="758.823395" style="stroke: #000000; stroke-width: 0.6"/>
      </g>
     </g>
    </g>
   </g>
   <g id="matplotlib.axis_4">
    <g id="ytick_24">
     <g id="line2d_113">
      <path d="M 38.974688 758.823395 
L 606.330537 758.823395 
" clip-path="url(#p3e0bd27389)" style="fill: none; stroke: #b0b0b0; stroke-width: 0.8; stroke-linecap: square"/>
     </g>
     <g id="line2d_114"/>
     <g id="text_22">
      <!-- 0.0 -->
      <g transform="translate(17.974688 763.68402) scale(0.14 -0.14)">
       <defs>
        <path id="TimesNewRomanPSMT-2e" d="M 800 606 
Q 947 606 1047 504 
Q 1147 403 1147 259 
Q 1147 116 1045 14 
Q 944 -88 800 -88 
Q 656 -88 554 14 
Q 453 116 453 259 
Q 453 406 554 506 
Q 656 606 800 606 
z
" transform="scale(0.015625)"/>
       </defs>
       <use xlink:href="#TimesNewRomanPSMT-30"/>
       <use xlink:href="#TimesNewRomanPSMT-2e" x="50"/>
       <use xlink:href="#TimesNewRomanPSMT-30" x="75"/>
      </g>
     </g>
    </g>
    <g id="ytick_25">
     <g id="line2d_115">
      <path d="M 38.974688 703.248516 
L 606.330537 703.248516 
" clip-path="url(#p3e0bd27389)" style="fill: none; stroke: #b0b0b0; stroke-width: 0.8; stroke-linecap: square"/>
     </g>
     <g id="line2d_116"/>
     <g id="text_23">
      <!-- 0.2 -->
      <g transform="translate(17.974688 708.109141) scale(0.14 -0.14)">
       <use xlink:href="#TimesNewRomanPSMT-30"/>
       <use xlink:href="#TimesNewRomanPSMT-2e" x="50"/>
       <use xlink:href="#TimesNewRomanPSMT-32" x="75"/>
      </g>
     </g>
    </g>
    <g id="ytick_26">
     <g id="line2d_117">
      <path d="M 38.974688 647.673637 
L 606.330537 647.673637 
" clip-path="url(#p3e0bd27389)" style="fill: none; stroke: #b0b0b0; stroke-width: 0.8; stroke-linecap: square"/>
     </g>
     <g id="line2d_118"/>
     <g id="text_24">
      <!-- 0.4 -->
      <g transform="translate(17.974688 652.534262) scale(0.14 -0.14)">
       <use xlink:href="#TimesNewRomanPSMT-30"/>
       <use xlink:href="#TimesNewRomanPSMT-2e" x="50"/>
       <use xlink:href="#TimesNewRomanPSMT-34" x="75"/>
      </g>
     </g>
    </g>
    <g id="ytick_27">
     <g id="line2d_119">
      <path d="M 38.974688 592.098758 
L 606.330537 592.098758 
" clip-path="url(#p3e0bd27389)" style="fill: none; stroke: #b0b0b0; stroke-width: 0.8; stroke-linecap: square"/>
     </g>
     <g id="line2d_120"/>
     <g id="text_25">
      <!-- 0.6 -->
      <g transform="translate(17.974688 596.959383) scale(0.14 -0.14)">
       <use xlink:href="#TimesNewRomanPSMT-30"/>
       <use xlink:href="#TimesNewRomanPSMT-2e" x="50"/>
       <use xlink:href="#TimesNewRomanPSMT-36" x="75"/>
      </g>
     </g>
    </g>
    <g id="ytick_28">
     <g id="line2d_121">
      <path d="M 38.974688 536.523879 
L 606.330537 536.523879 
" clip-path="url(#p3e0bd27389)" style="fill: none; stroke: #b0b0b0; stroke-width: 0.8; stroke-linecap: square"/>
     </g>
     <g id="line2d_122"/>
     <g id="text_26">
      <!-- 0.8 -->
      <g transform="translate(17.974688 541.384504) scale(0.14 -0.14)">
       <use xlink:href="#TimesNewRomanPSMT-30"/>
       <use xlink:href="#TimesNewRomanPSMT-2e" x="50"/>
       <use xlink:href="#TimesNewRomanPSMT-38" x="75"/>
      </g>
     </g>
    </g>
    <g id="ytick_29">
     <g id="line2d_123">
      <path d="M 38.974688 480.949001 
L 606.330537 480.949001 
" clip-path="url(#p3e0bd27389)" style="fill: none; stroke: #b0b0b0; stroke-width: 0.8; stroke-linecap: square"/>
     </g>
     <g id="line2d_124"/>
     <g id="text_27">
      <!-- 1.0 -->
      <g transform="translate(17.974688 485.809626) scale(0.14 -0.14)">
       <use xlink:href="#TimesNewRomanPSMT-31"/>
       <use xlink:href="#TimesNewRomanPSMT-2e" x="50"/>
       <use xlink:href="#TimesNewRomanPSMT-30" x="75"/>
      </g>
     </g>
    </g>
    <g id="ytick_30">
     <g id="line2d_125">
      <path d="M 38.974688 425.374122 
L 606.330537 425.374122 
" clip-path="url(#p3e0bd27389)" style="fill: none; stroke: #b0b0b0; stroke-width: 0.8; stroke-linecap: square"/>
     </g>
     <g id="line2d_126"/>
     <g id="text_28">
      <!-- 1.2 -->
      <g transform="translate(17.974688 430.234747) scale(0.14 -0.14)">
       <use xlink:href="#TimesNewRomanPSMT-31"/>
       <use xlink:href="#TimesNewRomanPSMT-2e" x="50"/>
       <use xlink:href="#TimesNewRomanPSMT-32" x="75"/>
      </g>
     </g>
    </g>
    <g id="ytick_31">
     <g id="line2d_127">
      <path d="M 38.974688 744.929675 
L 606.330537 744.929675 
" clip-path="url(#p3e0bd27389)" style="fill: none; stroke-dasharray: 0.5,0.825; stroke-dashoffset: 0; stroke: #bfbfbf; stroke-width: 0.5"/>
     </g>
     <g id="line2d_128"/>
    </g>
    <g id="ytick_32">
     <g id="line2d_129">
      <path d="M 38.974688 731.035956 
L 606.330537 731.035956 
" clip-path="url(#p3e0bd27389)" style="fill: none; stroke-dasharray: 0.5,0.825; stroke-dashoffset: 0; stroke: #bfbfbf; stroke-width: 0.5"/>
     </g>
     <g id="line2d_130"/>
    </g>
    <g id="ytick_33">
     <g id="line2d_131">
      <path d="M 38.974688 717.142236 
L 606.330537 717.142236 
" clip-path="url(#p3e0bd27389)" style="fill: none; stroke-dasharray: 0.5,0.825; stroke-dashoffset: 0; stroke: #bfbfbf; stroke-width: 0.5"/>
     </g>
     <g id="line2d_132"/>
    </g>
    <g id="ytick_34">
     <g id="line2d_133">
      <path d="M 38.974688 689.354796 
L 606.330537 689.354796 
" clip-path="url(#p3e0bd27389)" style="fill: none; stroke-dasharray: 0.5,0.825; stroke-dashoffset: 0; stroke: #bfbfbf; stroke-width: 0.5"/>
     </g>
     <g id="line2d_134"/>
    </g>
    <g id="ytick_35">
     <g id="line2d_135">
      <path d="M 38.974688 675.461077 
L 606.330537 675.461077 
" clip-path="url(#p3e0bd27389)" style="fill: none; stroke-dasharray: 0.5,0.825; stroke-dashoffset: 0; stroke: #bfbfbf; stroke-width: 0.5"/>
     </g>
     <g id="line2d_136"/>
    </g>
    <g id="ytick_36">
     <g id="line2d_137">
      <path d="M 38.974688 661.567357 
L 606.330537 661.567357 
" clip-path="url(#p3e0bd27389)" style="fill: none; stroke-dasharray: 0.5,0.825; stroke-dashoffset: 0; stroke: #bfbfbf; stroke-width: 0.5"/>
     </g>
     <g id="line2d_138"/>
    </g>
    <g id="ytick_37">
     <g id="line2d_139">
      <path d="M 38.974688 633.779918 
L 606.330537 633.779918 
" clip-path="url(#p3e0bd27389)" style="fill: none; stroke-dasharray: 0.5,0.825; stroke-dashoffset: 0; stroke: #bfbfbf; stroke-width: 0.5"/>
     </g>
     <g id="line2d_140"/>
    </g>
    <g id="ytick_38">
     <g id="line2d_141">
      <path d="M 38.974688 619.886198 
L 606.330537 619.886198 
" clip-path="url(#p3e0bd27389)" style="fill: none; stroke-dasharray: 0.5,0.825; stroke-dashoffset: 0; stroke: #bfbfbf; stroke-width: 0.5"/>
     </g>
     <g id="line2d_142"/>
    </g>
    <g id="ytick_39">
     <g id="line2d_143">
      <path d="M 38.974688 605.992478 
L 606.330537 605.992478 
" clip-path="url(#p3e0bd27389)" style="fill: none; stroke-dasharray: 0.5,0.825; stroke-dashoffset: 0; stroke: #bfbfbf; stroke-width: 0.5"/>
     </g>
     <g id="line2d_144"/>
    </g>
    <g id="ytick_40">
     <g id="line2d_145">
      <path d="M 38.974688 578.205039 
L 606.330537 578.205039 
" clip-path="url(#p3e0bd27389)" style="fill: none; stroke-dasharray: 0.5,0.825; stroke-dashoffset: 0; stroke: #bfbfbf; stroke-width: 0.5"/>
     </g>
     <g id="line2d_146"/>
    </g>
    <g id="ytick_41">
     <g id="line2d_147">
      <path d="M 38.974688 564.311319 
L 606.330537 564.311319 
" clip-path="url(#p3e0bd27389)" style="fill: none; stroke-dasharray: 0.5,0.825; stroke-dashoffset: 0; stroke: #bfbfbf; stroke-width: 0.5"/>
     </g>
     <g id="line2d_148"/>
    </g>
    <g id="ytick_42">
     <g id="line2d_149">
      <path d="M 38.974688 550.417599 
L 606.330537 550.417599 
" clip-path="url(#p3e0bd27389)" style="fill: none; stroke-dasharray: 0.5,0.825; stroke-dashoffset: 0; stroke: #bfbfbf; stroke-width: 0.5"/>
     </g>
     <g id="line2d_150"/>
    </g>
    <g id="ytick_43">
     <g id="line2d_151">
      <path d="M 38.974688 522.63016 
L 606.330537 522.63016 
" clip-path="url(#p3e0bd27389)" style="fill: none; stroke-dasharray: 0.5,0.825; stroke-dashoffset: 0; stroke: #bfbfbf; stroke-width: 0.5"/>
     </g>
     <g id="line2d_152"/>
    </g>
    <g id="ytick_44">
     <g id="line2d_153">
      <path d="M 38.974688 508.73644 
L 606.330537 508.73644 
" clip-path="url(#p3e0bd27389)" style="fill: none; stroke-dasharray: 0.5,0.825; stroke-dashoffset: 0; stroke: #bfbfbf; stroke-width: 0.5"/>
     </g>
     <g id="line2d_154"/>
    </g>
    <g id="ytick_45">
     <g id="line2d_155">
      <path d="M 38.974688 494.84272 
L 606.330537 494.84272 
" clip-path="url(#p3e0bd27389)" style="fill: none; stroke-dasharray: 0.5,0.825; stroke-dashoffset: 0; stroke: #bfbfbf; stroke-width: 0.5"/>
     </g>
     <g id="line2d_156"/>
    </g>
    <g id="ytick_46">
     <g id="line2d_157">
      <path d="M 38.974688 467.055281 
L 606.330537 467.055281 
" clip-path="url(#p3e0bd27389)" style="fill: none; stroke-dasharray: 0.5,0.825; stroke-dashoffset: 0; stroke: #bfbfbf; stroke-width: 0.5"/>
     </g>
     <g id="line2d_158"/>
    </g>
    <g id="ytick_47">
     <g id="line2d_159">
      <path d="M 38.974688 453.161561 
L 606.330537 453.161561 
" clip-path="url(#p3e0bd27389)" style="fill: none; stroke-dasharray: 0.5,0.825; stroke-dashoffset: 0; stroke: #bfbfbf; stroke-width: 0.5"/>
     </g>
     <g id="line2d_160"/>
    </g>
    <g id="ytick_48">
     <g id="line2d_161">
      <path d="M 38.974688 439.267841 
L 606.330537 439.267841 
" clip-path="url(#p3e0bd27389)" style="fill: none; stroke-dasharray: 0.5,0.825; stroke-dashoffset: 0; stroke: #bfbfbf; stroke-width: 0.5"/>
     </g>
     <g id="line2d_162"/>
    </g>
    <g id="ytick_49">
     <g id="line2d_163">
      <path d="M 38.974688 411.480402 
L 606.330537 411.480402 
" clip-path="url(#p3e0bd27389)" style="fill: none; stroke-dasharray: 0.5,0.825; stroke-dashoffset: 0; stroke: #bfbfbf; stroke-width: 0.5"/>
     </g>
     <g id="line2d_164"/>
    </g>
    <g id="ytick_50">
     <g id="line2d_165">
      <path d="M 38.974688 397.586682 
L 606.330537 397.586682 
" clip-path="url(#p3e0bd27389)" style="fill: none; stroke-dasharray: 0.5,0.825; stroke-dashoffset: 0; stroke: #bfbfbf; stroke-width: 0.5"/>
     </g>
     <g id="line2d_166"/>
    </g>
   </g>
   <g id="line2d_167">
    <path d="M 64.76359 757.421785 
L 143.244662 757.460521 
L 231.432898 757.901077 
L 249.202447 758.087988 
L 267.177605 758.003923 
L 275.54993 757.850786 
L 275.608647 758.21073 
L 275.652685 757.981204 
L 276.078381 754.927572 
L 285.86936 754.173643 
L 291.475589 753.487752 
L 298.519548 752.546259 
L 300.692494 752.574992 
L 302.997889 752.908957 
L 313.208146 754.721061 
L 317.923483 755.116865 
L 323.61747 755.394804 
L 333.398148 755.636588 
L 377.572245 755.94067 
L 390.526936 755.961347 
L 403.330656 755.966873 
L 413.683964 755.95858 
L 457.593768 755.889858 
L 478.75568 755.890031 
L 489.109023 755.906204 
L 498.948373 755.934171 
L 522.724369 756.056643 
L 533.503606 756.135025 
L 541.463208 756.207762 
L 556.780301 756.351556 
L 574.858298 756.538255 
L 580.541635 756.595702 
L 580.541635 756.595702 
" clip-path="url(#p3e0bd27389)" style="fill: none; stroke: #ff0000; stroke-width: 2; stroke-linecap: square"/>
   </g>
   <g id="line2d_168">
    <path d="M 64.76359 758.705791 
L 273.920549 758.567812 
L 275.593968 758.646963 
L 275.638006 758.623314 
L 275.652685 758.590866 
L 276.093061 757.737094 
L 283.095004 757.285837 
L 287.557458 756.776184 
L 290.932978 756.166723 
L 293.896164 755.390364 
L 299.54479 753.776985 
L 300.795269 753.759904 
L 302.07278 753.970333 
L 303.688105 754.472776 
L 308.622753 756.138574 
L 311.486699 756.756543 
L 314.677096 757.205214 
L 318.995144 757.577574 
L 325.526618 757.889089 
L 335.630366 758.130599 
L 357.174069 758.348294 
L 406.693645 758.504549 
L 477.24307 758.560519 
L 580.541635 758.636248 
L 580.541635 758.636248 
" clip-path="url(#p3e0bd27389)" style="fill: none; stroke: #0000ff; stroke-width: 2; stroke-linecap: square"/>
   </g>
   <g id="line2d_169">
    <path d="M 64.76359 752.096547 
L 165.890975 751.312683 
L 167.351562 751.311167 
L 172.572076 751.242102 
L 174.66896 751.213116 
L 192.383997 750.948296 
L 206.055262 750.7785 
L 218.788049 750.658537 
L 219.582569 750.688004 
L 221.042324 750.783412 
L 222.174146 750.864011 
L 223.913889 750.941837 
L 232.916157 751.441573 
L 234.149706 751.479132 
L 235.853258 751.549063 
L 243.181315 751.86037 
L 243.944982 751.904672 
L 245.839455 751.952836 
L 247.998194 751.993803 
L 250.905914 752.086209 
L 255.473209 752.1029 
L 255.869702 752.062142 
L 263.78521 751.69372 
L 264.651692 751.625328 
L 265.988064 751.508477 
L 266.972046 751.3462 
L 271.142733 750.702681 
L 273.010443 750.198895 
L 273.318712 750.165787 
L 273.72972 750.025435 
L 274.860017 749.679666 
L 275.545562 749.4129 
L 275.579289 750.31879 
L 275.623327 748.653441 
L 275.858193 722.787522 
L 276.00498 716.917759 
L 277.957309 712.277425 
L 279.366506 708.310874 
L 280.731666 703.852454 
L 282.052787 698.856807 
L 283.43263 692.740014 
L 284.753745 685.820788 
L 286.030832 677.929838 
L 287.263878 668.912971 
L 288.482247 658.329135 
L 289.671253 646.072645 
L 290.85963 631.4995 
L 292.135653 612.798627 
L 293.367928 591.315394 
L 294.732582 563.482271 
L 298.725102 478.467536 
L 299.32702 471.500473 
L 299.767489 468.567101 
L 300.075807 467.730048 
L 300.237336 467.705289 
L 300.398823 467.970593 
L 300.633769 468.878305 
L 300.956803 471.112864 
L 301.397307 475.938431 
L 301.955292 484.746888 
L 302.733578 501.044095 
L 303.967141 532.508667 
L 306.346286 593.18978 
L 307.609366 619.42952 
L 308.769632 639.144774 
L 309.932515 655.1599 
L 311.060787 667.634606 
L 312.162304 677.470926 
L 313.310972 685.775953 
L 314.471448 692.545807 
L 315.617227 697.952129 
L 316.895218 702.889269 
L 318.276033 707.166728 
L 319.34389 709.895169 
L 320.900598 713.200003 
L 322.545407 716.010689 
L 324.219586 718.347617 
L 326.231536 720.656775 
L 330.707966 724.483786 
L 335.703798 727.433496 
L 336.922696 728.063422 
L 338.508736 728.77791 
L 341.901104 730.152222 
L 343.868975 730.899302 
L 347.114478 731.954966 
L 349.126404 732.542984 
L 351.666998 733.269373 
L 352.988687 733.609181 
L 353.92857 733.850607 
L 362.916097 735.785473 
L 363.67975 735.951887 
L 364.795844 736.177975 
L 372.755397 737.488275 
L 376.999505 738.085005 
L 379.980666 738.460894 
L 381.772301 738.67701 
L 395.341724 740.064746 
L 396.648733 740.180285 
L 401.377475 740.558232 
L 402.434843 740.63315 
L 429.456249 742.130476 
L 431.321318 742.23306 
L 432.393354 742.251809 
L 438.443797 742.498066 
L 440.573201 742.570029 
L 447.034845 742.791496 
L 449.648877 742.871419 
L 461.617615 743.279735 
L 465.714893 743.4126 
L 487.214578 744.140389 
L 488.874057 744.224814 
L 494.337094 744.431093 
L 498.360947 744.58933 
L 512.885009 745.256592 
L 514.015798 745.301815 
L 518.201202 745.521985 
L 521.696373 745.721033 
L 535.809248 746.518262 
L 539.744992 746.761343 
L 541.859719 746.905151 
L 549.085041 747.380643 
L 552.433355 747.611292 
L 557.470526 747.977583 
L 573.110707 749.175534 
L 578.412219 749.615079 
L 580.541635 749.783179 
L 580.541635 749.783179 
" clip-path="url(#p3e0bd27389)" style="fill: none; stroke: #008000; stroke-width: 2; stroke-linecap: square"/>
   </g>
   <g id="patch_6">
    <path d="M 38.974687 758.823395 
L 606.330537 758.823395 
" style="fill: none; stroke: #000000; stroke-width: 0.8; stroke-linejoin: miter; stroke-linecap: square"/>
   </g>
   <g id="legend_2">
    <g id="patch_7">
     <path d="M 62.602612 422.754447 
L 582.702612 422.754447 
Q 585.502612 422.754447 585.502612 419.954447 
L 585.502612 400.354447 
Q 585.502612 397.554447 582.702612 397.554447 
L 62.602612 397.554447 
Q 59.802612 397.554447 59.802612 400.354447 
L 59.802612 419.954447 
Q 59.802612 422.754447 62.602612 422.754447 
z
" style="fill: #ffffff; stroke: #cccccc; stroke-linejoin: miter"/>
    </g>
    <g id="line2d_170">
     <path d="M 65.402612 408.754447 
L 79.402612 408.754447 
L 93.402612 408.754447 
" style="fill: none; stroke: #ff0000; stroke-width: 2; stroke-linecap: square"/>
    </g>
    <g id="text_29">
     <!-- $|Δr|/R_E$ ($Δr_{\rm{max}} = 144.7$ [km]) -->
     <g transform="translate(104.602612 413.654447) scale(0.14 -0.14)">
      <defs>
       <path id="Cmsy10-6a" d="M 763 -1484 
L 763 4684 
Q 763 4734 800 4767 
Q 838 4800 891 4800 
Q 938 4800 978 4767 
Q 1019 4734 1019 4684 
L 1019 -1484 
Q 1019 -1534 978 -1567 
Q 938 -1600 891 -1600 
Q 838 -1600 800 -1567 
Q 763 -1534 763 -1484 
z
" transform="scale(0.015625)"/>
       <path id="STIXGeneral-Regular-394" d="M 4320 0 
L 307 0 
L 2221 4314 
L 2349 4314 
L 4320 0 
z
M 3354 589 
L 2118 3405 
L 870 589 
L 3354 589 
z
" transform="scale(0.015625)"/>
       <path id="Cmmi10-3d" d="M 359 -1472 
Q 359 -1453 366 -1447 
L 2591 4722 
Q 2603 4759 2634 4779 
Q 2666 4800 2706 4800 
Q 2763 4800 2798 4765 
Q 2834 4731 2834 4672 
L 2834 4647 
L 609 -1522 
Q 572 -1600 488 -1600 
Q 434 -1600 396 -1562 
Q 359 -1525 359 -1472 
z
" transform="scale(0.015625)"/>
       <path id="TimesNewRomanPSMT-28" d="M 1988 -1253 
L 1988 -1369 
Q 1516 -1131 1200 -813 
Q 750 -359 506 256 
Q 263 872 263 1534 
Q 263 2503 741 3301 
Q 1219 4100 1988 4444 
L 1988 4313 
Q 1603 4100 1356 3731 
Q 1109 3363 987 2797 
Q 866 2231 866 1616 
Q 866 947 969 400 
Q 1050 -31 1165 -292 
Q 1281 -553 1476 -793 
Q 1672 -1034 1988 -1253 
z
" transform="scale(0.015625)"/>
       <path id="Cmr10-6d" d="M 191 0 
L 191 225 
Q 409 225 550 259 
Q 691 294 691 428 
L 691 2175 
Q 691 2347 639 2423 
Q 588 2500 491 2517 
Q 394 2534 191 2534 
L 191 2759 
L 1119 2828 
L 1119 2203 
Q 1247 2478 1498 2653 
Q 1750 2828 2047 2828 
Q 2784 2828 2913 2228 
Q 3041 2497 3287 2662 
Q 3534 2828 3828 2828 
Q 4119 2828 4317 2734 
Q 4516 2641 4616 2448 
Q 4716 2256 4716 1966 
L 4716 428 
Q 4716 294 4858 259 
Q 5000 225 5216 225 
L 5216 0 
L 3750 0 
L 3750 225 
Q 3969 225 4109 259 
Q 4250 294 4250 428 
L 4250 1947 
Q 4250 2269 4159 2466 
Q 4069 2663 3788 2663 
Q 3419 2663 3178 2366 
Q 2938 2069 2938 1691 
L 2938 428 
Q 2938 294 3078 259 
Q 3219 225 3438 225 
L 3438 0 
L 1972 0 
L 1972 225 
Q 2191 225 2331 259 
Q 2472 294 2472 428 
L 2472 1947 
Q 2472 2259 2381 2461 
Q 2291 2663 2009 2663 
Q 1638 2663 1398 2366 
Q 1159 2069 1159 1691 
L 1159 428 
Q 1159 294 1300 259 
Q 1441 225 1656 225 
L 1656 0 
L 191 0 
z
" transform="scale(0.015625)"/>
       <path id="Cmr10-61" d="M 256 628 
Q 256 1009 556 1248 
Q 856 1488 1276 1586 
Q 1697 1684 2075 1684 
L 2075 1947 
Q 2075 2131 1994 2304 
Q 1913 2478 1759 2589 
Q 1606 2700 1422 2700 
Q 997 2700 775 2509 
Q 897 2509 976 2417 
Q 1056 2325 1056 2203 
Q 1056 2075 965 1984 
Q 875 1894 750 1894 
Q 622 1894 531 1984 
Q 441 2075 441 2203 
Q 441 2541 747 2705 
Q 1053 2869 1422 2869 
Q 1681 2869 1943 2758 
Q 2206 2647 2373 2440 
Q 2541 2234 2541 1959 
L 2541 519 
Q 2541 394 2594 289 
Q 2647 184 2759 184 
Q 2866 184 2917 290 
Q 2969 397 2969 519 
L 2969 928 
L 3156 928 
L 3156 519 
Q 3156 375 3081 245 
Q 3006 116 2879 39 
Q 2753 -38 2606 -38 
Q 2419 -38 2283 107 
Q 2147 253 2131 453 
Q 2013 213 1781 70 
Q 1550 -72 1288 -72 
Q 1044 -72 808 0 
Q 572 72 414 226 
Q 256 381 256 628 
z
M 775 628 
Q 775 403 940 250 
Q 1106 97 1331 97 
Q 1538 97 1706 200 
Q 1875 303 1975 481 
Q 2075 659 2075 856 
L 2075 1522 
Q 1784 1522 1479 1426 
Q 1175 1331 975 1128 
Q 775 925 775 628 
z
" transform="scale(0.015625)"/>
       <path id="Cmr10-78" d="M 78 0 
L 78 225 
Q 322 225 537 320 
Q 753 416 903 603 
L 1484 1344 
L 728 2328 
Q 616 2469 483 2501 
Q 350 2534 109 2534 
L 109 2759 
L 1441 2759 
L 1441 2534 
Q 1356 2534 1282 2496 
Q 1209 2459 1209 2388 
Q 1209 2363 1228 2328 
L 1741 1663 
L 2125 2156 
Q 2203 2250 2203 2344 
Q 2203 2422 2151 2478 
Q 2100 2534 2016 2534 
L 2016 2759 
L 3194 2759 
L 3194 2534 
Q 2947 2534 2730 2439 
Q 2513 2344 2363 2156 
L 1856 1509 
L 2675 428 
Q 2797 288 2928 256 
Q 3059 225 3303 225 
L 3303 0 
L 1972 0 
L 1972 225 
Q 2050 225 2122 262 
Q 2194 300 2194 372 
Q 2194 400 2175 428 
L 1600 1191 
L 1141 603 
Q 1069 522 1069 416 
Q 1069 338 1122 281 
Q 1175 225 1247 225 
L 1247 0 
L 78 0 
z
" transform="scale(0.015625)"/>
       <path id="Cmr10-3d" d="M 481 850 
Q 428 850 393 890 
Q 359 931 359 978 
Q 359 1031 393 1068 
Q 428 1106 481 1106 
L 4500 1106 
Q 4547 1106 4581 1068 
Q 4616 1031 4616 978 
Q 4616 931 4581 890 
Q 4547 850 4500 850 
L 481 850 
z
M 481 2094 
Q 428 2094 393 2131 
Q 359 2169 359 2222 
Q 359 2269 393 2309 
Q 428 2350 481 2350 
L 4500 2350 
Q 4547 2350 4581 2309 
Q 4616 2269 4616 2222 
Q 4616 2169 4581 2131 
Q 4547 2094 4500 2094 
L 481 2094 
z
" transform="scale(0.015625)"/>
       <path id="Cmr10-31" d="M 594 0 
L 594 225 
Q 1394 225 1394 428 
L 1394 3788 
Q 1063 3628 556 3628 
L 556 3853 
Q 1341 3853 1741 4263 
L 1831 4263 
Q 1853 4263 1873 4245 
Q 1894 4228 1894 4206 
L 1894 428 
Q 1894 225 2694 225 
L 2694 0 
L 594 0 
z
" transform="scale(0.015625)"/>
       <path id="Cmr10-34" d="M 178 1056 
L 178 1281 
L 2156 4231 
Q 2178 4263 2222 4263 
L 2316 4263 
Q 2388 4263 2388 4191 
L 2388 1281 
L 3016 1281 
L 3016 1056 
L 2388 1056 
L 2388 428 
Q 2388 297 2575 261 
Q 2763 225 3009 225 
L 3009 0 
L 1247 0 
L 1247 225 
Q 1494 225 1681 261 
Q 1869 297 1869 428 
L 1869 1056 
L 178 1056 
z
M 391 1281 
L 1906 1281 
L 1906 3547 
L 391 1281 
z
" transform="scale(0.015625)"/>
       <path id="Cmmi10-3a" d="M 538 353 
Q 538 497 644 600 
Q 750 703 891 703 
Q 978 703 1062 656 
Q 1147 609 1194 525 
Q 1241 441 1241 353 
Q 1241 213 1137 106 
Q 1034 0 891 0 
Q 750 0 644 106 
Q 538 213 538 353 
z
" transform="scale(0.015625)"/>
       <path id="Cmr10-37" d="M 1113 166 
Q 1113 522 1175 862 
Q 1238 1203 1358 1536 
Q 1478 1869 1648 2189 
Q 1819 2509 2022 2791 
L 2606 3603 
L 1875 3603 
Q 738 3603 703 3572 
Q 619 3469 544 2981 
L 359 2981 
L 569 4325 
L 756 4325 
L 756 4306 
Q 756 4191 1147 4156 
Q 1538 4122 1913 4122 
L 3103 4122 
L 3103 3956 
Q 3103 3950 3101 3947 
Q 3100 3944 3097 3938 
L 2216 2700 
Q 1891 2219 1809 1631 
Q 1728 1044 1728 166 
Q 1728 41 1637 -50 
Q 1547 -141 1422 -141 
Q 1294 -141 1203 -50 
Q 1113 41 1113 166 
z
" transform="scale(0.015625)"/>
       <path id="TimesNewRomanPSMT-5b" d="M 1900 -1269 
L 525 -1269 
L 525 4334 
L 1900 4334 
L 1900 4088 
L 994 4088 
L 994 -1025 
L 1900 -1025 
L 1900 -1269 
z
" transform="scale(0.015625)"/>
       <path id="TimesNewRomanPSMT-6b" d="M 1047 4444 
L 1047 1594 
L 1775 2259 
Q 2006 2472 2044 2528 
Q 2069 2566 2069 2603 
Q 2069 2666 2017 2711 
Q 1966 2756 1847 2763 
L 1847 2863 
L 3091 2863 
L 3091 2763 
Q 2834 2756 2664 2684 
Q 2494 2613 2291 2428 
L 1556 1750 
L 2291 822 
Q 2597 438 2703 334 
Q 2853 188 2966 144 
Q 3044 113 3238 113 
L 3238 0 
L 1847 0 
L 1847 113 
Q 1966 116 2008 148 
Q 2050 181 2050 241 
Q 2050 313 1925 472 
L 1047 1594 
L 1047 644 
Q 1047 366 1086 278 
Q 1125 191 1197 153 
Q 1269 116 1509 113 
L 1509 0 
L 53 0 
L 53 113 
Q 272 113 381 166 
Q 447 200 481 272 
Q 528 375 528 628 
L 528 3234 
Q 528 3731 506 3842 
Q 484 3953 434 3995 
Q 384 4038 303 4038 
Q 238 4038 106 3984 
L 53 4094 
L 903 4444 
L 1047 4444 
z
" transform="scale(0.015625)"/>
       <path id="TimesNewRomanPSMT-6d" d="M 1050 2338 
Q 1363 2650 1419 2697 
Q 1559 2816 1721 2881 
Q 1884 2947 2044 2947 
Q 2313 2947 2506 2790 
Q 2700 2634 2766 2338 
Q 3088 2713 3309 2830 
Q 3531 2947 3766 2947 
Q 3994 2947 4170 2830 
Q 4347 2713 4450 2447 
Q 4519 2266 4519 1878 
L 4519 647 
Q 4519 378 4559 278 
Q 4591 209 4675 161 
Q 4759 113 4950 113 
L 4950 0 
L 3538 0 
L 3538 113 
L 3597 113 
Q 3781 113 3884 184 
Q 3956 234 3988 344 
Q 4000 397 4000 647 
L 4000 1878 
Q 4000 2228 3916 2372 
Q 3794 2572 3525 2572 
Q 3359 2572 3192 2489 
Q 3025 2406 2788 2181 
L 2781 2147 
L 2788 2013 
L 2788 647 
Q 2788 353 2820 281 
Q 2853 209 2943 161 
Q 3034 113 3253 113 
L 3253 0 
L 1806 0 
L 1806 113 
Q 2044 113 2133 169 
Q 2222 225 2256 338 
Q 2272 391 2272 647 
L 2272 1878 
Q 2272 2228 2169 2381 
Q 2031 2581 1784 2581 
Q 1616 2581 1450 2491 
Q 1191 2353 1050 2181 
L 1050 647 
Q 1050 366 1089 281 
Q 1128 197 1204 155 
Q 1281 113 1516 113 
L 1516 0 
L 100 0 
L 100 113 
Q 297 113 375 155 
Q 453 197 493 289 
Q 534 381 534 647 
L 534 1741 
Q 534 2213 506 2350 
Q 484 2453 437 2492 
Q 391 2531 309 2531 
Q 222 2531 100 2484 
L 53 2597 
L 916 2947 
L 1050 2947 
L 1050 2338 
z
" transform="scale(0.015625)"/>
       <path id="TimesNewRomanPSMT-5d" d="M 234 4334 
L 1609 4334 
L 1609 -1272 
L 234 -1272 
L 234 -1025 
L 1141 -1025 
L 1141 4088 
L 234 4088 
L 234 4334 
z
" transform="scale(0.015625)"/>
       <path id="TimesNewRomanPSMT-29" d="M 144 4313 
L 144 4444 
Q 619 4209 934 3891 
Q 1381 3434 1625 2820 
Q 1869 2206 1869 1541 
Q 1869 572 1392 -226 
Q 916 -1025 144 -1369 
L 144 -1253 
Q 528 -1038 776 -670 
Q 1025 -303 1145 264 
Q 1266 831 1266 1447 
Q 1266 2113 1163 2663 
Q 1084 3094 967 3353 
Q 850 3613 656 3853 
Q 463 4094 144 4313 
z
" transform="scale(0.015625)"/>
      </defs>
      <use xlink:href="#Cmsy10-6a"/>
      <use xlink:href="#STIXGeneral-Regular-394" transform="translate(27.685547 0)"/>
      <use xlink:href="#Cmmi10-72" transform="translate(99.885529 0)"/>
      <use xlink:href="#Cmsy10-6a" transform="translate(145.002716 0)"/>
      <use xlink:href="#Cmmi10-3d" transform="translate(172.688263 0)"/>
      <use xlink:href="#Cmmi10-52" transform="translate(222.688263 0)"/>
      <use xlink:href="#Cmmi10-45" transform="translate(298.567169 -17.00625) scale(0.7)"/>
      <use xlink:href="#TimesNewRomanPSMT-20" transform="translate(356.590021 0)"/>
      <use xlink:href="#TimesNewRomanPSMT-28" transform="translate(381.590021 0)"/>
      <use xlink:href="#STIXGeneral-Regular-394" transform="translate(414.890802 0)"/>
      <use xlink:href="#Cmmi10-72" transform="translate(487.090784 0)"/>
      <use xlink:href="#Cmr10-6d" transform="translate(532.207971 -17.00625) scale(0.7)"/>
      <use xlink:href="#Cmr10-61" transform="translate(590.518518 -17.00625) scale(0.7)"/>
      <use xlink:href="#Cmr10-78" transform="translate(625.518518 -17.00625) scale(0.7)"/>
      <use xlink:href="#Cmr10-3d" transform="translate(686.334338 0)"/>
      <use xlink:href="#Cmr10-31" transform="translate(781.578479 0)"/>
      <use xlink:href="#Cmr10-34" transform="translate(831.578479 0)"/>
      <use xlink:href="#Cmr10-34" transform="translate(881.578479 0)"/>
      <use xlink:href="#Cmmi10-3a" transform="translate(931.578479 0)"/>
      <use xlink:href="#Cmr10-37" transform="translate(959.264026 0)"/>
      <use xlink:href="#TimesNewRomanPSMT-20" transform="translate(1009.264026 0)"/>
      <use xlink:href="#TimesNewRomanPSMT-5b" transform="translate(1034.264026 0)"/>
      <use xlink:href="#TimesNewRomanPSMT-6b" transform="translate(1067.564807 0)"/>
      <use xlink:href="#TimesNewRomanPSMT-6d" transform="translate(1117.564807 0)"/>
      <use xlink:href="#TimesNewRomanPSMT-5d" transform="translate(1195.34801 0)"/>
      <use xlink:href="#TimesNewRomanPSMT-29" transform="translate(1228.648792 0)"/>
     </g>
    </g>
    <g id="line2d_171">
     <path d="M 309.282612 408.754447 
L 323.282612 408.754447 
L 337.282612 408.754447 
" style="fill: none; stroke: #0000ff; stroke-width: 2; stroke-linecap: square"/>
    </g>
    <g id="text_30">
     <!-- $|Δr|/\overline{r}$  (max= 1/55) -->
     <g transform="translate(348.482612 413.654447) scale(0.14 -0.14)">
      <defs>
       <path id="TimesNewRomanPSMT-61" d="M 1822 413 
Q 1381 72 1269 19 
Q 1100 -59 909 -59 
Q 613 -59 420 144 
Q 228 347 228 678 
Q 228 888 322 1041 
Q 450 1253 767 1440 
Q 1084 1628 1822 1897 
L 1822 2009 
Q 1822 2438 1686 2597 
Q 1550 2756 1291 2756 
Q 1094 2756 978 2650 
Q 859 2544 859 2406 
L 866 2225 
Q 866 2081 792 2003 
Q 719 1925 600 1925 
Q 484 1925 411 2006 
Q 338 2088 338 2228 
Q 338 2497 613 2722 
Q 888 2947 1384 2947 
Q 1766 2947 2009 2819 
Q 2194 2722 2281 2516 
Q 2338 2381 2338 1966 
L 2338 994 
Q 2338 584 2353 492 
Q 2369 400 2405 369 
Q 2441 338 2488 338 
Q 2538 338 2575 359 
Q 2641 400 2828 588 
L 2828 413 
Q 2478 -56 2159 -56 
Q 2006 -56 1915 50 
Q 1825 156 1822 413 
z
M 1822 616 
L 1822 1706 
Q 1350 1519 1213 1441 
Q 966 1303 859 1153 
Q 753 1003 753 825 
Q 753 600 887 451 
Q 1022 303 1197 303 
Q 1434 303 1822 616 
z
" transform="scale(0.015625)"/>
       <path id="TimesNewRomanPSMT-78" d="M 84 2863 
L 1431 2863 
L 1431 2747 
Q 1303 2747 1251 2703 
Q 1200 2659 1200 2588 
Q 1200 2513 1309 2356 
Q 1344 2306 1413 2200 
L 1616 1875 
L 1850 2200 
Q 2075 2509 2075 2591 
Q 2075 2656 2022 2701 
Q 1969 2747 1850 2747 
L 1850 2863 
L 2819 2863 
L 2819 2747 
Q 2666 2738 2553 2663 
Q 2400 2556 2134 2200 
L 1744 1678 
L 2456 653 
Q 2719 275 2831 198 
Q 2944 122 3122 113 
L 3122 0 
L 1772 0 
L 1772 113 
Q 1913 113 1991 175 
Q 2050 219 2050 291 
Q 2050 363 1850 653 
L 1431 1266 
L 972 653 
Q 759 369 759 316 
Q 759 241 829 180 
Q 900 119 1041 113 
L 1041 0 
L 106 0 
L 106 113 
Q 219 128 303 191 
Q 422 281 703 653 
L 1303 1450 
L 759 2238 
Q 528 2575 401 2661 
Q 275 2747 84 2747 
L 84 2863 
z
" transform="scale(0.015625)"/>
       <path id="TimesNewRomanPSMT-3d" d="M 116 2759 
L 3488 2759 
L 3488 2503 
L 116 2503 
L 116 2759 
z
M 116 1741 
L 3488 1741 
L 3488 1484 
L 116 1484 
L 116 1741 
z
" transform="scale(0.015625)"/>
      </defs>
      <use xlink:href="#Cmsy10-6a"/>
      <use xlink:href="#STIXGeneral-Regular-394" transform="translate(27.685547 0)"/>
      <use xlink:href="#Cmmi10-72" transform="translate(99.885529 0)"/>
      <use xlink:href="#Cmsy10-6a" transform="translate(145.002716 0)"/>
      <use xlink:href="#Cmmi10-3d" transform="translate(172.688263 0)"/>
      <use xlink:href="#Cmmi10-72" transform="translate(222.688263 0.5)"/>
      <use xlink:href="#TimesNewRomanPSMT-20" transform="translate(267.80545 0)"/>
      <use xlink:href="#TimesNewRomanPSMT-20" transform="translate(292.80545 0)"/>
      <use xlink:href="#TimesNewRomanPSMT-28" transform="translate(317.80545 0)"/>
      <use xlink:href="#TimesNewRomanPSMT-6d" transform="translate(351.106232 0)"/>
      <use xlink:href="#TimesNewRomanPSMT-61" transform="translate(428.889435 0)"/>
      <use xlink:href="#TimesNewRomanPSMT-78" transform="translate(473.2742 0)"/>
      <use xlink:href="#TimesNewRomanPSMT-3d" transform="translate(523.2742 0)"/>
      <use xlink:href="#TimesNewRomanPSMT-20" transform="translate(579.670685 0)"/>
      <use xlink:href="#TimesNewRomanPSMT-31" transform="translate(604.670685 0)"/>
      <use xlink:href="#TimesNewRomanPSMT-2f" transform="translate(654.670685 0)"/>
      <use xlink:href="#TimesNewRomanPSMT-35" transform="translate(682.453888 0)"/>
      <use xlink:href="#TimesNewRomanPSMT-35" transform="translate(732.453888 0)"/>
      <use xlink:href="#TimesNewRomanPSMT-29" transform="translate(782.453888 0)"/>
      <path d="M 222.688263 56.4375 
L 222.688263 62.6875 
L 267.80545 62.6875 
L 267.80545 56.4375 
L 222.688263 56.4375 
z
"/>
     </g>
    </g>
    <g id="line2d_172">
     <path d="M 490.722612 408.754447 
L 504.722612 408.754447 
L 518.722612 408.754447 
" style="fill: none; stroke: #008000; stroke-width: 2; stroke-linecap: square"/>
    </g>
    <g id="text_31">
     <!-- $Δθ$ [deg] -->
     <g transform="translate(529.922612 413.654447) scale(0.14 -0.14)">
      <defs>
       <path id="STIXGeneral-Italic-3b8" d="M 3162 3270 
Q 3162 2534 2925 1862 
Q 2688 1190 2304 678 
Q 1741 -70 992 -70 
Q 608 -70 390 224 
Q 173 518 173 1030 
Q 173 1997 592 2813 
Q 1011 3629 1594 4070 
Q 1952 4339 2374 4339 
Q 2733 4339 2947 4076 
Q 3162 3814 3162 3270 
z
M 941 2221 
L 2432 2221 
Q 2624 2874 2624 3533 
Q 2624 4205 2285 4205 
Q 2029 4205 1728 3814 
Q 1427 3424 1232 2992 
Q 1037 2560 941 2221 
z
M 2387 2016 
L 896 2016 
Q 710 1530 710 960 
Q 710 64 1069 64 
Q 1286 64 1510 275 
Q 1734 486 1904 806 
Q 2074 1126 2198 1440 
Q 2323 1754 2387 2016 
z
" transform="scale(0.015625)"/>
       <path id="TimesNewRomanPSMT-64" d="M 2222 322 
Q 2013 103 1813 7 
Q 1613 -88 1381 -88 
Q 913 -88 563 304 
Q 213 697 213 1313 
Q 213 1928 600 2439 
Q 988 2950 1597 2950 
Q 1975 2950 2222 2709 
L 2222 3238 
Q 2222 3728 2198 3840 
Q 2175 3953 2125 3993 
Q 2075 4034 2000 4034 
Q 1919 4034 1784 3984 
L 1744 4094 
L 2597 4444 
L 2738 4444 
L 2738 1134 
Q 2738 631 2761 520 
Q 2784 409 2836 365 
Q 2888 322 2956 322 
Q 3041 322 3181 375 
L 3216 266 
L 2366 -88 
L 2222 -88 
L 2222 322 
z
M 2222 541 
L 2222 2016 
Q 2203 2228 2109 2403 
Q 2016 2578 1861 2667 
Q 1706 2756 1559 2756 
Q 1284 2756 1069 2509 
Q 784 2184 784 1559 
Q 784 928 1059 592 
Q 1334 256 1672 256 
Q 1956 256 2222 541 
z
" transform="scale(0.015625)"/>
       <path id="TimesNewRomanPSMT-67" d="M 966 1044 
Q 703 1172 562 1401 
Q 422 1631 422 1909 
Q 422 2334 742 2640 
Q 1063 2947 1563 2947 
Q 1972 2947 2272 2747 
L 2878 2747 
Q 3013 2747 3034 2739 
Q 3056 2731 3066 2713 
Q 3084 2684 3084 2613 
Q 3084 2531 3069 2500 
Q 3059 2484 3036 2475 
Q 3013 2466 2878 2466 
L 2506 2466 
Q 2681 2241 2681 1891 
Q 2681 1491 2375 1206 
Q 2069 922 1553 922 
Q 1341 922 1119 984 
Q 981 866 932 777 
Q 884 688 884 625 
Q 884 572 936 522 
Q 988 472 1138 450 
Q 1225 438 1575 428 
Q 2219 413 2409 384 
Q 2700 344 2873 169 
Q 3047 -6 3047 -263 
Q 3047 -616 2716 -925 
Q 2228 -1381 1444 -1381 
Q 841 -1381 425 -1109 
Q 191 -953 191 -784 
Q 191 -709 225 -634 
Q 278 -519 444 -313 
Q 466 -284 763 25 
Q 600 122 533 198 
Q 466 275 466 372 
Q 466 481 555 628 
Q 644 775 966 1044 
z
M 1509 2797 
Q 1278 2797 1122 2612 
Q 966 2428 966 2047 
Q 966 1553 1178 1281 
Q 1341 1075 1591 1075 
Q 1828 1075 1981 1253 
Q 2134 1431 2134 1813 
Q 2134 2309 1919 2591 
Q 1759 2797 1509 2797 
z
M 934 0 
Q 788 -159 713 -296 
Q 638 -434 638 -550 
Q 638 -700 819 -813 
Q 1131 -1006 1722 -1006 
Q 2284 -1006 2551 -807 
Q 2819 -609 2819 -384 
Q 2819 -222 2659 -153 
Q 2497 -84 2016 -72 
Q 1313 -53 934 0 
z
" transform="scale(0.015625)"/>
      </defs>
      <use xlink:href="#STIXGeneral-Regular-394" transform="translate(0 0.5625)"/>
      <use xlink:href="#STIXGeneral-Italic-3b8" transform="translate(72.199982 0.5625)"/>
      <use xlink:href="#TimesNewRomanPSMT-20" transform="translate(120.199966 0.5625)"/>
      <use xlink:href="#TimesNewRomanPSMT-5b" transform="translate(145.199966 0.5625)"/>
      <use xlink:href="#TimesNewRomanPSMT-64" transform="translate(178.500748 0.5625)"/>
      <use xlink:href="#TimesNewRomanPSMT-65" transform="translate(228.500748 0.5625)"/>
      <use xlink:href="#TimesNewRomanPSMT-67" transform="translate(272.885513 0.5625)"/>
      <use xlink:href="#TimesNewRomanPSMT-5d" transform="translate(322.885513 0.5625)"/>
     </g>
    </g>
   </g>
  </g>
 </g>
 <defs>
  <clipPath id="p33fd455ecc">
   <rect x="38.974688" y="24.8655" width="567.35585" height="361.268947"/>
  </clipPath>
  <clipPath id="p3e0bd27389">
   <rect x="38.974688" y="397.554447" width="567.35585" height="361.268947"/>
  </clipPath>
 </defs>
</svg>
