<?xml version="1.0" encoding="utf-8" standalone="no"?>
<!DOCTYPE svg PUBLIC "-//W3C//DTD SVG 1.1//EN"
  "http://www.w3.org/Graphics/SVG/1.1/DTD/svg11.dtd">
<svg xmlns:xlink="http://www.w3.org/1999/xlink" width="406.02pt" height="321.398875pt" viewBox="0 0 406.02 321.398875" xmlns="http://www.w3.org/2000/svg" version="1.1">
 <metadata>
  <rdf:RDF xmlns:dc="http://purl.org/dc/elements/1.1/" xmlns:cc="http://creativecommons.org/ns#" xmlns:rdf="http://www.w3.org/1999/02/22-rdf-syntax-ns#">
   <cc:Work>
    <dc:type rdf:resource="http://purl.org/dc/dcmitype/StillImage"/>
    <dc:date>2025-05-07T14:57:09.411939</dc:date>
    <dc:format>image/svg+xml</dc:format>
    <dc:creator>
     <cc:Agent>
      <dc:title>Matplotlib v3.8.4, https://matplotlib.org/</dc:title>
     </cc:Agent>
    </dc:creator>
   </cc:Work>
  </rdf:RDF>
 </metadata>
 <defs>
  <style type="text/css">*{stroke-linejoin: round; stroke-linecap: butt}</style>
 </defs>
 <g id="figure_1">
  <g id="patch_1">
   <path d="M 0 321.398875 
L 406.02 321.398875 
L 406.02 0 
L 0 0 
z
" style="fill: #ffffff"/>
  </g>
  <g id="axes_1">
   <g id="patch_2">
    <path d="M 41.7 287.6445 
L 398.82 287.6445 
L 398.82 21.5325 
L 41.7 21.5325 
z
" style="fill: #ffffff"/>
   </g>
   <g id="matplotlib.axis_1">
    <g id="xtick_1">
     <g id="line2d_1">
      <path d="M 57.932727 287.6445 
L 57.932727 21.5325 
" clip-path="url(#pefa7d55787)" style="fill: none; stroke: #b0b0b0; stroke-width: 0.8; stroke-linecap: square"/>
     </g>
     <g id="line2d_2">
      <defs>
       <path id="ma8c379839c" d="M 0 0 
L 0 3.5 
" style="stroke: #000000; stroke-width: 0.8"/>
      </defs>
      <g>
       <use xlink:href="#ma8c379839c" x="57.932727" y="287.6445" style="stroke: #000000; stroke-width: 0.8"/>
      </g>
     </g>
     <g id="text_1">
      <!-- 25 -->
      <g transform="translate(52.932727 301.58825) scale(0.1 -0.1)">
       <defs>
        <path id="TimesNewRomanPSMT-32" d="M 2934 816 
L 2638 0 
L 138 0 
L 138 116 
Q 1241 1122 1691 1759 
Q 2141 2397 2141 2925 
Q 2141 3328 1894 3587 
Q 1647 3847 1303 3847 
Q 991 3847 742 3664 
Q 494 3481 375 3128 
L 259 3128 
Q 338 3706 661 4015 
Q 984 4325 1469 4325 
Q 1984 4325 2329 3994 
Q 2675 3663 2675 3213 
Q 2675 2891 2525 2569 
Q 2294 2063 1775 1497 
Q 997 647 803 472 
L 1909 472 
Q 2247 472 2383 497 
Q 2519 522 2628 598 
Q 2738 675 2819 816 
L 2934 816 
z
" transform="scale(0.015625)"/>
        <path id="TimesNewRomanPSMT-35" d="M 2778 4238 
L 2534 3706 
L 1259 3706 
L 981 3138 
Q 1809 3016 2294 2522 
Q 2709 2097 2709 1522 
Q 2709 1188 2573 903 
Q 2438 619 2231 419 
Q 2025 219 1772 97 
Q 1413 -75 1034 -75 
Q 653 -75 479 54 
Q 306 184 306 341 
Q 306 428 378 495 
Q 450 563 559 563 
Q 641 563 702 538 
Q 763 513 909 409 
Q 1144 247 1384 247 
Q 1750 247 2026 523 
Q 2303 800 2303 1197 
Q 2303 1581 2056 1914 
Q 1809 2247 1375 2428 
Q 1034 2569 447 2591 
L 1259 4238 
L 2778 4238 
z
" transform="scale(0.015625)"/>
       </defs>
       <use xlink:href="#TimesNewRomanPSMT-32"/>
       <use xlink:href="#TimesNewRomanPSMT-35" x="50"/>
      </g>
      <!-- 2021-11 -->
      <g transform="translate(41.455384 312.059812) scale(0.1 -0.1)">
       <defs>
        <path id="TimesNewRomanPSMT-30" d="M 231 2094 
Q 231 2819 450 3342 
Q 669 3866 1031 4122 
Q 1313 4325 1613 4325 
Q 2100 4325 2488 3828 
Q 2972 3213 2972 2159 
Q 2972 1422 2759 906 
Q 2547 391 2217 158 
Q 1888 -75 1581 -75 
Q 975 -75 572 641 
Q 231 1244 231 2094 
z
M 844 2016 
Q 844 1141 1059 588 
Q 1238 122 1591 122 
Q 1759 122 1940 273 
Q 2122 425 2216 781 
Q 2359 1319 2359 2297 
Q 2359 3022 2209 3506 
Q 2097 3866 1919 4016 
Q 1791 4119 1609 4119 
Q 1397 4119 1231 3928 
Q 1006 3669 925 3112 
Q 844 2556 844 2016 
z
" transform="scale(0.015625)"/>
        <path id="TimesNewRomanPSMT-31" d="M 750 3822 
L 1781 4325 
L 1884 4325 
L 1884 747 
Q 1884 391 1914 303 
Q 1944 216 2037 169 
Q 2131 122 2419 116 
L 2419 0 
L 825 0 
L 825 116 
Q 1125 122 1212 167 
Q 1300 213 1334 289 
Q 1369 366 1369 747 
L 1369 3034 
Q 1369 3497 1338 3628 
Q 1316 3728 1258 3775 
Q 1200 3822 1119 3822 
Q 1003 3822 797 3725 
L 750 3822 
z
" transform="scale(0.015625)"/>
        <path id="TimesNewRomanPSMT-2d" d="M 259 1672 
L 1875 1672 
L 1875 1200 
L 259 1200 
L 259 1672 
z
" transform="scale(0.015625)"/>
       </defs>
       <use xlink:href="#TimesNewRomanPSMT-32"/>
       <use xlink:href="#TimesNewRomanPSMT-30" x="50"/>
       <use xlink:href="#TimesNewRomanPSMT-32" x="100"/>
       <use xlink:href="#TimesNewRomanPSMT-31" x="150"/>
       <use xlink:href="#TimesNewRomanPSMT-2d" x="200"/>
       <use xlink:href="#TimesNewRomanPSMT-31" x="233.300781"/>
       <use xlink:href="#TimesNewRomanPSMT-31" x="279.550781"/>
      </g>
     </g>
    </g>
    <g id="xtick_2">
     <g id="line2d_3">
      <path d="M 90.534021 287.6445 
L 90.534021 21.5325 
" clip-path="url(#pefa7d55787)" style="fill: none; stroke: #b0b0b0; stroke-width: 0.8; stroke-linecap: square"/>
     </g>
     <g id="line2d_4">
      <g>
       <use xlink:href="#ma8c379839c" x="90.534021" y="287.6445" style="stroke: #000000; stroke-width: 0.8"/>
      </g>
     </g>
     <g id="text_2">
      <!-- 26 -->
      <g transform="translate(85.534021 301.58825) scale(0.1 -0.1)">
       <defs>
        <path id="TimesNewRomanPSMT-36" d="M 2869 4325 
L 2869 4209 
Q 2456 4169 2195 4045 
Q 1934 3922 1679 3669 
Q 1425 3416 1258 3105 
Q 1091 2794 978 2366 
Q 1428 2675 1881 2675 
Q 2316 2675 2634 2325 
Q 2953 1975 2953 1425 
Q 2953 894 2631 456 
Q 2244 -75 1606 -75 
Q 1172 -75 869 213 
Q 275 772 275 1663 
Q 275 2231 503 2743 
Q 731 3256 1154 3653 
Q 1578 4050 1965 4187 
Q 2353 4325 2688 4325 
L 2869 4325 
z
M 925 2138 
Q 869 1716 869 1456 
Q 869 1156 980 804 
Q 1091 453 1309 247 
Q 1469 100 1697 100 
Q 1969 100 2183 356 
Q 2397 613 2397 1088 
Q 2397 1622 2184 2012 
Q 1972 2403 1581 2403 
Q 1463 2403 1327 2353 
Q 1191 2303 925 2138 
z
" transform="scale(0.015625)"/>
       </defs>
       <use xlink:href="#TimesNewRomanPSMT-32"/>
       <use xlink:href="#TimesNewRomanPSMT-36" x="50"/>
      </g>
     </g>
    </g>
    <g id="xtick_3">
     <g id="line2d_5">
      <path d="M 123.135314 287.6445 
L 123.135314 21.5325 
" clip-path="url(#pefa7d55787)" style="fill: none; stroke: #b0b0b0; stroke-width: 0.8; stroke-linecap: square"/>
     </g>
     <g id="line2d_6">
      <g>
       <use xlink:href="#ma8c379839c" x="123.135314" y="287.6445" style="stroke: #000000; stroke-width: 0.8"/>
      </g>
     </g>
     <g id="text_3">
      <!-- 27 -->
      <g transform="translate(118.135314 301.58825) scale(0.1 -0.1)">
       <defs>
        <path id="TimesNewRomanPSMT-37" d="M 644 4238 
L 2916 4238 
L 2916 4119 
L 1503 -88 
L 1153 -88 
L 2419 3728 
L 1253 3728 
Q 900 3728 750 3644 
Q 488 3500 328 3200 
L 238 3234 
L 644 4238 
z
" transform="scale(0.015625)"/>
       </defs>
       <use xlink:href="#TimesNewRomanPSMT-32"/>
       <use xlink:href="#TimesNewRomanPSMT-37" x="50"/>
      </g>
     </g>
    </g>
    <g id="xtick_4">
     <g id="line2d_7">
      <path d="M 155.736607 287.6445 
L 155.736607 21.5325 
" clip-path="url(#pefa7d55787)" style="fill: none; stroke: #b0b0b0; stroke-width: 0.8; stroke-linecap: square"/>
     </g>
     <g id="line2d_8">
      <g>
       <use xlink:href="#ma8c379839c" x="155.736607" y="287.6445" style="stroke: #000000; stroke-width: 0.8"/>
      </g>
     </g>
     <g id="text_4">
      <!-- 28 -->
      <g transform="translate(150.736607 301.58825) scale(0.1 -0.1)">
       <defs>
        <path id="TimesNewRomanPSMT-38" d="M 1228 2134 
Q 725 2547 579 2797 
Q 434 3047 434 3316 
Q 434 3728 753 4026 
Q 1072 4325 1600 4325 
Q 2113 4325 2425 4047 
Q 2738 3769 2738 3413 
Q 2738 3175 2569 2928 
Q 2400 2681 1866 2347 
Q 2416 1922 2594 1678 
Q 2831 1359 2831 1006 
Q 2831 559 2490 242 
Q 2150 -75 1597 -75 
Q 994 -75 656 303 
Q 388 606 388 966 
Q 388 1247 577 1523 
Q 766 1800 1228 2134 
z
M 1719 2469 
Q 2094 2806 2194 3001 
Q 2294 3197 2294 3444 
Q 2294 3772 2109 3958 
Q 1925 4144 1606 4144 
Q 1288 4144 1088 3959 
Q 888 3775 888 3528 
Q 888 3366 970 3203 
Q 1053 3041 1206 2894 
L 1719 2469 
z
M 1375 2016 
Q 1116 1797 991 1539 
Q 866 1281 866 981 
Q 866 578 1086 336 
Q 1306 94 1647 94 
Q 1984 94 2187 284 
Q 2391 475 2391 747 
Q 2391 972 2272 1150 
Q 2050 1481 1375 2016 
z
" transform="scale(0.015625)"/>
       </defs>
       <use xlink:href="#TimesNewRomanPSMT-32"/>
       <use xlink:href="#TimesNewRomanPSMT-38" x="50"/>
      </g>
     </g>
    </g>
    <g id="xtick_5">
     <g id="line2d_9">
      <path d="M 188.3379 287.6445 
L 188.3379 21.5325 
" clip-path="url(#pefa7d55787)" style="fill: none; stroke: #b0b0b0; stroke-width: 0.8; stroke-linecap: square"/>
     </g>
     <g id="line2d_10">
      <g>
       <use xlink:href="#ma8c379839c" x="188.3379" y="287.6445" style="stroke: #000000; stroke-width: 0.8"/>
      </g>
     </g>
     <g id="text_5">
      <!-- 29 -->
      <g transform="translate(183.3379 301.58825) scale(0.1 -0.1)">
       <defs>
        <path id="TimesNewRomanPSMT-39" d="M 338 -88 
L 338 28 
Q 744 34 1094 217 
Q 1444 400 1770 856 
Q 2097 1313 2225 1859 
Q 1734 1544 1338 1544 
Q 891 1544 572 1889 
Q 253 2234 253 2806 
Q 253 3363 572 3797 
Q 956 4325 1575 4325 
Q 2097 4325 2469 3894 
Q 2925 3359 2925 2575 
Q 2925 1869 2578 1258 
Q 2231 647 1613 244 
Q 1109 -88 516 -88 
L 338 -88 
z
M 2275 2091 
Q 2331 2497 2331 2741 
Q 2331 3044 2228 3395 
Q 2125 3747 1936 3934 
Q 1747 4122 1506 4122 
Q 1228 4122 1018 3872 
Q 809 3622 809 3128 
Q 809 2469 1088 2097 
Q 1291 1828 1588 1828 
Q 1731 1828 1928 1897 
Q 2125 1966 2275 2091 
z
" transform="scale(0.015625)"/>
       </defs>
       <use xlink:href="#TimesNewRomanPSMT-32"/>
       <use xlink:href="#TimesNewRomanPSMT-39" x="50"/>
      </g>
     </g>
    </g>
    <g id="xtick_6">
     <g id="line2d_11">
      <path d="M 220.939194 287.6445 
L 220.939194 21.5325 
" clip-path="url(#pefa7d55787)" style="fill: none; stroke: #b0b0b0; stroke-width: 0.8; stroke-linecap: square"/>
     </g>
     <g id="line2d_12">
      <g>
       <use xlink:href="#ma8c379839c" x="220.939194" y="287.6445" style="stroke: #000000; stroke-width: 0.8"/>
      </g>
     </g>
     <g id="text_6">
      <!-- 30 -->
      <g transform="translate(215.939194 301.58825) scale(0.1 -0.1)">
       <defs>
        <path id="TimesNewRomanPSMT-33" d="M 325 3431 
Q 506 3859 782 4092 
Q 1059 4325 1472 4325 
Q 1981 4325 2253 3994 
Q 2459 3747 2459 3466 
Q 2459 3003 1878 2509 
Q 2269 2356 2469 2072 
Q 2669 1788 2669 1403 
Q 2669 853 2319 450 
Q 1863 -75 997 -75 
Q 569 -75 414 31 
Q 259 138 259 259 
Q 259 350 332 419 
Q 406 488 509 488 
Q 588 488 669 463 
Q 722 447 909 348 
Q 1097 250 1169 231 
Q 1284 197 1416 197 
Q 1734 197 1970 444 
Q 2206 691 2206 1028 
Q 2206 1275 2097 1509 
Q 2016 1684 1919 1775 
Q 1784 1900 1550 2001 
Q 1316 2103 1072 2103 
L 972 2103 
L 972 2197 
Q 1219 2228 1467 2375 
Q 1716 2522 1828 2728 
Q 1941 2934 1941 3181 
Q 1941 3503 1739 3701 
Q 1538 3900 1238 3900 
Q 753 3900 428 3381 
L 325 3431 
z
" transform="scale(0.015625)"/>
       </defs>
       <use xlink:href="#TimesNewRomanPSMT-33"/>
       <use xlink:href="#TimesNewRomanPSMT-30" x="50"/>
      </g>
     </g>
    </g>
    <g id="xtick_7">
     <g id="line2d_13">
      <path d="M 253.540487 287.6445 
L 253.540487 21.5325 
" clip-path="url(#pefa7d55787)" style="fill: none; stroke: #b0b0b0; stroke-width: 0.8; stroke-linecap: square"/>
     </g>
     <g id="line2d_14">
      <g>
       <use xlink:href="#ma8c379839c" x="253.540487" y="287.6445" style="stroke: #000000; stroke-width: 0.8"/>
      </g>
     </g>
     <g id="text_7">
      <!-- 01 -->
      <g transform="translate(248.540487 301.58825) scale(0.1 -0.1)">
       <use xlink:href="#TimesNewRomanPSMT-30"/>
       <use xlink:href="#TimesNewRomanPSMT-31" x="50"/>
      </g>
      <!-- 2021-12 -->
      <g transform="translate(236.875643 312.059812) scale(0.1 -0.1)">
       <use xlink:href="#TimesNewRomanPSMT-32"/>
       <use xlink:href="#TimesNewRomanPSMT-30" x="50"/>
       <use xlink:href="#TimesNewRomanPSMT-32" x="100"/>
       <use xlink:href="#TimesNewRomanPSMT-31" x="150"/>
       <use xlink:href="#TimesNewRomanPSMT-2d" x="200"/>
       <use xlink:href="#TimesNewRomanPSMT-31" x="233.300781"/>
       <use xlink:href="#TimesNewRomanPSMT-32" x="283.300781"/>
      </g>
     </g>
    </g>
    <g id="xtick_8">
     <g id="line2d_15">
      <path d="M 286.14178 287.6445 
L 286.14178 21.5325 
" clip-path="url(#pefa7d55787)" style="fill: none; stroke: #b0b0b0; stroke-width: 0.8; stroke-linecap: square"/>
     </g>
     <g id="line2d_16">
      <g>
       <use xlink:href="#ma8c379839c" x="286.14178" y="287.6445" style="stroke: #000000; stroke-width: 0.8"/>
      </g>
     </g>
     <g id="text_8">
      <!-- 02 -->
      <g transform="translate(281.14178 301.58825) scale(0.1 -0.1)">
       <use xlink:href="#TimesNewRomanPSMT-30"/>
       <use xlink:href="#TimesNewRomanPSMT-32" x="50"/>
      </g>
     </g>
    </g>
    <g id="xtick_9">
     <g id="line2d_17">
      <path d="M 318.743073 287.6445 
L 318.743073 21.5325 
" clip-path="url(#pefa7d55787)" style="fill: none; stroke: #b0b0b0; stroke-width: 0.8; stroke-linecap: square"/>
     </g>
     <g id="line2d_18">
      <g>
       <use xlink:href="#ma8c379839c" x="318.743073" y="287.6445" style="stroke: #000000; stroke-width: 0.8"/>
      </g>
     </g>
     <g id="text_9">
      <!-- 03 -->
      <g transform="translate(313.743073 301.58825) scale(0.1 -0.1)">
       <use xlink:href="#TimesNewRomanPSMT-30"/>
       <use xlink:href="#TimesNewRomanPSMT-33" x="50"/>
      </g>
     </g>
    </g>
    <g id="xtick_10">
     <g id="line2d_19">
      <path d="M 351.344367 287.6445 
L 351.344367 21.5325 
" clip-path="url(#pefa7d55787)" style="fill: none; stroke: #b0b0b0; stroke-width: 0.8; stroke-linecap: square"/>
     </g>
     <g id="line2d_20">
      <g>
       <use xlink:href="#ma8c379839c" x="351.344367" y="287.6445" style="stroke: #000000; stroke-width: 0.8"/>
      </g>
     </g>
     <g id="text_10">
      <!-- 04 -->
      <g transform="translate(346.344367 301.58825) scale(0.1 -0.1)">
       <defs>
        <path id="TimesNewRomanPSMT-34" d="M 2978 1563 
L 2978 1119 
L 2409 1119 
L 2409 0 
L 1894 0 
L 1894 1119 
L 100 1119 
L 100 1519 
L 2066 4325 
L 2409 4325 
L 2409 1563 
L 2978 1563 
z
M 1894 1563 
L 1894 3666 
L 406 1563 
L 1894 1563 
z
" transform="scale(0.015625)"/>
       </defs>
       <use xlink:href="#TimesNewRomanPSMT-30"/>
       <use xlink:href="#TimesNewRomanPSMT-34" x="50"/>
      </g>
     </g>
    </g>
    <g id="xtick_11">
     <g id="line2d_21">
      <path d="M 383.94566 287.6445 
L 383.94566 21.5325 
" clip-path="url(#pefa7d55787)" style="fill: none; stroke: #b0b0b0; stroke-width: 0.8; stroke-linecap: square"/>
     </g>
     <g id="line2d_22">
      <g>
       <use xlink:href="#ma8c379839c" x="383.94566" y="287.6445" style="stroke: #000000; stroke-width: 0.8"/>
      </g>
     </g>
     <g id="text_11">
      <!-- 05 -->
      <g transform="translate(378.94566 301.58825) scale(0.1 -0.1)">
       <use xlink:href="#TimesNewRomanPSMT-30"/>
       <use xlink:href="#TimesNewRomanPSMT-35" x="50"/>
      </g>
     </g>
    </g>
   </g>
   <g id="matplotlib.axis_2">
    <g id="ytick_1">
     <g id="line2d_23">
      <path d="M 41.7 287.6445 
L 398.82 287.6445 
" clip-path="url(#pefa7d55787)" style="fill: none; stroke: #b0b0b0; stroke-width: 0.8; stroke-linecap: square"/>
     </g>
     <g id="line2d_24">
      <defs>
       <path id="m8ada9f8667" d="M 0 0 
L -3.5 0 
" style="stroke: #000000; stroke-width: 0.8"/>
      </defs>
      <g>
       <use xlink:href="#m8ada9f8667" x="41.7" y="287.6445" style="stroke: #000000; stroke-width: 0.8"/>
      </g>
     </g>
     <g id="text_12">
      <!-- 0.0000 -->
      <g transform="translate(7.2 291.116375) scale(0.1 -0.1)">
       <defs>
        <path id="TimesNewRomanPSMT-2e" d="M 800 606 
Q 947 606 1047 504 
Q 1147 403 1147 259 
Q 1147 116 1045 14 
Q 944 -88 800 -88 
Q 656 -88 554 14 
Q 453 116 453 259 
Q 453 406 554 506 
Q 656 606 800 606 
z
" transform="scale(0.015625)"/>
       </defs>
       <use xlink:href="#TimesNewRomanPSMT-30"/>
       <use xlink:href="#TimesNewRomanPSMT-2e" x="50"/>
       <use xlink:href="#TimesNewRomanPSMT-30" x="75"/>
       <use xlink:href="#TimesNewRomanPSMT-30" x="125"/>
       <use xlink:href="#TimesNewRomanPSMT-30" x="175"/>
       <use xlink:href="#TimesNewRomanPSMT-30" x="225"/>
      </g>
     </g>
    </g>
    <g id="ytick_2">
     <g id="line2d_25">
      <path d="M 41.7 249.174077 
L 398.82 249.174077 
" clip-path="url(#pefa7d55787)" style="fill: none; stroke: #b0b0b0; stroke-width: 0.8; stroke-linecap: square"/>
     </g>
     <g id="line2d_26">
      <g>
       <use xlink:href="#m8ada9f8667" x="41.7" y="249.174077" style="stroke: #000000; stroke-width: 0.8"/>
      </g>
     </g>
     <g id="text_13">
      <!-- 0.0005 -->
      <g transform="translate(7.2 252.645952) scale(0.1 -0.1)">
       <use xlink:href="#TimesNewRomanPSMT-30"/>
       <use xlink:href="#TimesNewRomanPSMT-2e" x="50"/>
       <use xlink:href="#TimesNewRomanPSMT-30" x="75"/>
       <use xlink:href="#TimesNewRomanPSMT-30" x="125"/>
       <use xlink:href="#TimesNewRomanPSMT-30" x="175"/>
       <use xlink:href="#TimesNewRomanPSMT-35" x="225"/>
      </g>
     </g>
    </g>
    <g id="ytick_3">
     <g id="line2d_27">
      <path d="M 41.7 210.703653 
L 398.82 210.703653 
" clip-path="url(#pefa7d55787)" style="fill: none; stroke: #b0b0b0; stroke-width: 0.8; stroke-linecap: square"/>
     </g>
     <g id="line2d_28">
      <g>
       <use xlink:href="#m8ada9f8667" x="41.7" y="210.703653" style="stroke: #000000; stroke-width: 0.8"/>
      </g>
     </g>
     <g id="text_14">
      <!-- 0.0010 -->
      <g transform="translate(7.2 214.175528) scale(0.1 -0.1)">
       <use xlink:href="#TimesNewRomanPSMT-30"/>
       <use xlink:href="#TimesNewRomanPSMT-2e" x="50"/>
       <use xlink:href="#TimesNewRomanPSMT-30" x="75"/>
       <use xlink:href="#TimesNewRomanPSMT-30" x="125"/>
       <use xlink:href="#TimesNewRomanPSMT-31" x="175"/>
       <use xlink:href="#TimesNewRomanPSMT-30" x="225"/>
      </g>
     </g>
    </g>
    <g id="ytick_4">
     <g id="line2d_29">
      <path d="M 41.7 172.23323 
L 398.82 172.23323 
" clip-path="url(#pefa7d55787)" style="fill: none; stroke: #b0b0b0; stroke-width: 0.8; stroke-linecap: square"/>
     </g>
     <g id="line2d_30">
      <g>
       <use xlink:href="#m8ada9f8667" x="41.7" y="172.23323" style="stroke: #000000; stroke-width: 0.8"/>
      </g>
     </g>
     <g id="text_15">
      <!-- 0.0015 -->
      <g transform="translate(7.2 175.705105) scale(0.1 -0.1)">
       <use xlink:href="#TimesNewRomanPSMT-30"/>
       <use xlink:href="#TimesNewRomanPSMT-2e" x="50"/>
       <use xlink:href="#TimesNewRomanPSMT-30" x="75"/>
       <use xlink:href="#TimesNewRomanPSMT-30" x="125"/>
       <use xlink:href="#TimesNewRomanPSMT-31" x="175"/>
       <use xlink:href="#TimesNewRomanPSMT-35" x="225"/>
      </g>
     </g>
    </g>
    <g id="ytick_5">
     <g id="line2d_31">
      <path d="M 41.7 133.762806 
L 398.82 133.762806 
" clip-path="url(#pefa7d55787)" style="fill: none; stroke: #b0b0b0; stroke-width: 0.8; stroke-linecap: square"/>
     </g>
     <g id="line2d_32">
      <g>
       <use xlink:href="#m8ada9f8667" x="41.7" y="133.762806" style="stroke: #000000; stroke-width: 0.8"/>
      </g>
     </g>
     <g id="text_16">
      <!-- 0.0020 -->
      <g transform="translate(7.2 137.234681) scale(0.1 -0.1)">
       <use xlink:href="#TimesNewRomanPSMT-30"/>
       <use xlink:href="#TimesNewRomanPSMT-2e" x="50"/>
       <use xlink:href="#TimesNewRomanPSMT-30" x="75"/>
       <use xlink:href="#TimesNewRomanPSMT-30" x="125"/>
       <use xlink:href="#TimesNewRomanPSMT-32" x="175"/>
       <use xlink:href="#TimesNewRomanPSMT-30" x="225"/>
      </g>
     </g>
    </g>
    <g id="ytick_6">
     <g id="line2d_33">
      <path d="M 41.7 95.292383 
L 398.82 95.292383 
" clip-path="url(#pefa7d55787)" style="fill: none; stroke: #b0b0b0; stroke-width: 0.8; stroke-linecap: square"/>
     </g>
     <g id="line2d_34">
      <g>
       <use xlink:href="#m8ada9f8667" x="41.7" y="95.292383" style="stroke: #000000; stroke-width: 0.8"/>
      </g>
     </g>
     <g id="text_17">
      <!-- 0.0025 -->
      <g transform="translate(7.2 98.764258) scale(0.1 -0.1)">
       <use xlink:href="#TimesNewRomanPSMT-30"/>
       <use xlink:href="#TimesNewRomanPSMT-2e" x="50"/>
       <use xlink:href="#TimesNewRomanPSMT-30" x="75"/>
       <use xlink:href="#TimesNewRomanPSMT-30" x="125"/>
       <use xlink:href="#TimesNewRomanPSMT-32" x="175"/>
       <use xlink:href="#TimesNewRomanPSMT-35" x="225"/>
      </g>
     </g>
    </g>
    <g id="ytick_7">
     <g id="line2d_35">
      <path d="M 41.7 56.821959 
L 398.82 56.821959 
" clip-path="url(#pefa7d55787)" style="fill: none; stroke: #b0b0b0; stroke-width: 0.8; stroke-linecap: square"/>
     </g>
     <g id="line2d_36">
      <g>
       <use xlink:href="#m8ada9f8667" x="41.7" y="56.821959" style="stroke: #000000; stroke-width: 0.8"/>
      </g>
     </g>
     <g id="text_18">
      <!-- 0.0030 -->
      <g transform="translate(7.2 60.293834) scale(0.1 -0.1)">
       <use xlink:href="#TimesNewRomanPSMT-30"/>
       <use xlink:href="#TimesNewRomanPSMT-2e" x="50"/>
       <use xlink:href="#TimesNewRomanPSMT-30" x="75"/>
       <use xlink:href="#TimesNewRomanPSMT-30" x="125"/>
       <use xlink:href="#TimesNewRomanPSMT-33" x="175"/>
       <use xlink:href="#TimesNewRomanPSMT-30" x="225"/>
      </g>
     </g>
    </g>
   </g>
   <g id="line2d_37">
    <path d="M 57.932727 224.989199 
L 59.291114 242.568577 
L 60.649502 224.215397 
L 62.007889 238.604191 
L 63.366276 200.044505 
L 64.724663 211.342295 
L 66.083051 239.813091 
L 67.441438 199.12288 
L 68.799825 233.580218 
L 70.158212 204.748805 
L 71.516599 194.402294 
L 72.874987 238.455367 
L 74.233374 213.530701 
L 75.591761 247.595965 
L 76.950148 254.51862 
L 78.308536 194.876195 
L 79.666923 205.339318 
L 81.02531 266.897556 
L 82.383697 192.493322 
L 83.742084 173.549741 
L 85.100472 257.737346 
L 86.458859 251.6835 
L 87.817246 260.416258 
L 89.175633 272.237382 
L 90.534021 177.100548 
L 91.892408 245.784716 
L 93.250795 257.707606 
L 94.609182 204.786394 
L 95.967569 172.596276 
L 97.325957 245.021182 
L 98.684344 232.314654 
L 100.042731 203.01312 
L 101.401118 207.423709 
L 102.759506 214.265618 
L 104.117893 215.95538 
L 105.47628 190.277574 
L 106.834667 206.063815 
L 108.193054 217.595973 
L 109.551442 258.534547 
L 110.909829 253.742058 
L 112.268216 217.26164 
L 113.626603 240.230271 
L 114.98499 234.928675 
L 116.343378 238.887686 
L 117.701765 200.084677 
L 119.060152 248.493935 
L 120.418539 213.166076 
L 121.776927 238.917158 
L 123.135314 228.415175 
L 124.493701 240.070522 
L 125.852088 241.981283 
L 127.210475 238.882103 
L 128.568863 246.603687 
L 129.92725 234.835589 
L 131.285637 230.805981 
L 132.644024 235.358072 
L 134.002412 244.454066 
L 135.360799 236.672703 
L 136.719186 224.703088 
L 138.077573 237.482459 
L 139.43596 248.6214 
L 140.794348 214.969058 
L 142.152735 243.97822 
L 143.511122 233.965612 
L 144.869509 217.233935 
L 146.227897 251.380959 
L 147.586284 238.258771 
L 148.944671 249.981407 
L 150.303058 256.854034 
L 151.661445 253.072621 
L 153.019833 261.417584 
L 154.37822 257.61964 
L 155.736607 259.614253 
L 157.094994 259.067549 
L 158.453382 254.232257 
L 159.811769 267.716795 
L 161.170156 259.814892 
L 162.528543 262.522392 
L 163.88693 265.620855 
L 165.245318 264.724265 
L 166.603705 265.043865 
L 167.962092 270.577373 
L 169.320479 270.243987 
L 170.678866 276.479528 
L 172.037254 269.73854 
L 173.395641 272.680099 
L 176.112415 267.385232 
L 177.470803 270.771698 
L 178.82919 275.725407 
L 180.187577 267.385788 
L 181.545964 267.906988 
L 182.904351 271.81015 
L 184.262739 269.560371 
L 185.621126 274.085774 
L 186.979513 269.039097 
L 188.3379 275.878389 
L 189.696288 276.076043 
L 191.054675 273.906133 
L 192.413062 275.080732 
L 193.771449 271.400144 
L 195.129836 271.299617 
L 196.488224 269.475487 
L 197.846611 271.094373 
L 199.204998 264.989947 
L 200.563385 278.171895 
L 201.921773 274.987936 
L 203.28016 268.150155 
L 204.638547 269.85866 
L 205.996934 269.039978 
L 207.355321 266.396514 
L 208.713709 254.838834 
L 210.072096 258.051124 
L 211.430483 261.601011 
L 212.78887 226.748749 
L 214.147258 230.135443 
L 215.505645 260.089401 
L 216.864032 242.405503 
L 218.222419 247.051205 
L 219.580806 257.157585 
L 220.939194 247.014123 
L 222.297581 256.187251 
L 223.655968 237.576921 
L 225.014355 249.209848 
L 226.372742 246.679627 
L 227.73113 207.460893 
L 229.089517 245.926332 
L 230.447904 236.084165 
L 231.806291 240.018267 
L 233.164679 253.185927 
L 234.523066 238.231917 
L 235.881453 221.065787 
L 237.23984 239.08137 
L 238.598227 230.727926 
L 239.956615 200.660247 
L 241.315002 239.423009 
L 242.673389 204.14073 
L 244.031776 248.864687 
L 245.390164 259.374442 
L 246.748551 215.15242 
L 248.106938 193.822691 
L 249.465325 232.584257 
L 250.823712 239.474981 
L 252.1821 253.698435 
L 253.540487 270.757687 
L 254.898874 208.725209 
L 256.257261 254.827376 
L 257.615649 232.545932 
L 258.974036 265.647995 
L 260.332423 214.763722 
L 261.69081 180.859695 
L 263.049197 193.910539 
L 264.407585 178.64148 
L 267.124359 264.204555 
L 268.482746 187.057238 
L 269.841134 163.499806 
L 271.199521 261.040453 
L 272.557908 191.390863 
L 273.916295 202.798422 
L 275.274682 273.423229 
L 276.63307 259.830427 
L 277.991457 272.56012 
L 279.349844 167.52579 
L 280.708231 175.480202 
L 282.066618 213.477502 
L 283.425006 237.322505 
L 284.783393 223.815852 
L 286.14178 177.309455 
L 287.500167 227.609784 
L 288.858555 210.010041 
L 290.216942 214.310866 
L 291.575329 196.841347 
L 292.933716 226.149635 
L 294.292103 213.770564 
L 295.650491 209.906348 
L 297.008878 184.362338 
L 298.367265 208.06905 
L 299.725652 222.92176 
L 301.08404 217.209218 
L 302.442427 223.452627 
L 303.800814 226.206412 
L 305.159201 228.254135 
L 306.517588 224.986536 
L 307.875976 212.68974 
L 309.234363 233.226052 
L 310.59275 230.271357 
L 311.951137 226.370593 
L 313.309525 211.598954 
L 314.667912 207.839514 
L 316.026299 208.572504 
L 317.384686 226.687038 
L 318.743073 230.963192 
L 320.101461 234.084061 
L 321.459848 230.175239 
L 322.818235 238.776844 
L 324.176622 237.331045 
L 325.53501 237.691609 
L 326.893397 239.109314 
L 328.251784 249.282973 
L 329.610171 247.360319 
L 330.968558 246.358317 
L 332.326946 242.381854 
L 333.685333 251.502244 
L 335.04372 249.785095 
L 336.402107 258.788541 
L 337.760494 252.101727 
L 339.118882 250.075119 
L 340.477269 260.89316 
L 341.835656 257.584406 
L 343.194043 259.695099 
L 344.552431 259.586843 
L 345.910818 258.915971 
L 347.269205 257.366227 
L 348.627592 261.20823 
L 349.985979 267.030001 
L 351.344367 256.712075 
L 352.702754 258.942661 
L 354.061141 257.622899 
L 355.419528 265.797961 
L 356.777916 258.473593 
L 358.136303 256.657061 
L 359.49469 255.479887 
L 360.853077 249.672865 
L 362.211464 254.350123 
L 363.569852 255.036202 
L 364.928239 256.391642 
L 366.286626 252.525021 
L 367.645013 242.88592 
L 369.003401 247.317786 
L 370.361788 239.384189 
L 371.720175 243.238292 
L 373.078562 236.533848 
L 374.436949 239.918746 
L 375.795337 230.341568 
L 377.153724 234.239589 
L 378.512111 225.634248 
L 379.870498 197.086546 
L 381.228886 217.369409 
L 382.587273 222.58021 
L 382.587273 222.58021 
" clip-path="url(#pefa7d55787)" style="fill: none; stroke: #000000; stroke-width: 1.5; stroke-linecap: square"/>
   </g>
   <g id="line2d_38">
    <path d="M 57.932727 169.226333 
L 59.291114 198.768291 
L 60.649502 153.942538 
L 62.007889 182.172862 
L 63.366276 141.452321 
L 64.724663 139.399715 
L 66.083051 193.521773 
L 67.441438 128.964394 
L 68.799825 232.3997 
L 70.158212 143.562415 
L 71.516599 120.089019 
L 72.874987 188.09563 
L 74.233374 158.417644 
L 75.591761 219.147082 
L 76.950148 246.035818 
L 78.308536 113.489291 
L 79.666923 139.001173 
L 81.02531 252.044059 
L 82.383697 144.521988 
L 83.742084 68.591024 
L 85.100472 256.921416 
L 86.458859 250.408139 
L 87.817246 257.2738 
L 89.175633 258.301474 
L 90.534021 78.486366 
L 91.892408 235.338415 
L 93.250795 260.644364 
L 94.609182 131.560711 
L 95.967569 69.905053 
L 97.325957 209.369857 
L 98.684344 185.958143 
L 100.042731 128.508593 
L 101.401118 135.412648 
L 102.759506 162.29606 
L 104.117893 204.077232 
L 105.47628 127.679258 
L 106.834667 166.007176 
L 108.193054 171.493593 
L 109.551442 254.165049 
L 110.909829 242.927461 
L 112.268216 157.043741 
L 113.626603 198.455917 
L 114.98499 210.230379 
L 116.343378 201.317579 
L 117.701765 146.025977 
L 119.060152 209.510452 
L 120.418539 158.308131 
L 121.776927 188.385004 
L 123.135314 168.843255 
L 124.493701 189.162447 
L 125.852088 193.669905 
L 127.210475 188.577192 
L 128.568863 203.670469 
L 129.92725 206.001788 
L 131.285637 203.231051 
L 132.644024 179.532957 
L 134.002412 217.938919 
L 135.360799 204.578637 
L 136.719186 164.633626 
L 138.077573 191.004498 
L 139.43596 207.823472 
L 140.794348 155.946334 
L 142.152735 188.33261 
L 143.511122 173.445232 
L 144.869509 154.106287 
L 146.227897 195.16049 
L 147.586284 181.410581 
L 148.944671 189.531706 
L 150.303058 207.667659 
L 151.661445 191.496185 
L 153.019833 212.757593 
L 154.37822 198.777953 
L 155.736607 202.202856 
L 157.094994 197.845865 
L 158.453382 179.311043 
L 159.811769 221.00718 
L 161.170156 192.323391 
L 163.88693 206.442648 
L 165.245318 199.255762 
L 166.603705 196.429802 
L 167.962092 217.746441 
L 169.320479 216.055466 
L 170.678866 236.493403 
L 172.037254 204.397999 
L 173.395641 214.081889 
L 174.754028 194.19893 
L 176.112415 183.261247 
L 177.470803 193.117383 
L 178.82919 222.802946 
L 180.187577 168.168497 
L 181.545964 173.937669 
L 182.904351 201.51197 
L 184.262739 190.039714 
L 185.621126 211.36481 
L 186.979513 188.44469 
L 188.3379 226.407967 
L 189.696288 230.390792 
L 191.054675 228.086645 
L 192.413062 230.630781 
L 193.771449 217.183305 
L 195.129836 219.139743 
L 196.488224 214.709827 
L 197.846611 225.93848 
L 199.204998 205.030027 
L 200.563385 255.251902 
L 201.921773 244.981292 
L 203.28016 223.557013 
L 204.638547 230.808506 
L 205.996934 230.22969 
L 207.355321 224.296621 
L 208.713709 197.603352 
L 210.072096 221.584326 
L 211.430483 218.151767 
L 212.78887 193.776933 
L 214.147258 206.845957 
L 215.505645 224.793179 
L 216.864032 213.036053 
L 218.222419 210.889317 
L 219.580806 227.017123 
L 220.939194 229.158866 
L 222.297581 214.921382 
L 223.655968 217.547596 
L 225.014355 200.219929 
L 226.372742 223.852781 
L 227.73113 152.3727 
L 229.089517 207.917512 
L 230.447904 179.627156 
L 231.806291 184.296569 
L 233.164679 217.25944 
L 234.523066 190.91945 
L 235.881453 160.265277 
L 237.23984 232.029216 
L 238.598227 229.69927 
L 239.956615 130.36784 
L 241.315002 237.914082 
L 242.673389 134.479053 
L 244.031776 269.878282 
L 245.390164 244.034557 
L 248.106938 179.874284 
L 249.465325 212.472241 
L 250.823712 202.201618 
L 252.1821 239.775368 
L 253.540487 270.240103 
L 254.898874 136.938457 
L 256.257261 226.017728 
L 257.615649 182.174826 
L 258.974036 264.936915 
L 260.332423 156.397504 
L 261.69081 86.998611 
L 263.049197 187.77276 
L 264.407585 86.911475 
L 265.765972 221.476991 
L 267.124359 243.978241 
L 268.482746 97.839214 
L 269.841134 52.297156 
L 271.199521 240.110485 
L 272.557908 118.109533 
L 273.916295 141.132557 
L 275.274682 266.798587 
L 276.63307 247.886865 
L 277.991457 260.556605 
L 279.349844 55.289789 
L 280.708231 73.123067 
L 282.066618 144.748852 
L 283.425006 197.6115 
L 284.783393 210.126463 
L 286.14178 90.941343 
L 287.500167 168.090183 
L 288.858555 132.696738 
L 290.216942 142.602616 
L 291.575329 118.069577 
L 292.933716 163.098454 
L 294.292103 135.885402 
L 295.650491 129.742794 
L 297.008878 97.486981 
L 299.725652 154.417917 
L 301.08404 171.303904 
L 302.442427 167.432843 
L 303.800814 168.980634 
L 305.159201 155.270212 
L 306.517588 159.689101 
L 307.875976 151.440822 
L 309.234363 163.913164 
L 310.59275 154.115949 
L 311.951137 149.136498 
L 313.309525 127.47793 
L 314.667912 114.286844 
L 316.026299 116.090037 
L 317.384686 139.562768 
L 318.743073 143.014543 
L 320.101461 141.464778 
L 321.459848 126.826695 
L 322.818235 147.578364 
L 324.176622 139.850213 
L 325.53501 136.338185 
L 326.893397 136.304521 
L 328.251784 165.225265 
L 329.610171 153.896571 
L 330.968558 149.213908 
L 332.326946 126.556596 
L 333.685333 154.597721 
L 335.04372 142.102556 
L 336.402107 172.136161 
L 337.760494 139.079256 
L 339.118882 123.685224 
L 340.477269 166.659035 
L 341.835656 147.222166 
L 343.194043 149.073549 
L 344.552431 141.633788 
L 345.910818 135.450821 
L 347.269205 117.469528 
L 348.627592 137.140599 
L 349.985979 168.328352 
L 351.344367 106.097499 
L 352.702754 120.221381 
L 354.061141 114.485495 
L 355.419528 163.525764 
L 356.777916 129.235807 
L 358.136303 123.471379 
L 359.49469 127.460203 
L 360.853077 103.101142 
L 362.211464 133.229744 
L 364.928239 154.9193 
L 366.286626 144.822404 
L 367.645013 113.234922 
L 369.003401 136.830878 
L 370.361788 114.374448 
L 371.720175 134.750843 
L 373.078562 116.006083 
L 374.436949 134.414564 
L 375.795337 107.349676 
L 377.153724 124.266105 
L 378.512111 132.349916 
L 379.870498 70.748431 
L 382.587273 125.40538 
L 382.587273 125.40538 
" clip-path="url(#pefa7d55787)" style="fill: none; stroke: #008000; stroke-width: 1.5; stroke-linecap: square"/>
   </g>
   <g id="line2d_39">
    <path d="M 57.932727 262.915421 
L 59.291114 270.084857 
L 60.649502 263.239951 
L 62.007889 268.996802 
L 63.366276 254.703727 
L 64.724663 259.253391 
L 66.083051 270.02382 
L 67.441438 255.339986 
L 68.799825 268.089361 
L 70.158212 257.911138 
L 71.516599 254.462362 
L 72.874987 270.268382 
L 74.233374 261.644058 
L 75.591761 273.685081 
L 76.950148 276.167105 
L 78.308536 255.680402 
L 79.666923 259.430502 
L 81.02531 280.565854 
L 82.383697 255.318689 
L 83.742084 249.032897 
L 85.100472 277.558499 
L 86.458859 275.554118 
L 87.817246 278.514671 
L 89.175633 282.490222 
L 90.534021 250.733835 
L 91.892408 273.688849 
L 93.250795 277.675287 
L 94.609182 260.073399 
L 95.967569 249.377228 
L 97.325957 273.467429 
L 98.684344 269.234506 
L 100.042731 259.464309 
L 101.401118 260.903248 
L 102.759506 263.147504 
L 104.117893 263.666796 
L 105.47628 255.004863 
L 106.834667 260.224391 
L 108.193054 264.028897 
L 109.551442 277.796863 
L 110.909829 276.131548 
L 112.268216 263.641521 
L 113.626603 271.399124 
L 114.98499 269.490657 
L 116.343378 270.761227 
L 117.701765 257.143697 
L 119.060152 273.919093 
L 120.418539 261.353993 
L 121.776927 270.317306 
L 123.135314 266.417395 
L 124.493701 270.45198 
L 125.852088 270.99593 
L 127.210475 269.698511 
L 128.568863 272.389591 
L 129.92725 267.808227 
L 131.285637 266.056527 
L 132.644024 267.551662 
L 134.002412 270.840963 
L 135.360799 267.553887 
L 136.719186 262.493716 
L 138.077573 267.308887 
L 139.43596 271.582462 
L 140.794348 257.249027 
L 142.152735 269.071919 
L 143.511122 264.405616 
L 144.869509 256.58919 
L 146.227897 271.333658 
L 147.586284 264.968809 
L 148.944671 269.972032 
L 150.303058 272.863113 
L 151.661445 270.643945 
L 153.019833 274.416884 
L 154.37822 272.092233 
L 155.736607 272.711939 
L 157.094994 271.963744 
L 158.453382 268.730554 
L 159.811769 275.987902 
L 161.170156 270.794507 
L 162.528543 271.872459 
L 163.88693 273.281952 
L 165.245318 272.090695 
L 166.603705 271.658257 
L 167.962092 275.041958 
L 169.320479 274.214588 
L 170.678866 278.630291 
L 172.037254 272.520112 
L 173.395641 274.432069 
L 176.112415 268.256827 
L 177.470803 270.961507 
L 178.82919 275.562095 
L 180.187577 266.790389 
L 181.545964 267.234566 
L 182.904351 271.379722 
L 184.262739 269.387743 
L 185.621126 274.315154 
L 186.979513 269.963774 
L 188.3379 276.893432 
L 189.696288 277.515744 
L 191.054675 276.140001 
L 192.413062 277.588412 
L 193.771449 275.213529 
L 195.129836 275.675233 
L 196.488224 274.895683 
L 197.846611 276.499689 
L 199.204998 272.978877 
L 200.563385 281.739022 
L 201.921773 280.032274 
L 203.28016 276.313411 
L 204.638547 277.636694 
L 205.996934 277.493928 
L 207.355321 276.386223 
L 208.713709 270.739033 
L 211.430483 274.897104 
L 212.78887 258.53958 
L 214.147258 260.773118 
L 215.505645 275.043075 
L 216.864032 267.374287 
L 218.222419 269.805652 
L 219.580806 274.491947 
L 220.939194 270.420758 
L 222.297581 274.529932 
L 223.655968 267.099561 
L 225.014355 272.108902 
L 226.372742 271.321515 
L 227.73113 256.125797 
L 229.089517 271.456197 
L 230.447904 267.880658 
L 231.806291 269.599527 
L 233.164679 274.731536 
L 234.523066 269.319697 
L 235.881453 263.195805 
L 237.23984 269.976697 
L 238.598227 267.118726 
L 239.956615 256.533894 
L 241.315002 270.531307 
L 242.673389 258.225459 
L 244.031776 274.074996 
L 245.390164 277.815273 
L 246.748551 262.58851 
L 248.106938 255.393542 
L 249.465325 268.8132 
L 250.823712 271.246165 
L 252.1821 276.137006 
L 253.540487 281.941826 
L 254.898874 261.084592 
L 256.257261 276.633492 
L 257.615649 269.206295 
L 258.974036 280.300198 
L 260.332423 263.356393 
L 261.69081 252.111006 
L 263.049197 256.488894 
L 264.407585 251.440984 
L 267.124359 279.862348 
L 268.482746 254.237021 
L 269.841134 246.382702 
L 271.199521 278.792343 
L 272.557908 255.569785 
L 273.916295 259.318482 
L 275.274682 282.886052 
L 276.63307 278.313435 
L 277.991457 282.568728 
L 279.349844 247.087705 
L 280.708231 249.629184 
L 282.066618 262.401503 
L 283.425006 270.438001 
L 284.783393 265.709573 
L 286.14178 249.519933 
L 287.500167 266.777801 
L 288.858555 260.48893 
L 290.216942 261.818409 
L 291.575329 255.433029 
L 292.933716 265.660267 
L 294.292103 261.016335 
L 295.650491 259.377286 
L 297.008878 249.739081 
L 298.367265 258.151544 
L 299.725652 263.406115 
L 301.08404 260.976039 
L 302.442427 263.057152 
L 303.800814 263.823127 
L 305.159201 264.319192 
L 306.517588 262.700446 
L 307.875976 257.376787 
L 309.234363 265.337524 
L 310.59275 263.752236 
L 311.951137 261.700622 
L 313.309525 254.87889 
L 314.667912 252.621486 
L 316.026299 252.265959 
L 317.384686 259.810543 
L 318.743073 261.203371 
L 320.101461 262.090238 
L 321.459848 259.567648 
L 322.818235 263.166744 
L 324.176622 261.771551 
L 325.53501 261.236196 
L 326.893397 261.226867 
L 328.251784 266.113585 
L 329.610171 264.291947 
L 330.968558 262.883364 
L 332.326946 259.510729 
L 333.685333 264.320888 
L 335.04372 262.233801 
L 336.402107 267.466082 
L 337.760494 261.708584 
L 339.118882 258.998231 
L 340.477269 266.31031 
L 341.835656 262.562214 
L 343.194043 263.257161 
L 344.552431 262.087754 
L 345.910818 260.417318 
L 347.269205 257.94024 
L 348.627592 260.990196 
L 349.985979 266.477273 
L 351.344367 255.63799 
L 352.702754 258.051522 
L 354.061141 257.135882 
L 355.419528 265.97462 
L 356.777916 259.624676 
L 358.136303 258.990767 
L 359.49469 259.125141 
L 360.853077 255.433683 
L 362.211464 260.649194 
L 363.569852 262.372162 
L 364.928239 264.473968 
L 366.286626 262.706845 
L 367.645013 257.15819 
L 369.003401 261.252353 
L 370.361788 257.243225 
L 371.720175 260.670862 
L 373.078562 257.655205 
L 374.436949 260.548144 
L 375.795337 256.112237 
L 377.153724 259.116878 
L 378.512111 255.440697 
L 379.870498 241.856705 
L 381.228886 253.003393 
L 382.587273 256.3364 
L 382.587273 256.3364 
" clip-path="url(#pefa7d55787)" style="fill: none; stroke: #0000ff; stroke-width: 1.5; stroke-linecap: square"/>
   </g>
   <g id="patch_3">
    <path d="M 41.7 287.6445 
L 41.7 21.5325 
" style="fill: none; stroke: #000000; stroke-width: 0.8; stroke-linejoin: miter; stroke-linecap: square"/>
   </g>
   <g id="patch_4">
    <path d="M 398.82 287.6445 
L 398.82 21.5325 
" style="fill: none; stroke: #000000; stroke-width: 0.8; stroke-linejoin: miter; stroke-linecap: square"/>
   </g>
   <g id="patch_5">
    <path d="M 41.7 287.6445 
L 398.82 287.6445 
" style="fill: none; stroke: #000000; stroke-width: 0.8; stroke-linejoin: miter; stroke-linecap: square"/>
   </g>
   <g id="patch_6">
    <path d="M 41.7 21.5325 
L 398.82 21.5325 
" style="fill: none; stroke: #000000; stroke-width: 0.8; stroke-linejoin: miter; stroke-linecap: square"/>
   </g>
   <g id="text_19">
    <!-- SSCWeb/geotail/GSE | CDAWeb/GE_OR_DEF/GSE_POS -->
    <g transform="translate(78.164063 15.5325) scale(0.12 -0.12)">
     <defs>
      <path id="TimesNewRomanPSMT-53" d="M 2934 4334 
L 2934 2869 
L 2819 2869 
Q 2763 3291 2617 3541 
Q 2472 3791 2203 3937 
Q 1934 4084 1647 4084 
Q 1322 4084 1109 3886 
Q 897 3688 897 3434 
Q 897 3241 1031 3081 
Q 1225 2847 1953 2456 
Q 2547 2138 2764 1967 
Q 2981 1797 3098 1565 
Q 3216 1334 3216 1081 
Q 3216 600 2842 251 
Q 2469 -97 1881 -97 
Q 1697 -97 1534 -69 
Q 1438 -53 1133 45 
Q 828 144 747 144 
Q 669 144 623 97 
Q 578 50 556 -97 
L 441 -97 
L 441 1356 
L 556 1356 
Q 638 900 775 673 
Q 913 447 1195 297 
Q 1478 147 1816 147 
Q 2206 147 2432 353 
Q 2659 559 2659 841 
Q 2659 997 2573 1156 
Q 2488 1316 2306 1453 
Q 2184 1547 1640 1851 
Q 1097 2156 867 2337 
Q 638 2519 519 2737 
Q 400 2956 400 3219 
Q 400 3675 750 4004 
Q 1100 4334 1641 4334 
Q 1978 4334 2356 4169 
Q 2531 4091 2603 4091 
Q 2684 4091 2736 4139 
Q 2788 4188 2819 4334 
L 2934 4334 
z
" transform="scale(0.015625)"/>
      <path id="TimesNewRomanPSMT-43" d="M 3853 4334 
L 3950 2894 
L 3853 2894 
Q 3659 3541 3300 3825 
Q 2941 4109 2438 4109 
Q 2016 4109 1675 3895 
Q 1334 3681 1139 3212 
Q 944 2744 944 2047 
Q 944 1472 1128 1050 
Q 1313 628 1683 403 
Q 2053 178 2528 178 
Q 2941 178 3256 354 
Q 3572 531 3950 1056 
L 4047 994 
Q 3728 428 3303 165 
Q 2878 -97 2294 -97 
Q 1241 -97 663 684 
Q 231 1266 231 2053 
Q 231 2688 515 3219 
Q 800 3750 1298 4042 
Q 1797 4334 2388 4334 
Q 2847 4334 3294 4109 
Q 3425 4041 3481 4041 
Q 3566 4041 3628 4100 
Q 3709 4184 3744 4334 
L 3853 4334 
z
" transform="scale(0.015625)"/>
      <path id="TimesNewRomanPSMT-57" d="M 5991 4238 
L 5991 4122 
Q 5825 4122 5722 4062 
Q 5619 4003 5525 3841 
Q 5463 3731 5328 3319 
L 4147 -97 
L 4022 -97 
L 3056 2613 
L 2097 -97 
L 1984 -97 
L 725 3422 
Q 584 3816 547 3888 
Q 484 4006 376 4064 
Q 269 4122 84 4122 
L 84 4238 
L 1653 4238 
L 1653 4122 
L 1578 4122 
Q 1413 4122 1325 4047 
Q 1238 3972 1238 3866 
Q 1238 3756 1375 3363 
L 2209 984 
L 2913 3006 
L 2788 3363 
L 2688 3647 
Q 2622 3803 2541 3922 
Q 2500 3981 2441 4022 
Q 2363 4078 2284 4103 
Q 2225 4122 2097 4122 
L 2097 4238 
L 3747 4238 
L 3747 4122 
L 3634 4122 
Q 3459 4122 3378 4047 
Q 3297 3972 3297 3844 
Q 3297 3684 3438 3288 
L 4250 984 
L 5056 3319 
Q 5194 3706 5194 3856 
Q 5194 3928 5148 3990 
Q 5103 4053 5034 4078 
Q 4916 4122 4725 4122 
L 4725 4238 
L 5991 4238 
z
" transform="scale(0.015625)"/>
      <path id="TimesNewRomanPSMT-65" d="M 681 1784 
Q 678 1147 991 784 
Q 1303 422 1725 422 
Q 2006 422 2214 576 
Q 2422 731 2563 1106 
L 2659 1044 
Q 2594 616 2278 264 
Q 1963 -88 1488 -88 
Q 972 -88 605 314 
Q 238 716 238 1394 
Q 238 2128 614 2539 
Q 991 2950 1559 2950 
Q 2041 2950 2350 2633 
Q 2659 2316 2659 1784 
L 681 1784 
z
M 681 1966 
L 2006 1966 
Q 1991 2241 1941 2353 
Q 1863 2528 1708 2628 
Q 1553 2728 1384 2728 
Q 1125 2728 920 2526 
Q 716 2325 681 1966 
z
" transform="scale(0.015625)"/>
      <path id="TimesNewRomanPSMT-62" d="M 984 2369 
Q 1400 2947 1881 2947 
Q 2322 2947 2650 2570 
Q 2978 2194 2978 1541 
Q 2978 778 2472 313 
Q 2038 -88 1503 -88 
Q 1253 -88 995 3 
Q 738 94 469 275 
L 469 3241 
Q 469 3728 445 3840 
Q 422 3953 372 3993 
Q 322 4034 247 4034 
Q 159 4034 28 3984 
L -16 4094 
L 844 4444 
L 984 4444 
L 984 2369 
z
M 984 2169 
L 984 456 
Q 1144 300 1314 220 
Q 1484 141 1663 141 
Q 1947 141 2192 453 
Q 2438 766 2438 1363 
Q 2438 1913 2192 2208 
Q 1947 2503 1634 2503 
Q 1469 2503 1303 2419 
Q 1178 2356 984 2169 
z
" transform="scale(0.015625)"/>
      <path id="TimesNewRomanPSMT-2f" d="M 1794 4444 
L 259 -88 
L 9 -88 
L 1544 4444 
L 1794 4444 
z
" transform="scale(0.015625)"/>
      <path id="TimesNewRomanPSMT-67" d="M 966 1044 
Q 703 1172 562 1401 
Q 422 1631 422 1909 
Q 422 2334 742 2640 
Q 1063 2947 1563 2947 
Q 1972 2947 2272 2747 
L 2878 2747 
Q 3013 2747 3034 2739 
Q 3056 2731 3066 2713 
Q 3084 2684 3084 2613 
Q 3084 2531 3069 2500 
Q 3059 2484 3036 2475 
Q 3013 2466 2878 2466 
L 2506 2466 
Q 2681 2241 2681 1891 
Q 2681 1491 2375 1206 
Q 2069 922 1553 922 
Q 1341 922 1119 984 
Q 981 866 932 777 
Q 884 688 884 625 
Q 884 572 936 522 
Q 988 472 1138 450 
Q 1225 438 1575 428 
Q 2219 413 2409 384 
Q 2700 344 2873 169 
Q 3047 -6 3047 -263 
Q 3047 -616 2716 -925 
Q 2228 -1381 1444 -1381 
Q 841 -1381 425 -1109 
Q 191 -953 191 -784 
Q 191 -709 225 -634 
Q 278 -519 444 -313 
Q 466 -284 763 25 
Q 600 122 533 198 
Q 466 275 466 372 
Q 466 481 555 628 
Q 644 775 966 1044 
z
M 1509 2797 
Q 1278 2797 1122 2612 
Q 966 2428 966 2047 
Q 966 1553 1178 1281 
Q 1341 1075 1591 1075 
Q 1828 1075 1981 1253 
Q 2134 1431 2134 1813 
Q 2134 2309 1919 2591 
Q 1759 2797 1509 2797 
z
M 934 0 
Q 788 -159 713 -296 
Q 638 -434 638 -550 
Q 638 -700 819 -813 
Q 1131 -1006 1722 -1006 
Q 2284 -1006 2551 -807 
Q 2819 -609 2819 -384 
Q 2819 -222 2659 -153 
Q 2497 -84 2016 -72 
Q 1313 -53 934 0 
z
" transform="scale(0.015625)"/>
      <path id="TimesNewRomanPSMT-6f" d="M 1600 2947 
Q 2250 2947 2644 2453 
Q 2978 2031 2978 1484 
Q 2978 1100 2793 706 
Q 2609 313 2286 112 
Q 1963 -88 1566 -88 
Q 919 -88 538 428 
Q 216 863 216 1403 
Q 216 1797 411 2186 
Q 606 2575 925 2761 
Q 1244 2947 1600 2947 
z
M 1503 2744 
Q 1338 2744 1170 2645 
Q 1003 2547 900 2300 
Q 797 2053 797 1666 
Q 797 1041 1045 587 
Q 1294 134 1700 134 
Q 2003 134 2200 384 
Q 2397 634 2397 1244 
Q 2397 2006 2069 2444 
Q 1847 2744 1503 2744 
z
" transform="scale(0.015625)"/>
      <path id="TimesNewRomanPSMT-74" d="M 1031 3803 
L 1031 2863 
L 1700 2863 
L 1700 2644 
L 1031 2644 
L 1031 788 
Q 1031 509 1111 412 
Q 1191 316 1316 316 
Q 1419 316 1516 380 
Q 1613 444 1666 569 
L 1788 569 
Q 1678 263 1478 108 
Q 1278 -47 1066 -47 
Q 922 -47 784 33 
Q 647 113 581 261 
Q 516 409 516 719 
L 516 2644 
L 63 2644 
L 63 2747 
Q 234 2816 414 2980 
Q 594 3144 734 3369 
Q 806 3488 934 3803 
L 1031 3803 
z
" transform="scale(0.015625)"/>
      <path id="TimesNewRomanPSMT-61" d="M 1822 413 
Q 1381 72 1269 19 
Q 1100 -59 909 -59 
Q 613 -59 420 144 
Q 228 347 228 678 
Q 228 888 322 1041 
Q 450 1253 767 1440 
Q 1084 1628 1822 1897 
L 1822 2009 
Q 1822 2438 1686 2597 
Q 1550 2756 1291 2756 
Q 1094 2756 978 2650 
Q 859 2544 859 2406 
L 866 2225 
Q 866 2081 792 2003 
Q 719 1925 600 1925 
Q 484 1925 411 2006 
Q 338 2088 338 2228 
Q 338 2497 613 2722 
Q 888 2947 1384 2947 
Q 1766 2947 2009 2819 
Q 2194 2722 2281 2516 
Q 2338 2381 2338 1966 
L 2338 994 
Q 2338 584 2353 492 
Q 2369 400 2405 369 
Q 2441 338 2488 338 
Q 2538 338 2575 359 
Q 2641 400 2828 588 
L 2828 413 
Q 2478 -56 2159 -56 
Q 2006 -56 1915 50 
Q 1825 156 1822 413 
z
M 1822 616 
L 1822 1706 
Q 1350 1519 1213 1441 
Q 966 1303 859 1153 
Q 753 1003 753 825 
Q 753 600 887 451 
Q 1022 303 1197 303 
Q 1434 303 1822 616 
z
" transform="scale(0.015625)"/>
      <path id="TimesNewRomanPSMT-69" d="M 928 4444 
Q 1059 4444 1151 4351 
Q 1244 4259 1244 4128 
Q 1244 3997 1151 3903 
Q 1059 3809 928 3809 
Q 797 3809 703 3903 
Q 609 3997 609 4128 
Q 609 4259 701 4351 
Q 794 4444 928 4444 
z
M 1188 2947 
L 1188 647 
Q 1188 378 1227 289 
Q 1266 200 1342 156 
Q 1419 113 1622 113 
L 1622 0 
L 231 0 
L 231 113 
Q 441 113 512 153 
Q 584 194 626 287 
Q 669 381 669 647 
L 669 1750 
Q 669 2216 641 2353 
Q 619 2453 572 2492 
Q 525 2531 444 2531 
Q 356 2531 231 2484 
L 188 2597 
L 1050 2947 
L 1188 2947 
z
" transform="scale(0.015625)"/>
      <path id="TimesNewRomanPSMT-6c" d="M 1184 4444 
L 1184 647 
Q 1184 378 1223 290 
Q 1263 203 1344 158 
Q 1425 113 1647 113 
L 1647 0 
L 244 0 
L 244 113 
Q 441 113 512 153 
Q 584 194 625 287 
Q 666 381 666 647 
L 666 3247 
Q 666 3731 644 3842 
Q 622 3953 573 3993 
Q 525 4034 450 4034 
Q 369 4034 244 3984 
L 191 4094 
L 1044 4444 
L 1184 4444 
z
" transform="scale(0.015625)"/>
      <path id="TimesNewRomanPSMT-47" d="M 3928 4334 
L 4038 2997 
L 3928 2997 
Q 3763 3497 3500 3750 
Q 3122 4116 2528 4116 
Q 1719 4116 1297 3475 
Q 944 2934 944 2188 
Q 944 1581 1178 1081 
Q 1413 581 1792 348 
Q 2172 116 2572 116 
Q 2806 116 3025 175 
Q 3244 234 3447 350 
L 3447 1575 
Q 3447 1894 3398 1992 
Q 3350 2091 3248 2142 
Q 3147 2194 2891 2194 
L 2891 2313 
L 4531 2313 
L 4531 2194 
L 4453 2194 
Q 4209 2194 4119 2031 
Q 4056 1916 4056 1575 
L 4056 278 
Q 3697 84 3347 -6 
Q 2997 -97 2569 -97 
Q 1341 -97 703 691 
Q 225 1281 225 2053 
Q 225 2613 494 3125 
Q 813 3734 1369 4063 
Q 1834 4334 2469 4334 
Q 2700 4334 2889 4296 
Q 3078 4259 3425 4131 
Q 3600 4066 3659 4066 
Q 3719 4066 3761 4120 
Q 3803 4175 3813 4334 
L 3928 4334 
z
" transform="scale(0.015625)"/>
      <path id="TimesNewRomanPSMT-45" d="M 1338 4006 
L 1338 2331 
L 2269 2331 
Q 2631 2331 2753 2441 
Q 2916 2584 2934 2947 
L 3050 2947 
L 3050 1472 
L 2934 1472 
Q 2891 1781 2847 1869 
Q 2791 1978 2662 2040 
Q 2534 2103 2269 2103 
L 1338 2103 
L 1338 706 
Q 1338 425 1363 364 
Q 1388 303 1450 267 
Q 1513 231 1688 231 
L 2406 231 
Q 2766 231 2928 281 
Q 3091 331 3241 478 
Q 3434 672 3638 1063 
L 3763 1063 
L 3397 0 
L 131 0 
L 131 116 
L 281 116 
Q 431 116 566 188 
Q 666 238 702 338 
Q 738 438 738 747 
L 738 3500 
Q 738 3903 656 3997 
Q 544 4122 281 4122 
L 131 4122 
L 131 4238 
L 3397 4238 
L 3444 3309 
L 3322 3309 
Q 3256 3644 3176 3769 
Q 3097 3894 2941 3959 
Q 2816 4006 2500 4006 
L 1338 4006 
z
" transform="scale(0.015625)"/>
      <path id="TimesNewRomanPSMT-20" transform="scale(0.015625)"/>
      <path id="TimesNewRomanPSMT-7c" d="M 763 4444 
L 763 -1381 
L 503 -1381 
L 503 4444 
L 763 4444 
z
" transform="scale(0.015625)"/>
      <path id="TimesNewRomanPSMT-44" d="M 109 0 
L 109 116 
L 269 116 
Q 538 116 650 288 
Q 719 391 719 750 
L 719 3488 
Q 719 3884 631 3984 
Q 509 4122 269 4122 
L 109 4122 
L 109 4238 
L 1834 4238 
Q 2784 4238 3279 4022 
Q 3775 3806 4076 3303 
Q 4378 2800 4378 2141 
Q 4378 1256 3841 663 
Q 3238 0 2003 0 
L 109 0 
z
M 1319 306 
Q 1716 219 1984 219 
Q 2709 219 3187 728 
Q 3666 1238 3666 2109 
Q 3666 2988 3187 3494 
Q 2709 4000 1959 4000 
Q 1678 4000 1319 3909 
L 1319 306 
z
" transform="scale(0.015625)"/>
      <path id="TimesNewRomanPSMT-41" d="M 2928 1419 
L 1288 1419 
L 1000 750 
Q 894 503 894 381 
Q 894 284 986 211 
Q 1078 138 1384 116 
L 1384 0 
L 50 0 
L 50 116 
Q 316 163 394 238 
Q 553 388 747 847 
L 2238 4334 
L 2347 4334 
L 3822 809 
Q 4000 384 4145 257 
Q 4291 131 4550 116 
L 4550 0 
L 2878 0 
L 2878 116 
Q 3131 128 3220 200 
Q 3309 272 3309 375 
Q 3309 513 3184 809 
L 2928 1419 
z
M 2841 1650 
L 2122 3363 
L 1384 1650 
L 2841 1650 
z
" transform="scale(0.015625)"/>
      <path id="TimesNewRomanPSMT-5f" d="M 3256 -1381 
L -53 -1381 
L -53 -1119 
L 3256 -1119 
L 3256 -1381 
z
" transform="scale(0.015625)"/>
      <path id="TimesNewRomanPSMT-4f" d="M 2341 4334 
Q 3166 4334 3770 3707 
Q 4375 3081 4375 2144 
Q 4375 1178 3765 540 
Q 3156 -97 2291 -97 
Q 1416 -97 820 525 
Q 225 1147 225 2134 
Q 225 3144 913 3781 
Q 1509 4334 2341 4334 
z
M 2281 4106 
Q 1713 4106 1369 3684 
Q 941 3159 941 2147 
Q 941 1109 1384 550 
Q 1725 125 2284 125 
Q 2881 125 3270 590 
Q 3659 1056 3659 2059 
Q 3659 3147 3231 3681 
Q 2888 4106 2281 4106 
z
" transform="scale(0.015625)"/>
      <path id="TimesNewRomanPSMT-52" d="M 4325 0 
L 3194 0 
L 1759 1981 
Q 1600 1975 1500 1975 
Q 1459 1975 1412 1976 
Q 1366 1978 1316 1981 
L 1316 750 
Q 1316 350 1403 253 
Q 1522 116 1759 116 
L 1925 116 
L 1925 0 
L 109 0 
L 109 116 
L 269 116 
Q 538 116 653 291 
Q 719 388 719 750 
L 719 3488 
Q 719 3888 631 3984 
Q 509 4122 269 4122 
L 109 4122 
L 109 4238 
L 1653 4238 
Q 2328 4238 2648 4139 
Q 2969 4041 3192 3777 
Q 3416 3513 3416 3147 
Q 3416 2756 3161 2468 
Q 2906 2181 2372 2063 
L 3247 847 
Q 3547 428 3762 290 
Q 3978 153 4325 116 
L 4325 0 
z
M 1316 2178 
Q 1375 2178 1419 2176 
Q 1463 2175 1491 2175 
Q 2097 2175 2405 2437 
Q 2713 2700 2713 3106 
Q 2713 3503 2464 3751 
Q 2216 4000 1806 4000 
Q 1625 4000 1316 3941 
L 1316 2178 
z
" transform="scale(0.015625)"/>
      <path id="TimesNewRomanPSMT-46" d="M 1309 4006 
L 1309 2341 
L 2081 2341 
Q 2347 2341 2470 2458 
Q 2594 2575 2634 2922 
L 2750 2922 
L 2750 1488 
L 2634 1488 
Q 2631 1734 2570 1850 
Q 2509 1966 2401 2023 
Q 2294 2081 2081 2081 
L 1309 2081 
L 1309 750 
Q 1309 428 1350 325 
Q 1381 247 1481 191 
Q 1619 116 1769 116 
L 1922 116 
L 1922 0 
L 103 0 
L 103 116 
L 253 116 
Q 516 116 634 269 
Q 709 369 709 750 
L 709 3488 
Q 709 3809 669 3913 
Q 638 3991 541 4047 
Q 406 4122 253 4122 
L 103 4122 
L 103 4238 
L 3256 4238 
L 3297 3306 
L 3188 3306 
Q 3106 3603 2998 3742 
Q 2891 3881 2733 3943 
Q 2575 4006 2244 4006 
L 1309 4006 
z
" transform="scale(0.015625)"/>
      <path id="TimesNewRomanPSMT-50" d="M 1313 1984 
L 1313 750 
Q 1313 350 1400 253 
Q 1519 116 1759 116 
L 1922 116 
L 1922 0 
L 106 0 
L 106 116 
L 266 116 
Q 534 116 650 291 
Q 713 388 713 750 
L 713 3488 
Q 713 3888 628 3984 
Q 506 4122 266 4122 
L 106 4122 
L 106 4238 
L 1659 4238 
Q 2228 4238 2556 4120 
Q 2884 4003 3109 3725 
Q 3334 3447 3334 3066 
Q 3334 2547 2992 2222 
Q 2650 1897 2025 1897 
Q 1872 1897 1694 1919 
Q 1516 1941 1313 1984 
z
M 1313 2163 
Q 1478 2131 1606 2115 
Q 1734 2100 1825 2100 
Q 2150 2100 2386 2351 
Q 2622 2603 2622 3003 
Q 2622 3278 2509 3514 
Q 2397 3750 2190 3867 
Q 1984 3984 1722 3984 
Q 1563 3984 1313 3925 
L 1313 2163 
z
" transform="scale(0.015625)"/>
     </defs>
     <use xlink:href="#TimesNewRomanPSMT-53"/>
     <use xlink:href="#TimesNewRomanPSMT-53" x="55.615234"/>
     <use xlink:href="#TimesNewRomanPSMT-43" x="111.230469"/>
     <use xlink:href="#TimesNewRomanPSMT-57" x="177.929688"/>
     <use xlink:href="#TimesNewRomanPSMT-65" x="264.314453"/>
     <use xlink:href="#TimesNewRomanPSMT-62" x="308.699219"/>
     <use xlink:href="#TimesNewRomanPSMT-2f" x="358.699219"/>
     <use xlink:href="#TimesNewRomanPSMT-67" x="386.482422"/>
     <use xlink:href="#TimesNewRomanPSMT-65" x="436.482422"/>
     <use xlink:href="#TimesNewRomanPSMT-6f" x="480.867188"/>
     <use xlink:href="#TimesNewRomanPSMT-74" x="530.867188"/>
     <use xlink:href="#TimesNewRomanPSMT-61" x="558.650391"/>
     <use xlink:href="#TimesNewRomanPSMT-69" x="603.035156"/>
     <use xlink:href="#TimesNewRomanPSMT-6c" x="630.818359"/>
     <use xlink:href="#TimesNewRomanPSMT-2f" x="658.601562"/>
     <use xlink:href="#TimesNewRomanPSMT-47" x="686.384766"/>
     <use xlink:href="#TimesNewRomanPSMT-53" x="758.601562"/>
     <use xlink:href="#TimesNewRomanPSMT-45" x="814.216797"/>
     <use xlink:href="#TimesNewRomanPSMT-20" x="875.300781"/>
     <use xlink:href="#TimesNewRomanPSMT-7c" x="900.300781"/>
     <use xlink:href="#TimesNewRomanPSMT-20" x="920.320312"/>
     <use xlink:href="#TimesNewRomanPSMT-43" x="945.320312"/>
     <use xlink:href="#TimesNewRomanPSMT-44" x="1012.019531"/>
     <use xlink:href="#TimesNewRomanPSMT-41" x="1084.236328"/>
     <use xlink:href="#TimesNewRomanPSMT-57" x="1148.453125"/>
     <use xlink:href="#TimesNewRomanPSMT-65" x="1234.837891"/>
     <use xlink:href="#TimesNewRomanPSMT-62" x="1279.222656"/>
     <use xlink:href="#TimesNewRomanPSMT-2f" x="1329.222656"/>
     <use xlink:href="#TimesNewRomanPSMT-47" x="1357.005859"/>
     <use xlink:href="#TimesNewRomanPSMT-45" x="1429.222656"/>
     <use xlink:href="#TimesNewRomanPSMT-5f" x="1490.306641"/>
     <use xlink:href="#TimesNewRomanPSMT-4f" x="1540.306641"/>
     <use xlink:href="#TimesNewRomanPSMT-52" x="1612.523438"/>
     <use xlink:href="#TimesNewRomanPSMT-5f" x="1679.222656"/>
     <use xlink:href="#TimesNewRomanPSMT-44" x="1729.222656"/>
     <use xlink:href="#TimesNewRomanPSMT-45" x="1801.439453"/>
     <use xlink:href="#TimesNewRomanPSMT-46" x="1862.523438"/>
     <use xlink:href="#TimesNewRomanPSMT-2f" x="1918.138672"/>
     <use xlink:href="#TimesNewRomanPSMT-47" x="1945.921875"/>
     <use xlink:href="#TimesNewRomanPSMT-53" x="2018.138672"/>
     <use xlink:href="#TimesNewRomanPSMT-45" x="2073.753906"/>
     <use xlink:href="#TimesNewRomanPSMT-5f" x="2134.837891"/>
     <use xlink:href="#TimesNewRomanPSMT-50" x="2184.837891"/>
     <use xlink:href="#TimesNewRomanPSMT-4f" x="2240.453125"/>
     <use xlink:href="#TimesNewRomanPSMT-53" x="2312.669922"/>
    </g>
   </g>
   <g id="legend_1">
    <g id="patch_7">
     <path d="M 50.1 49.1325 
L 320.34 49.1325 
Q 322.74 49.1325 322.74 46.7325 
L 322.74 29.9325 
Q 322.74 27.5325 320.34 27.5325 
L 50.1 27.5325 
Q 47.7 27.5325 47.7 29.9325 
L 47.7 46.7325 
Q 47.7 49.1325 50.1 49.1325 
z
" style="fill: #ffffff; opacity: 0.8; stroke: #cccccc; stroke-linejoin: miter"/>
    </g>
    <g id="line2d_40">
     <path d="M 52.5 37.1325 
L 64.5 37.1325 
L 76.5 37.1325 
" style="fill: none; stroke: #000000; stroke-width: 1.5; stroke-linecap: square"/>
    </g>
    <g id="text_20">
     <!-- $r/R_E$ -->
     <g transform="translate(86.1 41.3325) scale(0.12 -0.12)">
      <defs>
       <path id="STIXGeneral-Regular-394" d="M 4320 0 
L 307 0 
L 2221 4314 
L 2349 4314 
L 4320 0 
z
M 3354 589 
L 2118 3405 
L 870 589 
L 3354 589 
z
" transform="scale(0.015625)"/>
       <path id="Cmmi10-72" d="M 494 109 
Q 494 147 500 166 
L 978 2075 
Q 1025 2253 1025 2388 
Q 1025 2663 838 2663 
Q 638 2663 541 2423 
Q 444 2184 353 1819 
Q 353 1800 334 1789 
Q 316 1778 300 1778 
L 225 1778 
Q 203 1778 187 1801 
Q 172 1825 172 1844 
Q 241 2122 305 2315 
Q 369 2509 505 2668 
Q 641 2828 844 2828 
Q 1066 2828 1233 2700 
Q 1400 2572 1441 2363 
Q 1603 2575 1811 2701 
Q 2019 2828 2266 2828 
Q 2469 2828 2623 2709 
Q 2778 2591 2778 2388 
Q 2778 2225 2676 2104 
Q 2575 1984 2406 1984 
Q 2303 1984 2233 2048 
Q 2163 2113 2163 2216 
Q 2163 2356 2266 2467 
Q 2369 2578 2503 2578 
Q 2400 2663 2253 2663 
Q 1978 2663 1775 2467 
Q 1572 2272 1409 1972 
L 953 141 
Q 931 53 854 -9 
Q 778 -72 684 -72 
Q 606 -72 550 -22 
Q 494 28 494 109 
z
" transform="scale(0.015625)"/>
       <path id="Cmmi10-3d" d="M 359 -1472 
Q 359 -1453 366 -1447 
L 2591 4722 
Q 2603 4759 2634 4779 
Q 2666 4800 2706 4800 
Q 2763 4800 2798 4765 
Q 2834 4731 2834 4672 
L 2834 4647 
L 609 -1522 
Q 572 -1600 488 -1600 
Q 434 -1600 396 -1562 
Q 359 -1525 359 -1472 
z
" transform="scale(0.015625)"/>
       <path id="Cmmi10-52" d="M 313 0 
Q 250 0 250 84 
Q 253 100 262 139 
Q 272 178 289 201 
Q 306 225 331 225 
Q 722 225 878 269 
Q 959 297 997 441 
L 1875 3956 
Q 1888 4019 1888 4044 
Q 1888 4113 1813 4122 
Q 1691 4147 1350 4147 
Q 1288 4147 1288 4231 
Q 1291 4247 1300 4286 
Q 1309 4325 1326 4348 
Q 1344 4372 1369 4372 
L 3309 4372 
Q 3541 4372 3791 4319 
Q 4041 4266 4250 4152 
Q 4459 4038 4593 3848 
Q 4728 3659 4728 3406 
Q 4728 3084 4515 2831 
Q 4303 2578 3978 2408 
Q 3653 2238 3347 2169 
Q 3597 2078 3756 1879 
Q 3916 1681 3916 1422 
Q 3916 1388 3914 1370 
Q 3913 1353 3909 1331 
L 3859 763 
Q 3853 638 3847 550 
Q 3841 463 3841 409 
Q 3841 234 3892 129 
Q 3944 25 4097 25 
Q 4297 25 4448 211 
Q 4600 397 4647 616 
Q 4675 672 4709 672 
L 4769 672 
Q 4831 672 4831 588 
Q 4784 403 4682 237 
Q 4581 72 4426 -34 
Q 4272 -141 4091 -141 
Q 3716 -141 3452 26 
Q 3188 194 3188 550 
Q 3188 684 3213 788 
L 3353 1356 
Q 3378 1434 3378 1538 
Q 3378 1803 3198 1954 
Q 3019 2106 2747 2106 
L 1959 2106 
L 1538 416 
Q 1522 363 1522 325 
Q 1522 259 1600 250 
Q 1722 225 2059 225 
Q 2125 225 2125 141 
Q 2103 50 2090 25 
Q 2078 0 2016 0 
L 313 0 
z
M 1997 2272 
L 2706 2272 
Q 3403 2272 3756 2625 
Q 3919 2788 4014 3039 
Q 4109 3291 4109 3541 
Q 4109 3778 3970 3912 
Q 3831 4047 3626 4097 
Q 3422 4147 3175 4147 
L 2747 4147 
Q 2572 4147 2515 4117 
Q 2459 4088 2413 3928 
L 1997 2272 
z
" transform="scale(0.015625)"/>
       <path id="Cmmi10-45" d="M 300 0 
Q 238 0 238 84 
Q 241 100 250 139 
Q 259 178 276 201 
Q 294 225 319 225 
Q 709 225 863 269 
Q 947 297 984 441 
L 1863 3956 
Q 1875 4019 1875 4044 
Q 1875 4113 1797 4122 
Q 1678 4147 1338 4147 
Q 1275 4147 1275 4231 
Q 1278 4247 1287 4286 
Q 1297 4325 1314 4348 
Q 1331 4372 1356 4372 
L 4825 4372 
Q 4891 4372 4891 4288 
L 4738 2963 
Q 4738 2947 4714 2926 
Q 4691 2906 4672 2906 
L 4616 2906 
Q 4550 2906 4550 2988 
Q 4588 3300 4588 3450 
Q 4588 3706 4500 3848 
Q 4413 3991 4267 4053 
Q 4122 4116 3945 4131 
Q 3769 4147 3481 4147 
L 2753 4147 
Q 2578 4147 2522 4117 
Q 2466 4088 2419 3928 
L 2034 2381 
L 2534 2381 
Q 2859 2381 3025 2426 
Q 3191 2472 3287 2615 
Q 3384 2759 3463 3072 
Q 3469 3094 3486 3111 
Q 3503 3128 3525 3128 
L 3584 3128 
Q 3647 3128 3647 3047 
L 3250 1466 
Q 3238 1409 3188 1409 
L 3128 1409 
Q 3066 1409 3066 1491 
Q 3128 1747 3128 1869 
Q 3128 2056 2959 2106 
Q 2791 2156 2509 2156 
L 1978 2156 
L 1544 416 
Q 1516 338 1516 275 
Q 1516 225 1734 225 
L 2509 225 
Q 2972 225 3259 297 
Q 3547 369 3736 526 
Q 3925 684 4062 928 
Q 4200 1172 4397 1638 
Q 4409 1678 4453 1678 
L 4513 1678 
Q 4538 1678 4556 1656 
Q 4575 1634 4575 1606 
Q 4575 1594 4569 1581 
L 3909 38 
Q 3897 0 3859 0 
L 300 0 
z
" transform="scale(0.015625)"/>
      </defs>
      <use xlink:href="#STIXGeneral-Regular-394"/>
      <use xlink:href="#Cmmi10-72" transform="translate(72.199982 0)"/>
      <use xlink:href="#Cmmi10-3d" transform="translate(117.317169 0)"/>
      <use xlink:href="#Cmmi10-52" transform="translate(167.317169 0)"/>
      <use xlink:href="#Cmmi10-45" transform="translate(243.196075 -17.00625) scale(0.7)"/>
     </g>
    </g>
    <g id="line2d_41">
     <path d="M 146.34 37.1325 
L 158.34 37.1325 
L 170.34 37.1325 
" style="fill: none; stroke: #008000; stroke-width: 1.5; stroke-linecap: square"/>
    </g>
    <g id="text_21">
     <!-- $$ [deg] -->
     <g transform="translate(179.94 41.3325) scale(0.12 -0.12)">
      <defs>
       <path id="STIXGeneral-Italic-3b8" d="M 3162 3270 
Q 3162 2534 2925 1862 
Q 2688 1190 2304 678 
Q 1741 -70 992 -70 
Q 608 -70 390 224 
Q 173 518 173 1030 
Q 173 1997 592 2813 
Q 1011 3629 1594 4070 
Q 1952 4339 2374 4339 
Q 2733 4339 2947 4076 
Q 3162 3814 3162 3270 
z
M 941 2221 
L 2432 2221 
Q 2624 2874 2624 3533 
Q 2624 4205 2285 4205 
Q 2029 4205 1728 3814 
Q 1427 3424 1232 2992 
Q 1037 2560 941 2221 
z
M 2387 2016 
L 896 2016 
Q 710 1530 710 960 
Q 710 64 1069 64 
Q 1286 64 1510 275 
Q 1734 486 1904 806 
Q 2074 1126 2198 1440 
Q 2323 1754 2387 2016 
z
" transform="scale(0.015625)"/>
       <path id="TimesNewRomanPSMT-5b" d="M 1900 -1269 
L 525 -1269 
L 525 4334 
L 1900 4334 
L 1900 4088 
L 994 4088 
L 994 -1025 
L 1900 -1025 
L 1900 -1269 
z
" transform="scale(0.015625)"/>
       <path id="TimesNewRomanPSMT-64" d="M 2222 322 
Q 2013 103 1813 7 
Q 1613 -88 1381 -88 
Q 913 -88 563 304 
Q 213 697 213 1313 
Q 213 1928 600 2439 
Q 988 2950 1597 2950 
Q 1975 2950 2222 2709 
L 2222 3238 
Q 2222 3728 2198 3840 
Q 2175 3953 2125 3993 
Q 2075 4034 2000 4034 
Q 1919 4034 1784 3984 
L 1744 4094 
L 2597 4444 
L 2738 4444 
L 2738 1134 
Q 2738 631 2761 520 
Q 2784 409 2836 365 
Q 2888 322 2956 322 
Q 3041 322 3181 375 
L 3216 266 
L 2366 -88 
L 2222 -88 
L 2222 322 
z
M 2222 541 
L 2222 2016 
Q 2203 2228 2109 2403 
Q 2016 2578 1861 2667 
Q 1706 2756 1559 2756 
Q 1284 2756 1069 2509 
Q 784 2184 784 1559 
Q 784 928 1059 592 
Q 1334 256 1672 256 
Q 1956 256 2222 541 
z
" transform="scale(0.015625)"/>
       <path id="TimesNewRomanPSMT-5d" d="M 234 4334 
L 1609 4334 
L 1609 -1272 
L 234 -1272 
L 234 -1025 
L 1141 -1025 
L 1141 4088 
L 234 4088 
L 234 4334 
z
" transform="scale(0.015625)"/>
      </defs>
      <use xlink:href="#STIXGeneral-Regular-394" transform="translate(0 0.5625)"/>
      <use xlink:href="#STIXGeneral-Italic-3b8" transform="translate(72.199982 0.5625)"/>
      <use xlink:href="#TimesNewRomanPSMT-20" transform="translate(120.199966 0.5625)"/>
      <use xlink:href="#TimesNewRomanPSMT-5b" transform="translate(145.199966 0.5625)"/>
      <use xlink:href="#TimesNewRomanPSMT-64" transform="translate(178.500748 0.5625)"/>
      <use xlink:href="#TimesNewRomanPSMT-65" transform="translate(228.500748 0.5625)"/>
      <use xlink:href="#TimesNewRomanPSMT-67" transform="translate(272.885513 0.5625)"/>
      <use xlink:href="#TimesNewRomanPSMT-5d" transform="translate(322.885513 0.5625)"/>
     </g>
    </g>
    <g id="line2d_42">
     <path d="M 246.78 37.1325 
L 258.78 37.1325 
L 270.78 37.1325 
" style="fill: none; stroke: #0000ff; stroke-width: 1.5; stroke-linecap: square"/>
    </g>
    <g id="text_22">
     <!-- $10r/r$ -->
     <g transform="translate(280.38 41.3325) scale(0.12 -0.12)">
      <defs>
       <path id="Cmr10-31" d="M 594 0 
L 594 225 
Q 1394 225 1394 428 
L 1394 3788 
Q 1063 3628 556 3628 
L 556 3853 
Q 1341 3853 1741 4263 
L 1831 4263 
Q 1853 4263 1873 4245 
Q 1894 4228 1894 4206 
L 1894 428 
Q 1894 225 2694 225 
L 2694 0 
L 594 0 
z
" transform="scale(0.015625)"/>
       <path id="Cmr10-30" d="M 1600 -141 
Q 816 -141 533 504 
Q 250 1150 250 2041 
Q 250 2597 351 3087 
Q 453 3578 754 3920 
Q 1056 4263 1600 4263 
Q 2022 4263 2290 4056 
Q 2559 3850 2700 3523 
Q 2841 3197 2892 2823 
Q 2944 2450 2944 2041 
Q 2944 1491 2842 1011 
Q 2741 531 2444 195 
Q 2147 -141 1600 -141 
z
M 1600 25 
Q 1956 25 2131 390 
Q 2306 756 2347 1200 
Q 2388 1644 2388 2144 
Q 2388 2625 2347 3031 
Q 2306 3438 2132 3767 
Q 1959 4097 1600 4097 
Q 1238 4097 1063 3765 
Q 888 3434 847 3029 
Q 806 2625 806 2144 
Q 806 1788 823 1472 
Q 841 1156 916 820 
Q 991 484 1158 254 
Q 1325 25 1600 25 
z
" transform="scale(0.015625)"/>
      </defs>
      <use xlink:href="#Cmr10-31"/>
      <use xlink:href="#Cmr10-30" transform="translate(50 0)"/>
      <use xlink:href="#STIXGeneral-Regular-394" transform="translate(100 0)"/>
      <use xlink:href="#Cmmi10-72" transform="translate(172.199982 0)"/>
      <use xlink:href="#Cmmi10-3d" transform="translate(217.317169 0)"/>
      <use xlink:href="#Cmmi10-72" transform="translate(267.317169 0)"/>
     </g>
    </g>
   </g>
  </g>
 </g>
 <defs>
  <clipPath id="pefa7d55787">
   <rect x="41.7" y="21.5325" width="357.12" height="266.112"/>
  </clipPath>
 </defs>
</svg>
