<?xml version="1.0" encoding="utf-8" standalone="no"?>
<!DOCTYPE svg PUBLIC "-//W3C//DTD SVG 1.1//EN"
  "http://www.w3.org/Graphics/SVG/1.1/DTD/svg11.dtd">
<svg xmlns:xlink="http://www.w3.org/1999/xlink" width="396.02pt" height="321.398875pt" viewBox="0 0 396.02 321.398875" xmlns="http://www.w3.org/2000/svg" version="1.1">
 <metadata>
  <rdf:RDF xmlns:dc="http://purl.org/dc/elements/1.1/" xmlns:cc="http://creativecommons.org/ns#" xmlns:rdf="http://www.w3.org/1999/02/22-rdf-syntax-ns#">
   <cc:Work>
    <dc:type rdf:resource="http://purl.org/dc/dcmitype/StillImage"/>
    <dc:date>2025-05-07T14:57:10.104429</dc:date>
    <dc:format>image/svg+xml</dc:format>
    <dc:creator>
     <cc:Agent>
      <dc:title>Matplotlib v3.8.4, https://matplotlib.org/</dc:title>
     </cc:Agent>
    </dc:creator>
   </cc:Work>
  </rdf:RDF>
 </metadata>
 <defs>
  <style type="text/css">*{stroke-linejoin: round; stroke-linecap: butt}</style>
 </defs>
 <g id="figure_1">
  <g id="patch_1">
   <path d="M 0 321.398875 
L 396.02 321.398875 
L 396.02 0 
L 0 0 
z
" style="fill: #ffffff"/>
  </g>
  <g id="axes_1">
   <g id="patch_2">
    <path d="M 31.7 287.6445 
L 388.82 287.6445 
L 388.82 21.5325 
L 31.7 21.5325 
z
" style="fill: #ffffff"/>
   </g>
   <g id="matplotlib.axis_1">
    <g id="xtick_1">
     <g id="line2d_1">
      <path d="M 47.932727 287.6445 
L 47.932727 21.5325 
" clip-path="url(#p8adeef3629)" style="fill: none; stroke: #b0b0b0; stroke-width: 0.8; stroke-linecap: square"/>
     </g>
     <g id="line2d_2">
      <defs>
       <path id="me773aadfbf" d="M 0 0 
L 0 3.5 
" style="stroke: #000000; stroke-width: 0.8"/>
      </defs>
      <g>
       <use xlink:href="#me773aadfbf" x="47.932727" y="287.6445" style="stroke: #000000; stroke-width: 0.8"/>
      </g>
     </g>
     <g id="text_1">
      <!-- 25 -->
      <g transform="translate(42.932727 301.58825) scale(0.1 -0.1)">
       <defs>
        <path id="TimesNewRomanPSMT-32" d="M 2934 816 
L 2638 0 
L 138 0 
L 138 116 
Q 1241 1122 1691 1759 
Q 2141 2397 2141 2925 
Q 2141 3328 1894 3587 
Q 1647 3847 1303 3847 
Q 991 3847 742 3664 
Q 494 3481 375 3128 
L 259 3128 
Q 338 3706 661 4015 
Q 984 4325 1469 4325 
Q 1984 4325 2329 3994 
Q 2675 3663 2675 3213 
Q 2675 2891 2525 2569 
Q 2294 2063 1775 1497 
Q 997 647 803 472 
L 1909 472 
Q 2247 472 2383 497 
Q 2519 522 2628 598 
Q 2738 675 2819 816 
L 2934 816 
z
" transform="scale(0.015625)"/>
        <path id="TimesNewRomanPSMT-35" d="M 2778 4238 
L 2534 3706 
L 1259 3706 
L 981 3138 
Q 1809 3016 2294 2522 
Q 2709 2097 2709 1522 
Q 2709 1188 2573 903 
Q 2438 619 2231 419 
Q 2025 219 1772 97 
Q 1413 -75 1034 -75 
Q 653 -75 479 54 
Q 306 184 306 341 
Q 306 428 378 495 
Q 450 563 559 563 
Q 641 563 702 538 
Q 763 513 909 409 
Q 1144 247 1384 247 
Q 1750 247 2026 523 
Q 2303 800 2303 1197 
Q 2303 1581 2056 1914 
Q 1809 2247 1375 2428 
Q 1034 2569 447 2591 
L 1259 4238 
L 2778 4238 
z
" transform="scale(0.015625)"/>
       </defs>
       <use xlink:href="#TimesNewRomanPSMT-32"/>
       <use xlink:href="#TimesNewRomanPSMT-35" x="50"/>
      </g>
      <!-- 2021-11 -->
      <g transform="translate(31.455384 312.059812) scale(0.1 -0.1)">
       <defs>
        <path id="TimesNewRomanPSMT-30" d="M 231 2094 
Q 231 2819 450 3342 
Q 669 3866 1031 4122 
Q 1313 4325 1613 4325 
Q 2100 4325 2488 3828 
Q 2972 3213 2972 2159 
Q 2972 1422 2759 906 
Q 2547 391 2217 158 
Q 1888 -75 1581 -75 
Q 975 -75 572 641 
Q 231 1244 231 2094 
z
M 844 2016 
Q 844 1141 1059 588 
Q 1238 122 1591 122 
Q 1759 122 1940 273 
Q 2122 425 2216 781 
Q 2359 1319 2359 2297 
Q 2359 3022 2209 3506 
Q 2097 3866 1919 4016 
Q 1791 4119 1609 4119 
Q 1397 4119 1231 3928 
Q 1006 3669 925 3112 
Q 844 2556 844 2016 
z
" transform="scale(0.015625)"/>
        <path id="TimesNewRomanPSMT-31" d="M 750 3822 
L 1781 4325 
L 1884 4325 
L 1884 747 
Q 1884 391 1914 303 
Q 1944 216 2037 169 
Q 2131 122 2419 116 
L 2419 0 
L 825 0 
L 825 116 
Q 1125 122 1212 167 
Q 1300 213 1334 289 
Q 1369 366 1369 747 
L 1369 3034 
Q 1369 3497 1338 3628 
Q 1316 3728 1258 3775 
Q 1200 3822 1119 3822 
Q 1003 3822 797 3725 
L 750 3822 
z
" transform="scale(0.015625)"/>
        <path id="TimesNewRomanPSMT-2d" d="M 259 1672 
L 1875 1672 
L 1875 1200 
L 259 1200 
L 259 1672 
z
" transform="scale(0.015625)"/>
       </defs>
       <use xlink:href="#TimesNewRomanPSMT-32"/>
       <use xlink:href="#TimesNewRomanPSMT-30" x="50"/>
       <use xlink:href="#TimesNewRomanPSMT-32" x="100"/>
       <use xlink:href="#TimesNewRomanPSMT-31" x="150"/>
       <use xlink:href="#TimesNewRomanPSMT-2d" x="200"/>
       <use xlink:href="#TimesNewRomanPSMT-31" x="233.300781"/>
       <use xlink:href="#TimesNewRomanPSMT-31" x="279.550781"/>
      </g>
     </g>
    </g>
    <g id="xtick_2">
     <g id="line2d_3">
      <path d="M 80.534021 287.6445 
L 80.534021 21.5325 
" clip-path="url(#p8adeef3629)" style="fill: none; stroke: #b0b0b0; stroke-width: 0.8; stroke-linecap: square"/>
     </g>
     <g id="line2d_4">
      <g>
       <use xlink:href="#me773aadfbf" x="80.534021" y="287.6445" style="stroke: #000000; stroke-width: 0.8"/>
      </g>
     </g>
     <g id="text_2">
      <!-- 26 -->
      <g transform="translate(75.534021 301.58825) scale(0.1 -0.1)">
       <defs>
        <path id="TimesNewRomanPSMT-36" d="M 2869 4325 
L 2869 4209 
Q 2456 4169 2195 4045 
Q 1934 3922 1679 3669 
Q 1425 3416 1258 3105 
Q 1091 2794 978 2366 
Q 1428 2675 1881 2675 
Q 2316 2675 2634 2325 
Q 2953 1975 2953 1425 
Q 2953 894 2631 456 
Q 2244 -75 1606 -75 
Q 1172 -75 869 213 
Q 275 772 275 1663 
Q 275 2231 503 2743 
Q 731 3256 1154 3653 
Q 1578 4050 1965 4187 
Q 2353 4325 2688 4325 
L 2869 4325 
z
M 925 2138 
Q 869 1716 869 1456 
Q 869 1156 980 804 
Q 1091 453 1309 247 
Q 1469 100 1697 100 
Q 1969 100 2183 356 
Q 2397 613 2397 1088 
Q 2397 1622 2184 2012 
Q 1972 2403 1581 2403 
Q 1463 2403 1327 2353 
Q 1191 2303 925 2138 
z
" transform="scale(0.015625)"/>
       </defs>
       <use xlink:href="#TimesNewRomanPSMT-32"/>
       <use xlink:href="#TimesNewRomanPSMT-36" x="50"/>
      </g>
     </g>
    </g>
    <g id="xtick_3">
     <g id="line2d_5">
      <path d="M 113.135314 287.6445 
L 113.135314 21.5325 
" clip-path="url(#p8adeef3629)" style="fill: none; stroke: #b0b0b0; stroke-width: 0.8; stroke-linecap: square"/>
     </g>
     <g id="line2d_6">
      <g>
       <use xlink:href="#me773aadfbf" x="113.135314" y="287.6445" style="stroke: #000000; stroke-width: 0.8"/>
      </g>
     </g>
     <g id="text_3">
      <!-- 27 -->
      <g transform="translate(108.135314 301.58825) scale(0.1 -0.1)">
       <defs>
        <path id="TimesNewRomanPSMT-37" d="M 644 4238 
L 2916 4238 
L 2916 4119 
L 1503 -88 
L 1153 -88 
L 2419 3728 
L 1253 3728 
Q 900 3728 750 3644 
Q 488 3500 328 3200 
L 238 3234 
L 644 4238 
z
" transform="scale(0.015625)"/>
       </defs>
       <use xlink:href="#TimesNewRomanPSMT-32"/>
       <use xlink:href="#TimesNewRomanPSMT-37" x="50"/>
      </g>
     </g>
    </g>
    <g id="xtick_4">
     <g id="line2d_7">
      <path d="M 145.736607 287.6445 
L 145.736607 21.5325 
" clip-path="url(#p8adeef3629)" style="fill: none; stroke: #b0b0b0; stroke-width: 0.8; stroke-linecap: square"/>
     </g>
     <g id="line2d_8">
      <g>
       <use xlink:href="#me773aadfbf" x="145.736607" y="287.6445" style="stroke: #000000; stroke-width: 0.8"/>
      </g>
     </g>
     <g id="text_4">
      <!-- 28 -->
      <g transform="translate(140.736607 301.58825) scale(0.1 -0.1)">
       <defs>
        <path id="TimesNewRomanPSMT-38" d="M 1228 2134 
Q 725 2547 579 2797 
Q 434 3047 434 3316 
Q 434 3728 753 4026 
Q 1072 4325 1600 4325 
Q 2113 4325 2425 4047 
Q 2738 3769 2738 3413 
Q 2738 3175 2569 2928 
Q 2400 2681 1866 2347 
Q 2416 1922 2594 1678 
Q 2831 1359 2831 1006 
Q 2831 559 2490 242 
Q 2150 -75 1597 -75 
Q 994 -75 656 303 
Q 388 606 388 966 
Q 388 1247 577 1523 
Q 766 1800 1228 2134 
z
M 1719 2469 
Q 2094 2806 2194 3001 
Q 2294 3197 2294 3444 
Q 2294 3772 2109 3958 
Q 1925 4144 1606 4144 
Q 1288 4144 1088 3959 
Q 888 3775 888 3528 
Q 888 3366 970 3203 
Q 1053 3041 1206 2894 
L 1719 2469 
z
M 1375 2016 
Q 1116 1797 991 1539 
Q 866 1281 866 981 
Q 866 578 1086 336 
Q 1306 94 1647 94 
Q 1984 94 2187 284 
Q 2391 475 2391 747 
Q 2391 972 2272 1150 
Q 2050 1481 1375 2016 
z
" transform="scale(0.015625)"/>
       </defs>
       <use xlink:href="#TimesNewRomanPSMT-32"/>
       <use xlink:href="#TimesNewRomanPSMT-38" x="50"/>
      </g>
     </g>
    </g>
    <g id="xtick_5">
     <g id="line2d_9">
      <path d="M 178.3379 287.6445 
L 178.3379 21.5325 
" clip-path="url(#p8adeef3629)" style="fill: none; stroke: #b0b0b0; stroke-width: 0.8; stroke-linecap: square"/>
     </g>
     <g id="line2d_10">
      <g>
       <use xlink:href="#me773aadfbf" x="178.3379" y="287.6445" style="stroke: #000000; stroke-width: 0.8"/>
      </g>
     </g>
     <g id="text_5">
      <!-- 29 -->
      <g transform="translate(173.3379 301.58825) scale(0.1 -0.1)">
       <defs>
        <path id="TimesNewRomanPSMT-39" d="M 338 -88 
L 338 28 
Q 744 34 1094 217 
Q 1444 400 1770 856 
Q 2097 1313 2225 1859 
Q 1734 1544 1338 1544 
Q 891 1544 572 1889 
Q 253 2234 253 2806 
Q 253 3363 572 3797 
Q 956 4325 1575 4325 
Q 2097 4325 2469 3894 
Q 2925 3359 2925 2575 
Q 2925 1869 2578 1258 
Q 2231 647 1613 244 
Q 1109 -88 516 -88 
L 338 -88 
z
M 2275 2091 
Q 2331 2497 2331 2741 
Q 2331 3044 2228 3395 
Q 2125 3747 1936 3934 
Q 1747 4122 1506 4122 
Q 1228 4122 1018 3872 
Q 809 3622 809 3128 
Q 809 2469 1088 2097 
Q 1291 1828 1588 1828 
Q 1731 1828 1928 1897 
Q 2125 1966 2275 2091 
z
" transform="scale(0.015625)"/>
       </defs>
       <use xlink:href="#TimesNewRomanPSMT-32"/>
       <use xlink:href="#TimesNewRomanPSMT-39" x="50"/>
      </g>
     </g>
    </g>
    <g id="xtick_6">
     <g id="line2d_11">
      <path d="M 210.939194 287.6445 
L 210.939194 21.5325 
" clip-path="url(#p8adeef3629)" style="fill: none; stroke: #b0b0b0; stroke-width: 0.8; stroke-linecap: square"/>
     </g>
     <g id="line2d_12">
      <g>
       <use xlink:href="#me773aadfbf" x="210.939194" y="287.6445" style="stroke: #000000; stroke-width: 0.8"/>
      </g>
     </g>
     <g id="text_6">
      <!-- 30 -->
      <g transform="translate(205.939194 301.58825) scale(0.1 -0.1)">
       <defs>
        <path id="TimesNewRomanPSMT-33" d="M 325 3431 
Q 506 3859 782 4092 
Q 1059 4325 1472 4325 
Q 1981 4325 2253 3994 
Q 2459 3747 2459 3466 
Q 2459 3003 1878 2509 
Q 2269 2356 2469 2072 
Q 2669 1788 2669 1403 
Q 2669 853 2319 450 
Q 1863 -75 997 -75 
Q 569 -75 414 31 
Q 259 138 259 259 
Q 259 350 332 419 
Q 406 488 509 488 
Q 588 488 669 463 
Q 722 447 909 348 
Q 1097 250 1169 231 
Q 1284 197 1416 197 
Q 1734 197 1970 444 
Q 2206 691 2206 1028 
Q 2206 1275 2097 1509 
Q 2016 1684 1919 1775 
Q 1784 1900 1550 2001 
Q 1316 2103 1072 2103 
L 972 2103 
L 972 2197 
Q 1219 2228 1467 2375 
Q 1716 2522 1828 2728 
Q 1941 2934 1941 3181 
Q 1941 3503 1739 3701 
Q 1538 3900 1238 3900 
Q 753 3900 428 3381 
L 325 3431 
z
" transform="scale(0.015625)"/>
       </defs>
       <use xlink:href="#TimesNewRomanPSMT-33"/>
       <use xlink:href="#TimesNewRomanPSMT-30" x="50"/>
      </g>
     </g>
    </g>
    <g id="xtick_7">
     <g id="line2d_13">
      <path d="M 243.540487 287.6445 
L 243.540487 21.5325 
" clip-path="url(#p8adeef3629)" style="fill: none; stroke: #b0b0b0; stroke-width: 0.8; stroke-linecap: square"/>
     </g>
     <g id="line2d_14">
      <g>
       <use xlink:href="#me773aadfbf" x="243.540487" y="287.6445" style="stroke: #000000; stroke-width: 0.8"/>
      </g>
     </g>
     <g id="text_7">
      <!-- 01 -->
      <g transform="translate(238.540487 301.58825) scale(0.1 -0.1)">
       <use xlink:href="#TimesNewRomanPSMT-30"/>
       <use xlink:href="#TimesNewRomanPSMT-31" x="50"/>
      </g>
      <!-- 2021-12 -->
      <g transform="translate(226.875643 312.059812) scale(0.1 -0.1)">
       <use xlink:href="#TimesNewRomanPSMT-32"/>
       <use xlink:href="#TimesNewRomanPSMT-30" x="50"/>
       <use xlink:href="#TimesNewRomanPSMT-32" x="100"/>
       <use xlink:href="#TimesNewRomanPSMT-31" x="150"/>
       <use xlink:href="#TimesNewRomanPSMT-2d" x="200"/>
       <use xlink:href="#TimesNewRomanPSMT-31" x="233.300781"/>
       <use xlink:href="#TimesNewRomanPSMT-32" x="283.300781"/>
      </g>
     </g>
    </g>
    <g id="xtick_8">
     <g id="line2d_15">
      <path d="M 276.14178 287.6445 
L 276.14178 21.5325 
" clip-path="url(#p8adeef3629)" style="fill: none; stroke: #b0b0b0; stroke-width: 0.8; stroke-linecap: square"/>
     </g>
     <g id="line2d_16">
      <g>
       <use xlink:href="#me773aadfbf" x="276.14178" y="287.6445" style="stroke: #000000; stroke-width: 0.8"/>
      </g>
     </g>
     <g id="text_8">
      <!-- 02 -->
      <g transform="translate(271.14178 301.58825) scale(0.1 -0.1)">
       <use xlink:href="#TimesNewRomanPSMT-30"/>
       <use xlink:href="#TimesNewRomanPSMT-32" x="50"/>
      </g>
     </g>
    </g>
    <g id="xtick_9">
     <g id="line2d_17">
      <path d="M 308.743073 287.6445 
L 308.743073 21.5325 
" clip-path="url(#p8adeef3629)" style="fill: none; stroke: #b0b0b0; stroke-width: 0.8; stroke-linecap: square"/>
     </g>
     <g id="line2d_18">
      <g>
       <use xlink:href="#me773aadfbf" x="308.743073" y="287.6445" style="stroke: #000000; stroke-width: 0.8"/>
      </g>
     </g>
     <g id="text_9">
      <!-- 03 -->
      <g transform="translate(303.743073 301.58825) scale(0.1 -0.1)">
       <use xlink:href="#TimesNewRomanPSMT-30"/>
       <use xlink:href="#TimesNewRomanPSMT-33" x="50"/>
      </g>
     </g>
    </g>
    <g id="xtick_10">
     <g id="line2d_19">
      <path d="M 341.344367 287.6445 
L 341.344367 21.5325 
" clip-path="url(#p8adeef3629)" style="fill: none; stroke: #b0b0b0; stroke-width: 0.8; stroke-linecap: square"/>
     </g>
     <g id="line2d_20">
      <g>
       <use xlink:href="#me773aadfbf" x="341.344367" y="287.6445" style="stroke: #000000; stroke-width: 0.8"/>
      </g>
     </g>
     <g id="text_10">
      <!-- 04 -->
      <g transform="translate(336.344367 301.58825) scale(0.1 -0.1)">
       <defs>
        <path id="TimesNewRomanPSMT-34" d="M 2978 1563 
L 2978 1119 
L 2409 1119 
L 2409 0 
L 1894 0 
L 1894 1119 
L 100 1119 
L 100 1519 
L 2066 4325 
L 2409 4325 
L 2409 1563 
L 2978 1563 
z
M 1894 1563 
L 1894 3666 
L 406 1563 
L 1894 1563 
z
" transform="scale(0.015625)"/>
       </defs>
       <use xlink:href="#TimesNewRomanPSMT-30"/>
       <use xlink:href="#TimesNewRomanPSMT-34" x="50"/>
      </g>
     </g>
    </g>
    <g id="xtick_11">
     <g id="line2d_21">
      <path d="M 373.94566 287.6445 
L 373.94566 21.5325 
" clip-path="url(#p8adeef3629)" style="fill: none; stroke: #b0b0b0; stroke-width: 0.8; stroke-linecap: square"/>
     </g>
     <g id="line2d_22">
      <g>
       <use xlink:href="#me773aadfbf" x="373.94566" y="287.6445" style="stroke: #000000; stroke-width: 0.8"/>
      </g>
     </g>
     <g id="text_11">
      <!-- 05 -->
      <g transform="translate(368.94566 301.58825) scale(0.1 -0.1)">
       <use xlink:href="#TimesNewRomanPSMT-30"/>
       <use xlink:href="#TimesNewRomanPSMT-35" x="50"/>
      </g>
     </g>
    </g>
   </g>
   <g id="matplotlib.axis_2">
    <g id="ytick_1">
     <g id="line2d_23">
      <path d="M 31.7 287.6445 
L 388.82 287.6445 
" clip-path="url(#p8adeef3629)" style="fill: none; stroke: #b0b0b0; stroke-width: 0.8; stroke-linecap: square"/>
     </g>
     <g id="line2d_24">
      <defs>
       <path id="m378c56f10c" d="M 0 0 
L -3.5 0 
" style="stroke: #000000; stroke-width: 0.8"/>
      </defs>
      <g>
       <use xlink:href="#m378c56f10c" x="31.7" y="287.6445" style="stroke: #000000; stroke-width: 0.8"/>
      </g>
     </g>
     <g id="text_12">
      <!-- 0.00 -->
      <g transform="translate(7.2 291.116375) scale(0.1 -0.1)">
       <defs>
        <path id="TimesNewRomanPSMT-2e" d="M 800 606 
Q 947 606 1047 504 
Q 1147 403 1147 259 
Q 1147 116 1045 14 
Q 944 -88 800 -88 
Q 656 -88 554 14 
Q 453 116 453 259 
Q 453 406 554 506 
Q 656 606 800 606 
z
" transform="scale(0.015625)"/>
       </defs>
       <use xlink:href="#TimesNewRomanPSMT-30"/>
       <use xlink:href="#TimesNewRomanPSMT-2e" x="50"/>
       <use xlink:href="#TimesNewRomanPSMT-30" x="75"/>
       <use xlink:href="#TimesNewRomanPSMT-30" x="125"/>
      </g>
     </g>
    </g>
    <g id="ytick_2">
     <g id="line2d_25">
      <path d="M 31.7 255.853586 
L 388.82 255.853586 
" clip-path="url(#p8adeef3629)" style="fill: none; stroke: #b0b0b0; stroke-width: 0.8; stroke-linecap: square"/>
     </g>
     <g id="line2d_26">
      <g>
       <use xlink:href="#m378c56f10c" x="31.7" y="255.853586" style="stroke: #000000; stroke-width: 0.8"/>
      </g>
     </g>
     <g id="text_13">
      <!-- 0.05 -->
      <g transform="translate(7.2 259.325461) scale(0.1 -0.1)">
       <use xlink:href="#TimesNewRomanPSMT-30"/>
       <use xlink:href="#TimesNewRomanPSMT-2e" x="50"/>
       <use xlink:href="#TimesNewRomanPSMT-30" x="75"/>
       <use xlink:href="#TimesNewRomanPSMT-35" x="125"/>
      </g>
     </g>
    </g>
    <g id="ytick_3">
     <g id="line2d_27">
      <path d="M 31.7 224.062672 
L 388.82 224.062672 
" clip-path="url(#p8adeef3629)" style="fill: none; stroke: #b0b0b0; stroke-width: 0.8; stroke-linecap: square"/>
     </g>
     <g id="line2d_28">
      <g>
       <use xlink:href="#m378c56f10c" x="31.7" y="224.062672" style="stroke: #000000; stroke-width: 0.8"/>
      </g>
     </g>
     <g id="text_14">
      <!-- 0.10 -->
      <g transform="translate(7.2 227.534547) scale(0.1 -0.1)">
       <use xlink:href="#TimesNewRomanPSMT-30"/>
       <use xlink:href="#TimesNewRomanPSMT-2e" x="50"/>
       <use xlink:href="#TimesNewRomanPSMT-31" x="75"/>
       <use xlink:href="#TimesNewRomanPSMT-30" x="125"/>
      </g>
     </g>
    </g>
    <g id="ytick_4">
     <g id="line2d_29">
      <path d="M 31.7 192.271758 
L 388.82 192.271758 
" clip-path="url(#p8adeef3629)" style="fill: none; stroke: #b0b0b0; stroke-width: 0.8; stroke-linecap: square"/>
     </g>
     <g id="line2d_30">
      <g>
       <use xlink:href="#m378c56f10c" x="31.7" y="192.271758" style="stroke: #000000; stroke-width: 0.8"/>
      </g>
     </g>
     <g id="text_15">
      <!-- 0.15 -->
      <g transform="translate(7.2 195.743633) scale(0.1 -0.1)">
       <use xlink:href="#TimesNewRomanPSMT-30"/>
       <use xlink:href="#TimesNewRomanPSMT-2e" x="50"/>
       <use xlink:href="#TimesNewRomanPSMT-31" x="75"/>
       <use xlink:href="#TimesNewRomanPSMT-35" x="125"/>
      </g>
     </g>
    </g>
    <g id="ytick_5">
     <g id="line2d_31">
      <path d="M 31.7 160.480844 
L 388.82 160.480844 
" clip-path="url(#p8adeef3629)" style="fill: none; stroke: #b0b0b0; stroke-width: 0.8; stroke-linecap: square"/>
     </g>
     <g id="line2d_32">
      <g>
       <use xlink:href="#m378c56f10c" x="31.7" y="160.480844" style="stroke: #000000; stroke-width: 0.8"/>
      </g>
     </g>
     <g id="text_16">
      <!-- 0.20 -->
      <g transform="translate(7.2 163.952719) scale(0.1 -0.1)">
       <use xlink:href="#TimesNewRomanPSMT-30"/>
       <use xlink:href="#TimesNewRomanPSMT-2e" x="50"/>
       <use xlink:href="#TimesNewRomanPSMT-32" x="75"/>
       <use xlink:href="#TimesNewRomanPSMT-30" x="125"/>
      </g>
     </g>
    </g>
    <g id="ytick_6">
     <g id="line2d_33">
      <path d="M 31.7 128.68993 
L 388.82 128.68993 
" clip-path="url(#p8adeef3629)" style="fill: none; stroke: #b0b0b0; stroke-width: 0.8; stroke-linecap: square"/>
     </g>
     <g id="line2d_34">
      <g>
       <use xlink:href="#m378c56f10c" x="31.7" y="128.68993" style="stroke: #000000; stroke-width: 0.8"/>
      </g>
     </g>
     <g id="text_17">
      <!-- 0.25 -->
      <g transform="translate(7.2 132.161805) scale(0.1 -0.1)">
       <use xlink:href="#TimesNewRomanPSMT-30"/>
       <use xlink:href="#TimesNewRomanPSMT-2e" x="50"/>
       <use xlink:href="#TimesNewRomanPSMT-32" x="75"/>
       <use xlink:href="#TimesNewRomanPSMT-35" x="125"/>
      </g>
     </g>
    </g>
    <g id="ytick_7">
     <g id="line2d_35">
      <path d="M 31.7 96.899016 
L 388.82 96.899016 
" clip-path="url(#p8adeef3629)" style="fill: none; stroke: #b0b0b0; stroke-width: 0.8; stroke-linecap: square"/>
     </g>
     <g id="line2d_36">
      <g>
       <use xlink:href="#m378c56f10c" x="31.7" y="96.899016" style="stroke: #000000; stroke-width: 0.8"/>
      </g>
     </g>
     <g id="text_18">
      <!-- 0.30 -->
      <g transform="translate(7.2 100.370891) scale(0.1 -0.1)">
       <use xlink:href="#TimesNewRomanPSMT-30"/>
       <use xlink:href="#TimesNewRomanPSMT-2e" x="50"/>
       <use xlink:href="#TimesNewRomanPSMT-33" x="75"/>
       <use xlink:href="#TimesNewRomanPSMT-30" x="125"/>
      </g>
     </g>
    </g>
    <g id="ytick_8">
     <g id="line2d_37">
      <path d="M 31.7 65.108102 
L 388.82 65.108102 
" clip-path="url(#p8adeef3629)" style="fill: none; stroke: #b0b0b0; stroke-width: 0.8; stroke-linecap: square"/>
     </g>
     <g id="line2d_38">
      <g>
       <use xlink:href="#m378c56f10c" x="31.7" y="65.108102" style="stroke: #000000; stroke-width: 0.8"/>
      </g>
     </g>
     <g id="text_19">
      <!-- 0.35 -->
      <g transform="translate(7.2 68.579977) scale(0.1 -0.1)">
       <use xlink:href="#TimesNewRomanPSMT-30"/>
       <use xlink:href="#TimesNewRomanPSMT-2e" x="50"/>
       <use xlink:href="#TimesNewRomanPSMT-33" x="75"/>
       <use xlink:href="#TimesNewRomanPSMT-35" x="125"/>
      </g>
     </g>
    </g>
    <g id="ytick_9">
     <g id="line2d_39">
      <path d="M 31.7 33.317188 
L 388.82 33.317188 
" clip-path="url(#p8adeef3629)" style="fill: none; stroke: #b0b0b0; stroke-width: 0.8; stroke-linecap: square"/>
     </g>
     <g id="line2d_40">
      <g>
       <use xlink:href="#m378c56f10c" x="31.7" y="33.317188" style="stroke: #000000; stroke-width: 0.8"/>
      </g>
     </g>
     <g id="text_20">
      <!-- 0.40 -->
      <g transform="translate(7.2 36.789063) scale(0.1 -0.1)">
       <use xlink:href="#TimesNewRomanPSMT-30"/>
       <use xlink:href="#TimesNewRomanPSMT-2e" x="50"/>
       <use xlink:href="#TimesNewRomanPSMT-34" x="75"/>
       <use xlink:href="#TimesNewRomanPSMT-30" x="125"/>
      </g>
     </g>
    </g>
   </g>
   <g id="line2d_41">
    <path d="M 47.932727 202.553178 
L 49.291114 205.236311 
L 50.649502 212.177122 
L 52.007889 223.820434 
L 53.366276 238.715825 
L 56.083051 273.417458 
L 57.441438 286.365931 
L 58.799825 273.514529 
L 60.158212 265.121993 
L 61.516599 260.288868 
L 62.874987 258.83443 
L 64.233374 260.934275 
L 65.591761 265.358552 
L 66.950148 272.111413 
L 68.308536 281.247388 
L 69.666923 284.317394 
L 73.742084 254.83312 
L 75.100472 247.579063 
L 76.458859 241.30557 
L 77.817246 237.123987 
L 79.175633 235.238727 
L 80.534021 235.154476 
L 81.892408 238.937496 
L 83.250795 244.665947 
L 84.609182 252.045338 
L 85.967569 261.092031 
L 87.325957 271.290706 
L 88.684344 280.350216 
L 90.042731 287.114659 
L 91.401118 281.929513 
L 92.759506 278.422631 
L 94.117893 276.964421 
L 95.47628 277.241238 
L 96.834667 278.652909 
L 99.551442 283.05259 
L 100.909829 285.673035 
L 102.268216 286.457479 
L 103.626603 284.668909 
L 104.98499 283.433145 
L 106.343378 282.821992 
L 107.701765 282.756653 
L 109.060152 284.041546 
L 110.418539 285.008253 
L 111.776927 285.191629 
L 113.135314 283.506098 
L 114.493701 281.408003 
L 115.852088 279.669735 
L 117.210475 279.064824 
L 118.568863 279.544138 
L 119.92725 281.179701 
L 122.644024 287.064253 
L 125.360799 280.266543 
L 126.719186 277.237619 
L 128.077573 275.822086 
L 129.43596 275.784325 
L 130.794348 276.589438 
L 132.152735 279.713349 
L 133.511122 283.64174 
L 134.869509 286.030047 
L 137.586284 271.44503 
L 141.661445 247.401958 
L 143.019833 240.807922 
L 144.37822 235.862624 
L 145.736607 233.190036 
L 147.094994 233.204361 
L 148.453382 236.546016 
L 149.811769 243.2078 
L 151.170156 252.892931 
L 155.245318 287.256304 
L 156.603705 278.066873 
L 157.962092 271.697064 
L 159.320479 268.359594 
L 160.678866 267.815702 
L 162.037254 269.72894 
L 163.395641 273.568107 
L 164.754028 278.54369 
L 166.112415 284.147544 
L 167.470803 285.901675 
L 168.82919 281.951427 
L 170.187577 279.741427 
L 171.545964 279.89929 
L 172.904351 282.484927 
L 174.262739 287.3371 
L 175.621126 281.378859 
L 178.3379 266.688812 
L 179.696288 260.662336 
L 181.054675 257.113692 
L 182.413062 256.81896 
L 183.771449 260.410589 
L 185.129836 267.548043 
L 187.846611 287.454449 
L 189.204998 277.460649 
L 190.563385 269.065971 
L 191.921773 263.276322 
L 193.28016 260.441621 
L 194.638547 260.868995 
L 195.996934 264.493314 
L 197.355321 271.037848 
L 198.713709 280.257422 
L 200.072096 283.230544 
L 201.430483 270.06704 
L 205.505645 227.959655 
L 206.864032 215.866005 
L 208.222419 206.038676 
L 209.580806 199.219219 
L 210.939194 196.353394 
L 212.297581 197.78087 
L 213.655968 204.59462 
L 215.014355 215.960132 
L 216.372742 231.958076 
L 220.447904 287.028533 
L 221.806291 273.646825 
L 223.164679 263.223072 
L 224.523066 257.337102 
L 225.881453 255.542936 
L 227.23984 257.14962 
L 228.598227 262.319744 
L 229.956615 270.62882 
L 231.315002 280.379828 
L 232.673389 282.894246 
L 238.106938 235.67502 
L 239.465325 227.029705 
L 240.823712 220.609341 
L 242.1821 217.131806 
L 243.540487 216.86687 
L 244.898874 219.507358 
L 246.257261 226.390522 
L 247.615649 236.165165 
L 253.049197 286.63434 
L 254.407585 279.640615 
L 255.765972 273.295005 
L 257.124359 270.222917 
L 258.482746 270.190708 
L 259.841134 271.850399 
L 261.199521 274.659431 
L 263.916295 284.40794 
L 265.274682 285.603207 
L 267.991457 275.55483 
L 269.349844 270.981876 
L 270.708231 268.160098 
L 272.066618 266.652754 
L 273.425006 266.337953 
L 274.783393 267.214605 
L 276.14178 268.612535 
L 278.858555 275.008334 
L 281.575329 282.045916 
L 282.933716 284.994709 
L 284.292103 286.677235 
L 285.650491 287.02959 
L 288.367265 285.405548 
L 291.08404 283.597543 
L 292.442427 282.852984 
L 293.800814 282.9406 
L 295.159201 283.754625 
L 296.517588 285.727369 
L 297.875976 286.305847 
L 299.234363 282.530382 
L 300.59275 277.697966 
L 304.667912 260.220653 
L 306.026299 254.042312 
L 307.384686 249.668096 
L 308.743073 246.309465 
L 310.101461 244.887206 
L 311.459848 246.28199 
L 312.818235 250.419598 
L 314.176622 257.463321 
L 315.53501 266.568108 
L 318.251784 286.78502 
L 320.968558 273.017386 
L 322.326946 268.844737 
L 323.685333 267.366489 
L 325.04372 268.258914 
L 326.402107 271.440873 
L 327.760494 276.545074 
L 329.118882 283.150525 
L 330.477269 284.636469 
L 333.194043 269.63378 
L 334.552431 263.621081 
L 335.910818 259.606187 
L 337.269205 257.877981 
L 338.627592 258.798931 
L 339.985979 262.333187 
L 341.344367 267.982478 
L 344.061141 282.412621 
L 345.419528 285.5751 
L 346.777916 281.896866 
L 348.136303 280.845219 
L 349.49469 282.765092 
L 350.853077 287.020705 
L 352.211464 282.513695 
L 353.569852 276.817489 
L 354.928239 272.080288 
L 356.286626 269.149124 
L 357.645013 268.433105 
L 359.003401 270.294359 
L 360.361788 274.933996 
L 361.720175 282.128997 
L 363.078562 283.424729 
L 364.436949 271.87741 
L 369.870498 219.860583 
L 371.228886 209.22277 
L 372.587273 201.207803 
L 372.587273 201.207803 
" clip-path="url(#p8adeef3629)" style="fill: none; stroke: #000000; stroke-width: 1.5; stroke-linecap: square"/>
   </g>
   <g id="line2d_42">
    <path d="M 47.932727 95.220194 
L 49.291114 103.710841 
L 50.649502 121.278102 
L 52.007889 148.592151 
L 53.366276 182.229407 
L 56.083051 257.616733 
L 57.441438 285.089737 
L 58.799825 258.37298 
L 60.158212 241.363931 
L 61.516599 231.871091 
L 62.874987 229.333495 
L 64.233374 233.958971 
L 65.591761 243.138386 
L 66.950148 256.811669 
L 68.308536 275.024244 
L 69.666923 281.13088 
L 73.742084 224.024408 
L 75.100472 210.22895 
L 76.458859 198.381077 
L 77.817246 190.58711 
L 79.175633 187.194913 
L 80.534021 187.225352 
L 81.892408 194.605721 
L 83.250795 205.643232 
L 84.609182 219.774028 
L 85.967569 237.042224 
L 87.325957 256.479137 
L 88.684344 273.740475 
L 90.042731 286.659139 
L 91.401118 276.730235 
L 92.759506 270.012718 
L 94.117893 267.197726 
L 95.47628 267.678922 
L 96.834667 270.34846 
L 99.551442 278.752034 
L 100.909829 283.829573 
L 102.268216 285.352586 
L 103.626603 281.80723 
L 104.98499 279.354846 
L 106.343378 278.083349 
L 107.701765 277.925939 
L 109.060152 280.407701 
L 110.418539 282.351023 
L 111.776927 282.647023 
L 113.135314 279.149395 
L 114.493701 274.73133 
L 115.852088 270.985939 
L 117.210475 269.554434 
L 118.568863 270.39436 
L 119.92725 273.746412 
L 122.644024 286.409476 
L 125.360799 270.995564 
L 126.719186 263.826388 
L 128.077573 260.189318 
L 129.43596 259.676905 
L 130.794348 261.170177 
L 132.152735 268.319085 
L 133.511122 277.731978 
L 134.869509 283.682122 
L 136.227897 265.250488 
L 137.586284 245.032378 
L 140.303058 198.06525 
L 143.019833 152.299659 
L 144.37822 133.966008 
L 145.736607 121.432022 
L 147.094994 116.48807 
L 148.453382 121.912006 
L 149.811769 138.715579 
L 151.170156 167.088058 
L 152.528543 204.626061 
L 155.245318 286.138064 
L 156.603705 248.82892 
L 157.962092 220.174439 
L 159.320479 202.364273 
L 160.678866 195.919151 
L 162.037254 200.942123 
L 163.395641 216.435377 
L 164.754028 239.622771 
L 166.112415 268.473063 
L 167.470803 277.771864 
L 168.82919 254.579177 
L 170.187577 241.032424 
L 171.545964 241.756287 
L 172.904351 257.280278 
L 174.262739 285.893807 
L 175.621126 252.352347 
L 176.979513 213.291271 
L 178.3379 177.935147 
L 179.696288 152.287799 
L 181.054675 141.158987 
L 182.413062 146.279103 
L 183.771449 168.235845 
L 185.129836 203.325041 
L 187.846611 286.923918 
L 189.204998 249.871932 
L 190.563385 221.282447 
L 191.921773 203.671233 
L 193.28016 197.050403 
L 194.638547 201.321922 
L 195.996934 215.272899 
L 197.355321 237.229767 
L 198.713709 265.83568 
L 200.072096 274.959227 
L 205.505645 131.256935 
L 206.864032 103.374368 
L 208.222419 82.172838 
L 209.580806 69.073018 
L 210.939194 65.915442 
L 212.297581 72.989369 
L 213.655968 92.389442 
L 215.014355 121.627904 
L 216.372742 160.5132 
L 220.447904 286.32119 
L 221.806291 257.257448 
L 223.164679 235.209841 
L 224.523066 223.24698 
L 225.881453 220.104508 
L 227.23984 224.082861 
L 228.598227 235.32459 
L 229.956615 252.782038 
L 231.315002 272.889501 
L 232.673389 278.073335 
L 236.748551 205.702699 
L 238.106938 185.298543 
L 239.465325 168.867175 
L 240.823712 156.890931 
L 242.1821 150.688166 
L 243.540487 150.698991 
L 244.898874 156.257973 
L 246.257261 169.888195 
L 247.615649 188.940744 
L 253.049197 286.159204 
L 254.407585 272.419462 
L 255.765972 260.362416 
L 257.124359 254.504485 
L 258.482746 254.431835 
L 259.841134 257.567786 
L 261.199521 262.889577 
L 262.557908 271.79363 
L 263.916295 281.48041 
L 265.274682 283.733783 
L 267.991457 264.336333 
L 269.349844 255.410164 
L 270.708231 249.809206 
L 272.066618 246.709393 
L 273.425006 245.903903 
L 274.783393 247.426126 
L 276.14178 249.974223 
L 278.858555 262.320224 
L 281.575329 276.281358 
L 282.933716 282.219133 
L 284.292103 285.651071 
L 285.650491 286.398472 
L 287.008878 284.768186 
L 288.367265 282.910109 
L 289.725652 280.786841 
L 292.442427 277.146509 
L 293.800814 277.209444 
L 295.159201 278.892542 
L 296.517588 283.303374 
L 297.875976 284.676998 
L 299.234363 275.636128 
L 300.59275 263.913415 
L 303.309525 234.664713 
L 306.026299 201.507542 
L 307.384686 188.292529 
L 308.743073 177.166311 
L 310.101461 170.761169 
L 311.459848 171.862064 
L 312.818235 180.811353 
L 314.176622 198.720311 
L 315.53501 223.803617 
L 318.251784 284.883459 
L 320.968558 237.38248 
L 322.326946 220.692547 
L 323.685333 212.667583 
L 325.04372 213.095023 
L 326.402107 222.723278 
L 327.760494 241.238564 
L 329.118882 268.011587 
L 330.477269 273.900572 
L 334.552431 162.269123 
L 335.910818 135.392961 
L 337.269205 120.327979 
L 338.627592 121.008946 
L 339.985979 138.733282 
L 341.344367 171.07811 
L 344.061141 257.182317 
L 345.419528 275.883615 
L 346.777916 256.013097 
L 348.136303 251.621396 
L 349.49469 262.857288 
L 350.853077 284.612698 
L 352.211464 263.809019 
L 353.569852 239.566399 
L 354.928239 221.530076 
L 356.286626 212.396809 
L 357.645013 212.670547 
L 359.003401 222.585452 
L 360.361788 241.768477 
L 361.720175 268.449672 
L 363.078562 273.458458 
L 365.795337 196.974997 
L 368.512111 121.681635 
L 369.870498 91.282563 
L 371.228886 66.158438 
L 372.587273 49.336936 
L 372.587273 49.336936 
" clip-path="url(#p8adeef3629)" style="fill: none; stroke: #008000; stroke-width: 1.5; stroke-linecap: square"/>
   </g>
   <g id="line2d_43">
    <path d="M 47.932727 254.060271 
L 49.291114 255.541811 
L 50.649502 258.608186 
L 52.007889 263.375242 
L 53.366276 269.245545 
L 56.083051 282.40338 
L 57.441438 287.177907 
L 58.799825 282.533666 
L 60.158212 279.566036 
L 61.516599 277.909441 
L 62.874987 277.467309 
L 64.233374 278.274077 
L 65.591761 279.876454 
L 66.950148 282.262624 
L 68.308536 285.440321 
L 69.666923 286.503977 
L 73.742084 276.540572 
L 75.100472 274.132681 
L 76.458859 272.064973 
L 77.817246 270.704602 
L 79.175633 270.112738 
L 80.534021 270.118062 
L 81.892408 271.406051 
L 83.250795 273.332316 
L 84.609182 275.79885 
L 85.967569 278.812634 
L 87.325957 282.205015 
L 88.684344 285.21746 
L 90.042731 287.468076 
L 91.401118 285.739434 
L 92.759506 284.565847 
L 94.117893 284.072357 
L 95.47628 284.157087 
L 96.834667 284.622334 
L 99.551442 286.091098 
L 100.909829 286.975009 
L 102.268216 287.239685 
L 103.626603 286.624983 
L 104.98499 286.194228 
L 106.343378 285.974585 
L 107.701765 285.941855 
L 110.418539 286.713918 
L 111.776927 286.772272 
L 113.135314 286.161344 
L 115.852088 284.736942 
L 117.210475 284.486928 
L 118.568863 284.633588 
L 119.92725 285.216169 
L 122.644024 287.42152 
L 126.719186 283.48601 
L 128.077573 282.851712 
L 129.43596 282.762812 
L 130.794348 283.020877 
L 132.152735 284.271143 
L 133.511122 285.911609 
L 134.869509 286.932429 
L 136.227897 283.735966 
L 137.586284 280.206437 
L 143.019833 264.022345 
L 144.37822 260.822541 
L 145.736607 258.63496 
L 147.094994 257.772085 
L 148.453382 258.718757 
L 149.811769 261.651504 
L 151.170156 266.603466 
L 152.528543 273.154988 
L 155.245318 287.381068 
L 156.603705 280.869899 
L 157.962092 275.86875 
L 159.320479 272.760193 
L 160.678866 271.63542 
L 162.037254 272.512003 
L 163.395641 275.216113 
L 164.754028 279.263121 
L 166.112415 284.29799 
L 167.470803 285.921281 
L 168.82919 281.873422 
L 170.187577 279.509157 
L 171.545964 279.635424 
L 172.904351 282.344674 
L 174.262739 287.334165 
L 175.621126 281.484858 
L 176.979513 274.667352 
L 178.3379 268.496625 
L 179.696288 264.020283 
L 181.054675 262.078022 
L 182.413062 262.97162 
L 183.771449 266.803787 
L 185.129836 272.927975 
L 187.846611 287.51652 
L 189.204998 281.051895 
L 190.563385 276.062143 
L 191.921773 272.988382 
L 193.28016 271.832826 
L 194.638547 272.578355 
L 195.996934 275.013281 
L 197.355321 278.84544 
L 198.713709 283.837779 
L 200.072096 285.429164 
L 205.505645 260.349584 
L 206.864032 255.482748 
L 208.222419 251.782571 
L 209.580806 249.496389 
L 210.939194 248.94502 
L 212.297581 250.180237 
L 213.655968 253.565466 
L 215.014355 258.669098 
L 216.372742 265.455522 
L 220.447904 287.408391 
L 221.806291 282.340959 
L 223.164679 278.492844 
L 224.523066 276.404912 
L 225.881453 275.856327 
L 227.23984 276.550126 
L 228.598227 278.511655 
L 229.956615 281.558707 
L 231.315002 285.066361 
L 232.673389 285.970948 
L 236.748551 273.342087 
L 238.106938 269.780151 
L 239.465325 266.913473 
L 240.823712 264.823741 
L 242.1821 263.741158 
L 243.540487 263.742906 
L 244.898874 264.713272 
L 246.257261 267.092179 
L 247.615649 270.417436 
L 253.049197 287.30874 
L 255.765972 282.880371 
L 257.124359 281.860468 
L 258.482746 281.847671 
L 259.841134 282.395037 
L 261.199521 283.323884 
L 263.916295 286.563968 
L 265.274682 286.961482 
L 267.991457 283.576424 
L 269.349844 282.018544 
L 270.708231 281.040744 
L 272.066618 280.499886 
L 273.425006 280.359195 
L 274.783393 280.623699 
L 276.14178 281.068299 
L 278.858555 283.224526 
L 281.575329 285.658461 
L 282.933716 286.697208 
L 284.292103 287.295845 
L 285.650491 287.420906 
L 292.442427 285.80921 
L 293.800814 285.820658 
L 295.159201 286.116768 
L 296.517588 286.881293 
L 297.875976 287.103935 
L 299.234363 285.548143 
L 300.59275 283.502402 
L 303.309525 278.396602 
L 306.026299 272.610146 
L 307.384686 270.303989 
L 308.743073 268.362217 
L 310.101461 267.244535 
L 311.459848 267.43667 
L 312.818235 268.998587 
L 314.176622 272.124276 
L 315.53501 276.502166 
L 318.251784 287.162105 
L 320.968558 278.871978 
L 322.326946 275.959186 
L 323.685333 274.558531 
L 325.04372 274.633168 
L 326.402107 276.313615 
L 327.760494 279.545138 
L 329.118882 284.21789 
L 330.477269 285.245595 
L 334.552431 265.762401 
L 335.910818 261.071464 
L 337.269205 258.442292 
L 338.627592 258.561025 
L 339.985979 261.654525 
L 341.344367 267.299742 
L 344.061141 282.327749 
L 345.419528 285.591834 
L 346.777916 282.123667 
L 348.136303 281.357282 
L 349.49469 283.318081 
L 350.853077 287.115343 
L 352.211464 283.484408 
L 353.569852 279.253265 
L 354.928239 276.105361 
L 356.286626 274.511295 
L 357.645013 274.559086 
L 359.003401 276.289559 
L 360.361788 279.637599 
L 361.720175 284.294221 
L 363.078562 285.168539 
L 365.795337 271.819702 
L 368.512111 258.678512 
L 369.870498 253.371684 
L 371.228886 248.987623 
L 372.587273 246.052273 
L 372.587273 246.052273 
" clip-path="url(#p8adeef3629)" style="fill: none; stroke: #0000ff; stroke-width: 1.5; stroke-linecap: square"/>
   </g>
   <g id="patch_3">
    <path d="M 31.7 287.6445 
L 31.7 21.5325 
" style="fill: none; stroke: #000000; stroke-width: 0.8; stroke-linejoin: miter; stroke-linecap: square"/>
   </g>
   <g id="patch_4">
    <path d="M 388.82 287.6445 
L 388.82 21.5325 
" style="fill: none; stroke: #000000; stroke-width: 0.8; stroke-linejoin: miter; stroke-linecap: square"/>
   </g>
   <g id="patch_5">
    <path d="M 31.7 287.6445 
L 388.82 287.6445 
" style="fill: none; stroke: #000000; stroke-width: 0.8; stroke-linejoin: miter; stroke-linecap: square"/>
   </g>
   <g id="patch_6">
    <path d="M 31.7 21.5325 
L 388.82 21.5325 
" style="fill: none; stroke: #000000; stroke-width: 0.8; stroke-linejoin: miter; stroke-linecap: square"/>
   </g>
   <g id="text_21">
    <!-- SSCWeb/geotail/GSM | CDAWeb/GE_OR_DEF/GSM_POS -->
    <g transform="translate(64.822813 15.5325) scale(0.12 -0.12)">
     <defs>
      <path id="TimesNewRomanPSMT-53" d="M 2934 4334 
L 2934 2869 
L 2819 2869 
Q 2763 3291 2617 3541 
Q 2472 3791 2203 3937 
Q 1934 4084 1647 4084 
Q 1322 4084 1109 3886 
Q 897 3688 897 3434 
Q 897 3241 1031 3081 
Q 1225 2847 1953 2456 
Q 2547 2138 2764 1967 
Q 2981 1797 3098 1565 
Q 3216 1334 3216 1081 
Q 3216 600 2842 251 
Q 2469 -97 1881 -97 
Q 1697 -97 1534 -69 
Q 1438 -53 1133 45 
Q 828 144 747 144 
Q 669 144 623 97 
Q 578 50 556 -97 
L 441 -97 
L 441 1356 
L 556 1356 
Q 638 900 775 673 
Q 913 447 1195 297 
Q 1478 147 1816 147 
Q 2206 147 2432 353 
Q 2659 559 2659 841 
Q 2659 997 2573 1156 
Q 2488 1316 2306 1453 
Q 2184 1547 1640 1851 
Q 1097 2156 867 2337 
Q 638 2519 519 2737 
Q 400 2956 400 3219 
Q 400 3675 750 4004 
Q 1100 4334 1641 4334 
Q 1978 4334 2356 4169 
Q 2531 4091 2603 4091 
Q 2684 4091 2736 4139 
Q 2788 4188 2819 4334 
L 2934 4334 
z
" transform="scale(0.015625)"/>
      <path id="TimesNewRomanPSMT-43" d="M 3853 4334 
L 3950 2894 
L 3853 2894 
Q 3659 3541 3300 3825 
Q 2941 4109 2438 4109 
Q 2016 4109 1675 3895 
Q 1334 3681 1139 3212 
Q 944 2744 944 2047 
Q 944 1472 1128 1050 
Q 1313 628 1683 403 
Q 2053 178 2528 178 
Q 2941 178 3256 354 
Q 3572 531 3950 1056 
L 4047 994 
Q 3728 428 3303 165 
Q 2878 -97 2294 -97 
Q 1241 -97 663 684 
Q 231 1266 231 2053 
Q 231 2688 515 3219 
Q 800 3750 1298 4042 
Q 1797 4334 2388 4334 
Q 2847 4334 3294 4109 
Q 3425 4041 3481 4041 
Q 3566 4041 3628 4100 
Q 3709 4184 3744 4334 
L 3853 4334 
z
" transform="scale(0.015625)"/>
      <path id="TimesNewRomanPSMT-57" d="M 5991 4238 
L 5991 4122 
Q 5825 4122 5722 4062 
Q 5619 4003 5525 3841 
Q 5463 3731 5328 3319 
L 4147 -97 
L 4022 -97 
L 3056 2613 
L 2097 -97 
L 1984 -97 
L 725 3422 
Q 584 3816 547 3888 
Q 484 4006 376 4064 
Q 269 4122 84 4122 
L 84 4238 
L 1653 4238 
L 1653 4122 
L 1578 4122 
Q 1413 4122 1325 4047 
Q 1238 3972 1238 3866 
Q 1238 3756 1375 3363 
L 2209 984 
L 2913 3006 
L 2788 3363 
L 2688 3647 
Q 2622 3803 2541 3922 
Q 2500 3981 2441 4022 
Q 2363 4078 2284 4103 
Q 2225 4122 2097 4122 
L 2097 4238 
L 3747 4238 
L 3747 4122 
L 3634 4122 
Q 3459 4122 3378 4047 
Q 3297 3972 3297 3844 
Q 3297 3684 3438 3288 
L 4250 984 
L 5056 3319 
Q 5194 3706 5194 3856 
Q 5194 3928 5148 3990 
Q 5103 4053 5034 4078 
Q 4916 4122 4725 4122 
L 4725 4238 
L 5991 4238 
z
" transform="scale(0.015625)"/>
      <path id="TimesNewRomanPSMT-65" d="M 681 1784 
Q 678 1147 991 784 
Q 1303 422 1725 422 
Q 2006 422 2214 576 
Q 2422 731 2563 1106 
L 2659 1044 
Q 2594 616 2278 264 
Q 1963 -88 1488 -88 
Q 972 -88 605 314 
Q 238 716 238 1394 
Q 238 2128 614 2539 
Q 991 2950 1559 2950 
Q 2041 2950 2350 2633 
Q 2659 2316 2659 1784 
L 681 1784 
z
M 681 1966 
L 2006 1966 
Q 1991 2241 1941 2353 
Q 1863 2528 1708 2628 
Q 1553 2728 1384 2728 
Q 1125 2728 920 2526 
Q 716 2325 681 1966 
z
" transform="scale(0.015625)"/>
      <path id="TimesNewRomanPSMT-62" d="M 984 2369 
Q 1400 2947 1881 2947 
Q 2322 2947 2650 2570 
Q 2978 2194 2978 1541 
Q 2978 778 2472 313 
Q 2038 -88 1503 -88 
Q 1253 -88 995 3 
Q 738 94 469 275 
L 469 3241 
Q 469 3728 445 3840 
Q 422 3953 372 3993 
Q 322 4034 247 4034 
Q 159 4034 28 3984 
L -16 4094 
L 844 4444 
L 984 4444 
L 984 2369 
z
M 984 2169 
L 984 456 
Q 1144 300 1314 220 
Q 1484 141 1663 141 
Q 1947 141 2192 453 
Q 2438 766 2438 1363 
Q 2438 1913 2192 2208 
Q 1947 2503 1634 2503 
Q 1469 2503 1303 2419 
Q 1178 2356 984 2169 
z
" transform="scale(0.015625)"/>
      <path id="TimesNewRomanPSMT-2f" d="M 1794 4444 
L 259 -88 
L 9 -88 
L 1544 4444 
L 1794 4444 
z
" transform="scale(0.015625)"/>
      <path id="TimesNewRomanPSMT-67" d="M 966 1044 
Q 703 1172 562 1401 
Q 422 1631 422 1909 
Q 422 2334 742 2640 
Q 1063 2947 1563 2947 
Q 1972 2947 2272 2747 
L 2878 2747 
Q 3013 2747 3034 2739 
Q 3056 2731 3066 2713 
Q 3084 2684 3084 2613 
Q 3084 2531 3069 2500 
Q 3059 2484 3036 2475 
Q 3013 2466 2878 2466 
L 2506 2466 
Q 2681 2241 2681 1891 
Q 2681 1491 2375 1206 
Q 2069 922 1553 922 
Q 1341 922 1119 984 
Q 981 866 932 777 
Q 884 688 884 625 
Q 884 572 936 522 
Q 988 472 1138 450 
Q 1225 438 1575 428 
Q 2219 413 2409 384 
Q 2700 344 2873 169 
Q 3047 -6 3047 -263 
Q 3047 -616 2716 -925 
Q 2228 -1381 1444 -1381 
Q 841 -1381 425 -1109 
Q 191 -953 191 -784 
Q 191 -709 225 -634 
Q 278 -519 444 -313 
Q 466 -284 763 25 
Q 600 122 533 198 
Q 466 275 466 372 
Q 466 481 555 628 
Q 644 775 966 1044 
z
M 1509 2797 
Q 1278 2797 1122 2612 
Q 966 2428 966 2047 
Q 966 1553 1178 1281 
Q 1341 1075 1591 1075 
Q 1828 1075 1981 1253 
Q 2134 1431 2134 1813 
Q 2134 2309 1919 2591 
Q 1759 2797 1509 2797 
z
M 934 0 
Q 788 -159 713 -296 
Q 638 -434 638 -550 
Q 638 -700 819 -813 
Q 1131 -1006 1722 -1006 
Q 2284 -1006 2551 -807 
Q 2819 -609 2819 -384 
Q 2819 -222 2659 -153 
Q 2497 -84 2016 -72 
Q 1313 -53 934 0 
z
" transform="scale(0.015625)"/>
      <path id="TimesNewRomanPSMT-6f" d="M 1600 2947 
Q 2250 2947 2644 2453 
Q 2978 2031 2978 1484 
Q 2978 1100 2793 706 
Q 2609 313 2286 112 
Q 1963 -88 1566 -88 
Q 919 -88 538 428 
Q 216 863 216 1403 
Q 216 1797 411 2186 
Q 606 2575 925 2761 
Q 1244 2947 1600 2947 
z
M 1503 2744 
Q 1338 2744 1170 2645 
Q 1003 2547 900 2300 
Q 797 2053 797 1666 
Q 797 1041 1045 587 
Q 1294 134 1700 134 
Q 2003 134 2200 384 
Q 2397 634 2397 1244 
Q 2397 2006 2069 2444 
Q 1847 2744 1503 2744 
z
" transform="scale(0.015625)"/>
      <path id="TimesNewRomanPSMT-74" d="M 1031 3803 
L 1031 2863 
L 1700 2863 
L 1700 2644 
L 1031 2644 
L 1031 788 
Q 1031 509 1111 412 
Q 1191 316 1316 316 
Q 1419 316 1516 380 
Q 1613 444 1666 569 
L 1788 569 
Q 1678 263 1478 108 
Q 1278 -47 1066 -47 
Q 922 -47 784 33 
Q 647 113 581 261 
Q 516 409 516 719 
L 516 2644 
L 63 2644 
L 63 2747 
Q 234 2816 414 2980 
Q 594 3144 734 3369 
Q 806 3488 934 3803 
L 1031 3803 
z
" transform="scale(0.015625)"/>
      <path id="TimesNewRomanPSMT-61" d="M 1822 413 
Q 1381 72 1269 19 
Q 1100 -59 909 -59 
Q 613 -59 420 144 
Q 228 347 228 678 
Q 228 888 322 1041 
Q 450 1253 767 1440 
Q 1084 1628 1822 1897 
L 1822 2009 
Q 1822 2438 1686 2597 
Q 1550 2756 1291 2756 
Q 1094 2756 978 2650 
Q 859 2544 859 2406 
L 866 2225 
Q 866 2081 792 2003 
Q 719 1925 600 1925 
Q 484 1925 411 2006 
Q 338 2088 338 2228 
Q 338 2497 613 2722 
Q 888 2947 1384 2947 
Q 1766 2947 2009 2819 
Q 2194 2722 2281 2516 
Q 2338 2381 2338 1966 
L 2338 994 
Q 2338 584 2353 492 
Q 2369 400 2405 369 
Q 2441 338 2488 338 
Q 2538 338 2575 359 
Q 2641 400 2828 588 
L 2828 413 
Q 2478 -56 2159 -56 
Q 2006 -56 1915 50 
Q 1825 156 1822 413 
z
M 1822 616 
L 1822 1706 
Q 1350 1519 1213 1441 
Q 966 1303 859 1153 
Q 753 1003 753 825 
Q 753 600 887 451 
Q 1022 303 1197 303 
Q 1434 303 1822 616 
z
" transform="scale(0.015625)"/>
      <path id="TimesNewRomanPSMT-69" d="M 928 4444 
Q 1059 4444 1151 4351 
Q 1244 4259 1244 4128 
Q 1244 3997 1151 3903 
Q 1059 3809 928 3809 
Q 797 3809 703 3903 
Q 609 3997 609 4128 
Q 609 4259 701 4351 
Q 794 4444 928 4444 
z
M 1188 2947 
L 1188 647 
Q 1188 378 1227 289 
Q 1266 200 1342 156 
Q 1419 113 1622 113 
L 1622 0 
L 231 0 
L 231 113 
Q 441 113 512 153 
Q 584 194 626 287 
Q 669 381 669 647 
L 669 1750 
Q 669 2216 641 2353 
Q 619 2453 572 2492 
Q 525 2531 444 2531 
Q 356 2531 231 2484 
L 188 2597 
L 1050 2947 
L 1188 2947 
z
" transform="scale(0.015625)"/>
      <path id="TimesNewRomanPSMT-6c" d="M 1184 4444 
L 1184 647 
Q 1184 378 1223 290 
Q 1263 203 1344 158 
Q 1425 113 1647 113 
L 1647 0 
L 244 0 
L 244 113 
Q 441 113 512 153 
Q 584 194 625 287 
Q 666 381 666 647 
L 666 3247 
Q 666 3731 644 3842 
Q 622 3953 573 3993 
Q 525 4034 450 4034 
Q 369 4034 244 3984 
L 191 4094 
L 1044 4444 
L 1184 4444 
z
" transform="scale(0.015625)"/>
      <path id="TimesNewRomanPSMT-47" d="M 3928 4334 
L 4038 2997 
L 3928 2997 
Q 3763 3497 3500 3750 
Q 3122 4116 2528 4116 
Q 1719 4116 1297 3475 
Q 944 2934 944 2188 
Q 944 1581 1178 1081 
Q 1413 581 1792 348 
Q 2172 116 2572 116 
Q 2806 116 3025 175 
Q 3244 234 3447 350 
L 3447 1575 
Q 3447 1894 3398 1992 
Q 3350 2091 3248 2142 
Q 3147 2194 2891 2194 
L 2891 2313 
L 4531 2313 
L 4531 2194 
L 4453 2194 
Q 4209 2194 4119 2031 
Q 4056 1916 4056 1575 
L 4056 278 
Q 3697 84 3347 -6 
Q 2997 -97 2569 -97 
Q 1341 -97 703 691 
Q 225 1281 225 2053 
Q 225 2613 494 3125 
Q 813 3734 1369 4063 
Q 1834 4334 2469 4334 
Q 2700 4334 2889 4296 
Q 3078 4259 3425 4131 
Q 3600 4066 3659 4066 
Q 3719 4066 3761 4120 
Q 3803 4175 3813 4334 
L 3928 4334 
z
" transform="scale(0.015625)"/>
      <path id="TimesNewRomanPSMT-4d" d="M 2619 0 
L 981 3566 
L 981 734 
Q 981 344 1066 247 
Q 1181 116 1431 116 
L 1581 116 
L 1581 0 
L 106 0 
L 106 116 
L 256 116 
Q 525 116 638 278 
Q 706 378 706 734 
L 706 3503 
Q 706 3784 644 3909 
Q 600 4000 483 4061 
Q 366 4122 106 4122 
L 106 4238 
L 1306 4238 
L 2844 922 
L 4356 4238 
L 5556 4238 
L 5556 4122 
L 5409 4122 
Q 5138 4122 5025 3959 
Q 4956 3859 4956 3503 
L 4956 734 
Q 4956 344 5044 247 
Q 5159 116 5409 116 
L 5556 116 
L 5556 0 
L 3756 0 
L 3756 116 
L 3906 116 
Q 4178 116 4288 278 
Q 4356 378 4356 734 
L 4356 3566 
L 2722 0 
L 2619 0 
z
" transform="scale(0.015625)"/>
      <path id="TimesNewRomanPSMT-20" transform="scale(0.015625)"/>
      <path id="TimesNewRomanPSMT-7c" d="M 763 4444 
L 763 -1381 
L 503 -1381 
L 503 4444 
L 763 4444 
z
" transform="scale(0.015625)"/>
      <path id="TimesNewRomanPSMT-44" d="M 109 0 
L 109 116 
L 269 116 
Q 538 116 650 288 
Q 719 391 719 750 
L 719 3488 
Q 719 3884 631 3984 
Q 509 4122 269 4122 
L 109 4122 
L 109 4238 
L 1834 4238 
Q 2784 4238 3279 4022 
Q 3775 3806 4076 3303 
Q 4378 2800 4378 2141 
Q 4378 1256 3841 663 
Q 3238 0 2003 0 
L 109 0 
z
M 1319 306 
Q 1716 219 1984 219 
Q 2709 219 3187 728 
Q 3666 1238 3666 2109 
Q 3666 2988 3187 3494 
Q 2709 4000 1959 4000 
Q 1678 4000 1319 3909 
L 1319 306 
z
" transform="scale(0.015625)"/>
      <path id="TimesNewRomanPSMT-41" d="M 2928 1419 
L 1288 1419 
L 1000 750 
Q 894 503 894 381 
Q 894 284 986 211 
Q 1078 138 1384 116 
L 1384 0 
L 50 0 
L 50 116 
Q 316 163 394 238 
Q 553 388 747 847 
L 2238 4334 
L 2347 4334 
L 3822 809 
Q 4000 384 4145 257 
Q 4291 131 4550 116 
L 4550 0 
L 2878 0 
L 2878 116 
Q 3131 128 3220 200 
Q 3309 272 3309 375 
Q 3309 513 3184 809 
L 2928 1419 
z
M 2841 1650 
L 2122 3363 
L 1384 1650 
L 2841 1650 
z
" transform="scale(0.015625)"/>
      <path id="TimesNewRomanPSMT-45" d="M 1338 4006 
L 1338 2331 
L 2269 2331 
Q 2631 2331 2753 2441 
Q 2916 2584 2934 2947 
L 3050 2947 
L 3050 1472 
L 2934 1472 
Q 2891 1781 2847 1869 
Q 2791 1978 2662 2040 
Q 2534 2103 2269 2103 
L 1338 2103 
L 1338 706 
Q 1338 425 1363 364 
Q 1388 303 1450 267 
Q 1513 231 1688 231 
L 2406 231 
Q 2766 231 2928 281 
Q 3091 331 3241 478 
Q 3434 672 3638 1063 
L 3763 1063 
L 3397 0 
L 131 0 
L 131 116 
L 281 116 
Q 431 116 566 188 
Q 666 238 702 338 
Q 738 438 738 747 
L 738 3500 
Q 738 3903 656 3997 
Q 544 4122 281 4122 
L 131 4122 
L 131 4238 
L 3397 4238 
L 3444 3309 
L 3322 3309 
Q 3256 3644 3176 3769 
Q 3097 3894 2941 3959 
Q 2816 4006 2500 4006 
L 1338 4006 
z
" transform="scale(0.015625)"/>
      <path id="TimesNewRomanPSMT-5f" d="M 3256 -1381 
L -53 -1381 
L -53 -1119 
L 3256 -1119 
L 3256 -1381 
z
" transform="scale(0.015625)"/>
      <path id="TimesNewRomanPSMT-4f" d="M 2341 4334 
Q 3166 4334 3770 3707 
Q 4375 3081 4375 2144 
Q 4375 1178 3765 540 
Q 3156 -97 2291 -97 
Q 1416 -97 820 525 
Q 225 1147 225 2134 
Q 225 3144 913 3781 
Q 1509 4334 2341 4334 
z
M 2281 4106 
Q 1713 4106 1369 3684 
Q 941 3159 941 2147 
Q 941 1109 1384 550 
Q 1725 125 2284 125 
Q 2881 125 3270 590 
Q 3659 1056 3659 2059 
Q 3659 3147 3231 3681 
Q 2888 4106 2281 4106 
z
" transform="scale(0.015625)"/>
      <path id="TimesNewRomanPSMT-52" d="M 4325 0 
L 3194 0 
L 1759 1981 
Q 1600 1975 1500 1975 
Q 1459 1975 1412 1976 
Q 1366 1978 1316 1981 
L 1316 750 
Q 1316 350 1403 253 
Q 1522 116 1759 116 
L 1925 116 
L 1925 0 
L 109 0 
L 109 116 
L 269 116 
Q 538 116 653 291 
Q 719 388 719 750 
L 719 3488 
Q 719 3888 631 3984 
Q 509 4122 269 4122 
L 109 4122 
L 109 4238 
L 1653 4238 
Q 2328 4238 2648 4139 
Q 2969 4041 3192 3777 
Q 3416 3513 3416 3147 
Q 3416 2756 3161 2468 
Q 2906 2181 2372 2063 
L 3247 847 
Q 3547 428 3762 290 
Q 3978 153 4325 116 
L 4325 0 
z
M 1316 2178 
Q 1375 2178 1419 2176 
Q 1463 2175 1491 2175 
Q 2097 2175 2405 2437 
Q 2713 2700 2713 3106 
Q 2713 3503 2464 3751 
Q 2216 4000 1806 4000 
Q 1625 4000 1316 3941 
L 1316 2178 
z
" transform="scale(0.015625)"/>
      <path id="TimesNewRomanPSMT-46" d="M 1309 4006 
L 1309 2341 
L 2081 2341 
Q 2347 2341 2470 2458 
Q 2594 2575 2634 2922 
L 2750 2922 
L 2750 1488 
L 2634 1488 
Q 2631 1734 2570 1850 
Q 2509 1966 2401 2023 
Q 2294 2081 2081 2081 
L 1309 2081 
L 1309 750 
Q 1309 428 1350 325 
Q 1381 247 1481 191 
Q 1619 116 1769 116 
L 1922 116 
L 1922 0 
L 103 0 
L 103 116 
L 253 116 
Q 516 116 634 269 
Q 709 369 709 750 
L 709 3488 
Q 709 3809 669 3913 
Q 638 3991 541 4047 
Q 406 4122 253 4122 
L 103 4122 
L 103 4238 
L 3256 4238 
L 3297 3306 
L 3188 3306 
Q 3106 3603 2998 3742 
Q 2891 3881 2733 3943 
Q 2575 4006 2244 4006 
L 1309 4006 
z
" transform="scale(0.015625)"/>
      <path id="TimesNewRomanPSMT-50" d="M 1313 1984 
L 1313 750 
Q 1313 350 1400 253 
Q 1519 116 1759 116 
L 1922 116 
L 1922 0 
L 106 0 
L 106 116 
L 266 116 
Q 534 116 650 291 
Q 713 388 713 750 
L 713 3488 
Q 713 3888 628 3984 
Q 506 4122 266 4122 
L 106 4122 
L 106 4238 
L 1659 4238 
Q 2228 4238 2556 4120 
Q 2884 4003 3109 3725 
Q 3334 3447 3334 3066 
Q 3334 2547 2992 2222 
Q 2650 1897 2025 1897 
Q 1872 1897 1694 1919 
Q 1516 1941 1313 1984 
z
M 1313 2163 
Q 1478 2131 1606 2115 
Q 1734 2100 1825 2100 
Q 2150 2100 2386 2351 
Q 2622 2603 2622 3003 
Q 2622 3278 2509 3514 
Q 2397 3750 2190 3867 
Q 1984 3984 1722 3984 
Q 1563 3984 1313 3925 
L 1313 2163 
z
" transform="scale(0.015625)"/>
     </defs>
     <use xlink:href="#TimesNewRomanPSMT-53"/>
     <use xlink:href="#TimesNewRomanPSMT-53" x="55.615234"/>
     <use xlink:href="#TimesNewRomanPSMT-43" x="111.230469"/>
     <use xlink:href="#TimesNewRomanPSMT-57" x="177.929688"/>
     <use xlink:href="#TimesNewRomanPSMT-65" x="264.314453"/>
     <use xlink:href="#TimesNewRomanPSMT-62" x="308.699219"/>
     <use xlink:href="#TimesNewRomanPSMT-2f" x="358.699219"/>
     <use xlink:href="#TimesNewRomanPSMT-67" x="386.482422"/>
     <use xlink:href="#TimesNewRomanPSMT-65" x="436.482422"/>
     <use xlink:href="#TimesNewRomanPSMT-6f" x="480.867188"/>
     <use xlink:href="#TimesNewRomanPSMT-74" x="530.867188"/>
     <use xlink:href="#TimesNewRomanPSMT-61" x="558.650391"/>
     <use xlink:href="#TimesNewRomanPSMT-69" x="603.035156"/>
     <use xlink:href="#TimesNewRomanPSMT-6c" x="630.818359"/>
     <use xlink:href="#TimesNewRomanPSMT-2f" x="658.601562"/>
     <use xlink:href="#TimesNewRomanPSMT-47" x="686.384766"/>
     <use xlink:href="#TimesNewRomanPSMT-53" x="758.601562"/>
     <use xlink:href="#TimesNewRomanPSMT-4d" x="814.216797"/>
     <use xlink:href="#TimesNewRomanPSMT-20" x="903.132812"/>
     <use xlink:href="#TimesNewRomanPSMT-7c" x="928.132812"/>
     <use xlink:href="#TimesNewRomanPSMT-20" x="948.152344"/>
     <use xlink:href="#TimesNewRomanPSMT-43" x="973.152344"/>
     <use xlink:href="#TimesNewRomanPSMT-44" x="1039.851562"/>
     <use xlink:href="#TimesNewRomanPSMT-41" x="1112.068359"/>
     <use xlink:href="#TimesNewRomanPSMT-57" x="1176.285156"/>
     <use xlink:href="#TimesNewRomanPSMT-65" x="1262.669922"/>
     <use xlink:href="#TimesNewRomanPSMT-62" x="1307.054688"/>
     <use xlink:href="#TimesNewRomanPSMT-2f" x="1357.054688"/>
     <use xlink:href="#TimesNewRomanPSMT-47" x="1384.837891"/>
     <use xlink:href="#TimesNewRomanPSMT-45" x="1457.054688"/>
     <use xlink:href="#TimesNewRomanPSMT-5f" x="1518.138672"/>
     <use xlink:href="#TimesNewRomanPSMT-4f" x="1568.138672"/>
     <use xlink:href="#TimesNewRomanPSMT-52" x="1640.355469"/>
     <use xlink:href="#TimesNewRomanPSMT-5f" x="1707.054688"/>
     <use xlink:href="#TimesNewRomanPSMT-44" x="1757.054688"/>
     <use xlink:href="#TimesNewRomanPSMT-45" x="1829.271484"/>
     <use xlink:href="#TimesNewRomanPSMT-46" x="1890.355469"/>
     <use xlink:href="#TimesNewRomanPSMT-2f" x="1945.970703"/>
     <use xlink:href="#TimesNewRomanPSMT-47" x="1973.753906"/>
     <use xlink:href="#TimesNewRomanPSMT-53" x="2045.970703"/>
     <use xlink:href="#TimesNewRomanPSMT-4d" x="2101.585938"/>
     <use xlink:href="#TimesNewRomanPSMT-5f" x="2190.501953"/>
     <use xlink:href="#TimesNewRomanPSMT-50" x="2240.501953"/>
     <use xlink:href="#TimesNewRomanPSMT-4f" x="2296.117188"/>
     <use xlink:href="#TimesNewRomanPSMT-53" x="2368.333984"/>
    </g>
   </g>
   <g id="legend_1">
    <g id="patch_7">
     <path d="M 40.1 49.1325 
L 310.34 49.1325 
Q 312.74 49.1325 312.74 46.7325 
L 312.74 29.9325 
Q 312.74 27.5325 310.34 27.5325 
L 40.1 27.5325 
Q 37.7 27.5325 37.7 29.9325 
L 37.7 46.7325 
Q 37.7 49.1325 40.1 49.1325 
z
" style="fill: #ffffff; opacity: 0.8; stroke: #cccccc; stroke-linejoin: miter"/>
    </g>
    <g id="line2d_44">
     <path d="M 42.5 37.1325 
L 54.5 37.1325 
L 66.5 37.1325 
" style="fill: none; stroke: #000000; stroke-width: 1.5; stroke-linecap: square"/>
    </g>
    <g id="text_22">
     <!-- $r/R_E$ -->
     <g transform="translate(76.1 41.3325) scale(0.12 -0.12)">
      <defs>
       <path id="STIXGeneral-Regular-394" d="M 4320 0 
L 307 0 
L 2221 4314 
L 2349 4314 
L 4320 0 
z
M 3354 589 
L 2118 3405 
L 870 589 
L 3354 589 
z
" transform="scale(0.015625)"/>
       <path id="Cmmi10-72" d="M 494 109 
Q 494 147 500 166 
L 978 2075 
Q 1025 2253 1025 2388 
Q 1025 2663 838 2663 
Q 638 2663 541 2423 
Q 444 2184 353 1819 
Q 353 1800 334 1789 
Q 316 1778 300 1778 
L 225 1778 
Q 203 1778 187 1801 
Q 172 1825 172 1844 
Q 241 2122 305 2315 
Q 369 2509 505 2668 
Q 641 2828 844 2828 
Q 1066 2828 1233 2700 
Q 1400 2572 1441 2363 
Q 1603 2575 1811 2701 
Q 2019 2828 2266 2828 
Q 2469 2828 2623 2709 
Q 2778 2591 2778 2388 
Q 2778 2225 2676 2104 
Q 2575 1984 2406 1984 
Q 2303 1984 2233 2048 
Q 2163 2113 2163 2216 
Q 2163 2356 2266 2467 
Q 2369 2578 2503 2578 
Q 2400 2663 2253 2663 
Q 1978 2663 1775 2467 
Q 1572 2272 1409 1972 
L 953 141 
Q 931 53 854 -9 
Q 778 -72 684 -72 
Q 606 -72 550 -22 
Q 494 28 494 109 
z
" transform="scale(0.015625)"/>
       <path id="Cmmi10-3d" d="M 359 -1472 
Q 359 -1453 366 -1447 
L 2591 4722 
Q 2603 4759 2634 4779 
Q 2666 4800 2706 4800 
Q 2763 4800 2798 4765 
Q 2834 4731 2834 4672 
L 2834 4647 
L 609 -1522 
Q 572 -1600 488 -1600 
Q 434 -1600 396 -1562 
Q 359 -1525 359 -1472 
z
" transform="scale(0.015625)"/>
       <path id="Cmmi10-52" d="M 313 0 
Q 250 0 250 84 
Q 253 100 262 139 
Q 272 178 289 201 
Q 306 225 331 225 
Q 722 225 878 269 
Q 959 297 997 441 
L 1875 3956 
Q 1888 4019 1888 4044 
Q 1888 4113 1813 4122 
Q 1691 4147 1350 4147 
Q 1288 4147 1288 4231 
Q 1291 4247 1300 4286 
Q 1309 4325 1326 4348 
Q 1344 4372 1369 4372 
L 3309 4372 
Q 3541 4372 3791 4319 
Q 4041 4266 4250 4152 
Q 4459 4038 4593 3848 
Q 4728 3659 4728 3406 
Q 4728 3084 4515 2831 
Q 4303 2578 3978 2408 
Q 3653 2238 3347 2169 
Q 3597 2078 3756 1879 
Q 3916 1681 3916 1422 
Q 3916 1388 3914 1370 
Q 3913 1353 3909 1331 
L 3859 763 
Q 3853 638 3847 550 
Q 3841 463 3841 409 
Q 3841 234 3892 129 
Q 3944 25 4097 25 
Q 4297 25 4448 211 
Q 4600 397 4647 616 
Q 4675 672 4709 672 
L 4769 672 
Q 4831 672 4831 588 
Q 4784 403 4682 237 
Q 4581 72 4426 -34 
Q 4272 -141 4091 -141 
Q 3716 -141 3452 26 
Q 3188 194 3188 550 
Q 3188 684 3213 788 
L 3353 1356 
Q 3378 1434 3378 1538 
Q 3378 1803 3198 1954 
Q 3019 2106 2747 2106 
L 1959 2106 
L 1538 416 
Q 1522 363 1522 325 
Q 1522 259 1600 250 
Q 1722 225 2059 225 
Q 2125 225 2125 141 
Q 2103 50 2090 25 
Q 2078 0 2016 0 
L 313 0 
z
M 1997 2272 
L 2706 2272 
Q 3403 2272 3756 2625 
Q 3919 2788 4014 3039 
Q 4109 3291 4109 3541 
Q 4109 3778 3970 3912 
Q 3831 4047 3626 4097 
Q 3422 4147 3175 4147 
L 2747 4147 
Q 2572 4147 2515 4117 
Q 2459 4088 2413 3928 
L 1997 2272 
z
" transform="scale(0.015625)"/>
       <path id="Cmmi10-45" d="M 300 0 
Q 238 0 238 84 
Q 241 100 250 139 
Q 259 178 276 201 
Q 294 225 319 225 
Q 709 225 863 269 
Q 947 297 984 441 
L 1863 3956 
Q 1875 4019 1875 4044 
Q 1875 4113 1797 4122 
Q 1678 4147 1338 4147 
Q 1275 4147 1275 4231 
Q 1278 4247 1287 4286 
Q 1297 4325 1314 4348 
Q 1331 4372 1356 4372 
L 4825 4372 
Q 4891 4372 4891 4288 
L 4738 2963 
Q 4738 2947 4714 2926 
Q 4691 2906 4672 2906 
L 4616 2906 
Q 4550 2906 4550 2988 
Q 4588 3300 4588 3450 
Q 4588 3706 4500 3848 
Q 4413 3991 4267 4053 
Q 4122 4116 3945 4131 
Q 3769 4147 3481 4147 
L 2753 4147 
Q 2578 4147 2522 4117 
Q 2466 4088 2419 3928 
L 2034 2381 
L 2534 2381 
Q 2859 2381 3025 2426 
Q 3191 2472 3287 2615 
Q 3384 2759 3463 3072 
Q 3469 3094 3486 3111 
Q 3503 3128 3525 3128 
L 3584 3128 
Q 3647 3128 3647 3047 
L 3250 1466 
Q 3238 1409 3188 1409 
L 3128 1409 
Q 3066 1409 3066 1491 
Q 3128 1747 3128 1869 
Q 3128 2056 2959 2106 
Q 2791 2156 2509 2156 
L 1978 2156 
L 1544 416 
Q 1516 338 1516 275 
Q 1516 225 1734 225 
L 2509 225 
Q 2972 225 3259 297 
Q 3547 369 3736 526 
Q 3925 684 4062 928 
Q 4200 1172 4397 1638 
Q 4409 1678 4453 1678 
L 4513 1678 
Q 4538 1678 4556 1656 
Q 4575 1634 4575 1606 
Q 4575 1594 4569 1581 
L 3909 38 
Q 3897 0 3859 0 
L 300 0 
z
" transform="scale(0.015625)"/>
      </defs>
      <use xlink:href="#STIXGeneral-Regular-394"/>
      <use xlink:href="#Cmmi10-72" transform="translate(72.199982 0)"/>
      <use xlink:href="#Cmmi10-3d" transform="translate(117.317169 0)"/>
      <use xlink:href="#Cmmi10-52" transform="translate(167.317169 0)"/>
      <use xlink:href="#Cmmi10-45" transform="translate(243.196075 -17.00625) scale(0.7)"/>
     </g>
    </g>
    <g id="line2d_45">
     <path d="M 136.34 37.1325 
L 148.34 37.1325 
L 160.34 37.1325 
" style="fill: none; stroke: #008000; stroke-width: 1.5; stroke-linecap: square"/>
    </g>
    <g id="text_23">
     <!-- $$ [deg] -->
     <g transform="translate(169.94 41.3325) scale(0.12 -0.12)">
      <defs>
       <path id="STIXGeneral-Italic-3b8" d="M 3162 3270 
Q 3162 2534 2925 1862 
Q 2688 1190 2304 678 
Q 1741 -70 992 -70 
Q 608 -70 390 224 
Q 173 518 173 1030 
Q 173 1997 592 2813 
Q 1011 3629 1594 4070 
Q 1952 4339 2374 4339 
Q 2733 4339 2947 4076 
Q 3162 3814 3162 3270 
z
M 941 2221 
L 2432 2221 
Q 2624 2874 2624 3533 
Q 2624 4205 2285 4205 
Q 2029 4205 1728 3814 
Q 1427 3424 1232 2992 
Q 1037 2560 941 2221 
z
M 2387 2016 
L 896 2016 
Q 710 1530 710 960 
Q 710 64 1069 64 
Q 1286 64 1510 275 
Q 1734 486 1904 806 
Q 2074 1126 2198 1440 
Q 2323 1754 2387 2016 
z
" transform="scale(0.015625)"/>
       <path id="TimesNewRomanPSMT-5b" d="M 1900 -1269 
L 525 -1269 
L 525 4334 
L 1900 4334 
L 1900 4088 
L 994 4088 
L 994 -1025 
L 1900 -1025 
L 1900 -1269 
z
" transform="scale(0.015625)"/>
       <path id="TimesNewRomanPSMT-64" d="M 2222 322 
Q 2013 103 1813 7 
Q 1613 -88 1381 -88 
Q 913 -88 563 304 
Q 213 697 213 1313 
Q 213 1928 600 2439 
Q 988 2950 1597 2950 
Q 1975 2950 2222 2709 
L 2222 3238 
Q 2222 3728 2198 3840 
Q 2175 3953 2125 3993 
Q 2075 4034 2000 4034 
Q 1919 4034 1784 3984 
L 1744 4094 
L 2597 4444 
L 2738 4444 
L 2738 1134 
Q 2738 631 2761 520 
Q 2784 409 2836 365 
Q 2888 322 2956 322 
Q 3041 322 3181 375 
L 3216 266 
L 2366 -88 
L 2222 -88 
L 2222 322 
z
M 2222 541 
L 2222 2016 
Q 2203 2228 2109 2403 
Q 2016 2578 1861 2667 
Q 1706 2756 1559 2756 
Q 1284 2756 1069 2509 
Q 784 2184 784 1559 
Q 784 928 1059 592 
Q 1334 256 1672 256 
Q 1956 256 2222 541 
z
" transform="scale(0.015625)"/>
       <path id="TimesNewRomanPSMT-5d" d="M 234 4334 
L 1609 4334 
L 1609 -1272 
L 234 -1272 
L 234 -1025 
L 1141 -1025 
L 1141 4088 
L 234 4088 
L 234 4334 
z
" transform="scale(0.015625)"/>
      </defs>
      <use xlink:href="#STIXGeneral-Regular-394" transform="translate(0 0.5625)"/>
      <use xlink:href="#STIXGeneral-Italic-3b8" transform="translate(72.199982 0.5625)"/>
      <use xlink:href="#TimesNewRomanPSMT-20" transform="translate(120.199966 0.5625)"/>
      <use xlink:href="#TimesNewRomanPSMT-5b" transform="translate(145.199966 0.5625)"/>
      <use xlink:href="#TimesNewRomanPSMT-64" transform="translate(178.500748 0.5625)"/>
      <use xlink:href="#TimesNewRomanPSMT-65" transform="translate(228.500748 0.5625)"/>
      <use xlink:href="#TimesNewRomanPSMT-67" transform="translate(272.885513 0.5625)"/>
      <use xlink:href="#TimesNewRomanPSMT-5d" transform="translate(322.885513 0.5625)"/>
     </g>
    </g>
    <g id="line2d_46">
     <path d="M 236.78 37.1325 
L 248.78 37.1325 
L 260.78 37.1325 
" style="fill: none; stroke: #0000ff; stroke-width: 1.5; stroke-linecap: square"/>
    </g>
    <g id="text_24">
     <!-- $10r/r$ -->
     <g transform="translate(270.38 41.3325) scale(0.12 -0.12)">
      <defs>
       <path id="Cmr10-31" d="M 594 0 
L 594 225 
Q 1394 225 1394 428 
L 1394 3788 
Q 1063 3628 556 3628 
L 556 3853 
Q 1341 3853 1741 4263 
L 1831 4263 
Q 1853 4263 1873 4245 
Q 1894 4228 1894 4206 
L 1894 428 
Q 1894 225 2694 225 
L 2694 0 
L 594 0 
z
" transform="scale(0.015625)"/>
       <path id="Cmr10-30" d="M 1600 -141 
Q 816 -141 533 504 
Q 250 1150 250 2041 
Q 250 2597 351 3087 
Q 453 3578 754 3920 
Q 1056 4263 1600 4263 
Q 2022 4263 2290 4056 
Q 2559 3850 2700 3523 
Q 2841 3197 2892 2823 
Q 2944 2450 2944 2041 
Q 2944 1491 2842 1011 
Q 2741 531 2444 195 
Q 2147 -141 1600 -141 
z
M 1600 25 
Q 1956 25 2131 390 
Q 2306 756 2347 1200 
Q 2388 1644 2388 2144 
Q 2388 2625 2347 3031 
Q 2306 3438 2132 3767 
Q 1959 4097 1600 4097 
Q 1238 4097 1063 3765 
Q 888 3434 847 3029 
Q 806 2625 806 2144 
Q 806 1788 823 1472 
Q 841 1156 916 820 
Q 991 484 1158 254 
Q 1325 25 1600 25 
z
" transform="scale(0.015625)"/>
      </defs>
      <use xlink:href="#Cmr10-31"/>
      <use xlink:href="#Cmr10-30" transform="translate(50 0)"/>
      <use xlink:href="#STIXGeneral-Regular-394" transform="translate(100 0)"/>
      <use xlink:href="#Cmmi10-72" transform="translate(172.199982 0)"/>
      <use xlink:href="#Cmmi10-3d" transform="translate(217.317169 0)"/>
      <use xlink:href="#Cmmi10-72" transform="translate(267.317169 0)"/>
     </g>
    </g>
   </g>
  </g>
 </g>
 <defs>
  <clipPath id="p8adeef3629">
   <rect x="31.7" y="21.5325" width="357.12" height="266.112"/>
  </clipPath>
 </defs>
</svg>
