<?xml version="1.0" encoding="utf-8" standalone="no"?>
<!DOCTYPE svg PUBLIC "-//W3C//DTD SVG 1.1//EN"
  "http://www.w3.org/Graphics/SVG/1.1/DTD/svg11.dtd">
<svg xmlns:xlink="http://www.w3.org/1999/xlink" width="394.159062pt" height="321.398875pt" viewBox="0 0 394.159062 321.398875" xmlns="http://www.w3.org/2000/svg" version="1.1">
 <metadata>
  <rdf:RDF xmlns:dc="http://purl.org/dc/elements/1.1/" xmlns:cc="http://creativecommons.org/ns#" xmlns:rdf="http://www.w3.org/1999/02/22-rdf-syntax-ns#">
   <cc:Work>
    <dc:type rdf:resource="http://purl.org/dc/dcmitype/StillImage"/>
    <dc:date>2025-05-07T14:57:09.056497</dc:date>
    <dc:format>image/svg+xml</dc:format>
    <dc:creator>
     <cc:Agent>
      <dc:title>Matplotlib v3.8.4, https://matplotlib.org/</dc:title>
     </cc:Agent>
    </dc:creator>
   </cc:Work>
  </rdf:RDF>
 </metadata>
 <defs>
  <style type="text/css">*{stroke-linejoin: round; stroke-linecap: butt}</style>
 </defs>
 <g id="figure_1">
  <g id="patch_1">
   <path d="M 0 321.398875 
L 394.159062 321.398875 
L 394.159062 0 
L 0 0 
z
" style="fill: #ffffff"/>
  </g>
  <g id="axes_1">
   <g id="patch_2">
    <path d="M 29.839063 287.6445 
L 386.959063 287.6445 
L 386.959063 21.5325 
L 29.839063 21.5325 
z
" style="fill: #ffffff"/>
   </g>
   <g id="matplotlib.axis_1">
    <g id="xtick_1">
     <g id="line2d_1">
      <path d="M 46.07179 287.6445 
L 46.07179 21.5325 
" clip-path="url(#pe33ccfa444)" style="fill: none; stroke: #b0b0b0; stroke-width: 0.8; stroke-linecap: square"/>
     </g>
     <g id="line2d_2">
      <defs>
       <path id="m6d27efee2f" d="M 0 0 
L 0 3.5 
" style="stroke: #000000; stroke-width: 0.8"/>
      </defs>
      <g>
       <use xlink:href="#m6d27efee2f" x="46.07179" y="287.6445" style="stroke: #000000; stroke-width: 0.8"/>
      </g>
     </g>
     <g id="text_1">
      <!-- 25 -->
      <g transform="translate(41.07179 301.58825) scale(0.1 -0.1)">
       <defs>
        <path id="TimesNewRomanPSMT-32" d="M 2934 816 
L 2638 0 
L 138 0 
L 138 116 
Q 1241 1122 1691 1759 
Q 2141 2397 2141 2925 
Q 2141 3328 1894 3587 
Q 1647 3847 1303 3847 
Q 991 3847 742 3664 
Q 494 3481 375 3128 
L 259 3128 
Q 338 3706 661 4015 
Q 984 4325 1469 4325 
Q 1984 4325 2329 3994 
Q 2675 3663 2675 3213 
Q 2675 2891 2525 2569 
Q 2294 2063 1775 1497 
Q 997 647 803 472 
L 1909 472 
Q 2247 472 2383 497 
Q 2519 522 2628 598 
Q 2738 675 2819 816 
L 2934 816 
z
" transform="scale(0.015625)"/>
        <path id="TimesNewRomanPSMT-35" d="M 2778 4238 
L 2534 3706 
L 1259 3706 
L 981 3138 
Q 1809 3016 2294 2522 
Q 2709 2097 2709 1522 
Q 2709 1188 2573 903 
Q 2438 619 2231 419 
Q 2025 219 1772 97 
Q 1413 -75 1034 -75 
Q 653 -75 479 54 
Q 306 184 306 341 
Q 306 428 378 495 
Q 450 563 559 563 
Q 641 563 702 538 
Q 763 513 909 409 
Q 1144 247 1384 247 
Q 1750 247 2026 523 
Q 2303 800 2303 1197 
Q 2303 1581 2056 1914 
Q 1809 2247 1375 2428 
Q 1034 2569 447 2591 
L 1259 4238 
L 2778 4238 
z
" transform="scale(0.015625)"/>
       </defs>
       <use xlink:href="#TimesNewRomanPSMT-32"/>
       <use xlink:href="#TimesNewRomanPSMT-35" x="50"/>
      </g>
      <!-- 2021-11 -->
      <g transform="translate(29.594446 312.059812) scale(0.1 -0.1)">
       <defs>
        <path id="TimesNewRomanPSMT-30" d="M 231 2094 
Q 231 2819 450 3342 
Q 669 3866 1031 4122 
Q 1313 4325 1613 4325 
Q 2100 4325 2488 3828 
Q 2972 3213 2972 2159 
Q 2972 1422 2759 906 
Q 2547 391 2217 158 
Q 1888 -75 1581 -75 
Q 975 -75 572 641 
Q 231 1244 231 2094 
z
M 844 2016 
Q 844 1141 1059 588 
Q 1238 122 1591 122 
Q 1759 122 1940 273 
Q 2122 425 2216 781 
Q 2359 1319 2359 2297 
Q 2359 3022 2209 3506 
Q 2097 3866 1919 4016 
Q 1791 4119 1609 4119 
Q 1397 4119 1231 3928 
Q 1006 3669 925 3112 
Q 844 2556 844 2016 
z
" transform="scale(0.015625)"/>
        <path id="TimesNewRomanPSMT-31" d="M 750 3822 
L 1781 4325 
L 1884 4325 
L 1884 747 
Q 1884 391 1914 303 
Q 1944 216 2037 169 
Q 2131 122 2419 116 
L 2419 0 
L 825 0 
L 825 116 
Q 1125 122 1212 167 
Q 1300 213 1334 289 
Q 1369 366 1369 747 
L 1369 3034 
Q 1369 3497 1338 3628 
Q 1316 3728 1258 3775 
Q 1200 3822 1119 3822 
Q 1003 3822 797 3725 
L 750 3822 
z
" transform="scale(0.015625)"/>
        <path id="TimesNewRomanPSMT-2d" d="M 259 1672 
L 1875 1672 
L 1875 1200 
L 259 1200 
L 259 1672 
z
" transform="scale(0.015625)"/>
       </defs>
       <use xlink:href="#TimesNewRomanPSMT-32"/>
       <use xlink:href="#TimesNewRomanPSMT-30" x="50"/>
       <use xlink:href="#TimesNewRomanPSMT-32" x="100"/>
       <use xlink:href="#TimesNewRomanPSMT-31" x="150"/>
       <use xlink:href="#TimesNewRomanPSMT-2d" x="200"/>
       <use xlink:href="#TimesNewRomanPSMT-31" x="233.300781"/>
       <use xlink:href="#TimesNewRomanPSMT-31" x="279.550781"/>
      </g>
     </g>
    </g>
    <g id="xtick_2">
     <g id="line2d_3">
      <path d="M 78.559805 287.6445 
L 78.559805 21.5325 
" clip-path="url(#pe33ccfa444)" style="fill: none; stroke: #b0b0b0; stroke-width: 0.8; stroke-linecap: square"/>
     </g>
     <g id="line2d_4">
      <g>
       <use xlink:href="#m6d27efee2f" x="78.559805" y="287.6445" style="stroke: #000000; stroke-width: 0.8"/>
      </g>
     </g>
     <g id="text_2">
      <!-- 26 -->
      <g transform="translate(73.559805 301.58825) scale(0.1 -0.1)">
       <defs>
        <path id="TimesNewRomanPSMT-36" d="M 2869 4325 
L 2869 4209 
Q 2456 4169 2195 4045 
Q 1934 3922 1679 3669 
Q 1425 3416 1258 3105 
Q 1091 2794 978 2366 
Q 1428 2675 1881 2675 
Q 2316 2675 2634 2325 
Q 2953 1975 2953 1425 
Q 2953 894 2631 456 
Q 2244 -75 1606 -75 
Q 1172 -75 869 213 
Q 275 772 275 1663 
Q 275 2231 503 2743 
Q 731 3256 1154 3653 
Q 1578 4050 1965 4187 
Q 2353 4325 2688 4325 
L 2869 4325 
z
M 925 2138 
Q 869 1716 869 1456 
Q 869 1156 980 804 
Q 1091 453 1309 247 
Q 1469 100 1697 100 
Q 1969 100 2183 356 
Q 2397 613 2397 1088 
Q 2397 1622 2184 2012 
Q 1972 2403 1581 2403 
Q 1463 2403 1327 2353 
Q 1191 2303 925 2138 
z
" transform="scale(0.015625)"/>
       </defs>
       <use xlink:href="#TimesNewRomanPSMT-32"/>
       <use xlink:href="#TimesNewRomanPSMT-36" x="50"/>
      </g>
     </g>
    </g>
    <g id="xtick_3">
     <g id="line2d_5">
      <path d="M 111.047821 287.6445 
L 111.047821 21.5325 
" clip-path="url(#pe33ccfa444)" style="fill: none; stroke: #b0b0b0; stroke-width: 0.8; stroke-linecap: square"/>
     </g>
     <g id="line2d_6">
      <g>
       <use xlink:href="#m6d27efee2f" x="111.047821" y="287.6445" style="stroke: #000000; stroke-width: 0.8"/>
      </g>
     </g>
     <g id="text_3">
      <!-- 27 -->
      <g transform="translate(106.047821 301.58825) scale(0.1 -0.1)">
       <defs>
        <path id="TimesNewRomanPSMT-37" d="M 644 4238 
L 2916 4238 
L 2916 4119 
L 1503 -88 
L 1153 -88 
L 2419 3728 
L 1253 3728 
Q 900 3728 750 3644 
Q 488 3500 328 3200 
L 238 3234 
L 644 4238 
z
" transform="scale(0.015625)"/>
       </defs>
       <use xlink:href="#TimesNewRomanPSMT-32"/>
       <use xlink:href="#TimesNewRomanPSMT-37" x="50"/>
      </g>
     </g>
    </g>
    <g id="xtick_4">
     <g id="line2d_7">
      <path d="M 143.535837 287.6445 
L 143.535837 21.5325 
" clip-path="url(#pe33ccfa444)" style="fill: none; stroke: #b0b0b0; stroke-width: 0.8; stroke-linecap: square"/>
     </g>
     <g id="line2d_8">
      <g>
       <use xlink:href="#m6d27efee2f" x="143.535837" y="287.6445" style="stroke: #000000; stroke-width: 0.8"/>
      </g>
     </g>
     <g id="text_4">
      <!-- 28 -->
      <g transform="translate(138.535837 301.58825) scale(0.1 -0.1)">
       <defs>
        <path id="TimesNewRomanPSMT-38" d="M 1228 2134 
Q 725 2547 579 2797 
Q 434 3047 434 3316 
Q 434 3728 753 4026 
Q 1072 4325 1600 4325 
Q 2113 4325 2425 4047 
Q 2738 3769 2738 3413 
Q 2738 3175 2569 2928 
Q 2400 2681 1866 2347 
Q 2416 1922 2594 1678 
Q 2831 1359 2831 1006 
Q 2831 559 2490 242 
Q 2150 -75 1597 -75 
Q 994 -75 656 303 
Q 388 606 388 966 
Q 388 1247 577 1523 
Q 766 1800 1228 2134 
z
M 1719 2469 
Q 2094 2806 2194 3001 
Q 2294 3197 2294 3444 
Q 2294 3772 2109 3958 
Q 1925 4144 1606 4144 
Q 1288 4144 1088 3959 
Q 888 3775 888 3528 
Q 888 3366 970 3203 
Q 1053 3041 1206 2894 
L 1719 2469 
z
M 1375 2016 
Q 1116 1797 991 1539 
Q 866 1281 866 981 
Q 866 578 1086 336 
Q 1306 94 1647 94 
Q 1984 94 2187 284 
Q 2391 475 2391 747 
Q 2391 972 2272 1150 
Q 2050 1481 1375 2016 
z
" transform="scale(0.015625)"/>
       </defs>
       <use xlink:href="#TimesNewRomanPSMT-32"/>
       <use xlink:href="#TimesNewRomanPSMT-38" x="50"/>
      </g>
     </g>
    </g>
    <g id="xtick_5">
     <g id="line2d_9">
      <path d="M 176.023852 287.6445 
L 176.023852 21.5325 
" clip-path="url(#pe33ccfa444)" style="fill: none; stroke: #b0b0b0; stroke-width: 0.8; stroke-linecap: square"/>
     </g>
     <g id="line2d_10">
      <g>
       <use xlink:href="#m6d27efee2f" x="176.023852" y="287.6445" style="stroke: #000000; stroke-width: 0.8"/>
      </g>
     </g>
     <g id="text_5">
      <!-- 29 -->
      <g transform="translate(171.023852 301.58825) scale(0.1 -0.1)">
       <defs>
        <path id="TimesNewRomanPSMT-39" d="M 338 -88 
L 338 28 
Q 744 34 1094 217 
Q 1444 400 1770 856 
Q 2097 1313 2225 1859 
Q 1734 1544 1338 1544 
Q 891 1544 572 1889 
Q 253 2234 253 2806 
Q 253 3363 572 3797 
Q 956 4325 1575 4325 
Q 2097 4325 2469 3894 
Q 2925 3359 2925 2575 
Q 2925 1869 2578 1258 
Q 2231 647 1613 244 
Q 1109 -88 516 -88 
L 338 -88 
z
M 2275 2091 
Q 2331 2497 2331 2741 
Q 2331 3044 2228 3395 
Q 2125 3747 1936 3934 
Q 1747 4122 1506 4122 
Q 1228 4122 1018 3872 
Q 809 3622 809 3128 
Q 809 2469 1088 2097 
Q 1291 1828 1588 1828 
Q 1731 1828 1928 1897 
Q 2125 1966 2275 2091 
z
" transform="scale(0.015625)"/>
       </defs>
       <use xlink:href="#TimesNewRomanPSMT-32"/>
       <use xlink:href="#TimesNewRomanPSMT-39" x="50"/>
      </g>
     </g>
    </g>
    <g id="xtick_6">
     <g id="line2d_11">
      <path d="M 208.511868 287.6445 
L 208.511868 21.5325 
" clip-path="url(#pe33ccfa444)" style="fill: none; stroke: #b0b0b0; stroke-width: 0.8; stroke-linecap: square"/>
     </g>
     <g id="line2d_12">
      <g>
       <use xlink:href="#m6d27efee2f" x="208.511868" y="287.6445" style="stroke: #000000; stroke-width: 0.8"/>
      </g>
     </g>
     <g id="text_6">
      <!-- 30 -->
      <g transform="translate(203.511868 301.58825) scale(0.1 -0.1)">
       <defs>
        <path id="TimesNewRomanPSMT-33" d="M 325 3431 
Q 506 3859 782 4092 
Q 1059 4325 1472 4325 
Q 1981 4325 2253 3994 
Q 2459 3747 2459 3466 
Q 2459 3003 1878 2509 
Q 2269 2356 2469 2072 
Q 2669 1788 2669 1403 
Q 2669 853 2319 450 
Q 1863 -75 997 -75 
Q 569 -75 414 31 
Q 259 138 259 259 
Q 259 350 332 419 
Q 406 488 509 488 
Q 588 488 669 463 
Q 722 447 909 348 
Q 1097 250 1169 231 
Q 1284 197 1416 197 
Q 1734 197 1970 444 
Q 2206 691 2206 1028 
Q 2206 1275 2097 1509 
Q 2016 1684 1919 1775 
Q 1784 1900 1550 2001 
Q 1316 2103 1072 2103 
L 972 2103 
L 972 2197 
Q 1219 2228 1467 2375 
Q 1716 2522 1828 2728 
Q 1941 2934 1941 3181 
Q 1941 3503 1739 3701 
Q 1538 3900 1238 3900 
Q 753 3900 428 3381 
L 325 3431 
z
" transform="scale(0.015625)"/>
       </defs>
       <use xlink:href="#TimesNewRomanPSMT-33"/>
       <use xlink:href="#TimesNewRomanPSMT-30" x="50"/>
      </g>
     </g>
    </g>
    <g id="xtick_7">
     <g id="line2d_13">
      <path d="M 240.999884 287.6445 
L 240.999884 21.5325 
" clip-path="url(#pe33ccfa444)" style="fill: none; stroke: #b0b0b0; stroke-width: 0.8; stroke-linecap: square"/>
     </g>
     <g id="line2d_14">
      <g>
       <use xlink:href="#m6d27efee2f" x="240.999884" y="287.6445" style="stroke: #000000; stroke-width: 0.8"/>
      </g>
     </g>
     <g id="text_7">
      <!-- 01 -->
      <g transform="translate(235.999884 301.58825) scale(0.1 -0.1)">
       <use xlink:href="#TimesNewRomanPSMT-30"/>
       <use xlink:href="#TimesNewRomanPSMT-31" x="50"/>
      </g>
      <!-- 2021-12 -->
      <g transform="translate(224.33504 312.059812) scale(0.1 -0.1)">
       <use xlink:href="#TimesNewRomanPSMT-32"/>
       <use xlink:href="#TimesNewRomanPSMT-30" x="50"/>
       <use xlink:href="#TimesNewRomanPSMT-32" x="100"/>
       <use xlink:href="#TimesNewRomanPSMT-31" x="150"/>
       <use xlink:href="#TimesNewRomanPSMT-2d" x="200"/>
       <use xlink:href="#TimesNewRomanPSMT-31" x="233.300781"/>
       <use xlink:href="#TimesNewRomanPSMT-32" x="283.300781"/>
      </g>
     </g>
    </g>
    <g id="xtick_8">
     <g id="line2d_15">
      <path d="M 273.487899 287.6445 
L 273.487899 21.5325 
" clip-path="url(#pe33ccfa444)" style="fill: none; stroke: #b0b0b0; stroke-width: 0.8; stroke-linecap: square"/>
     </g>
     <g id="line2d_16">
      <g>
       <use xlink:href="#m6d27efee2f" x="273.487899" y="287.6445" style="stroke: #000000; stroke-width: 0.8"/>
      </g>
     </g>
     <g id="text_8">
      <!-- 02 -->
      <g transform="translate(268.487899 301.58825) scale(0.1 -0.1)">
       <use xlink:href="#TimesNewRomanPSMT-30"/>
       <use xlink:href="#TimesNewRomanPSMT-32" x="50"/>
      </g>
     </g>
    </g>
    <g id="xtick_9">
     <g id="line2d_17">
      <path d="M 305.975915 287.6445 
L 305.975915 21.5325 
" clip-path="url(#pe33ccfa444)" style="fill: none; stroke: #b0b0b0; stroke-width: 0.8; stroke-linecap: square"/>
     </g>
     <g id="line2d_18">
      <g>
       <use xlink:href="#m6d27efee2f" x="305.975915" y="287.6445" style="stroke: #000000; stroke-width: 0.8"/>
      </g>
     </g>
     <g id="text_9">
      <!-- 03 -->
      <g transform="translate(300.975915 301.58825) scale(0.1 -0.1)">
       <use xlink:href="#TimesNewRomanPSMT-30"/>
       <use xlink:href="#TimesNewRomanPSMT-33" x="50"/>
      </g>
     </g>
    </g>
    <g id="xtick_10">
     <g id="line2d_19">
      <path d="M 338.463931 287.6445 
L 338.463931 21.5325 
" clip-path="url(#pe33ccfa444)" style="fill: none; stroke: #b0b0b0; stroke-width: 0.8; stroke-linecap: square"/>
     </g>
     <g id="line2d_20">
      <g>
       <use xlink:href="#m6d27efee2f" x="338.463931" y="287.6445" style="stroke: #000000; stroke-width: 0.8"/>
      </g>
     </g>
     <g id="text_10">
      <!-- 04 -->
      <g transform="translate(333.463931 301.58825) scale(0.1 -0.1)">
       <defs>
        <path id="TimesNewRomanPSMT-34" d="M 2978 1563 
L 2978 1119 
L 2409 1119 
L 2409 0 
L 1894 0 
L 1894 1119 
L 100 1119 
L 100 1519 
L 2066 4325 
L 2409 4325 
L 2409 1563 
L 2978 1563 
z
M 1894 1563 
L 1894 3666 
L 406 1563 
L 1894 1563 
z
" transform="scale(0.015625)"/>
       </defs>
       <use xlink:href="#TimesNewRomanPSMT-30"/>
       <use xlink:href="#TimesNewRomanPSMT-34" x="50"/>
      </g>
     </g>
    </g>
    <g id="xtick_11">
     <g id="line2d_21">
      <path d="M 370.951946 287.6445 
L 370.951946 21.5325 
" clip-path="url(#pe33ccfa444)" style="fill: none; stroke: #b0b0b0; stroke-width: 0.8; stroke-linecap: square"/>
     </g>
     <g id="line2d_22">
      <g>
       <use xlink:href="#m6d27efee2f" x="370.951946" y="287.6445" style="stroke: #000000; stroke-width: 0.8"/>
      </g>
     </g>
     <g id="text_11">
      <!-- 05 -->
      <g transform="translate(365.951946 301.58825) scale(0.1 -0.1)">
       <use xlink:href="#TimesNewRomanPSMT-30"/>
       <use xlink:href="#TimesNewRomanPSMT-35" x="50"/>
      </g>
     </g>
    </g>
   </g>
   <g id="matplotlib.axis_2">
    <g id="ytick_1">
     <g id="line2d_23">
      <path d="M 29.839063 279.83516 
L 386.959063 279.83516 
" clip-path="url(#pe33ccfa444)" style="fill: none; stroke: #b0b0b0; stroke-width: 0.8; stroke-linecap: square"/>
     </g>
     <g id="line2d_24">
      <defs>
       <path id="m4b2a072cf8" d="M 0 0 
L -3.5 0 
" style="stroke: #000000; stroke-width: 0.8"/>
      </defs>
      <g>
       <use xlink:href="#m4b2a072cf8" x="29.839063" y="279.83516" style="stroke: #000000; stroke-width: 0.8"/>
      </g>
     </g>
     <g id="text_12">
      <!-- −30 -->
      <g transform="translate(7.2 283.307035) scale(0.1 -0.1)">
       <defs>
        <path id="TimesNewRomanPSMT-2212" d="M 3484 2000 
L 116 2000 
L 116 2256 
L 3484 2256 
L 3484 2000 
z
" transform="scale(0.015625)"/>
       </defs>
       <use xlink:href="#TimesNewRomanPSMT-2212"/>
       <use xlink:href="#TimesNewRomanPSMT-33" x="56.396484"/>
       <use xlink:href="#TimesNewRomanPSMT-30" x="106.396484"/>
      </g>
     </g>
    </g>
    <g id="ytick_2">
     <g id="line2d_25">
      <path d="M 29.839063 229.549517 
L 386.959063 229.549517 
" clip-path="url(#pe33ccfa444)" style="fill: none; stroke: #b0b0b0; stroke-width: 0.8; stroke-linecap: square"/>
     </g>
     <g id="line2d_26">
      <g>
       <use xlink:href="#m4b2a072cf8" x="29.839063" y="229.549517" style="stroke: #000000; stroke-width: 0.8"/>
      </g>
     </g>
     <g id="text_13">
      <!-- −20 -->
      <g transform="translate(7.2 233.021392) scale(0.1 -0.1)">
       <use xlink:href="#TimesNewRomanPSMT-2212"/>
       <use xlink:href="#TimesNewRomanPSMT-32" x="56.396484"/>
       <use xlink:href="#TimesNewRomanPSMT-30" x="106.396484"/>
      </g>
     </g>
    </g>
    <g id="ytick_3">
     <g id="line2d_27">
      <path d="M 29.839063 179.263874 
L 386.959063 179.263874 
" clip-path="url(#pe33ccfa444)" style="fill: none; stroke: #b0b0b0; stroke-width: 0.8; stroke-linecap: square"/>
     </g>
     <g id="line2d_28">
      <g>
       <use xlink:href="#m4b2a072cf8" x="29.839063" y="179.263874" style="stroke: #000000; stroke-width: 0.8"/>
      </g>
     </g>
     <g id="text_14">
      <!-- −10 -->
      <g transform="translate(7.2 182.735749) scale(0.1 -0.1)">
       <use xlink:href="#TimesNewRomanPSMT-2212"/>
       <use xlink:href="#TimesNewRomanPSMT-31" x="56.396484"/>
       <use xlink:href="#TimesNewRomanPSMT-30" x="106.396484"/>
      </g>
     </g>
    </g>
    <g id="ytick_4">
     <g id="line2d_29">
      <path d="M 29.839063 128.978231 
L 386.959063 128.978231 
" clip-path="url(#pe33ccfa444)" style="fill: none; stroke: #b0b0b0; stroke-width: 0.8; stroke-linecap: square"/>
     </g>
     <g id="line2d_30">
      <g>
       <use xlink:href="#m4b2a072cf8" x="29.839063" y="128.978231" style="stroke: #000000; stroke-width: 0.8"/>
      </g>
     </g>
     <g id="text_15">
      <!-- 0 -->
      <g transform="translate(17.839063 132.450106) scale(0.1 -0.1)">
       <use xlink:href="#TimesNewRomanPSMT-30"/>
      </g>
     </g>
    </g>
    <g id="ytick_5">
     <g id="line2d_31">
      <path d="M 29.839063 78.692588 
L 386.959063 78.692588 
" clip-path="url(#pe33ccfa444)" style="fill: none; stroke: #b0b0b0; stroke-width: 0.8; stroke-linecap: square"/>
     </g>
     <g id="line2d_32">
      <g>
       <use xlink:href="#m4b2a072cf8" x="29.839063" y="78.692588" style="stroke: #000000; stroke-width: 0.8"/>
      </g>
     </g>
     <g id="text_16">
      <!-- 10 -->
      <g transform="translate(12.839063 82.164463) scale(0.1 -0.1)">
       <use xlink:href="#TimesNewRomanPSMT-31"/>
       <use xlink:href="#TimesNewRomanPSMT-30" x="50"/>
      </g>
     </g>
    </g>
    <g id="ytick_6">
     <g id="line2d_33">
      <path d="M 29.839063 28.406945 
L 386.959063 28.406945 
" clip-path="url(#pe33ccfa444)" style="fill: none; stroke: #b0b0b0; stroke-width: 0.8; stroke-linecap: square"/>
     </g>
     <g id="line2d_34">
      <g>
       <use xlink:href="#m4b2a072cf8" x="29.839063" y="28.406945" style="stroke: #000000; stroke-width: 0.8"/>
      </g>
     </g>
     <g id="text_17">
      <!-- 20 -->
      <g transform="translate(12.839063 31.87882) scale(0.1 -0.1)">
       <use xlink:href="#TimesNewRomanPSMT-32"/>
       <use xlink:href="#TimesNewRomanPSMT-30" x="50"/>
      </g>
     </g>
    </g>
   </g>
   <g id="line2d_35">
    <path d="M 46.07179 205.385323 
L 49.681569 214.839623 
L 53.065738 223.097539 
L 56.449906 230.765299 
L 59.608463 237.387127 
L 62.76702 243.490979 
L 65.699966 248.693641 
L 68.632912 253.446787 
L 71.340246 257.433691 
L 74.047581 261.034073 
L 76.529304 263.992886 
L 79.011028 266.622777 
L 81.492751 268.921164 
L 83.748863 270.720408 
L 86.004976 272.240589 
L 88.261088 273.478754 
L 90.291589 274.349243 
L 92.32209 274.985924 
L 94.352591 275.38583 
L 96.383092 275.545705 
L 98.413593 275.461983 
L 100.444094 275.130771 
L 102.474595 274.547829 
L 104.505096 273.708543 
L 106.535597 272.607905 
L 108.566098 271.240482 
L 110.596599 269.60039 
L 112.6271 267.681264 
L 114.657601 265.476221 
L 116.913713 262.68178 
L 119.169825 259.514116 
L 121.425937 255.96122 
L 123.682049 252.010064 
L 126.163773 247.186931 
L 128.645496 241.844467 
L 131.12722 235.960659 
L 133.608943 229.511881 
L 136.090667 222.473089 
L 138.798001 214.090911 
L 141.505336 204.941752 
L 144.21267 194.994185 
L 146.920005 184.223944 
L 149.852951 171.618691 
L 153.011508 156.992346 
L 156.621288 139.149917 
L 163.840847 103.087181 
L 165.645736 95.291605 
L 167.225015 89.415508 
L 168.578682 85.26988 
L 169.706738 82.533678 
L 170.609183 80.846291 
L 171.511628 79.614641 
L 172.188462 78.988726 
L 172.865295 78.612867 
L 173.542129 78.479295 
L 174.218963 78.57793 
L 174.895796 78.896909 
L 175.798241 79.642169 
L 176.700686 80.722853 
L 177.828742 82.493436 
L 179.18241 85.149169 
L 180.761688 88.849777 
L 182.566578 93.698421 
L 184.82269 100.432228 
L 187.981247 110.653745 
L 193.395916 129.096914 
L 200.841087 154.293792 
L 205.578922 169.546594 
L 209.865535 182.61649 
L 213.926537 194.284707 
L 217.761928 204.630126 
L 221.371708 213.748657 
L 224.981487 222.255108 
L 228.365655 229.665984 
L 231.749824 236.524935 
L 234.908381 242.423819 
L 237.841327 247.46269 
L 240.774273 252.075287 
L 243.707218 256.257478 
L 246.414553 259.731949 
L 249.121888 262.831638 
L 251.603611 265.339848 
L 254.085335 267.525274 
L 256.341447 269.228192 
L 258.597559 270.656983 
L 260.853671 271.807583 
L 262.884172 272.601588 
L 264.914673 273.163096 
L 266.945174 273.488251 
L 268.975675 273.572875 
L 271.006176 273.412439 
L 273.036677 273.002043 
L 275.067178 272.336385 
L 277.097679 271.409729 
L 279.12818 270.215879 
L 281.158681 268.748136 
L 283.189182 266.999264 
L 285.219683 264.961446 
L 287.250184 262.62624 
L 289.506296 259.671671 
L 291.762408 256.325136 
L 294.01852 252.571899 
L 296.274633 248.395949 
L 298.530745 243.779931 
L 301.012468 238.171605 
L 303.494192 231.981127 
L 305.975915 225.179573 
L 308.457639 217.736365 
L 310.939362 209.619988 
L 313.646697 199.961614 
L 316.354031 189.429459 
L 319.061366 177.999897 
L 321.994312 164.609462 
L 325.152869 149.104644 
L 329.665093 125.637858 
L 333.500484 106.044321 
L 335.530985 96.763253 
L 337.110263 90.512213 
L 338.463931 86.03026 
L 339.591987 83.004295 
L 340.720043 80.668096 
L 341.622488 79.306055 
L 342.524933 78.389803 
L 343.201766 77.986699 
L 343.8786 77.817273 
L 344.555434 77.870615 
L 345.232267 78.13445 
L 346.134712 78.790842 
L 347.037157 79.765681 
L 348.165213 81.382831 
L 349.293269 83.386279 
L 350.646937 86.221375 
L 352.451826 90.592552 
L 354.482327 96.122891 
L 357.189662 104.189093 
L 361.025053 116.391018 
L 370.726335 148.055578 
L 370.726335 148.055578 
" clip-path="url(#pe33ccfa444)" style="fill: none; stroke: #ff0000; stroke-linecap: square"/>
   </g>
   <g id="line2d_36">
    <path d="M 46.07179 205.386346 
L 49.591325 214.613151 
L 53.11086 223.206897 
L 56.359661 230.56887 
L 59.608463 237.387663 
L 62.586531 243.154846 
L 65.564599 248.46798 
L 68.542667 253.308112 
L 71.250002 257.306919 
L 73.957337 260.918977 
L 76.393938 263.838383 
L 78.830539 266.447023 
L 81.537874 268.961876 
L 83.974475 270.887844 
L 86.140342 272.322042 
L 88.30621 273.502748 
L 90.472078 274.414067 
L 92.637946 275.06336 
L 94.53308 275.408355 
L 96.157481 275.542716 
L 98.052615 275.494023 
L 100.218483 275.181783 
L 102.113617 274.669694 
L 104.279485 273.813352 
L 106.174619 272.823558 
L 108.069753 271.600948 
L 109.964887 270.138523 
L 111.860021 268.438206 
L 114.025889 266.190487 
L 116.191757 263.614159 
L 118.357625 260.698822 
L 120.794226 256.997508 
L 123.230827 252.830007 
L 125.396695 248.728615 
L 127.562562 244.242 
L 129.999164 238.701757 
L 132.706498 231.925999 
L 135.413833 224.453652 
L 138.121167 216.256929 
L 140.828502 207.302028 
L 143.535837 197.556507 
L 146.243171 186.992884 
L 149.22124 174.413569 
L 152.199308 160.849889 
L 155.718843 143.698898 
L 164.382313 100.649384 
L 166.277448 92.82079 
L 167.631115 88.079948 
L 168.714049 84.908566 
L 169.796983 82.347632 
L 170.879917 80.430942 
L 171.692117 79.425363 
L 172.504317 78.785913 
L 173.316518 78.497659 
L 174.128718 78.55511 
L 174.940919 78.927702 
L 175.753119 79.598848 
L 176.565319 80.543501 
L 177.648253 82.182962 
L 179.001921 84.766673 
L 180.355588 87.845478 
L 181.979989 92.06281 
L 184.145856 98.349834 
L 186.853191 106.927819 
L 191.184926 121.507796 
L 201.472798 156.372191 
L 206.346 171.940338 
L 210.677736 185.008132 
L 214.468004 195.788068 
L 218.258273 205.921921 
L 221.777808 214.737518 
L 225.297343 222.971866 
L 228.816878 230.615568 
L 232.336413 237.6593 
L 235.314481 243.149915 
L 238.021816 247.756753 
L 240.72915 252.012463 
L 243.707218 256.258095 
L 246.414553 259.733291 
L 249.121888 262.835274 
L 252.099956 265.802919 
L 254.536557 267.887887 
L 256.973158 269.657839 
L 259.139026 270.959747 
L 261.304894 272.003119 
L 263.470761 272.788436 
L 265.636629 273.306642 
L 267.802497 273.550822 
L 269.426897 273.560165 
L 271.322032 273.367278 
L 273.217166 272.952044 
L 274.841567 272.423644 
L 276.736701 271.596596 
L 278.902569 270.364643 
L 281.068436 268.821717 
L 283.234304 266.95648 
L 285.400172 264.766903 
L 287.56604 262.237253 
L 290.002641 258.968044 
L 292.439242 255.241503 
L 294.875843 251.033569 
L 297.312444 246.327503 
L 299.749045 241.096167 
L 302.185647 235.319745 
L 304.892981 228.223865 
L 307.329582 221.199421 
L 309.766184 213.540596 
L 312.202785 205.216981 
L 314.910119 195.15477 
L 317.617454 184.205371 
L 320.324789 172.355168 
L 323.302857 158.310034 
L 326.822392 140.536383 
L 334.132195 103.035356 
L 336.02733 94.693095 
L 337.65173 88.6164 
L 339.005398 84.496474 
L 340.088332 81.891728 
L 341.171265 79.930819 
L 341.983466 78.889929 
L 342.795666 78.202327 
L 343.607867 77.859849 
L 344.420067 77.846024 
L 345.232267 78.134934 
L 346.044468 78.713535 
L 346.856668 79.549091 
L 347.939602 81.028021 
L 349.293269 83.387715 
L 350.646937 86.223049 
L 352.271337 90.132122 
L 354.437205 95.996878 
L 357.14454 104.052534 
L 360.934808 116.101399 
L 370.681213 147.913931 
L 370.681213 147.913931 
" clip-path="url(#pe33ccfa444)" style="fill: none; stroke-dasharray: 7.4,3.2; stroke-dashoffset: 0; stroke: #ff0000; stroke-width: 2"/>
   </g>
   <g id="line2d_37">
    <path d="M 46.07179 40.566008 
L 48.102291 41.560688 
L 50.358403 42.917957 
L 52.840126 44.694833 
L 55.32185 46.746407 
L 58.029184 49.273103 
L 60.96213 52.322629 
L 64.120687 55.938771 
L 67.504856 60.160694 
L 71.114635 65.022289 
L 75.175637 70.887528 
L 79.46225 77.481457 
L 84.200086 85.188329 
L 89.389144 94.057143 
L 95.480647 104.928 
L 102.925817 118.695562 
L 123.907661 157.798377 
L 128.645496 165.986516 
L 132.480887 172.179348 
L 135.639444 176.875182 
L 138.346779 180.52409 
L 140.828502 183.488641 
L 142.859003 185.586488 
L 144.663893 187.157959 
L 146.243171 188.270658 
L 147.82245 189.102595 
L 149.176117 189.562245 
L 150.304173 189.744969 
L 151.432229 189.725966 
L 152.560286 189.484826 
L 153.688342 188.999096 
L 154.816398 188.244214 
L 155.944454 187.193551 
L 157.07251 185.818607 
L 158.200566 184.089446 
L 159.328622 181.975496 
L 160.682289 178.888854 
L 162.035957 175.158813 
L 163.389624 170.751263 
L 164.968903 164.737099 
L 166.548181 157.818106 
L 168.578682 147.774533 
L 171.286017 133.065807 
L 176.249464 105.994202 
L 178.731187 93.85776 
L 180.987299 83.993965 
L 183.0178 76.096902 
L 185.048301 69.095117 
L 187.078802 62.931503 
L 189.109303 57.540315 
L 190.914193 53.342987 
L 192.719083 49.659321 
L 194.523972 46.448273 
L 196.328862 43.672349 
L 198.133752 41.297586 
L 199.938642 39.293361 
L 201.743532 37.632116 
L 203.548421 36.28906 
L 205.353311 35.241877 
L 207.158201 34.470445 
L 208.963091 33.956589 
L 210.76798 33.683853 
L 212.57287 33.637303 
L 214.37776 33.80335 
L 216.408261 34.228877 
L 218.438762 34.891747 
L 220.469263 35.777376 
L 222.725375 37.006552 
L 225.207098 38.637638 
L 227.688822 40.54169 
L 230.396156 42.908977 
L 233.329102 45.791315 
L 236.262048 48.980398 
L 239.420605 52.732481 
L 242.804774 57.09027 
L 246.414553 62.09245 
L 250.475555 68.11798 
L 254.762168 74.891001 
L 259.500004 82.815151 
L 264.689062 91.952269 
L 270.554954 102.760412 
L 277.548901 116.147339 
L 300.335635 160.21496 
L 304.396637 167.339053 
L 307.555194 172.47364 
L 310.262528 176.491437 
L 312.744252 179.775273 
L 314.774753 182.109882 
L 316.579642 183.863673 
L 318.158921 185.106058 
L 319.512588 185.920314 
L 320.866256 186.470774 
L 321.994312 186.702806 
L 323.122368 186.704626 
L 324.250424 186.451136 
L 325.37848 185.914829 
L 326.506536 185.065869 
L 327.634592 183.872392 
L 328.762648 182.301132 
L 329.890704 180.318504 
L 331.018761 177.89232 
L 332.146817 174.994261 
L 333.500484 170.864666 
L 334.854151 166.011149 
L 336.43343 159.461293 
L 338.23832 150.937108 
L 340.494432 139.140935 
L 347.48838 101.681741 
L 349.970103 90.037992 
L 352.226215 80.556476 
L 354.256716 72.922061 
L 356.287217 66.100807 
L 358.317718 60.0402 
L 360.348219 54.683108 
L 362.37872 49.973118 
L 364.409221 45.857135 
L 366.439722 42.286454 
L 368.244612 39.534588 
L 370.049502 37.15077 
L 370.726335 36.346481 
L 370.726335 36.346481 
" clip-path="url(#pe33ccfa444)" style="fill: none; stroke: #008000; stroke-linecap: square"/>
   </g>
   <g id="line2d_38">
    <path d="M 46.07179 40.569962 
L 48.237657 41.637187 
L 50.674259 43.129317 
L 53.381593 45.120416 
L 56.088928 47.435207 
L 59.33773 50.596035 
L 62.857265 54.455004 
L 66.3768 58.719707 
L 69.354868 62.60922 
L 73.686603 68.69248 
L 78.289072 75.643094 
L 83.433008 83.917865 
L 88.847677 93.120451 
L 94.53308 103.210192 
L 103.196551 119.205742 
L 123.50156 157.078836 
L 128.374763 165.536224 
L 132.165031 171.688792 
L 135.413833 176.55717 
L 138.391901 180.582495 
L 140.828502 183.490197 
L 142.99437 185.71558 
L 144.889504 187.334155 
L 146.513905 188.435126 
L 147.867572 189.122511 
L 149.22124 189.573444 
L 150.574907 189.759524 
L 151.657841 189.69684 
L 152.740775 189.424173 
L 153.823708 188.922486 
L 154.906642 188.170528 
L 155.989576 187.144336 
L 157.07251 185.819124 
L 158.155444 184.164445 
L 159.238378 182.157232 
L 160.592045 179.111977 
L 161.945712 175.425747 
L 163.29938 171.063922 
L 164.653047 166.011276 
L 166.277448 159.062283 
L 168.172582 149.869298 
L 170.609183 136.825053 
L 176.565319 104.380677 
L 179.001921 92.61391 
L 181.167788 83.254863 
L 183.062923 75.932243 
L 184.958057 69.389123 
L 186.853191 63.576483 
L 188.748325 58.446009 
L 190.643459 53.939556 
L 192.538594 50.006455 
L 194.433728 46.599044 
L 196.328862 43.671613 
L 198.223996 41.193437 
L 199.848397 39.385835 
L 201.472798 37.862775 
L 203.367932 36.414016 
L 204.992333 35.427997 
L 206.887467 34.56972 
L 208.511868 34.060548 
L 210.407002 33.721164 
L 212.302137 33.633087 
L 214.197271 33.778358 
L 216.092405 34.146396 
L 218.258273 34.824046 
L 220.424141 35.758531 
L 222.590008 36.929216 
L 224.755876 38.319576 
L 227.733944 40.579084 
L 230.712012 43.208949 
L 233.419347 45.890758 
L 236.126681 48.827057 
L 239.375483 52.680504 
L 242.624285 56.852862 
L 246.14382 61.706471 
L 249.934088 67.296805 
L 253.724357 73.216386 
L 258.597559 81.274714 
L 264.553695 91.712197 
L 270.780565 103.18793 
L 278.361102 117.731877 
L 299.749045 159.151687 
L 304.080781 166.807661 
L 307.329582 172.12442 
L 310.036917 176.175427 
L 312.473518 179.44069 
L 314.639386 181.967006 
L 316.53452 183.825431 
L 318.158921 185.108239 
L 319.512588 185.922114 
L 320.866256 186.472104 
L 321.949189 186.698298 
L 323.032123 186.71359 
L 324.115057 186.495581 
L 325.197991 186.020626 
L 326.280925 185.262863 
L 327.363859 184.191204 
L 328.446793 182.779328 
L 329.529726 180.997689 
L 330.61266 178.816766 
L 331.966328 175.48859 
L 333.319995 171.454916 
L 334.673662 166.697053 
L 336.298063 160.05508 
L 338.193197 151.159222 
L 340.629798 138.404279 
L 347.398135 102.127567 
L 349.834736 90.640232 
L 352.000604 81.455534 
L 354.166472 73.243756 
L 356.332339 65.957643 
L 358.498207 59.53622 
L 360.393341 54.571994 
L 362.288476 50.17045 
L 364.18361 46.287024 
L 366.078744 42.883955 
L 367.973878 39.921896 
L 369.869013 37.375787 
L 370.681213 36.402305 
L 370.681213 36.402305 
" clip-path="url(#pe33ccfa444)" style="fill: none; stroke-dasharray: 7.4,3.2; stroke-dashoffset: 0; stroke: #008000; stroke-width: 2"/>
   </g>
   <g id="line2d_39">
    <path d="M 46.07179 179.750507 
L 48.779124 179.213829 
L 51.486459 178.44891 
L 54.419405 177.383989 
L 57.577962 175.98552 
L 60.96213 174.223052 
L 64.346299 172.211929 
L 67.956078 169.817943 
L 72.01708 166.847577 
L 76.303693 163.427401 
L 81.041529 159.346981 
L 86.230587 154.564839 
L 91.870867 149.055464 
L 98.413593 142.343909 
L 106.986819 133.201485 
L 123.682049 115.319403 
L 129.096719 109.899392 
L 133.383332 105.92251 
L 136.7675 103.065342 
L 139.700446 100.856942 
L 142.407781 99.099001 
L 144.663893 97.888117 
L 146.694394 97.036882 
L 148.499284 96.504477 
L 150.078562 96.239862 
L 151.657841 96.191175 
L 153.237119 96.389354 
L 154.590787 96.782306 
L 155.944454 97.407211 
L 157.298121 98.290983 
L 158.651789 99.462118 
L 160.005456 100.949525 
L 161.359123 102.780512 
L 162.71279 104.977659 
L 164.292069 108.021076 
L 165.871348 111.576771 
L 167.676237 116.212939 
L 169.93235 122.668911 
L 177.603131 145.237024 
L 179.859243 150.927094 
L 181.889744 155.507809 
L 183.920245 159.580608 
L 185.950746 163.170357 
L 187.981247 166.310845 
L 190.011748 169.038407 
L 192.042249 171.388583 
L 194.07275 173.39455 
L 196.103251 175.086518 
L 198.133752 176.491638 
L 200.164253 177.634145 
L 202.194754 178.53562 
L 204.225255 179.215269 
L 206.481367 179.731026 
L 208.737479 180.014867 
L 210.993592 180.085251 
L 213.475315 179.935656 
L 215.957038 179.566982 
L 218.664373 178.935095 
L 221.371708 178.082756 
L 224.304654 176.931009 
L 227.463211 175.447273 
L 230.847379 173.601982 
L 234.457158 171.368954 
L 238.292549 168.725733 
L 242.353551 165.653989 
L 246.865775 161.947952 
L 251.603611 157.765268 
L 256.792669 152.890114 
L 262.658561 147.07254 
L 269.652509 139.811682 
L 279.805014 128.909351 
L 291.311186 116.612618 
L 296.951466 110.899009 
L 301.463691 106.636396 
L 305.07347 103.516811 
L 308.232027 101.073071 
L 310.939362 99.25064 
L 313.421085 97.854951 
L 315.451586 96.949933 
L 317.256476 96.357683 
L 319.061366 95.998549 
L 320.640644 95.905117 
L 322.219923 96.048401 
L 323.57359 96.384927 
L 324.927258 96.94359 
L 326.280925 97.750282 
L 327.634592 98.832734 
L 328.98826 100.21962 
L 330.341927 101.938929 
L 331.695594 104.015346 
L 333.049262 106.466416 
L 334.62854 109.805908 
L 336.43343 114.225107 
L 338.463931 119.841906 
L 341.622488 129.360561 
L 345.457879 140.810535 
L 347.939602 147.528867 
L 350.195714 152.988779 
L 352.226215 157.35244 
L 354.256716 161.210342 
L 356.287217 164.593107 
L 358.317718 167.537128 
L 360.348219 170.079563 
L 362.37872 172.255834 
L 364.409221 174.098537 
L 366.439722 175.637109 
L 368.470223 176.897874 
L 370.500724 177.904266 
L 370.726335 178.001314 
L 370.726335 178.001314 
" clip-path="url(#pe33ccfa444)" style="fill: none; stroke: #0000ff; stroke-linecap: square"/>
   </g>
   <g id="line2d_40">
    <path d="M 46.07179 179.750212 
L 48.779124 179.213631 
L 51.486459 178.448342 
L 54.193794 177.47435 
L 57.442595 176.050357 
L 60.691397 174.373598 
L 64.210932 172.296285 
L 67.730467 169.974576 
L 72.062202 166.812403 
L 76.123204 163.576338 
L 80.725673 159.627202 
L 85.869609 154.907502 
L 91.825745 149.101231 
L 97.781881 143.0034 
L 105.633152 134.663319 
L 121.87716 117.19409 
L 127.562562 111.398778 
L 131.894298 107.264353 
L 135.413833 104.173861 
L 138.391901 101.807134 
L 141.369969 99.737082 
L 143.80657 98.318084 
L 145.972438 97.311312 
L 147.867572 96.664866 
L 149.762706 96.276792 
L 151.387107 96.183476 
L 152.740775 96.298622 
L 154.094442 96.612867 
L 155.448109 97.149816 
L 156.801777 97.935603 
L 158.155444 98.998329 
L 159.509111 100.366157 
L 160.862778 102.068774 
L 162.216446 104.12928 
L 163.570113 106.566128 
L 165.194514 109.991555 
L 166.818915 113.941394 
L 168.984782 119.887715 
L 172.233584 129.643367 
L 176.023852 140.90099 
L 178.460454 147.471392 
L 180.626321 152.717021 
L 182.792189 157.379435 
L 184.958057 161.47301 
L 186.853191 164.619935 
L 189.019059 167.753934 
L 190.914193 170.127479 
L 192.809327 172.185036 
L 194.704461 173.952808 
L 196.599596 175.455298 
L 198.765463 176.874285 
L 200.931331 178.001905 
L 203.097199 178.864372 
L 205.263067 179.48248 
L 207.428934 179.877498 
L 209.594802 180.065996 
L 212.031403 180.050685 
L 214.468004 179.813672 
L 216.904605 179.37241 
L 219.61194 178.661234 
L 222.590008 177.632468 
L 225.568076 176.366708 
L 228.816878 174.740129 
L 232.336413 172.712899 
L 235.855948 170.435777 
L 239.91695 167.528813 
L 244.248685 164.133938 
L 249.121888 159.992571 
L 254.80729 154.787688 
L 259.951226 149.793434 
L 266.178096 143.455394 
L 273.217166 136.014305 
L 282.15137 126.372827 
L 291.356308 116.565101 
L 297.312444 110.546733 
L 301.64418 106.473715 
L 305.434448 103.223788 
L 308.412516 100.943115 
L 311.119851 99.139724 
L 313.556452 97.787626 
L 315.72232 96.847489 
L 317.617454 96.266417 
L 319.241855 95.976681 
L 320.866256 95.909825 
L 322.490656 96.099248 
L 323.844324 96.478353 
L 325.197991 97.084252 
L 326.551658 97.944322 
L 327.905326 99.085465 
L 329.258993 100.536811 
L 330.61266 102.325457 
L 331.966328 104.475822 
L 333.319995 107.002708 
L 334.944396 110.53546 
L 336.83953 115.300036 
L 339.005398 121.427626 
L 347.668869 146.830006 
L 349.834736 152.157757 
L 352.000604 156.89299 
L 354.166472 161.048698 
L 356.061606 164.239483 
L 357.95674 167.043408 
L 359.851874 169.492885 
L 361.747009 171.615995 
L 363.912876 173.677495 
L 365.808011 175.189548 
L 367.973878 176.61402 
L 370.139746 177.742838 
L 370.681213 177.982284 
L 370.681213 177.982284 
" clip-path="url(#pe33ccfa444)" style="fill: none; stroke-dasharray: 7.4,3.2; stroke-dashoffset: 0; stroke: #0000ff; stroke-width: 2"/>
   </g>
   <g id="patch_3">
    <path d="M 29.839063 287.6445 
L 29.839063 21.5325 
" style="fill: none; stroke: #000000; stroke-width: 0.8; stroke-linejoin: miter; stroke-linecap: square"/>
   </g>
   <g id="patch_4">
    <path d="M 386.959063 287.6445 
L 386.959063 21.5325 
" style="fill: none; stroke: #000000; stroke-width: 0.8; stroke-linejoin: miter; stroke-linecap: square"/>
   </g>
   <g id="patch_5">
    <path d="M 29.839063 287.6445 
L 386.959063 287.6445 
" style="fill: none; stroke: #000000; stroke-width: 0.8; stroke-linejoin: miter; stroke-linecap: square"/>
   </g>
   <g id="patch_6">
    <path d="M 29.839063 21.5325 
L 386.959063 21.5325 
" style="fill: none; stroke: #000000; stroke-width: 0.8; stroke-linejoin: miter; stroke-linecap: square"/>
   </g>
   <g id="text_18">
    <!-- SSCWeb/geotail/GSE | CDAWeb/GE_OR_DEF/GSE_POS -->
    <g transform="translate(66.303125 15.5325) scale(0.12 -0.12)">
     <defs>
      <path id="TimesNewRomanPSMT-53" d="M 2934 4334 
L 2934 2869 
L 2819 2869 
Q 2763 3291 2617 3541 
Q 2472 3791 2203 3937 
Q 1934 4084 1647 4084 
Q 1322 4084 1109 3886 
Q 897 3688 897 3434 
Q 897 3241 1031 3081 
Q 1225 2847 1953 2456 
Q 2547 2138 2764 1967 
Q 2981 1797 3098 1565 
Q 3216 1334 3216 1081 
Q 3216 600 2842 251 
Q 2469 -97 1881 -97 
Q 1697 -97 1534 -69 
Q 1438 -53 1133 45 
Q 828 144 747 144 
Q 669 144 623 97 
Q 578 50 556 -97 
L 441 -97 
L 441 1356 
L 556 1356 
Q 638 900 775 673 
Q 913 447 1195 297 
Q 1478 147 1816 147 
Q 2206 147 2432 353 
Q 2659 559 2659 841 
Q 2659 997 2573 1156 
Q 2488 1316 2306 1453 
Q 2184 1547 1640 1851 
Q 1097 2156 867 2337 
Q 638 2519 519 2737 
Q 400 2956 400 3219 
Q 400 3675 750 4004 
Q 1100 4334 1641 4334 
Q 1978 4334 2356 4169 
Q 2531 4091 2603 4091 
Q 2684 4091 2736 4139 
Q 2788 4188 2819 4334 
L 2934 4334 
z
" transform="scale(0.015625)"/>
      <path id="TimesNewRomanPSMT-43" d="M 3853 4334 
L 3950 2894 
L 3853 2894 
Q 3659 3541 3300 3825 
Q 2941 4109 2438 4109 
Q 2016 4109 1675 3895 
Q 1334 3681 1139 3212 
Q 944 2744 944 2047 
Q 944 1472 1128 1050 
Q 1313 628 1683 403 
Q 2053 178 2528 178 
Q 2941 178 3256 354 
Q 3572 531 3950 1056 
L 4047 994 
Q 3728 428 3303 165 
Q 2878 -97 2294 -97 
Q 1241 -97 663 684 
Q 231 1266 231 2053 
Q 231 2688 515 3219 
Q 800 3750 1298 4042 
Q 1797 4334 2388 4334 
Q 2847 4334 3294 4109 
Q 3425 4041 3481 4041 
Q 3566 4041 3628 4100 
Q 3709 4184 3744 4334 
L 3853 4334 
z
" transform="scale(0.015625)"/>
      <path id="TimesNewRomanPSMT-57" d="M 5991 4238 
L 5991 4122 
Q 5825 4122 5722 4062 
Q 5619 4003 5525 3841 
Q 5463 3731 5328 3319 
L 4147 -97 
L 4022 -97 
L 3056 2613 
L 2097 -97 
L 1984 -97 
L 725 3422 
Q 584 3816 547 3888 
Q 484 4006 376 4064 
Q 269 4122 84 4122 
L 84 4238 
L 1653 4238 
L 1653 4122 
L 1578 4122 
Q 1413 4122 1325 4047 
Q 1238 3972 1238 3866 
Q 1238 3756 1375 3363 
L 2209 984 
L 2913 3006 
L 2788 3363 
L 2688 3647 
Q 2622 3803 2541 3922 
Q 2500 3981 2441 4022 
Q 2363 4078 2284 4103 
Q 2225 4122 2097 4122 
L 2097 4238 
L 3747 4238 
L 3747 4122 
L 3634 4122 
Q 3459 4122 3378 4047 
Q 3297 3972 3297 3844 
Q 3297 3684 3438 3288 
L 4250 984 
L 5056 3319 
Q 5194 3706 5194 3856 
Q 5194 3928 5148 3990 
Q 5103 4053 5034 4078 
Q 4916 4122 4725 4122 
L 4725 4238 
L 5991 4238 
z
" transform="scale(0.015625)"/>
      <path id="TimesNewRomanPSMT-65" d="M 681 1784 
Q 678 1147 991 784 
Q 1303 422 1725 422 
Q 2006 422 2214 576 
Q 2422 731 2563 1106 
L 2659 1044 
Q 2594 616 2278 264 
Q 1963 -88 1488 -88 
Q 972 -88 605 314 
Q 238 716 238 1394 
Q 238 2128 614 2539 
Q 991 2950 1559 2950 
Q 2041 2950 2350 2633 
Q 2659 2316 2659 1784 
L 681 1784 
z
M 681 1966 
L 2006 1966 
Q 1991 2241 1941 2353 
Q 1863 2528 1708 2628 
Q 1553 2728 1384 2728 
Q 1125 2728 920 2526 
Q 716 2325 681 1966 
z
" transform="scale(0.015625)"/>
      <path id="TimesNewRomanPSMT-62" d="M 984 2369 
Q 1400 2947 1881 2947 
Q 2322 2947 2650 2570 
Q 2978 2194 2978 1541 
Q 2978 778 2472 313 
Q 2038 -88 1503 -88 
Q 1253 -88 995 3 
Q 738 94 469 275 
L 469 3241 
Q 469 3728 445 3840 
Q 422 3953 372 3993 
Q 322 4034 247 4034 
Q 159 4034 28 3984 
L -16 4094 
L 844 4444 
L 984 4444 
L 984 2369 
z
M 984 2169 
L 984 456 
Q 1144 300 1314 220 
Q 1484 141 1663 141 
Q 1947 141 2192 453 
Q 2438 766 2438 1363 
Q 2438 1913 2192 2208 
Q 1947 2503 1634 2503 
Q 1469 2503 1303 2419 
Q 1178 2356 984 2169 
z
" transform="scale(0.015625)"/>
      <path id="TimesNewRomanPSMT-2f" d="M 1794 4444 
L 259 -88 
L 9 -88 
L 1544 4444 
L 1794 4444 
z
" transform="scale(0.015625)"/>
      <path id="TimesNewRomanPSMT-67" d="M 966 1044 
Q 703 1172 562 1401 
Q 422 1631 422 1909 
Q 422 2334 742 2640 
Q 1063 2947 1563 2947 
Q 1972 2947 2272 2747 
L 2878 2747 
Q 3013 2747 3034 2739 
Q 3056 2731 3066 2713 
Q 3084 2684 3084 2613 
Q 3084 2531 3069 2500 
Q 3059 2484 3036 2475 
Q 3013 2466 2878 2466 
L 2506 2466 
Q 2681 2241 2681 1891 
Q 2681 1491 2375 1206 
Q 2069 922 1553 922 
Q 1341 922 1119 984 
Q 981 866 932 777 
Q 884 688 884 625 
Q 884 572 936 522 
Q 988 472 1138 450 
Q 1225 438 1575 428 
Q 2219 413 2409 384 
Q 2700 344 2873 169 
Q 3047 -6 3047 -263 
Q 3047 -616 2716 -925 
Q 2228 -1381 1444 -1381 
Q 841 -1381 425 -1109 
Q 191 -953 191 -784 
Q 191 -709 225 -634 
Q 278 -519 444 -313 
Q 466 -284 763 25 
Q 600 122 533 198 
Q 466 275 466 372 
Q 466 481 555 628 
Q 644 775 966 1044 
z
M 1509 2797 
Q 1278 2797 1122 2612 
Q 966 2428 966 2047 
Q 966 1553 1178 1281 
Q 1341 1075 1591 1075 
Q 1828 1075 1981 1253 
Q 2134 1431 2134 1813 
Q 2134 2309 1919 2591 
Q 1759 2797 1509 2797 
z
M 934 0 
Q 788 -159 713 -296 
Q 638 -434 638 -550 
Q 638 -700 819 -813 
Q 1131 -1006 1722 -1006 
Q 2284 -1006 2551 -807 
Q 2819 -609 2819 -384 
Q 2819 -222 2659 -153 
Q 2497 -84 2016 -72 
Q 1313 -53 934 0 
z
" transform="scale(0.015625)"/>
      <path id="TimesNewRomanPSMT-6f" d="M 1600 2947 
Q 2250 2947 2644 2453 
Q 2978 2031 2978 1484 
Q 2978 1100 2793 706 
Q 2609 313 2286 112 
Q 1963 -88 1566 -88 
Q 919 -88 538 428 
Q 216 863 216 1403 
Q 216 1797 411 2186 
Q 606 2575 925 2761 
Q 1244 2947 1600 2947 
z
M 1503 2744 
Q 1338 2744 1170 2645 
Q 1003 2547 900 2300 
Q 797 2053 797 1666 
Q 797 1041 1045 587 
Q 1294 134 1700 134 
Q 2003 134 2200 384 
Q 2397 634 2397 1244 
Q 2397 2006 2069 2444 
Q 1847 2744 1503 2744 
z
" transform="scale(0.015625)"/>
      <path id="TimesNewRomanPSMT-74" d="M 1031 3803 
L 1031 2863 
L 1700 2863 
L 1700 2644 
L 1031 2644 
L 1031 788 
Q 1031 509 1111 412 
Q 1191 316 1316 316 
Q 1419 316 1516 380 
Q 1613 444 1666 569 
L 1788 569 
Q 1678 263 1478 108 
Q 1278 -47 1066 -47 
Q 922 -47 784 33 
Q 647 113 581 261 
Q 516 409 516 719 
L 516 2644 
L 63 2644 
L 63 2747 
Q 234 2816 414 2980 
Q 594 3144 734 3369 
Q 806 3488 934 3803 
L 1031 3803 
z
" transform="scale(0.015625)"/>
      <path id="TimesNewRomanPSMT-61" d="M 1822 413 
Q 1381 72 1269 19 
Q 1100 -59 909 -59 
Q 613 -59 420 144 
Q 228 347 228 678 
Q 228 888 322 1041 
Q 450 1253 767 1440 
Q 1084 1628 1822 1897 
L 1822 2009 
Q 1822 2438 1686 2597 
Q 1550 2756 1291 2756 
Q 1094 2756 978 2650 
Q 859 2544 859 2406 
L 866 2225 
Q 866 2081 792 2003 
Q 719 1925 600 1925 
Q 484 1925 411 2006 
Q 338 2088 338 2228 
Q 338 2497 613 2722 
Q 888 2947 1384 2947 
Q 1766 2947 2009 2819 
Q 2194 2722 2281 2516 
Q 2338 2381 2338 1966 
L 2338 994 
Q 2338 584 2353 492 
Q 2369 400 2405 369 
Q 2441 338 2488 338 
Q 2538 338 2575 359 
Q 2641 400 2828 588 
L 2828 413 
Q 2478 -56 2159 -56 
Q 2006 -56 1915 50 
Q 1825 156 1822 413 
z
M 1822 616 
L 1822 1706 
Q 1350 1519 1213 1441 
Q 966 1303 859 1153 
Q 753 1003 753 825 
Q 753 600 887 451 
Q 1022 303 1197 303 
Q 1434 303 1822 616 
z
" transform="scale(0.015625)"/>
      <path id="TimesNewRomanPSMT-69" d="M 928 4444 
Q 1059 4444 1151 4351 
Q 1244 4259 1244 4128 
Q 1244 3997 1151 3903 
Q 1059 3809 928 3809 
Q 797 3809 703 3903 
Q 609 3997 609 4128 
Q 609 4259 701 4351 
Q 794 4444 928 4444 
z
M 1188 2947 
L 1188 647 
Q 1188 378 1227 289 
Q 1266 200 1342 156 
Q 1419 113 1622 113 
L 1622 0 
L 231 0 
L 231 113 
Q 441 113 512 153 
Q 584 194 626 287 
Q 669 381 669 647 
L 669 1750 
Q 669 2216 641 2353 
Q 619 2453 572 2492 
Q 525 2531 444 2531 
Q 356 2531 231 2484 
L 188 2597 
L 1050 2947 
L 1188 2947 
z
" transform="scale(0.015625)"/>
      <path id="TimesNewRomanPSMT-6c" d="M 1184 4444 
L 1184 647 
Q 1184 378 1223 290 
Q 1263 203 1344 158 
Q 1425 113 1647 113 
L 1647 0 
L 244 0 
L 244 113 
Q 441 113 512 153 
Q 584 194 625 287 
Q 666 381 666 647 
L 666 3247 
Q 666 3731 644 3842 
Q 622 3953 573 3993 
Q 525 4034 450 4034 
Q 369 4034 244 3984 
L 191 4094 
L 1044 4444 
L 1184 4444 
z
" transform="scale(0.015625)"/>
      <path id="TimesNewRomanPSMT-47" d="M 3928 4334 
L 4038 2997 
L 3928 2997 
Q 3763 3497 3500 3750 
Q 3122 4116 2528 4116 
Q 1719 4116 1297 3475 
Q 944 2934 944 2188 
Q 944 1581 1178 1081 
Q 1413 581 1792 348 
Q 2172 116 2572 116 
Q 2806 116 3025 175 
Q 3244 234 3447 350 
L 3447 1575 
Q 3447 1894 3398 1992 
Q 3350 2091 3248 2142 
Q 3147 2194 2891 2194 
L 2891 2313 
L 4531 2313 
L 4531 2194 
L 4453 2194 
Q 4209 2194 4119 2031 
Q 4056 1916 4056 1575 
L 4056 278 
Q 3697 84 3347 -6 
Q 2997 -97 2569 -97 
Q 1341 -97 703 691 
Q 225 1281 225 2053 
Q 225 2613 494 3125 
Q 813 3734 1369 4063 
Q 1834 4334 2469 4334 
Q 2700 4334 2889 4296 
Q 3078 4259 3425 4131 
Q 3600 4066 3659 4066 
Q 3719 4066 3761 4120 
Q 3803 4175 3813 4334 
L 3928 4334 
z
" transform="scale(0.015625)"/>
      <path id="TimesNewRomanPSMT-45" d="M 1338 4006 
L 1338 2331 
L 2269 2331 
Q 2631 2331 2753 2441 
Q 2916 2584 2934 2947 
L 3050 2947 
L 3050 1472 
L 2934 1472 
Q 2891 1781 2847 1869 
Q 2791 1978 2662 2040 
Q 2534 2103 2269 2103 
L 1338 2103 
L 1338 706 
Q 1338 425 1363 364 
Q 1388 303 1450 267 
Q 1513 231 1688 231 
L 2406 231 
Q 2766 231 2928 281 
Q 3091 331 3241 478 
Q 3434 672 3638 1063 
L 3763 1063 
L 3397 0 
L 131 0 
L 131 116 
L 281 116 
Q 431 116 566 188 
Q 666 238 702 338 
Q 738 438 738 747 
L 738 3500 
Q 738 3903 656 3997 
Q 544 4122 281 4122 
L 131 4122 
L 131 4238 
L 3397 4238 
L 3444 3309 
L 3322 3309 
Q 3256 3644 3176 3769 
Q 3097 3894 2941 3959 
Q 2816 4006 2500 4006 
L 1338 4006 
z
" transform="scale(0.015625)"/>
      <path id="TimesNewRomanPSMT-20" transform="scale(0.015625)"/>
      <path id="TimesNewRomanPSMT-7c" d="M 763 4444 
L 763 -1381 
L 503 -1381 
L 503 4444 
L 763 4444 
z
" transform="scale(0.015625)"/>
      <path id="TimesNewRomanPSMT-44" d="M 109 0 
L 109 116 
L 269 116 
Q 538 116 650 288 
Q 719 391 719 750 
L 719 3488 
Q 719 3884 631 3984 
Q 509 4122 269 4122 
L 109 4122 
L 109 4238 
L 1834 4238 
Q 2784 4238 3279 4022 
Q 3775 3806 4076 3303 
Q 4378 2800 4378 2141 
Q 4378 1256 3841 663 
Q 3238 0 2003 0 
L 109 0 
z
M 1319 306 
Q 1716 219 1984 219 
Q 2709 219 3187 728 
Q 3666 1238 3666 2109 
Q 3666 2988 3187 3494 
Q 2709 4000 1959 4000 
Q 1678 4000 1319 3909 
L 1319 306 
z
" transform="scale(0.015625)"/>
      <path id="TimesNewRomanPSMT-41" d="M 2928 1419 
L 1288 1419 
L 1000 750 
Q 894 503 894 381 
Q 894 284 986 211 
Q 1078 138 1384 116 
L 1384 0 
L 50 0 
L 50 116 
Q 316 163 394 238 
Q 553 388 747 847 
L 2238 4334 
L 2347 4334 
L 3822 809 
Q 4000 384 4145 257 
Q 4291 131 4550 116 
L 4550 0 
L 2878 0 
L 2878 116 
Q 3131 128 3220 200 
Q 3309 272 3309 375 
Q 3309 513 3184 809 
L 2928 1419 
z
M 2841 1650 
L 2122 3363 
L 1384 1650 
L 2841 1650 
z
" transform="scale(0.015625)"/>
      <path id="TimesNewRomanPSMT-5f" d="M 3256 -1381 
L -53 -1381 
L -53 -1119 
L 3256 -1119 
L 3256 -1381 
z
" transform="scale(0.015625)"/>
      <path id="TimesNewRomanPSMT-4f" d="M 2341 4334 
Q 3166 4334 3770 3707 
Q 4375 3081 4375 2144 
Q 4375 1178 3765 540 
Q 3156 -97 2291 -97 
Q 1416 -97 820 525 
Q 225 1147 225 2134 
Q 225 3144 913 3781 
Q 1509 4334 2341 4334 
z
M 2281 4106 
Q 1713 4106 1369 3684 
Q 941 3159 941 2147 
Q 941 1109 1384 550 
Q 1725 125 2284 125 
Q 2881 125 3270 590 
Q 3659 1056 3659 2059 
Q 3659 3147 3231 3681 
Q 2888 4106 2281 4106 
z
" transform="scale(0.015625)"/>
      <path id="TimesNewRomanPSMT-52" d="M 4325 0 
L 3194 0 
L 1759 1981 
Q 1600 1975 1500 1975 
Q 1459 1975 1412 1976 
Q 1366 1978 1316 1981 
L 1316 750 
Q 1316 350 1403 253 
Q 1522 116 1759 116 
L 1925 116 
L 1925 0 
L 109 0 
L 109 116 
L 269 116 
Q 538 116 653 291 
Q 719 388 719 750 
L 719 3488 
Q 719 3888 631 3984 
Q 509 4122 269 4122 
L 109 4122 
L 109 4238 
L 1653 4238 
Q 2328 4238 2648 4139 
Q 2969 4041 3192 3777 
Q 3416 3513 3416 3147 
Q 3416 2756 3161 2468 
Q 2906 2181 2372 2063 
L 3247 847 
Q 3547 428 3762 290 
Q 3978 153 4325 116 
L 4325 0 
z
M 1316 2178 
Q 1375 2178 1419 2176 
Q 1463 2175 1491 2175 
Q 2097 2175 2405 2437 
Q 2713 2700 2713 3106 
Q 2713 3503 2464 3751 
Q 2216 4000 1806 4000 
Q 1625 4000 1316 3941 
L 1316 2178 
z
" transform="scale(0.015625)"/>
      <path id="TimesNewRomanPSMT-46" d="M 1309 4006 
L 1309 2341 
L 2081 2341 
Q 2347 2341 2470 2458 
Q 2594 2575 2634 2922 
L 2750 2922 
L 2750 1488 
L 2634 1488 
Q 2631 1734 2570 1850 
Q 2509 1966 2401 2023 
Q 2294 2081 2081 2081 
L 1309 2081 
L 1309 750 
Q 1309 428 1350 325 
Q 1381 247 1481 191 
Q 1619 116 1769 116 
L 1922 116 
L 1922 0 
L 103 0 
L 103 116 
L 253 116 
Q 516 116 634 269 
Q 709 369 709 750 
L 709 3488 
Q 709 3809 669 3913 
Q 638 3991 541 4047 
Q 406 4122 253 4122 
L 103 4122 
L 103 4238 
L 3256 4238 
L 3297 3306 
L 3188 3306 
Q 3106 3603 2998 3742 
Q 2891 3881 2733 3943 
Q 2575 4006 2244 4006 
L 1309 4006 
z
" transform="scale(0.015625)"/>
      <path id="TimesNewRomanPSMT-50" d="M 1313 1984 
L 1313 750 
Q 1313 350 1400 253 
Q 1519 116 1759 116 
L 1922 116 
L 1922 0 
L 106 0 
L 106 116 
L 266 116 
Q 534 116 650 291 
Q 713 388 713 750 
L 713 3488 
Q 713 3888 628 3984 
Q 506 4122 266 4122 
L 106 4122 
L 106 4238 
L 1659 4238 
Q 2228 4238 2556 4120 
Q 2884 4003 3109 3725 
Q 3334 3447 3334 3066 
Q 3334 2547 2992 2222 
Q 2650 1897 2025 1897 
Q 1872 1897 1694 1919 
Q 1516 1941 1313 1984 
z
M 1313 2163 
Q 1478 2131 1606 2115 
Q 1734 2100 1825 2100 
Q 2150 2100 2386 2351 
Q 2622 2603 2622 3003 
Q 2622 3278 2509 3514 
Q 2397 3750 2190 3867 
Q 1984 3984 1722 3984 
Q 1563 3984 1313 3925 
L 1313 2163 
z
" transform="scale(0.015625)"/>
     </defs>
     <use xlink:href="#TimesNewRomanPSMT-53"/>
     <use xlink:href="#TimesNewRomanPSMT-53" x="55.615234"/>
     <use xlink:href="#TimesNewRomanPSMT-43" x="111.230469"/>
     <use xlink:href="#TimesNewRomanPSMT-57" x="177.929688"/>
     <use xlink:href="#TimesNewRomanPSMT-65" x="264.314453"/>
     <use xlink:href="#TimesNewRomanPSMT-62" x="308.699219"/>
     <use xlink:href="#TimesNewRomanPSMT-2f" x="358.699219"/>
     <use xlink:href="#TimesNewRomanPSMT-67" x="386.482422"/>
     <use xlink:href="#TimesNewRomanPSMT-65" x="436.482422"/>
     <use xlink:href="#TimesNewRomanPSMT-6f" x="480.867188"/>
     <use xlink:href="#TimesNewRomanPSMT-74" x="530.867188"/>
     <use xlink:href="#TimesNewRomanPSMT-61" x="558.650391"/>
     <use xlink:href="#TimesNewRomanPSMT-69" x="603.035156"/>
     <use xlink:href="#TimesNewRomanPSMT-6c" x="630.818359"/>
     <use xlink:href="#TimesNewRomanPSMT-2f" x="658.601562"/>
     <use xlink:href="#TimesNewRomanPSMT-47" x="686.384766"/>
     <use xlink:href="#TimesNewRomanPSMT-53" x="758.601562"/>
     <use xlink:href="#TimesNewRomanPSMT-45" x="814.216797"/>
     <use xlink:href="#TimesNewRomanPSMT-20" x="875.300781"/>
     <use xlink:href="#TimesNewRomanPSMT-7c" x="900.300781"/>
     <use xlink:href="#TimesNewRomanPSMT-20" x="920.320312"/>
     <use xlink:href="#TimesNewRomanPSMT-43" x="945.320312"/>
     <use xlink:href="#TimesNewRomanPSMT-44" x="1012.019531"/>
     <use xlink:href="#TimesNewRomanPSMT-41" x="1084.236328"/>
     <use xlink:href="#TimesNewRomanPSMT-57" x="1148.453125"/>
     <use xlink:href="#TimesNewRomanPSMT-65" x="1234.837891"/>
     <use xlink:href="#TimesNewRomanPSMT-62" x="1279.222656"/>
     <use xlink:href="#TimesNewRomanPSMT-2f" x="1329.222656"/>
     <use xlink:href="#TimesNewRomanPSMT-47" x="1357.005859"/>
     <use xlink:href="#TimesNewRomanPSMT-45" x="1429.222656"/>
     <use xlink:href="#TimesNewRomanPSMT-5f" x="1490.306641"/>
     <use xlink:href="#TimesNewRomanPSMT-4f" x="1540.306641"/>
     <use xlink:href="#TimesNewRomanPSMT-52" x="1612.523438"/>
     <use xlink:href="#TimesNewRomanPSMT-5f" x="1679.222656"/>
     <use xlink:href="#TimesNewRomanPSMT-44" x="1729.222656"/>
     <use xlink:href="#TimesNewRomanPSMT-45" x="1801.439453"/>
     <use xlink:href="#TimesNewRomanPSMT-46" x="1862.523438"/>
     <use xlink:href="#TimesNewRomanPSMT-2f" x="1918.138672"/>
     <use xlink:href="#TimesNewRomanPSMT-47" x="1945.921875"/>
     <use xlink:href="#TimesNewRomanPSMT-53" x="2018.138672"/>
     <use xlink:href="#TimesNewRomanPSMT-45" x="2073.753906"/>
     <use xlink:href="#TimesNewRomanPSMT-5f" x="2134.837891"/>
     <use xlink:href="#TimesNewRomanPSMT-50" x="2184.837891"/>
     <use xlink:href="#TimesNewRomanPSMT-4f" x="2240.453125"/>
     <use xlink:href="#TimesNewRomanPSMT-53" x="2312.669922"/>
    </g>
   </g>
   <g id="legend_1">
    <g id="patch_7">
     <path d="M 299.566875 282.6445 
L 379.959063 282.6445 
Q 381.959063 282.6445 381.959063 280.6445 
L 381.959063 196.810125 
Q 381.959063 194.810125 379.959063 194.810125 
L 299.566875 194.810125 
Q 297.566875 194.810125 297.566875 196.810125 
L 297.566875 280.6445 
Q 297.566875 282.6445 299.566875 282.6445 
z
" style="fill: #ffffff; opacity: 0.8; stroke: #cccccc; stroke-linejoin: miter"/>
    </g>
    <g id="line2d_41">
     <path d="M 301.566875 202.310125 
L 311.566875 202.310125 
L 321.566875 202.310125 
" style="fill: none; stroke: #ff0000; stroke-linecap: square"/>
    </g>
    <g id="text_19">
     <!-- CDAWeb/X -->
     <g transform="translate(329.566875 205.810125) scale(0.1 -0.1)">
      <defs>
       <path id="TimesNewRomanPSMT-58" d="M 2613 2347 
L 3522 991 
Q 3900 428 4083 279 
Q 4266 131 4547 116 
L 4547 0 
L 2728 0 
L 2728 116 
Q 2909 119 2997 153 
Q 3063 181 3105 239 
Q 3147 297 3147 356 
Q 3147 428 3119 500 
Q 3097 553 2947 775 
L 2228 1863 
L 1341 725 
Q 1200 544 1172 483 
Q 1144 422 1144 356 
Q 1144 256 1228 190 
Q 1313 125 1550 116 
L 1550 0 
L 47 0 
L 47 116 
Q 206 131 322 181 
Q 516 263 691 400 
Q 866 538 1091 822 
L 2091 2084 
L 1256 3306 
Q 916 3803 678 3958 
Q 441 4113 131 4122 
L 131 4238 
L 2091 4238 
L 2091 4122 
Q 1841 4113 1748 4041 
Q 1656 3969 1656 3881 
Q 1656 3766 1806 3544 
L 2456 2572 
L 3209 3525 
Q 3341 3694 3370 3756 
Q 3400 3819 3400 3884 
Q 3400 3950 3363 4000 
Q 3316 4066 3244 4092 
Q 3172 4119 2947 4122 
L 2947 4238 
L 4450 4238 
L 4450 4122 
Q 4272 4113 4159 4066 
Q 3991 3994 3850 3872 
Q 3709 3750 3453 3422 
L 2613 2347 
z
" transform="scale(0.015625)"/>
      </defs>
      <use xlink:href="#TimesNewRomanPSMT-43"/>
      <use xlink:href="#TimesNewRomanPSMT-44" x="66.699219"/>
      <use xlink:href="#TimesNewRomanPSMT-41" x="138.916016"/>
      <use xlink:href="#TimesNewRomanPSMT-57" x="203.132812"/>
      <use xlink:href="#TimesNewRomanPSMT-65" x="289.517578"/>
      <use xlink:href="#TimesNewRomanPSMT-62" x="333.902344"/>
      <use xlink:href="#TimesNewRomanPSMT-2f" x="383.902344"/>
      <use xlink:href="#TimesNewRomanPSMT-58" x="411.685547"/>
     </g>
    </g>
    <g id="line2d_42">
     <path d="M 301.566875 216.449187 
L 311.566875 216.449187 
L 321.566875 216.449187 
" style="fill: none; stroke-dasharray: 7.4,3.2; stroke-dashoffset: 0; stroke: #ff0000; stroke-width: 2"/>
    </g>
    <g id="text_20">
     <!-- SSCWeb/X -->
     <g transform="translate(329.566875 219.949187) scale(0.1 -0.1)">
      <use xlink:href="#TimesNewRomanPSMT-53"/>
      <use xlink:href="#TimesNewRomanPSMT-53" x="55.615234"/>
      <use xlink:href="#TimesNewRomanPSMT-43" x="111.230469"/>
      <use xlink:href="#TimesNewRomanPSMT-57" x="177.929688"/>
      <use xlink:href="#TimesNewRomanPSMT-65" x="264.314453"/>
      <use xlink:href="#TimesNewRomanPSMT-62" x="308.699219"/>
      <use xlink:href="#TimesNewRomanPSMT-2f" x="358.699219"/>
      <use xlink:href="#TimesNewRomanPSMT-58" x="386.482422"/>
     </g>
    </g>
    <g id="line2d_43">
     <path d="M 301.566875 230.58825 
L 311.566875 230.58825 
L 321.566875 230.58825 
" style="fill: none; stroke: #008000; stroke-linecap: square"/>
    </g>
    <g id="text_21">
     <!-- CDAWeb/Y -->
     <g transform="translate(329.566875 234.08825) scale(0.1 -0.1)">
      <defs>
       <path id="TimesNewRomanPSMT-59" d="M 3050 4238 
L 4528 4238 
L 4528 4122 
L 4447 4122 
Q 4366 4122 4209 4050 
Q 4053 3978 3925 3843 
Q 3797 3709 3609 3406 
L 2588 1797 
L 2588 734 
Q 2588 344 2675 247 
Q 2794 116 3050 116 
L 3188 116 
L 3188 0 
L 1388 0 
L 1388 116 
L 1538 116 
Q 1806 116 1919 278 
Q 1988 378 1988 734 
L 1988 1738 
L 825 3513 
Q 619 3825 545 3903 
Q 472 3981 241 4091 
Q 178 4122 59 4122 
L 59 4238 
L 1872 4238 
L 1872 4122 
L 1778 4122 
Q 1631 4122 1507 4053 
Q 1384 3984 1384 3847 
Q 1384 3734 1575 3441 
L 2459 2075 
L 3291 3381 
Q 3478 3675 3478 3819 
Q 3478 3906 3433 3975 
Q 3388 4044 3303 4083 
Q 3219 4122 3050 4122 
L 3050 4238 
z
" transform="scale(0.015625)"/>
      </defs>
      <use xlink:href="#TimesNewRomanPSMT-43"/>
      <use xlink:href="#TimesNewRomanPSMT-44" x="66.699219"/>
      <use xlink:href="#TimesNewRomanPSMT-41" x="138.916016"/>
      <use xlink:href="#TimesNewRomanPSMT-57" x="203.132812"/>
      <use xlink:href="#TimesNewRomanPSMT-65" x="289.517578"/>
      <use xlink:href="#TimesNewRomanPSMT-62" x="333.902344"/>
      <use xlink:href="#TimesNewRomanPSMT-2f" x="383.902344"/>
      <use xlink:href="#TimesNewRomanPSMT-59" x="411.685547"/>
     </g>
    </g>
    <g id="line2d_44">
     <path d="M 301.566875 244.727312 
L 311.566875 244.727312 
L 321.566875 244.727312 
" style="fill: none; stroke-dasharray: 7.4,3.2; stroke-dashoffset: 0; stroke: #008000; stroke-width: 2"/>
    </g>
    <g id="text_22">
     <!-- SSCWeb/Y -->
     <g transform="translate(329.566875 248.227312) scale(0.1 -0.1)">
      <use xlink:href="#TimesNewRomanPSMT-53"/>
      <use xlink:href="#TimesNewRomanPSMT-53" x="55.615234"/>
      <use xlink:href="#TimesNewRomanPSMT-43" x="111.230469"/>
      <use xlink:href="#TimesNewRomanPSMT-57" x="177.929688"/>
      <use xlink:href="#TimesNewRomanPSMT-65" x="264.314453"/>
      <use xlink:href="#TimesNewRomanPSMT-62" x="308.699219"/>
      <use xlink:href="#TimesNewRomanPSMT-2f" x="358.699219"/>
      <use xlink:href="#TimesNewRomanPSMT-59" x="386.482422"/>
     </g>
    </g>
    <g id="line2d_45">
     <path d="M 301.566875 258.866375 
L 311.566875 258.866375 
L 321.566875 258.866375 
" style="fill: none; stroke: #0000ff; stroke-linecap: square"/>
    </g>
    <g id="text_23">
     <!-- CDAWeb/Z -->
     <g transform="translate(329.566875 262.366375) scale(0.1 -0.1)">
      <defs>
       <path id="TimesNewRomanPSMT-5a" d="M 3681 4238 
L 897 256 
L 2634 256 
Q 3034 256 3248 431 
Q 3463 606 3628 1141 
L 3731 1122 
L 3531 0 
L 81 0 
L 81 116 
L 2800 3984 
L 1444 3984 
Q 1106 3984 954 3911 
Q 803 3838 723 3698 
Q 644 3559 578 3178 
L 459 3178 
L 547 4238 
L 3681 4238 
z
" transform="scale(0.015625)"/>
      </defs>
      <use xlink:href="#TimesNewRomanPSMT-43"/>
      <use xlink:href="#TimesNewRomanPSMT-44" x="66.699219"/>
      <use xlink:href="#TimesNewRomanPSMT-41" x="138.916016"/>
      <use xlink:href="#TimesNewRomanPSMT-57" x="203.132812"/>
      <use xlink:href="#TimesNewRomanPSMT-65" x="289.517578"/>
      <use xlink:href="#TimesNewRomanPSMT-62" x="333.902344"/>
      <use xlink:href="#TimesNewRomanPSMT-2f" x="383.902344"/>
      <use xlink:href="#TimesNewRomanPSMT-5a" x="411.685547"/>
     </g>
    </g>
    <g id="line2d_46">
     <path d="M 301.566875 273.005437 
L 311.566875 273.005437 
L 321.566875 273.005437 
" style="fill: none; stroke-dasharray: 7.4,3.2; stroke-dashoffset: 0; stroke: #0000ff; stroke-width: 2"/>
    </g>
    <g id="text_24">
     <!-- SSCWeb/Z -->
     <g transform="translate(329.566875 276.505437) scale(0.1 -0.1)">
      <use xlink:href="#TimesNewRomanPSMT-53"/>
      <use xlink:href="#TimesNewRomanPSMT-53" x="55.615234"/>
      <use xlink:href="#TimesNewRomanPSMT-43" x="111.230469"/>
      <use xlink:href="#TimesNewRomanPSMT-57" x="177.929688"/>
      <use xlink:href="#TimesNewRomanPSMT-65" x="264.314453"/>
      <use xlink:href="#TimesNewRomanPSMT-62" x="308.699219"/>
      <use xlink:href="#TimesNewRomanPSMT-2f" x="358.699219"/>
      <use xlink:href="#TimesNewRomanPSMT-5a" x="386.482422"/>
     </g>
    </g>
   </g>
  </g>
 </g>
 <defs>
  <clipPath id="pe33ccfa444">
   <rect x="29.839063" y="21.5325" width="357.12" height="266.112"/>
  </clipPath>
 </defs>
</svg>
