<?xml version="1.0" encoding="utf-8" standalone="no"?>
<!DOCTYPE svg PUBLIC "-//W3C//DTD SVG 1.1//EN"
  "http://www.w3.org/Graphics/SVG/1.1/DTD/svg11.dtd">
<svg xmlns:xlink="http://www.w3.org/1999/xlink" width="458.304375pt" height="321.398875pt" viewBox="0 0 458.304375 321.398875" xmlns="http://www.w3.org/2000/svg" version="1.1">
 <metadata>
  <rdf:RDF xmlns:dc="http://purl.org/dc/elements/1.1/" xmlns:cc="http://creativecommons.org/ns#" xmlns:rdf="http://www.w3.org/1999/02/22-rdf-syntax-ns#">
   <cc:Work>
    <dc:type rdf:resource="http://purl.org/dc/dcmitype/StillImage"/>
    <dc:date>2025-05-06T16:39:46.620639</dc:date>
    <dc:format>image/svg+xml</dc:format>
    <dc:creator>
     <cc:Agent>
      <dc:title>Matplotlib v3.8.4, https://matplotlib.org/</dc:title>
     </cc:Agent>
    </dc:creator>
   </cc:Work>
  </rdf:RDF>
 </metadata>
 <defs>
  <style type="text/css">*{stroke-linejoin: round; stroke-linecap: butt}</style>
 </defs>
 <g id="figure_1">
  <g id="patch_1">
   <path d="M 0 321.398875 
L 458.304375 321.398875 
L 458.304375 0 
L 0 0 
z
" style="fill: #ffffff"/>
  </g>
  <g id="axes_1">
   <g id="patch_2">
    <path d="M 50.592187 287.6445 
L 407.712188 287.6445 
L 407.712188 21.5325 
L 50.592187 21.5325 
z
" style="fill: #ffffff"/>
   </g>
   <g id="matplotlib.axis_1">
    <g id="xtick_1">
     <g id="line2d_1">
      <path d="M 66.814081 287.6445 
L 66.814081 21.5325 
" clip-path="url(#pfb84439f36)" style="fill: none; stroke: #b0b0b0; stroke-width: 0.8; stroke-linecap: square"/>
     </g>
     <g id="line2d_2">
      <defs>
       <path id="md4a980bc72" d="M 0 0 
L 0 3.5 
" style="stroke: #000000; stroke-width: 0.8"/>
      </defs>
      <g>
       <use xlink:href="#md4a980bc72" x="66.814081" y="287.6445" style="stroke: #000000; stroke-width: 0.8"/>
      </g>
     </g>
     <g id="text_1">
      <!-- 00 -->
      <g transform="translate(61.814081 301.58825) scale(0.1 -0.1)">
       <defs>
        <path id="TimesNewRomanPSMT-30" d="M 231 2094 
Q 231 2819 450 3342 
Q 669 3866 1031 4122 
Q 1313 4325 1613 4325 
Q 2100 4325 2488 3828 
Q 2972 3213 2972 2159 
Q 2972 1422 2759 906 
Q 2547 391 2217 158 
Q 1888 -75 1581 -75 
Q 975 -75 572 641 
Q 231 1244 231 2094 
z
M 844 2016 
Q 844 1141 1059 588 
Q 1238 122 1591 122 
Q 1759 122 1940 273 
Q 2122 425 2216 781 
Q 2359 1319 2359 2297 
Q 2359 3022 2209 3506 
Q 2097 3866 1919 4016 
Q 1791 4119 1609 4119 
Q 1397 4119 1231 3928 
Q 1006 3669 925 3112 
Q 844 2556 844 2016 
z
" transform="scale(0.015625)"/>
       </defs>
       <use xlink:href="#TimesNewRomanPSMT-30"/>
       <use xlink:href="#TimesNewRomanPSMT-30" x="50"/>
      </g>
      <!-- 2016-09-01 -->
      <g transform="translate(43.484393 312.059812) scale(0.1 -0.1)">
       <defs>
        <path id="TimesNewRomanPSMT-32" d="M 2934 816 
L 2638 0 
L 138 0 
L 138 116 
Q 1241 1122 1691 1759 
Q 2141 2397 2141 2925 
Q 2141 3328 1894 3587 
Q 1647 3847 1303 3847 
Q 991 3847 742 3664 
Q 494 3481 375 3128 
L 259 3128 
Q 338 3706 661 4015 
Q 984 4325 1469 4325 
Q 1984 4325 2329 3994 
Q 2675 3663 2675 3213 
Q 2675 2891 2525 2569 
Q 2294 2063 1775 1497 
Q 997 647 803 472 
L 1909 472 
Q 2247 472 2383 497 
Q 2519 522 2628 598 
Q 2738 675 2819 816 
L 2934 816 
z
" transform="scale(0.015625)"/>
        <path id="TimesNewRomanPSMT-31" d="M 750 3822 
L 1781 4325 
L 1884 4325 
L 1884 747 
Q 1884 391 1914 303 
Q 1944 216 2037 169 
Q 2131 122 2419 116 
L 2419 0 
L 825 0 
L 825 116 
Q 1125 122 1212 167 
Q 1300 213 1334 289 
Q 1369 366 1369 747 
L 1369 3034 
Q 1369 3497 1338 3628 
Q 1316 3728 1258 3775 
Q 1200 3822 1119 3822 
Q 1003 3822 797 3725 
L 750 3822 
z
" transform="scale(0.015625)"/>
        <path id="TimesNewRomanPSMT-36" d="M 2869 4325 
L 2869 4209 
Q 2456 4169 2195 4045 
Q 1934 3922 1679 3669 
Q 1425 3416 1258 3105 
Q 1091 2794 978 2366 
Q 1428 2675 1881 2675 
Q 2316 2675 2634 2325 
Q 2953 1975 2953 1425 
Q 2953 894 2631 456 
Q 2244 -75 1606 -75 
Q 1172 -75 869 213 
Q 275 772 275 1663 
Q 275 2231 503 2743 
Q 731 3256 1154 3653 
Q 1578 4050 1965 4187 
Q 2353 4325 2688 4325 
L 2869 4325 
z
M 925 2138 
Q 869 1716 869 1456 
Q 869 1156 980 804 
Q 1091 453 1309 247 
Q 1469 100 1697 100 
Q 1969 100 2183 356 
Q 2397 613 2397 1088 
Q 2397 1622 2184 2012 
Q 1972 2403 1581 2403 
Q 1463 2403 1327 2353 
Q 1191 2303 925 2138 
z
" transform="scale(0.015625)"/>
        <path id="TimesNewRomanPSMT-2d" d="M 259 1672 
L 1875 1672 
L 1875 1200 
L 259 1200 
L 259 1672 
z
" transform="scale(0.015625)"/>
        <path id="TimesNewRomanPSMT-39" d="M 338 -88 
L 338 28 
Q 744 34 1094 217 
Q 1444 400 1770 856 
Q 2097 1313 2225 1859 
Q 1734 1544 1338 1544 
Q 891 1544 572 1889 
Q 253 2234 253 2806 
Q 253 3363 572 3797 
Q 956 4325 1575 4325 
Q 2097 4325 2469 3894 
Q 2925 3359 2925 2575 
Q 2925 1869 2578 1258 
Q 2231 647 1613 244 
Q 1109 -88 516 -88 
L 338 -88 
z
M 2275 2091 
Q 2331 2497 2331 2741 
Q 2331 3044 2228 3395 
Q 2125 3747 1936 3934 
Q 1747 4122 1506 4122 
Q 1228 4122 1018 3872 
Q 809 3622 809 3128 
Q 809 2469 1088 2097 
Q 1291 1828 1588 1828 
Q 1731 1828 1928 1897 
Q 2125 1966 2275 2091 
z
" transform="scale(0.015625)"/>
       </defs>
       <use xlink:href="#TimesNewRomanPSMT-32"/>
       <use xlink:href="#TimesNewRomanPSMT-30" x="50"/>
       <use xlink:href="#TimesNewRomanPSMT-31" x="100"/>
       <use xlink:href="#TimesNewRomanPSMT-36" x="150"/>
       <use xlink:href="#TimesNewRomanPSMT-2d" x="200"/>
       <use xlink:href="#TimesNewRomanPSMT-30" x="233.300781"/>
       <use xlink:href="#TimesNewRomanPSMT-39" x="283.300781"/>
       <use xlink:href="#TimesNewRomanPSMT-2d" x="333.300781"/>
       <use xlink:href="#TimesNewRomanPSMT-30" x="366.601562"/>
       <use xlink:href="#TimesNewRomanPSMT-31" x="416.601562"/>
      </g>
     </g>
    </g>
    <g id="xtick_2">
     <g id="line2d_3">
      <path d="M 107.397964 287.6445 
L 107.397964 21.5325 
" clip-path="url(#pfb84439f36)" style="fill: none; stroke: #b0b0b0; stroke-width: 0.8; stroke-linecap: square"/>
     </g>
     <g id="line2d_4">
      <g>
       <use xlink:href="#md4a980bc72" x="107.397964" y="287.6445" style="stroke: #000000; stroke-width: 0.8"/>
      </g>
     </g>
     <g id="text_2">
      <!-- 03 -->
      <g transform="translate(102.397964 301.58825) scale(0.1 -0.1)">
       <defs>
        <path id="TimesNewRomanPSMT-33" d="M 325 3431 
Q 506 3859 782 4092 
Q 1059 4325 1472 4325 
Q 1981 4325 2253 3994 
Q 2459 3747 2459 3466 
Q 2459 3003 1878 2509 
Q 2269 2356 2469 2072 
Q 2669 1788 2669 1403 
Q 2669 853 2319 450 
Q 1863 -75 997 -75 
Q 569 -75 414 31 
Q 259 138 259 259 
Q 259 350 332 419 
Q 406 488 509 488 
Q 588 488 669 463 
Q 722 447 909 348 
Q 1097 250 1169 231 
Q 1284 197 1416 197 
Q 1734 197 1970 444 
Q 2206 691 2206 1028 
Q 2206 1275 2097 1509 
Q 2016 1684 1919 1775 
Q 1784 1900 1550 2001 
Q 1316 2103 1072 2103 
L 972 2103 
L 972 2197 
Q 1219 2228 1467 2375 
Q 1716 2522 1828 2728 
Q 1941 2934 1941 3181 
Q 1941 3503 1739 3701 
Q 1538 3900 1238 3900 
Q 753 3900 428 3381 
L 325 3431 
z
" transform="scale(0.015625)"/>
       </defs>
       <use xlink:href="#TimesNewRomanPSMT-30"/>
       <use xlink:href="#TimesNewRomanPSMT-33" x="50"/>
      </g>
     </g>
    </g>
    <g id="xtick_3">
     <g id="line2d_5">
      <path d="M 147.981847 287.6445 
L 147.981847 21.5325 
" clip-path="url(#pfb84439f36)" style="fill: none; stroke: #b0b0b0; stroke-width: 0.8; stroke-linecap: square"/>
     </g>
     <g id="line2d_6">
      <g>
       <use xlink:href="#md4a980bc72" x="147.981847" y="287.6445" style="stroke: #000000; stroke-width: 0.8"/>
      </g>
     </g>
     <g id="text_3">
      <!-- 06 -->
      <g transform="translate(142.981847 301.58825) scale(0.1 -0.1)">
       <use xlink:href="#TimesNewRomanPSMT-30"/>
       <use xlink:href="#TimesNewRomanPSMT-36" x="50"/>
      </g>
     </g>
    </g>
    <g id="xtick_4">
     <g id="line2d_7">
      <path d="M 188.565731 287.6445 
L 188.565731 21.5325 
" clip-path="url(#pfb84439f36)" style="fill: none; stroke: #b0b0b0; stroke-width: 0.8; stroke-linecap: square"/>
     </g>
     <g id="line2d_8">
      <g>
       <use xlink:href="#md4a980bc72" x="188.565731" y="287.6445" style="stroke: #000000; stroke-width: 0.8"/>
      </g>
     </g>
     <g id="text_4">
      <!-- 09 -->
      <g transform="translate(183.565731 301.58825) scale(0.1 -0.1)">
       <use xlink:href="#TimesNewRomanPSMT-30"/>
       <use xlink:href="#TimesNewRomanPSMT-39" x="50"/>
      </g>
     </g>
    </g>
    <g id="xtick_5">
     <g id="line2d_9">
      <path d="M 229.149614 287.6445 
L 229.149614 21.5325 
" clip-path="url(#pfb84439f36)" style="fill: none; stroke: #b0b0b0; stroke-width: 0.8; stroke-linecap: square"/>
     </g>
     <g id="line2d_10">
      <g>
       <use xlink:href="#md4a980bc72" x="229.149614" y="287.6445" style="stroke: #000000; stroke-width: 0.8"/>
      </g>
     </g>
     <g id="text_5">
      <!-- 12 -->
      <g transform="translate(224.149614 301.58825) scale(0.1 -0.1)">
       <use xlink:href="#TimesNewRomanPSMT-31"/>
       <use xlink:href="#TimesNewRomanPSMT-32" x="50"/>
      </g>
     </g>
    </g>
    <g id="xtick_6">
     <g id="line2d_11">
      <path d="M 269.733497 287.6445 
L 269.733497 21.5325 
" clip-path="url(#pfb84439f36)" style="fill: none; stroke: #b0b0b0; stroke-width: 0.8; stroke-linecap: square"/>
     </g>
     <g id="line2d_12">
      <g>
       <use xlink:href="#md4a980bc72" x="269.733497" y="287.6445" style="stroke: #000000; stroke-width: 0.8"/>
      </g>
     </g>
     <g id="text_6">
      <!-- 15 -->
      <g transform="translate(264.733497 301.58825) scale(0.1 -0.1)">
       <defs>
        <path id="TimesNewRomanPSMT-35" d="M 2778 4238 
L 2534 3706 
L 1259 3706 
L 981 3138 
Q 1809 3016 2294 2522 
Q 2709 2097 2709 1522 
Q 2709 1188 2573 903 
Q 2438 619 2231 419 
Q 2025 219 1772 97 
Q 1413 -75 1034 -75 
Q 653 -75 479 54 
Q 306 184 306 341 
Q 306 428 378 495 
Q 450 563 559 563 
Q 641 563 702 538 
Q 763 513 909 409 
Q 1144 247 1384 247 
Q 1750 247 2026 523 
Q 2303 800 2303 1197 
Q 2303 1581 2056 1914 
Q 1809 2247 1375 2428 
Q 1034 2569 447 2591 
L 1259 4238 
L 2778 4238 
z
" transform="scale(0.015625)"/>
       </defs>
       <use xlink:href="#TimesNewRomanPSMT-31"/>
       <use xlink:href="#TimesNewRomanPSMT-35" x="50"/>
      </g>
     </g>
    </g>
    <g id="xtick_7">
     <g id="line2d_13">
      <path d="M 310.317381 287.6445 
L 310.317381 21.5325 
" clip-path="url(#pfb84439f36)" style="fill: none; stroke: #b0b0b0; stroke-width: 0.8; stroke-linecap: square"/>
     </g>
     <g id="line2d_14">
      <g>
       <use xlink:href="#md4a980bc72" x="310.317381" y="287.6445" style="stroke: #000000; stroke-width: 0.8"/>
      </g>
     </g>
     <g id="text_7">
      <!-- 18 -->
      <g transform="translate(305.317381 301.58825) scale(0.1 -0.1)">
       <defs>
        <path id="TimesNewRomanPSMT-38" d="M 1228 2134 
Q 725 2547 579 2797 
Q 434 3047 434 3316 
Q 434 3728 753 4026 
Q 1072 4325 1600 4325 
Q 2113 4325 2425 4047 
Q 2738 3769 2738 3413 
Q 2738 3175 2569 2928 
Q 2400 2681 1866 2347 
Q 2416 1922 2594 1678 
Q 2831 1359 2831 1006 
Q 2831 559 2490 242 
Q 2150 -75 1597 -75 
Q 994 -75 656 303 
Q 388 606 388 966 
Q 388 1247 577 1523 
Q 766 1800 1228 2134 
z
M 1719 2469 
Q 2094 2806 2194 3001 
Q 2294 3197 2294 3444 
Q 2294 3772 2109 3958 
Q 1925 4144 1606 4144 
Q 1288 4144 1088 3959 
Q 888 3775 888 3528 
Q 888 3366 970 3203 
Q 1053 3041 1206 2894 
L 1719 2469 
z
M 1375 2016 
Q 1116 1797 991 1539 
Q 866 1281 866 981 
Q 866 578 1086 336 
Q 1306 94 1647 94 
Q 1984 94 2187 284 
Q 2391 475 2391 747 
Q 2391 972 2272 1150 
Q 2050 1481 1375 2016 
z
" transform="scale(0.015625)"/>
       </defs>
       <use xlink:href="#TimesNewRomanPSMT-31"/>
       <use xlink:href="#TimesNewRomanPSMT-38" x="50"/>
      </g>
     </g>
    </g>
    <g id="xtick_8">
     <g id="line2d_15">
      <path d="M 350.901264 287.6445 
L 350.901264 21.5325 
" clip-path="url(#pfb84439f36)" style="fill: none; stroke: #b0b0b0; stroke-width: 0.8; stroke-linecap: square"/>
     </g>
     <g id="line2d_16">
      <g>
       <use xlink:href="#md4a980bc72" x="350.901264" y="287.6445" style="stroke: #000000; stroke-width: 0.8"/>
      </g>
     </g>
     <g id="text_8">
      <!-- 21 -->
      <g transform="translate(345.901264 301.58825) scale(0.1 -0.1)">
       <use xlink:href="#TimesNewRomanPSMT-32"/>
       <use xlink:href="#TimesNewRomanPSMT-31" x="50"/>
      </g>
     </g>
    </g>
    <g id="xtick_9">
     <g id="line2d_17">
      <path d="M 391.485147 287.6445 
L 391.485147 21.5325 
" clip-path="url(#pfb84439f36)" style="fill: none; stroke: #b0b0b0; stroke-width: 0.8; stroke-linecap: square"/>
     </g>
     <g id="line2d_18">
      <g>
       <use xlink:href="#md4a980bc72" x="391.485147" y="287.6445" style="stroke: #000000; stroke-width: 0.8"/>
      </g>
     </g>
     <g id="text_9">
      <!-- 00 -->
      <g transform="translate(386.485147 301.58825) scale(0.1 -0.1)">
       <use xlink:href="#TimesNewRomanPSMT-30"/>
       <use xlink:href="#TimesNewRomanPSMT-30" x="50"/>
      </g>
      <!-- 2016-09-02 -->
      <g transform="translate(368.15546 312.059812) scale(0.1 -0.1)">
       <use xlink:href="#TimesNewRomanPSMT-32"/>
       <use xlink:href="#TimesNewRomanPSMT-30" x="50"/>
       <use xlink:href="#TimesNewRomanPSMT-31" x="100"/>
       <use xlink:href="#TimesNewRomanPSMT-36" x="150"/>
       <use xlink:href="#TimesNewRomanPSMT-2d" x="200"/>
       <use xlink:href="#TimesNewRomanPSMT-30" x="233.300781"/>
       <use xlink:href="#TimesNewRomanPSMT-39" x="283.300781"/>
       <use xlink:href="#TimesNewRomanPSMT-2d" x="333.300781"/>
       <use xlink:href="#TimesNewRomanPSMT-30" x="366.601562"/>
       <use xlink:href="#TimesNewRomanPSMT-32" x="416.601562"/>
      </g>
     </g>
    </g>
    <g id="xtick_10">
     <g id="line2d_19">
      <defs>
       <path id="ma137fdffb3" d="M 0 0 
L 0 2 
" style="stroke: #000000; stroke-width: 0.6"/>
      </defs>
      <g>
       <use xlink:href="#ma137fdffb3" x="53.28612" y="287.6445" style="stroke: #000000; stroke-width: 0.6"/>
      </g>
     </g>
    </g>
    <g id="xtick_11">
     <g id="line2d_20">
      <g>
       <use xlink:href="#ma137fdffb3" x="80.342042" y="287.6445" style="stroke: #000000; stroke-width: 0.6"/>
      </g>
     </g>
    </g>
    <g id="xtick_12">
     <g id="line2d_21">
      <g>
       <use xlink:href="#ma137fdffb3" x="93.870003" y="287.6445" style="stroke: #000000; stroke-width: 0.6"/>
      </g>
     </g>
    </g>
    <g id="xtick_13">
     <g id="line2d_22">
      <g>
       <use xlink:href="#ma137fdffb3" x="120.925925" y="287.6445" style="stroke: #000000; stroke-width: 0.6"/>
      </g>
     </g>
    </g>
    <g id="xtick_14">
     <g id="line2d_23">
      <g>
       <use xlink:href="#ma137fdffb3" x="134.453886" y="287.6445" style="stroke: #000000; stroke-width: 0.6"/>
      </g>
     </g>
    </g>
    <g id="xtick_15">
     <g id="line2d_24">
      <g>
       <use xlink:href="#ma137fdffb3" x="161.509808" y="287.6445" style="stroke: #000000; stroke-width: 0.6"/>
      </g>
     </g>
    </g>
    <g id="xtick_16">
     <g id="line2d_25">
      <g>
       <use xlink:href="#ma137fdffb3" x="175.037769" y="287.6445" style="stroke: #000000; stroke-width: 0.6"/>
      </g>
     </g>
    </g>
    <g id="xtick_17">
     <g id="line2d_26">
      <g>
       <use xlink:href="#ma137fdffb3" x="202.093692" y="287.6445" style="stroke: #000000; stroke-width: 0.6"/>
      </g>
     </g>
    </g>
    <g id="xtick_18">
     <g id="line2d_27">
      <g>
       <use xlink:href="#ma137fdffb3" x="215.621653" y="287.6445" style="stroke: #000000; stroke-width: 0.6"/>
      </g>
     </g>
    </g>
    <g id="xtick_19">
     <g id="line2d_28">
      <g>
       <use xlink:href="#ma137fdffb3" x="242.677575" y="287.6445" style="stroke: #000000; stroke-width: 0.6"/>
      </g>
     </g>
    </g>
    <g id="xtick_20">
     <g id="line2d_29">
      <g>
       <use xlink:href="#ma137fdffb3" x="256.205536" y="287.6445" style="stroke: #000000; stroke-width: 0.6"/>
      </g>
     </g>
    </g>
    <g id="xtick_21">
     <g id="line2d_30">
      <g>
       <use xlink:href="#ma137fdffb3" x="283.261458" y="287.6445" style="stroke: #000000; stroke-width: 0.6"/>
      </g>
     </g>
    </g>
    <g id="xtick_22">
     <g id="line2d_31">
      <g>
       <use xlink:href="#ma137fdffb3" x="296.789419" y="287.6445" style="stroke: #000000; stroke-width: 0.6"/>
      </g>
     </g>
    </g>
    <g id="xtick_23">
     <g id="line2d_32">
      <g>
       <use xlink:href="#ma137fdffb3" x="323.845342" y="287.6445" style="stroke: #000000; stroke-width: 0.6"/>
      </g>
     </g>
    </g>
    <g id="xtick_24">
     <g id="line2d_33">
      <g>
       <use xlink:href="#ma137fdffb3" x="337.373303" y="287.6445" style="stroke: #000000; stroke-width: 0.6"/>
      </g>
     </g>
    </g>
    <g id="xtick_25">
     <g id="line2d_34">
      <g>
       <use xlink:href="#ma137fdffb3" x="364.429225" y="287.6445" style="stroke: #000000; stroke-width: 0.6"/>
      </g>
     </g>
    </g>
    <g id="xtick_26">
     <g id="line2d_35">
      <g>
       <use xlink:href="#ma137fdffb3" x="377.957186" y="287.6445" style="stroke: #000000; stroke-width: 0.6"/>
      </g>
     </g>
    </g>
    <g id="xtick_27">
     <g id="line2d_36">
      <g>
       <use xlink:href="#ma137fdffb3" x="405.013108" y="287.6445" style="stroke: #000000; stroke-width: 0.6"/>
      </g>
     </g>
    </g>
   </g>
   <g id="matplotlib.axis_2">
    <g id="ytick_1">
     <g id="line2d_37">
      <path d="M 50.592187 257.411864 
L 407.712188 257.411864 
" clip-path="url(#pfb84439f36)" style="fill: none; stroke: #b0b0b0; stroke-width: 0.8; stroke-linecap: square"/>
     </g>
     <g id="line2d_38">
      <defs>
       <path id="m64166e8062" d="M 0 0 
L -3.5 0 
" style="stroke: #000000; stroke-width: 0.8"/>
      </defs>
      <g>
       <use xlink:href="#m64166e8062" x="50.592187" y="257.411864" style="stroke: #000000; stroke-width: 0.8"/>
      </g>
     </g>
     <g id="text_10">
      <!-- −5.0 -->
      <g transform="translate(25.453125 260.883739) scale(0.1 -0.1)">
       <defs>
        <path id="TimesNewRomanPSMT-2212" d="M 3484 2000 
L 116 2000 
L 116 2256 
L 3484 2256 
L 3484 2000 
z
" transform="scale(0.015625)"/>
        <path id="TimesNewRomanPSMT-2e" d="M 800 606 
Q 947 606 1047 504 
Q 1147 403 1147 259 
Q 1147 116 1045 14 
Q 944 -88 800 -88 
Q 656 -88 554 14 
Q 453 116 453 259 
Q 453 406 554 506 
Q 656 606 800 606 
z
" transform="scale(0.015625)"/>
       </defs>
       <use xlink:href="#TimesNewRomanPSMT-2212"/>
       <use xlink:href="#TimesNewRomanPSMT-35" x="56.396484"/>
       <use xlink:href="#TimesNewRomanPSMT-2e" x="106.396484"/>
       <use xlink:href="#TimesNewRomanPSMT-30" x="131.396484"/>
      </g>
     </g>
    </g>
    <g id="ytick_2">
     <g id="line2d_39">
      <path d="M 50.592187 222.999303 
L 407.712188 222.999303 
" clip-path="url(#pfb84439f36)" style="fill: none; stroke: #b0b0b0; stroke-width: 0.8; stroke-linecap: square"/>
     </g>
     <g id="line2d_40">
      <g>
       <use xlink:href="#m64166e8062" x="50.592187" y="222.999303" style="stroke: #000000; stroke-width: 0.8"/>
      </g>
     </g>
     <g id="text_11">
      <!-- −2.5 -->
      <g transform="translate(25.453125 226.471178) scale(0.1 -0.1)">
       <use xlink:href="#TimesNewRomanPSMT-2212"/>
       <use xlink:href="#TimesNewRomanPSMT-32" x="56.396484"/>
       <use xlink:href="#TimesNewRomanPSMT-2e" x="106.396484"/>
       <use xlink:href="#TimesNewRomanPSMT-35" x="131.396484"/>
      </g>
     </g>
    </g>
    <g id="ytick_3">
     <g id="line2d_41">
      <path d="M 50.592187 188.586742 
L 407.712188 188.586742 
" clip-path="url(#pfb84439f36)" style="fill: none; stroke: #b0b0b0; stroke-width: 0.8; stroke-linecap: square"/>
     </g>
     <g id="line2d_42">
      <g>
       <use xlink:href="#m64166e8062" x="50.592187" y="188.586742" style="stroke: #000000; stroke-width: 0.8"/>
      </g>
     </g>
     <g id="text_12">
      <!-- 0.0 -->
      <g transform="translate(31.092187 192.058617) scale(0.1 -0.1)">
       <use xlink:href="#TimesNewRomanPSMT-30"/>
       <use xlink:href="#TimesNewRomanPSMT-2e" x="50"/>
       <use xlink:href="#TimesNewRomanPSMT-30" x="75"/>
      </g>
     </g>
    </g>
    <g id="ytick_4">
     <g id="line2d_43">
      <path d="M 50.592187 154.174181 
L 407.712188 154.174181 
" clip-path="url(#pfb84439f36)" style="fill: none; stroke: #b0b0b0; stroke-width: 0.8; stroke-linecap: square"/>
     </g>
     <g id="line2d_44">
      <g>
       <use xlink:href="#m64166e8062" x="50.592187" y="154.174181" style="stroke: #000000; stroke-width: 0.8"/>
      </g>
     </g>
     <g id="text_13">
      <!-- 2.5 -->
      <g transform="translate(31.092187 157.646056) scale(0.1 -0.1)">
       <use xlink:href="#TimesNewRomanPSMT-32"/>
       <use xlink:href="#TimesNewRomanPSMT-2e" x="50"/>
       <use xlink:href="#TimesNewRomanPSMT-35" x="75"/>
      </g>
     </g>
    </g>
    <g id="ytick_5">
     <g id="line2d_45">
      <path d="M 50.592187 119.76162 
L 407.712188 119.76162 
" clip-path="url(#pfb84439f36)" style="fill: none; stroke: #b0b0b0; stroke-width: 0.8; stroke-linecap: square"/>
     </g>
     <g id="line2d_46">
      <g>
       <use xlink:href="#m64166e8062" x="50.592187" y="119.76162" style="stroke: #000000; stroke-width: 0.8"/>
      </g>
     </g>
     <g id="text_14">
      <!-- 5.0 -->
      <g transform="translate(31.092187 123.233495) scale(0.1 -0.1)">
       <use xlink:href="#TimesNewRomanPSMT-35"/>
       <use xlink:href="#TimesNewRomanPSMT-2e" x="50"/>
       <use xlink:href="#TimesNewRomanPSMT-30" x="75"/>
      </g>
     </g>
    </g>
    <g id="ytick_6">
     <g id="line2d_47">
      <path d="M 50.592187 85.349059 
L 407.712188 85.349059 
" clip-path="url(#pfb84439f36)" style="fill: none; stroke: #b0b0b0; stroke-width: 0.8; stroke-linecap: square"/>
     </g>
     <g id="line2d_48">
      <g>
       <use xlink:href="#m64166e8062" x="50.592187" y="85.349059" style="stroke: #000000; stroke-width: 0.8"/>
      </g>
     </g>
     <g id="text_15">
      <!-- 7.5 -->
      <g transform="translate(31.092187 88.820934) scale(0.1 -0.1)">
       <defs>
        <path id="TimesNewRomanPSMT-37" d="M 644 4238 
L 2916 4238 
L 2916 4119 
L 1503 -88 
L 1153 -88 
L 2419 3728 
L 1253 3728 
Q 900 3728 750 3644 
Q 488 3500 328 3200 
L 238 3234 
L 644 4238 
z
" transform="scale(0.015625)"/>
       </defs>
       <use xlink:href="#TimesNewRomanPSMT-37"/>
       <use xlink:href="#TimesNewRomanPSMT-2e" x="50"/>
       <use xlink:href="#TimesNewRomanPSMT-35" x="75"/>
      </g>
     </g>
    </g>
    <g id="ytick_7">
     <g id="line2d_49">
      <path d="M 50.592187 50.936498 
L 407.712188 50.936498 
" clip-path="url(#pfb84439f36)" style="fill: none; stroke: #b0b0b0; stroke-width: 0.8; stroke-linecap: square"/>
     </g>
     <g id="line2d_50">
      <g>
       <use xlink:href="#m64166e8062" x="50.592187" y="50.936498" style="stroke: #000000; stroke-width: 0.8"/>
      </g>
     </g>
     <g id="text_16">
      <!-- 10.0 -->
      <g transform="translate(26.092187 54.408373) scale(0.1 -0.1)">
       <use xlink:href="#TimesNewRomanPSMT-31"/>
       <use xlink:href="#TimesNewRomanPSMT-30" x="50"/>
       <use xlink:href="#TimesNewRomanPSMT-2e" x="100"/>
       <use xlink:href="#TimesNewRomanPSMT-30" x="125"/>
      </g>
     </g>
    </g>
   </g>
   <g id="line2d_51">
    <path d="M 66.824915 258.144475 
L 74.152467 261.295913 
L 81.216055 264.09392 
L 88.015669 266.550246 
L 94.560413 268.680004 
L 100.850287 270.495076 
L 106.894392 272.010022 
L 112.701831 273.238582 
L 118.28171 274.193638 
L 123.634025 274.886174 
L 128.767879 275.328395 
L 133.692381 275.531573 
L 138.416622 275.505978 
L 142.949702 275.260812 
L 147.300738 274.804117 
L 151.469721 274.144361 
L 155.465758 273.28849 
L 159.307051 272.239296 
L 162.993234 271.002535 
L 166.557797 269.572085 
L 169.950239 267.971095 
L 173.20404 266.190651 
L 176.337658 264.222498 
L 179.341876 262.073293 
L 182.225976 259.737219 
L 184.999113 257.204877 
L 187.66129 254.472341 
L 190.212593 251.534814 
L 192.66222 248.374131 
L 195.010158 244.979144 
L 197.247143 241.352355 
L 199.383466 237.463709 
L 201.425443 233.280422 
L 203.365786 228.792708 
L 205.204493 223.975426 
L 206.960037 218.743792 
L 208.595099 213.187305 
L 210.248095 206.755866 
L 211.89209 199.430378 
L 213.878567 189.471668 
L 216.355413 177.204516 
L 217.594055 172.214934 
L 218.712596 168.596976 
L 219.794196 165.829472 
L 220.866589 163.677201 
L 221.957449 161.974884 
L 223.06871 160.643337 
L 224.21525 159.608623 
L 225.426506 158.814097 
L 226.702491 158.24272 
L 228.077121 157.871623 
L 229.58387 157.698284 
L 231.257024 157.734264 
L 233.133531 158.001659 
L 235.268862 158.535695 
L 237.727705 159.386226 
L 240.58404 160.616663 
L 243.939534 162.311914 
L 247.942074 164.592052 
L 252.804287 167.627825 
L 258.914395 171.717437 
L 267.085865 177.471565 
L 280.664935 187.345863 
L 302.378533 203.10442 
L 314.84838 211.865588 
L 325.885452 219.352355 
L 336.118327 226.028326 
L 345.787336 232.073734 
L 354.994161 237.570688 
L 363.812752 242.579402 
L 372.280072 247.135136 
L 380.414622 251.26164 
L 388.234883 254.981829 
L 391.47946 256.450406 
L 391.47946 256.450406 
" clip-path="url(#pfb84439f36)" style="fill: none; stroke: #ff0000; stroke-linecap: square"/>
   </g>
   <g id="line2d_52">
    <path d="M 66.926814 258.190213 
L 74.367192 261.384748 
L 81.356639 264.147381 
L 88.120619 266.586537 
L 94.659134 268.710643 
L 100.972182 270.528244 
L 107.059765 272.048329 
L 112.696415 273.237961 
L 118.333066 274.20161 
L 123.518784 274.873954 
L 128.704503 275.324707 
L 133.664755 275.531374 
L 138.399541 275.506867 
L 142.908862 275.264377 
L 147.192716 274.818363 
L 151.251105 274.185142 
L 155.309493 273.326583 
L 159.142415 272.289379 
L 162.749871 271.091981 
L 166.357328 269.659305 
L 169.739318 268.078253 
L 173.121308 266.239367 
L 176.277833 264.262777 
L 179.208891 262.174553 
L 182.139949 259.811226 
L 184.845541 257.353142 
L 187.551133 254.591946 
L 190.03126 251.75496 
L 192.511386 248.579527 
L 194.766046 245.350854 
L 197.020706 241.738821 
L 199.0499 238.101414 
L 201.079095 234.025952 
L 203.108289 229.420912 
L 204.912017 224.783407 
L 206.715745 219.513808 
L 208.294007 214.266329 
L 209.872269 208.297175 
L 211.450531 201.491055 
L 213.25426 192.692328 
L 216.410784 176.960366 
L 217.538114 172.418103 
L 218.665444 168.733201 
L 219.792774 165.832656 
L 220.920104 163.583061 
L 222.047434 161.852988 
L 223.174764 160.534365 
L 224.302094 159.542289 
L 225.429425 158.81255 
L 226.782221 158.214983 
L 228.135017 157.860968 
L 229.713279 157.693239 
L 231.517007 157.758547 
L 233.546201 158.087795 
L 235.800861 158.7007 
L 238.280988 159.606444 
L 241.212046 160.916133 
L 244.594036 162.668241 
L 248.652424 165.02012 
L 253.838143 168.302177 
L 260.376657 172.728694 
L 269.169832 178.971465 
L 286.30525 191.473972 
L 302.538803 203.219652 
L 314.488502 211.617985 
L 325.536337 219.12089 
L 335.456842 225.606308 
L 345.15188 231.685921 
L 354.395987 237.222909 
L 363.189162 242.235083 
L 371.756871 246.862518 
L 380.099113 251.107652 
L 387.764958 254.766751 
L 391.372414 256.404023 
L 391.372414 256.404023 
" clip-path="url(#pfb84439f36)" style="fill: none; stroke-dasharray: 7.4,3.2; stroke-dashoffset: 0; stroke: #ff0000; stroke-width: 2"/>
   </g>
   <g id="line2d_53">
    <path d="M 66.824915 40.046502 
L 71.785807 41.798881 
L 76.783111 43.800678 
L 81.80772 46.05344 
L 86.868745 48.567068 
L 91.957079 51.343528 
L 97.072721 54.389365 
L 102.206567 57.705816 
L 107.35862 61.299684 
L 112.528881 65.178687 
L 117.708249 69.34401 
L 122.887614 73.795933 
L 128.066987 78.542479 
L 133.237249 83.583775 
L 138.389311 88.919188 
L 143.514067 94.547286 
L 148.611511 100.476734 
L 153.672547 106.706377 
L 158.688075 113.234359 
L 163.647754 120.056319 
L 168.545198 127.172498 
L 173.370432 134.577131 
L 178.130931 142.291497 
L 182.817539 150.310964 
L 187.457924 158.694507 
L 192.089082 167.524139 
L 196.868165 177.123231 
L 202.728247 189.435426 
L 207.486705 199.281773 
L 209.407931 202.771109 
L 210.700587 204.696359 
L 211.661156 205.75792 
L 212.400202 206.269833 
L 213.009975 206.4362 
L 213.545895 206.354762 
L 214.072625 206.039856 
L 214.62709 205.435815 
L 215.255544 204.401937 
L 215.994941 202.728373 
L 216.91926 200.042863 
L 218.213398 195.52635 
L 221.106948 184.357717 
L 224.206004 172.834563 
L 226.850008 163.838234 
L 229.602362 155.262905 
L 232.412507 147.234068 
L 235.342811 139.532269 
L 238.393265 132.138305 
L 241.55464 125.054782 
L 244.836178 118.244696 
L 248.228627 111.714557 
L 251.722767 105.468678 
L 255.318583 99.495045 
L 258.997588 93.812034 
L 262.759794 88.407032 
L 266.60519 83.270145 
L 270.515294 78.415774 
L 274.490104 73.833249 
L 278.529623 69.513928 
L 282.624614 65.459667 
L 286.76582 61.671058 
L 290.953243 58.140021 
L 295.186889 54.859841 
L 299.457503 51.831265 
L 303.765097 49.048061 
L 308.109667 46.505032 
L 312.481971 44.202475 
L 316.891255 42.131245 
L 321.328267 40.29218 
L 325.793015 38.681697 
L 330.285495 37.296876 
L 334.805708 36.135398 
L 339.3629 35.193817 
L 343.947823 34.473471 
L 348.560476 33.973579 
L 353.210108 33.693489 
L 357.887471 33.63455 
L 362.60181 33.797863 
L 367.343881 34.184756 
L 372.122928 34.798047 
L 376.938951 35.640899 
L 381.782706 36.714641 
L 386.663436 38.024738 
L 391.47946 39.541325 
L 391.47946 39.541325 
" clip-path="url(#pfb84439f36)" style="fill: none; stroke: #008000; stroke-linecap: square"/>
   </g>
   <g id="line2d_54">
    <path d="M 66.926814 40.080146 
L 71.887066 41.837305 
L 76.847318 43.828207 
L 81.807571 46.053469 
L 86.767823 48.51479 
L 91.728076 51.213323 
L 96.913794 54.291008 
L 102.099513 57.634315 
L 107.285231 61.246857 
L 112.470949 65.134069 
L 117.656668 69.301491 
L 122.842386 73.756248 
L 128.028105 78.506106 
L 133.213823 83.56088 
L 138.399541 88.9307 
L 143.58526 94.628444 
L 148.545512 100.398309 
L 153.731231 106.781412 
L 158.691483 113.239558 
L 163.651736 120.06241 
L 168.611988 127.27307 
L 173.346774 134.540595 
L 178.081561 142.210075 
L 182.816347 150.309569 
L 187.325667 158.449868 
L 192.060454 167.468766 
L 196.79524 176.973965 
L 202.657357 189.285452 
L 207.392143 199.098146 
L 209.421337 202.793692 
L 210.774133 204.791052 
L 211.675997 205.77144 
L 212.352396 206.246541 
L 213.028794 206.437199 
L 213.479726 206.377278 
L 213.930658 206.14866 
L 214.607056 205.462206 
L 215.283454 204.347003 
L 215.959852 202.817839 
L 216.861716 200.226003 
L 218.214512 195.522197 
L 221.821968 181.615361 
L 224.753027 170.908277 
L 227.458619 161.87535 
L 230.164211 153.601897 
L 233.095269 145.38165 
L 236.026327 137.822815 
L 239.182852 130.316279 
L 242.339376 123.377849 
L 245.721366 116.492729 
L 249.103357 110.106805 
L 252.710813 103.782972 
L 256.318269 97.909074 
L 259.925725 92.441166 
L 263.758648 87.035736 
L 267.59157 82.011057 
L 271.424492 77.336592 
L 275.482881 72.740452 
L 279.541269 68.482373 
L 283.599657 64.539679 
L 287.658046 60.893554 
L 291.9419 57.347931 
L 296.225754 54.097247 
L 300.509609 51.126374 
L 304.793463 48.422257 
L 309.077317 45.973281 
L 313.361172 43.769299 
L 317.870492 41.704287 
L 322.379812 39.891377 
L 326.889133 38.322065 
L 331.398453 36.989463 
L 335.907774 35.886699 
L 340.417094 35.008198 
L 344.926414 34.348822 
L 349.435735 33.90378 
L 354.170521 33.663416 
L 358.679841 33.646701 
L 363.414628 33.848715 
L 368.149414 34.272682 
L 372.884201 34.916591 
L 377.618987 35.778249 
L 382.353773 36.856442 
L 387.314026 38.217115 
L 391.372414 39.505657 
L 391.372414 39.505657 
" clip-path="url(#pfb84439f36)" style="fill: none; stroke-dasharray: 7.4,3.2; stroke-dashoffset: 0; stroke: #008000; stroke-width: 2"/>
   </g>
   <g id="line2d_55">
    <path d="M 66.824915 191.598737 
L 138.270978 181.853899 
L 153.272034 180.112555 
L 164.893039 178.979704 
L 174.072972 178.291878 
L 181.523451 177.949161 
L 187.6151 177.88427 
L 192.625234 178.045889 
L 196.775698 178.395633 
L 200.215043 178.901804 
L 203.088597 179.542993 
L 205.509405 180.305558 
L 207.569861 181.18343 
L 209.352529 182.181477 
L 210.940705 183.324817 
L 212.418684 184.665458 
L 213.934004 186.351549 
L 216.142825 189.201231 
L 218.389036 191.966797 
L 220.099277 193.71461 
L 221.855757 195.191513 
L 223.771427 196.508958 
L 225.91656 197.710025 
L 228.345193 198.810801 
L 231.118372 199.819678 
L 234.307499 200.738436 
L 237.968047 201.556951 
L 242.183211 202.266539 
L 247.026941 202.851089 
L 252.582436 203.292259 
L 258.942123 203.569047 
L 266.207708 203.657637 
L 274.490104 203.531403 
L 283.918738 203.160617 
L 294.650747 202.511211 
L 306.861757 201.544735 
L 320.801372 200.213418 
L 336.830101 198.45378 
L 355.585764 196.164482 
L 378.528885 193.130419 
L 391.47946 191.34379 
L 391.47946 191.34379 
" clip-path="url(#pfb84439f36)" style="fill: none; stroke: #0000ff; stroke-linecap: square"/>
   </g>
   <g id="line2d_56">
    <path d="M 66.926814 191.579164 
L 137.272211 181.974113 
L 152.152969 180.230225 
L 164.102668 179.046738 
L 173.346774 178.335055 
L 181.012619 177.963099 
L 187.100201 177.879035 
L 192.060454 178.014516 
L 196.344308 178.347289 
L 199.951765 178.854159 
L 202.882823 179.488797 
L 205.362949 180.252395 
L 207.392143 181.097801 
L 209.195871 182.08342 
L 210.774133 183.192155 
L 212.352396 184.599657 
L 213.930658 186.348253 
L 216.410784 189.552047 
L 218.439978 192.023831 
L 220.243706 193.847367 
L 222.047434 195.33549 
L 224.076628 196.695029 
L 226.331289 197.914406 
L 228.811415 198.995632 
L 231.742473 200.015993 
L 235.124463 200.938731 
L 238.957386 201.741148 
L 243.24124 202.41036 
L 248.201492 202.959706 
L 254.063609 203.372933 
L 260.827589 203.609176 
L 268.267968 203.642529 
L 277.061143 203.447276 
L 286.30525 203.030395 
L 297.57855 202.294057 
L 309.979181 201.260448 
L 323.732609 199.90252 
L 341.544424 197.893185 
L 362.287298 195.294474 
L 386.863094 191.979471 
L 391.372414 191.353258 
L 391.372414 191.353258 
" clip-path="url(#pfb84439f36)" style="fill: none; stroke-dasharray: 7.4,3.2; stroke-dashoffset: 0; stroke: #0000ff; stroke-width: 2"/>
   </g>
   <g id="patch_3">
    <path d="M 50.592187 287.6445 
L 50.592187 21.5325 
" style="fill: none; stroke: #000000; stroke-width: 0.8; stroke-linejoin: miter; stroke-linecap: square"/>
   </g>
   <g id="patch_4">
    <path d="M 407.712188 287.6445 
L 407.712188 21.5325 
" style="fill: none; stroke: #000000; stroke-width: 0.8; stroke-linejoin: miter; stroke-linecap: square"/>
   </g>
   <g id="patch_5">
    <path d="M 50.592187 287.6445 
L 407.712187 287.6445 
" style="fill: none; stroke: #000000; stroke-width: 0.8; stroke-linejoin: miter; stroke-linecap: square"/>
   </g>
   <g id="patch_6">
    <path d="M 50.592187 21.5325 
L 407.712187 21.5325 
" style="fill: none; stroke: #000000; stroke-width: 0.8; stroke-linejoin: miter; stroke-linecap: square"/>
   </g>
   <g id="text_17">
    <!-- SSCWeb/mms2/GSE | CDAWeb/MMS2_EPD-EIS_SRVY_L2_ELECTRONENERGY/GSE -->
    <g transform="translate(7.2 15.5325) scale(0.12 -0.12)">
     <defs>
      <path id="TimesNewRomanPSMT-53" d="M 2934 4334 
L 2934 2869 
L 2819 2869 
Q 2763 3291 2617 3541 
Q 2472 3791 2203 3937 
Q 1934 4084 1647 4084 
Q 1322 4084 1109 3886 
Q 897 3688 897 3434 
Q 897 3241 1031 3081 
Q 1225 2847 1953 2456 
Q 2547 2138 2764 1967 
Q 2981 1797 3098 1565 
Q 3216 1334 3216 1081 
Q 3216 600 2842 251 
Q 2469 -97 1881 -97 
Q 1697 -97 1534 -69 
Q 1438 -53 1133 45 
Q 828 144 747 144 
Q 669 144 623 97 
Q 578 50 556 -97 
L 441 -97 
L 441 1356 
L 556 1356 
Q 638 900 775 673 
Q 913 447 1195 297 
Q 1478 147 1816 147 
Q 2206 147 2432 353 
Q 2659 559 2659 841 
Q 2659 997 2573 1156 
Q 2488 1316 2306 1453 
Q 2184 1547 1640 1851 
Q 1097 2156 867 2337 
Q 638 2519 519 2737 
Q 400 2956 400 3219 
Q 400 3675 750 4004 
Q 1100 4334 1641 4334 
Q 1978 4334 2356 4169 
Q 2531 4091 2603 4091 
Q 2684 4091 2736 4139 
Q 2788 4188 2819 4334 
L 2934 4334 
z
" transform="scale(0.015625)"/>
      <path id="TimesNewRomanPSMT-43" d="M 3853 4334 
L 3950 2894 
L 3853 2894 
Q 3659 3541 3300 3825 
Q 2941 4109 2438 4109 
Q 2016 4109 1675 3895 
Q 1334 3681 1139 3212 
Q 944 2744 944 2047 
Q 944 1472 1128 1050 
Q 1313 628 1683 403 
Q 2053 178 2528 178 
Q 2941 178 3256 354 
Q 3572 531 3950 1056 
L 4047 994 
Q 3728 428 3303 165 
Q 2878 -97 2294 -97 
Q 1241 -97 663 684 
Q 231 1266 231 2053 
Q 231 2688 515 3219 
Q 800 3750 1298 4042 
Q 1797 4334 2388 4334 
Q 2847 4334 3294 4109 
Q 3425 4041 3481 4041 
Q 3566 4041 3628 4100 
Q 3709 4184 3744 4334 
L 3853 4334 
z
" transform="scale(0.015625)"/>
      <path id="TimesNewRomanPSMT-57" d="M 5991 4238 
L 5991 4122 
Q 5825 4122 5722 4062 
Q 5619 4003 5525 3841 
Q 5463 3731 5328 3319 
L 4147 -97 
L 4022 -97 
L 3056 2613 
L 2097 -97 
L 1984 -97 
L 725 3422 
Q 584 3816 547 3888 
Q 484 4006 376 4064 
Q 269 4122 84 4122 
L 84 4238 
L 1653 4238 
L 1653 4122 
L 1578 4122 
Q 1413 4122 1325 4047 
Q 1238 3972 1238 3866 
Q 1238 3756 1375 3363 
L 2209 984 
L 2913 3006 
L 2788 3363 
L 2688 3647 
Q 2622 3803 2541 3922 
Q 2500 3981 2441 4022 
Q 2363 4078 2284 4103 
Q 2225 4122 2097 4122 
L 2097 4238 
L 3747 4238 
L 3747 4122 
L 3634 4122 
Q 3459 4122 3378 4047 
Q 3297 3972 3297 3844 
Q 3297 3684 3438 3288 
L 4250 984 
L 5056 3319 
Q 5194 3706 5194 3856 
Q 5194 3928 5148 3990 
Q 5103 4053 5034 4078 
Q 4916 4122 4725 4122 
L 4725 4238 
L 5991 4238 
z
" transform="scale(0.015625)"/>
      <path id="TimesNewRomanPSMT-65" d="M 681 1784 
Q 678 1147 991 784 
Q 1303 422 1725 422 
Q 2006 422 2214 576 
Q 2422 731 2563 1106 
L 2659 1044 
Q 2594 616 2278 264 
Q 1963 -88 1488 -88 
Q 972 -88 605 314 
Q 238 716 238 1394 
Q 238 2128 614 2539 
Q 991 2950 1559 2950 
Q 2041 2950 2350 2633 
Q 2659 2316 2659 1784 
L 681 1784 
z
M 681 1966 
L 2006 1966 
Q 1991 2241 1941 2353 
Q 1863 2528 1708 2628 
Q 1553 2728 1384 2728 
Q 1125 2728 920 2526 
Q 716 2325 681 1966 
z
" transform="scale(0.015625)"/>
      <path id="TimesNewRomanPSMT-62" d="M 984 2369 
Q 1400 2947 1881 2947 
Q 2322 2947 2650 2570 
Q 2978 2194 2978 1541 
Q 2978 778 2472 313 
Q 2038 -88 1503 -88 
Q 1253 -88 995 3 
Q 738 94 469 275 
L 469 3241 
Q 469 3728 445 3840 
Q 422 3953 372 3993 
Q 322 4034 247 4034 
Q 159 4034 28 3984 
L -16 4094 
L 844 4444 
L 984 4444 
L 984 2369 
z
M 984 2169 
L 984 456 
Q 1144 300 1314 220 
Q 1484 141 1663 141 
Q 1947 141 2192 453 
Q 2438 766 2438 1363 
Q 2438 1913 2192 2208 
Q 1947 2503 1634 2503 
Q 1469 2503 1303 2419 
Q 1178 2356 984 2169 
z
" transform="scale(0.015625)"/>
      <path id="TimesNewRomanPSMT-2f" d="M 1794 4444 
L 259 -88 
L 9 -88 
L 1544 4444 
L 1794 4444 
z
" transform="scale(0.015625)"/>
      <path id="TimesNewRomanPSMT-6d" d="M 1050 2338 
Q 1363 2650 1419 2697 
Q 1559 2816 1721 2881 
Q 1884 2947 2044 2947 
Q 2313 2947 2506 2790 
Q 2700 2634 2766 2338 
Q 3088 2713 3309 2830 
Q 3531 2947 3766 2947 
Q 3994 2947 4170 2830 
Q 4347 2713 4450 2447 
Q 4519 2266 4519 1878 
L 4519 647 
Q 4519 378 4559 278 
Q 4591 209 4675 161 
Q 4759 113 4950 113 
L 4950 0 
L 3538 0 
L 3538 113 
L 3597 113 
Q 3781 113 3884 184 
Q 3956 234 3988 344 
Q 4000 397 4000 647 
L 4000 1878 
Q 4000 2228 3916 2372 
Q 3794 2572 3525 2572 
Q 3359 2572 3192 2489 
Q 3025 2406 2788 2181 
L 2781 2147 
L 2788 2013 
L 2788 647 
Q 2788 353 2820 281 
Q 2853 209 2943 161 
Q 3034 113 3253 113 
L 3253 0 
L 1806 0 
L 1806 113 
Q 2044 113 2133 169 
Q 2222 225 2256 338 
Q 2272 391 2272 647 
L 2272 1878 
Q 2272 2228 2169 2381 
Q 2031 2581 1784 2581 
Q 1616 2581 1450 2491 
Q 1191 2353 1050 2181 
L 1050 647 
Q 1050 366 1089 281 
Q 1128 197 1204 155 
Q 1281 113 1516 113 
L 1516 0 
L 100 0 
L 100 113 
Q 297 113 375 155 
Q 453 197 493 289 
Q 534 381 534 647 
L 534 1741 
Q 534 2213 506 2350 
Q 484 2453 437 2492 
Q 391 2531 309 2531 
Q 222 2531 100 2484 
L 53 2597 
L 916 2947 
L 1050 2947 
L 1050 2338 
z
" transform="scale(0.015625)"/>
      <path id="TimesNewRomanPSMT-73" d="M 2050 2947 
L 2050 1972 
L 1947 1972 
Q 1828 2431 1642 2597 
Q 1456 2763 1169 2763 
Q 950 2763 815 2647 
Q 681 2531 681 2391 
Q 681 2216 781 2091 
Q 878 1963 1175 1819 
L 1631 1597 
Q 2266 1288 2266 781 
Q 2266 391 1970 151 
Q 1675 -88 1309 -88 
Q 1047 -88 709 6 
Q 606 38 541 38 
Q 469 38 428 -44 
L 325 -44 
L 325 978 
L 428 978 
Q 516 541 762 319 
Q 1009 97 1316 97 
Q 1531 97 1667 223 
Q 1803 350 1803 528 
Q 1803 744 1651 891 
Q 1500 1038 1047 1263 
Q 594 1488 453 1669 
Q 313 1847 313 2119 
Q 313 2472 555 2709 
Q 797 2947 1181 2947 
Q 1350 2947 1591 2875 
Q 1750 2828 1803 2828 
Q 1853 2828 1881 2850 
Q 1909 2872 1947 2947 
L 2050 2947 
z
" transform="scale(0.015625)"/>
      <path id="TimesNewRomanPSMT-47" d="M 3928 4334 
L 4038 2997 
L 3928 2997 
Q 3763 3497 3500 3750 
Q 3122 4116 2528 4116 
Q 1719 4116 1297 3475 
Q 944 2934 944 2188 
Q 944 1581 1178 1081 
Q 1413 581 1792 348 
Q 2172 116 2572 116 
Q 2806 116 3025 175 
Q 3244 234 3447 350 
L 3447 1575 
Q 3447 1894 3398 1992 
Q 3350 2091 3248 2142 
Q 3147 2194 2891 2194 
L 2891 2313 
L 4531 2313 
L 4531 2194 
L 4453 2194 
Q 4209 2194 4119 2031 
Q 4056 1916 4056 1575 
L 4056 278 
Q 3697 84 3347 -6 
Q 2997 -97 2569 -97 
Q 1341 -97 703 691 
Q 225 1281 225 2053 
Q 225 2613 494 3125 
Q 813 3734 1369 4063 
Q 1834 4334 2469 4334 
Q 2700 4334 2889 4296 
Q 3078 4259 3425 4131 
Q 3600 4066 3659 4066 
Q 3719 4066 3761 4120 
Q 3803 4175 3813 4334 
L 3928 4334 
z
" transform="scale(0.015625)"/>
      <path id="TimesNewRomanPSMT-45" d="M 1338 4006 
L 1338 2331 
L 2269 2331 
Q 2631 2331 2753 2441 
Q 2916 2584 2934 2947 
L 3050 2947 
L 3050 1472 
L 2934 1472 
Q 2891 1781 2847 1869 
Q 2791 1978 2662 2040 
Q 2534 2103 2269 2103 
L 1338 2103 
L 1338 706 
Q 1338 425 1363 364 
Q 1388 303 1450 267 
Q 1513 231 1688 231 
L 2406 231 
Q 2766 231 2928 281 
Q 3091 331 3241 478 
Q 3434 672 3638 1063 
L 3763 1063 
L 3397 0 
L 131 0 
L 131 116 
L 281 116 
Q 431 116 566 188 
Q 666 238 702 338 
Q 738 438 738 747 
L 738 3500 
Q 738 3903 656 3997 
Q 544 4122 281 4122 
L 131 4122 
L 131 4238 
L 3397 4238 
L 3444 3309 
L 3322 3309 
Q 3256 3644 3176 3769 
Q 3097 3894 2941 3959 
Q 2816 4006 2500 4006 
L 1338 4006 
z
" transform="scale(0.015625)"/>
      <path id="TimesNewRomanPSMT-20" transform="scale(0.015625)"/>
      <path id="TimesNewRomanPSMT-7c" d="M 763 4444 
L 763 -1381 
L 503 -1381 
L 503 4444 
L 763 4444 
z
" transform="scale(0.015625)"/>
      <path id="TimesNewRomanPSMT-44" d="M 109 0 
L 109 116 
L 269 116 
Q 538 116 650 288 
Q 719 391 719 750 
L 719 3488 
Q 719 3884 631 3984 
Q 509 4122 269 4122 
L 109 4122 
L 109 4238 
L 1834 4238 
Q 2784 4238 3279 4022 
Q 3775 3806 4076 3303 
Q 4378 2800 4378 2141 
Q 4378 1256 3841 663 
Q 3238 0 2003 0 
L 109 0 
z
M 1319 306 
Q 1716 219 1984 219 
Q 2709 219 3187 728 
Q 3666 1238 3666 2109 
Q 3666 2988 3187 3494 
Q 2709 4000 1959 4000 
Q 1678 4000 1319 3909 
L 1319 306 
z
" transform="scale(0.015625)"/>
      <path id="TimesNewRomanPSMT-41" d="M 2928 1419 
L 1288 1419 
L 1000 750 
Q 894 503 894 381 
Q 894 284 986 211 
Q 1078 138 1384 116 
L 1384 0 
L 50 0 
L 50 116 
Q 316 163 394 238 
Q 553 388 747 847 
L 2238 4334 
L 2347 4334 
L 3822 809 
Q 4000 384 4145 257 
Q 4291 131 4550 116 
L 4550 0 
L 2878 0 
L 2878 116 
Q 3131 128 3220 200 
Q 3309 272 3309 375 
Q 3309 513 3184 809 
L 2928 1419 
z
M 2841 1650 
L 2122 3363 
L 1384 1650 
L 2841 1650 
z
" transform="scale(0.015625)"/>
      <path id="TimesNewRomanPSMT-4d" d="M 2619 0 
L 981 3566 
L 981 734 
Q 981 344 1066 247 
Q 1181 116 1431 116 
L 1581 116 
L 1581 0 
L 106 0 
L 106 116 
L 256 116 
Q 525 116 638 278 
Q 706 378 706 734 
L 706 3503 
Q 706 3784 644 3909 
Q 600 4000 483 4061 
Q 366 4122 106 4122 
L 106 4238 
L 1306 4238 
L 2844 922 
L 4356 4238 
L 5556 4238 
L 5556 4122 
L 5409 4122 
Q 5138 4122 5025 3959 
Q 4956 3859 4956 3503 
L 4956 734 
Q 4956 344 5044 247 
Q 5159 116 5409 116 
L 5556 116 
L 5556 0 
L 3756 0 
L 3756 116 
L 3906 116 
Q 4178 116 4288 278 
Q 4356 378 4356 734 
L 4356 3566 
L 2722 0 
L 2619 0 
z
" transform="scale(0.015625)"/>
      <path id="TimesNewRomanPSMT-5f" d="M 3256 -1381 
L -53 -1381 
L -53 -1119 
L 3256 -1119 
L 3256 -1381 
z
" transform="scale(0.015625)"/>
      <path id="TimesNewRomanPSMT-50" d="M 1313 1984 
L 1313 750 
Q 1313 350 1400 253 
Q 1519 116 1759 116 
L 1922 116 
L 1922 0 
L 106 0 
L 106 116 
L 266 116 
Q 534 116 650 291 
Q 713 388 713 750 
L 713 3488 
Q 713 3888 628 3984 
Q 506 4122 266 4122 
L 106 4122 
L 106 4238 
L 1659 4238 
Q 2228 4238 2556 4120 
Q 2884 4003 3109 3725 
Q 3334 3447 3334 3066 
Q 3334 2547 2992 2222 
Q 2650 1897 2025 1897 
Q 1872 1897 1694 1919 
Q 1516 1941 1313 1984 
z
M 1313 2163 
Q 1478 2131 1606 2115 
Q 1734 2100 1825 2100 
Q 2150 2100 2386 2351 
Q 2622 2603 2622 3003 
Q 2622 3278 2509 3514 
Q 2397 3750 2190 3867 
Q 1984 3984 1722 3984 
Q 1563 3984 1313 3925 
L 1313 2163 
z
" transform="scale(0.015625)"/>
      <path id="TimesNewRomanPSMT-49" d="M 1975 116 
L 1975 0 
L 159 0 
L 159 116 
L 309 116 
Q 572 116 691 269 
Q 766 369 766 750 
L 766 3488 
Q 766 3809 725 3913 
Q 694 3991 597 4047 
Q 459 4122 309 4122 
L 159 4122 
L 159 4238 
L 1975 4238 
L 1975 4122 
L 1822 4122 
Q 1563 4122 1444 3969 
Q 1366 3869 1366 3488 
L 1366 750 
Q 1366 428 1406 325 
Q 1438 247 1538 191 
Q 1672 116 1822 116 
L 1975 116 
z
" transform="scale(0.015625)"/>
      <path id="TimesNewRomanPSMT-52" d="M 4325 0 
L 3194 0 
L 1759 1981 
Q 1600 1975 1500 1975 
Q 1459 1975 1412 1976 
Q 1366 1978 1316 1981 
L 1316 750 
Q 1316 350 1403 253 
Q 1522 116 1759 116 
L 1925 116 
L 1925 0 
L 109 0 
L 109 116 
L 269 116 
Q 538 116 653 291 
Q 719 388 719 750 
L 719 3488 
Q 719 3888 631 3984 
Q 509 4122 269 4122 
L 109 4122 
L 109 4238 
L 1653 4238 
Q 2328 4238 2648 4139 
Q 2969 4041 3192 3777 
Q 3416 3513 3416 3147 
Q 3416 2756 3161 2468 
Q 2906 2181 2372 2063 
L 3247 847 
Q 3547 428 3762 290 
Q 3978 153 4325 116 
L 4325 0 
z
M 1316 2178 
Q 1375 2178 1419 2176 
Q 1463 2175 1491 2175 
Q 2097 2175 2405 2437 
Q 2713 2700 2713 3106 
Q 2713 3503 2464 3751 
Q 2216 4000 1806 4000 
Q 1625 4000 1316 3941 
L 1316 2178 
z
" transform="scale(0.015625)"/>
      <path id="TimesNewRomanPSMT-56" d="M 4544 4238 
L 4544 4122 
Q 4319 4081 4203 3978 
Q 4038 3825 3909 3509 
L 2431 -97 
L 2316 -97 
L 728 3556 
Q 606 3838 556 3900 
Q 478 3997 364 4051 
Q 250 4106 56 4122 
L 56 4238 
L 1788 4238 
L 1788 4122 
Q 1494 4094 1406 4022 
Q 1319 3950 1319 3838 
Q 1319 3681 1463 3350 
L 2541 866 
L 3541 3319 
Q 3688 3681 3688 3822 
Q 3688 3913 3597 3995 
Q 3506 4078 3291 4113 
Q 3275 4116 3238 4122 
L 3238 4238 
L 4544 4238 
z
" transform="scale(0.015625)"/>
      <path id="TimesNewRomanPSMT-59" d="M 3050 4238 
L 4528 4238 
L 4528 4122 
L 4447 4122 
Q 4366 4122 4209 4050 
Q 4053 3978 3925 3843 
Q 3797 3709 3609 3406 
L 2588 1797 
L 2588 734 
Q 2588 344 2675 247 
Q 2794 116 3050 116 
L 3188 116 
L 3188 0 
L 1388 0 
L 1388 116 
L 1538 116 
Q 1806 116 1919 278 
Q 1988 378 1988 734 
L 1988 1738 
L 825 3513 
Q 619 3825 545 3903 
Q 472 3981 241 4091 
Q 178 4122 59 4122 
L 59 4238 
L 1872 4238 
L 1872 4122 
L 1778 4122 
Q 1631 4122 1507 4053 
Q 1384 3984 1384 3847 
Q 1384 3734 1575 3441 
L 2459 2075 
L 3291 3381 
Q 3478 3675 3478 3819 
Q 3478 3906 3433 3975 
Q 3388 4044 3303 4083 
Q 3219 4122 3050 4122 
L 3050 4238 
z
" transform="scale(0.015625)"/>
      <path id="TimesNewRomanPSMT-4c" d="M 3669 1172 
L 3772 1150 
L 3409 0 
L 128 0 
L 128 116 
L 288 116 
Q 556 116 672 291 
Q 738 391 738 753 
L 738 3488 
Q 738 3884 650 3984 
Q 528 4122 288 4122 
L 128 4122 
L 128 4238 
L 2047 4238 
L 2047 4122 
Q 1709 4125 1573 4059 
Q 1438 3994 1388 3894 
Q 1338 3794 1338 3416 
L 1338 753 
Q 1338 494 1388 397 
Q 1425 331 1503 300 
Q 1581 269 1991 269 
L 2300 269 
Q 2788 269 2984 341 
Q 3181 413 3343 595 
Q 3506 778 3669 1172 
z
" transform="scale(0.015625)"/>
      <path id="TimesNewRomanPSMT-54" d="M 3703 4238 
L 3750 3244 
L 3631 3244 
Q 3597 3506 3538 3619 
Q 3441 3800 3280 3886 
Q 3119 3972 2856 3972 
L 2259 3972 
L 2259 734 
Q 2259 344 2344 247 
Q 2463 116 2709 116 
L 2856 116 
L 2856 0 
L 1059 0 
L 1059 116 
L 1209 116 
Q 1478 116 1591 278 
Q 1659 378 1659 734 
L 1659 3972 
L 1150 3972 
Q 853 3972 728 3928 
Q 566 3869 450 3700 
Q 334 3531 313 3244 
L 194 3244 
L 244 4238 
L 3703 4238 
z
" transform="scale(0.015625)"/>
      <path id="TimesNewRomanPSMT-4f" d="M 2341 4334 
Q 3166 4334 3770 3707 
Q 4375 3081 4375 2144 
Q 4375 1178 3765 540 
Q 3156 -97 2291 -97 
Q 1416 -97 820 525 
Q 225 1147 225 2134 
Q 225 3144 913 3781 
Q 1509 4334 2341 4334 
z
M 2281 4106 
Q 1713 4106 1369 3684 
Q 941 3159 941 2147 
Q 941 1109 1384 550 
Q 1725 125 2284 125 
Q 2881 125 3270 590 
Q 3659 1056 3659 2059 
Q 3659 3147 3231 3681 
Q 2888 4106 2281 4106 
z
" transform="scale(0.015625)"/>
      <path id="TimesNewRomanPSMT-4e" d="M -84 4238 
L 1066 4238 
L 3656 1059 
L 3656 3503 
Q 3656 3894 3569 3991 
Q 3453 4122 3203 4122 
L 3056 4122 
L 3056 4238 
L 4531 4238 
L 4531 4122 
L 4381 4122 
Q 4113 4122 4000 3959 
Q 3931 3859 3931 3503 
L 3931 -69 
L 3819 -69 
L 1025 3344 
L 1025 734 
Q 1025 344 1109 247 
Q 1228 116 1475 116 
L 1625 116 
L 1625 0 
L 150 0 
L 150 116 
L 297 116 
Q 569 116 681 278 
Q 750 378 750 734 
L 750 3681 
Q 566 3897 470 3965 
Q 375 4034 191 4094 
Q 100 4122 -84 4122 
L -84 4238 
z
" transform="scale(0.015625)"/>
     </defs>
     <use xlink:href="#TimesNewRomanPSMT-53"/>
     <use xlink:href="#TimesNewRomanPSMT-53" x="55.615234"/>
     <use xlink:href="#TimesNewRomanPSMT-43" x="111.230469"/>
     <use xlink:href="#TimesNewRomanPSMT-57" x="177.929688"/>
     <use xlink:href="#TimesNewRomanPSMT-65" x="264.314453"/>
     <use xlink:href="#TimesNewRomanPSMT-62" x="308.699219"/>
     <use xlink:href="#TimesNewRomanPSMT-2f" x="358.699219"/>
     <use xlink:href="#TimesNewRomanPSMT-6d" x="386.482422"/>
     <use xlink:href="#TimesNewRomanPSMT-6d" x="464.265625"/>
     <use xlink:href="#TimesNewRomanPSMT-73" x="542.048828"/>
     <use xlink:href="#TimesNewRomanPSMT-32" x="580.964844"/>
     <use xlink:href="#TimesNewRomanPSMT-2f" x="630.964844"/>
     <use xlink:href="#TimesNewRomanPSMT-47" x="658.748047"/>
     <use xlink:href="#TimesNewRomanPSMT-53" x="730.964844"/>
     <use xlink:href="#TimesNewRomanPSMT-45" x="786.580078"/>
     <use xlink:href="#TimesNewRomanPSMT-20" x="847.664062"/>
     <use xlink:href="#TimesNewRomanPSMT-7c" x="872.664062"/>
     <use xlink:href="#TimesNewRomanPSMT-20" x="892.683594"/>
     <use xlink:href="#TimesNewRomanPSMT-43" x="917.683594"/>
     <use xlink:href="#TimesNewRomanPSMT-44" x="984.382812"/>
     <use xlink:href="#TimesNewRomanPSMT-41" x="1056.599609"/>
     <use xlink:href="#TimesNewRomanPSMT-57" x="1120.816406"/>
     <use xlink:href="#TimesNewRomanPSMT-65" x="1207.201172"/>
     <use xlink:href="#TimesNewRomanPSMT-62" x="1251.585938"/>
     <use xlink:href="#TimesNewRomanPSMT-2f" x="1301.585938"/>
     <use xlink:href="#TimesNewRomanPSMT-4d" x="1329.369141"/>
     <use xlink:href="#TimesNewRomanPSMT-4d" x="1418.285156"/>
     <use xlink:href="#TimesNewRomanPSMT-53" x="1507.201172"/>
     <use xlink:href="#TimesNewRomanPSMT-32" x="1562.816406"/>
     <use xlink:href="#TimesNewRomanPSMT-5f" x="1612.816406"/>
     <use xlink:href="#TimesNewRomanPSMT-45" x="1662.816406"/>
     <use xlink:href="#TimesNewRomanPSMT-50" x="1723.900391"/>
     <use xlink:href="#TimesNewRomanPSMT-44" x="1779.515625"/>
     <use xlink:href="#TimesNewRomanPSMT-2d" x="1851.732422"/>
     <use xlink:href="#TimesNewRomanPSMT-45" x="1885.033203"/>
     <use xlink:href="#TimesNewRomanPSMT-49" x="1946.117188"/>
     <use xlink:href="#TimesNewRomanPSMT-53" x="1979.417969"/>
     <use xlink:href="#TimesNewRomanPSMT-5f" x="2035.033203"/>
     <use xlink:href="#TimesNewRomanPSMT-53" x="2085.033203"/>
     <use xlink:href="#TimesNewRomanPSMT-52" x="2140.648438"/>
     <use xlink:href="#TimesNewRomanPSMT-56" x="2199.347656"/>
     <use xlink:href="#TimesNewRomanPSMT-59" x="2271.564453"/>
     <use xlink:href="#TimesNewRomanPSMT-5f" x="2343.78125"/>
     <use xlink:href="#TimesNewRomanPSMT-4c" x="2393.78125"/>
     <use xlink:href="#TimesNewRomanPSMT-32" x="2454.865234"/>
     <use xlink:href="#TimesNewRomanPSMT-5f" x="2504.865234"/>
     <use xlink:href="#TimesNewRomanPSMT-45" x="2554.865234"/>
     <use xlink:href="#TimesNewRomanPSMT-4c" x="2615.949219"/>
     <use xlink:href="#TimesNewRomanPSMT-45" x="2677.033203"/>
     <use xlink:href="#TimesNewRomanPSMT-43" x="2738.117188"/>
     <use xlink:href="#TimesNewRomanPSMT-54" x="2804.816406"/>
     <use xlink:href="#TimesNewRomanPSMT-52" x="2865.900391"/>
     <use xlink:href="#TimesNewRomanPSMT-4f" x="2932.599609"/>
     <use xlink:href="#TimesNewRomanPSMT-4e" x="3004.816406"/>
     <use xlink:href="#TimesNewRomanPSMT-45" x="3077.033203"/>
     <use xlink:href="#TimesNewRomanPSMT-4e" x="3138.117188"/>
     <use xlink:href="#TimesNewRomanPSMT-45" x="3210.333984"/>
     <use xlink:href="#TimesNewRomanPSMT-52" x="3271.417969"/>
     <use xlink:href="#TimesNewRomanPSMT-47" x="3338.117188"/>
     <use xlink:href="#TimesNewRomanPSMT-59" x="3410.333984"/>
     <use xlink:href="#TimesNewRomanPSMT-2f" x="3482.550781"/>
     <use xlink:href="#TimesNewRomanPSMT-47" x="3510.333984"/>
     <use xlink:href="#TimesNewRomanPSMT-53" x="3582.550781"/>
     <use xlink:href="#TimesNewRomanPSMT-45" x="3638.166016"/>
    </g>
   </g>
   <g id="legend_1">
    <g id="patch_7">
     <path d="M 188.956094 114.366875 
L 269.348281 114.366875 
Q 271.348281 114.366875 271.348281 112.366875 
L 271.348281 28.5325 
Q 271.348281 26.5325 269.348281 26.5325 
L 188.956094 26.5325 
Q 186.956094 26.5325 186.956094 28.5325 
L 186.956094 112.366875 
Q 186.956094 114.366875 188.956094 114.366875 
z
" style="fill: #ffffff; opacity: 0.8; stroke: #cccccc; stroke-linejoin: miter"/>
    </g>
    <g id="line2d_57">
     <path d="M 190.956094 34.0325 
L 200.956094 34.0325 
L 210.956094 34.0325 
" style="fill: none; stroke: #ff0000; stroke-linecap: square"/>
    </g>
    <g id="text_18">
     <!-- CDAWeb/X -->
     <g transform="translate(218.956094 37.5325) scale(0.1 -0.1)">
      <defs>
       <path id="TimesNewRomanPSMT-58" d="M 2613 2347 
L 3522 991 
Q 3900 428 4083 279 
Q 4266 131 4547 116 
L 4547 0 
L 2728 0 
L 2728 116 
Q 2909 119 2997 153 
Q 3063 181 3105 239 
Q 3147 297 3147 356 
Q 3147 428 3119 500 
Q 3097 553 2947 775 
L 2228 1863 
L 1341 725 
Q 1200 544 1172 483 
Q 1144 422 1144 356 
Q 1144 256 1228 190 
Q 1313 125 1550 116 
L 1550 0 
L 47 0 
L 47 116 
Q 206 131 322 181 
Q 516 263 691 400 
Q 866 538 1091 822 
L 2091 2084 
L 1256 3306 
Q 916 3803 678 3958 
Q 441 4113 131 4122 
L 131 4238 
L 2091 4238 
L 2091 4122 
Q 1841 4113 1748 4041 
Q 1656 3969 1656 3881 
Q 1656 3766 1806 3544 
L 2456 2572 
L 3209 3525 
Q 3341 3694 3370 3756 
Q 3400 3819 3400 3884 
Q 3400 3950 3363 4000 
Q 3316 4066 3244 4092 
Q 3172 4119 2947 4122 
L 2947 4238 
L 4450 4238 
L 4450 4122 
Q 4272 4113 4159 4066 
Q 3991 3994 3850 3872 
Q 3709 3750 3453 3422 
L 2613 2347 
z
" transform="scale(0.015625)"/>
      </defs>
      <use xlink:href="#TimesNewRomanPSMT-43"/>
      <use xlink:href="#TimesNewRomanPSMT-44" x="66.699219"/>
      <use xlink:href="#TimesNewRomanPSMT-41" x="138.916016"/>
      <use xlink:href="#TimesNewRomanPSMT-57" x="203.132812"/>
      <use xlink:href="#TimesNewRomanPSMT-65" x="289.517578"/>
      <use xlink:href="#TimesNewRomanPSMT-62" x="333.902344"/>
      <use xlink:href="#TimesNewRomanPSMT-2f" x="383.902344"/>
      <use xlink:href="#TimesNewRomanPSMT-58" x="411.685547"/>
     </g>
    </g>
    <g id="line2d_58">
     <path d="M 190.956094 48.171562 
L 200.956094 48.171562 
L 210.956094 48.171562 
" style="fill: none; stroke-dasharray: 7.4,3.2; stroke-dashoffset: 0; stroke: #ff0000; stroke-width: 2"/>
    </g>
    <g id="text_19">
     <!-- SSCWeb/X -->
     <g transform="translate(218.956094 51.671562) scale(0.1 -0.1)">
      <use xlink:href="#TimesNewRomanPSMT-53"/>
      <use xlink:href="#TimesNewRomanPSMT-53" x="55.615234"/>
      <use xlink:href="#TimesNewRomanPSMT-43" x="111.230469"/>
      <use xlink:href="#TimesNewRomanPSMT-57" x="177.929688"/>
      <use xlink:href="#TimesNewRomanPSMT-65" x="264.314453"/>
      <use xlink:href="#TimesNewRomanPSMT-62" x="308.699219"/>
      <use xlink:href="#TimesNewRomanPSMT-2f" x="358.699219"/>
      <use xlink:href="#TimesNewRomanPSMT-58" x="386.482422"/>
     </g>
    </g>
    <g id="line2d_59">
     <path d="M 190.956094 62.310625 
L 200.956094 62.310625 
L 210.956094 62.310625 
" style="fill: none; stroke: #008000; stroke-linecap: square"/>
    </g>
    <g id="text_20">
     <!-- CDAWeb/Y -->
     <g transform="translate(218.956094 65.810625) scale(0.1 -0.1)">
      <use xlink:href="#TimesNewRomanPSMT-43"/>
      <use xlink:href="#TimesNewRomanPSMT-44" x="66.699219"/>
      <use xlink:href="#TimesNewRomanPSMT-41" x="138.916016"/>
      <use xlink:href="#TimesNewRomanPSMT-57" x="203.132812"/>
      <use xlink:href="#TimesNewRomanPSMT-65" x="289.517578"/>
      <use xlink:href="#TimesNewRomanPSMT-62" x="333.902344"/>
      <use xlink:href="#TimesNewRomanPSMT-2f" x="383.902344"/>
      <use xlink:href="#TimesNewRomanPSMT-59" x="411.685547"/>
     </g>
    </g>
    <g id="line2d_60">
     <path d="M 190.956094 76.449687 
L 200.956094 76.449687 
L 210.956094 76.449687 
" style="fill: none; stroke-dasharray: 7.4,3.2; stroke-dashoffset: 0; stroke: #008000; stroke-width: 2"/>
    </g>
    <g id="text_21">
     <!-- SSCWeb/Y -->
     <g transform="translate(218.956094 79.949687) scale(0.1 -0.1)">
      <use xlink:href="#TimesNewRomanPSMT-53"/>
      <use xlink:href="#TimesNewRomanPSMT-53" x="55.615234"/>
      <use xlink:href="#TimesNewRomanPSMT-43" x="111.230469"/>
      <use xlink:href="#TimesNewRomanPSMT-57" x="177.929688"/>
      <use xlink:href="#TimesNewRomanPSMT-65" x="264.314453"/>
      <use xlink:href="#TimesNewRomanPSMT-62" x="308.699219"/>
      <use xlink:href="#TimesNewRomanPSMT-2f" x="358.699219"/>
      <use xlink:href="#TimesNewRomanPSMT-59" x="386.482422"/>
     </g>
    </g>
    <g id="line2d_61">
     <path d="M 190.956094 90.58875 
L 200.956094 90.58875 
L 210.956094 90.58875 
" style="fill: none; stroke: #0000ff; stroke-linecap: square"/>
    </g>
    <g id="text_22">
     <!-- CDAWeb/Z -->
     <g transform="translate(218.956094 94.08875) scale(0.1 -0.1)">
      <defs>
       <path id="TimesNewRomanPSMT-5a" d="M 3681 4238 
L 897 256 
L 2634 256 
Q 3034 256 3248 431 
Q 3463 606 3628 1141 
L 3731 1122 
L 3531 0 
L 81 0 
L 81 116 
L 2800 3984 
L 1444 3984 
Q 1106 3984 954 3911 
Q 803 3838 723 3698 
Q 644 3559 578 3178 
L 459 3178 
L 547 4238 
L 3681 4238 
z
" transform="scale(0.015625)"/>
      </defs>
      <use xlink:href="#TimesNewRomanPSMT-43"/>
      <use xlink:href="#TimesNewRomanPSMT-44" x="66.699219"/>
      <use xlink:href="#TimesNewRomanPSMT-41" x="138.916016"/>
      <use xlink:href="#TimesNewRomanPSMT-57" x="203.132812"/>
      <use xlink:href="#TimesNewRomanPSMT-65" x="289.517578"/>
      <use xlink:href="#TimesNewRomanPSMT-62" x="333.902344"/>
      <use xlink:href="#TimesNewRomanPSMT-2f" x="383.902344"/>
      <use xlink:href="#TimesNewRomanPSMT-5a" x="411.685547"/>
     </g>
    </g>
    <g id="line2d_62">
     <path d="M 190.956094 104.727812 
L 200.956094 104.727812 
L 210.956094 104.727812 
" style="fill: none; stroke-dasharray: 7.4,3.2; stroke-dashoffset: 0; stroke: #0000ff; stroke-width: 2"/>
    </g>
    <g id="text_23">
     <!-- SSCWeb/Z -->
     <g transform="translate(218.956094 108.227812) scale(0.1 -0.1)">
      <use xlink:href="#TimesNewRomanPSMT-53"/>
      <use xlink:href="#TimesNewRomanPSMT-53" x="55.615234"/>
      <use xlink:href="#TimesNewRomanPSMT-43" x="111.230469"/>
      <use xlink:href="#TimesNewRomanPSMT-57" x="177.929688"/>
      <use xlink:href="#TimesNewRomanPSMT-65" x="264.314453"/>
      <use xlink:href="#TimesNewRomanPSMT-62" x="308.699219"/>
      <use xlink:href="#TimesNewRomanPSMT-2f" x="358.699219"/>
      <use xlink:href="#TimesNewRomanPSMT-5a" x="386.482422"/>
     </g>
    </g>
   </g>
  </g>
 </g>
 <defs>
  <clipPath id="pfb84439f36">
   <rect x="50.592187" y="21.5325" width="357.12" height="266.112"/>
  </clipPath>
 </defs>
</svg>
