<?xml version="1.0" encoding="utf-8" standalone="no"?>
<!DOCTYPE svg PUBLIC "-//W3C//DTD SVG 1.1//EN"
  "http://www.w3.org/Graphics/SVG/1.1/DTD/svg11.dtd">
<svg xmlns:xlink="http://www.w3.org/1999/xlink" width="464.986875pt" height="321.398875pt" viewBox="0 0 464.986875 321.398875" xmlns="http://www.w3.org/2000/svg" version="1.1">
 <metadata>
  <rdf:RDF xmlns:dc="http://purl.org/dc/elements/1.1/" xmlns:cc="http://creativecommons.org/ns#" xmlns:rdf="http://www.w3.org/1999/02/22-rdf-syntax-ns#">
   <cc:Work>
    <dc:type rdf:resource="http://purl.org/dc/dcmitype/StillImage"/>
    <dc:date>2025-05-06T16:32:45.248991</dc:date>
    <dc:format>image/svg+xml</dc:format>
    <dc:creator>
     <cc:Agent>
      <dc:title>Matplotlib v3.8.4, https://matplotlib.org/</dc:title>
     </cc:Agent>
    </dc:creator>
   </cc:Work>
  </rdf:RDF>
 </metadata>
 <defs>
  <style type="text/css">*{stroke-linejoin: round; stroke-linecap: butt}</style>
 </defs>
 <g id="figure_1">
  <g id="patch_1">
   <path d="M 0 321.398875 
L 464.986875 321.398875 
L 464.986875 0 
L 0 0 
z
" style="fill: #ffffff"/>
  </g>
  <g id="axes_1">
   <g id="patch_2">
    <path d="M 53.933437 287.6445 
L 411.053438 287.6445 
L 411.053438 21.5325 
L 53.933437 21.5325 
z
" style="fill: #ffffff"/>
   </g>
   <g id="matplotlib.axis_1">
    <g id="xtick_1">
     <g id="line2d_1">
      <path d="M 70.162392 287.6445 
L 70.162392 21.5325 
" clip-path="url(#pa63a596f35)" style="fill: none; stroke: #b0b0b0; stroke-width: 0.8; stroke-linecap: square"/>
     </g>
     <g id="line2d_2">
      <defs>
       <path id="md179027263" d="M 0 0 
L 0 3.5 
" style="stroke: #000000; stroke-width: 0.8"/>
      </defs>
      <g>
       <use xlink:href="#md179027263" x="70.162392" y="287.6445" style="stroke: #000000; stroke-width: 0.8"/>
      </g>
     </g>
     <g id="text_1">
      <!-- 00 -->
      <g transform="translate(65.162392 301.58825) scale(0.1 -0.1)">
       <defs>
        <path id="TimesNewRomanPSMT-30" d="M 231 2094 
Q 231 2819 450 3342 
Q 669 3866 1031 4122 
Q 1313 4325 1613 4325 
Q 2100 4325 2488 3828 
Q 2972 3213 2972 2159 
Q 2972 1422 2759 906 
Q 2547 391 2217 158 
Q 1888 -75 1581 -75 
Q 975 -75 572 641 
Q 231 1244 231 2094 
z
M 844 2016 
Q 844 1141 1059 588 
Q 1238 122 1591 122 
Q 1759 122 1940 273 
Q 2122 425 2216 781 
Q 2359 1319 2359 2297 
Q 2359 3022 2209 3506 
Q 2097 3866 1919 4016 
Q 1791 4119 1609 4119 
Q 1397 4119 1231 3928 
Q 1006 3669 925 3112 
Q 844 2556 844 2016 
z
" transform="scale(0.015625)"/>
       </defs>
       <use xlink:href="#TimesNewRomanPSMT-30"/>
       <use xlink:href="#TimesNewRomanPSMT-30" x="50"/>
      </g>
      <!-- 2016-09-01 -->
      <g transform="translate(46.832705 312.059812) scale(0.1 -0.1)">
       <defs>
        <path id="TimesNewRomanPSMT-32" d="M 2934 816 
L 2638 0 
L 138 0 
L 138 116 
Q 1241 1122 1691 1759 
Q 2141 2397 2141 2925 
Q 2141 3328 1894 3587 
Q 1647 3847 1303 3847 
Q 991 3847 742 3664 
Q 494 3481 375 3128 
L 259 3128 
Q 338 3706 661 4015 
Q 984 4325 1469 4325 
Q 1984 4325 2329 3994 
Q 2675 3663 2675 3213 
Q 2675 2891 2525 2569 
Q 2294 2063 1775 1497 
Q 997 647 803 472 
L 1909 472 
Q 2247 472 2383 497 
Q 2519 522 2628 598 
Q 2738 675 2819 816 
L 2934 816 
z
" transform="scale(0.015625)"/>
        <path id="TimesNewRomanPSMT-31" d="M 750 3822 
L 1781 4325 
L 1884 4325 
L 1884 747 
Q 1884 391 1914 303 
Q 1944 216 2037 169 
Q 2131 122 2419 116 
L 2419 0 
L 825 0 
L 825 116 
Q 1125 122 1212 167 
Q 1300 213 1334 289 
Q 1369 366 1369 747 
L 1369 3034 
Q 1369 3497 1338 3628 
Q 1316 3728 1258 3775 
Q 1200 3822 1119 3822 
Q 1003 3822 797 3725 
L 750 3822 
z
" transform="scale(0.015625)"/>
        <path id="TimesNewRomanPSMT-36" d="M 2869 4325 
L 2869 4209 
Q 2456 4169 2195 4045 
Q 1934 3922 1679 3669 
Q 1425 3416 1258 3105 
Q 1091 2794 978 2366 
Q 1428 2675 1881 2675 
Q 2316 2675 2634 2325 
Q 2953 1975 2953 1425 
Q 2953 894 2631 456 
Q 2244 -75 1606 -75 
Q 1172 -75 869 213 
Q 275 772 275 1663 
Q 275 2231 503 2743 
Q 731 3256 1154 3653 
Q 1578 4050 1965 4187 
Q 2353 4325 2688 4325 
L 2869 4325 
z
M 925 2138 
Q 869 1716 869 1456 
Q 869 1156 980 804 
Q 1091 453 1309 247 
Q 1469 100 1697 100 
Q 1969 100 2183 356 
Q 2397 613 2397 1088 
Q 2397 1622 2184 2012 
Q 1972 2403 1581 2403 
Q 1463 2403 1327 2353 
Q 1191 2303 925 2138 
z
" transform="scale(0.015625)"/>
        <path id="TimesNewRomanPSMT-2d" d="M 259 1672 
L 1875 1672 
L 1875 1200 
L 259 1200 
L 259 1672 
z
" transform="scale(0.015625)"/>
        <path id="TimesNewRomanPSMT-39" d="M 338 -88 
L 338 28 
Q 744 34 1094 217 
Q 1444 400 1770 856 
Q 2097 1313 2225 1859 
Q 1734 1544 1338 1544 
Q 891 1544 572 1889 
Q 253 2234 253 2806 
Q 253 3363 572 3797 
Q 956 4325 1575 4325 
Q 2097 4325 2469 3894 
Q 2925 3359 2925 2575 
Q 2925 1869 2578 1258 
Q 2231 647 1613 244 
Q 1109 -88 516 -88 
L 338 -88 
z
M 2275 2091 
Q 2331 2497 2331 2741 
Q 2331 3044 2228 3395 
Q 2125 3747 1936 3934 
Q 1747 4122 1506 4122 
Q 1228 4122 1018 3872 
Q 809 3622 809 3128 
Q 809 2469 1088 2097 
Q 1291 1828 1588 1828 
Q 1731 1828 1928 1897 
Q 2125 1966 2275 2091 
z
" transform="scale(0.015625)"/>
       </defs>
       <use xlink:href="#TimesNewRomanPSMT-32"/>
       <use xlink:href="#TimesNewRomanPSMT-30" x="50"/>
       <use xlink:href="#TimesNewRomanPSMT-31" x="100"/>
       <use xlink:href="#TimesNewRomanPSMT-36" x="150"/>
       <use xlink:href="#TimesNewRomanPSMT-2d" x="200"/>
       <use xlink:href="#TimesNewRomanPSMT-30" x="233.300781"/>
       <use xlink:href="#TimesNewRomanPSMT-39" x="283.300781"/>
       <use xlink:href="#TimesNewRomanPSMT-2d" x="333.300781"/>
       <use xlink:href="#TimesNewRomanPSMT-30" x="366.601562"/>
       <use xlink:href="#TimesNewRomanPSMT-31" x="416.601562"/>
      </g>
     </g>
    </g>
    <g id="xtick_2">
     <g id="line2d_3">
      <path d="M 110.745322 287.6445 
L 110.745322 21.5325 
" clip-path="url(#pa63a596f35)" style="fill: none; stroke: #b0b0b0; stroke-width: 0.8; stroke-linecap: square"/>
     </g>
     <g id="line2d_4">
      <g>
       <use xlink:href="#md179027263" x="110.745322" y="287.6445" style="stroke: #000000; stroke-width: 0.8"/>
      </g>
     </g>
     <g id="text_2">
      <!-- 03 -->
      <g transform="translate(105.745322 301.58825) scale(0.1 -0.1)">
       <defs>
        <path id="TimesNewRomanPSMT-33" d="M 325 3431 
Q 506 3859 782 4092 
Q 1059 4325 1472 4325 
Q 1981 4325 2253 3994 
Q 2459 3747 2459 3466 
Q 2459 3003 1878 2509 
Q 2269 2356 2469 2072 
Q 2669 1788 2669 1403 
Q 2669 853 2319 450 
Q 1863 -75 997 -75 
Q 569 -75 414 31 
Q 259 138 259 259 
Q 259 350 332 419 
Q 406 488 509 488 
Q 588 488 669 463 
Q 722 447 909 348 
Q 1097 250 1169 231 
Q 1284 197 1416 197 
Q 1734 197 1970 444 
Q 2206 691 2206 1028 
Q 2206 1275 2097 1509 
Q 2016 1684 1919 1775 
Q 1784 1900 1550 2001 
Q 1316 2103 1072 2103 
L 972 2103 
L 972 2197 
Q 1219 2228 1467 2375 
Q 1716 2522 1828 2728 
Q 1941 2934 1941 3181 
Q 1941 3503 1739 3701 
Q 1538 3900 1238 3900 
Q 753 3900 428 3381 
L 325 3431 
z
" transform="scale(0.015625)"/>
       </defs>
       <use xlink:href="#TimesNewRomanPSMT-30"/>
       <use xlink:href="#TimesNewRomanPSMT-33" x="50"/>
      </g>
     </g>
    </g>
    <g id="xtick_3">
     <g id="line2d_5">
      <path d="M 151.328252 287.6445 
L 151.328252 21.5325 
" clip-path="url(#pa63a596f35)" style="fill: none; stroke: #b0b0b0; stroke-width: 0.8; stroke-linecap: square"/>
     </g>
     <g id="line2d_6">
      <g>
       <use xlink:href="#md179027263" x="151.328252" y="287.6445" style="stroke: #000000; stroke-width: 0.8"/>
      </g>
     </g>
     <g id="text_3">
      <!-- 06 -->
      <g transform="translate(146.328252 301.58825) scale(0.1 -0.1)">
       <use xlink:href="#TimesNewRomanPSMT-30"/>
       <use xlink:href="#TimesNewRomanPSMT-36" x="50"/>
      </g>
     </g>
    </g>
    <g id="xtick_4">
     <g id="line2d_7">
      <path d="M 191.911182 287.6445 
L 191.911182 21.5325 
" clip-path="url(#pa63a596f35)" style="fill: none; stroke: #b0b0b0; stroke-width: 0.8; stroke-linecap: square"/>
     </g>
     <g id="line2d_8">
      <g>
       <use xlink:href="#md179027263" x="191.911182" y="287.6445" style="stroke: #000000; stroke-width: 0.8"/>
      </g>
     </g>
     <g id="text_4">
      <!-- 09 -->
      <g transform="translate(186.911182 301.58825) scale(0.1 -0.1)">
       <use xlink:href="#TimesNewRomanPSMT-30"/>
       <use xlink:href="#TimesNewRomanPSMT-39" x="50"/>
      </g>
     </g>
    </g>
    <g id="xtick_5">
     <g id="line2d_9">
      <path d="M 232.494112 287.6445 
L 232.494112 21.5325 
" clip-path="url(#pa63a596f35)" style="fill: none; stroke: #b0b0b0; stroke-width: 0.8; stroke-linecap: square"/>
     </g>
     <g id="line2d_10">
      <g>
       <use xlink:href="#md179027263" x="232.494112" y="287.6445" style="stroke: #000000; stroke-width: 0.8"/>
      </g>
     </g>
     <g id="text_5">
      <!-- 12 -->
      <g transform="translate(227.494112 301.58825) scale(0.1 -0.1)">
       <use xlink:href="#TimesNewRomanPSMT-31"/>
       <use xlink:href="#TimesNewRomanPSMT-32" x="50"/>
      </g>
     </g>
    </g>
    <g id="xtick_6">
     <g id="line2d_11">
      <path d="M 273.077042 287.6445 
L 273.077042 21.5325 
" clip-path="url(#pa63a596f35)" style="fill: none; stroke: #b0b0b0; stroke-width: 0.8; stroke-linecap: square"/>
     </g>
     <g id="line2d_12">
      <g>
       <use xlink:href="#md179027263" x="273.077042" y="287.6445" style="stroke: #000000; stroke-width: 0.8"/>
      </g>
     </g>
     <g id="text_6">
      <!-- 15 -->
      <g transform="translate(268.077042 301.58825) scale(0.1 -0.1)">
       <defs>
        <path id="TimesNewRomanPSMT-35" d="M 2778 4238 
L 2534 3706 
L 1259 3706 
L 981 3138 
Q 1809 3016 2294 2522 
Q 2709 2097 2709 1522 
Q 2709 1188 2573 903 
Q 2438 619 2231 419 
Q 2025 219 1772 97 
Q 1413 -75 1034 -75 
Q 653 -75 479 54 
Q 306 184 306 341 
Q 306 428 378 495 
Q 450 563 559 563 
Q 641 563 702 538 
Q 763 513 909 409 
Q 1144 247 1384 247 
Q 1750 247 2026 523 
Q 2303 800 2303 1197 
Q 2303 1581 2056 1914 
Q 1809 2247 1375 2428 
Q 1034 2569 447 2591 
L 1259 4238 
L 2778 4238 
z
" transform="scale(0.015625)"/>
       </defs>
       <use xlink:href="#TimesNewRomanPSMT-31"/>
       <use xlink:href="#TimesNewRomanPSMT-35" x="50"/>
      </g>
     </g>
    </g>
    <g id="xtick_7">
     <g id="line2d_13">
      <path d="M 313.659972 287.6445 
L 313.659972 21.5325 
" clip-path="url(#pa63a596f35)" style="fill: none; stroke: #b0b0b0; stroke-width: 0.8; stroke-linecap: square"/>
     </g>
     <g id="line2d_14">
      <g>
       <use xlink:href="#md179027263" x="313.659972" y="287.6445" style="stroke: #000000; stroke-width: 0.8"/>
      </g>
     </g>
     <g id="text_7">
      <!-- 18 -->
      <g transform="translate(308.659972 301.58825) scale(0.1 -0.1)">
       <defs>
        <path id="TimesNewRomanPSMT-38" d="M 1228 2134 
Q 725 2547 579 2797 
Q 434 3047 434 3316 
Q 434 3728 753 4026 
Q 1072 4325 1600 4325 
Q 2113 4325 2425 4047 
Q 2738 3769 2738 3413 
Q 2738 3175 2569 2928 
Q 2400 2681 1866 2347 
Q 2416 1922 2594 1678 
Q 2831 1359 2831 1006 
Q 2831 559 2490 242 
Q 2150 -75 1597 -75 
Q 994 -75 656 303 
Q 388 606 388 966 
Q 388 1247 577 1523 
Q 766 1800 1228 2134 
z
M 1719 2469 
Q 2094 2806 2194 3001 
Q 2294 3197 2294 3444 
Q 2294 3772 2109 3958 
Q 1925 4144 1606 4144 
Q 1288 4144 1088 3959 
Q 888 3775 888 3528 
Q 888 3366 970 3203 
Q 1053 3041 1206 2894 
L 1719 2469 
z
M 1375 2016 
Q 1116 1797 991 1539 
Q 866 1281 866 981 
Q 866 578 1086 336 
Q 1306 94 1647 94 
Q 1984 94 2187 284 
Q 2391 475 2391 747 
Q 2391 972 2272 1150 
Q 2050 1481 1375 2016 
z
" transform="scale(0.015625)"/>
       </defs>
       <use xlink:href="#TimesNewRomanPSMT-31"/>
       <use xlink:href="#TimesNewRomanPSMT-38" x="50"/>
      </g>
     </g>
    </g>
    <g id="xtick_8">
     <g id="line2d_15">
      <path d="M 354.242902 287.6445 
L 354.242902 21.5325 
" clip-path="url(#pa63a596f35)" style="fill: none; stroke: #b0b0b0; stroke-width: 0.8; stroke-linecap: square"/>
     </g>
     <g id="line2d_16">
      <g>
       <use xlink:href="#md179027263" x="354.242902" y="287.6445" style="stroke: #000000; stroke-width: 0.8"/>
      </g>
     </g>
     <g id="text_8">
      <!-- 21 -->
      <g transform="translate(349.242902 301.58825) scale(0.1 -0.1)">
       <use xlink:href="#TimesNewRomanPSMT-32"/>
       <use xlink:href="#TimesNewRomanPSMT-31" x="50"/>
      </g>
     </g>
    </g>
    <g id="xtick_9">
     <g id="line2d_17">
      <path d="M 394.825832 287.6445 
L 394.825832 21.5325 
" clip-path="url(#pa63a596f35)" style="fill: none; stroke: #b0b0b0; stroke-width: 0.8; stroke-linecap: square"/>
     </g>
     <g id="line2d_18">
      <g>
       <use xlink:href="#md179027263" x="394.825832" y="287.6445" style="stroke: #000000; stroke-width: 0.8"/>
      </g>
     </g>
     <g id="text_9">
      <!-- 00 -->
      <g transform="translate(389.825832 301.58825) scale(0.1 -0.1)">
       <use xlink:href="#TimesNewRomanPSMT-30"/>
       <use xlink:href="#TimesNewRomanPSMT-30" x="50"/>
      </g>
      <!-- 2016-09-02 -->
      <g transform="translate(371.496145 312.059812) scale(0.1 -0.1)">
       <use xlink:href="#TimesNewRomanPSMT-32"/>
       <use xlink:href="#TimesNewRomanPSMT-30" x="50"/>
       <use xlink:href="#TimesNewRomanPSMT-31" x="100"/>
       <use xlink:href="#TimesNewRomanPSMT-36" x="150"/>
       <use xlink:href="#TimesNewRomanPSMT-2d" x="200"/>
       <use xlink:href="#TimesNewRomanPSMT-30" x="233.300781"/>
       <use xlink:href="#TimesNewRomanPSMT-39" x="283.300781"/>
       <use xlink:href="#TimesNewRomanPSMT-2d" x="333.300781"/>
       <use xlink:href="#TimesNewRomanPSMT-30" x="366.601562"/>
       <use xlink:href="#TimesNewRomanPSMT-32" x="416.601562"/>
      </g>
     </g>
    </g>
    <g id="xtick_10">
     <g id="line2d_19">
      <defs>
       <path id="mcf7616ae1f" d="M 0 0 
L 0 2 
" style="stroke: #000000; stroke-width: 0.6"/>
      </defs>
      <g>
       <use xlink:href="#mcf7616ae1f" x="56.634749" y="287.6445" style="stroke: #000000; stroke-width: 0.6"/>
      </g>
     </g>
    </g>
    <g id="xtick_11">
     <g id="line2d_20">
      <g>
       <use xlink:href="#mcf7616ae1f" x="83.690035" y="287.6445" style="stroke: #000000; stroke-width: 0.6"/>
      </g>
     </g>
    </g>
    <g id="xtick_12">
     <g id="line2d_21">
      <g>
       <use xlink:href="#mcf7616ae1f" x="97.217679" y="287.6445" style="stroke: #000000; stroke-width: 0.6"/>
      </g>
     </g>
    </g>
    <g id="xtick_13">
     <g id="line2d_22">
      <g>
       <use xlink:href="#mcf7616ae1f" x="124.272965" y="287.6445" style="stroke: #000000; stroke-width: 0.6"/>
      </g>
     </g>
    </g>
    <g id="xtick_14">
     <g id="line2d_23">
      <g>
       <use xlink:href="#mcf7616ae1f" x="137.800609" y="287.6445" style="stroke: #000000; stroke-width: 0.6"/>
      </g>
     </g>
    </g>
    <g id="xtick_15">
     <g id="line2d_24">
      <g>
       <use xlink:href="#mcf7616ae1f" x="164.855895" y="287.6445" style="stroke: #000000; stroke-width: 0.6"/>
      </g>
     </g>
    </g>
    <g id="xtick_16">
     <g id="line2d_25">
      <g>
       <use xlink:href="#mcf7616ae1f" x="178.383539" y="287.6445" style="stroke: #000000; stroke-width: 0.6"/>
      </g>
     </g>
    </g>
    <g id="xtick_17">
     <g id="line2d_26">
      <g>
       <use xlink:href="#mcf7616ae1f" x="205.438825" y="287.6445" style="stroke: #000000; stroke-width: 0.6"/>
      </g>
     </g>
    </g>
    <g id="xtick_18">
     <g id="line2d_27">
      <g>
       <use xlink:href="#mcf7616ae1f" x="218.966469" y="287.6445" style="stroke: #000000; stroke-width: 0.6"/>
      </g>
     </g>
    </g>
    <g id="xtick_19">
     <g id="line2d_28">
      <g>
       <use xlink:href="#mcf7616ae1f" x="246.021755" y="287.6445" style="stroke: #000000; stroke-width: 0.6"/>
      </g>
     </g>
    </g>
    <g id="xtick_20">
     <g id="line2d_29">
      <g>
       <use xlink:href="#mcf7616ae1f" x="259.549399" y="287.6445" style="stroke: #000000; stroke-width: 0.6"/>
      </g>
     </g>
    </g>
    <g id="xtick_21">
     <g id="line2d_30">
      <g>
       <use xlink:href="#mcf7616ae1f" x="286.604686" y="287.6445" style="stroke: #000000; stroke-width: 0.6"/>
      </g>
     </g>
    </g>
    <g id="xtick_22">
     <g id="line2d_31">
      <g>
       <use xlink:href="#mcf7616ae1f" x="300.132329" y="287.6445" style="stroke: #000000; stroke-width: 0.6"/>
      </g>
     </g>
    </g>
    <g id="xtick_23">
     <g id="line2d_32">
      <g>
       <use xlink:href="#mcf7616ae1f" x="327.187616" y="287.6445" style="stroke: #000000; stroke-width: 0.6"/>
      </g>
     </g>
    </g>
    <g id="xtick_24">
     <g id="line2d_33">
      <g>
       <use xlink:href="#mcf7616ae1f" x="340.715259" y="287.6445" style="stroke: #000000; stroke-width: 0.6"/>
      </g>
     </g>
    </g>
    <g id="xtick_25">
     <g id="line2d_34">
      <g>
       <use xlink:href="#mcf7616ae1f" x="367.770546" y="287.6445" style="stroke: #000000; stroke-width: 0.6"/>
      </g>
     </g>
    </g>
    <g id="xtick_26">
     <g id="line2d_35">
      <g>
       <use xlink:href="#mcf7616ae1f" x="381.298189" y="287.6445" style="stroke: #000000; stroke-width: 0.6"/>
      </g>
     </g>
    </g>
    <g id="xtick_27">
     <g id="line2d_36">
      <g>
       <use xlink:href="#mcf7616ae1f" x="408.353476" y="287.6445" style="stroke: #000000; stroke-width: 0.6"/>
      </g>
     </g>
    </g>
   </g>
   <g id="matplotlib.axis_2">
    <g id="ytick_1">
     <g id="line2d_37">
      <path d="M 53.933437 256.973149 
L 411.053438 256.973149 
" clip-path="url(#pa63a596f35)" style="fill: none; stroke: #b0b0b0; stroke-width: 0.8; stroke-linecap: square"/>
     </g>
     <g id="line2d_38">
      <defs>
       <path id="m4e3e6732d6" d="M 0 0 
L -3.5 0 
" style="stroke: #000000; stroke-width: 0.8"/>
      </defs>
      <g>
       <use xlink:href="#m4e3e6732d6" x="53.933437" y="256.973149" style="stroke: #000000; stroke-width: 0.8"/>
      </g>
     </g>
     <g id="text_10">
      <!-- −5.0 -->
      <g transform="translate(28.794375 260.445024) scale(0.1 -0.1)">
       <defs>
        <path id="TimesNewRomanPSMT-2212" d="M 3484 2000 
L 116 2000 
L 116 2256 
L 3484 2256 
L 3484 2000 
z
" transform="scale(0.015625)"/>
        <path id="TimesNewRomanPSMT-2e" d="M 800 606 
Q 947 606 1047 504 
Q 1147 403 1147 259 
Q 1147 116 1045 14 
Q 944 -88 800 -88 
Q 656 -88 554 14 
Q 453 116 453 259 
Q 453 406 554 506 
Q 656 606 800 606 
z
" transform="scale(0.015625)"/>
       </defs>
       <use xlink:href="#TimesNewRomanPSMT-2212"/>
       <use xlink:href="#TimesNewRomanPSMT-35" x="56.396484"/>
       <use xlink:href="#TimesNewRomanPSMT-2e" x="106.396484"/>
       <use xlink:href="#TimesNewRomanPSMT-30" x="131.396484"/>
      </g>
     </g>
    </g>
    <g id="ytick_2">
     <g id="line2d_39">
      <path d="M 53.933437 221.777786 
L 411.053438 221.777786 
" clip-path="url(#pa63a596f35)" style="fill: none; stroke: #b0b0b0; stroke-width: 0.8; stroke-linecap: square"/>
     </g>
     <g id="line2d_40">
      <g>
       <use xlink:href="#m4e3e6732d6" x="53.933437" y="221.777786" style="stroke: #000000; stroke-width: 0.8"/>
      </g>
     </g>
     <g id="text_11">
      <!-- −2.5 -->
      <g transform="translate(28.794375 225.249661) scale(0.1 -0.1)">
       <use xlink:href="#TimesNewRomanPSMT-2212"/>
       <use xlink:href="#TimesNewRomanPSMT-32" x="56.396484"/>
       <use xlink:href="#TimesNewRomanPSMT-2e" x="106.396484"/>
       <use xlink:href="#TimesNewRomanPSMT-35" x="131.396484"/>
      </g>
     </g>
    </g>
    <g id="ytick_3">
     <g id="line2d_41">
      <path d="M 53.933437 186.582423 
L 411.053438 186.582423 
" clip-path="url(#pa63a596f35)" style="fill: none; stroke: #b0b0b0; stroke-width: 0.8; stroke-linecap: square"/>
     </g>
     <g id="line2d_42">
      <g>
       <use xlink:href="#m4e3e6732d6" x="53.933437" y="186.582423" style="stroke: #000000; stroke-width: 0.8"/>
      </g>
     </g>
     <g id="text_12">
      <!-- 0.0 -->
      <g transform="translate(34.433437 190.054298) scale(0.1 -0.1)">
       <use xlink:href="#TimesNewRomanPSMT-30"/>
       <use xlink:href="#TimesNewRomanPSMT-2e" x="50"/>
       <use xlink:href="#TimesNewRomanPSMT-30" x="75"/>
      </g>
     </g>
    </g>
    <g id="ytick_4">
     <g id="line2d_43">
      <path d="M 53.933437 151.38706 
L 411.053438 151.38706 
" clip-path="url(#pa63a596f35)" style="fill: none; stroke: #b0b0b0; stroke-width: 0.8; stroke-linecap: square"/>
     </g>
     <g id="line2d_44">
      <g>
       <use xlink:href="#m4e3e6732d6" x="53.933437" y="151.38706" style="stroke: #000000; stroke-width: 0.8"/>
      </g>
     </g>
     <g id="text_13">
      <!-- 2.5 -->
      <g transform="translate(34.433437 154.858935) scale(0.1 -0.1)">
       <use xlink:href="#TimesNewRomanPSMT-32"/>
       <use xlink:href="#TimesNewRomanPSMT-2e" x="50"/>
       <use xlink:href="#TimesNewRomanPSMT-35" x="75"/>
      </g>
     </g>
    </g>
    <g id="ytick_5">
     <g id="line2d_45">
      <path d="M 53.933437 116.191697 
L 411.053438 116.191697 
" clip-path="url(#pa63a596f35)" style="fill: none; stroke: #b0b0b0; stroke-width: 0.8; stroke-linecap: square"/>
     </g>
     <g id="line2d_46">
      <g>
       <use xlink:href="#m4e3e6732d6" x="53.933437" y="116.191697" style="stroke: #000000; stroke-width: 0.8"/>
      </g>
     </g>
     <g id="text_14">
      <!-- 5.0 -->
      <g transform="translate(34.433437 119.663572) scale(0.1 -0.1)">
       <use xlink:href="#TimesNewRomanPSMT-35"/>
       <use xlink:href="#TimesNewRomanPSMT-2e" x="50"/>
       <use xlink:href="#TimesNewRomanPSMT-30" x="75"/>
      </g>
     </g>
    </g>
    <g id="ytick_6">
     <g id="line2d_47">
      <path d="M 53.933437 80.996334 
L 411.053438 80.996334 
" clip-path="url(#pa63a596f35)" style="fill: none; stroke: #b0b0b0; stroke-width: 0.8; stroke-linecap: square"/>
     </g>
     <g id="line2d_48">
      <g>
       <use xlink:href="#m4e3e6732d6" x="53.933437" y="80.996334" style="stroke: #000000; stroke-width: 0.8"/>
      </g>
     </g>
     <g id="text_15">
      <!-- 7.5 -->
      <g transform="translate(34.433437 84.468209) scale(0.1 -0.1)">
       <defs>
        <path id="TimesNewRomanPSMT-37" d="M 644 4238 
L 2916 4238 
L 2916 4119 
L 1503 -88 
L 1153 -88 
L 2419 3728 
L 1253 3728 
Q 900 3728 750 3644 
Q 488 3500 328 3200 
L 238 3234 
L 644 4238 
z
" transform="scale(0.015625)"/>
       </defs>
       <use xlink:href="#TimesNewRomanPSMT-37"/>
       <use xlink:href="#TimesNewRomanPSMT-2e" x="50"/>
       <use xlink:href="#TimesNewRomanPSMT-35" x="75"/>
      </g>
     </g>
    </g>
    <g id="ytick_7">
     <g id="line2d_49">
      <path d="M 53.933437 45.800972 
L 411.053438 45.800972 
" clip-path="url(#pa63a596f35)" style="fill: none; stroke: #b0b0b0; stroke-width: 0.8; stroke-linecap: square"/>
     </g>
     <g id="line2d_50">
      <g>
       <use xlink:href="#m4e3e6732d6" x="53.933437" y="45.800972" style="stroke: #000000; stroke-width: 0.8"/>
      </g>
     </g>
     <g id="text_16">
      <!-- 10.0 -->
      <g transform="translate(29.433437 49.272847) scale(0.1 -0.1)">
       <use xlink:href="#TimesNewRomanPSMT-31"/>
       <use xlink:href="#TimesNewRomanPSMT-30" x="50"/>
       <use xlink:href="#TimesNewRomanPSMT-2e" x="100"/>
       <use xlink:href="#TimesNewRomanPSMT-30" x="125"/>
      </g>
     </g>
    </g>
   </g>
   <g id="line2d_51">
    <path d="M 70.166165 257.681371 
L 77.430917 260.886205 
L 84.428029 263.73209 
L 91.163547 266.233736 
L 97.644293 268.405816 
L 103.879368 270.263204 
L 109.873326 271.818862 
L 115.632977 273.086062 
L 121.165157 274.077571 
L 126.476687 274.805625 
L 131.576671 275.282074 
L 136.469648 275.517665 
L 141.164728 275.522857 
L 145.668733 275.307191 
L 149.961077 274.881339 
L 154.110627 274.247421 
L 158.093789 273.415245 
L 161.917543 272.390329 
L 165.588812 271.177134 
L 169.116843 269.777899 
L 172.506234 268.195136 
L 175.763949 266.429031 
L 178.896895 264.477938 
L 181.909701 262.339754 
L 184.806996 260.010652 
L 187.591076 257.487 
L 190.268869 254.758743 
L 192.8404 251.820114 
L 195.307944 248.661132 
L 197.671535 245.272397 
L 199.933459 241.638861 
L 202.095741 237.741952 
L 204.156803 233.566123 
L 206.120813 229.080198 
L 207.987782 224.256138 
L 209.762327 219.048623 
L 211.456004 213.380601 
L 213.089493 207.124939 
L 214.71651 199.990735 
L 216.524349 190.999081 
L 219.963704 173.631361 
L 221.165115 168.908937 
L 222.267251 165.443088 
L 223.341698 162.772821 
L 224.413847 160.6842 
L 225.50217 159.037053 
L 226.617797 157.743007 
L 227.770771 156.740237 
L 228.976891 155.982423 
L 230.257293 155.439412 
L 231.638958 155.096268 
L 233.150002 154.952729 
L 234.829714 155.020556 
L 236.719668 155.324478 
L 238.870693 155.901422 
L 241.345172 156.801908 
L 244.221658 158.092675 
L 247.601812 159.86119 
L 251.631189 162.229191 
L 256.533904 165.378635 
L 262.695795 169.613759 
L 270.978654 175.594199 
L 285.083778 186.096754 
L 305.621145 201.338549 
L 318.030447 210.261318 
L 329.007301 217.884227 
L 339.182433 224.683052 
L 348.791529 230.839175 
L 357.838924 236.375556 
L 366.609782 241.485376 
L 375.024971 246.133088 
L 383.114603 250.349341 
L 390.894816 254.155865 
L 394.82071 255.978955 
L 394.82071 255.978955 
" clip-path="url(#pa63a596f35)" style="fill: none; stroke: #ff0000; stroke-linecap: square"/>
   </g>
   <g id="line2d_52">
    <path d="M 70.275122 257.769203 
L 77.489866 260.941216 
L 84.479148 263.774617 
L 91.24297 266.277322 
L 97.781331 268.45817 
L 104.094231 270.325636 
L 109.95621 271.835803 
L 115.818188 273.114851 
L 121.229246 274.074966 
L 126.640303 274.807306 
L 131.8259 275.278443 
L 136.786035 275.500416 
L 141.520711 275.486098 
L 146.029925 275.249626 
L 150.313679 274.805416 
L 154.597433 274.127978 
L 158.655726 273.249889 
L 162.488558 272.189091 
L 166.095929 270.964455 
L 169.703301 269.49919 
L 173.085212 267.882172 
L 176.467123 266.001456 
L 179.623573 263.979903 
L 182.554562 261.844178 
L 185.485552 259.42709 
L 188.19108 256.913091 
L 190.896609 254.089085 
L 193.376677 251.187564 
L 195.856745 247.939898 
L 198.111352 244.63778 
L 200.365959 240.943582 
L 202.395106 237.223434 
L 204.424252 233.055264 
L 206.453399 228.345471 
L 208.257084 223.602474 
L 210.06077 218.213005 
L 211.638995 212.846158 
L 213.21722 206.74122 
L 214.795445 199.780278 
L 216.599131 190.781401 
L 219.755581 174.691576 
L 220.882885 170.045987 
L 222.010189 166.277263 
L 223.137492 163.310737 
L 224.264796 161.00997 
L 225.392099 159.240541 
L 226.519403 157.891923 
L 227.646707 156.87728 
L 228.77401 156.130941 
L 230.126775 155.51978 
L 231.479539 155.157713 
L 233.057764 154.986168 
L 234.635989 155.031157 
L 236.439675 155.294213 
L 238.468821 155.804246 
L 240.948889 156.669284 
L 243.879879 157.953301 
L 247.261789 159.698162 
L 251.320082 162.062926 
L 256.280218 165.234662 
L 262.367658 169.406951 
L 270.709705 175.420704 
L 284.688269 185.823515 
L 305.881577 201.548196 
L 317.830996 210.137571 
L 328.65311 217.657428 
L 338.798843 224.444094 
L 348.493654 230.662003 
L 357.512083 236.19004 
L 366.305051 241.32302 
L 374.647098 245.941448 
L 382.763684 250.183805 
L 390.654809 254.05455 
L 394.713102 255.942383 
L 394.713102 255.942383 
" clip-path="url(#pa63a596f35)" style="fill: none; stroke-dasharray: 7.4,3.2; stroke-dashoffset: 0; stroke: #ff0000; stroke-width: 2"/>
   </g>
   <g id="line2d_53">
    <path d="M 70.166165 39.182873 
L 74.7308 40.829803 
L 79.362176 42.738276 
L 84.064071 44.917538 
L 88.841035 47.378066 
L 93.697612 50.131193 
L 98.640632 53.19045 
L 103.67919 56.572 
L 108.822388 60.293407 
L 114.079326 64.373511 
L 119.461371 68.834326 
L 124.975356 73.695539 
L 130.625825 78.975761 
L 136.410509 84.687969 
L 142.315753 90.833909 
L 148.308393 97.393587 
L 154.334737 104.320674 
L 160.332593 111.55449 
L 166.219547 119.002902 
L 171.926325 126.581321 
L 177.399739 134.218296 
L 182.614383 141.874503 
L 187.567971 149.541201 
L 192.278955 157.24143 
L 196.791256 165.043161 
L 201.199225 173.110694 
L 205.83892 182.079469 
L 213.07565 196.148366 
L 214.564162 198.49435 
L 215.607645 199.75543 
L 216.401965 200.392738 
L 217.046274 200.642138 
L 217.609809 200.628123 
L 218.154911 200.387676 
L 218.737014 199.875245 
L 219.404631 198.971371 
L 220.215531 197.470692 
L 221.273712 195.004611 
L 222.87726 190.63566 
L 230.236498 169.968233 
L 233.341772 162.197188 
L 236.562555 154.735072 
L 239.961221 147.421841 
L 243.565495 140.194021 
L 247.393875 133.015396 
L 251.457911 125.86811 
L 255.75529 118.760782 
L 260.276784 111.712786 
L 264.994662 104.770145 
L 269.86965 97.991105 
L 274.843987 91.453077 
L 279.859917 85.22515 
L 284.864291 79.363254 
L 289.810905 73.908301 
L 294.672038 68.875321 
L 299.431511 64.264365 
L 304.084709 60.062768 
L 308.636247 56.249741 
L 313.090753 52.805473 
L 317.457463 49.707641 
L 321.750242 46.932669 
L 325.980637 44.460931 
L 330.157896 42.276006 
L 334.295875 40.361021 
L 338.406132 38.702653 
L 342.497904 37.290476 
L 346.582752 36.115134 
L 350.662944 35.171703 
L 354.758255 34.455805 
L 358.87349 33.961864 
L 363.016431 33.688583 
L 367.191695 33.636171 
L 371.406253 33.805969 
L 375.664686 34.20053 
L 379.971607 34.823502 
L 384.32934 35.679122 
L 388.742509 36.772941 
L 393.213397 38.110944 
L 394.82071 38.647901 
L 394.82071 38.647901 
" clip-path="url(#pa63a596f35)" style="fill: none; stroke: #008000; stroke-linecap: square"/>
   </g>
   <g id="line2d_54">
    <path d="M 70.275122 39.191328 
L 74.784337 40.822352 
L 79.519012 42.778654 
L 84.253687 44.981858 
L 88.988362 47.428457 
L 93.948498 50.249522 
L 98.908634 53.331686 
L 104.094231 56.828695 
L 109.279827 60.601714 
L 114.465424 64.645927 
L 119.876481 69.149014 
L 125.512999 74.140388 
L 131.149517 79.431477 
L 137.011496 85.245809 
L 142.873475 91.372476 
L 148.735454 97.810377 
L 154.822893 104.828521 
L 160.684872 111.917488 
L 166.546851 119.350565 
L 172.40883 127.155571 
L 178.045348 135.054984 
L 183.230944 142.711382 
L 188.19108 150.43597 
L 192.925755 158.229781 
L 197.43497 166.087436 
L 201.944184 174.412644 
L 206.678859 183.641722 
L 212.766299 195.523557 
L 214.344524 198.112929 
L 215.471828 199.562983 
L 216.37367 200.340303 
L 217.050053 200.62215 
L 217.726435 200.591473 
L 218.402817 200.213752 
L 219.079199 199.479928 
L 219.755581 198.411722 
L 220.657424 196.551761 
L 222.010189 193.122459 
L 224.490256 186.018785 
L 228.548549 174.502405 
L 231.705 166.253576 
L 234.86145 158.633413 
L 238.243361 151.071708 
L 241.850732 143.582704 
L 245.683564 136.169491 
L 249.741857 128.830865 
L 254.025611 121.564184 
L 258.534826 114.368776 
L 263.269501 107.248772 
L 268.004176 100.52331 
L 272.964312 93.861811 
L 277.924448 87.566931 
L 282.884584 81.622753 
L 287.844719 76.019808 
L 292.804855 70.756221 
L 297.539531 66.048935 
L 302.274206 61.654672 
L 306.78342 57.763821 
L 311.292635 54.163321 
L 315.576388 51.014407 
L 319.860142 48.132364 
L 324.143896 45.517576 
L 328.42765 43.170502 
L 332.711403 41.089877 
L 336.769696 39.363096 
L 340.827989 37.871469 
L 344.886282 36.612236 
L 348.944575 35.582089 
L 353.002868 34.777448 
L 357.061161 34.194057 
L 361.119454 33.827862 
L 365.177747 33.675167 
L 369.23604 33.731784 
L 373.519794 34.014072 
L 377.803548 34.521133 
L 382.087301 35.249148 
L 386.371055 36.194183 
L 390.88027 37.419976 
L 394.713102 38.645786 
L 394.713102 38.645786 
" clip-path="url(#pa63a596f35)" style="fill: none; stroke-dasharray: 7.4,3.2; stroke-dashoffset: 0; stroke: #008000; stroke-width: 2"/>
   </g>
   <g id="line2d_55">
    <path d="M 70.166165 223.309418 
L 76.671155 223.017223 
L 84.009479 222.916302 
L 93.449664 223.024488 
L 112.732673 223.296643 
L 119.629704 223.129917 
L 125.50082 222.769492 
L 130.800981 222.224195 
L 135.730359 221.495519 
L 140.400416 220.58186 
L 144.886219 219.47862 
L 149.215692 218.18598 
L 153.479874 216.679699 
L 157.680212 214.959884 
L 161.848216 213.012457 
L 166.0093 210.821809 
L 170.186562 208.369971 
L 174.41004 205.631001 
L 178.700504 202.581289 
L 183.104195 199.175644 
L 187.69504 195.340374 
L 192.634769 190.917468 
L 198.561054 185.295228 
L 207.026571 177.257122 
L 209.508166 175.227041 
L 211.248048 174.073779 
L 212.570416 173.449661 
L 213.627128 173.185515 
L 214.51338 173.185941 
L 215.298269 173.406307 
L 216.037113 173.847969 
L 216.77376 174.556686 
L 217.545139 175.622472 
L 218.397448 177.201281 
L 219.416182 179.590498 
L 220.853203 183.592787 
L 225.899602 198.060226 
L 228.165879 203.671987 
L 230.469859 208.788974 
L 232.854265 213.547733 
L 235.331085 217.998203 
L 237.895685 222.152332 
L 240.538828 226.01365 
L 243.251277 229.585693 
L 246.021479 232.869201 
L 248.840197 235.868311 
L 251.700503 238.58944 
L 254.59315 241.036769 
L 257.515833 243.220295 
L 260.46624 245.148694 
L 263.444371 246.831048 
L 266.454852 248.277315 
L 269.499985 249.494412 
L 272.589019 250.490222 
L 275.733502 251.270437 
L 278.944987 251.837944 
L 282.239649 252.193724 
L 285.635971 252.335878 
L 289.159365 252.259386 
L 292.839869 251.955171 
L 296.716764 251.409227 
L 300.845493 250.60028 
L 305.304614 249.496374 
L 310.225823 248.044246 
L 315.851715 246.145543 
L 322.776072 243.562166 
L 334.54309 238.88912 
L 345.561542 234.608964 
L 352.903633 231.994977 
L 359.349203 229.933243 
L 365.351151 228.244186 
L 371.133722 226.846431 
L 376.817044 225.700774 
L 382.509584 224.780187 
L 388.312972 224.067813 
L 394.354224 223.55213 
L 394.82071 223.521217 
L 394.82071 223.521217 
" clip-path="url(#pa63a596f35)" style="fill: none; stroke: #0000ff; stroke-linecap: square"/>
   </g>
   <g id="line2d_56">
    <path d="M 70.275122 223.38204 
L 76.813483 223.10016 
L 84.479148 223.010377 
L 93.948498 223.133445 
L 111.534435 223.403062 
L 118.749178 223.261968 
L 124.836617 222.915623 
L 130.022214 222.409078 
L 134.98235 221.707648 
L 139.717025 220.812961 
L 144.226239 219.734747 
L 148.509993 218.489319 
L 152.793747 217.014414 
L 157.077501 215.297441 
L 161.135794 213.438629 
L 165.419547 211.223779 
L 169.703301 208.740491 
L 173.987055 205.987268 
L 178.270808 202.966022 
L 182.780023 199.500205 
L 187.289237 195.752842 
L 192.249373 191.332761 
L 198.111352 185.787974 
L 207.129781 177.216682 
L 209.609849 175.195771 
L 211.413535 174.017779 
L 212.766299 173.410475 
L 213.893603 173.179839 
L 214.795445 173.247043 
L 215.471828 173.487395 
L 216.14821 173.925925 
L 216.824592 174.594456 
L 217.726435 175.885863 
L 218.628278 177.646989 
L 219.755581 180.420737 
L 221.559267 185.619202 
L 224.941178 195.438983 
L 227.195785 201.291145 
L 229.450392 206.543542 
L 231.705 211.270237 
L 234.185068 215.951354 
L 236.665136 220.16762 
L 239.370664 224.310692 
L 242.076193 228.036777 
L 244.781722 231.394216 
L 247.712711 234.656823 
L 250.6437 237.566206 
L 253.57469 240.152003 
L 256.505679 242.437728 
L 259.436668 244.443778 
L 262.367658 246.187437 
L 265.298647 247.683744 
L 268.455097 249.033539 
L 271.611547 250.127704 
L 274.767998 250.980619 
L 277.924448 251.605657 
L 281.306359 252.037839 
L 284.688269 252.239761 
L 288.07018 252.227817 
L 291.677552 251.996836 
L 295.510384 251.525561 
L 299.568677 250.799142 
L 303.852431 249.808532 
L 308.587106 248.485454 
L 313.998163 246.735353 
L 320.536524 244.370469 
L 329.554953 240.852584 
L 344.886282 234.860106 
L 352.326486 232.205775 
L 358.864847 230.106805 
L 364.952287 228.387486 
L 370.814265 226.96545 
L 376.450783 225.82395 
L 382.312762 224.872116 
L 388.174741 224.152081 
L 394.487641 223.618244 
L 394.713102 223.603559 
L 394.713102 223.603559 
" clip-path="url(#pa63a596f35)" style="fill: none; stroke-dasharray: 7.4,3.2; stroke-dashoffset: 0; stroke: #0000ff; stroke-width: 2"/>
   </g>
   <g id="patch_3">
    <path d="M 53.933437 287.6445 
L 53.933437 21.5325 
" style="fill: none; stroke: #000000; stroke-width: 0.8; stroke-linejoin: miter; stroke-linecap: square"/>
   </g>
   <g id="patch_4">
    <path d="M 411.053438 287.6445 
L 411.053438 21.5325 
" style="fill: none; stroke: #000000; stroke-width: 0.8; stroke-linejoin: miter; stroke-linecap: square"/>
   </g>
   <g id="patch_5">
    <path d="M 53.933437 287.6445 
L 411.053437 287.6445 
" style="fill: none; stroke: #000000; stroke-width: 0.8; stroke-linejoin: miter; stroke-linecap: square"/>
   </g>
   <g id="patch_6">
    <path d="M 53.933437 21.5325 
L 411.053437 21.5325 
" style="fill: none; stroke: #000000; stroke-width: 0.8; stroke-linejoin: miter; stroke-linecap: square"/>
   </g>
   <g id="text_17">
    <!-- SSCWeb/mms2/GSM | CDAWeb/MMS1_EPD-EIS_SRVY_L2_ELECTRONENERGY/GSM -->
    <g transform="translate(7.2 15.5325) scale(0.12 -0.12)">
     <defs>
      <path id="TimesNewRomanPSMT-53" d="M 2934 4334 
L 2934 2869 
L 2819 2869 
Q 2763 3291 2617 3541 
Q 2472 3791 2203 3937 
Q 1934 4084 1647 4084 
Q 1322 4084 1109 3886 
Q 897 3688 897 3434 
Q 897 3241 1031 3081 
Q 1225 2847 1953 2456 
Q 2547 2138 2764 1967 
Q 2981 1797 3098 1565 
Q 3216 1334 3216 1081 
Q 3216 600 2842 251 
Q 2469 -97 1881 -97 
Q 1697 -97 1534 -69 
Q 1438 -53 1133 45 
Q 828 144 747 144 
Q 669 144 623 97 
Q 578 50 556 -97 
L 441 -97 
L 441 1356 
L 556 1356 
Q 638 900 775 673 
Q 913 447 1195 297 
Q 1478 147 1816 147 
Q 2206 147 2432 353 
Q 2659 559 2659 841 
Q 2659 997 2573 1156 
Q 2488 1316 2306 1453 
Q 2184 1547 1640 1851 
Q 1097 2156 867 2337 
Q 638 2519 519 2737 
Q 400 2956 400 3219 
Q 400 3675 750 4004 
Q 1100 4334 1641 4334 
Q 1978 4334 2356 4169 
Q 2531 4091 2603 4091 
Q 2684 4091 2736 4139 
Q 2788 4188 2819 4334 
L 2934 4334 
z
" transform="scale(0.015625)"/>
      <path id="TimesNewRomanPSMT-43" d="M 3853 4334 
L 3950 2894 
L 3853 2894 
Q 3659 3541 3300 3825 
Q 2941 4109 2438 4109 
Q 2016 4109 1675 3895 
Q 1334 3681 1139 3212 
Q 944 2744 944 2047 
Q 944 1472 1128 1050 
Q 1313 628 1683 403 
Q 2053 178 2528 178 
Q 2941 178 3256 354 
Q 3572 531 3950 1056 
L 4047 994 
Q 3728 428 3303 165 
Q 2878 -97 2294 -97 
Q 1241 -97 663 684 
Q 231 1266 231 2053 
Q 231 2688 515 3219 
Q 800 3750 1298 4042 
Q 1797 4334 2388 4334 
Q 2847 4334 3294 4109 
Q 3425 4041 3481 4041 
Q 3566 4041 3628 4100 
Q 3709 4184 3744 4334 
L 3853 4334 
z
" transform="scale(0.015625)"/>
      <path id="TimesNewRomanPSMT-57" d="M 5991 4238 
L 5991 4122 
Q 5825 4122 5722 4062 
Q 5619 4003 5525 3841 
Q 5463 3731 5328 3319 
L 4147 -97 
L 4022 -97 
L 3056 2613 
L 2097 -97 
L 1984 -97 
L 725 3422 
Q 584 3816 547 3888 
Q 484 4006 376 4064 
Q 269 4122 84 4122 
L 84 4238 
L 1653 4238 
L 1653 4122 
L 1578 4122 
Q 1413 4122 1325 4047 
Q 1238 3972 1238 3866 
Q 1238 3756 1375 3363 
L 2209 984 
L 2913 3006 
L 2788 3363 
L 2688 3647 
Q 2622 3803 2541 3922 
Q 2500 3981 2441 4022 
Q 2363 4078 2284 4103 
Q 2225 4122 2097 4122 
L 2097 4238 
L 3747 4238 
L 3747 4122 
L 3634 4122 
Q 3459 4122 3378 4047 
Q 3297 3972 3297 3844 
Q 3297 3684 3438 3288 
L 4250 984 
L 5056 3319 
Q 5194 3706 5194 3856 
Q 5194 3928 5148 3990 
Q 5103 4053 5034 4078 
Q 4916 4122 4725 4122 
L 4725 4238 
L 5991 4238 
z
" transform="scale(0.015625)"/>
      <path id="TimesNewRomanPSMT-65" d="M 681 1784 
Q 678 1147 991 784 
Q 1303 422 1725 422 
Q 2006 422 2214 576 
Q 2422 731 2563 1106 
L 2659 1044 
Q 2594 616 2278 264 
Q 1963 -88 1488 -88 
Q 972 -88 605 314 
Q 238 716 238 1394 
Q 238 2128 614 2539 
Q 991 2950 1559 2950 
Q 2041 2950 2350 2633 
Q 2659 2316 2659 1784 
L 681 1784 
z
M 681 1966 
L 2006 1966 
Q 1991 2241 1941 2353 
Q 1863 2528 1708 2628 
Q 1553 2728 1384 2728 
Q 1125 2728 920 2526 
Q 716 2325 681 1966 
z
" transform="scale(0.015625)"/>
      <path id="TimesNewRomanPSMT-62" d="M 984 2369 
Q 1400 2947 1881 2947 
Q 2322 2947 2650 2570 
Q 2978 2194 2978 1541 
Q 2978 778 2472 313 
Q 2038 -88 1503 -88 
Q 1253 -88 995 3 
Q 738 94 469 275 
L 469 3241 
Q 469 3728 445 3840 
Q 422 3953 372 3993 
Q 322 4034 247 4034 
Q 159 4034 28 3984 
L -16 4094 
L 844 4444 
L 984 4444 
L 984 2369 
z
M 984 2169 
L 984 456 
Q 1144 300 1314 220 
Q 1484 141 1663 141 
Q 1947 141 2192 453 
Q 2438 766 2438 1363 
Q 2438 1913 2192 2208 
Q 1947 2503 1634 2503 
Q 1469 2503 1303 2419 
Q 1178 2356 984 2169 
z
" transform="scale(0.015625)"/>
      <path id="TimesNewRomanPSMT-2f" d="M 1794 4444 
L 259 -88 
L 9 -88 
L 1544 4444 
L 1794 4444 
z
" transform="scale(0.015625)"/>
      <path id="TimesNewRomanPSMT-6d" d="M 1050 2338 
Q 1363 2650 1419 2697 
Q 1559 2816 1721 2881 
Q 1884 2947 2044 2947 
Q 2313 2947 2506 2790 
Q 2700 2634 2766 2338 
Q 3088 2713 3309 2830 
Q 3531 2947 3766 2947 
Q 3994 2947 4170 2830 
Q 4347 2713 4450 2447 
Q 4519 2266 4519 1878 
L 4519 647 
Q 4519 378 4559 278 
Q 4591 209 4675 161 
Q 4759 113 4950 113 
L 4950 0 
L 3538 0 
L 3538 113 
L 3597 113 
Q 3781 113 3884 184 
Q 3956 234 3988 344 
Q 4000 397 4000 647 
L 4000 1878 
Q 4000 2228 3916 2372 
Q 3794 2572 3525 2572 
Q 3359 2572 3192 2489 
Q 3025 2406 2788 2181 
L 2781 2147 
L 2788 2013 
L 2788 647 
Q 2788 353 2820 281 
Q 2853 209 2943 161 
Q 3034 113 3253 113 
L 3253 0 
L 1806 0 
L 1806 113 
Q 2044 113 2133 169 
Q 2222 225 2256 338 
Q 2272 391 2272 647 
L 2272 1878 
Q 2272 2228 2169 2381 
Q 2031 2581 1784 2581 
Q 1616 2581 1450 2491 
Q 1191 2353 1050 2181 
L 1050 647 
Q 1050 366 1089 281 
Q 1128 197 1204 155 
Q 1281 113 1516 113 
L 1516 0 
L 100 0 
L 100 113 
Q 297 113 375 155 
Q 453 197 493 289 
Q 534 381 534 647 
L 534 1741 
Q 534 2213 506 2350 
Q 484 2453 437 2492 
Q 391 2531 309 2531 
Q 222 2531 100 2484 
L 53 2597 
L 916 2947 
L 1050 2947 
L 1050 2338 
z
" transform="scale(0.015625)"/>
      <path id="TimesNewRomanPSMT-73" d="M 2050 2947 
L 2050 1972 
L 1947 1972 
Q 1828 2431 1642 2597 
Q 1456 2763 1169 2763 
Q 950 2763 815 2647 
Q 681 2531 681 2391 
Q 681 2216 781 2091 
Q 878 1963 1175 1819 
L 1631 1597 
Q 2266 1288 2266 781 
Q 2266 391 1970 151 
Q 1675 -88 1309 -88 
Q 1047 -88 709 6 
Q 606 38 541 38 
Q 469 38 428 -44 
L 325 -44 
L 325 978 
L 428 978 
Q 516 541 762 319 
Q 1009 97 1316 97 
Q 1531 97 1667 223 
Q 1803 350 1803 528 
Q 1803 744 1651 891 
Q 1500 1038 1047 1263 
Q 594 1488 453 1669 
Q 313 1847 313 2119 
Q 313 2472 555 2709 
Q 797 2947 1181 2947 
Q 1350 2947 1591 2875 
Q 1750 2828 1803 2828 
Q 1853 2828 1881 2850 
Q 1909 2872 1947 2947 
L 2050 2947 
z
" transform="scale(0.015625)"/>
      <path id="TimesNewRomanPSMT-47" d="M 3928 4334 
L 4038 2997 
L 3928 2997 
Q 3763 3497 3500 3750 
Q 3122 4116 2528 4116 
Q 1719 4116 1297 3475 
Q 944 2934 944 2188 
Q 944 1581 1178 1081 
Q 1413 581 1792 348 
Q 2172 116 2572 116 
Q 2806 116 3025 175 
Q 3244 234 3447 350 
L 3447 1575 
Q 3447 1894 3398 1992 
Q 3350 2091 3248 2142 
Q 3147 2194 2891 2194 
L 2891 2313 
L 4531 2313 
L 4531 2194 
L 4453 2194 
Q 4209 2194 4119 2031 
Q 4056 1916 4056 1575 
L 4056 278 
Q 3697 84 3347 -6 
Q 2997 -97 2569 -97 
Q 1341 -97 703 691 
Q 225 1281 225 2053 
Q 225 2613 494 3125 
Q 813 3734 1369 4063 
Q 1834 4334 2469 4334 
Q 2700 4334 2889 4296 
Q 3078 4259 3425 4131 
Q 3600 4066 3659 4066 
Q 3719 4066 3761 4120 
Q 3803 4175 3813 4334 
L 3928 4334 
z
" transform="scale(0.015625)"/>
      <path id="TimesNewRomanPSMT-4d" d="M 2619 0 
L 981 3566 
L 981 734 
Q 981 344 1066 247 
Q 1181 116 1431 116 
L 1581 116 
L 1581 0 
L 106 0 
L 106 116 
L 256 116 
Q 525 116 638 278 
Q 706 378 706 734 
L 706 3503 
Q 706 3784 644 3909 
Q 600 4000 483 4061 
Q 366 4122 106 4122 
L 106 4238 
L 1306 4238 
L 2844 922 
L 4356 4238 
L 5556 4238 
L 5556 4122 
L 5409 4122 
Q 5138 4122 5025 3959 
Q 4956 3859 4956 3503 
L 4956 734 
Q 4956 344 5044 247 
Q 5159 116 5409 116 
L 5556 116 
L 5556 0 
L 3756 0 
L 3756 116 
L 3906 116 
Q 4178 116 4288 278 
Q 4356 378 4356 734 
L 4356 3566 
L 2722 0 
L 2619 0 
z
" transform="scale(0.015625)"/>
      <path id="TimesNewRomanPSMT-20" transform="scale(0.015625)"/>
      <path id="TimesNewRomanPSMT-7c" d="M 763 4444 
L 763 -1381 
L 503 -1381 
L 503 4444 
L 763 4444 
z
" transform="scale(0.015625)"/>
      <path id="TimesNewRomanPSMT-44" d="M 109 0 
L 109 116 
L 269 116 
Q 538 116 650 288 
Q 719 391 719 750 
L 719 3488 
Q 719 3884 631 3984 
Q 509 4122 269 4122 
L 109 4122 
L 109 4238 
L 1834 4238 
Q 2784 4238 3279 4022 
Q 3775 3806 4076 3303 
Q 4378 2800 4378 2141 
Q 4378 1256 3841 663 
Q 3238 0 2003 0 
L 109 0 
z
M 1319 306 
Q 1716 219 1984 219 
Q 2709 219 3187 728 
Q 3666 1238 3666 2109 
Q 3666 2988 3187 3494 
Q 2709 4000 1959 4000 
Q 1678 4000 1319 3909 
L 1319 306 
z
" transform="scale(0.015625)"/>
      <path id="TimesNewRomanPSMT-41" d="M 2928 1419 
L 1288 1419 
L 1000 750 
Q 894 503 894 381 
Q 894 284 986 211 
Q 1078 138 1384 116 
L 1384 0 
L 50 0 
L 50 116 
Q 316 163 394 238 
Q 553 388 747 847 
L 2238 4334 
L 2347 4334 
L 3822 809 
Q 4000 384 4145 257 
Q 4291 131 4550 116 
L 4550 0 
L 2878 0 
L 2878 116 
Q 3131 128 3220 200 
Q 3309 272 3309 375 
Q 3309 513 3184 809 
L 2928 1419 
z
M 2841 1650 
L 2122 3363 
L 1384 1650 
L 2841 1650 
z
" transform="scale(0.015625)"/>
      <path id="TimesNewRomanPSMT-5f" d="M 3256 -1381 
L -53 -1381 
L -53 -1119 
L 3256 -1119 
L 3256 -1381 
z
" transform="scale(0.015625)"/>
      <path id="TimesNewRomanPSMT-45" d="M 1338 4006 
L 1338 2331 
L 2269 2331 
Q 2631 2331 2753 2441 
Q 2916 2584 2934 2947 
L 3050 2947 
L 3050 1472 
L 2934 1472 
Q 2891 1781 2847 1869 
Q 2791 1978 2662 2040 
Q 2534 2103 2269 2103 
L 1338 2103 
L 1338 706 
Q 1338 425 1363 364 
Q 1388 303 1450 267 
Q 1513 231 1688 231 
L 2406 231 
Q 2766 231 2928 281 
Q 3091 331 3241 478 
Q 3434 672 3638 1063 
L 3763 1063 
L 3397 0 
L 131 0 
L 131 116 
L 281 116 
Q 431 116 566 188 
Q 666 238 702 338 
Q 738 438 738 747 
L 738 3500 
Q 738 3903 656 3997 
Q 544 4122 281 4122 
L 131 4122 
L 131 4238 
L 3397 4238 
L 3444 3309 
L 3322 3309 
Q 3256 3644 3176 3769 
Q 3097 3894 2941 3959 
Q 2816 4006 2500 4006 
L 1338 4006 
z
" transform="scale(0.015625)"/>
      <path id="TimesNewRomanPSMT-50" d="M 1313 1984 
L 1313 750 
Q 1313 350 1400 253 
Q 1519 116 1759 116 
L 1922 116 
L 1922 0 
L 106 0 
L 106 116 
L 266 116 
Q 534 116 650 291 
Q 713 388 713 750 
L 713 3488 
Q 713 3888 628 3984 
Q 506 4122 266 4122 
L 106 4122 
L 106 4238 
L 1659 4238 
Q 2228 4238 2556 4120 
Q 2884 4003 3109 3725 
Q 3334 3447 3334 3066 
Q 3334 2547 2992 2222 
Q 2650 1897 2025 1897 
Q 1872 1897 1694 1919 
Q 1516 1941 1313 1984 
z
M 1313 2163 
Q 1478 2131 1606 2115 
Q 1734 2100 1825 2100 
Q 2150 2100 2386 2351 
Q 2622 2603 2622 3003 
Q 2622 3278 2509 3514 
Q 2397 3750 2190 3867 
Q 1984 3984 1722 3984 
Q 1563 3984 1313 3925 
L 1313 2163 
z
" transform="scale(0.015625)"/>
      <path id="TimesNewRomanPSMT-49" d="M 1975 116 
L 1975 0 
L 159 0 
L 159 116 
L 309 116 
Q 572 116 691 269 
Q 766 369 766 750 
L 766 3488 
Q 766 3809 725 3913 
Q 694 3991 597 4047 
Q 459 4122 309 4122 
L 159 4122 
L 159 4238 
L 1975 4238 
L 1975 4122 
L 1822 4122 
Q 1563 4122 1444 3969 
Q 1366 3869 1366 3488 
L 1366 750 
Q 1366 428 1406 325 
Q 1438 247 1538 191 
Q 1672 116 1822 116 
L 1975 116 
z
" transform="scale(0.015625)"/>
      <path id="TimesNewRomanPSMT-52" d="M 4325 0 
L 3194 0 
L 1759 1981 
Q 1600 1975 1500 1975 
Q 1459 1975 1412 1976 
Q 1366 1978 1316 1981 
L 1316 750 
Q 1316 350 1403 253 
Q 1522 116 1759 116 
L 1925 116 
L 1925 0 
L 109 0 
L 109 116 
L 269 116 
Q 538 116 653 291 
Q 719 388 719 750 
L 719 3488 
Q 719 3888 631 3984 
Q 509 4122 269 4122 
L 109 4122 
L 109 4238 
L 1653 4238 
Q 2328 4238 2648 4139 
Q 2969 4041 3192 3777 
Q 3416 3513 3416 3147 
Q 3416 2756 3161 2468 
Q 2906 2181 2372 2063 
L 3247 847 
Q 3547 428 3762 290 
Q 3978 153 4325 116 
L 4325 0 
z
M 1316 2178 
Q 1375 2178 1419 2176 
Q 1463 2175 1491 2175 
Q 2097 2175 2405 2437 
Q 2713 2700 2713 3106 
Q 2713 3503 2464 3751 
Q 2216 4000 1806 4000 
Q 1625 4000 1316 3941 
L 1316 2178 
z
" transform="scale(0.015625)"/>
      <path id="TimesNewRomanPSMT-56" d="M 4544 4238 
L 4544 4122 
Q 4319 4081 4203 3978 
Q 4038 3825 3909 3509 
L 2431 -97 
L 2316 -97 
L 728 3556 
Q 606 3838 556 3900 
Q 478 3997 364 4051 
Q 250 4106 56 4122 
L 56 4238 
L 1788 4238 
L 1788 4122 
Q 1494 4094 1406 4022 
Q 1319 3950 1319 3838 
Q 1319 3681 1463 3350 
L 2541 866 
L 3541 3319 
Q 3688 3681 3688 3822 
Q 3688 3913 3597 3995 
Q 3506 4078 3291 4113 
Q 3275 4116 3238 4122 
L 3238 4238 
L 4544 4238 
z
" transform="scale(0.015625)"/>
      <path id="TimesNewRomanPSMT-59" d="M 3050 4238 
L 4528 4238 
L 4528 4122 
L 4447 4122 
Q 4366 4122 4209 4050 
Q 4053 3978 3925 3843 
Q 3797 3709 3609 3406 
L 2588 1797 
L 2588 734 
Q 2588 344 2675 247 
Q 2794 116 3050 116 
L 3188 116 
L 3188 0 
L 1388 0 
L 1388 116 
L 1538 116 
Q 1806 116 1919 278 
Q 1988 378 1988 734 
L 1988 1738 
L 825 3513 
Q 619 3825 545 3903 
Q 472 3981 241 4091 
Q 178 4122 59 4122 
L 59 4238 
L 1872 4238 
L 1872 4122 
L 1778 4122 
Q 1631 4122 1507 4053 
Q 1384 3984 1384 3847 
Q 1384 3734 1575 3441 
L 2459 2075 
L 3291 3381 
Q 3478 3675 3478 3819 
Q 3478 3906 3433 3975 
Q 3388 4044 3303 4083 
Q 3219 4122 3050 4122 
L 3050 4238 
z
" transform="scale(0.015625)"/>
      <path id="TimesNewRomanPSMT-4c" d="M 3669 1172 
L 3772 1150 
L 3409 0 
L 128 0 
L 128 116 
L 288 116 
Q 556 116 672 291 
Q 738 391 738 753 
L 738 3488 
Q 738 3884 650 3984 
Q 528 4122 288 4122 
L 128 4122 
L 128 4238 
L 2047 4238 
L 2047 4122 
Q 1709 4125 1573 4059 
Q 1438 3994 1388 3894 
Q 1338 3794 1338 3416 
L 1338 753 
Q 1338 494 1388 397 
Q 1425 331 1503 300 
Q 1581 269 1991 269 
L 2300 269 
Q 2788 269 2984 341 
Q 3181 413 3343 595 
Q 3506 778 3669 1172 
z
" transform="scale(0.015625)"/>
      <path id="TimesNewRomanPSMT-54" d="M 3703 4238 
L 3750 3244 
L 3631 3244 
Q 3597 3506 3538 3619 
Q 3441 3800 3280 3886 
Q 3119 3972 2856 3972 
L 2259 3972 
L 2259 734 
Q 2259 344 2344 247 
Q 2463 116 2709 116 
L 2856 116 
L 2856 0 
L 1059 0 
L 1059 116 
L 1209 116 
Q 1478 116 1591 278 
Q 1659 378 1659 734 
L 1659 3972 
L 1150 3972 
Q 853 3972 728 3928 
Q 566 3869 450 3700 
Q 334 3531 313 3244 
L 194 3244 
L 244 4238 
L 3703 4238 
z
" transform="scale(0.015625)"/>
      <path id="TimesNewRomanPSMT-4f" d="M 2341 4334 
Q 3166 4334 3770 3707 
Q 4375 3081 4375 2144 
Q 4375 1178 3765 540 
Q 3156 -97 2291 -97 
Q 1416 -97 820 525 
Q 225 1147 225 2134 
Q 225 3144 913 3781 
Q 1509 4334 2341 4334 
z
M 2281 4106 
Q 1713 4106 1369 3684 
Q 941 3159 941 2147 
Q 941 1109 1384 550 
Q 1725 125 2284 125 
Q 2881 125 3270 590 
Q 3659 1056 3659 2059 
Q 3659 3147 3231 3681 
Q 2888 4106 2281 4106 
z
" transform="scale(0.015625)"/>
      <path id="TimesNewRomanPSMT-4e" d="M -84 4238 
L 1066 4238 
L 3656 1059 
L 3656 3503 
Q 3656 3894 3569 3991 
Q 3453 4122 3203 4122 
L 3056 4122 
L 3056 4238 
L 4531 4238 
L 4531 4122 
L 4381 4122 
Q 4113 4122 4000 3959 
Q 3931 3859 3931 3503 
L 3931 -69 
L 3819 -69 
L 1025 3344 
L 1025 734 
Q 1025 344 1109 247 
Q 1228 116 1475 116 
L 1625 116 
L 1625 0 
L 150 0 
L 150 116 
L 297 116 
Q 569 116 681 278 
Q 750 378 750 734 
L 750 3681 
Q 566 3897 470 3965 
Q 375 4034 191 4094 
Q 100 4122 -84 4122 
L -84 4238 
z
" transform="scale(0.015625)"/>
     </defs>
     <use xlink:href="#TimesNewRomanPSMT-53"/>
     <use xlink:href="#TimesNewRomanPSMT-53" x="55.615234"/>
     <use xlink:href="#TimesNewRomanPSMT-43" x="111.230469"/>
     <use xlink:href="#TimesNewRomanPSMT-57" x="177.929688"/>
     <use xlink:href="#TimesNewRomanPSMT-65" x="264.314453"/>
     <use xlink:href="#TimesNewRomanPSMT-62" x="308.699219"/>
     <use xlink:href="#TimesNewRomanPSMT-2f" x="358.699219"/>
     <use xlink:href="#TimesNewRomanPSMT-6d" x="386.482422"/>
     <use xlink:href="#TimesNewRomanPSMT-6d" x="464.265625"/>
     <use xlink:href="#TimesNewRomanPSMT-73" x="542.048828"/>
     <use xlink:href="#TimesNewRomanPSMT-32" x="580.964844"/>
     <use xlink:href="#TimesNewRomanPSMT-2f" x="630.964844"/>
     <use xlink:href="#TimesNewRomanPSMT-47" x="658.748047"/>
     <use xlink:href="#TimesNewRomanPSMT-53" x="730.964844"/>
     <use xlink:href="#TimesNewRomanPSMT-4d" x="786.580078"/>
     <use xlink:href="#TimesNewRomanPSMT-20" x="875.496094"/>
     <use xlink:href="#TimesNewRomanPSMT-7c" x="900.496094"/>
     <use xlink:href="#TimesNewRomanPSMT-20" x="920.515625"/>
     <use xlink:href="#TimesNewRomanPSMT-43" x="945.515625"/>
     <use xlink:href="#TimesNewRomanPSMT-44" x="1012.214844"/>
     <use xlink:href="#TimesNewRomanPSMT-41" x="1084.431641"/>
     <use xlink:href="#TimesNewRomanPSMT-57" x="1148.648438"/>
     <use xlink:href="#TimesNewRomanPSMT-65" x="1235.033203"/>
     <use xlink:href="#TimesNewRomanPSMT-62" x="1279.417969"/>
     <use xlink:href="#TimesNewRomanPSMT-2f" x="1329.417969"/>
     <use xlink:href="#TimesNewRomanPSMT-4d" x="1357.201172"/>
     <use xlink:href="#TimesNewRomanPSMT-4d" x="1446.117188"/>
     <use xlink:href="#TimesNewRomanPSMT-53" x="1535.033203"/>
     <use xlink:href="#TimesNewRomanPSMT-31" x="1590.648438"/>
     <use xlink:href="#TimesNewRomanPSMT-5f" x="1640.648438"/>
     <use xlink:href="#TimesNewRomanPSMT-45" x="1690.648438"/>
     <use xlink:href="#TimesNewRomanPSMT-50" x="1751.732422"/>
     <use xlink:href="#TimesNewRomanPSMT-44" x="1807.347656"/>
     <use xlink:href="#TimesNewRomanPSMT-2d" x="1879.564453"/>
     <use xlink:href="#TimesNewRomanPSMT-45" x="1912.865234"/>
     <use xlink:href="#TimesNewRomanPSMT-49" x="1973.949219"/>
     <use xlink:href="#TimesNewRomanPSMT-53" x="2007.25"/>
     <use xlink:href="#TimesNewRomanPSMT-5f" x="2062.865234"/>
     <use xlink:href="#TimesNewRomanPSMT-53" x="2112.865234"/>
     <use xlink:href="#TimesNewRomanPSMT-52" x="2168.480469"/>
     <use xlink:href="#TimesNewRomanPSMT-56" x="2227.179688"/>
     <use xlink:href="#TimesNewRomanPSMT-59" x="2299.396484"/>
     <use xlink:href="#TimesNewRomanPSMT-5f" x="2371.613281"/>
     <use xlink:href="#TimesNewRomanPSMT-4c" x="2421.613281"/>
     <use xlink:href="#TimesNewRomanPSMT-32" x="2482.697266"/>
     <use xlink:href="#TimesNewRomanPSMT-5f" x="2532.697266"/>
     <use xlink:href="#TimesNewRomanPSMT-45" x="2582.697266"/>
     <use xlink:href="#TimesNewRomanPSMT-4c" x="2643.78125"/>
     <use xlink:href="#TimesNewRomanPSMT-45" x="2704.865234"/>
     <use xlink:href="#TimesNewRomanPSMT-43" x="2765.949219"/>
     <use xlink:href="#TimesNewRomanPSMT-54" x="2832.648438"/>
     <use xlink:href="#TimesNewRomanPSMT-52" x="2893.732422"/>
     <use xlink:href="#TimesNewRomanPSMT-4f" x="2960.431641"/>
     <use xlink:href="#TimesNewRomanPSMT-4e" x="3032.648438"/>
     <use xlink:href="#TimesNewRomanPSMT-45" x="3104.865234"/>
     <use xlink:href="#TimesNewRomanPSMT-4e" x="3165.949219"/>
     <use xlink:href="#TimesNewRomanPSMT-45" x="3238.166016"/>
     <use xlink:href="#TimesNewRomanPSMT-52" x="3299.25"/>
     <use xlink:href="#TimesNewRomanPSMT-47" x="3365.949219"/>
     <use xlink:href="#TimesNewRomanPSMT-59" x="3438.166016"/>
     <use xlink:href="#TimesNewRomanPSMT-2f" x="3510.382812"/>
     <use xlink:href="#TimesNewRomanPSMT-47" x="3538.166016"/>
     <use xlink:href="#TimesNewRomanPSMT-53" x="3610.382812"/>
     <use xlink:href="#TimesNewRomanPSMT-4d" x="3665.998047"/>
    </g>
   </g>
   <g id="legend_1">
    <g id="patch_7">
     <path d="M 323.66125 198.505687 
L 404.053437 198.505687 
Q 406.053437 198.505687 406.053437 196.505687 
L 406.053437 112.671312 
Q 406.053437 110.671312 404.053437 110.671312 
L 323.66125 110.671312 
Q 321.66125 110.671312 321.66125 112.671312 
L 321.66125 196.505687 
Q 321.66125 198.505687 323.66125 198.505687 
z
" style="fill: #ffffff; opacity: 0.8; stroke: #cccccc; stroke-linejoin: miter"/>
    </g>
    <g id="line2d_57">
     <path d="M 325.66125 118.171312 
L 335.66125 118.171312 
L 345.66125 118.171312 
" style="fill: none; stroke: #ff0000; stroke-linecap: square"/>
    </g>
    <g id="text_18">
     <!-- CDAWeb/X -->
     <g transform="translate(353.66125 121.671312) scale(0.1 -0.1)">
      <defs>
       <path id="TimesNewRomanPSMT-58" d="M 2613 2347 
L 3522 991 
Q 3900 428 4083 279 
Q 4266 131 4547 116 
L 4547 0 
L 2728 0 
L 2728 116 
Q 2909 119 2997 153 
Q 3063 181 3105 239 
Q 3147 297 3147 356 
Q 3147 428 3119 500 
Q 3097 553 2947 775 
L 2228 1863 
L 1341 725 
Q 1200 544 1172 483 
Q 1144 422 1144 356 
Q 1144 256 1228 190 
Q 1313 125 1550 116 
L 1550 0 
L 47 0 
L 47 116 
Q 206 131 322 181 
Q 516 263 691 400 
Q 866 538 1091 822 
L 2091 2084 
L 1256 3306 
Q 916 3803 678 3958 
Q 441 4113 131 4122 
L 131 4238 
L 2091 4238 
L 2091 4122 
Q 1841 4113 1748 4041 
Q 1656 3969 1656 3881 
Q 1656 3766 1806 3544 
L 2456 2572 
L 3209 3525 
Q 3341 3694 3370 3756 
Q 3400 3819 3400 3884 
Q 3400 3950 3363 4000 
Q 3316 4066 3244 4092 
Q 3172 4119 2947 4122 
L 2947 4238 
L 4450 4238 
L 4450 4122 
Q 4272 4113 4159 4066 
Q 3991 3994 3850 3872 
Q 3709 3750 3453 3422 
L 2613 2347 
z
" transform="scale(0.015625)"/>
      </defs>
      <use xlink:href="#TimesNewRomanPSMT-43"/>
      <use xlink:href="#TimesNewRomanPSMT-44" x="66.699219"/>
      <use xlink:href="#TimesNewRomanPSMT-41" x="138.916016"/>
      <use xlink:href="#TimesNewRomanPSMT-57" x="203.132812"/>
      <use xlink:href="#TimesNewRomanPSMT-65" x="289.517578"/>
      <use xlink:href="#TimesNewRomanPSMT-62" x="333.902344"/>
      <use xlink:href="#TimesNewRomanPSMT-2f" x="383.902344"/>
      <use xlink:href="#TimesNewRomanPSMT-58" x="411.685547"/>
     </g>
    </g>
    <g id="line2d_58">
     <path d="M 325.66125 132.310375 
L 335.66125 132.310375 
L 345.66125 132.310375 
" style="fill: none; stroke-dasharray: 7.4,3.2; stroke-dashoffset: 0; stroke: #ff0000; stroke-width: 2"/>
    </g>
    <g id="text_19">
     <!-- SSCWeb/X -->
     <g transform="translate(353.66125 135.810375) scale(0.1 -0.1)">
      <use xlink:href="#TimesNewRomanPSMT-53"/>
      <use xlink:href="#TimesNewRomanPSMT-53" x="55.615234"/>
      <use xlink:href="#TimesNewRomanPSMT-43" x="111.230469"/>
      <use xlink:href="#TimesNewRomanPSMT-57" x="177.929688"/>
      <use xlink:href="#TimesNewRomanPSMT-65" x="264.314453"/>
      <use xlink:href="#TimesNewRomanPSMT-62" x="308.699219"/>
      <use xlink:href="#TimesNewRomanPSMT-2f" x="358.699219"/>
      <use xlink:href="#TimesNewRomanPSMT-58" x="386.482422"/>
     </g>
    </g>
    <g id="line2d_59">
     <path d="M 325.66125 146.449437 
L 335.66125 146.449437 
L 345.66125 146.449437 
" style="fill: none; stroke: #008000; stroke-linecap: square"/>
    </g>
    <g id="text_20">
     <!-- CDAWeb/Y -->
     <g transform="translate(353.66125 149.949437) scale(0.1 -0.1)">
      <use xlink:href="#TimesNewRomanPSMT-43"/>
      <use xlink:href="#TimesNewRomanPSMT-44" x="66.699219"/>
      <use xlink:href="#TimesNewRomanPSMT-41" x="138.916016"/>
      <use xlink:href="#TimesNewRomanPSMT-57" x="203.132812"/>
      <use xlink:href="#TimesNewRomanPSMT-65" x="289.517578"/>
      <use xlink:href="#TimesNewRomanPSMT-62" x="333.902344"/>
      <use xlink:href="#TimesNewRomanPSMT-2f" x="383.902344"/>
      <use xlink:href="#TimesNewRomanPSMT-59" x="411.685547"/>
     </g>
    </g>
    <g id="line2d_60">
     <path d="M 325.66125 160.5885 
L 335.66125 160.5885 
L 345.66125 160.5885 
" style="fill: none; stroke-dasharray: 7.4,3.2; stroke-dashoffset: 0; stroke: #008000; stroke-width: 2"/>
    </g>
    <g id="text_21">
     <!-- SSCWeb/Y -->
     <g transform="translate(353.66125 164.0885) scale(0.1 -0.1)">
      <use xlink:href="#TimesNewRomanPSMT-53"/>
      <use xlink:href="#TimesNewRomanPSMT-53" x="55.615234"/>
      <use xlink:href="#TimesNewRomanPSMT-43" x="111.230469"/>
      <use xlink:href="#TimesNewRomanPSMT-57" x="177.929688"/>
      <use xlink:href="#TimesNewRomanPSMT-65" x="264.314453"/>
      <use xlink:href="#TimesNewRomanPSMT-62" x="308.699219"/>
      <use xlink:href="#TimesNewRomanPSMT-2f" x="358.699219"/>
      <use xlink:href="#TimesNewRomanPSMT-59" x="386.482422"/>
     </g>
    </g>
    <g id="line2d_61">
     <path d="M 325.66125 174.727562 
L 335.66125 174.727562 
L 345.66125 174.727562 
" style="fill: none; stroke: #0000ff; stroke-linecap: square"/>
    </g>
    <g id="text_22">
     <!-- CDAWeb/Z -->
     <g transform="translate(353.66125 178.227562) scale(0.1 -0.1)">
      <defs>
       <path id="TimesNewRomanPSMT-5a" d="M 3681 4238 
L 897 256 
L 2634 256 
Q 3034 256 3248 431 
Q 3463 606 3628 1141 
L 3731 1122 
L 3531 0 
L 81 0 
L 81 116 
L 2800 3984 
L 1444 3984 
Q 1106 3984 954 3911 
Q 803 3838 723 3698 
Q 644 3559 578 3178 
L 459 3178 
L 547 4238 
L 3681 4238 
z
" transform="scale(0.015625)"/>
      </defs>
      <use xlink:href="#TimesNewRomanPSMT-43"/>
      <use xlink:href="#TimesNewRomanPSMT-44" x="66.699219"/>
      <use xlink:href="#TimesNewRomanPSMT-41" x="138.916016"/>
      <use xlink:href="#TimesNewRomanPSMT-57" x="203.132812"/>
      <use xlink:href="#TimesNewRomanPSMT-65" x="289.517578"/>
      <use xlink:href="#TimesNewRomanPSMT-62" x="333.902344"/>
      <use xlink:href="#TimesNewRomanPSMT-2f" x="383.902344"/>
      <use xlink:href="#TimesNewRomanPSMT-5a" x="411.685547"/>
     </g>
    </g>
    <g id="line2d_62">
     <path d="M 325.66125 188.866625 
L 335.66125 188.866625 
L 345.66125 188.866625 
" style="fill: none; stroke-dasharray: 7.4,3.2; stroke-dashoffset: 0; stroke: #0000ff; stroke-width: 2"/>
    </g>
    <g id="text_23">
     <!-- SSCWeb/Z -->
     <g transform="translate(353.66125 192.366625) scale(0.1 -0.1)">
      <use xlink:href="#TimesNewRomanPSMT-53"/>
      <use xlink:href="#TimesNewRomanPSMT-53" x="55.615234"/>
      <use xlink:href="#TimesNewRomanPSMT-43" x="111.230469"/>
      <use xlink:href="#TimesNewRomanPSMT-57" x="177.929688"/>
      <use xlink:href="#TimesNewRomanPSMT-65" x="264.314453"/>
      <use xlink:href="#TimesNewRomanPSMT-62" x="308.699219"/>
      <use xlink:href="#TimesNewRomanPSMT-2f" x="358.699219"/>
      <use xlink:href="#TimesNewRomanPSMT-5a" x="386.482422"/>
     </g>
    </g>
   </g>
  </g>
 </g>
 <defs>
  <clipPath id="pa63a596f35">
   <rect x="53.933437" y="21.5325" width="357.12" height="266.112"/>
  </clipPath>
 </defs>
</svg>
